<svg width="32" height="32" viewBox="0 0 32 32" fill="none" xmlns="http://www.w3.org/2000/svg">
<circle cx="16" cy="16" r="16" fill="white"/>
<mask id="mask0_3151_18611" style="mask-type:alpha" maskUnits="userSpaceOnUse" x="0" y="0" width="32" height="32">
<circle cx="16" cy="16" r="16" fill="#C4C4C4"/>
</mask>
<g mask="url(#mask0_3151_18611)">
<path d="M7.75209 9.67908C6.34093 13.1157 5.11287 17.3678 6.69119 20.9921C7.64197 23.1754 10.1926 24.0228 12.4297 24.1555C15.8653 24.3593 18.4731 21.504 20.2417 18.851C21.3414 17.2015 22.595 15.2117 22.595 13.1511" stroke="#343A40" stroke-width="1.4" stroke-linecap="round"/>
<path d="M11.3971 3.95013C10.5313 4.71657 9.92837 5.48832 9.57402 6.59306C9.40917 7.10698 9.48721 7.71271 9.48721 8.24729C9.48721 9.72622 10.6628 10.6147 11.9179 11.2423" stroke="#343A40" stroke-width="1.4" stroke-linecap="round"/>
<path d="M16.518 5.16541C15.8257 6.09476 15.0973 7.12345 14.9747 8.31955C14.8897 9.14797 15.3759 9.93482 15.6692 10.6731C15.9895 11.4794 16.4777 11.8349 17.2221 12.2357C17.4236 12.3442 18.6883 12.9466 18.6883 12.6312" stroke="#343A40" stroke-width="1.4" stroke-linecap="round"/>
<path d="M21.5536 6.90143C21.1111 9.03081 21.2141 13.1653 24.1579 13.5859" stroke="#343A40" stroke-width="1.4" stroke-linecap="round"/>
<path d="M10.6162 11.502C9.45045 11.4777 8.09459 11.0793 7.33662 12.1579C6.94308 12.7179 6.44922 13.8789 6.44922 14.5741C6.44922 15.2679 7.39909 15.6292 7.9443 15.8426C8.91687 16.2231 10.0215 16.5274 11.0695 16.5274C12.5184 16.5274 13.0469 15.0902 13.0469 13.8652C13.0469 13.4368 13.2058 12.8744 12.7382 12.6739C12.1041 12.4022 11.4004 12.1546 10.7898 11.8492" stroke="#343A40" stroke-width="1.4" stroke-linecap="round"/>
<path d="M17.5625 12.9775C16.0244 12.9987 14.0513 12.8234 13.357 14.5112C12.9104 15.5969 13.312 16.455 14.3119 17.0432C15.5122 17.7493 18.919 19.007 19.0673 16.6622C19.1126 15.945 19.1006 14.6024 18.5174 14.0193" stroke="#343A40" stroke-width="1.4" stroke-linecap="round"/>
<path d="M15.5645 15.1475C15.8811 15.4546 16.0003 15.6133 16.0003 15.1475" stroke="#343A40" stroke-width="1.4" stroke-linecap="round"/>
<path d="M11.0526 14.1059C10.8571 14.1059 10.4904 14.021 10.3379 14.1735C10.2495 14.2619 10.2511 14.3136 10.3572 14.3667" stroke="#343A40" stroke-width="1.4" stroke-linecap="round"/>
<path d="M8.62166 4.12372C7.50694 4.68108 6.625 5.24296 6.625 6.57373C6.625 7.35976 6.89349 8.04633 7.23268 8.72472" stroke="#343A40" stroke-width="1.4" stroke-linecap="round"/>
<path d="M22.4215 15.408C22.5911 15.3176 23.365 14.7518 23.5934 14.945C23.7855 15.1076 23.9027 15.3325 24.1095 15.49C24.3862 15.7009 24.4962 15.9813 24.5725 16.3147C24.7472 17.0791 24.8957 18.2397 24.2493 18.8323C23.7702 19.2714 22.9389 19.3061 22.3009 19.4448C21.6642 19.5832 21.0472 19.4183 20.4248 19.3146" stroke="#343A40" stroke-width="1.4" stroke-linecap="round"/>
<path d="M11.486 17.4042C10.968 17.4278 10.5159 17.5865 10.2031 18.0119C9.73927 18.6427 11.1775 17.9742 11.3124 17.9251C11.6837 17.7901 12.6797 17.1429 12.6097 17.8431C12.5925 18.0157 12.5277 18.1748 12.5277 18.3495C12.5277 18.4238 12.9554 18.1023 13.0197 18.0409C13.4538 17.626 13.3723 17.4904 13.5695 18.0601C13.6033 18.158 13.7551 18.565 13.9167 18.446C14.0369 18.3574 14.0416 18.255 14.1386 18.4074C14.2434 18.5722 14.2986 19.1926 14.5678 18.9234C14.9295 18.5617 14.7704 18.7932 15.1321 18.7932" stroke="#343A40" stroke-width="1.4" stroke-linecap="round"/>
<path d="M7.40396 19.9215C7.32898 20.1023 7.06641 20.4411 7.06641 20.6448C7.06641 20.6804 7.38325 20.5728 7.38468 20.5725C7.61515 20.5193 7.87465 20.452 8.11284 20.452C8.53487 20.452 7.36105 22.3838 8.24304 22.1687C8.6798 22.0622 9.1107 21.9276 9.55469 21.8504C9.87533 21.7947 9.74758 22.3024 9.74758 22.5062C9.74758 22.7821 9.62299 23.1793 10.008 23.0463C10.3004 22.9453 10.9098 22.4283 11.2039 22.4773C11.2625 22.4871 11.3627 23.0134 11.3968 23.0849C11.5707 23.45 11.636 23.2411 11.9128 22.9644C12.2417 22.6355 12.2563 22.5281 12.612 22.8245C12.779 22.9637 12.9192 23.1827 13.1473 23.0801C13.5562 22.8961 13.8962 22.6239 14.2612 22.3712C14.5313 22.1842 14.5058 22.4983 14.6952 22.593C14.7912 22.641 14.9552 22.492 15.0424 22.458C15.1299 22.424 15.2839 22.5255 15.3896 22.5255" stroke="#343A40" stroke-width="1.4" stroke-linecap="round"/>
<path d="M26.8479 6.72784C27.6518 7.82113 28.1499 8.80643 28.1499 10.1709C28.1499 11.3982 28.1193 12.6639 27.9088 13.8744C27.7773 14.6307 27.4992 14.9001 26.9058 15.3693C26.6187 15.5964 25.8026 15.8382 26.1535 16.1891" stroke="#343A40" stroke-width="1.4" stroke-linecap="round"/>
<path d="M14.6973 24.7828C14.9608 25.4339 15.3049 26.1497 15.3049 26.8662C15.3049 27.2953 15.4138 27.5073 15.7197 27.8019C16.3106 28.3709 17.6341 28.3519 18.0829 27.6668C18.3818 27.2106 18.2848 26.6331 18.3867 26.1235C18.4827 25.6437 18.4302 25.1167 18.4302 24.6284C18.4302 23.9486 18.2565 23.2728 18.2565 22.6125" stroke="#343A40" stroke-width="1.4" stroke-linecap="round"/>
<path d="M18.3428 27.4733C20.3274 29.1759 22.9104 30.7318 24.2508 33.0774C24.6582 33.7905 25.0067 34.5175 25.4613 35.1995" stroke="#343A40" stroke-width="1.4" stroke-linecap="round"/>
<path d="M14.4384 27.647C12.3554 29.5246 10.2715 32.0832 10.2715 35.0259" stroke="#343A40" stroke-width="1.4" stroke-linecap="round"/>
<path d="M24.8822 11.6066C24.8822 12.181 24.8558 12.7422 24.8237 13.3034C24.8027 13.6709 24.4727 14.0085 24.4727 14.3566" stroke="#343A40" stroke-width="1.4" stroke-linecap="round"/>
<path d="M11.8711 31.1285C11.8818 32.072 12.0421 33.0447 12.2423 33.9638C12.2921 34.1925 12.3225 34.4416 12.3918 34.6649C12.4208 34.7585 12.4416 35.2741 12.567 35.2114" stroke="#343A40" stroke-width="1.4" stroke-linecap="round"/>
<path d="M14.0039 28.8091C14.0386 29.3385 14.2341 29.8522 14.375 30.3607C14.549 30.988 14.7071 31.6166 14.8364 32.2549C14.9481 32.8067 15.1246 33.3565 15.2101 33.9121C15.2484 34.1616 15.2764 34.4112 15.3389 34.6544C15.3709 34.7787 15.442 35.1539 15.442 35.0255" stroke="#343A40" stroke-width="1.4" stroke-linecap="round"/>
<path d="M17.1582 28.8557C17.2082 30.0065 17.698 31.1365 17.9365 32.2576C18.0768 32.9168 18.2369 33.5887 18.318 34.2576C18.3431 34.4653 18.4237 34.7242 18.5267 34.9096C18.5517 34.9546 18.5312 35.0254 18.5602 35.0617C18.6225 35.1396 18.8503 34.6082 18.8747 34.5617" stroke="#343A40" stroke-width="1.4" stroke-linecap="round"/>
<path d="M19.8467 29.3658C20.1181 30.6668 20.5124 31.8721 20.9575 33.1183C21.1264 33.5913 21.3762 34.022 21.5631 34.4894C21.6281 34.6517 21.6925 34.8211 21.759 34.9791C21.8517 35.1992 21.7412 35.1965 21.9806 35.0254" stroke="#343A40" stroke-width="1.4" stroke-linecap="round"/>
<path d="M12.8877 29.7833C14.8315 29.7833 16.8211 29.9039 18.7613 29.7137C19.2729 29.6636 19.7963 29.6905 20.3102 29.6905" stroke="#343A40" stroke-width="1.4" stroke-linecap="round"/>
<path d="M11.0801 32.2883C14.2893 32.2883 17.4966 32.1955 20.705 32.1955C21.1341 32.1955 21.5499 32.121 21.9805 32.1723C22.216 32.2003 22.4549 32.203 22.6918 32.1929C22.7349 32.1911 23.1176 32.1432 22.9082 32.1955" stroke="#343A40" stroke-width="1.4" stroke-linecap="round"/>
<path d="M19.3008 15.5834H21.9725" stroke="#343A40" stroke-width="1.4" stroke-linecap="round"/>
<path d="M5.70898 12.4472C5.92515 12.4169 6.13328 12.3889 6.35059 12.3889" stroke="#343A40" stroke-width="1.4" stroke-linecap="round"/>
</g>
</svg>
