<svg width="41" height="40" viewBox="0 0 41 40" fill="none" xmlns="http://www.w3.org/2000/svg">
<circle cx="20.9688" cy="20" r="20" fill="#FFEBEE"/>
<path d="M20.9677 31.2765C27.196 31.2765 32.245 26.2275 32.245 19.9992C32.245 13.7709 27.196 8.72192 20.9677 8.72192C14.7395 8.72192 9.69043 13.7709 9.69043 19.9992C9.69043 26.2275 14.7395 31.2765 20.9677 31.2765Z" fill="#DD4863"/>
<path d="M15.393 11.1802C14.5001 11.7574 13.6993 12.4661 13.0177 13.2822C12.797 13.5975 12.4397 13.8497 12.4187 14.3332C12.4187 14.5749 11.9667 14.7431 11.8091 15.0689C11.3576 15.953 11.0254 16.8931 10.8211 17.8646C10.6897 18.813 10.6897 19.7749 10.8211 20.7233C10.8354 21.6686 11.0504 22.6 11.4517 23.4559C11.718 24.1505 12.0341 24.8249 12.3976 25.4739C12.6184 25.8102 12.9126 26.094 13.1439 26.4198C13.3751 26.7456 13.6483 27.0399 13.9006 27.3341C14.1528 27.6284 14.2684 27.7861 14.4681 27.9963C14.6784 28.1886 14.9033 28.3643 15.1408 28.5218C15.4561 28.7005 15.8239 28.732 16.1918 28.9422C16.5596 29.1524 16.8224 29.4046 17.2428 29.268C17.2428 29.268 17.411 29.3521 17.474 29.4151C17.6064 29.5585 17.7702 29.6691 17.9525 29.7384C18.1349 29.8077 18.3309 29.8338 18.525 29.8145C18.8175 29.8106 19.1097 29.8353 19.3973 29.8881C19.7864 29.9539 20.18 29.989 20.5745 29.9932C20.9699 30.0195 21.3667 30.0195 21.7621 29.9932C22.0564 29.9932 22.3507 29.9932 22.645 29.9932C22.9453 29.9937 23.2448 29.962 23.5383 29.8986C24.1584 29.783 24.7365 29.4362 25.3145 29.3206C25.879 29.1893 26.4115 28.9462 26.8805 28.6059C27.1433 28.4167 27.5321 28.2801 27.5637 27.9017C27.6036 27.8433 27.6579 27.7962 27.7213 27.7651C28.6882 27.4392 28.9405 26.3987 29.5396 25.7156C30.1308 24.9359 30.5694 24.0516 30.8323 23.1091C30.9006 22.9909 30.9434 22.8596 30.9578 22.7239C30.9723 22.5881 30.9582 22.4508 30.9164 22.3209C30.8638 22.2263 30.9164 21.974 30.9899 21.8479C31.2974 21.1667 31.4102 20.4137 31.3158 19.6723C31.3158 18.821 31.1056 18.0117 31.074 17.1289C31.0815 16.9057 31.0381 16.6837 30.947 16.4797C30.856 16.2758 30.7197 16.0952 30.5485 15.9518C30.3488 15.8256 30.2858 15.4052 30.1281 15.132C29.9705 14.8587 29.7393 14.7851 29.6131 14.5749C29.487 14.3647 29.4765 14.1545 29.3819 13.9548C29.3521 13.8905 29.3092 13.8333 29.2558 13.7867C28.2994 13.0089 27.6793 11.8949 26.5652 11.2853C25.4758 10.6684 24.3096 10.1983 23.0969 9.88743C22.7558 9.8299 22.4213 9.73838 22.0984 9.61419C21.7702 9.51186 21.4735 9.32735 21.2366 9.07817C21.0159 8.83644 21.0054 8.5842 21.3417 8.45808C21.6003 8.34134 21.8782 8.27363 22.1615 8.25839C22.6134 8.25839 23.0654 8.25837 23.5173 8.31092C24.4705 8.33947 25.4048 8.58382 26.2499 9.0256C26.5022 9.19376 26.9015 9.21479 26.9961 9.56162C27.0319 9.62762 27.0924 9.67675 27.1643 9.69826C28.4062 10.1834 29.4799 11.0197 30.2542 12.1051C31.0909 12.8706 31.76 13.801 32.2196 14.8377C32.4841 15.0697 32.6834 15.3667 32.7977 15.6995C32.9319 16.0176 33.0169 16.3543 33.0499 16.698C33.4784 18.9276 33.4102 21.2242 32.8502 23.4244C32.1781 25.6264 30.9127 27.6009 29.1927 29.1314C28.9515 29.4504 28.6429 29.7124 28.2889 29.8986C27.8506 30.1317 27.4292 30.3951 27.0277 30.6869C26.6356 30.9252 26.22 31.1225 25.7875 31.2754C24.0816 31.7806 22.3115 32.0355 20.5324 32.0321C18.7471 31.9129 17.0018 31.4489 15.393 30.6658C14.392 30.242 13.474 29.6442 12.6814 28.9001C12.2767 28.6269 11.9679 28.2336 11.7986 27.7756C11.7986 27.6495 11.3572 27.4182 11.1575 27.187C10.9197 26.8947 10.7087 26.5816 10.5269 26.2516C10.325 25.9372 10.1492 25.6068 10.0014 25.2637C9.55477 24.3214 9.21968 23.3303 9.0029 22.3103C8.83192 21.6937 8.70894 21.0647 8.63505 20.429C8.60082 20.0795 8.60082 19.7275 8.63505 19.378C8.64181 19.0254 8.67696 18.674 8.74014 18.327C8.89324 17.4917 9.13276 16.6745 9.45483 15.8887C9.69971 15.0496 10.0834 14.2574 10.5899 13.5449C11.4977 12.3102 12.557 11.1944 13.7429 10.2238C14.9746 9.32931 16.3453 8.64398 17.7998 8.19533C18.607 8.0182 19.4334 7.94402 20.2592 7.97459C22.9799 8.26994 21.5882 8.62141 21.4411 8.85263C21.4049 8.90517 22.5559 9.53887 22.4963 9.56162C21.756 9.65795 19.4813 9.49931 18.7667 9.71927C17.5566 9.97826 16.4099 10.4748 15.393 11.1802Z" fill="#1F2227"/>
<path d="M18.0495 18.5052C17.9695 18.4337 17.925 18.3927 17.8449 18.3461C17.7649 18.2994 17.4536 18.2948 17.4536 18.2948C17.4315 18.2737 17.4038 18.259 17.3736 18.2521H17.2846C17.0775 18.3024 16.8932 18.4164 16.7599 18.5768C16.6782 18.6933 16.6208 18.8238 16.5909 18.9613C16.5559 19.1175 16.5113 19.2716 16.4575 19.4228C16.44 19.516 16.44 19.6115 16.4575 19.7048C16.4663 19.7871 16.4663 19.8702 16.4575 19.9526V20.4653C16.4662 20.5604 16.4934 20.6532 16.5375 20.7388C16.5731 20.8157 16.6176 20.7388 16.6709 20.8157C16.7101 20.9064 16.7546 20.9948 16.8043 21.0806C16.8313 21.1395 16.8673 21.1942 16.9111 21.2429C16.9644 21.2515 16.9644 21.1233 16.9644 21.1917C16.9555 21.4309 16.9733 21.2686 17.0267 21.3797C17.08 21.4908 17.1423 21.4395 17.2046 21.4395C17.2827 21.4649 17.3574 21.4994 17.4269 21.542C17.4739 21.5508 17.5222 21.5508 17.5692 21.542C17.7738 21.5591 17.925 21.4138 17.9873 21.4309C18.0495 21.448 18.0228 21.3882 18.0495 21.3626C18.0762 21.3369 18.1296 21.2344 18.1296 21.2857V21.1831C18.2286 20.9678 18.2974 20.7408 18.3341 20.508C18.4053 20.2517 18.3954 20.0027 18.3954 19.642C18.3954 19.2813 18.2541 18.8389 18.2541 18.8389C18.2185 18.7364 18.1296 18.5768 18.0495 18.5052Z" fill="#1F2227"/>
<path d="M25.1462 18.3928C25.0661 18.3213 25.0217 18.2803 24.9416 18.2336C24.8616 18.187 24.5503 18.1824 24.5503 18.1824C24.5282 18.1613 24.5005 18.1465 24.4702 18.1396H24.3813C24.1742 18.1899 23.9899 18.304 23.8565 18.4644C23.7748 18.5808 23.7175 18.7114 23.6876 18.8489C23.6525 19.0051 23.608 19.1592 23.5541 19.3104C23.5366 19.4036 23.5366 19.4991 23.5541 19.5923C23.563 19.6747 23.563 19.7578 23.5541 19.8402V20.3529C23.5629 20.448 23.5901 20.5408 23.6342 20.6263C23.6698 20.7032 23.7142 20.6263 23.7676 20.7032C23.8068 20.7939 23.8513 20.8824 23.901 20.9681C23.928 21.0271 23.964 21.0818 24.0077 21.1305C24.0611 21.1391 24.0611 21.0109 24.0611 21.0792C24.0522 21.3185 24.07 21.1562 24.1234 21.2672C24.1767 21.3783 24.239 21.327 24.3012 21.327C24.3794 21.3525 24.4541 21.3869 24.5236 21.4296C24.5706 21.4384 24.6189 21.4384 24.6659 21.4296C24.8705 21.4467 25.0217 21.3014 25.0839 21.3185C25.1462 21.3356 25.1195 21.2758 25.1462 21.2501C25.1729 21.2245 25.2262 21.122 25.2262 21.1732V21.0707C25.3252 20.8554 25.394 20.6283 25.4308 20.3956C25.502 20.1392 25.4921 19.8902 25.4921 19.5296C25.4921 19.1689 25.3508 18.7265 25.3508 18.7265C25.3152 18.6239 25.2262 18.4644 25.1462 18.3928Z" fill="#1F2227"/>
<path d="M21.8997 23.2517C21.909 23.1402 21.909 23.0282 21.8997 22.9168C21.8997 22.8702 21.9183 22.8889 21.9492 22.852C21.8656 22.7865 21.9183 22.7865 21.8997 22.7679C21.8811 22.7493 21.8997 22.6376 21.8997 22.5818C21.8997 22.526 21.843 22.4531 21.7965 22.4159C21.75 22.3787 21.7664 22.2655 21.6548 22.2934C21.5638 22.2283 21.6586 22.1818 21.5935 22.1725C21.5283 22.1632 21.5734 22.1818 21.4876 22.098C21.4411 22.0248 21.4345 22.0143 21.388 22.0236C21.3415 22.0329 21.388 21.9807 21.303 22.0236C21.2441 21.9989 21.2763 22.0236 21.2441 22.0515L21.1714 22.0236C21.1714 21.8934 21.1999 21.9691 21.1314 22.0236C21.0188 22.0734 21.0964 22.0515 21.0406 22.0515L20.9606 22.0515C20.9606 22.0515 20.9042 22.1166 20.867 22.098C20.8298 22.0794 20.8129 22.1535 20.7571 22.0697C20.7013 21.986 20.653 22.0329 20.6251 22.0515C20.5972 22.0701 20.659 21.9643 20.5681 22.098C20.4155 22.1074 20.5027 22.1725 20.4119 22.2369C20.3537 22.2934 20.3707 22.3074 20.3428 22.3539C20.3149 22.4004 20.3428 22.3321 20.2992 22.4411C20.2157 22.4629 20.2715 22.4702 20.2343 22.526C20.1971 22.5818 20.2808 22.4865 20.1506 22.6119C20.1506 22.65 20.1175 22.6519 20.1506 22.7307C20.1506 22.7307 20.1829 22.728 20.1829 22.7838L20.1829 22.8275C20.2157 23.0055 20.0762 23.0563 20.1413 23.1866C20.1833 23.3166 20.1833 23.4566 20.1413 23.5866C20.1413 23.6611 20.0669 23.7355 19.704 23.782C19.557 23.8155 19.4044 23.8155 19.2574 23.782C19.196 23.7723 19.1383 23.7467 19.09 23.7076L18.9876 23.5866C18.9225 23.5029 18.755 23.4192 18.8481 23.3261C18.9411 23.2331 18.7737 23.2703 18.9411 23.2424C18.6899 23.1308 18.8574 23.0005 18.8388 22.8889C18.8202 22.7772 18.7728 22.7307 18.8019 22.4813C18.8019 22.2551 18.8055 22.1841 18.8855 22.0236C19.1045 21.7298 19.0155 21.6608 19.2202 21.4375C19.4151 21.211 19.6443 21.0163 19.8994 20.8607C19.8994 20.8607 19.8994 20.7211 20.0296 20.7676C20.1599 20.8141 20.1506 20.7676 20.2157 20.7118C20.2808 20.656 20.3087 20.6281 20.3832 20.6653C20.653 20.7955 20.8391 20.6653 21.0717 20.6653C21.3042 20.6653 21.4996 20.749 21.7229 20.7676C21.9462 20.7862 22.0299 20.7676 22.1416 20.8514C22.2532 20.9351 22.2997 20.8513 22.2346 21.0374C22.2346 21.0839 22.3463 21.0374 22.3835 21.0374C22.466 21.0891 22.5411 21.1517 22.6067 21.2235L22.8673 21.5398C22.9231 21.5956 22.9756 21.6124 23.0314 21.6868C23.0948 21.7537 23.103 21.8386 23.1185 21.9294C23.1279 22.047 23.1937 22.1192 23.1843 22.2369C23.1843 22.3485 23.211 22.3693 23.1847 22.5818C23.0964 22.7537 23.1371 22.954 23.1185 23.1028C23.0906 23.241 23.0906 23.3833 23.1185 23.5215C23.1185 23.5959 22.9789 23.6703 22.9789 23.7448C22.7768 23.804 22.5656 23.8261 22.3556 23.8099L22.2811 23.8099C22.1323 23.7355 21.8997 23.661 21.9183 23.5773C21.9189 23.4685 21.9127 23.3597 21.8997 23.2517Z" fill="#1F2227"/>
</svg>
