<svg width="24" height="24" viewBox="0 0 24 24" fill="none" xmlns="http://www.w3.org/2000/svg">
<path d="M11.1927 3.1041C11.5922 2.55775 12.4077 2.55775 12.8072 3.1041L15.4544 6.7246C15.5778 6.8934 15.7511 7.01926 15.9498 7.08448L20.2111 8.48335C20.8542 8.69445 21.1062 9.47004 20.71 10.0188L18.0847 13.6553C17.9623 13.8248 17.8962 14.0285 17.8955 14.2376L17.882 18.7226C17.8799 19.3994 17.2202 19.8788 16.5758 19.6716L12.3061 18.2985C12.107 18.2345 11.8929 18.2345 11.6938 18.2985L7.4241 19.6716C6.77977 19.8788 6.12001 19.3994 6.11796 18.7226L6.10438 14.2376C6.10375 14.0285 6.03758 13.8248 5.91518 13.6553L3.28993 10.0188C2.89376 9.47004 3.14576 8.69445 3.78882 8.48335L8.05016 7.08448C8.24884 7.01926 8.42207 6.8934 8.54549 6.7246L11.1927 3.1041Z" fill="#6244FF"/>
<path d="M13.375 14.6002V10.2742L14.082 10.9462H12.535V9.7002H15.027V14.6002H13.375Z" fill="white"/>
<path d="M9.31996 13.8697V10.9297H10.4V13.8697H9.31996ZM8.32996 12.9097V11.8897H11.39V12.9097H8.32996Z" fill="white"/>
</svg>
