<svg width="24" height="24" viewBox="0 0 24 24" fill="none" xmlns="http://www.w3.org/2000/svg">
<path d="M11.346 3.5658L4 9.917V20.0003C4 20.5526 4.44772 21.0003 5 21.0003H19C19.5523 21.0003 20 20.5526 20 20.0003V9.917L12.654 3.5658C12.2785 3.24109 11.7215 3.24109 11.346 3.5658Z" fill="#6244FF"/>
<path d="M6 6V12.1924C6 12.5613 6.20313 12.9003 6.52846 13.0742L11.5285 15.7479C11.8231 15.9054 12.1769 15.9054 12.4715 15.7479L17.4715 13.0742C17.7969 12.9003 18 12.5613 18 12.1924V6C18 5.44772 17.5523 5 17 5H7C6.44772 5 6 5.44771 6 6Z" fill="#F4F2FF"/>
<path d="M9.81824 12.1777H14.3182V7.67773L9.81824 12.1777Z" fill="#EB6963"/>
<path d="M14.3182 12.1777H9.81824V7.67773L14.3182 12.1777Z" fill="#4C49E0"/>
<path d="M20 20V10L5 21H19C19.5523 21 20 20.5523 20 20Z" fill="#9580FF"/>
<path d="M4 20V10L19 21H5C4.44772 21 4 20.5523 4 20Z" fill="#C2B6FF"/>
</svg>
