<svg width="24" height="24" viewBox="0 0 24 24" fill="none" xmlns="http://www.w3.org/2000/svg">
<path d="M3 8C3 6.89543 3.89543 6 5 6H15C16.1046 6 17 6.89543 17 8V20C17 21.1046 16.1046 22 15 22H5C3.89543 22 3 21.1046 3 20V8Z" fill="#C2B6FF"/>
<path d="M9 3C7.89543 3 7 3.89543 7 5H16C17.1046 5 18 5.89543 18 7V19H19C20.1046 19 21 18.1046 21 17V5C21 3.89543 20.1046 3 19 3H9Z" fill="#6244FF"/>
<path fill-rule="evenodd" clip-rule="evenodd" d="M5.25 10C5.25 9.58579 5.58579 9.25 6 9.25H14C14.4142 9.25 14.75 9.58579 14.75 10C14.75 10.4142 14.4142 10.75 14 10.75H6C5.58579 10.75 5.25 10.4142 5.25 10Z" fill="#6244FF"/>
<path fill-rule="evenodd" clip-rule="evenodd" d="M5.25 13C5.25 12.5858 5.58579 12.25 6 12.25H11C11.4142 12.25 11.75 12.5858 11.75 13C11.75 13.4142 11.4142 13.75 11 13.75H6C5.58579 13.75 5.25 13.4142 5.25 13Z" fill="#6244FF"/>
</svg>
