<svg width="44" height="45" viewBox="0 0 44 45" fill="none" xmlns="http://www.w3.org/2000/svg">
<path d="M13.2 1.27539H30.8C37.676 1.27539 43.25 6.84944 43.25 13.7254V31.3254C43.25 38.2013 37.676 43.7754 30.8 43.7754H13.2C6.32407 43.7754 0.75 38.2013 0.75 31.3254V13.7254C0.75 6.84945 6.32407 1.27539 13.2 1.27539Z" fill="#D4F5EB" stroke="#A7E5D2" stroke-width="1.5"/>
<path d="M21.9999 34.9295C28.8511 34.9295 34.405 29.3755 34.405 22.5243C34.405 15.6731 28.8511 10.1191 21.9999 10.1191C15.1487 10.1191 9.59473 15.6731 9.59473 22.5243C9.59473 29.3755 15.1487 34.9295 21.9999 34.9295Z" fill="#04C088"/>
<path d="M15.8674 12.8236C14.8851 13.4586 14.0042 14.2381 13.2545 15.1358C13.0117 15.4827 12.6187 15.7601 12.5955 16.292C12.5955 16.5579 12.0984 16.7428 11.925 17.1012C11.4283 18.0737 11.0629 19.1079 10.8382 20.1765C10.6937 21.2197 10.6937 22.2779 10.8382 23.3211C10.854 24.3609 11.0904 25.3855 11.5319 26.3271C11.8248 27.0911 12.1726 27.8329 12.5724 28.5468C12.8152 28.9168 13.1389 29.2289 13.3933 29.5873C13.6476 29.9457 13.9482 30.2694 14.2257 30.5931C14.5031 30.9169 14.6303 31.0903 14.85 31.3215C15.0813 31.5331 15.3286 31.7263 15.5899 31.8996C15.9367 32.0961 16.3414 32.1308 16.746 32.362C17.1507 32.5932 17.4397 32.8707 17.9021 32.7204C17.9021 32.7204 18.0871 32.8129 18.1565 32.8823C18.3021 33.0399 18.4823 33.1616 18.6829 33.2379C18.8835 33.3141 19.099 33.3428 19.3126 33.3216C19.6343 33.3173 19.9557 33.3444 20.2722 33.4025C20.7001 33.4749 21.133 33.5135 21.567 33.5181C22.002 33.547 22.4384 33.547 22.8734 33.5181C23.1971 33.5181 23.5209 33.5181 23.8446 33.5181C24.1749 33.5186 24.5044 33.4838 24.8273 33.4141C25.5094 33.2869 26.1453 32.9054 26.7811 32.7782C27.4021 32.6338 27.9878 32.3665 28.5037 31.992C28.7928 31.7839 29.2205 31.6337 29.2552 31.2175C29.2991 31.1532 29.3588 31.1015 29.4286 31.0672C30.4923 30.7088 30.7697 29.5642 31.4287 28.8127C32.0791 27.9551 32.5616 26.9823 32.8508 25.9456C32.9259 25.8155 32.9729 25.6711 32.9888 25.5218C33.0048 25.3724 32.9892 25.2214 32.9432 25.0785C32.8854 24.9744 32.9432 24.6969 33.0242 24.5582C33.3623 23.8089 33.4864 22.9805 33.3826 22.165C33.3826 21.2286 33.1513 20.3384 33.1167 19.3672C33.1249 19.1217 33.0771 18.8775 32.977 18.6531C32.8768 18.4288 32.7269 18.2302 32.5386 18.0724C32.3189 17.9337 32.2496 17.4712 32.0761 17.1706C31.9027 16.87 31.6484 16.7891 31.5096 16.5579C31.3709 16.3266 31.3594 16.0954 31.2553 15.8757C31.2226 15.805 31.1753 15.742 31.1166 15.6908C30.0645 14.8353 29.3824 13.6098 28.1569 12.9392C26.9586 12.2606 25.6757 11.7435 24.3417 11.4016C23.9665 11.3383 23.5985 11.2376 23.2434 11.101C22.8823 10.9884 22.556 10.7855 22.2954 10.5114C22.0526 10.2454 22.041 9.96798 22.411 9.82925C22.6954 9.70083 23.0012 9.62635 23.3128 9.60958C23.8099 9.60958 24.307 9.60957 24.8042 9.66737C25.8527 9.69878 26.8804 9.96756 27.8101 10.4535C28.0875 10.6385 28.5269 10.6616 28.6309 11.0432C28.6703 11.1158 28.7368 11.1698 28.8159 11.1935C30.182 11.7271 31.3631 12.6471 32.2149 13.841C33.1352 14.6831 33.8713 15.7065 34.3768 16.8469C34.6678 17.1021 34.887 17.4289 35.0127 17.7949C35.1603 18.1448 35.2539 18.5152 35.2902 18.8932C35.7615 21.3458 35.6865 23.8721 35.0705 26.2924C34.3312 28.7146 32.9392 30.8866 31.0472 32.5701C30.7818 32.9211 30.4423 33.2092 30.0529 33.4141C29.5709 33.6705 29.1073 33.9602 28.6656 34.2812C28.2344 34.5434 27.7772 34.7603 27.3014 34.9286C25.4249 35.4843 23.4778 35.7647 21.5208 35.761C19.5569 35.6298 17.6371 35.1195 15.8674 34.2581C14.7662 33.7918 13.7564 33.1342 12.8846 32.3157C12.4394 32.0152 12.0997 31.5825 11.9134 31.0787C11.9134 30.94 11.4279 30.6856 11.2082 30.4313C10.9467 30.1097 10.7145 29.7654 10.5145 29.4023C10.2924 29.0565 10.0991 28.693 9.93647 28.3156C9.44522 27.2791 9.07661 26.1888 8.83815 25.0669C8.65008 24.3885 8.5148 23.6967 8.43351 22.9974C8.39586 22.613 8.39586 22.2258 8.43351 21.8413C8.44095 21.4535 8.47961 21.0668 8.54912 20.6852C8.71753 19.7663 8.981 18.8674 9.33528 18.003C9.60466 17.08 10.0267 16.2085 10.5839 15.4249C11.5825 14.0666 12.7477 12.8393 14.0523 11.7715C15.4071 10.7876 16.9148 10.0337 18.5149 9.54022C19.4028 9.34538 20.3118 9.26377 21.2202 9.29741C24.2131 9.62229 22.6822 10.0089 22.5203 10.2633C22.4805 10.321 23.7466 11.0181 23.6811 11.0432C22.8667 11.1491 20.3646 10.9746 19.5785 11.2166C18.2473 11.5015 16.9859 12.0477 15.8674 12.8236Z" fill="#1F2227"/>
<path d="M18.7891 20.881C18.7011 20.8023 18.6522 20.7573 18.5641 20.7059C18.4761 20.6546 18.1336 20.6495 18.1336 20.6495C18.1094 20.6264 18.0789 20.6101 18.0456 20.6025H17.9478C17.7199 20.6579 17.5172 20.7833 17.3705 20.9597C17.2806 21.0879 17.2175 21.2315 17.1846 21.3827C17.1461 21.5545 17.0971 21.724 17.0379 21.8903C17.0186 21.9929 17.0186 22.0979 17.0379 22.2005C17.0476 22.2911 17.0476 22.3825 17.0379 22.4731V23.0371C17.0475 23.1418 17.0774 23.2438 17.1259 23.3379C17.1651 23.4225 17.214 23.3379 17.2727 23.4225C17.3157 23.5223 17.3647 23.6196 17.4194 23.7139C17.4491 23.7787 17.4887 23.8389 17.5368 23.8925C17.5955 23.9019 17.5955 23.7609 17.5955 23.8361C17.5858 24.0993 17.6053 23.9207 17.664 24.0429C17.7227 24.1651 17.7912 24.1087 17.8597 24.1087C17.9457 24.1367 18.0278 24.1746 18.1043 24.2215C18.156 24.2312 18.2091 24.2312 18.2608 24.2215C18.4859 24.2403 18.6522 24.0805 18.7207 24.0993C18.7891 24.1181 18.7598 24.0523 18.7891 24.0241C18.8185 23.9959 18.8772 23.8831 18.8772 23.9395V23.8267C18.9861 23.5899 19.0618 23.3401 19.1022 23.0841C19.1805 22.8021 19.1697 22.5282 19.1697 22.1315C19.1697 21.7347 19.0142 21.248 19.0142 21.248C18.9751 21.1352 18.8772 20.9597 18.7891 20.881Z" fill="#1F2227"/>
<path d="M26.5958 20.758C26.5077 20.6793 26.4588 20.6342 26.3708 20.5829C26.2827 20.5315 25.9403 20.5265 25.9403 20.5265C25.916 20.5033 25.8855 20.4871 25.8522 20.4795H25.7544C25.5266 20.5348 25.3238 20.6603 25.1772 20.8367C25.0873 20.9648 25.0242 21.1084 24.9913 21.2597C24.9527 21.4315 24.9037 21.601 24.8445 21.7673C24.8253 21.8699 24.8253 21.9749 24.8445 22.0775C24.8543 22.1681 24.8543 22.2594 24.8445 22.3501V22.9141C24.8542 23.0187 24.884 23.1207 24.9326 23.2149C24.9717 23.2995 25.0206 23.2149 25.0793 23.2995C25.1224 23.3992 25.1714 23.4965 25.2261 23.5909C25.2558 23.6557 25.2954 23.7159 25.3435 23.7695C25.4022 23.7789 25.4022 23.6379 25.4022 23.7131C25.3924 23.9763 25.412 23.7977 25.4707 23.9199C25.5294 24.0421 25.5979 23.9857 25.6663 23.9857C25.7523 24.0136 25.8344 24.0515 25.9109 24.0985C25.9626 24.1081 26.0158 24.1081 26.0675 24.0985C26.2925 24.1173 26.4588 23.9575 26.5273 23.9763C26.5958 23.9951 26.5664 23.9293 26.5958 23.9011C26.6251 23.8729 26.6838 23.7601 26.6838 23.8165V23.7037C26.7927 23.4668 26.8684 23.2171 26.9089 22.9611C26.9871 22.6791 26.9763 22.4052 26.9763 22.0084C26.9763 21.6117 26.8209 21.125 26.8209 21.125C26.7817 21.0122 26.6838 20.8367 26.5958 20.758Z" fill="#1F2227"/>
<path d="M21.0327 23.5758C21.0225 23.6984 21.0225 23.8216 21.0327 23.9442C21.0327 23.9954 21.0123 23.9749 20.9783 24.0154C21.0703 24.0875 21.0123 24.0875 21.0327 24.1079C21.0532 24.1284 21.0327 24.2512 21.0327 24.3126C21.0327 24.374 21.095 24.4542 21.1462 24.4952C21.1974 24.5361 21.1793 24.6606 21.3021 24.6299C21.4022 24.7015 21.2979 24.7527 21.3696 24.7629C21.4412 24.7732 21.3916 24.7527 21.486 24.8448C21.5372 24.9254 21.5444 24.9369 21.5956 24.9267C21.6468 24.9164 21.5956 24.9739 21.6891 24.9267C21.7539 24.9539 21.7184 24.9267 21.7539 24.896L21.8338 24.9267C21.8338 25.0699 21.8025 24.9866 21.8778 24.9267C22.0017 24.872 21.9163 24.896 21.9777 24.896H22.0657C22.0657 24.896 22.1278 24.8243 22.1687 24.8448C22.2097 24.8653 22.2282 24.7838 22.2896 24.876C22.351 24.9681 22.4041 24.9164 22.4348 24.896C22.4655 24.8755 22.3975 24.9919 22.4974 24.8448C22.6653 24.8346 22.5694 24.7629 22.6693 24.6921C22.7333 24.6299 22.7146 24.6145 22.7453 24.5634C22.776 24.5122 22.7453 24.5873 22.7933 24.4674C22.8851 24.4434 22.8237 24.4354 22.8646 24.374C22.9056 24.3126 22.8135 24.4175 22.9568 24.2795C22.9568 24.2376 22.9932 24.2355 22.9568 24.1489C22.9568 24.1489 22.9212 24.1518 22.9212 24.0904V24.0424C22.8851 23.8465 23.0386 23.7907 22.967 23.6474C22.9208 23.5043 22.9208 23.3504 22.967 23.2073C22.967 23.1255 23.0489 23.0436 23.448 22.9924C23.6097 22.9556 23.7776 22.9556 23.9392 22.9924C24.0068 23.0031 24.0703 23.0313 24.1234 23.0743L24.236 23.2073C24.3077 23.2994 24.4919 23.3915 24.3895 23.4939C24.2872 23.5962 24.4714 23.5553 24.2872 23.586C24.5635 23.7088 24.3793 23.8521 24.3998 23.9749C24.4202 24.0977 24.4723 24.1489 24.4403 24.4232C24.4403 24.6721 24.4363 24.7502 24.3484 24.9267C24.1075 25.2499 24.2053 25.3258 23.9802 25.5714C23.7657 25.8206 23.5137 26.0347 23.2331 26.2059C23.2331 26.2059 23.2331 26.3594 23.0898 26.3083C22.9465 26.2571 22.9567 26.3083 22.8851 26.3697C22.8135 26.4311 22.7828 26.4618 22.7009 26.4209C22.4041 26.2776 22.1994 26.4209 21.9436 26.4209C21.6877 26.4209 21.4728 26.3287 21.2272 26.3083C20.9816 26.2878 20.8895 26.3083 20.7667 26.2162C20.6438 26.1241 20.5927 26.2162 20.6643 26.0115C20.6643 25.9603 20.5415 26.0115 20.5006 26.0115C20.4098 25.9547 20.3272 25.8858 20.2549 25.8068L19.9684 25.4589C19.907 25.3975 19.8492 25.379 19.7878 25.2971C19.7181 25.2236 19.7091 25.1302 19.6921 25.0303C19.6817 24.9009 19.6093 24.8215 19.6196 24.6921C19.6196 24.5693 19.5902 24.5464 19.6192 24.3126C19.7163 24.1235 19.6716 23.9033 19.6921 23.7395C19.7227 23.5875 19.7227 23.431 19.6921 23.279C19.6921 23.1971 19.8456 23.1152 19.8456 23.0334C20.0679 22.9682 20.3002 22.9439 20.5313 22.9617H20.6131C20.7769 23.0436 21.0327 23.1255 21.0123 23.2176C21.0116 23.3373 21.0185 23.4569 21.0327 23.5758Z" fill="#1F2227"/>
</svg>
