<svg width="41" height="40" viewBox="0 0 41 40" fill="none" xmlns="http://www.w3.org/2000/svg">
<circle cx="20.9688" cy="20" r="20" fill="#D4F5EB"/>
<path d="M20.9679 31.2766C27.1962 31.2766 32.2453 26.2276 32.2453 19.9992C32.2453 13.7709 27.1962 8.7218 20.9679 8.7218C14.7395 8.7218 9.69043 13.7709 9.69043 19.9992C9.69043 26.2276 14.7395 31.2766 20.9679 31.2766Z" fill="#04C088"/>
<path d="M15.3931 11.1801C14.5001 11.7574 13.6994 12.466 13.0178 13.2821C12.7971 13.5974 12.4397 13.8497 12.4187 14.3331C12.4187 14.5749 11.9668 14.743 11.8091 15.0688C11.3576 15.953 11.0254 16.8931 10.8212 17.8646C10.6898 18.8129 10.6898 19.7749 10.8212 20.7233C10.8355 21.6686 11.0504 22.6 11.4518 23.456C11.7181 24.1505 12.0342 24.825 12.3977 25.4739C12.6184 25.8103 12.9127 26.094 13.1439 26.4198C13.3751 26.7457 13.6484 27.0399 13.9006 27.3342C14.1529 27.6285 14.2685 27.7862 14.4682 27.9964C14.6785 28.1887 14.9033 28.3644 15.1408 28.5219C15.4562 28.7006 15.824 28.7321 16.1919 28.9423C16.5597 29.1525 16.8225 29.4047 17.2429 29.2681C17.2429 29.2681 17.411 29.3522 17.4741 29.4153C17.6065 29.5586 17.7703 29.6692 17.9526 29.7385C18.135 29.8078 18.331 29.8339 18.5251 29.8146C18.8176 29.8108 19.1098 29.8354 19.3975 29.8882C19.7865 29.954 20.1801 29.9891 20.5746 29.9933C20.9701 30.0196 21.3668 30.0196 21.7623 29.9933C22.0565 29.9933 22.3508 29.9933 22.6451 29.9933C22.9454 29.9938 23.2449 29.9621 23.5385 29.8987C24.1586 29.7831 24.7366 29.4363 25.3147 29.3207C25.8792 29.1894 26.4116 28.9463 26.8807 28.606C27.1435 28.4168 27.5323 28.2802 27.5639 27.9018C27.6038 27.8434 27.6581 27.7963 27.7215 27.7652C28.6885 27.4393 28.9407 26.3988 29.5398 25.7157C30.131 24.936 30.5697 24.0517 30.8325 23.1092C30.9008 22.9909 30.9436 22.8597 30.9581 22.7239C30.9726 22.5881 30.9584 22.4509 30.9166 22.3209C30.8641 22.2263 30.9166 21.974 30.9902 21.8479C31.2976 21.1667 31.4104 20.4137 31.316 19.6723C31.316 18.821 31.1058 18.0117 31.0743 17.1289C31.0818 16.9056 31.0383 16.6836 30.9473 16.4797C30.8562 16.2757 30.7199 16.0952 30.5488 15.9517C30.3491 15.8256 30.286 15.4052 30.1283 15.1319C29.9707 14.8587 29.7395 14.7851 29.6134 14.5749C29.4872 14.3647 29.4767 14.1545 29.3821 13.9548C29.3524 13.8905 29.3094 13.8332 29.256 13.7866C28.2996 13.0089 27.6795 11.8948 26.5654 11.2852C25.476 10.6683 24.3098 10.1982 23.097 9.88733C22.7559 9.8298 22.4214 9.73828 22.0986 9.61409C21.7703 9.51176 21.4737 9.32724 21.2367 9.07806C21.016 8.83633 21.0055 8.58409 21.3419 8.45796C21.6004 8.34122 21.8784 8.27351 22.1616 8.25827C22.6136 8.25827 23.0655 8.25826 23.5175 8.31081C24.4707 8.33935 25.405 8.5837 26.2501 9.02549C26.5023 9.19365 26.9017 9.21468 26.9963 9.56152C27.0321 9.62751 27.0926 9.67665 27.1645 9.69816C28.4064 10.1833 29.4801 11.0196 30.2545 12.105C31.0911 12.8705 31.7603 13.8009 32.2199 14.8376C32.4844 15.0696 32.6837 15.3667 32.7979 15.6995C32.9321 16.0176 33.0172 16.3543 33.0502 16.6979C33.4787 18.9275 33.4105 21.2242 32.8505 23.4244C32.1784 25.6265 30.913 27.601 29.1929 29.1315C28.9517 29.4505 28.6431 29.7125 28.2891 29.8987C27.8509 30.1318 27.4294 30.3952 27.0279 30.687C26.6358 30.9253 26.2202 31.1226 25.7877 31.2755C24.0818 31.7808 22.3116 32.0357 20.5326 32.0323C18.7472 31.913 17.0019 31.4491 15.3931 30.666C14.3921 30.2421 13.474 29.6443 12.6815 28.9002C12.2767 28.627 11.968 28.2337 11.7986 27.7757C11.7986 27.6495 11.3572 27.4183 11.1575 27.1871C10.9198 26.8948 10.7087 26.5817 10.5269 26.2517C10.325 25.9373 10.1492 25.6069 10.0014 25.2637C9.55478 24.3215 9.21968 23.3303 9.0029 22.3104C8.83193 21.6937 8.70894 21.0647 8.63505 20.429C8.60082 20.0795 8.60082 19.7275 8.63505 19.378C8.64181 19.0254 8.67696 18.674 8.74015 18.327C8.89324 17.4916 9.13276 16.6745 9.45484 15.8887C9.69972 15.0495 10.0834 14.2573 10.5899 13.5449C11.4977 12.3101 12.557 11.1943 13.743 10.2237C14.9747 9.3292 16.3453 8.64387 17.7999 8.19521C18.6071 8.01808 19.4335 7.9439 20.2593 7.97447C22.9801 8.26982 21.5884 8.62129 21.4412 8.85252C21.405 8.90506 22.5561 9.53876 22.4964 9.56152C21.7562 9.65785 19.4814 9.4992 18.7669 9.71917C17.5567 9.97816 16.41 10.4747 15.3931 11.1801Z" fill="#1F2227"/>
<path d="M18.0495 18.5052C17.9695 18.4337 17.925 18.3927 17.845 18.3461C17.7649 18.2994 17.4536 18.2948 17.4536 18.2948C17.4315 18.2737 17.4038 18.259 17.3736 18.2521H17.2846C17.0775 18.3024 16.8932 18.4164 16.7599 18.5768C16.6782 18.6933 16.6208 18.8239 16.5909 18.9613C16.5559 19.1175 16.5113 19.2716 16.4575 19.4228C16.44 19.516 16.44 19.6115 16.4575 19.7048C16.4663 19.7872 16.4663 19.8702 16.4575 19.9526V20.4653C16.4662 20.5605 16.4934 20.6532 16.5375 20.7388C16.5731 20.8157 16.6176 20.7388 16.6709 20.8157C16.7101 20.9064 16.7546 20.9948 16.8043 21.0806C16.8313 21.1395 16.8673 21.1942 16.9111 21.243C16.9644 21.2515 16.9644 21.1233 16.9644 21.1917C16.9555 21.431 16.9733 21.2686 17.0267 21.3797C17.0801 21.4908 17.1423 21.4395 17.2046 21.4395C17.2827 21.4649 17.3574 21.4994 17.4269 21.5421C17.4739 21.5508 17.5222 21.5508 17.5692 21.5421C17.7738 21.5592 17.925 21.4139 17.9873 21.431C18.0495 21.4481 18.0228 21.3882 18.0495 21.3626C18.0762 21.337 18.1296 21.2344 18.1296 21.2857V21.1831C18.2286 20.9678 18.2974 20.7408 18.3341 20.5081C18.4053 20.2517 18.3955 20.0027 18.3955 19.642C18.3955 19.2813 18.2541 18.8389 18.2541 18.8389C18.2186 18.7364 18.1296 18.5768 18.0495 18.5052Z" fill="#1F2227"/>
<path d="M25.1462 18.3928C25.0662 18.3213 25.0217 18.2803 24.9416 18.2336C24.8616 18.187 24.5503 18.1824 24.5503 18.1824C24.5282 18.1613 24.5005 18.1465 24.4702 18.1396H24.3813C24.1742 18.1899 23.9899 18.304 23.8565 18.4644C23.7748 18.5808 23.7175 18.7114 23.6876 18.8489C23.6525 19.0051 23.608 19.1592 23.5541 19.3104C23.5366 19.4036 23.5366 19.4991 23.5541 19.5924C23.563 19.6747 23.563 19.7578 23.5541 19.8402V20.3529C23.5629 20.448 23.5901 20.5408 23.6342 20.6264C23.6698 20.7033 23.7142 20.6264 23.7676 20.7033C23.8068 20.794 23.8513 20.8824 23.901 20.9682C23.928 21.0271 23.964 21.0818 24.0077 21.1305C24.0611 21.1391 24.0611 21.0109 24.0611 21.0793C24.0522 21.3185 24.07 21.1562 24.1234 21.2673C24.1767 21.3784 24.239 21.3271 24.3013 21.3271C24.3794 21.3525 24.4541 21.387 24.5236 21.4296C24.5706 21.4384 24.6189 21.4384 24.6659 21.4296C24.8705 21.4467 25.0217 21.3015 25.0839 21.3185C25.1462 21.3356 25.1195 21.2758 25.1462 21.2502C25.1729 21.2245 25.2263 21.122 25.2263 21.1733V21.0707C25.3253 20.8554 25.3941 20.6284 25.4308 20.3956C25.502 20.1393 25.4921 19.8903 25.4921 19.5296C25.4921 19.1689 25.3508 18.7265 25.3508 18.7265C25.3152 18.6239 25.2263 18.4644 25.1462 18.3928Z" fill="#1F2227"/>
<path d="M20.0896 20.9545C20.0803 21.066 20.0803 21.178 20.0896 21.2894C20.0896 21.3359 20.071 21.3173 20.0401 21.3542C20.1237 21.4197 20.071 21.4197 20.0896 21.4383C20.1082 21.4569 20.0896 21.5685 20.0896 21.6244C20.0896 21.6802 20.1462 21.7531 20.1928 21.7903C20.2393 21.8275 20.2228 21.9407 20.3345 21.9128C20.4254 21.9779 20.3307 22.0244 20.3958 22.0337C20.4609 22.043 20.4159 22.0244 20.5017 22.1082C20.5482 22.1814 20.5548 22.1919 20.6013 22.1826C20.6478 22.1733 20.6013 22.2255 20.6863 22.1826C20.7452 22.2073 20.7129 22.1826 20.7452 22.1547L20.8179 22.1826C20.8179 22.3128 20.7894 22.2371 20.8578 22.1826C20.9705 22.1328 20.8929 22.1547 20.9487 22.1547H21.0286C21.0286 22.1547 21.0851 22.0895 21.1223 22.1082C21.1595 22.1268 21.1763 22.0527 21.2322 22.1365C21.288 22.2202 21.3363 22.1733 21.3642 22.1547C21.3921 22.1361 21.3303 22.2419 21.4211 22.1082C21.5738 22.0988 21.4866 22.0337 21.5774 21.9693C21.6356 21.9128 21.6186 21.8988 21.6465 21.8523C21.6744 21.8058 21.6465 21.8741 21.6901 21.7651C21.7736 21.7433 21.7177 21.736 21.755 21.6802C21.7922 21.6244 21.7085 21.7197 21.8387 21.5943C21.8387 21.5562 21.8718 21.5543 21.8387 21.4755C21.8387 21.4755 21.8064 21.4782 21.8064 21.4223V21.3787C21.7736 21.2006 21.9131 21.1499 21.848 21.0196C21.806 20.8896 21.806 20.7496 21.848 20.6195C21.848 20.5451 21.9224 20.4707 22.2853 20.4242C22.4323 20.3907 22.5849 20.3907 22.7319 20.4242C22.7933 20.4338 22.851 20.4595 22.8993 20.4986L23.0017 20.6195C23.0668 20.7033 23.2343 20.787 23.1412 20.8801C23.0482 20.9731 23.2157 20.9359 23.0482 20.9638C23.2994 21.0754 23.1319 21.2057 23.1505 21.3173C23.1691 21.429 23.2165 21.4755 23.1874 21.7249C23.1874 21.9511 23.1838 22.0221 23.1038 22.1826C22.8848 22.4764 22.9738 22.5454 22.7691 22.7687C22.5742 22.9952 22.345 23.1899 22.0899 23.3455C22.0899 23.3455 22.0899 23.4851 21.9596 23.4386C21.8294 23.3921 21.8387 23.4386 21.7736 23.4944C21.7084 23.5502 21.6805 23.5782 21.6061 23.5409C21.3363 23.4107 21.1502 23.5409 20.9176 23.5409C20.685 23.5409 20.4897 23.4572 20.2664 23.4386C20.0431 23.42 19.9593 23.4386 19.8477 23.3549C19.7361 23.2711 19.6895 23.3549 19.7547 23.1688C19.7547 23.1223 19.643 23.1688 19.6058 23.1688C19.5233 23.1171 19.4482 23.0545 19.3825 22.9827L19.122 22.6664C19.0662 22.6106 19.0137 22.5938 18.9579 22.5194C18.8945 22.4525 18.8863 22.3676 18.8708 22.2768C18.8614 22.1592 18.7955 22.087 18.8049 21.9693C18.8049 21.8577 18.7782 21.8368 18.8046 21.6244C18.8929 21.4525 18.8522 21.2522 18.8708 21.1034C18.8986 20.9652 18.8986 20.8229 18.8708 20.6847C18.8708 20.6103 19.0104 20.5358 19.0104 20.4614C19.2125 20.4021 19.4237 20.3801 19.6337 20.3963H19.7081C19.857 20.4707 20.0896 20.5451 20.071 20.6289C20.0704 20.7377 20.0766 20.8464 20.0896 20.9545Z" fill="#1F2227"/>
</svg>
