<svg width="16" height="16" viewBox="0 0 16 16" fill="none" xmlns="http://www.w3.org/2000/svg">
	<path d="M10.4596 3.45962C10.7135 3.20578 10.7135 2.79422 10.4596 2.54038C10.2058 2.28654 9.79422 2.28654 9.54038 2.54038L10.4596 3.45962ZM5 8L4.54038 7.54038C4.28654 7.79422 4.28654 8.20578 4.54038 8.45962L5 8ZM9.54038 13.4596C9.79422 13.7135 10.2058 13.7135 10.4596 13.4596C10.7135 13.2058 10.7135 12.7942 10.4596 12.5404L9.54038 13.4596ZM9.54038 2.54038L4.54038 7.54038L5.45962 8.45962L10.4596 3.45962L9.54038 2.54038ZM4.54038 8.45962L9.54038 13.4596L10.4596 12.5404L5.45962 7.54038L4.54038 8.45962Z" fill="#495057" />
</svg>
