<svg width="16" height="16" viewBox="0 0 16 16" fill="none" xmlns="http://www.w3.org/2000/svg">
<path d="M4.41324 6.58676C4.18502 6.35853 3.81498 6.35853 3.58676 6.58676C3.35853 6.81498 3.35853 7.18502 3.58676 7.41324L4.41324 6.58676ZM8 11L7.58676 11.4132C7.81498 11.6415 8.18502 11.6415 8.41324 11.4132L8 11ZM12.4132 7.41324C12.6415 7.18502 12.6415 6.81498 12.4132 6.58676C12.185 6.35853 11.815 6.35853 11.5868 6.58676L12.4132 7.41324ZM3.58676 7.41324L7.58676 11.4132L8.41324 10.5868L4.41324 6.58676L3.58676 7.41324ZM8.41324 11.4132L12.4132 7.41324L11.5868 6.58676L7.58676 10.5868L8.41324 11.4132Z" fill="#ADB5BD"/>
</svg>
