<svg width="16" height="17" viewBox="0 0 16 17" fill="none" xmlns="http://www.w3.org/2000/svg">
	<path d="M6.58676 12.0868C6.35853 12.315 6.35853 12.685 6.58676 12.9132C6.81498 13.1415 7.18502 13.1415 7.41324 12.9132L6.58676 12.0868ZM11 8.5L11.4132 8.91324C11.6415 8.68502 11.6415 8.31498 11.4132 8.08676L11 8.5ZM7.41324 4.08676C7.18502 3.85853 6.81498 3.85853 6.58676 4.08676C6.35853 4.31498 6.35853 4.68502 6.58676 4.91324L7.41324 4.08676ZM7.41324 12.9132L11.4132 8.91324L10.5868 8.08676L6.58676 12.0868L7.41324 12.9132ZM11.4132 8.08676L7.41324 4.08676L6.58676 4.91324L10.5868 8.91324L11.4132 8.08676Z" fill="#ADB5BD" />
</svg>