<svg width="16" height="16" viewBox="0 0 16 16" fill="none" xmlns="http://www.w3.org/2000/svg">
<path fill-rule="evenodd" clip-rule="evenodd" d="M8.00065 13.3335C10.9462 13.3335 13.334 10.9457 13.334 8.00016C13.334 5.05464 10.9462 2.66683 8.00065 2.66683C5.05513 2.66683 2.66732 5.05464 2.66732 8.00016C2.66732 10.9457 5.05513 13.3335 8.00065 13.3335ZM8.00065 14.6668C11.6825 14.6668 14.6673 11.6821 14.6673 8.00016C14.6673 4.31826 11.6825 1.3335 8.00065 1.3335C4.31875 1.3335 1.33398 4.31826 1.33398 8.00016C1.33398 11.6821 4.31875 14.6668 8.00065 14.6668Z" fill="#6A36FF"/>
<path fill-rule="evenodd" clip-rule="evenodd" d="M7.52409 5.42871C7.89228 5.42871 8.19076 5.72719 8.19076 6.09538V8.28585H10.3812C10.7494 8.28585 11.0479 8.58433 11.0479 8.95252C11.0479 9.32071 10.7494 9.61919 10.3812 9.61919H7.52409C7.1559 9.61919 6.85742 9.32071 6.85742 8.95252V6.09538C6.85742 5.72719 7.1559 5.42871 7.52409 5.42871Z" fill="#6A36FF"/>
</svg>
