<svg width="32" height="32" viewBox="0 0 32 32" fill="none" xmlns="http://www.w3.org/2000/svg">
<path d="M21.7071 11.7071C22.0976 11.3166 22.0976 10.6834 21.7071 10.2929C21.3166 9.90237 20.6834 9.90237 20.2929 10.2929L21.7071 11.7071ZM10.2929 20.2929C9.90237 20.6834 9.90237 21.3166 10.2929 21.7071C10.6834 22.0976 11.3166 22.0976 11.7071 21.7071L10.2929 20.2929ZM20.2929 10.2929L10.2929 20.2929L11.7071 21.7071L21.7071 11.7071L20.2929 10.2929Z" fill="#31BEA5"/>
<path d="M10.2929 11.7071C9.90237 11.3166 9.90237 10.6834 10.2929 10.2929C10.6834 9.90237 11.3166 9.90237 11.7071 10.2929L10.2929 11.7071ZM21.7071 20.2929C22.0976 20.6834 22.0976 21.3166 21.7071 21.7071C21.3166 22.0976 20.6834 22.0976 20.2929 21.7071L21.7071 20.2929ZM11.7071 10.2929L21.7071 20.2929L20.2929 21.7071L10.2929 11.7071L11.7071 10.2929Z" fill="#31BEA5"/>
</svg>
