<svg width="41" height="40" viewBox="0 0 41 40" fill="none" xmlns="http://www.w3.org/2000/svg">
<circle cx="20.1201" cy="20" r="20" fill="#FFF1CE"/>
<path d="M8.50098 31.4715L9.00306 28.4834L11.481 30.9694L8.50098 31.4715Z" fill="#383E4C"/>
<path d="M8.73535 27.5327L9.86904 23.751L16.5578 29.9539L12.7681 31.0876L8.73535 27.5327Z" fill="#FFD79C"/>
<path d="M9.91797 23.7264L16.4367 30.1318L29.7981 16.8757L23.3846 10.3975L9.91797 23.7264Z" fill="#FFCA43"/>
<path d="M26.0416 7.88733L23.6123 10.4058L29.4913 16.714L33.0382 13.1914L32.5523 11.5071L28.6896 7.6768L27.2669 7L26.0416 7.88733Z" fill="#FF798B"/>
<path d="M20.0727 26.0829C20.931 25.2245 21.7975 24.3823 22.6397 23.5078C23.001 23.2178 23.3057 22.8637 23.5385 22.4631C23.6357 22.2283 24.1054 22.0826 24.3888 21.7829L26.7776 19.3536L29.0207 16.9243C29.7738 16.1145 30.6403 15.4181 31.2962 14.6002C31.439 14.4281 31.5904 14.2632 31.7497 14.1062L31.9359 13.92C31.9926 13.8714 32.0331 13.8147 32.0817 13.7661C32.269 13.5382 32.3694 13.2513 32.3651 12.9563C32.3474 12.6641 32.2462 12.383 32.0736 12.1466C32.0736 12.0818 31.9845 12.0413 31.9359 11.9765L31.693 11.7255C31.5392 11.5554 31.3853 11.3854 31.2395 11.2072C30.8383 10.6901 30.397 10.2054 29.9196 9.75769C29.62 9.48236 29.2718 9.28802 28.9641 8.94791C28.6563 8.6078 28.4134 8.2515 28.0004 8.13813C27.9446 8.08755 27.9027 8.02341 27.879 7.95189C27.8124 7.81776 27.6991 7.71249 27.5605 7.65584C27.4219 7.59919 27.2673 7.59505 27.1259 7.64417C26.8991 7.73325 26.7129 7.75754 26.5266 7.84662C26.399 7.91054 26.2794 7.98938 26.1703 8.08146C26.0893 8.14625 25.8788 8.37297 25.7249 8.51873L24.7613 9.60383C24.2592 10.0816 23.7086 10.5108 23.2065 10.9886C22.7189 11.5213 22.1997 12.0243 21.6517 12.4948C21.1295 12.8988 20.6395 13.3428 20.186 13.8228C19.9269 14.0819 19.5463 14.3249 19.4815 14.6974C19.4815 14.6974 19.3763 14.8269 19.3196 14.8593C18.364 15.41 17.8863 16.4222 17.0765 17.1348C16.2667 17.8474 15.4569 18.7139 14.6471 19.5156C14.4366 19.7342 14.1613 19.9123 14.0803 20.2201C13.9895 20.3918 13.8555 20.537 13.6916 20.6411C12.999 21.1483 12.3612 21.7264 11.7886 22.366C11.4323 22.698 11.1003 23.0543 10.7521 23.4025C10.574 23.5725 10.4039 23.7426 10.2176 23.9046L10.08 24.026L9.9828 24.0989L9.81276 24.2609C9.69664 24.3844 9.62781 24.545 9.61839 24.7143C9.5672 24.9818 9.5672 25.2566 9.61839 25.5241C9.60624 25.8791 9.5574 26.2319 9.47264 26.5768C9.47264 26.8684 9.47264 27.168 9.47264 27.4514C9.41768 27.6986 9.33903 27.94 9.23779 28.1721C9.22939 28.2529 9.22939 28.3343 9.23779 28.415C9.22075 29.1278 9.12573 29.8365 8.95439 30.5286L8.8572 30.9982C8.84583 31.0462 8.84583 31.0961 8.8572 31.144C8.8699 31.1896 8.89759 31.2295 8.93578 31.2574C8.97398 31.2854 9.02047 31.2996 9.06775 31.2979H9.14873L9.39165 31.2493L9.92611 31.1521L10.995 30.9821L13.1572 30.6743C17.2627 29.884 16.0167 30.2711 16.725 30.5286C17.0003 30.6662 16.6999 31.0792 16.4003 31.2493C16.1447 31.3862 14.8401 31.5463 14.5581 31.6137L13.2381 31.9295C12.3448 32.2063 11.429 32.4042 10.5011 32.5206C10.2015 32.5206 9.86943 32.6907 9.60221 32.5206C9.53018 32.5048 9.4556 32.5048 9.38357 32.5206C9.1471 32.5986 8.89478 32.6157 8.64993 32.5704C8.40508 32.5252 8.17558 32.4189 7.98264 32.2615C7.77845 32.0933 7.61855 31.8778 7.51691 31.6335C7.41528 31.3893 7.37499 31.1239 7.3996 30.8606C7.40385 30.7623 7.4174 30.6647 7.44008 30.5691L7.48058 30.3261L7.57775 29.8403C7.63444 29.5244 7.69113 29.2005 7.73972 28.8766C7.80894 27.7913 7.93326 26.7102 8.11221 25.6375C8.05946 25.313 8.05946 24.9821 8.11221 24.6577L8.15269 24.4066C8.17181 24.2828 8.20163 24.1609 8.24178 24.0422C8.32289 23.8174 8.43461 23.6049 8.57379 23.4106C8.69091 23.2493 8.82383 23.1001 8.97058 22.9652L9.29448 22.6899L9.90182 22.1392C10.2986 21.7667 10.7116 21.3781 11.076 20.9894C11.8453 20.1796 12.5984 19.4184 13.3758 18.6572C14.9953 17.1105 16.5177 15.5152 18.0968 13.9605C18.333 13.6588 18.6049 13.3869 18.9066 13.1507C19.281 12.8499 19.6254 12.5137 19.935 12.1466C20.2318 11.82 20.5453 11.5092 20.8744 11.2153C22.2069 10.0892 23.4698 8.88309 24.656 7.6037C24.8261 7.44174 24.9476 7.31216 25.15 7.13401C25.3499 6.94765 25.5764 6.79208 25.8221 6.67243C26.3223 6.42041 26.885 6.31915 27.4417 6.38092C28.0034 6.43024 28.5357 6.65392 28.9641 7.02065L29.9439 7.94379C30.7132 8.66449 31.5635 9.32043 32.2599 10.1059C32.5757 10.4622 32.9644 10.6646 33.183 11.1991C33.2559 11.3449 33.7094 11.7174 33.8308 12.1142C33.986 12.577 34.025 13.0709 33.9445 13.5524C33.864 14.0339 33.6665 14.4883 33.3693 14.8755C33.2724 15.004 33.1669 15.1258 33.0534 15.2399L32.7781 15.5071L32.2437 16.0416L31.1828 17.1186C30.7537 17.564 30.3731 18.0499 29.9682 18.5033C29.5633 18.9568 29.0693 19.4346 28.5996 19.8719C28.0004 20.4306 27.3769 20.9489 26.7857 21.4914C26.1946 22.034 25.6197 22.7628 24.9799 23.2648C23.8479 24.2454 22.7667 25.2833 21.7408 26.3744C20.6719 27.419 19.603 28.4636 18.5827 29.5487C18.2954 29.8381 17.9897 30.1085 17.6676 30.3585C17.3275 30.6176 17.1089 30.8606 16.6473 31.1683C16.5322 31.2279 16.4044 31.2591 16.2748 31.2591C16.1451 31.2591 16.0174 31.2279 15.9023 31.1683C15.6918 31.0711 15.5946 30.9011 15.6513 30.812C15.6761 30.7632 15.7158 30.7235 15.7646 30.6986C15.9165 30.6207 16.0514 30.5133 16.1614 30.3828C16.2667 30.2532 16.3234 30.1237 16.4529 29.9374C16.6843 29.5758 16.9559 29.2417 17.2627 28.9414C18.1454 28.0344 19.0928 27.0546 20.0727 26.0829Z" fill="#1F2227"/>
<path d="M16.4862 20.8762C16.382 20.882 16.3234 20.8845 16.2364 20.9074C16.1493 20.9303 15.9324 21.1409 15.9324 21.1409C15.9028 21.1416 15.8736 21.1505 15.8481 21.1666L15.787 21.2276C15.6793 21.4044 15.6311 21.6093 15.6496 21.811C15.6735 21.9471 15.7238 22.0762 15.7977 22.1911C15.8809 22.3224 15.9561 22.4588 16.0229 22.5996C16.075 22.6757 16.1405 22.7413 16.2166 22.7933C16.2793 22.8438 16.3363 22.9008 16.3868 22.9635L16.7389 23.3156C16.8102 23.3749 16.8926 23.4199 16.9816 23.4484C17.0589 23.4768 17.0366 23.3934 17.1261 23.4096C17.2152 23.445 17.3066 23.4751 17.3996 23.4999C17.4586 23.5218 17.5209 23.5347 17.5844 23.5381C17.6269 23.5073 17.5389 23.4193 17.5859 23.4663C17.7441 23.6367 17.6448 23.513 17.7577 23.5526C17.8706 23.5922 17.8782 23.5143 17.9209 23.4715C17.9921 23.4353 18.067 23.4077 18.1441 23.3892C18.1824 23.363 18.2155 23.3298 18.2418 23.2915C18.394 23.1628 18.3981 22.9592 18.4526 22.9282C18.5071 22.8971 18.4477 22.8744 18.4484 22.8384C18.4491 22.8025 18.4153 22.6954 18.4505 22.7307L18.3801 22.6602C18.3002 22.4444 18.1916 22.2412 18.057 22.0561C17.9298 21.8312 17.7521 21.667 17.5044 21.4193C17.2567 21.1716 16.8558 20.9648 16.8558 20.9648C16.7609 20.9189 16.5903 20.8704 16.4862 20.8762Z" fill="#1F2227"/>
<path d="M21.284 15.925C21.1799 15.9309 21.1212 15.9333 21.0342 15.9562C20.9472 15.9791 20.7302 16.1897 20.7302 16.1897C20.7006 16.1905 20.6715 16.1993 20.6459 16.2154L20.5849 16.2765C20.4772 16.4532 20.4289 16.6581 20.4475 16.8598C20.4714 16.9959 20.5216 17.125 20.5955 17.24C20.6787 17.3713 20.754 17.5077 20.8208 17.6485C20.8728 17.7245 20.9384 17.7901 21.0144 17.8421C21.0771 17.8926 21.1341 17.9496 21.1846 18.0123L21.5367 18.3644C21.6081 18.4237 21.6904 18.4688 21.7795 18.4972C21.8567 18.5256 21.8345 18.4423 21.9239 18.4584C22.0131 18.4938 22.1044 18.524 22.1975 18.5487C22.2565 18.5706 22.3187 18.5835 22.3823 18.5869C22.4248 18.5562 22.3368 18.4681 22.3837 18.5151C22.5419 18.6855 22.4426 18.5618 22.5556 18.6014C22.6685 18.6411 22.676 18.5631 22.7188 18.5203C22.7899 18.4841 22.8649 18.4565 22.9419 18.4381C22.9802 18.4118 23.0134 18.3786 23.0396 18.3403C23.1919 18.2116 23.1959 18.008 23.2504 17.977C23.3049 17.946 23.2455 17.9232 23.2462 17.8873C23.2469 17.8513 23.2132 17.7443 23.2484 17.7795L23.178 17.7091C23.0981 17.4932 22.9894 17.2901 22.8548 17.105C22.7277 16.8801 22.5499 16.7158 22.3022 16.4681C22.0545 16.2204 21.6536 16.0137 21.6536 16.0137C21.5588 15.9677 21.3881 15.9192 21.284 15.925Z" fill="#1F2227"/>
<path d="M19.5703 21.1566C19.6404 21.2396 19.7174 21.3165 19.8003 21.3866C19.8322 21.4186 19.8067 21.4186 19.8108 21.4651C19.9132 21.4527 19.877 21.4888 19.9025 21.4888C19.9281 21.4888 19.992 21.5783 20.0303 21.6166C20.0687 21.655 20.1576 21.6661 20.2151 21.6598C20.2726 21.6534 20.3391 21.7424 20.3966 21.6465C20.5037 21.6288 20.4706 21.7258 20.5217 21.6875C20.5728 21.6491 20.5291 21.6673 20.6455 21.6659C20.7278 21.6842 20.7395 21.6869 20.7651 21.6486C20.7906 21.6102 20.7945 21.6781 20.8234 21.5902C20.8809 21.5668 20.8417 21.5719 20.8447 21.5306L20.9138 21.4999C21.0032 21.5893 20.9317 21.5568 20.9412 21.4724C20.9844 21.3609 20.9461 21.4292 20.9844 21.3908L21.0394 21.3359C21.0394 21.3359 21.0334 21.2525 21.0717 21.2397C21.1101 21.2269 21.0708 21.1645 21.1666 21.1837C21.2625 21.2029 21.2634 21.1374 21.2698 21.1055C21.2762 21.0735 21.3064 21.1887 21.277 21.0345C21.3754 20.9232 21.2708 20.9384 21.2889 20.8318C21.29 20.753 21.2688 20.7551 21.256 20.704C21.2432 20.6529 21.271 20.719 21.226 20.6142C21.2684 20.5418 21.2251 20.5752 21.2123 20.5113C21.1995 20.4474 21.2075 20.5704 21.2108 20.3948C21.1846 20.3686 21.2061 20.3446 21.1293 20.3132C21.1293 20.3132 21.1089 20.3373 21.0705 20.2989L21.0406 20.269C20.8958 20.1692 20.9567 20.0385 20.8226 19.9938C20.7044 19.9333 20.6083 19.8372 20.5478 19.719C20.4967 19.6679 20.4967 19.5657 20.714 19.2846C20.7919 19.1607 20.8967 19.0558 21.0206 18.9779C21.0694 18.9424 21.1267 18.9203 21.1867 18.914L21.3401 18.9268C21.4423 18.9396 21.6148 18.8821 21.6148 19.0098C21.6148 19.1376 21.7043 18.9971 21.6084 19.1312C21.8576 19.0354 21.832 19.2399 21.9215 19.3038C22.0109 19.3676 22.0754 19.3671 22.2267 19.5583C22.3821 19.7137 22.4283 19.7649 22.4836 19.93C22.535 20.2822 22.6435 20.2685 22.6563 20.5624C22.6779 20.8518 22.6542 21.1429 22.586 21.425C22.586 21.425 22.6818 21.5208 22.5604 21.5783C22.439 21.6358 22.4774 21.6614 22.471 21.7444C22.4646 21.8275 22.4646 21.8658 22.3879 21.8914C22.1132 21.9872 22.0748 22.2044 21.9151 22.3642C21.7554 22.5239 21.5637 22.6006 21.3976 22.7411C21.2315 22.8817 21.1867 22.952 21.0526 22.9711C20.9184 22.9903 20.944 23.0798 20.8609 22.9073C20.829 22.8753 20.7842 22.9839 20.7587 23.0095C20.6666 23.0306 20.572 23.0392 20.4776 23.035L20.0814 22.9967C20.0048 22.9967 19.9572 23.0212 19.8678 23.0085C19.7783 23.0061 19.7144 22.9534 19.6414 22.9017C19.5541 22.8273 19.4593 22.823 19.385 22.7357C19.3083 22.6591 19.2757 22.6631 19.1479 22.4991C19.0904 22.3204 18.925 22.2108 18.8355 22.0958C18.7598 21.9818 18.662 21.8841 18.548 21.8083C18.4969 21.7572 18.5416 21.6103 18.4905 21.5591C18.5886 21.3796 18.7185 21.2194 18.8739 21.0863L18.925 21.0352C19.0783 20.9841 19.2892 20.8755 19.3339 20.9458C19.4082 21.0209 19.4872 21.0913 19.5703 21.1566Z" fill="#1F2227"/>
<path d="M9.57665 24.4081C9.46775 24.2862 9.33406 24.1889 9.18514 24.1231L10.2321 22.9185C10.6102 23.1212 10.9068 23.4509 11.0674 23.8466C11.5865 24.3125 12.0666 24.8199 12.5027 25.3635C13.1695 25.861 13.7572 26.4575 14.2442 27.1309C14.2527 27.1524 14.2661 27.1719 14.2832 27.1877C14.3003 27.2036 14.3207 27.2154 14.3428 27.2223C14.581 27.2 14.6862 27.4079 14.8219 27.5335C15.2858 27.9125 15.6929 28.3565 16.0297 28.8508L16.5691 29.5049C16.6826 29.6528 16.7692 29.819 16.8247 29.9955C16.908 30.2271 16.7759 30.3697 16.5439 30.3976C16.2956 30.4001 16.0478 30.3491 15.8173 30.248C15.5868 30.1469 15.379 29.9981 15.2083 29.8119C14.4997 29.2219 13.8227 28.5948 13.1802 27.9335C12.5578 27.2577 11.6891 26.8726 11.1829 26.0837L11.0719 25.981C10.9213 25.9209 10.7778 25.8434 10.6442 25.7504C10.5141 25.6188 10.4808 25.4445 10.3144 25.2904C10.1479 25.1362 9.85997 25.002 9.81503 24.8279C9.76694 24.6733 9.68554 24.5299 9.57665 24.4081Z" fill="#1F2227"/>
<path d="M23.1616 11.1083C23.0527 10.9864 22.919 10.8891 22.7701 10.8233L23.8171 9.61866C24.1951 9.82142 24.4918 10.1511 24.6524 10.5468C25.1714 11.0127 25.6516 11.5201 26.0877 12.0637C26.7544 12.5612 27.3421 13.1577 27.8291 13.8311C27.8377 13.8526 27.851 13.8721 27.8681 13.8879C27.8853 13.9038 27.9057 13.9156 27.9278 13.9225C28.166 13.9002 28.2712 14.1081 28.4068 14.2337C28.8708 14.6127 29.2779 15.0567 29.6146 15.551L30.1541 16.2051C30.2676 16.353 30.3542 16.5192 30.4097 16.6957C30.4929 16.9273 30.3609 17.0699 30.1289 17.0978C29.8806 17.1003 29.6327 17.0493 29.4022 16.9482C29.1717 16.8471 28.964 16.6983 28.7933 16.512C28.0847 15.9221 27.4077 15.295 26.7651 14.6337C26.1427 13.9579 25.274 13.5728 24.7678 12.7839L24.6569 12.6812C24.5063 12.6211 24.3627 12.5436 24.2291 12.4506C24.099 12.319 24.0658 12.1447 23.8993 11.9906C23.7329 11.8364 23.4449 11.7022 23.4 11.5281C23.3519 11.3735 23.2705 11.2301 23.1616 11.1083Z" fill="#1F2227"/>
<path d="M12.5126 30.6424C12.5657 30.7149 12.6414 30.7661 12.7341 30.7923L11.7512 31.8142C11.5229 31.7218 11.3776 31.5258 11.3421 31.2626C11.0659 31.0001 10.8255 30.7019 10.6237 30.3712C10.2488 30.107 9.94971 29.7598 9.73745 29.3425C9.73565 29.3281 9.73002 29.316 9.72102 29.307C9.71201 29.298 9.69986 29.2924 9.68552 29.2906C9.51191 29.3408 9.47841 29.2056 9.407 29.1342C9.15265 28.9265 8.95161 28.6638 8.81052 28.3545L8.55718 27.9587C8.50592 27.868 8.4774 27.7601 8.47299 27.6405C8.45984 27.4848 8.58196 27.3627 8.75232 27.3092C8.92918 27.2718 9.09512 27.2731 9.23879 27.3132C9.38246 27.3532 9.50049 27.431 9.58481 27.5413C9.97101 27.8664 10.3275 28.2229 10.6526 28.6091C10.9606 29.0087 11.5012 29.1626 11.7042 29.6607L11.7626 29.7191C11.8577 29.741 11.9443 29.7764 12.0207 29.8245C12.087 29.901 12.076 30.0223 12.1637 30.11C12.2513 30.1976 12.4292 30.2534 12.4266 30.3729C12.43 30.4778 12.4594 30.5699 12.5126 30.6424Z" fill="#1F2227"/>
</svg>
