<svg width="41" height="40" viewBox="0 0 41 40" fill="none" xmlns="http://www.w3.org/2000/svg">
<circle cx="20.9688" cy="20" r="20" fill="#FFF1CE"/>
<path d="M9.34961 31.472L9.85169 28.4839L12.3296 30.9699L9.34961 31.472Z" fill="#383E4C"/>
<path d="M9.58398 27.5327L10.7177 23.751L17.4065 29.9539L13.6167 31.0876L9.58398 27.5327Z" fill="#FFD79C"/>
<path d="M10.7666 23.7266L17.2853 30.1319L30.6467 16.8758L24.2332 10.3976L10.7666 23.7266Z" fill="#FFCA43"/>
<path d="M26.8903 7.88758L24.4609 10.406L30.34 16.7142L33.8868 13.1917L33.4009 11.5073L29.5383 7.67705L28.1155 7.00024L26.8903 7.88758Z" fill="#FF798B"/>
<path d="M20.9213 26.0832C21.7797 25.2249 22.6461 24.3827 23.4883 23.5081C23.8496 23.2182 24.1543 22.864 24.3872 22.4635C24.4843 22.2287 24.954 22.0829 25.2374 21.7833L27.6263 19.354L29.8694 16.9246C30.6225 16.1148 31.4889 15.4184 32.1449 14.6006C32.2877 14.4284 32.439 14.2636 32.5983 14.1066L32.7846 13.9203C32.8413 13.8718 32.8818 13.8151 32.9303 13.7665C33.1176 13.5386 33.218 13.2516 33.2138 12.9567C33.1961 12.6644 33.0949 12.3834 32.9222 12.1469C32.9222 12.0821 32.8332 12.0417 32.7846 11.9769L32.5416 11.7258C32.3878 11.5558 32.2339 11.3857 32.0882 11.2076C31.6869 10.6905 31.2456 10.2058 30.7682 9.75806C30.4686 9.48273 30.1204 9.28838 29.8127 8.94828C29.505 8.60817 29.262 8.25186 28.849 8.13849C28.7932 8.08792 28.7514 8.02377 28.7276 7.95226C28.661 7.81812 28.5478 7.71285 28.4091 7.6562C28.2705 7.59956 28.116 7.59542 27.9745 7.64454C27.7478 7.73362 27.5615 7.75791 27.3752 7.84699C27.2476 7.91091 27.128 7.98974 27.0189 8.08183C26.938 8.14661 26.7274 8.37333 26.5736 8.51909L25.6099 9.6042C25.1079 10.082 24.5572 10.5112 24.0551 10.9889C23.5675 11.5217 23.0483 12.0247 22.5004 12.4951C21.9782 12.8992 21.4881 13.3432 21.0347 13.8232C20.7755 14.0823 20.395 14.3252 20.3302 14.6977C20.3302 14.6977 20.2249 14.8273 20.1682 14.8597C19.2127 15.4103 18.7349 16.4226 17.9251 17.1352C17.1153 17.8478 16.3056 18.7142 15.4958 19.5159C15.2852 19.7346 15.0099 19.9127 14.9289 20.2204C14.8382 20.3922 14.7042 20.5373 14.5402 20.6415C13.8476 21.1487 13.2099 21.7268 12.6373 22.3663C12.281 22.6984 11.9489 23.0547 11.6007 23.4029C11.4226 23.5729 11.2525 23.743 11.0663 23.9049L10.9286 24.0264L10.8314 24.0993L10.6614 24.2612C10.5453 24.3848 10.4764 24.5454 10.467 24.7147C10.4158 24.9822 10.4158 25.257 10.467 25.5245C10.4549 25.8795 10.406 26.2323 10.3213 26.5772C10.3213 26.8687 10.3213 27.1683 10.3213 27.4518C10.2663 27.699 10.1877 27.9403 10.0864 28.1725C10.078 28.2532 10.078 28.3346 10.0864 28.4154C10.0694 29.1281 9.97436 29.8369 9.80302 30.5289L9.70583 30.9986C9.69446 31.0465 9.69446 31.0964 9.70583 31.1444C9.71853 31.1899 9.74622 31.2299 9.78442 31.2578C9.82261 31.2857 9.8691 31.3 9.91638 31.2982H9.99736L10.2403 31.2496L10.7747 31.1525L11.8437 30.9824L14.0058 30.6747C18.1114 29.8843 16.8653 30.2715 17.5736 30.5289C17.849 30.6666 17.5485 31.0796 17.2489 31.2496C16.9933 31.3865 15.6887 31.5467 15.4067 31.614L14.0867 31.9298C13.1935 32.2067 12.2776 32.4045 11.3497 32.521C11.0501 32.521 10.7181 32.691 10.4508 32.521C10.3788 32.5052 10.3042 32.5052 10.2322 32.521C9.99573 32.599 9.74342 32.6161 9.49857 32.5708C9.25371 32.5255 9.02421 32.4193 8.83128 32.2619C8.62708 32.0937 8.46718 31.8781 8.36554 31.6339C8.26391 31.3897 8.22363 31.1243 8.24823 30.8609C8.25248 30.7627 8.26603 30.6651 8.28871 30.5694L8.32922 30.3265L8.42639 29.8406C8.48307 29.5248 8.53977 29.2009 8.58835 28.877C8.65757 27.7917 8.78189 26.7106 8.96085 25.6379C8.90809 25.3134 8.90809 24.9825 8.96085 24.658L9.00132 24.407C9.02044 24.2832 9.05026 24.1613 9.09041 24.0426C9.17152 23.8178 9.28325 23.6052 9.42243 23.411C9.53955 23.2497 9.67246 23.1005 9.81921 22.9656L10.1431 22.6902L10.7505 22.1396C11.1472 21.7671 11.5602 21.3784 11.9246 20.9897C12.6939 20.18 13.447 19.4188 14.2244 18.6576C15.844 17.1109 17.3664 15.5156 18.9454 13.9608C19.1817 13.6592 19.4536 13.3873 19.7552 13.151C20.1296 12.8503 20.474 12.514 20.7836 12.1469C21.0804 11.8204 21.3939 11.5096 21.723 11.2157C23.0556 10.0895 24.3184 8.88346 25.5047 7.60406C25.6747 7.44211 25.7962 7.31253 25.9986 7.13438C26.1985 6.94801 26.425 6.79244 26.6707 6.67279C27.171 6.42078 27.7336 6.31951 28.2903 6.38129C28.852 6.43061 29.3843 6.65429 29.8127 7.02102L30.7925 7.94416C31.5618 8.66486 32.4121 9.32079 33.1085 10.1063C33.4243 10.4626 33.813 10.665 34.0316 11.1995C34.1045 11.3452 34.558 11.7177 34.6795 12.1145C34.8346 12.5774 34.8736 13.0713 34.7932 13.5528C34.7127 14.0343 34.5151 14.4886 34.2179 14.8759C34.1211 15.0044 34.0155 15.1262 33.9021 15.2403L33.6267 15.5075L33.0923 16.042L32.0315 17.119C31.6023 17.5644 31.2217 18.0502 30.8168 18.5037C30.4119 18.9572 29.918 19.4349 29.4483 19.8722C28.849 20.431 28.2255 20.9492 27.6344 21.4918C27.0432 22.0343 26.4683 22.7631 25.8286 23.2652C24.6965 24.2458 23.6154 25.2837 22.5894 26.3748C21.5205 27.4194 20.4516 28.464 19.4313 29.5491C19.144 29.8384 18.8384 30.1089 18.5162 30.3589C18.1761 30.618 17.9575 30.8609 17.4959 31.1687C17.3808 31.2283 17.2531 31.2594 17.1234 31.2594C16.9938 31.2594 16.866 31.2283 16.7509 31.1687C16.5404 31.0715 16.4432 30.9014 16.4999 30.8123C16.5248 30.7635 16.5645 30.7238 16.6133 30.699C16.7652 30.6211 16.9 30.5137 17.0101 30.3832C17.1153 30.2536 17.172 30.124 17.3016 29.9378C17.5329 29.5762 17.8046 29.242 18.1114 28.9418C18.994 28.0348 19.9415 27.055 20.9213 26.0832Z" fill="#1F2227"/>
<path d="M17.3348 20.8763C17.2307 20.8822 17.172 20.8846 17.085 20.9075C16.998 20.9304 16.781 21.141 16.781 21.141C16.7514 21.1418 16.7222 21.1506 16.6967 21.1667L16.6356 21.2278C16.5279 21.4045 16.4797 21.6094 16.4983 21.8111C16.5222 21.9472 16.5724 22.0763 16.6463 22.1912C16.7295 22.3226 16.8047 22.459 16.8716 22.5998C16.9236 22.6758 16.9892 22.7414 17.0652 22.7934C17.1279 22.8439 17.1849 22.9009 17.2354 22.9636L17.5875 23.3157C17.6589 23.375 17.7412 23.4201 17.8303 23.4485C17.9075 23.4769 17.8852 23.3936 17.9747 23.4097C18.0639 23.4451 18.1552 23.4753 18.2482 23.5C18.3072 23.5219 18.3695 23.5348 18.433 23.5382C18.4756 23.5074 18.3875 23.4194 18.4345 23.4664C18.5927 23.6368 18.4934 23.5131 18.6063 23.5527C18.7193 23.5924 18.7268 23.5144 18.7696 23.4716C18.8407 23.4354 18.9156 23.4078 18.9927 23.3894C19.031 23.3631 19.0642 23.3299 19.0904 23.2916C19.2426 23.1629 19.2467 22.9593 19.3012 22.9283C19.3557 22.8973 19.2963 22.8745 19.297 22.8386C19.2977 22.8026 19.264 22.6956 19.2992 22.7308L19.2287 22.6604C19.1489 22.4445 19.0402 22.2413 18.9056 22.0563C18.7784 21.8314 18.6007 21.6671 18.353 21.4194C18.1053 21.1717 17.7044 20.965 17.7044 20.965C17.6096 20.919 17.4389 20.8705 17.3348 20.8763Z" fill="#1F2227"/>
<path d="M22.1326 15.9252C22.0285 15.931 21.9699 15.9334 21.8828 15.9563C21.7958 15.9793 21.5789 16.1899 21.5789 16.1899C21.5493 16.1906 21.5201 16.1995 21.4946 16.2155L21.4335 16.2766C21.3258 16.4534 21.2775 16.6583 21.2961 16.86C21.32 16.996 21.3703 17.1251 21.4441 17.2401C21.5274 17.3714 21.6026 17.5078 21.6694 17.6486C21.7214 17.7246 21.787 17.7902 21.8631 17.8422C21.9257 17.8927 21.9828 17.9498 22.0333 18.0124L22.3854 18.3645C22.4567 18.4238 22.5391 18.4689 22.6281 18.4974C22.7054 18.5257 22.6831 18.4424 22.7726 18.4586C22.8617 18.4939 22.9531 18.5241 23.0461 18.5489C23.1051 18.5708 23.1674 18.5836 23.2309 18.5871C23.2734 18.5563 23.1854 18.4683 23.2323 18.5152C23.3905 18.6856 23.2913 18.5619 23.4042 18.6016C23.5171 18.6412 23.5247 18.5632 23.5674 18.5205C23.6386 18.4843 23.7135 18.4566 23.7906 18.4382C23.8288 18.4119 23.862 18.3788 23.8883 18.3405C24.0405 18.2117 24.0446 18.0081 24.0991 17.9771C24.1536 17.9461 24.0941 17.9233 24.0949 17.8874C24.0956 17.8515 24.0618 17.7444 24.097 17.7796L24.0266 17.7092C23.9467 17.4933 23.8381 17.2902 23.7035 17.1051C23.5763 16.8802 23.3985 16.7159 23.1508 16.4682C22.9032 16.2206 22.5023 16.0138 22.5023 16.0138C22.4074 15.9678 22.2367 15.9193 22.1326 15.9252Z" fill="#1F2227"/>
<path d="M20.4189 21.1574C20.4891 21.2403 20.566 21.3172 20.6489 21.3874C20.6809 21.4193 20.6553 21.4193 20.6594 21.4658C20.7618 21.4534 20.7256 21.4896 20.7512 21.4896C20.7767 21.4896 20.8406 21.579 20.8789 21.6174C20.9173 21.6557 21.0062 21.6669 21.0637 21.6605C21.1213 21.6541 21.1877 21.7431 21.2452 21.6473C21.3524 21.6295 21.3192 21.7266 21.3704 21.6882C21.4215 21.6499 21.3777 21.6681 21.4942 21.6666C21.5764 21.685 21.5881 21.6876 21.6137 21.6493C21.6392 21.611 21.6432 21.6788 21.672 21.591C21.7295 21.5675 21.6904 21.5726 21.6933 21.5313L21.7624 21.5006C21.8518 21.59 21.7803 21.5576 21.7899 21.4731C21.8331 21.3616 21.7947 21.4299 21.8331 21.3916L21.888 21.3367C21.888 21.3367 21.882 21.2532 21.9204 21.2404C21.9587 21.2276 21.9194 21.1652 22.0153 21.1844C22.1111 21.2036 22.112 21.1382 22.1184 21.1062C22.1248 21.0743 22.155 21.1894 22.1256 21.0352C22.224 20.924 22.1194 20.9392 22.1376 20.8325C22.1387 20.7538 22.1174 20.7559 22.1046 20.7047C22.0918 20.6536 22.1196 20.7197 22.0747 20.6149C22.117 20.5426 22.0737 20.5759 22.0609 20.512C22.0482 20.4482 22.0561 20.5711 22.0594 20.3955C22.0333 20.3694 22.0547 20.3454 21.9779 20.314C21.9779 20.314 21.9575 20.338 21.9192 20.2997L21.8892 20.2697C21.7444 20.17 21.8054 20.0392 21.6712 19.9945C21.5531 19.934 21.4569 19.8379 21.3965 19.7198C21.3453 19.6687 21.3454 19.5664 21.5626 19.2853C21.6405 19.1614 21.7453 19.0566 21.8693 18.9786C21.9181 18.9431 21.9753 18.9211 22.0354 18.9147L22.1887 18.9275C22.2909 18.9403 22.4634 18.8828 22.4634 19.0106C22.4634 19.1384 22.5529 18.9978 22.4571 19.132C22.7062 19.0361 22.6807 19.2406 22.7701 19.3045C22.8596 19.3684 22.924 19.3678 23.0753 19.559C23.2307 19.7144 23.277 19.7657 23.3322 19.9308C23.3836 20.283 23.4921 20.2692 23.5049 20.5631C23.5266 20.8526 23.5029 21.1436 23.4346 21.4257C23.4346 21.4257 23.5304 21.5215 23.409 21.579C23.2876 21.6365 23.326 21.6621 23.3196 21.7451C23.3132 21.8282 23.3132 21.8665 23.2366 21.8921C22.9618 21.9879 22.9235 22.2052 22.7637 22.3649C22.604 22.5246 22.4123 22.6013 22.2462 22.7419C22.0801 22.8824 22.0354 22.9527 21.9012 22.9719C21.767 22.991 21.7926 23.0805 21.7095 22.908C21.6776 22.876 21.6329 22.9847 21.6073 23.0102C21.5152 23.0314 21.4206 23.04 21.3262 23.0358L20.9301 22.9974C20.8534 22.9974 20.8058 23.022 20.7164 23.0092C20.6269 23.0068 20.563 22.9542 20.49 22.9024C20.4027 22.8281 20.3079 22.8237 20.2336 22.7365C20.1569 22.6598 20.1243 22.6638 19.9965 22.4998C19.939 22.3212 19.7736 22.2116 19.6842 22.0966C19.6084 21.9826 19.5106 21.8848 19.3967 21.809C19.3455 21.7579 19.3903 21.611 19.3392 21.5599C19.4373 21.3804 19.5672 21.2202 19.7225 21.0871L19.7736 21.036C19.927 20.9848 20.1378 20.8762 20.1825 20.9465C20.2569 21.0216 20.3358 21.0921 20.4189 21.1574Z" fill="#1F2227"/>
<path d="M10.4253 24.408C10.3164 24.2861 10.1827 24.1888 10.0338 24.123L11.0808 22.9183C11.4588 23.1211 11.7555 23.4508 11.9161 23.8465C12.4351 24.3124 12.9153 24.8198 13.3513 25.3634C14.0181 25.8609 14.6058 26.4574 15.0928 27.1308C15.1014 27.1523 15.1147 27.1717 15.1318 27.1876C15.1489 27.2034 15.1693 27.2153 15.1914 27.2221C15.4296 27.1999 15.5349 27.4078 15.6705 27.5334C16.1345 27.9124 16.5416 28.3564 16.8783 28.8507L17.4177 29.5047C17.5313 29.6527 17.6179 29.8189 17.6734 29.9954C17.7566 30.227 17.6246 30.3696 17.3925 30.3975C17.1443 30.4 16.8964 30.3489 16.6659 30.2478C16.4354 30.1467 16.2277 29.998 16.0569 29.8117C15.3484 29.2217 14.6713 28.5947 14.0288 27.9334C13.4064 27.2576 12.5377 26.8725 12.0315 26.0836L11.9206 25.9808C11.77 25.9207 11.6264 25.8433 11.4928 25.7502C11.3627 25.6187 11.3294 25.4444 11.163 25.2903C10.9965 25.1361 10.7086 25.0019 10.6637 24.8278C10.6156 24.6732 10.5342 24.5298 10.4253 24.408Z" fill="#1F2227"/>
<path d="M24.0102 11.1083C23.9013 10.9864 23.7677 10.8891 23.6187 10.8233L24.6657 9.61866C25.0438 9.82142 25.3404 10.1511 25.501 10.5468C26.0201 11.0127 26.5002 11.5201 26.9363 12.0637C27.6031 12.5612 28.1908 13.1577 28.6778 13.8311C28.6863 13.8526 28.6997 13.8721 28.7168 13.8879C28.7339 13.9038 28.7543 13.9156 28.7764 13.9225C29.0146 13.9002 29.1198 14.1081 29.2555 14.2337C29.7194 14.6127 30.1265 15.0567 30.4633 15.551L31.0027 16.2051C31.1162 16.353 31.2028 16.5192 31.2583 16.6957C31.3416 16.9273 31.2095 17.0699 30.9775 17.0978C30.7292 17.1003 30.4814 17.0493 30.2509 16.9482C30.0204 16.8471 29.8126 16.6983 29.6419 16.512C28.9333 15.9221 28.2563 15.295 27.6138 14.6337C26.9914 13.9579 26.1227 13.5728 25.6165 12.7839L25.5055 12.6812C25.3549 12.6211 25.2114 12.5436 25.0778 12.4506C24.9477 12.319 24.9144 12.1447 24.7479 11.9906C24.5815 11.8364 24.2936 11.7022 24.2486 11.5281C24.2005 11.3735 24.1191 11.2301 24.0102 11.1083Z" fill="#1F2227"/>
<path d="M13.3612 30.6431C13.4144 30.7156 13.49 30.7668 13.5827 30.7931L12.5998 31.8149C12.3715 31.7225 12.2262 31.5266 12.1907 31.2633C11.9145 31.0008 11.6741 30.7026 11.4723 30.3719C11.0974 30.1077 10.7983 29.7605 10.5861 29.3432C10.5843 29.3289 10.5787 29.3167 10.5696 29.3077C10.5606 29.2987 10.5485 29.2931 10.5341 29.2913C10.3605 29.3416 10.327 29.2063 10.2556 29.1349C10.0013 28.9273 9.80024 28.6645 9.65915 28.3552L9.40582 27.9595C9.35455 27.8687 9.32603 27.7609 9.32162 27.6412C9.30847 27.4856 9.43059 27.3635 9.60096 27.3099C9.77781 27.2725 9.94375 27.2739 10.0874 27.3139C10.2311 27.354 10.3491 27.4318 10.4334 27.542C10.8196 27.8671 11.1761 28.2236 11.5012 28.6098C11.8092 29.0094 12.3499 29.1633 12.5528 29.6614L12.6112 29.7198C12.7063 29.7417 12.7929 29.7771 12.8693 29.8253C12.9356 29.9017 12.9247 30.0231 13.0123 30.1107C13.0999 30.1983 13.2778 30.2541 13.2752 30.3736C13.2787 30.4785 13.308 30.5706 13.3612 30.6431Z" fill="#1F2227"/>
</svg>
