<svg width="40" height="40" viewBox="0 0 40 40" fill="none" xmlns="http://www.w3.org/2000/svg">
<circle cx="20" cy="20" r="20" fill="#EDE6FF"/>
<path fill-rule="evenodd" clip-rule="evenodd" d="M12.8646 21.419C11.4297 20.5364 10.1986 19.3591 9.25287 17.9649C7.88626 15.9 7.7511 13.5873 8.92248 12.8138C10.0939 12.0404 12.1663 13.0767 13.5254 15.1416C13.6155 15.2768 13.6981 15.4194 13.7882 15.5621C13.9788 15.2779 14.2722 15.0787 14.6067 15.0064C15.0723 14.9684 15.5343 15.1135 15.8947 15.4107C16.255 15.708 16.4853 16.134 16.5365 16.5983C16.6266 17.0338 16.7693 17.9274 16.8518 18.851C18.6842 18.5195 20.5611 18.5195 22.3934 18.851C22.476 17.9349 22.6262 17.0338 22.7163 16.5983C22.7657 16.1346 22.9944 15.7086 23.3535 15.4112C23.7126 15.1138 24.1738 14.9685 24.6385 15.0064C24.9751 15.0784 25.271 15.2774 25.4646 15.5621L25.7198 15.1416C27.0864 13.0767 29.1514 12.0329 30.3303 12.8138C31.5092 13.5948 31.3665 15.9 29.9999 17.9649C29.0811 19.3098 27.9013 20.4563 26.5308 21.3364C26.6735 21.5091 26.8086 21.6893 26.9438 21.8695C29.8122 25.8643 32.2 31.1655 26.3881 31.1655H12.8722C7.90879 30.715 10.0563 25.4588 12.767 21.5391L12.8646 21.419Z" fill="white"/>
<path d="M10.568 28.8066C10.5995 29.0816 10.6964 29.345 10.8505 29.5749C11.0047 29.8048 11.2116 29.9945 11.454 30.1281C11.5113 30.17 11.5715 30.2076 11.6342 30.2407L11.852 30.3158C11.9954 30.3757 12.1436 30.4234 12.295 30.4585L12.7756 30.5336C12.8406 30.5378 12.9058 30.5378 12.9708 30.5336H13.2411C13.7986 30.5831 14.3603 30.5502 14.9081 30.436C15.186 30.3459 15.7116 30.5561 16.2147 30.5411H20.2995L24.2717 30.4285C24.9249 30.4285 25.5932 30.4285 26.254 30.4285C26.8327 30.4668 27.413 30.385 27.9585 30.1882C28.3119 30.0669 28.6329 29.8666 28.8971 29.6025C29.1372 29.3264 29.2634 28.9694 29.2501 28.6038C29.1545 27.6089 28.901 26.6356 28.4992 25.7204C28.2412 24.9991 27.8984 24.3109 27.478 23.6705C27.2077 23.28 26.8697 22.9647 26.5769 22.5291L26.3366 22.2438L26.0588 21.8608C25.8711 21.6131 25.6833 21.3653 25.4806 21.11C25.7161 20.9494 25.9349 20.7658 26.1339 20.5618C26.34 20.4235 26.5531 20.2957 26.7721 20.1789C27.254 19.9719 27.6659 19.6304 27.9585 19.1952C28.1913 18.8423 28.4466 18.587 28.7094 18.2866C29.3602 17.5267 29.8507 16.6429 30.1511 15.6886C30.3933 15.0763 30.4327 14.4026 30.2637 13.7663C30.046 13.2482 29.5579 13.2106 28.9122 13.3083C28.2375 13.4685 27.6274 13.8299 27.1626 14.3445C27.0031 14.4877 26.8526 14.6407 26.7121 14.8025C26.6484 14.886 26.5907 14.9738 26.5394 15.0653C26.4636 15.2184 26.3984 15.3764 26.3441 15.5384C26.2699 15.6881 26.1792 15.8292 26.0738 15.9589L25.781 16.3418L25.6458 16.522L25.5181 16.6422C25.3229 16.3644 25.1127 16.0865 24.9249 15.8913C24.8604 15.7892 24.7697 15.7062 24.6621 15.651H24.5645C24.4264 15.6339 24.2864 15.6629 24.1665 15.7336C23.8805 15.9368 23.6631 16.2223 23.5433 16.5521C23.5081 16.6215 23.4804 16.6945 23.4607 16.7698L23.4081 17.0702L23.3105 17.6934C23.2129 18.3692 23.1228 19.045 23.0252 19.7133L21.7112 19.5031L21.2606 19.4505H20.9152C20.5778 19.364 20.2239 19.364 19.8865 19.4505C19.6704 19.4893 19.4492 19.4893 19.2332 19.4505C18.8688 19.3878 18.4981 19.3701 18.1294 19.3979H17.8516L17.356 19.4655L16.2672 19.6608C16.1997 19.1952 16.1396 18.7297 16.072 18.2641L15.9443 17.318C15.921 17.0643 15.8758 16.813 15.8092 16.5671C15.6997 16.1933 15.4634 15.8694 15.1409 15.651C15.0846 15.609 15.0198 15.5798 14.9511 15.5656C14.8823 15.5513 14.8113 15.5523 14.7429 15.5684C14.7055 15.573 14.6696 15.5858 14.6378 15.606C14.5363 15.6606 14.4509 15.7409 14.39 15.8387C14.2023 16.079 13.992 16.3869 13.7893 16.7098C13.7142 16.6347 13.6766 16.6497 13.6091 16.5671C13.3879 16.2935 13.1895 16.0021 13.0159 15.6961L12.693 15.1855C12.6254 15.0954 12.5653 15.0128 12.4978 14.9377C12.2583 14.7242 12.0077 14.5237 11.7469 14.337C11.5592 14.1718 11.4015 13.9465 11.1987 13.7813C11.1384 13.7227 11.0669 13.6767 10.9885 13.6461C10.7403 13.5077 10.467 13.4204 10.1845 13.3894C9.90206 13.3585 9.61626 13.3845 9.34403 13.4659C9.11449 13.6565 8.94693 13.9111 8.86267 14.1973C8.77842 14.4835 8.78129 14.7883 8.87097 15.0728C9.2099 16.6362 10.0104 18.0618 11.1687 19.1652C11.7946 19.7366 12.3515 20.3792 12.8282 21.0799C12.9858 21.3653 12.9108 21.5305 12.4978 21.4028C12.167 21.299 11.8533 21.1472 11.5667 20.9523C11.1077 20.6262 10.6689 20.2726 10.2526 19.8935C9.31395 19.1461 8.57381 18.179 8.09758 17.0777C7.96993 16.7098 7.71462 16.3268 7.80472 15.9439C7.80735 15.8492 7.79207 15.755 7.75967 15.666C7.58656 15.2317 7.5129 14.7642 7.54408 14.2978C7.57527 13.8313 7.7105 13.3777 7.93988 12.9703C8.23639 12.5039 8.70189 12.1702 9.2389 12.0393C9.73681 11.9304 10.2545 11.9537 10.7407 12.1068C11.4598 12.3267 12.132 12.6781 12.723 13.1431C13.0099 13.3695 13.2762 13.6207 13.519 13.8939C13.6391 14.0291 13.7518 14.1718 13.8644 14.3144C13.8954 14.3613 13.9206 14.4117 13.9395 14.4646C13.9607 14.4561 13.979 14.4416 13.9923 14.423C14.0056 14.4044 14.0134 14.3823 14.0146 14.3595C14.0167 14.3445 14.0167 14.3294 14.0146 14.3144C14.1582 14.24 14.3128 14.1893 14.4726 14.1643C14.9324 14.0816 15.4065 14.1584 15.8167 14.382C16.2189 14.6181 16.5606 14.9445 16.8147 15.3355C17.0689 15.7265 17.2285 16.1713 17.2809 16.6347L17.4161 17.7084V17.9487C17.4119 17.9786 17.4119 18.0089 17.4161 18.0388L17.6789 17.9938C18.0017 17.9938 18.3247 17.9262 18.6551 17.9037C19.305 17.8586 19.9574 17.8586 20.6073 17.9037C20.9227 17.9037 21.2381 17.9638 21.5535 18.0013H21.6886H21.7712L21.8763 17.2504L21.989 16.4995C22.0448 16.1933 22.146 15.8972 22.2893 15.621C22.4398 15.3149 22.6503 15.0421 22.9083 14.819C23.1663 14.5958 23.4665 14.4268 23.7911 14.322C24.1612 14.2133 24.5548 14.2133 24.9249 14.322L25.1427 14.4045L25.1877 14.4496C25.1877 14.4496 25.1877 14.3445 25.2478 14.2844C25.2442 14.2671 25.2442 14.2492 25.2478 14.2318L25.3605 14.0817C25.4463 13.9707 25.5446 13.8699 25.6533 13.7813C26.1086 13.3299 26.5926 12.9085 27.1025 12.5198C27.6205 12.1371 28.2281 11.894 28.8671 11.814C29.2267 11.7781 29.5899 11.8214 29.931 11.9407C30.2722 12.0601 30.5831 12.2526 30.8419 12.5048C31.2881 13.0124 31.5408 13.6613 31.5553 14.337C31.6495 15.5158 31.4018 16.6968 30.8419 17.7385C30.3527 18.5618 29.7596 19.3189 29.0774 19.9911C28.7434 20.329 28.3925 20.6498 28.0261 20.9523L27.5681 21.3277L27.3879 21.4479C27.4404 21.523 27.508 21.583 27.5606 21.6506L28.1012 22.4015C28.2964 22.6643 28.4841 22.9346 28.6643 23.2049C29.0418 23.751 29.3709 24.3288 29.648 24.932C29.955 25.4351 30.1496 25.9986 30.2187 26.5839C30.2187 26.7491 30.5115 27.2447 30.5866 27.6352C30.6925 28.1416 30.7077 28.6628 30.6317 29.1745C30.5375 29.7523 30.2765 30.2899 29.8808 30.7213C29.3377 31.2519 28.6465 31.6053 27.8985 31.735C27.2515 31.8468 26.595 31.8946 25.9386 31.8777C25.1877 31.8777 24.4368 31.9678 23.686 31.9903C22.9351 32.0129 22.1316 31.9903 21.3507 31.9903L18.4072 31.8777C17.386 31.8777 16.3273 31.9453 15.3511 31.8777C14.8931 31.8326 14.4426 31.8101 13.992 31.7951H13.3087H12.9708C12.8961 31.8056 12.8203 31.8056 12.7456 31.7951H12.5579C12.3101 31.7575 12.0623 31.72 11.807 31.6674L11.0561 31.4121C10.8121 31.2787 10.5764 31.1308 10.3502 30.9691C10.1396 30.7799 9.95296 30.5655 9.79455 30.3309C9.28073 29.4015 9.1411 28.3111 9.40412 27.2823C9.6033 26.3554 9.90554 25.4537 10.3052 24.5941C10.7719 23.7001 11.6134 21.768 12.2065 20.9523C12.4693 20.5543 12.882 21.058 12.9046 21.3133C12.9017 21.3831 12.9972 21.501 12.8882 21.8308C12.4602 22.7169 12.2049 23.5804 11.6868 24.534C11.3048 25.2261 10.9953 25.9559 10.7632 26.7116C10.5489 27.3879 10.4824 28.1023 10.568 28.8066Z" fill="#1F2227"/>
<path d="M18.5002 23.6235C18.4282 23.5591 18.3881 23.5222 18.316 23.4801C18.2439 23.4381 17.9636 23.434 17.9636 23.434C17.9437 23.415 17.9188 23.4017 17.8915 23.3955H17.8114C17.6249 23.4408 17.4589 23.5435 17.3388 23.6879C17.2653 23.7928 17.2136 23.9104 17.1867 24.0342C17.1551 24.1749 17.115 24.3137 17.0665 24.4498C17.0507 24.5338 17.0507 24.6198 17.0665 24.7037C17.0745 24.7779 17.0745 24.8527 17.0665 24.9269V25.3887C17.0744 25.4743 17.0989 25.5579 17.1386 25.6349C17.1706 25.7042 17.2107 25.6349 17.2587 25.7042C17.294 25.7858 17.3341 25.8655 17.3789 25.9427C17.4032 25.9958 17.4356 26.0451 17.475 26.089C17.5231 26.0967 17.5231 25.9812 17.5231 26.0428C17.515 26.2583 17.5311 26.112 17.5791 26.2121C17.6272 26.3121 17.6832 26.2659 17.7393 26.2659C17.8097 26.2889 17.8769 26.3199 17.9396 26.3583C17.9819 26.3662 18.0254 26.3662 18.0677 26.3583C18.2519 26.3737 18.3881 26.2429 18.4442 26.2583C18.5002 26.2737 18.4762 26.2198 18.5002 26.1967C18.5243 26.1736 18.5723 26.0813 18.5723 26.1274V26.0351C18.6615 25.8412 18.7234 25.6367 18.7566 25.4271C18.8206 25.1963 18.8118 24.972 18.8118 24.6472C18.8118 24.3224 18.6845 23.924 18.6845 23.924C18.6525 23.8316 18.5723 23.6879 18.5002 23.6235Z" fill="#1F2227"/>
<path d="M21.9104 23.6255C21.8383 23.561 21.7983 23.5241 21.7262 23.4821C21.6541 23.4401 21.3738 23.4359 21.3738 23.4359C21.3539 23.417 21.3289 23.4037 21.3017 23.3975H21.2216C21.035 23.4428 20.8691 23.5455 20.749 23.6899C20.6754 23.7948 20.6237 23.9124 20.5968 24.0362C20.5653 24.1768 20.5252 24.3156 20.4767 24.4518C20.4609 24.5357 20.4609 24.6217 20.4767 24.7057C20.4846 24.7799 20.4846 24.8547 20.4767 24.9289V25.3906C20.4846 25.4763 20.509 25.5598 20.5487 25.6369C20.5808 25.7061 20.6208 25.6369 20.6689 25.7061C20.7042 25.7878 20.7443 25.8675 20.789 25.9447C20.8134 25.9977 20.8458 26.047 20.8852 26.0909C20.9332 26.0986 20.9332 25.9832 20.9332 26.0447C20.9252 26.2602 20.9412 26.114 20.9893 26.214C21.0373 26.3141 21.0934 26.2679 21.1495 26.2679C21.2199 26.2908 21.2871 26.3218 21.3497 26.3603C21.392 26.3682 21.4356 26.3682 21.4779 26.3603C21.6621 26.3757 21.7983 26.2448 21.8543 26.2602C21.9104 26.2756 21.8864 26.2217 21.9104 26.1986C21.9344 26.1756 21.9825 26.0832 21.9825 26.1294V26.037C22.0716 25.8431 22.1336 25.6387 22.1667 25.4291C22.2308 25.1982 22.2219 24.974 22.2219 24.6492C22.2219 24.3244 22.0947 23.9259 22.0947 23.9259C22.0626 23.8336 21.9825 23.6899 21.9104 23.6255Z" fill="#1F2227"/>
<path d="M17.7337 22.9624L17.4432 22.9016C17.3302 22.878 17.2224 22.845 17.1189 22.8233C17.0555 22.7849 17.006 22.6877 16.9728 22.5362C16.9695 22.5256 16.9687 22.507 16.9706 22.4834C16.981 22.3704 17.0883 22.063 17.1189 22.0694C17.1844 22.0884 17.2656 22.0059 17.3332 22.02L17.6902 22.0947C17.8045 22.1482 17.9296 22.1516 18.064 22.1048L18.1751 22.1856C18.2881 22.2093 18.3959 22.2423 18.4994 22.2639C18.5628 22.3023 18.6123 22.3996 18.6455 22.551C18.6488 22.5617 18.6496 22.5802 18.6477 22.6038C18.6373 22.7168 18.53 23.0242 18.4994 23.0178C18.4339 22.9989 18.3527 23.0814 18.2851 23.0672L17.9272 23.0028C17.8944 22.9908 17.8321 23.1086 17.8256 23.0497C17.8074 22.972 17.7754 22.9416 17.7337 22.9624Z" fill="#1F2227"/>
<path d="M19.1654 6.22254C19.2077 6.15414 19.2654 6.09801 19.3331 6.05917C19.4008 6.02033 19.4765 6 19.5534 6C19.6303 6 19.706 6.02033 19.7737 6.05917C19.8414 6.09801 19.899 6.15414 19.9414 6.22254L20.8303 7.61447C20.9685 7.8329 21.1761 7.99076 21.4149 8.05901L22.9362 8.49991C23.0119 8.52187 23.0813 8.56363 23.1381 8.62138C23.1948 8.67913 23.2372 8.75106 23.2613 8.83066C23.2854 8.91025 23.2905 8.995 23.2761 9.07722C23.2617 9.15944 23.2283 9.23654 23.1789 9.30154L22.2114 10.5732C22.0565 10.7795 21.9753 11.0378 21.9824 11.302L22.0473 12.9344C22.0507 13.0166 22.035 13.0985 22.0017 13.1728C21.9684 13.247 21.9185 13.3115 21.8564 13.3604C21.7943 13.4093 21.7219 13.4413 21.6455 13.4534C21.5691 13.4655 21.4911 13.4575 21.4183 13.4299L19.9072 12.8433C19.6788 12.7538 19.428 12.7538 19.1995 12.8433L17.6885 13.4299C17.6157 13.4575 17.5377 13.4655 17.4613 13.4534C17.3849 13.4413 17.3125 13.4093 17.2504 13.3604C17.1883 13.3115 17.1384 13.247 17.1051 13.1728C17.0718 13.0985 17.0561 13.0166 17.0594 12.9344L17.1244 11.302C17.1333 11.0375 17.0519 10.7786 16.8953 10.5732L15.9278 9.30518C15.8793 9.23987 15.8467 9.16281 15.8328 9.08083C15.8189 8.99886 15.8242 8.91449 15.8482 8.83522C15.8722 8.75594 15.9142 8.68419 15.9704 8.62634C16.0266 8.56849 16.0954 8.52631 16.1706 8.50355L17.6919 8.06265C17.9307 7.9944 18.1383 7.83653 18.2765 7.61811L19.1654 6.22254Z" fill="#FFC42B"/>
<mask id="path-8-outside-1_7_32219" maskUnits="userSpaceOnUse" x="14.8252" y="5" width="9" height="9" fill="black">
<rect fill="white" x="14.8252" y="5" width="9" height="9"/>
<path d="M18.0716 8.25688C18.0205 8.28019 17.9679 8.29951 17.9143 8.31469L17.7822 8.35211L17.5242 8.42693L17.0083 8.58679C16.8701 8.60255 16.7379 8.65642 16.6245 8.74323C16.5396 8.80785 16.4861 8.72282 16.442 8.77384C16.4126 8.80938 16.3964 8.8554 16.3964 8.90308C16.3964 8.95077 16.4126 8.99678 16.442 9.03232L16.5175 9.13435L16.678 9.34181L17.3292 10.1275C17.3945 10.209 17.4515 10.2979 17.499 10.3928C17.5477 10.5008 17.5836 10.6151 17.606 10.7329C17.6302 10.8443 17.6418 10.9585 17.6406 11.073C17.6406 11.1784 17.6406 11.2498 17.6406 11.3383C17.6658 11.6307 17.5903 11.8892 17.5934 12.1681C17.5934 12.3144 17.5934 12.464 17.5934 12.6137C17.5877 12.6626 17.5953 12.7122 17.6154 12.7565C17.6335 12.7905 17.6626 12.816 17.6972 12.8279C17.7169 12.833 17.7373 12.833 17.757 12.8279C17.798 12.8158 17.838 12.7999 17.8765 12.7803C17.9784 12.7122 18.0834 12.6498 18.1911 12.5932C18.3044 12.5524 18.4491 12.5388 18.5057 12.413C18.5368 12.406 18.569 12.406 18.6001 12.413C18.7384 12.4145 18.8732 12.3667 18.9839 12.2769C19.0273 12.2409 19.0749 12.2112 19.1254 12.1885C19.1885 12.1621 19.2538 12.1427 19.3205 12.1307C19.5062 12.0919 19.6976 12.0989 19.8804 12.1511C19.9244 12.1623 19.9675 12.1771 20.0094 12.1953L20.1069 12.2327L20.2988 12.3144C20.4876 12.396 20.67 12.5048 20.8588 12.5898C20.9594 12.6307 21.0664 12.6647 21.1734 12.7021C21.2803 12.7395 21.403 12.7905 21.3967 12.8075C21.4565 12.8619 21.5603 12.8075 21.5792 12.7225C21.5903 12.6969 21.5967 12.6691 21.5981 12.6409C21.5962 12.579 21.5739 12.5198 21.5351 12.4742C21.527 12.45 21.527 12.4235 21.5351 12.3994C21.6327 12.0593 21.4722 11.7192 21.4848 11.3791C21.4896 11.2873 21.4896 11.1953 21.4848 11.1036C21.4859 10.9892 21.4975 10.8753 21.5194 10.7635C21.5452 10.6454 21.5843 10.5312 21.6358 10.4234C21.6845 10.3263 21.7424 10.2351 21.8088 10.1513C21.8623 10.0764 21.9409 10.0118 21.9472 9.903C21.9622 9.84304 21.9969 9.79103 22.0448 9.75674C22.2421 9.58205 22.4158 9.37827 22.5607 9.15135C22.6897 8.99831 22.6708 9.00512 22.6802 8.9473C22.6769 8.89263 22.6629 8.83932 22.6393 8.79084C22.6393 8.75003 22.4317 8.67521 22.2838 8.71942C22.2083 8.73643 22.0825 8.65821 21.9693 8.6378C21.856 8.61739 21.7931 8.63779 21.7113 8.61058C21.6412 8.5812 21.5738 8.54477 21.51 8.50176C21.4883 8.49024 21.4648 8.4833 21.4408 8.48134C21.3343 8.47192 21.229 8.45142 21.1262 8.42013C20.9895 8.37528 20.8631 8.29997 20.755 8.19906C20.6469 8.10293 20.5544 7.98799 20.4813 7.85895C20.4284 7.75964 20.3696 7.6642 20.3051 7.57326C20.1761 7.3896 20.0503 7.19914 19.9308 7.00868L19.7546 6.7162L19.6665 6.56994C19.6476 6.54273 19.6476 6.53254 19.6319 6.52233C19.5402 6.45089 19.4304 6.4117 19.3173 6.41009C19.2355 6.41009 19.1537 6.38289 19.1978 6.25365C19.2197 6.20115 19.2514 6.15412 19.2909 6.1155C19.3305 6.07687 19.3769 6.04748 19.4274 6.02917C19.5168 5.9992 19.6114 5.9922 19.7037 6.00874C19.796 6.02527 19.8834 6.06488 19.9591 6.1244C19.9984 6.15616 20.0343 6.19268 20.066 6.23324L20.1415 6.32167L20.28 6.48832C20.3747 6.59969 20.4551 6.72439 20.519 6.85904C20.5599 6.94406 20.6512 7.01209 20.6354 7.11752C20.6357 7.12983 20.6384 7.14193 20.6433 7.15306C20.6481 7.16419 20.6551 7.17409 20.6637 7.18214C20.7371 7.25012 20.8045 7.32526 20.8651 7.40661L20.95 7.52564C20.9714 7.55664 20.9945 7.58617 21.0192 7.61407C21.1143 7.7391 21.2466 7.82447 21.3936 7.85555C21.7121 7.90627 22.0273 7.97898 22.3373 8.07322C22.4891 8.05652 22.6424 8.07985 22.784 8.14124C22.866 8.17195 22.9418 8.21928 23.0074 8.28068C23.1144 8.37988 23.195 8.50812 23.2409 8.6522C23.2867 8.79627 23.2963 8.95096 23.2685 9.10034C23.2384 9.23751 23.1779 9.36472 23.0923 9.47106L22.9413 9.67512C22.7368 9.94721 22.5418 10.2295 22.3342 10.4948C22.2423 10.5928 22.1677 10.708 22.114 10.8349C22.0947 10.8929 22.083 10.9536 22.0794 11.0151C22.0778 11.0457 22.0778 11.0764 22.0794 11.107V11.2396L22.1234 12.3042C22.1272 12.3638 22.1356 12.4229 22.1486 12.481C22.1518 12.5104 22.1518 12.5401 22.1486 12.5694C22.1531 12.6124 22.1531 12.6557 22.1486 12.6987C22.1338 12.8262 22.0946 12.9489 22.0333 13.059C21.9721 13.1691 21.8903 13.2642 21.7931 13.3381C21.7012 13.404 21.5957 13.4443 21.486 13.4556C21.3762 13.4669 21.2656 13.4487 21.1639 13.4027C20.9376 13.2673 20.7008 13.1535 20.4561 13.0626L19.7452 12.7939C19.6537 12.7628 19.5571 12.7536 19.462 12.7667C19.4137 12.7715 19.3661 12.7829 19.3205 12.8007L19.1443 12.8687C18.9021 12.964 18.663 13.0592 18.4239 13.1646C18.2792 13.2292 18.1408 13.3041 17.9961 13.3721L17.9426 13.3993L17.8545 13.4299C17.7899 13.4482 17.7231 13.4563 17.6563 13.4537C17.5227 13.4502 17.3932 13.4028 17.2851 13.3177C17.1905 13.2476 17.1102 13.1574 17.0492 13.0524C17.0199 12.9986 17.0009 12.9389 16.9933 12.877C16.9857 12.815 16.9898 12.7521 17.0051 12.6919C17.0144 12.6471 17.0144 12.6006 17.0051 12.5558C16.9909 12.505 16.9825 12.4524 16.98 12.3994C16.98 12.1681 16.9957 11.9368 17.0051 11.7022L17.0272 11.2192V11.1002C17.0287 11.073 17.0287 11.0457 17.0272 11.0185C17.0217 10.9628 17.01 10.908 16.9926 10.8553C16.9485 10.7227 16.8573 10.6648 16.722 10.4982C16.5868 10.3315 16.4735 10.1819 16.3603 10.0186L16.1495 9.69893L16.0457 9.53908L15.9953 9.45746C15.9652 9.41611 15.9389 9.37169 15.9167 9.32481C15.8652 9.22127 15.8347 9.10709 15.8271 8.98982C15.8195 8.87256 15.835 8.75488 15.8727 8.6446C15.9092 8.53719 15.9692 8.44092 16.0475 8.36394C16.1258 8.28697 16.2201 8.23157 16.3225 8.20246L16.4232 8.18206H16.5081L16.6717 8.14804C16.7787 8.12424 16.8888 8.09703 16.9863 8.06302L17.6154 7.87256L17.7727 7.83175C17.8115 7.81885 17.8493 7.80293 17.886 7.78413C17.9609 7.74628 18.029 7.69446 18.0873 7.63107C18.116 7.59697 18.1423 7.56059 18.166 7.52225L18.2572 7.37599L18.4365 7.0733C18.5686 6.84543 18.7475 6.58732 19.0421 6.30911C19.6067 5.77579 19.3107 6.28464 19.3391 6.36967C19.3453 6.38835 19.5255 6.35099 19.5192 6.36967C19.3766 6.62225 19.0768 7.00348 18.9461 7.23656L18.6001 7.77733C18.4711 7.98959 18.2873 8.15632 18.0716 8.25688Z"/>
</mask>
<path d="M18.0716 8.25688C18.0205 8.28019 17.9679 8.29951 17.9143 8.31469L17.7822 8.35211L17.5242 8.42693L17.0083 8.58679C16.8701 8.60255 16.7379 8.65642 16.6245 8.74323C16.5396 8.80785 16.4861 8.72282 16.442 8.77384C16.4126 8.80938 16.3964 8.8554 16.3964 8.90308C16.3964 8.95077 16.4126 8.99678 16.442 9.03232L16.5175 9.13435L16.678 9.34181L17.3292 10.1275C17.3945 10.209 17.4515 10.2979 17.499 10.3928C17.5477 10.5008 17.5836 10.6151 17.606 10.7329C17.6302 10.8443 17.6418 10.9585 17.6406 11.073C17.6406 11.1784 17.6406 11.2498 17.6406 11.3383C17.6658 11.6307 17.5903 11.8892 17.5934 12.1681C17.5934 12.3144 17.5934 12.464 17.5934 12.6137C17.5877 12.6626 17.5953 12.7122 17.6154 12.7565C17.6335 12.7905 17.6626 12.816 17.6972 12.8279C17.7169 12.833 17.7373 12.833 17.757 12.8279C17.798 12.8158 17.838 12.7999 17.8765 12.7803C17.9784 12.7122 18.0834 12.6498 18.1911 12.5932C18.3044 12.5524 18.4491 12.5388 18.5057 12.413C18.5368 12.406 18.569 12.406 18.6001 12.413C18.7384 12.4145 18.8732 12.3667 18.9839 12.2769C19.0273 12.2409 19.0749 12.2112 19.1254 12.1885C19.1885 12.1621 19.2538 12.1427 19.3205 12.1307C19.5062 12.0919 19.6976 12.0989 19.8804 12.1511C19.9244 12.1623 19.9675 12.1771 20.0094 12.1953L20.1069 12.2327L20.2988 12.3144C20.4876 12.396 20.67 12.5048 20.8588 12.5898C20.9594 12.6307 21.0664 12.6647 21.1734 12.7021C21.2803 12.7395 21.403 12.7905 21.3967 12.8075C21.4565 12.8619 21.5603 12.8075 21.5792 12.7225C21.5903 12.6969 21.5967 12.6691 21.5981 12.6409C21.5962 12.579 21.5739 12.5198 21.5351 12.4742C21.527 12.45 21.527 12.4235 21.5351 12.3994C21.6327 12.0593 21.4722 11.7192 21.4848 11.3791C21.4896 11.2873 21.4896 11.1953 21.4848 11.1036C21.4859 10.9892 21.4975 10.8753 21.5194 10.7635C21.5452 10.6454 21.5843 10.5312 21.6358 10.4234C21.6845 10.3263 21.7424 10.2351 21.8088 10.1513C21.8623 10.0764 21.9409 10.0118 21.9472 9.903C21.9622 9.84304 21.9969 9.79103 22.0448 9.75674C22.2421 9.58205 22.4158 9.37827 22.5607 9.15135C22.6897 8.99831 22.6708 9.00512 22.6802 8.9473C22.6769 8.89263 22.6629 8.83932 22.6393 8.79084C22.6393 8.75003 22.4317 8.67521 22.2838 8.71942C22.2083 8.73643 22.0825 8.65821 21.9693 8.6378C21.856 8.61739 21.7931 8.63779 21.7113 8.61058C21.6412 8.5812 21.5738 8.54477 21.51 8.50176C21.4883 8.49024 21.4648 8.4833 21.4408 8.48134C21.3343 8.47192 21.229 8.45142 21.1262 8.42013C20.9895 8.37528 20.8631 8.29997 20.755 8.19906C20.6469 8.10293 20.5544 7.98799 20.4813 7.85895C20.4284 7.75964 20.3696 7.6642 20.3051 7.57326C20.1761 7.3896 20.0503 7.19914 19.9308 7.00868L19.7546 6.7162L19.6665 6.56994C19.6476 6.54273 19.6476 6.53254 19.6319 6.52233C19.5402 6.45089 19.4304 6.4117 19.3173 6.41009C19.2355 6.41009 19.1537 6.38289 19.1978 6.25365C19.2197 6.20115 19.2514 6.15412 19.2909 6.1155C19.3305 6.07687 19.3769 6.04748 19.4274 6.02917C19.5168 5.9992 19.6114 5.9922 19.7037 6.00874C19.796 6.02527 19.8834 6.06488 19.9591 6.1244C19.9984 6.15616 20.0343 6.19268 20.066 6.23324L20.1415 6.32167L20.28 6.48832C20.3747 6.59969 20.4551 6.72439 20.519 6.85904C20.5599 6.94406 20.6512 7.01209 20.6354 7.11752C20.6357 7.12983 20.6384 7.14193 20.6433 7.15306C20.6481 7.16419 20.6551 7.17409 20.6637 7.18214C20.7371 7.25012 20.8045 7.32526 20.8651 7.40661L20.95 7.52564C20.9714 7.55664 20.9945 7.58617 21.0192 7.61407C21.1143 7.7391 21.2466 7.82447 21.3936 7.85555C21.7121 7.90627 22.0273 7.97898 22.3373 8.07322C22.4891 8.05652 22.6424 8.07985 22.784 8.14124C22.866 8.17195 22.9418 8.21928 23.0074 8.28068C23.1144 8.37988 23.195 8.50812 23.2409 8.6522C23.2867 8.79627 23.2963 8.95096 23.2685 9.10034C23.2384 9.23751 23.1779 9.36472 23.0923 9.47106L22.9413 9.67512C22.7368 9.94721 22.5418 10.2295 22.3342 10.4948C22.2423 10.5928 22.1677 10.708 22.114 10.8349C22.0947 10.8929 22.083 10.9536 22.0794 11.0151C22.0778 11.0457 22.0778 11.0764 22.0794 11.107V11.2396L22.1234 12.3042C22.1272 12.3638 22.1356 12.4229 22.1486 12.481C22.1518 12.5104 22.1518 12.5401 22.1486 12.5694C22.1531 12.6124 22.1531 12.6557 22.1486 12.6987C22.1338 12.8262 22.0946 12.9489 22.0333 13.059C21.9721 13.1691 21.8903 13.2642 21.7931 13.3381C21.7012 13.404 21.5957 13.4443 21.486 13.4556C21.3762 13.4669 21.2656 13.4487 21.1639 13.4027C20.9376 13.2673 20.7008 13.1535 20.4561 13.0626L19.7452 12.7939C19.6537 12.7628 19.5571 12.7536 19.462 12.7667C19.4137 12.7715 19.3661 12.7829 19.3205 12.8007L19.1443 12.8687C18.9021 12.964 18.663 13.0592 18.4239 13.1646C18.2792 13.2292 18.1408 13.3041 17.9961 13.3721L17.9426 13.3993L17.8545 13.4299C17.7899 13.4482 17.7231 13.4563 17.6563 13.4537C17.5227 13.4502 17.3932 13.4028 17.2851 13.3177C17.1905 13.2476 17.1102 13.1574 17.0492 13.0524C17.0199 12.9986 17.0009 12.9389 16.9933 12.877C16.9857 12.815 16.9898 12.7521 17.0051 12.6919C17.0144 12.6471 17.0144 12.6006 17.0051 12.5558C16.9909 12.505 16.9825 12.4524 16.98 12.3994C16.98 12.1681 16.9957 11.9368 17.0051 11.7022L17.0272 11.2192V11.1002C17.0287 11.073 17.0287 11.0457 17.0272 11.0185C17.0217 10.9628 17.01 10.908 16.9926 10.8553C16.9485 10.7227 16.8573 10.6648 16.722 10.4982C16.5868 10.3315 16.4735 10.1819 16.3603 10.0186L16.1495 9.69893L16.0457 9.53908L15.9953 9.45746C15.9652 9.41611 15.9389 9.37169 15.9167 9.32481C15.8652 9.22127 15.8347 9.10709 15.8271 8.98982C15.8195 8.87256 15.835 8.75488 15.8727 8.6446C15.9092 8.53719 15.9692 8.44092 16.0475 8.36394C16.1258 8.28697 16.2201 8.23157 16.3225 8.20246L16.4232 8.18206H16.5081L16.6717 8.14804C16.7787 8.12424 16.8888 8.09703 16.9863 8.06302L17.6154 7.87256L17.7727 7.83175C17.8115 7.81885 17.8493 7.80293 17.886 7.78413C17.9609 7.74628 18.029 7.69446 18.0873 7.63107C18.116 7.59697 18.1423 7.56059 18.166 7.52225L18.2572 7.37599L18.4365 7.0733C18.5686 6.84543 18.7475 6.58732 19.0421 6.30911C19.6067 5.77579 19.3107 6.28464 19.3391 6.36967C19.3453 6.38835 19.5255 6.35099 19.5192 6.36967C19.3766 6.62225 19.0768 7.00348 18.9461 7.23656L18.6001 7.77733C18.4711 7.98959 18.2873 8.15632 18.0716 8.25688Z" fill="#1F2227"/>
<path d="M18.0716 8.25688C18.0205 8.28019 17.9679 8.29951 17.9143 8.31469L17.7822 8.35211L17.5242 8.42693L17.0083 8.58679C16.8701 8.60255 16.7379 8.65642 16.6245 8.74323C16.5396 8.80785 16.4861 8.72282 16.442 8.77384C16.4126 8.80938 16.3964 8.8554 16.3964 8.90308C16.3964 8.95077 16.4126 8.99678 16.442 9.03232L16.5175 9.13435L16.678 9.34181L17.3292 10.1275C17.3945 10.209 17.4515 10.2979 17.499 10.3928C17.5477 10.5008 17.5836 10.6151 17.606 10.7329C17.6302 10.8443 17.6418 10.9585 17.6406 11.073C17.6406 11.1784 17.6406 11.2498 17.6406 11.3383C17.6658 11.6307 17.5903 11.8892 17.5934 12.1681C17.5934 12.3144 17.5934 12.464 17.5934 12.6137C17.5877 12.6626 17.5953 12.7122 17.6154 12.7565C17.6335 12.7905 17.6626 12.816 17.6972 12.8279C17.7169 12.833 17.7373 12.833 17.757 12.8279C17.798 12.8158 17.838 12.7999 17.8765 12.7803C17.9784 12.7122 18.0834 12.6498 18.1911 12.5932C18.3044 12.5524 18.4491 12.5388 18.5057 12.413C18.5368 12.406 18.569 12.406 18.6001 12.413C18.7384 12.4145 18.8732 12.3667 18.9839 12.2769C19.0273 12.2409 19.0749 12.2112 19.1254 12.1885C19.1885 12.1621 19.2538 12.1427 19.3205 12.1307C19.5062 12.0919 19.6976 12.0989 19.8804 12.1511C19.9244 12.1623 19.9675 12.1771 20.0094 12.1953L20.1069 12.2327L20.2988 12.3144C20.4876 12.396 20.67 12.5048 20.8588 12.5898C20.9594 12.6307 21.0664 12.6647 21.1734 12.7021C21.2803 12.7395 21.403 12.7905 21.3967 12.8075C21.4565 12.8619 21.5603 12.8075 21.5792 12.7225C21.5903 12.6969 21.5967 12.6691 21.5981 12.6409C21.5962 12.579 21.5739 12.5198 21.5351 12.4742C21.527 12.45 21.527 12.4235 21.5351 12.3994C21.6327 12.0593 21.4722 11.7192 21.4848 11.3791C21.4896 11.2873 21.4896 11.1953 21.4848 11.1036C21.4859 10.9892 21.4975 10.8753 21.5194 10.7635C21.5452 10.6454 21.5843 10.5312 21.6358 10.4234C21.6845 10.3263 21.7424 10.2351 21.8088 10.1513C21.8623 10.0764 21.9409 10.0118 21.9472 9.903C21.9622 9.84304 21.9969 9.79103 22.0448 9.75674C22.2421 9.58205 22.4158 9.37827 22.5607 9.15135C22.6897 8.99831 22.6708 9.00512 22.6802 8.9473C22.6769 8.89263 22.6629 8.83932 22.6393 8.79084C22.6393 8.75003 22.4317 8.67521 22.2838 8.71942C22.2083 8.73643 22.0825 8.65821 21.9693 8.6378C21.856 8.61739 21.7931 8.63779 21.7113 8.61058C21.6412 8.5812 21.5738 8.54477 21.51 8.50176C21.4883 8.49024 21.4648 8.4833 21.4408 8.48134C21.3343 8.47192 21.229 8.45142 21.1262 8.42013C20.9895 8.37528 20.8631 8.29997 20.755 8.19906C20.6469 8.10293 20.5544 7.98799 20.4813 7.85895C20.4284 7.75964 20.3696 7.6642 20.3051 7.57326C20.1761 7.3896 20.0503 7.19914 19.9308 7.00868L19.7546 6.7162L19.6665 6.56994C19.6476 6.54273 19.6476 6.53254 19.6319 6.52233C19.5402 6.45089 19.4304 6.4117 19.3173 6.41009C19.2355 6.41009 19.1537 6.38289 19.1978 6.25365C19.2197 6.20115 19.2514 6.15412 19.2909 6.1155C19.3305 6.07687 19.3769 6.04748 19.4274 6.02917C19.5168 5.9992 19.6114 5.9922 19.7037 6.00874C19.796 6.02527 19.8834 6.06488 19.9591 6.1244C19.9984 6.15616 20.0343 6.19268 20.066 6.23324L20.1415 6.32167L20.28 6.48832C20.3747 6.59969 20.4551 6.72439 20.519 6.85904C20.5599 6.94406 20.6512 7.01209 20.6354 7.11752C20.6357 7.12983 20.6384 7.14193 20.6433 7.15306C20.6481 7.16419 20.6551 7.17409 20.6637 7.18214C20.7371 7.25012 20.8045 7.32526 20.8651 7.40661L20.95 7.52564C20.9714 7.55664 20.9945 7.58617 21.0192 7.61407C21.1143 7.7391 21.2466 7.82447 21.3936 7.85555C21.7121 7.90627 22.0273 7.97898 22.3373 8.07322C22.4891 8.05652 22.6424 8.07985 22.784 8.14124C22.866 8.17195 22.9418 8.21928 23.0074 8.28068C23.1144 8.37988 23.195 8.50812 23.2409 8.6522C23.2867 8.79627 23.2963 8.95096 23.2685 9.10034C23.2384 9.23751 23.1779 9.36472 23.0923 9.47106L22.9413 9.67512C22.7368 9.94721 22.5418 10.2295 22.3342 10.4948C22.2423 10.5928 22.1677 10.708 22.114 10.8349C22.0947 10.8929 22.083 10.9536 22.0794 11.0151C22.0778 11.0457 22.0778 11.0764 22.0794 11.107V11.2396L22.1234 12.3042C22.1272 12.3638 22.1356 12.4229 22.1486 12.481C22.1518 12.5104 22.1518 12.5401 22.1486 12.5694C22.1531 12.6124 22.1531 12.6557 22.1486 12.6987C22.1338 12.8262 22.0946 12.9489 22.0333 13.059C21.9721 13.1691 21.8903 13.2642 21.7931 13.3381C21.7012 13.404 21.5957 13.4443 21.486 13.4556C21.3762 13.4669 21.2656 13.4487 21.1639 13.4027C20.9376 13.2673 20.7008 13.1535 20.4561 13.0626L19.7452 12.7939C19.6537 12.7628 19.5571 12.7536 19.462 12.7667C19.4137 12.7715 19.3661 12.7829 19.3205 12.8007L19.1443 12.8687C18.9021 12.964 18.663 13.0592 18.4239 13.1646C18.2792 13.2292 18.1408 13.3041 17.9961 13.3721L17.9426 13.3993L17.8545 13.4299C17.7899 13.4482 17.7231 13.4563 17.6563 13.4537C17.5227 13.4502 17.3932 13.4028 17.2851 13.3177C17.1905 13.2476 17.1102 13.1574 17.0492 13.0524C17.0199 12.9986 17.0009 12.9389 16.9933 12.877C16.9857 12.815 16.9898 12.7521 17.0051 12.6919C17.0144 12.6471 17.0144 12.6006 17.0051 12.5558C16.9909 12.505 16.9825 12.4524 16.98 12.3994C16.98 12.1681 16.9957 11.9368 17.0051 11.7022L17.0272 11.2192V11.1002C17.0287 11.073 17.0287 11.0457 17.0272 11.0185C17.0217 10.9628 17.01 10.908 16.9926 10.8553C16.9485 10.7227 16.8573 10.6648 16.722 10.4982C16.5868 10.3315 16.4735 10.1819 16.3603 10.0186L16.1495 9.69893L16.0457 9.53908L15.9953 9.45746C15.9652 9.41611 15.9389 9.37169 15.9167 9.32481C15.8652 9.22127 15.8347 9.10709 15.8271 8.98982C15.8195 8.87256 15.835 8.75488 15.8727 8.6446C15.9092 8.53719 15.9692 8.44092 16.0475 8.36394C16.1258 8.28697 16.2201 8.23157 16.3225 8.20246L16.4232 8.18206H16.5081L16.6717 8.14804C16.7787 8.12424 16.8888 8.09703 16.9863 8.06302L17.6154 7.87256L17.7727 7.83175C17.8115 7.81885 17.8493 7.80293 17.886 7.78413C17.9609 7.74628 18.029 7.69446 18.0873 7.63107C18.116 7.59697 18.1423 7.56059 18.166 7.52225L18.2572 7.37599L18.4365 7.0733C18.5686 6.84543 18.7475 6.58732 19.0421 6.30911C19.6067 5.77579 19.3107 6.28464 19.3391 6.36967C19.3453 6.38835 19.5255 6.35099 19.5192 6.36967C19.3766 6.62225 19.0768 7.00348 18.9461 7.23656L18.6001 7.77733C18.4711 7.98959 18.2873 8.15632 18.0716 8.25688Z" stroke="#1F2227" stroke-width="0.66301" mask="url(#path-8-outside-1_7_32219)"/>
</svg>
