<svg width="24" height="24" viewBox="0 0 24 24" fill="none" xmlns="http://www.w3.org/2000/svg">
<path d="M4.21434 8.09826L12 13.9375L19.7857 8.09826C19.9228 8.3692 20 8.67558 20 9V17C20 18.1046 19.1046 19 18 19H6C4.89543 19 4 18.1046 4 17V9C4 8.67558 4.07724 8.3692 4.21434 8.09826Z" fill="#C2B6FF"/>
<path d="M5.38043 7.09782C5.5755 7.03432 5.78374 7 6 7H18C18.2163 7 18.4245 7.03432 18.6196 7.09782L12 12.0625L5.38043 7.09782Z" fill="#C2B6FF"/>
<path d="M18.5303 12.4697C18.2374 12.1768 17.7626 12.1768 17.4697 12.4697C17.1768 12.7626 17.1768 13.2374 17.4697 13.5303L19.1893 15.25H14C13.5858 15.25 13.25 15.5858 13.25 16C13.25 16.4142 13.5858 16.75 14 16.75L19.1893 16.75L17.4697 18.4697C17.1768 18.7626 17.1768 19.2374 17.4697 19.5303C17.7626 19.8232 18.2374 19.8232 18.5303 19.5303L21.5303 16.5303C21.671 16.3897 21.75 16.1989 21.75 16C21.75 15.8011 21.671 15.6103 21.5303 15.4697L18.5303 12.4697Z" fill="#6244FF"/>
</svg>
