<svg width="24" height="24" viewBox="0 0 24 24" fill="none" xmlns="http://www.w3.org/2000/svg">
<circle cx="12" cy="12" r="10" fill="#C2B6FF"/>
<path d="M11.1591 11.359C11.9394 11.3251 12.4938 11.2109 12.8224 11.0162C13.1509 10.8131 13.3152 10.5381 13.3152 10.1911C13.3152 9.89492 13.2166 9.67066 13.0195 9.51834C12.8224 9.35755 12.5431 9.27715 12.1817 9.27715C11.8367 9.27715 11.5123 9.34908 11.2084 9.49295C10.9127 9.63681 10.6211 9.85684 10.3337 10.153L9.2002 8.87095C9.56159 8.46474 9.98459 8.1347 10.4692 7.88082C10.962 7.62694 11.5452 7.5 12.2187 7.5C12.6622 7.5 13.0647 7.55924 13.4261 7.67772C13.7957 7.78773 14.1119 7.95698 14.3747 8.18547C14.6376 8.4055 14.8388 8.68054 14.9784 9.01058C15.1263 9.34062 15.2002 9.71721 15.2002 10.1403C15.2002 10.5465 15.1345 10.8977 15.0031 11.1939C14.8799 11.4817 14.7074 11.7271 14.4856 11.9302C14.2721 12.1333 14.0174 12.2983 13.7218 12.4252C13.4261 12.5437 13.1098 12.6368 12.7731 12.7045L12.6376 13.4788H11.3809L11.0975 11.4224L11.1591 11.359ZM12.9702 16.5H10.9743V14.469H12.9702V16.5Z" fill="#6244FF"/>
</svg>
