<svg width="44" height="45" viewBox="0 0 44 45" fill="none" xmlns="http://www.w3.org/2000/svg">
<path d="M13.2 1.27539H30.8C37.6759 1.27539 43.25 6.84945 43.25 13.7254V31.3254C43.25 38.2013 37.6759 43.7754 30.8 43.7754H13.2C6.32405 43.7754 0.75 38.2013 0.75 31.3254V13.7254C0.75 6.84945 6.32405 1.27539 13.2 1.27539Z" fill="#FFEBEE" stroke="#FDD8DE" stroke-width="1.5"/>
<path d="M13.442 13.747C13.7378 14.4589 14.4497 15.9381 15.4112 16.234C15.439 16.2412 15.4681 16.2418 15.4962 16.2358C15.5243 16.2298 15.5506 16.2173 15.573 16.1994C15.5954 16.1814 15.6134 16.1585 15.6254 16.1324C15.6374 16.1063 15.6432 16.0778 15.6423 16.0491C15.6316 14.5995 15.9811 13.17 16.6592 11.8888C17.9445 9.72103 20.0183 8.13424 22.4467 7.46041C22.4762 7.45352 22.5069 7.4533 22.5365 7.45979C22.5661 7.46628 22.5939 7.47933 22.6178 7.49794C22.6417 7.51655 22.6612 7.54027 22.6748 7.56737C22.6883 7.59447 22.6957 7.62424 22.6963 7.65455C22.6963 8.3202 22.9644 10.1692 23.9813 10.9181C26.9398 13.0999 27.6146 14.4682 27.6794 15.1615C27.6794 15.3464 27.9752 15.5776 28.1416 15.4759C29.0289 14.8673 29.7146 14.0078 30.1108 13.0075C30.1244 12.9746 30.1459 12.9457 30.1735 12.9233C30.2011 12.901 30.2339 12.8859 30.2688 12.8794C30.3038 12.873 30.3398 12.8754 30.3735 12.8865C30.4073 12.8976 30.4378 12.9169 30.4621 12.9427C31.4883 14.1908 35.5839 19.5899 34.8998 25.7009C34.1417 32.3944 29.1493 37.3497 22.3265 37.3589C19.1169 37.4098 16.0095 36.2302 13.6422 34.0623C11.2749 31.8944 9.82709 28.9026 9.59602 25.7009C9.14301 20.7641 12.2216 15.1985 13.0722 13.7563C13.0875 13.7205 13.1128 13.6898 13.145 13.6679C13.1773 13.6461 13.2151 13.6339 13.2541 13.6329C13.2931 13.6319 13.3315 13.6422 13.3648 13.6624C13.3981 13.6827 13.4249 13.712 13.442 13.747Z" fill="#DD4863"/>
<path d="M10.7146 21.3283C10.357 22.7314 10.2352 24.1842 10.3541 25.6273C10.3506 26.1842 10.484 26.7334 10.7424 27.2267C10.8995 27.4671 10.7424 28.031 10.955 28.5025C11.3945 29.7722 12.0377 30.9619 12.8595 32.0249C13.6846 33.0288 14.6797 33.88 15.7994 34.5395C16.8588 35.2542 18.0499 35.7508 19.3033 36.0002C20.2952 36.2191 21.3031 36.3582 22.3172 36.4163C23.4026 36.3321 24.4827 36.1902 25.5529 35.991C25.9412 35.9263 26.311 35.8153 26.6901 35.7229C27.0434 35.5983 27.3891 35.4532 27.7255 35.2884C28.1231 35.011 28.4744 34.7244 28.8904 34.3639C29.0846 34.2252 29.3157 34.105 29.5098 33.9478C29.7011 33.799 29.8482 33.6009 29.9351 33.3746C29.9351 33.3284 30.1477 33.236 30.2402 33.1713C30.7185 32.9176 31.1014 32.5152 31.3311 32.0249C31.5118 31.6669 31.7156 31.321 31.9413 30.9894C32.5023 30.0676 32.9552 29.0842 33.2911 28.0587C33.5755 27.2895 33.7951 26.4978 33.9475 25.692C33.9954 25.2622 34.0201 24.8301 34.0214 24.3977C34.0214 23.9724 34.0214 23.5471 34.0214 23.1496C34.0569 22.3625 33.96 21.575 33.7348 20.8199C33.7088 20.3572 33.5262 19.917 33.2171 19.5718C33.1695 19.4891 33.1381 19.3981 33.1246 19.3037C32.986 17.9724 32.0245 16.9924 31.4236 15.846C31.2756 15.5502 31.0907 15.2636 30.9151 14.9677L30.6285 14.5517L30.5638 14.45V14.4038C30.5261 14.3614 30.4859 14.3213 30.4436 14.2836C30.3696 14.2836 30.3789 14.3853 30.3511 14.4223C30.3511 14.4223 30.3511 14.4223 30.2679 14.5332C30.1429 14.7352 30.0376 14.9489 29.9536 15.1711C29.7208 15.5464 29.4044 15.8628 29.0291 16.0956C28.8206 16.2125 28.5914 16.2878 28.3542 16.3175C28.1322 16.3472 27.9064 16.3085 27.707 16.2066C27.518 16.1175 27.3531 15.9844 27.2263 15.8183C27.0549 15.6084 26.9346 15.3615 26.875 15.0972C26.8014 14.839 26.679 14.5973 26.5144 14.3853L26.1631 13.9045C25.479 12.98 24.4805 12.3514 23.6392 11.4731C23.3512 11.2005 23.1023 10.8894 22.8996 10.5486C22.6777 10.2158 22.4836 9.87368 22.2617 9.55935C22.1375 9.35676 22.0587 9.12967 22.0306 8.8937V8.69031C22.0306 8.62559 22.0306 8.69031 22.0306 8.63484C22.0306 8.57937 22.0306 8.58862 22.0306 8.57937C22.0306 8.57013 21.9011 8.62562 21.8919 8.65335C21.8966 8.63516 21.8966 8.61607 21.8919 8.59788C21.8919 8.59788 21.8919 8.59788 21.781 8.59788C21.6904 8.61552 21.6051 8.65345 21.5313 8.70882C20.8287 9.17107 20.1353 9.56859 19.4789 10.0493C18.808 10.5059 18.2435 11.1019 17.8241 11.7967C17.4 12.4957 17.0881 13.2569 16.8996 14.0525L16.8256 14.3853C16.8256 14.5979 16.7609 14.8105 16.7239 15.0232V15.7073V16.0401L16.6315 16.2898C16.5425 16.4895 16.4135 16.6688 16.2524 16.8167C16.1564 16.9034 16.0378 16.9611 15.9103 16.9831C15.7762 17.0108 15.6377 17.0108 15.5036 16.9831C15.4209 16.9779 15.3397 16.9592 15.2632 16.9277C14.6152 16.6301 14.0873 16.1217 13.7655 15.4854C13.473 15.0374 13.3485 14.5003 13.4142 13.9693C13.4789 13.5995 13.6823 13.5255 13.9689 13.8583L14.5421 14.4962C14.6756 14.6821 14.8536 14.8315 15.0598 14.9307H15.1985C15.1985 14.9307 15.3279 14.9308 15.3464 14.8383C15.3509 14.7521 15.3509 14.6657 15.3464 14.5794V14.1634C15.3617 13.6564 15.4846 13.1585 15.7069 12.7027C15.8641 12.3236 15.9566 11.8336 16.2986 11.621C16.3677 11.5512 16.424 11.4698 16.465 11.3806C17.0382 9.67954 18.6099 8.50541 20.0984 7.6826C20.4219 7.4977 20.7455 7.31281 21.0691 7.1464L21.3187 7.01696L21.7255 6.8413C21.9969 6.72108 22.2784 6.62517 22.5668 6.5547C22.808 6.49977 23.0604 6.52243 23.2879 6.61942C23.4947 6.73654 23.6571 6.91848 23.7502 7.13715C23.8433 7.43734 23.8992 7.74783 23.9166 8.06165L24.009 8.67183C24.2032 8.96767 24.3696 9.27277 24.5175 9.52239C24.6654 9.77201 24.6562 9.75349 24.7209 9.84594C24.7994 9.95402 24.8928 10.0505 24.9982 10.1326C25.6361 10.715 26.2741 11.2882 26.8473 11.9076C27.1744 12.2223 27.4831 12.5557 27.7718 12.9061C27.9104 13.0817 28.0584 13.2759 28.1878 13.47L28.3819 13.7843L28.4466 13.9045C28.4466 13.9045 28.4466 14.0062 28.5021 14.0432C28.5576 14.0802 28.5946 14.0432 28.6315 14.0432L28.724 13.9415L28.8812 13.7381L28.9829 13.5902V13.5162L29.0753 13.3591C29.2084 13.1317 29.3287 12.8971 29.4359 12.6565C30.0183 11.6395 30.8504 11.6025 31.5992 12.6565L32.1354 13.3776L32.459 13.8491C32.6624 14.1264 32.8381 14.4223 33.0322 14.7181C33.7645 15.8893 34.3837 17.1276 34.8812 18.4161C35.1228 18.8627 35.2972 19.3424 35.3989 19.8399C35.4452 20.4038 35.704 21.0695 35.8057 21.6889C35.9383 22.2681 36.0034 22.8606 35.9999 23.4547C35.9443 25.7815 35.452 28.0771 34.5484 30.2221C33.5602 32.3275 32.0715 34.1589 30.2125 35.5565C29.1027 36.4602 27.8233 37.1329 26.4497 37.5349C25.8646 37.7742 25.2297 37.8662 24.6007 37.803C24.425 37.7568 23.8888 38.0434 23.4913 38.0526C22.5206 38.136 21.5435 38.108 20.5791 37.9694C19.2277 37.7959 17.9097 37.422 16.6684 36.86C15.8902 36.5588 15.1439 36.1809 14.4404 35.7321C13.7024 35.2451 13.0311 34.6639 12.4434 34.0033C11.7129 33.1602 11.0917 32.2283 10.5944 31.2298C10.008 30.247 9.58342 29.1763 9.3371 28.0587C8.94035 26.0885 8.89341 24.0637 9.19842 22.0772C9.57684 20.1733 10.1532 18.3142 10.918 16.5301C11.3758 15.5733 11.8946 14.6469 12.4712 13.7566C12.5438 13.6437 12.6381 13.5463 12.7485 13.47L12.841 13.4053H12.8872L12.9797 13.3128C13.0422 13.2691 13.1144 13.2412 13.1901 13.2316C13.2658 13.2219 13.3427 13.2308 13.4142 13.2574C13.6361 13.3498 13.8882 13.7936 13.8327 13.8583C13.788 13.9119 13.8029 14.0958 13.7342 14.1079L13.5159 13.7843V13.8306V13.923V14.3349L13.1738 15.0047C13.0212 15.5148 12.8295 16.0124 12.6006 16.4931C11.7875 18.0267 11.1546 19.6492 10.7146 21.3283Z" fill="#1F2227"/>
<path d="M14.717 21.3837C16.64 17.094 22.2055 17.1494 22.261 17.1494C22.3164 17.1494 27.882 17.094 29.8049 21.3837C30.9649 23.8325 31.1885 26.6211 30.4336 29.2235C30.4133 29.2657 30.3812 29.301 30.3411 29.3252L27.4474 31.1742C27.4107 31.1956 27.3816 31.2279 27.3642 31.2667L26.4952 33.2359C26.4771 33.2772 26.4474 33.3124 26.4096 33.337C26.3718 33.3616 26.3277 33.3747 26.2826 33.3745H25.1547C25.1075 33.3734 25.0616 33.3589 25.0223 33.3327C24.983 33.3065 24.952 33.2697 24.9328 33.2266L24.2764 31.8398C24.2598 31.7968 24.2306 31.7597 24.1927 31.7333C24.1548 31.7069 24.1099 31.6925 24.0637 31.6919H23.7494C23.6978 31.6908 23.6473 31.7077 23.6068 31.7398C23.5663 31.7719 23.5383 31.817 23.5275 31.8676L22.9358 33.7166C22.9218 33.7646 22.8926 33.8068 22.8526 33.8368C22.8126 33.8668 22.764 33.883 22.714 33.883H21.9189C21.876 33.8833 21.8342 33.87 21.7993 33.8451C21.7645 33.8202 21.7384 33.7849 21.7247 33.7443L21.0498 31.8214C21.0362 31.7807 21.0101 31.7455 20.9752 31.7206C20.9404 31.6957 20.8985 31.6824 20.8557 31.6827H20.4767C20.4375 31.6828 20.3993 31.6942 20.3665 31.7155C20.3337 31.7368 20.3078 31.7672 20.2918 31.8029L19.5891 33.2451C19.5722 33.2801 19.5461 33.3098 19.5135 33.331C19.4809 33.3522 19.4431 33.3641 19.4042 33.3653H18.2209C18.1815 33.3664 18.1427 33.3554 18.1097 33.334C18.0767 33.3125 18.0509 33.2815 18.036 33.2451L17.1115 31.2574C17.1062 31.2377 17.0969 31.2194 17.0841 31.2035C17.0714 31.1875 17.0555 31.1745 17.0375 31.165L14.1345 29.316C14.0972 29.2912 14.0682 29.2558 14.0513 29.2142C13.3051 26.6108 13.542 23.8238 14.717 21.3837Z" fill="white"/>
<path d="M14.4028 26.6257C14.4215 27.075 14.4678 27.5226 14.5414 27.9662C14.5414 28.1788 14.6246 28.4007 14.6801 28.6134C14.7356 28.826 14.6801 28.7151 14.6801 28.7613C14.6801 28.8075 14.7263 28.8168 14.7541 28.8352L14.8835 28.9277L15.1146 29.0756C15.272 29.1873 15.4581 29.2515 15.6508 29.2605C15.8635 29.2605 16.0206 29.6673 16.3072 29.843L16.9821 30.259L17.3797 30.5086C17.4583 30.5843 17.5324 30.6646 17.6016 30.749L17.657 30.8044L17.7402 30.9431L18.2395 32.0618L18.4798 32.4223L18.5353 32.5055C18.5389 32.5196 18.5458 32.5327 18.5554 32.5437C18.565 32.5546 18.577 32.5631 18.5905 32.5685C18.6041 32.5739 18.6187 32.576 18.6332 32.5747C18.6477 32.5734 18.6616 32.5687 18.674 32.561H18.7479C18.7479 32.561 18.8219 32.561 18.8496 32.561C18.8496 32.561 18.9236 32.561 18.9328 32.4963L18.9976 32.4131L19.3211 31.9786L19.959 31.1373C20.0145 31.0818 20.07 30.9709 20.1162 30.9616H20.3011C20.4427 30.9524 20.5848 30.9524 20.7264 30.9616C20.8636 30.9335 21.0052 30.9335 21.1424 30.9616C21.2626 30.9616 21.2903 31.128 21.3643 31.2205C21.6154 31.6459 21.8377 32.0875 22.0299 32.5425L22.3258 33.2082L22.4737 33.5318L21.845 33.7536V33.0695H22.0022H22.0484C22.0484 33.0695 22.0484 33.0695 22.1039 33.0048V32.9123L22.2611 32.5518L22.5846 31.8306C22.6553 31.6304 22.7726 31.4498 22.9267 31.3037C23.0342 31.2177 23.1563 31.1519 23.2873 31.1095C23.3917 31.0981 23.4971 31.0981 23.6016 31.1095H23.9252C24.0626 31.1126 24.198 31.1441 24.3227 31.202C24.5523 31.3077 24.7338 31.4958 24.8312 31.729V31.6735C25.0053 31.8854 25.1571 32.1146 25.2842 32.3576C25.318 32.4217 25.3429 32.4902 25.3582 32.561C25.3582 32.561 25.4229 32.561 25.4968 32.4593C25.4937 32.4777 25.4937 32.4964 25.4968 32.5148C25.4917 32.5454 25.4917 32.5766 25.4968 32.6072C25.6263 32.6072 25.5616 32.6072 25.6078 32.6072C25.654 32.6072 25.6817 32.6072 25.654 32.5148L25.6078 32.4316L25.6817 32.2374L26.0053 31.4793L26.2087 31.0078C26.2846 30.9004 26.368 30.7984 26.4583 30.7028C26.4583 30.638 26.5693 30.6196 26.5693 30.5271L26.7264 30.3977L27.3181 30.0371C27.7896 29.7505 28.3073 29.5379 28.7881 29.2605C28.9175 29.1865 29.0377 29.1034 29.1579 29.0202L29.3428 28.8907L29.5739 28.7243C29.5739 28.7243 29.5739 28.7243 29.6664 28.5671C29.8791 28.1312 29.9987 27.6558 30.0177 27.1711C30.0177 26.8938 30.1656 26.561 29.916 26.3391C29.916 26.3391 29.916 26.2097 29.916 26.1634C30.2303 25.3591 29.7033 24.6102 29.6016 23.8337C29.4611 23.0164 29.1762 22.2306 28.7603 21.5132C28.6679 21.3375 28.6309 21.0879 28.3536 21.0509C28.2611 21.0509 28.1409 20.866 28.1132 20.7551C27.9468 20.1634 27.3921 19.8306 26.9206 19.4792C26.4491 19.1279 25.691 18.8598 25.0716 18.4623C24.9181 18.3494 24.74 18.2745 24.5519 18.244C24.3638 18.2135 24.1712 18.2281 23.9899 18.2866C23.805 18.3606 23.4814 18.1849 23.2133 18.1757C22.9452 18.1664 22.7788 18.2589 22.5754 18.2497C22.4487 18.23 22.3246 18.1958 22.2056 18.148H22.0762C22.0184 18.1342 21.9583 18.1342 21.9005 18.148C20.9113 18.4715 19.8111 18.3421 18.8496 18.7859C17.9453 19.1841 17.1141 19.7309 16.3904 20.4038C16.2104 20.6115 16.0158 20.8062 15.808 20.9862C15.6068 21.1858 15.3589 21.332 15.0869 21.4115C14.8095 21.4854 14.6062 21.4115 14.6246 21.0971C14.6374 20.8588 14.6905 20.6243 14.7818 20.4038C14.9598 20.0531 15.1638 19.7163 15.392 19.396C15.8399 18.6856 16.4814 18.1179 17.241 17.7597C17.4814 17.658 17.694 17.4083 17.9806 17.51C18.0429 17.5172 18.1056 17.5007 18.1563 17.4638C19.0994 16.8656 20.192 16.5452 21.3088 16.5393C21.6509 16.5393 21.956 16.4284 22.3258 16.3914C22.9427 16.3017 23.5714 16.3363 24.1748 16.4931C24.75 16.3847 25.345 16.4899 25.8482 16.7889C26.7307 17.1935 27.5754 17.6762 28.3721 18.2312C29.1474 18.8164 29.7927 19.5562 30.2673 20.4038C31.1692 22.1178 31.6688 24.0148 31.728 25.9508C31.7981 26.2737 31.7981 26.6079 31.728 26.9308C31.6521 27.3401 31.6027 27.7539 31.5801 28.1696C31.5801 28.3637 31.5246 28.5579 31.4784 28.752C31.4322 28.9462 31.4784 28.9462 31.4137 29.0386L31.3675 29.1866L31.2842 29.39C31.2041 29.6451 31.0373 29.8642 30.8127 30.0094C30.7018 30.0833 30.5724 30.1481 30.4707 30.2035L30.2673 30.3052C29.9899 30.4531 29.7311 30.6103 29.4722 30.7675L28.0115 31.692C27.956 31.692 27.9375 31.7752 27.9098 31.8122L27.1609 33.4578C27.0948 33.6068 27.0006 33.7417 26.8836 33.8553C26.764 33.9691 26.6123 34.0433 26.4491 34.068C26.1166 34.0907 25.783 34.0907 25.4506 34.068C25.1255 34.114 24.795 34.0346 24.5261 33.8461C24.3175 33.5912 24.1463 33.3079 24.0176 33.0048C23.8697 32.7274 23.7125 32.4593 23.5554 32.182L24.0823 31.9139V32.5148H23.7495V31.8954C24.0269 31.9693 23.1301 31.7105 24.3689 32.071V32.145L24.3042 32.3391C24.3042 32.4593 24.221 32.5888 24.1748 32.7182C24.0887 33.1102 23.952 33.4894 23.768 33.8461C23.7281 33.9147 23.6747 33.9745 23.6108 34.0217C23.5461 34.0772 23.5091 34.2344 23.3705 34.3915C23.3037 34.4723 23.2206 34.538 23.1266 34.5842C23.0325 34.6304 22.9297 34.6562 22.825 34.6597C22.5844 34.7053 22.3394 34.7239 22.0947 34.7151H21.8728L21.5954 34.6597C21.4114 34.5973 21.2483 34.4853 21.1239 34.3361C21.0297 34.2328 20.9602 34.1095 20.9205 33.9755L20.8188 33.6796L20.6802 33.2636C20.6802 33.2636 20.6062 33.2636 20.5692 33.2636C20.5866 33.2408 20.6087 33.2219 20.6339 33.2082C20.6339 33.2082 20.6339 33.2082 20.6339 33.2636L20.4675 33.6704C20.4075 33.8237 20.3154 33.9624 20.1974 34.0772C20.0794 34.192 19.9383 34.2802 19.7834 34.3361C19.5495 34.4041 19.3051 34.4291 19.0623 34.41H18.3874C18.1489 34.4282 17.9098 34.3836 17.694 34.2806C17.4856 34.1835 17.3116 34.0256 17.1948 33.8276C17.1208 33.6934 17.0559 33.5545 17.0006 33.4116L16.8712 33.0602L16.714 32.6165L16.4459 31.8399L16.3442 31.7752L15.9005 31.5163C15.6119 31.3467 15.3368 31.155 15.0776 30.9431C14.902 30.7767 14.7171 30.6288 14.5322 30.4809L14.2363 30.2775L13.8573 30.0094C13.7312 29.9285 13.6227 29.8229 13.5385 29.6989C13.4543 29.575 13.3961 29.4353 13.3673 29.2882C13.3673 29.1218 13.3026 29.0386 13.2749 28.9462L13.2009 28.6504C13.1161 28.2723 13.0543 27.8895 13.016 27.504C12.9199 26.2366 12.9914 24.9621 13.2286 23.7135C13.412 23.0502 13.6661 22.4086 13.9867 21.7998C14.1069 21.4854 15.0946 20.1234 15.2056 20.3267C15.2161 20.3755 15.9151 20.6393 15.9046 20.6881C15.5048 21.3417 14.8316 22.9891 14.7171 23.6303C14.4606 24.6069 14.3546 25.617 14.4028 26.6257Z" fill="#1F2227"/>
<path d="M19.7832 24.0435C19.6873 23.9578 19.6341 23.9087 19.5382 23.8528C19.4423 23.7969 19.0694 23.7914 19.0694 23.7914C19.0429 23.7662 19.0097 23.7485 18.9735 23.7402H18.8669C18.6188 23.8005 18.398 23.9371 18.2383 24.1292C18.1405 24.2687 18.0717 24.4252 18.0359 24.5899C17.9939 24.777 17.9406 24.9616 17.8761 25.1426C17.8551 25.2543 17.8551 25.3687 17.8761 25.4804C17.8867 25.5791 17.8867 25.6786 17.8761 25.7773V26.3915C17.8866 26.5055 17.9191 26.6166 17.972 26.7191C18.0146 26.8112 18.0678 26.7191 18.1318 26.8112C18.1787 26.9198 18.232 27.0258 18.2916 27.1285C18.3239 27.1991 18.367 27.2646 18.4194 27.323C18.4834 27.3333 18.4834 27.1797 18.4834 27.2616C18.4727 27.5482 18.494 27.3537 18.558 27.4868C18.6219 27.6199 18.6965 27.5585 18.771 27.5585C18.8647 27.5889 18.9541 27.6302 19.0374 27.6813C19.0937 27.6918 19.1516 27.6918 19.2079 27.6813C19.4529 27.7018 19.6341 27.5278 19.7086 27.5482C19.7832 27.5687 19.7513 27.497 19.7832 27.4663C19.8152 27.4356 19.8791 27.3128 19.8791 27.3742V27.2514C19.9977 26.9934 20.0801 26.7215 20.1242 26.4427C20.2094 26.1356 20.1976 25.8373 20.1976 25.4052C20.1976 24.9732 20.0283 24.4432 20.0283 24.4432C19.9857 24.3204 19.8791 24.1292 19.7832 24.0435Z" fill="#1F2227"/>
<path d="M26.2227 24.0435C26.1268 23.9578 26.0735 23.9087 25.9776 23.8528C25.8817 23.7969 25.5088 23.7914 25.5088 23.7914C25.4824 23.7662 25.4492 23.7485 25.4129 23.7402H25.3064C25.0583 23.8005 24.8375 23.9371 24.6778 24.1292C24.5799 24.2687 24.5112 24.4252 24.4753 24.5899C24.4334 24.777 24.38 24.9616 24.3155 25.1426C24.2946 25.2543 24.2946 25.3687 24.3155 25.4804C24.3261 25.5791 24.3261 25.6786 24.3155 25.7773V26.3915C24.326 26.5055 24.3586 26.6166 24.4114 26.7191C24.454 26.8112 24.5073 26.7191 24.5712 26.8112C24.6181 26.9198 24.6715 27.0258 24.731 27.1285C24.7634 27.1991 24.8065 27.2646 24.8589 27.323C24.9228 27.3333 24.9228 27.1797 24.9228 27.2616C24.9122 27.5482 24.9335 27.3537 24.9974 27.4868C25.0613 27.6199 25.1359 27.5585 25.2105 27.5585C25.3041 27.5889 25.3935 27.6302 25.4769 27.6813C25.5332 27.6918 25.591 27.6918 25.6473 27.6813C25.8924 27.7018 26.0735 27.5278 26.1481 27.5482C26.2227 27.5687 26.1907 27.497 26.2227 27.4663C26.2546 27.4356 26.3186 27.3128 26.3186 27.3742V27.2514C26.4372 26.9934 26.5196 26.7215 26.5636 26.4427C26.6488 26.1356 26.6371 25.8373 26.6371 25.4052C26.6371 24.9732 26.4678 24.4432 26.4678 24.4432C26.4251 24.3204 26.3186 24.1292 26.2227 24.0435Z" fill="#1F2227"/>
<path d="M21.584 26.6683C21.4884 26.6683 21.3421 27.0734 21.3421 27.1127C21.314 27.1577 21.1846 27.1183 21.1565 27.2252C21.1284 27.3321 21.089 27.4277 21.0327 27.5346C20.9765 27.6415 21.0215 27.7934 20.9765 27.8721C20.9315 27.9509 21.0102 28.0015 21.0384 28.0578C21.0665 28.114 21.0665 28.1871 21.0665 28.2434C21.0744 28.2638 21.0865 28.2824 21.102 28.2979C21.1175 28.3134 21.1361 28.3255 21.1565 28.3334C21.2071 28.3334 21.2634 28.3109 21.3421 28.3334C21.4209 28.3559 21.4884 28.4234 21.5896 28.4234C21.6677 28.438 21.7478 28.438 21.8259 28.4234C21.8653 28.4234 21.9496 28.3165 21.9496 28.3559C21.9553 28.4965 21.9665 28.3953 22.0903 28.429C22.214 28.4628 22.4193 28.4684 22.5149 28.429C22.6756 28.3765 22.9867 28.4017 23.1201 28.2979C23.2494 28.1685 23.1525 27.9633 23.0888 27.6409C23.1282 27.6015 23.0888 27.5565 23.0888 27.5059C23.0888 27.4553 23.0382 27.4159 23.0888 27.354C23.1394 27.2921 23.0269 27.2753 23.0269 27.2415C22.9064 27.0225 22.7686 26.8689 22.6194 26.6683C22.4563 26.4771 22.3772 26.4883 22.2422 26.2802C22.2028 26.2183 22.1015 26.1902 22.1015 26.3421C22.0003 26.2746 21.9609 26.4321 21.8765 26.4658C21.7921 26.4996 21.6346 26.4433 21.6684 26.6683C21.584 26.5952 21.6796 26.6683 21.584 26.6683Z" fill="#1F2227"/>
</svg>
