<svg width="44" height="45" viewBox="0 0 44 45" fill="none" xmlns="http://www.w3.org/2000/svg">
<path d="M13.2 1.27539H30.8C37.676 1.27539 43.25 6.84944 43.25 13.7254V31.3254C43.25 38.2013 37.676 43.7754 30.8 43.7754H13.2C6.32407 43.7754 0.75 38.2013 0.75 31.3254V13.7254C0.75 6.84945 6.32407 1.27539 13.2 1.27539Z" fill="#FFF1CE" stroke="#FAE2A7" stroke-width="1.5"/>
<path d="M21.9998 34.9292C28.8509 34.9292 34.4048 29.3753 34.4048 22.5242C34.4048 15.6731 28.8509 10.1191 21.9998 10.1191C15.1486 10.1191 9.59473 15.6731 9.59473 22.5242C9.59473 29.3753 15.1486 34.9292 21.9998 34.9292Z" fill="#FFB800"/>
<path d="M15.8673 12.8236C14.885 13.4585 14.0042 14.238 13.2545 15.1358C13.0117 15.4826 12.6186 15.7601 12.5955 16.2919C12.5955 16.5578 12.0984 16.7427 11.9249 17.1011C11.4283 18.0736 11.0629 19.1078 10.8382 20.1764C10.6937 21.2196 10.6937 22.2778 10.8382 23.321C10.8539 24.3608 11.0904 25.3854 11.5319 26.3269C11.8248 27.0909 12.1725 27.8327 12.5724 28.5466C12.8152 28.9166 13.1389 29.2287 13.3932 29.5871C13.6476 29.9455 13.9481 30.2692 14.2256 30.5929C14.5031 30.9166 14.6302 31.09 14.8499 31.3213C15.0812 31.5328 15.3286 31.7261 15.5898 31.8993C15.9366 32.0959 16.3413 32.1305 16.7459 32.3618C17.1506 32.593 17.4396 32.8704 17.902 32.7201C17.902 32.7201 18.087 32.8127 18.1564 32.882C18.302 33.0397 18.4822 33.1614 18.6828 33.2376C18.8834 33.3139 19.0989 33.3425 19.3125 33.3213C19.6342 33.3171 19.9556 33.3441 20.272 33.4022C20.7 33.4746 21.1329 33.5133 21.5669 33.5179C22.0019 33.5468 22.4383 33.5468 22.8733 33.5179C23.197 33.5179 23.5207 33.5179 23.8444 33.5179C24.1748 33.5184 24.5042 33.4835 24.8271 33.4138C25.5092 33.2866 26.1451 32.9051 26.7809 32.778C27.4019 32.6335 27.9876 32.3662 28.5035 31.9918C28.7926 31.7837 29.2203 31.6334 29.255 31.2172C29.2989 31.153 29.3586 31.1012 29.4284 31.0669C30.492 30.7085 30.7695 29.564 31.4285 28.8125C32.0788 27.9549 32.5613 26.9821 32.8505 25.9454C32.9256 25.8153 32.9727 25.671 32.9886 25.5216C33.0045 25.3723 32.989 25.2213 32.943 25.0783C32.8852 24.9742 32.943 24.6968 33.0239 24.558C33.3621 23.8087 33.4861 22.9804 33.3823 22.1649C33.3823 21.2284 33.1511 20.3383 33.1164 19.3671C33.1246 19.1216 33.0769 18.8774 32.9767 18.653C32.8766 18.4287 32.7266 18.2301 32.5383 18.0723C32.3187 17.9336 32.2493 17.4711 32.0759 17.1705C31.9025 16.8699 31.6481 16.789 31.5094 16.5578C31.3707 16.3266 31.3591 16.0953 31.2551 15.8757C31.2223 15.8049 31.1751 15.7419 31.1163 15.6907C30.0643 14.8352 29.3822 13.6097 28.1567 12.9392C26.9584 12.2606 25.6755 11.7435 24.3415 11.4015C23.9663 11.3382 23.5984 11.2376 23.2432 11.101C22.8822 10.9884 22.5558 10.7854 22.2952 10.5113C22.0524 10.2454 22.0409 9.96798 22.4108 9.82924C22.6952 9.70083 23.001 9.62634 23.3126 9.60958C23.8097 9.60958 24.3069 9.60957 24.804 9.66737C25.8525 9.69877 26.8802 9.96756 27.8099 10.4535C28.0873 10.6385 28.5266 10.6616 28.6307 11.0431C28.6701 11.1157 28.7366 11.1698 28.8157 11.1934C30.1818 11.727 31.3629 12.647 32.2146 13.8409C33.1349 14.683 33.871 15.7064 34.3766 16.8468C34.6675 17.102 34.8867 17.4288 35.0124 17.7948C35.16 18.1447 35.2536 18.5151 35.2899 18.8931C35.7612 21.3457 35.6862 23.8719 35.0702 26.2922C34.3309 28.7144 32.939 30.8864 31.047 32.5698C30.7816 32.9208 30.4421 33.209 30.0527 33.4138C29.5707 33.6702 29.1071 33.96 28.6654 34.2809C28.2341 34.5431 27.777 34.76 27.3012 34.9283C25.4248 35.484 23.4776 35.7644 21.5206 35.7607C19.5568 35.6296 17.637 35.1192 15.8673 34.2578C14.7662 33.7915 13.7563 33.1339 12.8845 32.3155C12.4393 32.0149 12.0997 31.5823 11.9134 31.0785C11.9134 30.9398 11.4278 30.6854 11.2082 30.4311C10.9467 30.1095 10.7145 29.7651 10.5145 29.4021C10.2924 29.0563 10.0991 28.6928 9.93645 28.3154C9.44521 27.2789 9.07661 26.1887 8.83815 25.0667C8.65008 24.3884 8.5148 23.6965 8.43351 22.9973C8.39586 22.6128 8.39586 22.2256 8.43351 21.8412C8.44095 21.4533 8.47961 21.0667 8.54912 20.6851C8.71752 19.7662 8.98099 18.8673 9.33527 18.0029C9.60464 17.0799 10.0267 16.2084 10.5839 15.4248C11.5824 14.0666 12.7477 12.8392 14.0522 11.7715C15.407 10.7876 16.9147 10.0337 18.5148 9.54022C19.4027 9.34538 20.3117 9.26377 21.22 9.29741C24.2129 9.62229 22.682 10.0089 22.5202 10.2632C22.4803 10.321 23.7465 11.0181 23.6809 11.0431C22.8666 11.1491 20.3644 10.9746 19.5784 11.2165C18.2472 11.5014 16.9858 12.0477 15.8673 12.8236Z" fill="#1F2227"/>
<path d="M18.7891 20.881C18.7011 20.8023 18.6522 20.7573 18.5641 20.7059C18.476 20.6546 18.1336 20.6495 18.1336 20.6495C18.1093 20.6264 18.0789 20.6101 18.0456 20.6025H17.9477C17.7199 20.6579 17.5172 20.7833 17.3705 20.9597C17.2806 21.0879 17.2175 21.2315 17.1846 21.3827C17.1461 21.5545 17.0971 21.724 17.0379 21.8903C17.0186 21.9929 17.0186 22.0979 17.0379 22.2005C17.0476 22.2911 17.0476 22.3825 17.0379 22.4731V23.0371C17.0475 23.1417 17.0774 23.2438 17.1259 23.3379C17.1651 23.4225 17.214 23.3379 17.2727 23.4225C17.3157 23.5222 17.3647 23.6195 17.4194 23.7139C17.4491 23.7787 17.4887 23.8389 17.5368 23.8925C17.5955 23.9019 17.5955 23.7609 17.5955 23.8361C17.5858 24.0993 17.6053 23.9207 17.664 24.0429C17.7227 24.1651 17.7912 24.1087 17.8597 24.1087C17.9457 24.1366 18.0278 24.1745 18.1043 24.2215C18.156 24.2311 18.2091 24.2311 18.2608 24.2215C18.4858 24.2403 18.6522 24.0805 18.7206 24.0993C18.7891 24.1181 18.7598 24.0523 18.7891 24.0241C18.8185 23.9959 18.8772 23.8831 18.8772 23.9395V23.8267C18.9861 23.5898 19.0618 23.3401 19.1022 23.0841C19.1805 22.8021 19.1697 22.5282 19.1697 22.1314C19.1697 21.7347 19.0142 21.248 19.0142 21.248C18.9751 21.1352 18.8772 20.9597 18.7891 20.881Z" fill="#1F2227"/>
<path d="M26.5958 20.757C26.5077 20.6783 26.4588 20.6332 26.3707 20.5819C26.2827 20.5306 25.9403 20.5255 25.9403 20.5255C25.916 20.5023 25.8855 20.4861 25.8522 20.4785H25.7544C25.5265 20.5338 25.3238 20.6593 25.1772 20.8357C25.0873 20.9638 25.0242 21.1075 24.9913 21.2587C24.9527 21.4305 24.9037 21.6 24.8445 21.7663C24.8253 21.8689 24.8253 21.9739 24.8445 22.0765C24.8543 22.1671 24.8543 22.2585 24.8445 22.3491V22.9131C24.8542 23.0177 24.884 23.1197 24.9326 23.2139C24.9717 23.2985 25.0206 23.2139 25.0793 23.2985C25.1224 23.3982 25.1714 23.4955 25.2261 23.5899C25.2558 23.6547 25.2953 23.7149 25.3435 23.7685C25.4022 23.7779 25.4022 23.6369 25.4022 23.7121C25.3924 23.9753 25.412 23.7967 25.4707 23.9189C25.5294 24.0411 25.5978 23.9846 25.6663 23.9846C25.7523 24.0126 25.8344 24.0505 25.9109 24.0975C25.9626 24.1071 26.0158 24.1071 26.0675 24.0975C26.2925 24.1163 26.4588 23.9565 26.5273 23.9753C26.5958 23.9941 26.5664 23.9282 26.5958 23.9C26.6251 23.8718 26.6838 23.7591 26.6838 23.8155V23.7027C26.7927 23.4658 26.8684 23.2161 26.9088 22.9601C26.9871 22.6781 26.9763 22.4042 26.9763 22.0074C26.9763 21.6107 26.8208 21.124 26.8208 21.124C26.7817 21.0112 26.6838 20.8357 26.5958 20.757Z" fill="#1F2227"/>
<path d="M22.2489 26.4876H21.3925C21.0593 26.4876 20.7355 26.4677 20.4303 26.4677C20.2285 26.4198 20.0311 26.2542 19.8479 25.9791C19.8323 25.9601 19.8192 25.925 19.8106 25.8794C19.7732 25.66 19.8946 25.0318 19.9849 25.0318C20.1811 25.0417 20.3618 24.8523 20.5611 24.8523H21.6137C21.9681 24.9087 22.3235 24.8654 22.6756 24.7227L23.037 24.8324C23.3703 24.8324 23.6941 24.8523 23.9993 24.8523C24.2011 24.9001 24.3985 25.0657 24.5817 25.3409C24.5972 25.3598 24.6104 25.395 24.619 25.4406C24.6564 25.66 24.535 26.2882 24.4446 26.2882C24.2485 26.2782 24.0678 26.4677 23.8685 26.4677L22.8195 26.4876C22.7199 26.4776 22.6133 26.7269 22.5604 26.6172C22.4628 26.4765 22.3545 26.4314 22.2489 26.4876Z" fill="#1F2227"/>
</svg>
