<svg width="44" height="45" viewBox="0 0 44 45" fill="none" xmlns="http://www.w3.org/2000/svg">
<path d="M13.2 1.27539H30.8C37.6759 1.27539 43.25 6.84944 43.25 13.7254V31.3254C43.25 38.2013 37.6759 43.7754 30.8 43.7754H13.2C6.32407 43.7754 0.75 38.2013 0.75 31.3254V13.7254C0.75 6.84945 6.32407 1.27539 13.2 1.27539Z" fill="#FFF1CE" stroke="#FFE39C" stroke-width="1.5"/>
<path d="M17.1646 22.0739L21.4009 15.609C21.4654 15.5075 21.554 15.4241 21.6587 15.3664C21.7633 15.3086 21.8807 15.2783 21.9999 15.2783C22.1192 15.2783 22.2366 15.3086 22.3412 15.3664C22.4459 15.4241 22.5345 15.5075 22.5989 15.609L26.8353 22.0739C27.0923 22.4659 27.468 22.7632 27.9062 22.9213C28.3444 23.0795 28.8215 23.0899 29.266 22.9511L33.6066 21.5826C33.7223 21.5477 33.8448 21.5426 33.9629 21.5679C34.081 21.5933 34.191 21.6482 34.2826 21.7277C34.3742 21.8072 34.4445 21.9086 34.4872 22.0228C34.5299 22.1369 34.5435 22.26 34.5268 22.3809L32.7211 34.2931C32.6962 34.4636 32.6115 34.6194 32.4824 34.7321C32.3534 34.8448 32.1885 34.9069 32.018 34.9071H11.9559C11.7853 34.9069 11.6205 34.8448 11.4915 34.7321C11.3624 34.6194 11.2777 34.4636 11.2527 34.2931L9.42099 22.3721C9.40429 22.2513 9.41789 22.1281 9.46058 22.014C9.50326 21.8999 9.57364 21.7984 9.66526 21.7189C9.75687 21.6395 9.86678 21.5845 9.98489 21.5592C10.103 21.5338 10.2255 21.5389 10.3412 21.5739L14.6818 22.9423C15.1323 23.0963 15.6208 23.0945 16.0702 22.9373C16.5197 22.7801 16.9046 22.4764 17.1646 22.0739Z" fill="#FFCE50"/>
<path d="M10.4712 22.347C10.4299 22.3332 10.3855 22.3318 10.3434 22.3429C10.3013 22.3541 10.2634 22.3773 10.234 22.4097C10.2047 22.4421 10.1852 22.4824 10.178 22.5258C10.1708 22.5691 10.1761 22.6136 10.1934 22.654L10.5146 24.689C10.5318 25.194 10.6437 25.6912 10.8444 26.154C10.9833 26.382 10.8444 26.8908 10.8965 27.3382L11.4608 30.9785L11.7907 32.7329C11.8563 33.1624 11.9491 33.5873 12.0685 34.0048C12.0822 34.0237 12.1008 34.0386 12.1221 34.0479C12.1435 34.0571 12.167 34.0604 12.19 34.0575H13.0581C13.6374 34.0754 14.2172 34.0578 14.7944 34.0048C15.7666 33.8995 16.6521 34.0925 17.5897 34.0048C18.5839 33.9346 19.5818 33.9346 20.576 34.0048C21.2756 34.0924 21.9807 34.1276 22.6855 34.1101C23.1282 34.1101 23.5536 33.9697 24.0137 33.9785C24.4631 34.0535 24.924 34.0081 25.3506 33.8469C25.4626 33.8473 25.5739 33.865 25.6805 33.8995C26.161 34.0299 26.6671 34.0299 27.1476 33.8995C27.5097 33.8211 27.8801 33.7887 28.2501 33.8031C29.2484 33.8031 30.2468 33.8031 31.2451 33.8031H31.8094H31.8615C31.8811 33.8105 31.9026 33.8105 31.9222 33.8031C31.9222 33.8031 31.9222 33.8031 31.9917 33.5838C32.0717 32.8023 32.1964 32.0262 32.365 31.2592C32.5635 30.5699 32.7086 29.866 32.799 29.1539C32.8598 28.7504 33.0334 28.2768 32.8511 27.9347C32.8321 27.8509 32.8321 27.764 32.8511 27.6803C33.3286 26.5838 33.1029 25.3996 33.3546 24.2417C33.4154 23.9522 33.4761 23.654 33.5282 23.3645L33.6498 22.5399C33.6599 22.5163 33.6629 22.4901 33.6584 22.4647C33.6539 22.4394 33.6422 22.4159 33.6246 22.3972C33.607 22.3785 33.5844 22.3655 33.5596 22.3597C33.5347 22.3538 33.5087 22.3555 33.4848 22.3645H33.3807C33.2253 22.4182 33.0832 22.5049 32.964 22.6189C32.7938 22.7371 32.5966 22.8096 32.391 22.8294C31.475 22.968 30.576 23.2032 29.7085 23.5312L29.2571 23.6452C29.0767 23.6815 28.8939 23.705 28.7102 23.7154C28.3444 23.7258 27.9797 23.6693 27.6338 23.5487C27.2923 23.4175 26.9775 23.2242 26.7049 22.9785C26.5746 22.8486 26.4556 22.7078 26.3489 22.5575C26.2969 22.4785 26.2534 22.3996 26.21 22.3206L26.1319 22.1364C25.9262 21.6274 25.5907 21.1825 25.1596 20.8469C24.9426 20.6978 24.7429 20.2066 24.5085 19.8996C24.2742 19.5926 24.0658 19.4347 23.8922 19.1715C23.7586 18.9331 23.6454 18.6837 23.5536 18.4259C23.5156 18.3478 23.469 18.2742 23.4147 18.2066C22.9319 17.6709 22.5098 17.0825 22.156 16.4522L22.0865 16.3382V16.2768C22.0753 16.2468 22.0575 16.2198 22.0344 16.1978C22.0206 16.189 22.005 16.1836 21.9888 16.182C21.9725 16.1804 21.9562 16.1827 21.941 16.1887C21.9258 16.1947 21.9121 16.2042 21.9012 16.2164C21.8903 16.2287 21.8824 16.2433 21.8782 16.2593C21.8782 16.2593 21.8782 16.2592 21.8782 16.3294C21.0795 17.6715 20.1853 18.961 19.2738 20.2768C18.8708 20.9979 18.2671 21.5835 17.5376 21.961C17.2251 22.075 17.0601 21.961 17.1556 21.5838C17.2293 21.2788 17.3401 20.9841 17.4855 20.7066L18.1887 19.4084C18.6173 18.4858 19.1287 17.6049 19.7165 16.7768C19.9162 16.5224 20.0291 16.1452 20.3329 16.0312C20.4 15.9845 20.4538 15.921 20.4892 15.847C20.5772 15.6032 20.6877 15.3682 20.8191 15.1452C20.9278 14.9314 21.0904 14.7504 21.2904 14.6202C21.4904 14.4901 21.7208 14.4155 21.9584 14.4039C22.196 14.3924 22.4325 14.4443 22.6439 14.5544C22.8554 14.6645 23.0344 14.829 23.163 15.0312C23.2411 15.1365 23.3019 15.2505 23.3713 15.3558L23.5102 15.575L23.7446 15.961C23.9009 16.2154 24.0658 16.4698 24.2307 16.7154C24.8992 17.7066 25.7326 18.5487 26.3142 19.6189C26.8506 20.0875 27.2801 20.6681 27.573 21.3206C27.6394 21.4915 27.7448 21.644 27.8805 21.766C28.0163 21.8879 28.1786 21.9758 28.3543 22.0224C28.534 22.0663 28.7215 22.0663 28.9012 22.0224H29.0401L29.2571 21.961L29.6738 21.8206L31.3579 21.2768L33.0942 20.7242C33.324 20.6109 33.5764 20.5521 33.8321 20.5521C34.0878 20.5521 34.3401 20.6109 34.57 20.7242C34.7844 20.8476 34.9664 21.0211 35.1008 21.2302C35.2352 21.4393 35.3181 21.6778 35.3426 21.9259C35.3579 22.194 35.3346 22.4629 35.2731 22.7241L35.2037 23.1891L35.0735 24.0662L34.5266 27.6452C34.5276 28.0625 34.475 28.4783 34.3703 28.882C34.2373 29.3872 34.153 29.9043 34.1186 30.4259C34.0404 30.8996 34.0144 31.4083 33.8928 31.8557C33.7713 32.3031 33.6498 32.7329 33.563 33.2329L33.4327 33.9346C33.4168 34.3257 33.2592 34.6971 32.99 34.9785C32.8538 35.1129 32.692 35.218 32.5145 35.2873C32.3369 35.3567 32.1472 35.3889 31.9569 35.382H29.7693C27.9029 35.382 26.0277 35.3381 24.17 35.382C23.0327 35.382 21.9042 35.5487 20.7583 35.496C20.2609 35.5591 19.7561 35.5203 19.2738 35.382C19.1349 35.3206 18.6835 35.4873 18.3623 35.496C17.5897 35.496 16.7997 35.496 16.0184 35.496C14.9333 35.496 13.8481 35.496 12.763 35.496H12.2681H11.8862C11.7338 35.4934 11.5824 35.4728 11.4348 35.4346C11.1381 35.3496 10.8716 35.1805 10.667 34.9474C10.4624 34.7142 10.3282 34.4267 10.2802 34.1188L10.0979 32.9785L9.95029 31.9346C9.84612 31.0575 9.79403 30.1803 9.68118 29.3031C9.56832 28.4259 9.32525 27.461 9.29053 26.575C9.26606 25.8789 9.20229 25.1848 9.09954 24.4961L8.76098 22.2856C8.7117 22.0332 8.73113 21.7721 8.81718 21.53C8.90324 21.288 9.0527 21.074 9.24962 20.9111C9.44655 20.7481 9.68357 20.6422 9.93539 20.6046C10.1872 20.5671 10.4444 20.5993 10.6795 20.6978L11.947 21.1101C12.7196 21.347 13.4835 21.5838 14.2561 21.8031C14.4732 21.8645 14.6902 21.9347 14.8899 22.0136C15.0329 22.0803 15.1851 22.1247 15.3413 22.1452C15.6612 22.2033 17.4477 20.4587 17.7183 20.2768C17.8993 20.1976 18.1253 20.726 18.3225 20.7242C18.5395 20.7242 17.2685 21.8294 17.2945 21.9434C17.3042 22.0166 18.4276 21.167 18.3899 21.2302C18.1412 21.6991 16.6135 23.0005 16.1399 23.2329C15.8718 23.3656 15.5803 23.4433 15.2823 23.4613C14.9842 23.4794 14.6856 23.4376 14.4037 23.3382L12.2942 22.654L10.4712 22.347Z" fill="#1F2227"/>
<path d="M21.6116 12.6813C22.5411 12.6813 23.2945 11.9199 23.2945 10.9808C23.2945 10.0416 22.5411 9.28027 21.6116 9.28027C20.6822 9.28027 19.9287 10.0416 19.9287 10.9808C19.9287 11.9199 20.6822 12.6813 21.6116 12.6813Z" fill="#6A36FF"/>
<path d="M21.6497 10.2123C21.5656 10.252 21.4952 10.3163 21.4478 10.397C21.4478 10.397 21.3228 10.397 21.4478 10.5524C21.5728 10.7079 21.2939 10.5039 21.2843 10.5524C21.2747 10.601 21.2074 10.7176 21.217 10.8051C21.2266 10.8925 21.3132 10.98 21.342 11.048C21.3709 11.116 21.2747 11.2132 21.4189 11.2326C21.5632 11.2521 21.4189 11.3687 21.4189 11.3978C21.4189 11.427 21.5439 11.3978 21.5247 11.5533C21.5055 11.7088 21.5247 11.7379 21.5247 11.7282C21.5247 11.7185 21.6593 11.6213 21.6786 11.6505C21.6978 11.6796 21.6786 11.7865 21.8036 11.5533C21.8036 11.5533 21.8036 11.5533 21.8036 11.6116C21.8036 11.6699 21.8036 11.7865 21.8613 11.6796C21.919 11.5728 21.919 11.5922 21.9382 11.5922C21.9853 11.5778 22.0354 11.5778 22.0825 11.5922C22.0825 11.5922 22.169 11.7088 22.2171 11.7185C22.2652 11.7282 22.2748 11.6019 22.3614 11.7185C22.4479 11.8351 22.496 11.7768 22.5441 11.7185C22.5922 11.6602 22.6691 11.7768 22.5441 11.563C22.8422 11.7574 22.5441 11.3784 22.6691 11.3978C22.7941 11.4173 22.7653 11.2812 22.7749 11.2132C22.7845 11.1452 22.8518 11.2132 22.6787 11.1258C22.6114 11.1258 22.5056 11.0383 22.6787 11.1258C22.9384 11.1258 22.7845 11.0286 22.8326 10.9897C22.8807 10.9508 22.7557 10.8828 22.9288 10.7662C23.1019 10.6496 23.0249 10.6399 22.7941 10.7079C22.5633 10.7759 22.7941 10.6593 22.7364 10.6496C22.6787 10.6399 22.6018 10.6496 22.5922 10.6496C22.5825 10.6496 22.6595 10.5719 22.6883 10.533C22.4287 10.6496 22.6402 10.3387 22.496 10.3289C22.3517 10.3192 22.3229 10.3289 22.2364 10.2318C22.1498 10.1346 22.1594 10.1152 22.1113 9.63903C22.0661 9.45066 22.0661 9.25409 22.1113 9.06572C22.1113 8.96855 22.2075 8.87138 22.2652 8.85194C22.3528 8.81374 22.4427 8.78128 22.5345 8.75476C22.7076 8.75476 22.9768 8.56042 23.1115 8.75476C23.1115 8.81307 23.2749 8.75477 23.2172 8.93939C23.6115 8.79363 23.7173 9.16289 23.8904 9.3378C24.0635 9.51271 24.4001 9.55156 24.4001 9.83336C24.6982 9.83336 24.7175 10.0471 24.679 10.2026C24.5444 10.7468 24.679 11.1743 24.5443 11.6699C24.3931 12.1385 24.1209 12.5578 23.7558 12.8846C23.6981 12.9332 23.7558 13.0983 23.5827 13.0692C23.4096 13.04 23.4 13.1664 23.3038 13.2149C23.2076 13.2635 23.1499 13.3607 23.0441 13.3413C22.6114 13.2247 22.3133 13.4384 21.9382 13.3996C21.5885 13.3375 21.2443 13.2465 20.9093 13.1275C20.6977 13.0595 20.4188 13.04 20.2842 12.836C20.1495 12.6319 20.0534 12.7679 20.1784 12.5347C20.1784 12.4764 20.0149 12.5347 19.9668 12.4764C19.8604 12.3563 19.7757 12.2182 19.7168 12.0683C19.6206 11.8643 19.5725 11.6505 19.4956 11.4367C19.4187 11.2229 19.3417 11.1841 19.3129 11.0383C19.2785 10.8913 19.2785 10.7383 19.3129 10.5913C19.3878 10.4139 19.4746 10.2418 19.5725 10.0763C19.6591 9.92081 19.6399 9.67788 19.8322 9.59043C20.1688 9.42524 20.2842 9.14344 20.5534 8.95882C20.8179 8.80413 21.0908 8.66464 21.3709 8.54098C21.544 8.46325 22.8999 8.70194 23.0441 8.69222C23.1884 8.6825 22.2652 9.21975 22.2364 9.43353C22.2428 9.46559 22.4511 9.55837 22.4446 9.59043C22.3484 9.78477 22.6595 10.0763 22.5922 10.0763C22.5103 10.1102 21.6996 10.1385 21.6497 10.2123Z" fill="#1F2227"/>
<path d="M7.9179 19.4332C8.58179 19.4332 9.11998 18.8894 9.11998 18.2186C9.11998 17.5477 8.58179 17.0039 7.9179 17.0039C7.25401 17.0039 6.71582 17.5477 6.71582 18.2186C6.71582 18.8894 7.25401 19.4332 7.9179 19.4332Z" fill="#6A36FF"/>
<path d="M36.2753 19.4332C36.9392 19.4332 37.4774 18.8894 37.4774 18.2186C37.4774 17.5477 36.9392 17.0039 36.2753 17.0039C35.6114 17.0039 35.0732 17.5477 35.0732 18.2186C35.0732 18.8894 35.6114 19.4332 36.2753 19.4332Z" fill="#6A36FF"/>
<path d="M8.17902 17.8293C8.17902 17.8293 8.10209 17.8293 8.08286 17.9264C8.06363 18.0236 7.9867 17.9264 8.15979 18.0333C8.33289 18.1402 8.02516 17.9653 8.02516 17.9847C8.02516 18.0042 8.02516 18.0625 8.02516 18.1013C8.02516 18.1402 8.13094 18.1888 8.15979 18.2179C8.18864 18.2471 8.07324 18.2957 8.15979 18.2762C8.24634 18.2568 8.09248 18.3443 8.15979 18.3443C8.22711 18.3443 8.24634 18.3443 8.15979 18.4026C8.07324 18.4609 8.09248 18.5581 8.15979 18.5386C8.22711 18.5192 8.26558 18.4123 8.26558 18.422C8.26558 18.4317 8.26556 18.5483 8.3425 18.3054C8.3425 18.3054 8.3425 18.3054 8.3425 18.3637C8.3425 18.422 8.3425 18.5289 8.3425 18.4123C8.3425 18.2957 8.3425 18.3151 8.3425 18.3151C8.3425 18.3151 8.34251 18.4317 8.40021 18.4512C8.45791 18.4706 8.40021 18.354 8.45791 18.4512C8.51561 18.5483 8.54446 18.5386 8.56369 18.5192C8.58292 18.4997 8.65986 18.5969 8.50599 18.3831C8.76564 18.6164 8.50599 18.2665 8.50599 18.3151C8.50599 18.3637 8.55408 18.3151 8.50599 18.2568C8.45791 18.1985 8.58293 18.2568 8.40021 18.2082C8.33289 18.2082 8.21749 18.1597 8.40021 18.2082C8.65024 18.2082 8.50599 18.2082 8.54445 18.2082C8.58292 18.2082 8.47713 18.2082 8.65985 18.1111C8.84256 18.0139 8.76564 18.0236 8.54445 18.1111L8.41943 18.1694L8.53484 18.0819C8.31366 18.2471 8.53484 17.975 8.47714 18.0042C8.41945 18.0333 8.40982 18.0042 8.38097 18.0042C8.34297 17.8156 8.32683 17.6232 8.33289 17.4309C8.30736 17.2374 8.30736 17.0413 8.33289 16.8478C8.35236 16.7677 8.39213 16.694 8.44828 16.634L8.66947 16.5272C8.80411 16.5272 9.0349 16.3231 9.14068 16.5272C9.24646 16.7312 9.28494 16.5272 9.208 16.7021C9.208 16.7021 9.208 16.7604 9.208 16.7507C9.5542 16.5758 9.62151 16.9061 9.75614 17.0422C9.89078 17.1782 10.2177 17.1879 10.1985 17.4309C10.487 17.4309 10.4966 17.5863 10.4485 17.7224C10.2851 18.1694 10.4485 18.5289 10.3139 18.9273C10.1882 19.3008 9.96966 19.6354 9.67922 19.899C9.67922 19.899 9.67921 20.0934 9.53497 20.0545C9.39072 20.0156 9.38109 20.1322 9.30416 20.1711C9.22723 20.21 9.18877 20.2974 9.09261 20.2683C8.71756 20.1225 8.49638 20.3266 8.18864 20.2683C7.9089 20.2142 7.63271 20.1428 7.36161 20.0545C7.19813 20.0059 6.94809 20.0545 6.84231 19.8407C6.73652 19.6269 6.64037 19.8407 6.775 19.5783C6.775 19.52 6.63075 19.5783 6.58267 19.5783C6.50088 19.4779 6.43294 19.3668 6.38071 19.248C6.31443 19.0794 6.25666 18.9075 6.20762 18.733C6.20762 18.6261 6.05375 18.5289 6.0249 18.4026C5.9917 18.2818 5.9917 18.1541 6.0249 18.0333C6.08993 17.8887 6.17056 17.7519 6.26532 17.6252C6.33263 17.4989 6.26532 17.2948 6.47688 17.2268C6.68845 17.1588 6.86154 16.877 7.08272 16.7409C7.3039 16.6049 7.51548 16.5174 7.73666 16.4008C7.95784 16.2842 8.54446 16.5379 8.66947 16.5282C8.76528 16.7888 8.7958 17.4992 8.77605 17.7765C8.77892 17.8088 8.77892 17.7783 8.77605 17.8106C8.71835 18.005 8.26558 17.9264 8.18864 17.907C8.11171 17.8876 8.21748 17.8293 8.17902 17.8293Z" fill="#1F2227"/>
<path d="M35.7083 17.8293C35.7083 17.8293 35.6314 17.8293 35.6122 17.9264C35.5929 18.0236 35.516 17.9264 35.6891 18.0333C35.8622 18.1402 35.5545 17.9653 35.5545 17.9847C35.5545 18.0042 35.5545 18.0625 35.5545 18.1013C35.5545 18.1402 35.6602 18.1888 35.6891 18.2179C35.7179 18.2471 35.6025 18.2957 35.6891 18.2762C35.7756 18.2568 35.6218 18.3443 35.6891 18.3443C35.7564 18.3443 35.7756 18.3443 35.6891 18.4026C35.6025 18.4609 35.6218 18.5581 35.6891 18.5386C35.7564 18.5192 35.7949 18.4123 35.7949 18.422C35.7949 18.4317 35.7949 18.5483 35.8718 18.3054C35.8718 18.3054 35.8718 18.3054 35.8718 18.3637C35.8718 18.422 35.8718 18.5289 35.8718 18.4123C35.8718 18.2957 35.8718 18.3151 35.8718 18.3151C35.8718 18.3151 35.8718 18.4317 35.9295 18.4512C35.9872 18.4706 35.9295 18.354 35.9872 18.4512C36.0449 18.5483 36.0738 18.5386 36.093 18.5192C36.1122 18.4997 36.1892 18.5969 36.0353 18.3831C36.2949 18.6164 36.0353 18.2665 36.0353 18.3151C36.0353 18.3637 36.0834 18.3151 36.0353 18.2568C35.9872 18.1985 36.1122 18.2568 35.9295 18.2082C35.8622 18.2082 35.7468 18.1597 35.9295 18.2082C36.1795 18.2082 36.0353 18.2082 36.0738 18.2082C36.1122 18.2082 36.0064 18.2082 36.1891 18.1111C36.3719 18.0139 36.2949 18.0236 36.0738 18.1111L35.9487 18.1694L36.0641 18.0819C35.843 18.2471 36.0641 17.975 36.0064 18.0042C35.9487 18.0333 35.9391 18.0042 35.9103 18.0042C35.8723 17.8156 35.8561 17.6232 35.8622 17.4309C35.8367 17.2374 35.8367 17.0413 35.8622 16.8478C35.8817 16.7677 35.9214 16.694 35.9776 16.634L36.1988 16.5272C36.3334 16.5272 36.5642 16.3231 36.67 16.5272C36.7758 16.7312 36.8142 16.5272 36.7373 16.7021C36.7373 16.7021 36.7373 16.7604 36.7373 16.7507C37.0835 16.5758 37.1508 16.9061 37.2854 17.0422C37.4201 17.1782 37.747 17.1879 37.7278 17.4309C38.0163 17.4309 38.0259 17.5863 37.9778 17.7224C37.8144 18.1694 37.9778 18.5289 37.8432 18.9273C37.7175 19.3008 37.499 19.6354 37.2085 19.899C37.2085 19.899 37.2085 20.0934 37.0643 20.0545C36.92 20.0156 36.9104 20.1322 36.8335 20.1711C36.7565 20.21 36.7181 20.2974 36.6219 20.2683C36.2469 20.1225 36.0257 20.3266 35.7179 20.2683C35.4382 20.2142 35.162 20.1428 34.8909 20.0545C34.7274 20.0059 34.4774 20.0545 34.3716 19.8407C34.2658 19.6269 34.1697 19.8407 34.3043 19.5783C34.3043 19.52 34.16 19.5783 34.112 19.5783C34.0302 19.4779 33.9622 19.3668 33.91 19.248C33.8437 19.0794 33.786 18.9075 33.7369 18.733C33.7369 18.6261 33.583 18.5289 33.5542 18.4026C33.521 18.2818 33.521 18.1541 33.5542 18.0333C33.6192 17.8887 33.6999 17.7519 33.7946 17.6252C33.8619 17.4989 33.7946 17.2948 34.0062 17.2268C34.2177 17.1588 34.3908 16.877 34.612 16.7409C34.8332 16.6049 35.0448 16.5174 35.266 16.4008C35.4871 16.2842 36.0738 16.5379 36.1988 16.5282C36.2946 16.7888 36.3251 17.4992 36.3053 17.7765C36.3082 17.8088 36.3082 17.7783 36.3053 17.8106C36.2476 18.005 35.7949 17.9264 35.7179 17.907C35.641 17.8876 35.7468 17.8293 35.7083 17.8293Z" fill="#1F2227"/>
<path d="M18.5716 25.6228C18.4883 25.5475 18.442 25.5044 18.3586 25.4553C18.2753 25.4062 17.9512 25.4014 17.9512 25.4014C17.9282 25.3792 17.8994 25.3637 17.8678 25.3564H17.7752C17.5596 25.4094 17.3677 25.5293 17.2289 25.6981C17.1438 25.8206 17.0841 25.958 17.053 26.1026C17.0165 26.2669 16.9701 26.429 16.9141 26.5881C16.8958 26.6862 16.8958 26.7866 16.9141 26.8847C16.9233 26.9714 16.9233 27.0588 16.9141 27.1454V27.6849C16.9232 27.7849 16.9515 27.8825 16.9974 27.9725C17.0344 28.0535 17.0807 27.9725 17.1363 28.0535C17.1771 28.1489 17.2234 28.2419 17.2752 28.3321C17.3033 28.3941 17.3408 28.4517 17.3863 28.503C17.4419 28.5119 17.4419 28.3771 17.4419 28.449C17.4326 28.7007 17.4511 28.5299 17.5067 28.6468C17.5623 28.7637 17.6271 28.7097 17.6919 28.7097C17.7733 28.7365 17.851 28.7727 17.9234 28.8176C17.9723 28.8268 18.0226 28.8268 18.0716 28.8176C18.2846 28.8356 18.442 28.6828 18.5068 28.7007C18.5716 28.7187 18.5438 28.6558 18.5716 28.6288C18.5994 28.6018 18.655 28.4939 18.655 28.5479V28.44C18.758 28.2135 18.8297 27.9746 18.8679 27.7298C18.942 27.4601 18.9318 27.1981 18.9318 26.8187C18.9318 26.4392 18.7846 25.9738 18.7846 25.9738C18.7476 25.8659 18.655 25.6981 18.5716 25.6228Z" fill="#1F2227"/>
<path d="M25.9613 25.5046C25.8779 25.4293 25.8316 25.3863 25.7483 25.3372C25.6649 25.2881 25.3408 25.2832 25.3408 25.2832C25.3179 25.2611 25.289 25.2455 25.2575 25.2383H25.1649C24.9492 25.2912 24.7574 25.4112 24.6185 25.5799C24.5335 25.7024 24.4737 25.8398 24.4426 25.9844C24.4061 26.1488 24.3598 26.3109 24.3037 26.4699C24.2855 26.568 24.2855 26.6685 24.3037 26.7666C24.3129 26.8532 24.3129 26.9406 24.3037 27.0273V27.5667C24.3128 27.6668 24.3411 27.7643 24.387 27.8544C24.4241 27.9353 24.4704 27.8544 24.5259 27.9353C24.5667 28.0307 24.6131 28.1237 24.6648 28.214C24.693 28.2759 24.7304 28.3335 24.776 28.3848C24.8315 28.3938 24.8315 28.2589 24.8315 28.3308C24.8223 28.5826 24.8408 28.4118 24.8964 28.5286C24.9519 28.6455 25.0167 28.5915 25.0816 28.5915C25.1629 28.6183 25.2407 28.6545 25.3131 28.6994C25.362 28.7087 25.4123 28.7087 25.4612 28.6994C25.6742 28.7174 25.8316 28.5646 25.8964 28.5826C25.9613 28.6005 25.9335 28.5376 25.9613 28.5106C25.9891 28.4837 26.0446 28.3758 26.0446 28.4297V28.3219C26.1477 28.0953 26.2193 27.8565 26.2576 27.6116C26.3317 27.3419 26.3214 27.08 26.3214 26.7005C26.3214 26.3211 26.1743 25.8556 26.1743 25.8556C26.1373 25.7478 26.0446 25.5799 25.9613 25.5046Z" fill="#1F2227"/>
<path d="M20.6957 28.1991C20.686 28.3164 20.686 28.4342 20.6957 28.5515C20.6957 28.6004 20.6763 28.5809 20.6442 28.6196C20.7312 28.6885 20.6763 28.6885 20.6957 28.7081C20.715 28.7277 20.6957 28.8451 20.6957 28.9039C20.6957 28.9626 20.7546 29.0393 20.8031 29.0784C20.8515 29.1176 20.8344 29.2367 20.9506 29.2073C21.0453 29.2758 20.9467 29.3247 21.0145 29.3345C21.0823 29.3443 21.0354 29.3247 21.1247 29.4128C21.1731 29.4899 21.18 29.5009 21.2284 29.4911C21.2769 29.4813 21.2284 29.5363 21.3169 29.4911C21.3782 29.5172 21.3447 29.4911 21.3782 29.4618L21.4539 29.4911C21.4539 29.6281 21.4243 29.5484 21.4955 29.4911C21.6128 29.4388 21.532 29.4618 21.5901 29.4618H21.6734C21.6734 29.4618 21.7321 29.3932 21.7709 29.4128C21.8096 29.4324 21.8271 29.3545 21.8852 29.4426C21.9434 29.5307 21.9937 29.4813 22.0227 29.4618C22.0518 29.4422 21.9874 29.5535 22.082 29.4128C22.2409 29.403 22.1501 29.3345 22.2447 29.2667C22.3052 29.2073 22.2875 29.1926 22.3166 29.1436C22.3457 29.0947 22.3166 29.1666 22.362 29.0519C22.4489 29.0289 22.3908 29.0213 22.4296 28.9626C22.4683 28.9039 22.3811 29.0042 22.5167 28.8722C22.5167 28.8321 22.5512 28.8301 22.5167 28.7473C22.5167 28.7473 22.4831 28.7501 22.4831 28.6913V28.6454C22.4489 28.4581 22.5942 28.4047 22.5264 28.2676C22.4827 28.1308 22.4827 27.9836 22.5264 27.8468C22.5264 27.7685 22.6039 27.6902 22.9817 27.6412C23.1347 27.606 23.2936 27.606 23.4466 27.6412C23.5106 27.6514 23.5707 27.6784 23.621 27.7195L23.7276 27.8468C23.7954 27.9349 23.9697 28.0229 23.8729 28.1208C23.776 28.2187 23.9503 28.1795 23.776 28.2089C24.0375 28.3264 23.8632 28.4634 23.8825 28.5809C23.9019 28.6983 23.9512 28.7473 23.9209 29.0096C23.9209 29.2476 23.9171 29.3223 23.8339 29.4911C23.6059 29.8003 23.6985 29.8728 23.4854 30.1078C23.2825 30.3461 23.0439 30.5508 22.7783 30.7146C22.7783 30.7146 22.7783 30.8614 22.6427 30.8125C22.507 30.7635 22.5167 30.8125 22.4489 30.8712C22.3811 30.9299 22.3521 30.9593 22.2746 30.9202C21.9937 30.7831 21.7999 30.9202 21.5578 30.9202C21.3156 30.9202 21.1122 30.8321 20.8797 30.8125C20.6472 30.7929 20.5601 30.8125 20.4438 30.7244C20.3276 30.6363 20.2792 30.7244 20.347 30.5286C20.347 30.4797 20.2307 30.5286 20.192 30.5286C20.1061 30.4743 20.0279 30.4084 19.9595 30.3329L19.6883 30.0001C19.6302 29.9414 19.5755 29.9237 19.5174 29.8454C19.4514 29.7751 19.4428 29.6858 19.4267 29.5903C19.4169 29.4665 19.3484 29.3905 19.3582 29.2667C19.3582 29.1493 19.3304 29.1274 19.3578 28.9039C19.4497 28.723 19.4074 28.5124 19.4267 28.3558C19.4557 28.2104 19.4557 28.0606 19.4267 27.9153C19.4267 27.837 19.572 27.7587 19.572 27.6804C19.7825 27.618 20.0024 27.5948 20.221 27.6119H20.2985C20.4535 27.6902 20.6957 27.7685 20.6763 27.8566C20.6757 27.9711 20.6822 28.0855 20.6957 28.1991Z" fill="#1F2227"/>
</svg>
