<svg width="24" height="24" viewBox="0 0 24 24" fill="none" xmlns="http://www.w3.org/2000/svg">
<path fill-rule="evenodd" clip-rule="evenodd" d="M4.27502 4.75039C4.27502 3.24542 5.49505 2.02539 7.00003 2.02539H15.8384C16.3769 2.02539 16.8134 2.46191 16.8134 3.00039C16.8134 3.53887 16.3769 3.97539 15.8384 3.97539H7.00003C6.57201 3.97539 6.22502 4.32237 6.22502 4.75039V19.2504C6.22502 19.6784 6.57201 20.0254 7.00003 20.0254H15.8384C16.3769 20.0254 16.8134 20.4619 16.8134 21.0004C16.8134 21.5389 16.3769 21.9754 15.8384 21.9754H7.00003C5.49505 21.9754 4.27502 20.7554 4.27502 19.2504V4.75039Z" fill="#495057"/>
<path fill-rule="evenodd" clip-rule="evenodd" d="M16.8471 8.53003C17.2719 8.19916 17.8845 8.27534 18.2154 8.70017L21.0191 12.3002C21.248 12.5941 21.2894 12.9927 21.1259 13.3273C20.9623 13.662 20.6224 13.8743 20.2499 13.8743H13.1909C12.6525 13.8743 12.2159 13.4377 12.2159 12.8993C12.2159 12.3608 12.6525 11.9243 13.1909 11.9243H18.2547L16.6769 9.89835C16.346 9.47352 16.4222 8.8609 16.8471 8.53003Z" fill="#495057"/>
</svg>
