<svg width="134" height="36" viewBox="0 0 134 36" fill="none" xmlns="http://www.w3.org/2000/svg">
<path d="M5.06055 31.0693H32.0605V4.06934L5.06055 31.0693Z" fill="#EB6963"/>
<path d="M32.0605 31.0693H5.06055V4.06934L32.0605 31.0693Z" fill="#4C49E0"/>
<path d="M50.2514 24.5L49.5514 22.3H44.3514L43.6514 24.5H40.1514L44.9114 10.5H48.9914L53.7514 24.5H50.2514ZM45.3114 19.3H48.5914L46.9514 14.16L45.3114 19.3ZM61.8121 10.5H64.8121V24.5H61.8121V23.56C61.1521 24.32 60.1721 24.78 58.8321 24.78C56.2121 24.78 54.0521 22.48 54.0521 19.5C54.0521 16.52 56.2121 14.22 58.8321 14.22C60.1721 14.22 61.1521 14.68 61.8121 15.44V10.5ZM59.4321 21.94C60.8121 21.94 61.8121 21 61.8121 19.5C61.8121 18 60.8121 17.06 59.4321 17.06C58.0521 17.06 57.0521 18 57.0521 19.5C57.0521 21 58.0521 21.94 59.4321 21.94ZM78.2131 14.22C80.5131 14.22 82.0131 15.86 82.0131 18.36V24.5H79.0131V18.62C79.0131 17.62 78.5331 16.98 77.5731 16.98C76.5731 16.98 76.0131 17.68 76.0131 18.86V24.5H73.0131V18.62C73.0131 17.62 72.5331 16.98 71.5731 16.98C70.5731 16.98 70.0131 17.68 70.0131 18.86V24.5H67.0131V14.5H70.0131V15.42C70.4731 14.74 71.3531 14.22 72.6931 14.22C73.8731 14.22 74.7531 14.7 75.3131 15.54C75.8731 14.74 76.7931 14.22 78.2131 14.22ZM85.5639 13.62C84.5839 13.62 83.7639 12.8 83.7639 11.82C83.7639 10.84 84.5839 10.02 85.5639 10.02C86.5439 10.02 87.3639 10.84 87.3639 11.82C87.3639 12.8 86.5439 13.62 85.5639 13.62ZM84.0639 24.5V14.5H87.0639V24.5H84.0639ZM95.1192 14.22C97.1392 14.22 98.8592 15.66 98.8592 18.36V24.5H95.8592V18.8C95.8592 17.56 95.0792 16.98 94.1192 16.98C93.0192 16.98 92.2592 17.62 92.2592 19.04V24.5H89.2592V14.5H92.2592V15.44C92.7992 14.7 93.7992 14.22 95.1192 14.22ZM103.759 17.42C103.759 18.56 108.679 17.8 108.679 21.5C108.679 23.8 106.679 24.78 104.519 24.78C102.519 24.78 100.999 24.02 100.219 22.4L102.819 20.92C103.079 21.68 103.639 22.1 104.519 22.1C105.239 22.1 105.599 21.88 105.599 21.48C105.599 20.38 100.679 20.96 100.679 17.5C100.679 15.32 102.519 14.22 104.599 14.22C106.219 14.22 107.659 14.94 108.499 16.36L105.939 17.74C105.659 17.22 105.259 16.86 104.599 16.86C104.079 16.86 103.759 17.06 103.759 17.42ZM114.879 24.78C111.939 24.78 109.579 22.48 109.579 19.5C109.579 16.52 111.939 14.22 114.879 14.22C117.819 14.22 120.179 16.52 120.179 19.5C120.179 22.48 117.819 24.78 114.879 24.78ZM114.879 21.86C116.179 21.86 117.179 20.92 117.179 19.5C117.179 18.08 116.179 17.14 114.879 17.14C113.579 17.14 112.579 18.08 112.579 19.5C112.579 20.92 113.579 21.86 114.879 21.86ZM126.676 24.78C123.736 24.78 121.376 22.48 121.376 19.5C121.376 16.52 123.736 14.22 126.676 14.22C129.616 14.22 131.976 16.52 131.976 19.5C131.976 22.48 129.616 24.78 126.676 24.78ZM126.676 21.86C127.976 21.86 128.976 20.92 128.976 19.5C128.976 18.08 127.976 17.14 126.676 17.14C125.376 17.14 124.376 18.08 124.376 19.5C124.376 20.92 125.376 21.86 126.676 21.86Z" fill="#212529"/>
</svg>
