<svg width="272" height="44" viewBox="0 0 272 44" fill="none" xmlns="http://www.w3.org/2000/svg">
<path d="M6 37.9736H39V4.97363L6 37.9736Z" fill="#EB6963"/>
<path d="M39 37.9736H6V4.97363L39 37.9736Z" fill="#4C49E0"/>
<path d="M70.6931 21.2H66.8531L62.2931 28.664L57.7331 21.2H53.8931V38H57.7331V28.232L62.0771 35.36H62.5091L66.8531 28.232V38H70.6931V21.2ZM82.1726 26V27.128C81.3806 26.216 80.2046 25.664 78.5966 25.664C75.4526 25.664 72.8606 28.424 72.8606 32C72.8606 35.576 75.4526 38.336 78.5966 38.336C80.2046 38.336 81.3806 37.784 82.1726 36.872V38H85.7726V26H82.1726ZM79.3166 34.928C77.6606 34.928 76.4606 33.8 76.4606 32C76.4606 30.2 77.6606 29.072 79.3166 29.072C80.9726 29.072 82.1726 30.2 82.1726 32C82.1726 33.8 80.9726 34.928 79.3166 34.928ZM91.7046 29.504C91.7046 29.072 92.0886 28.832 92.7126 28.832C93.5046 28.832 93.9846 29.264 94.3206 29.888L97.3926 28.232C96.3846 26.528 94.6566 25.664 92.7126 25.664C90.2166 25.664 88.0086 26.984 88.0086 29.6C88.0086 33.752 93.9126 33.056 93.9126 34.376C93.9126 34.856 93.4806 35.12 92.6166 35.12C91.5606 35.12 90.8886 34.616 90.5766 33.704L87.4566 35.48C88.3926 37.424 90.2166 38.336 92.6166 38.336C95.2086 38.336 97.6086 37.16 97.6086 34.4C97.6086 29.96 91.7046 30.872 91.7046 29.504ZM106.438 25.664C104.854 25.664 103.654 26.24 103.006 27.128V21.2H99.4059V38H103.006V31.448C103.006 29.744 103.918 28.976 105.238 28.976C106.39 28.976 107.326 29.672 107.326 31.16V38H110.926V30.632C110.926 27.392 108.862 25.664 106.438 25.664ZM113.518 32.552H122.638V29.096H113.518V32.552ZM131.878 38.336C135.574 38.336 138.358 36.176 138.358 32.576V21.2H134.518V32.24C134.518 33.512 133.918 34.592 131.878 34.592C129.838 34.592 129.238 33.512 129.238 32.24V21.2H125.398V32.576C125.398 36.176 128.182 38.336 131.878 38.336ZM148.184 25.664C146.576 25.664 145.4 26.216 144.608 27.128V26H141.008V42.8H144.608V36.872C145.4 37.784 146.576 38.336 148.184 38.336C151.328 38.336 153.92 35.576 153.92 32C153.92 28.424 151.328 25.664 148.184 25.664ZM147.464 34.928C145.808 34.928 144.608 33.8 144.608 32C144.608 30.2 145.808 29.072 147.464 29.072C149.12 29.072 150.32 30.2 150.32 32C150.32 33.8 149.12 34.928 147.464 34.928ZM172.761 38H176.961L171.249 21.2H166.353L160.641 38H164.841L165.681 35.36H171.921L172.761 38ZM166.833 31.76L168.801 25.592L170.769 31.76H166.833ZM186.634 21.2V27.128C185.842 26.216 184.666 25.664 183.058 25.664C179.914 25.664 177.322 28.424 177.322 32C177.322 35.576 179.914 38.336 183.058 38.336C184.666 38.336 185.842 37.784 186.634 36.872V38H190.234V21.2H186.634ZM183.778 34.928C182.122 34.928 180.922 33.8 180.922 32C180.922 30.2 182.122 29.072 183.778 29.072C185.434 29.072 186.634 30.2 186.634 32C186.634 33.8 185.434 34.928 183.778 34.928ZM206.315 25.664C204.611 25.664 203.507 26.288 202.835 27.248C202.163 26.24 201.107 25.664 199.691 25.664C198.083 25.664 197.027 26.288 196.475 27.104V26H192.875V38H196.475V31.232C196.475 29.816 197.147 28.976 198.347 28.976C199.499 28.976 200.075 29.744 200.075 30.944V38H203.675V31.232C203.675 29.816 204.347 28.976 205.547 28.976C206.699 28.976 207.275 29.744 207.275 30.944V38H210.875V30.632C210.875 27.632 209.075 25.664 206.315 25.664ZM215.136 24.944C216.312 24.944 217.296 23.96 217.296 22.784C217.296 21.608 216.312 20.624 215.136 20.624C213.96 20.624 212.976 21.608 212.976 22.784C212.976 23.96 213.96 24.944 215.136 24.944ZM213.336 38H216.936V26H213.336V38ZM226.602 25.664C225.018 25.664 223.818 26.24 223.17 27.128V26H219.57V38H223.17V31.448C223.17 29.744 224.082 28.976 225.402 28.976C226.554 28.976 227.49 29.672 227.49 31.16V38H231.09V30.632C231.09 27.392 229.026 25.664 226.602 25.664ZM236.97 29.504C236.97 29.072 237.354 28.832 237.978 28.832C238.77 28.832 239.25 29.264 239.586 29.888L242.658 28.232C241.65 26.528 239.922 25.664 237.978 25.664C235.482 25.664 233.274 26.984 233.274 29.6C233.274 33.752 239.178 33.056 239.178 34.376C239.178 34.856 238.746 35.12 237.882 35.12C236.826 35.12 236.154 34.616 235.842 33.704L232.722 35.48C233.658 37.424 235.482 38.336 237.882 38.336C240.474 38.336 242.874 37.16 242.874 34.4C242.874 29.96 236.97 30.872 236.97 29.504ZM250.314 38.336C253.842 38.336 256.674 35.576 256.674 32C256.674 28.424 253.842 25.664 250.314 25.664C246.786 25.664 243.954 28.424 243.954 32C243.954 35.576 246.786 38.336 250.314 38.336ZM250.314 34.832C248.754 34.832 247.554 33.704 247.554 32C247.554 30.296 248.754 29.168 250.314 29.168C251.874 29.168 253.074 30.296 253.074 32C253.074 33.704 251.874 34.832 250.314 34.832ZM264.471 38.336C267.999 38.336 270.831 35.576 270.831 32C270.831 28.424 267.999 25.664 264.471 25.664C260.943 25.664 258.111 28.424 258.111 32C258.111 35.576 260.943 38.336 264.471 38.336ZM264.471 34.832C262.911 34.832 261.711 33.704 261.711 32C261.711 30.296 262.911 29.168 264.471 29.168C266.031 29.168 267.231 30.296 267.231 32C267.231 33.704 266.031 34.832 264.471 34.832Z" fill="#212529"/>
</svg>
