<svg width="24" height="24" viewBox="0 0 24 24" fill="none" xmlns="http://www.w3.org/2000/svg">
<path fill-rule="evenodd" clip-rule="evenodd" d="M4.27539 4.75039C4.27539 3.24542 5.49541 2.02539 7.00039 2.02539H15.8388C16.3773 2.02539 16.8138 2.46191 16.8138 3.00039C16.8138 3.53887 16.3773 3.97539 15.8388 3.97539H7.00039C6.57237 3.97539 6.22539 4.32237 6.22539 4.75039V19.2504C6.22539 19.6784 6.57237 20.0254 7.00039 20.0254H15.8388C16.3773 20.0254 16.8138 20.4619 16.8138 21.0004C16.8138 21.5389 16.3773 21.9754 15.8388 21.9754H7.00039C5.49542 21.9754 4.27539 20.7554 4.27539 19.2504V4.75039Z" fill="#495057"/>
<path fill-rule="evenodd" clip-rule="evenodd" d="M16.8469 8.53003C17.2718 8.19916 17.8844 8.27534 18.2153 8.70017L21.019 12.3002C21.2479 12.5941 21.2893 12.9927 21.1258 13.3273C20.9622 13.662 20.6223 13.8743 20.2498 13.8743H13.1908C12.6523 13.8743 12.2158 13.4377 12.2158 12.8993C12.2158 12.3608 12.6523 11.9243 13.1908 11.9243H18.2546L16.6768 9.89835C16.3459 9.47352 16.4221 8.8609 16.8469 8.53003Z" fill="#495057"/>
</svg>
