<svg width="44" height="45" viewBox="0 0 44 45" fill="none" xmlns="http://www.w3.org/2000/svg">
<path d="M13.2 1.27539H30.8C37.676 1.27539 43.25 6.84944 43.25 13.7254V31.3254C43.25 38.2013 37.676 43.7754 30.8 43.7754H13.2C6.32407 43.7754 0.75 38.2013 0.75 31.3254V13.7254C0.75 6.84945 6.32407 1.27539 13.2 1.27539Z" fill="#EDE6FF" stroke="#D9C9FF" stroke-width="1.5"/>
<path d="M20.7975 7.41872C20.9122 7.24499 21.0682 7.10243 21.2515 7.00379C21.4348 6.90515 21.6397 6.85352 21.8478 6.85352C22.056 6.85352 22.2609 6.90515 22.4442 7.00379C22.6275 7.10243 22.7835 7.24499 22.8982 7.41872L25.3043 10.9538C25.6785 11.5086 26.2405 11.9095 26.8868 12.0829L31.0049 13.2026C31.2098 13.2584 31.3977 13.3644 31.5513 13.5111C31.705 13.6578 31.8196 13.8405 31.8848 14.0426C31.9501 14.2448 31.9638 14.46 31.9249 14.6688C31.886 14.8777 31.7956 15.0735 31.6619 15.2385L29.043 18.4683C28.6235 18.9922 28.4037 19.6482 28.423 20.3191L28.5988 24.465C28.6078 24.6739 28.5654 24.8818 28.4753 25.0704C28.3851 25.259 28.2501 25.4227 28.082 25.547C27.9139 25.6712 27.7178 25.7523 27.511 25.7831C27.3042 25.8139 27.093 25.7935 26.896 25.7236L22.8057 24.2337C22.1873 24.0064 21.5083 24.0064 20.89 24.2337L16.7996 25.7236C16.6026 25.7935 16.3914 25.8139 16.1847 25.7831C15.9779 25.7523 15.7818 25.6712 15.6137 25.547C15.4456 25.4227 15.3105 25.259 15.2204 25.0704C15.1303 24.8818 15.0879 24.6739 15.0969 24.465L15.2727 20.3191C15.2969 19.6474 15.0766 18.9898 14.6527 18.4683L12.0337 15.2478C11.9024 15.0819 11.814 14.8862 11.7764 14.678C11.7387 14.4698 11.7531 14.2556 11.818 14.0542C11.883 13.8529 11.9967 13.6706 12.1489 13.5237C12.3011 13.3768 12.4872 13.2697 12.6908 13.2119L16.8089 12.0921C17.4552 11.9188 18.0172 11.5178 18.3914 10.9631L20.7975 7.41872Z" fill="#FFC42B"/>
<path d="M17.4364 12.6663C17.2861 12.7297 17.1315 12.7823 16.9737 12.8236L16.5851 12.9254L15.8262 13.129L14.3085 13.564C13.9019 13.6069 13.5132 13.7534 13.1795 13.9897C12.9296 14.1655 12.7723 13.9341 12.6427 14.0729C12.5562 14.1696 12.5084 14.2949 12.5084 14.4246C12.5084 14.5544 12.5562 14.6796 12.6427 14.7763L12.8648 15.0539L13.3368 15.6184L15.2524 17.7561C15.4447 17.9779 15.6122 18.22 15.7522 18.478C15.8953 18.7721 16.001 19.083 16.0668 19.4034C16.138 19.7066 16.1721 20.0174 16.1686 20.3288C16.1686 20.6157 16.1686 20.81 16.1686 21.0506C16.2426 21.8465 16.0205 22.5498 16.0298 23.3087C16.0298 23.7066 16.0298 24.1138 16.0298 24.521C16.0128 24.6541 16.0354 24.7892 16.0946 24.9096C16.1476 25.0023 16.2334 25.0716 16.3352 25.104C16.393 25.1177 16.4532 25.1177 16.511 25.104C16.6317 25.071 16.7494 25.0276 16.8627 24.9744C17.1623 24.7892 17.4712 24.6193 17.7881 24.4654C18.1212 24.3544 18.5469 24.3174 18.7135 23.975C18.8051 23.956 18.8996 23.956 18.9912 23.975C19.3979 23.979 19.7947 23.8489 20.1201 23.6048C20.2479 23.5068 20.3879 23.4259 20.5366 23.3642C20.722 23.2923 20.9142 23.2396 21.1104 23.2069C21.6566 23.1013 22.2197 23.1203 22.7576 23.2624C22.8869 23.2929 23.0138 23.3331 23.137 23.3827L23.4239 23.4845L23.9884 23.7066C24.5437 23.9287 25.0804 24.2248 25.6357 24.4562C25.9318 24.5672 26.2465 24.6598 26.5611 24.7616C26.8757 24.8634 27.2367 25.0022 27.2181 25.0484C27.394 25.1965 27.6994 25.0484 27.7549 24.8171C27.7877 24.7474 27.8065 24.6719 27.8104 24.595C27.8051 24.4265 27.7394 24.2656 27.6253 24.1415C27.6013 24.0758 27.6013 24.0037 27.6253 23.9379C27.9122 23.0125 27.4402 22.0871 27.4773 21.1617C27.4913 20.912 27.4913 20.6618 27.4773 20.4121C27.4804 20.101 27.5145 19.791 27.5791 19.4867C27.655 19.1654 27.77 18.8546 27.9215 18.5612C28.0646 18.2972 28.2352 18.0491 28.4305 17.8209C28.5878 17.6173 28.8191 17.4415 28.8376 17.1453C28.8816 16.9822 28.9836 16.8407 29.1245 16.7474C29.705 16.2721 30.2159 15.7176 30.6422 15.1001C31.0216 14.6837 30.9661 14.7022 30.9939 14.5449C30.984 14.3962 30.9431 14.2511 30.8736 14.1192C30.8736 14.0081 30.2628 13.8046 29.8278 13.9249C29.6057 13.9711 29.2356 13.7583 28.9024 13.7028C28.5693 13.6472 28.3842 13.7028 28.1436 13.6287C27.9373 13.5488 27.739 13.4496 27.5513 13.3326C27.4876 13.3013 27.4185 13.2824 27.3477 13.2771C27.0346 13.2514 26.7247 13.1956 26.4223 13.1105C26.0203 12.9885 25.6483 12.7835 25.3303 12.509C25.0123 12.2474 24.7402 11.9347 24.5252 11.5835C24.3697 11.3133 24.1966 11.0536 24.0069 10.8062C23.6275 10.3065 23.2573 9.78823 22.9057 9.26999L22.3874 8.47414L22.1283 8.07619C22.0728 8.00215 22.0728 7.97441 22.0265 7.94664C21.7567 7.75225 21.4336 7.64561 21.1011 7.64124C20.8605 7.64124 20.6199 7.56721 20.7495 7.21555C20.8139 7.07273 20.9072 6.94476 21.0235 6.83966C21.1397 6.73456 21.2764 6.65459 21.425 6.60477C21.6879 6.52322 21.9662 6.50418 22.2377 6.54916C22.5092 6.59415 22.7664 6.70192 22.989 6.86389C23.1048 6.95029 23.2103 7.04966 23.3036 7.16003L23.5257 7.40065L23.9329 7.8541C24.2117 8.15712 24.4483 8.49643 24.6362 8.8628C24.7565 9.09416 25.0249 9.27925 24.9786 9.56613C24.9795 9.59963 24.9874 9.63256 25.0017 9.66283C25.0161 9.69311 25.0366 9.72007 25.0619 9.74197C25.2777 9.92694 25.4759 10.1314 25.6542 10.3527L25.904 10.6766C25.9669 10.761 26.0349 10.8413 26.1076 10.9172C26.3873 11.2574 26.7767 11.4897 27.2089 11.5743C28.146 11.7123 29.0733 11.9101 29.9852 12.1666C30.4317 12.1211 30.8826 12.1846 31.2993 12.3516C31.5404 12.4352 31.7634 12.564 31.9563 12.7311C32.271 13.001 32.5081 13.3499 32.6431 13.7419C32.7782 14.134 32.8062 14.5549 32.7244 14.9613C32.6359 15.3346 32.4581 15.6807 32.2062 15.97L31.762 16.5253C31.1605 17.2656 30.5867 18.0337 29.9759 18.7556C29.7056 19.0222 29.4861 19.3358 29.3281 19.681C29.2713 19.8389 29.2371 20.004 29.2263 20.1715C29.2217 20.2547 29.2217 20.3381 29.2263 20.4213V20.7823L29.3559 23.6788C29.367 23.841 29.3917 24.002 29.4299 24.16C29.4395 24.24 29.4395 24.3207 29.4299 24.4007C29.4431 24.5175 29.4431 24.6355 29.4299 24.7523C29.3865 25.0992 29.271 25.4331 29.0909 25.7327C28.9109 26.0323 28.6701 26.291 28.3842 26.4921C28.114 26.6714 27.8037 26.7813 27.4808 26.8119C27.1579 26.8426 26.8325 26.7931 26.5333 26.6679C25.8675 26.2995 25.1708 25.9898 24.4511 25.7425L22.3597 25.0114C22.0907 24.9269 21.8065 24.9016 21.5268 24.9374C21.3846 24.9505 21.2447 24.9816 21.1104 25.0299L20.5921 25.215C19.8795 25.4742 19.1762 25.7333 18.4729 26.0201C18.0472 26.196 17.64 26.3996 17.2143 26.5846L17.057 26.6587L16.7979 26.742C16.6077 26.7919 16.4113 26.8137 16.2149 26.8068C15.8217 26.7973 15.4408 26.6681 15.1229 26.4366C14.8445 26.2461 14.6083 26.0004 14.4288 25.7147C14.3425 25.5683 14.2866 25.4059 14.2644 25.2374C14.2421 25.0689 14.254 24.8976 14.2993 24.7338C14.3264 24.6119 14.3264 24.4855 14.2993 24.3636C14.2574 24.2253 14.2326 24.0823 14.2252 23.9379C14.2252 23.3087 14.2715 22.6794 14.2993 22.0408L14.364 20.7267V20.4028C14.3687 20.3289 14.3687 20.2547 14.364 20.1807C14.3478 20.0292 14.3136 19.88 14.2622 19.7365C14.1327 19.3756 13.8643 19.2183 13.4664 18.7648C13.0684 18.3114 12.7353 17.9042 12.4021 17.46L11.7821 16.5901L11.4767 16.1551L11.3286 15.933C11.24 15.8205 11.1625 15.6997 11.0973 15.5721C10.9458 15.2904 10.856 14.9797 10.8336 14.6606C10.8113 14.3415 10.857 14.0214 10.9677 13.7213C11.0752 13.429 11.2516 13.1671 11.482 12.9576C11.7124 12.7482 11.9899 12.5974 12.2911 12.5182L12.5872 12.4627H12.8371L13.3183 12.3702C13.633 12.3054 13.9569 12.2313 14.2437 12.1388L16.0946 11.6206L16.5573 11.5095C16.6713 11.4744 16.7827 11.4311 16.8904 11.38C17.1108 11.277 17.3112 11.136 17.4827 10.9635C17.5671 10.8707 17.6444 10.7717 17.7141 10.6674L17.9824 10.2694L18.5099 9.44582C18.8986 8.82579 19.4249 8.12347 20.2914 7.36648C21.9523 5.91533 21.0817 7.29989 21.165 7.53125C21.1834 7.58208 21.7134 7.48041 21.695 7.53125C21.2754 8.21852 20.3936 9.25582 20.0091 9.89004L18.9912 11.3615C18.6116 11.939 18.0711 12.3927 17.4364 12.6663Z" fill="#1F2227"/>
<path d="M20.0618 15.0134C19.973 14.934 19.9236 14.8885 19.8348 14.8367C19.7459 14.7849 19.4004 14.7798 19.4004 14.7798C19.3759 14.7565 19.3452 14.7401 19.3116 14.7324H19.2129C18.983 14.7882 18.7784 14.9148 18.6305 15.0928C18.5398 15.2221 18.4761 15.367 18.4429 15.5196C18.404 15.693 18.3546 15.864 18.2948 16.0318C18.2754 16.1353 18.2754 16.2412 18.2948 16.3447C18.3047 16.4362 18.3047 16.5284 18.2948 16.6198V17.1889C18.3046 17.2944 18.3347 17.3974 18.3837 17.4924C18.4232 17.5777 18.4725 17.4924 18.5318 17.5777C18.5752 17.6784 18.6246 17.7765 18.6798 17.8717C18.7098 17.9371 18.7497 17.9978 18.7983 18.0519C18.8575 18.0614 18.8575 17.9192 18.8575 17.995C18.8476 18.2606 18.8674 18.0804 18.9266 18.2037C18.9858 18.327 19.0549 18.2701 19.124 18.2701C19.2108 18.2983 19.2936 18.3365 19.3708 18.3839C19.423 18.3936 19.4766 18.3936 19.5288 18.3839C19.7558 18.4029 19.9236 18.2416 19.9927 18.2606C20.0618 18.2796 20.0322 18.2132 20.0618 18.1847C20.0914 18.1562 20.1507 18.0424 20.1507 18.0993V17.9855C20.2606 17.7465 20.3369 17.4946 20.3777 17.2363C20.4567 16.9517 20.4458 16.6754 20.4458 16.2751C20.4458 15.8748 20.2889 15.3837 20.2889 15.3837C20.2494 15.2699 20.1507 15.0928 20.0618 15.0134Z" fill="#1F2227"/>
<path d="M25.0394 15.0134C24.9505 14.934 24.9012 14.8885 24.8123 14.8367C24.7235 14.7849 24.378 14.7798 24.378 14.7798C24.3535 14.7565 24.3227 14.7401 24.2891 14.7324H24.1904C23.9605 14.7882 23.756 14.9148 23.608 15.0928C23.5173 15.2221 23.4536 15.367 23.4205 15.5196C23.3816 15.693 23.3321 15.864 23.2724 16.0318C23.253 16.1353 23.253 16.2412 23.2724 16.3447C23.2822 16.4362 23.2822 16.5284 23.2724 16.6198V17.1889C23.2821 17.2944 23.3122 17.3974 23.3612 17.4924C23.4007 17.5777 23.4501 17.4924 23.5093 17.5777C23.5527 17.6784 23.6022 17.7765 23.6574 17.8717C23.6873 17.9371 23.7273 17.9978 23.7758 18.0519C23.8351 18.0614 23.8351 17.9192 23.8351 17.995C23.8252 18.2606 23.8449 18.0804 23.9042 18.2037C23.9634 18.327 24.0325 18.2701 24.1016 18.2701C24.1883 18.2983 24.2712 18.3365 24.3484 18.3839C24.4005 18.3936 24.4542 18.3936 24.5063 18.3839C24.7334 18.4029 24.9012 18.2416 24.9703 18.2606C25.0394 18.2796 25.0098 18.2132 25.0394 18.1847C25.069 18.1562 25.1282 18.0424 25.1282 18.0993V17.9855C25.2381 17.7465 25.3145 17.4946 25.3553 17.2363C25.4342 16.9517 25.4233 16.6754 25.4233 16.2751C25.4233 15.8748 25.2665 15.3837 25.2665 15.3837C25.227 15.2699 25.1282 15.0928 25.0394 15.0134Z" fill="#1F2227"/>
<path d="M9.28809 34.1957V27.7178C11.7571 27.7291 14.1889 28.3214 16.3866 29.4468C18.5843 30.5721 20.4862 32.199 21.9386 34.1957H9.28809Z" fill="#FDF3DD"/>
<path d="M12.3709 33.4452C12.9261 33.4452 13.4721 33.4452 14.0274 33.4452C14.231 33.4452 14.4072 33.4853 14.6638 33.4853C14.9241 33.4452 14.9528 33.473 15.1471 33.4637C15.6561 33.4637 16.1743 33.4637 16.6833 33.4637C17.1923 33.4637 17.6828 33.3527 18.1825 33.3249C18.6747 33.3759 19.1709 33.3759 19.6632 33.3249C19.7187 33.2694 19.6632 33.3249 19.7557 33.3249C19.8483 33.3249 19.8668 33.3897 19.876 33.3712C19.8853 33.3527 19.876 33.3064 20.0704 33.3712C20.2647 33.436 20.274 33.3712 20.1444 33.2694C20.0539 33.2328 19.9612 33.2019 19.8668 33.1769C19.8668 33.1769 19.8668 33.0288 19.6447 33.1306C19.6447 33.1306 19.6447 33.1306 19.6447 33.0751C19.6447 33.0195 19.5244 32.7512 19.3485 32.7419C19.1998 32.7081 19.0645 32.6308 18.9599 32.5198L18.0344 31.7795C17.8123 31.5759 17.618 31.3445 17.3774 31.1594C17.1368 30.9743 16.7944 30.8911 16.6093 30.6412C16.4237 30.4167 16.1852 30.2418 15.9152 30.1322C15.7672 30.0582 15.6468 29.8638 15.4247 30.0397C15.4247 30.0397 15.3507 30.0397 15.3322 30.0397C15.0361 29.5585 14.4623 29.762 14.0551 29.5492C13.6158 29.338 13.1483 29.1915 12.667 29.1143C12.5467 29.1143 12.4264 28.9939 12.2691 29.1143C12.2348 29.1413 12.1924 29.156 12.1488 29.156C12.1051 29.156 12.0627 29.1413 12.0284 29.1143C11.7323 28.7904 11.3251 28.8829 10.9735 28.8089C10.7841 28.7711 10.5924 28.7464 10.3997 28.7348C10.3182 28.7119 10.2446 28.6671 10.1869 28.6053C10.1409 28.5631 10.0824 28.5371 10.0203 28.5312C10.0203 28.5312 10.0203 28.5312 10.0203 28.5775C10.0561 28.6384 10.0997 28.6943 10.1498 28.7441C10.2516 28.8459 10.1498 28.7904 10.1498 28.8366C10.1498 28.8829 10.2794 28.9014 10.2794 28.9014C10.2465 29.0043 10.2031 29.1035 10.1498 29.1975C10.1409 29.2147 10.1363 29.2337 10.1363 29.2531C10.1363 29.2724 10.1409 29.2914 10.1498 29.3086C10.409 29.9564 10.0573 30.6042 10.1498 31.252C10.2054 31.9109 10.2054 32.5734 10.1498 33.2324C10.1622 33.4322 10.1174 33.6315 10.0207 33.8068C9.92402 33.9821 9.77944 34.1264 9.60385 34.2226C9.52264 34.2822 9.42256 34.3104 9.32216 34.3019C9.22177 34.2934 9.12785 34.2488 9.05784 34.1763C8.95626 34.0733 8.88296 33.9458 8.84499 33.8062L8.71543 33.1861C8.56549 32.7781 8.50551 32.3424 8.5396 31.909C8.5396 31.7795 8.45632 31.6222 8.65991 31.5019C8.65991 31.5019 8.65991 31.4371 8.65991 31.4093C8.4697 30.837 8.42518 30.2263 8.53035 29.6325C8.50363 29.3801 8.46036 29.1297 8.40079 28.8829C8.34557 28.428 8.34557 27.9681 8.40079 27.5133C8.34353 27.3443 8.46564 27.4681 8.46564 27.3248L8.63805 27.2891C8.63805 27.2243 8.81405 26.9963 8.87883 26.9963C9.17385 27.0042 9.03602 26.7748 9.32622 26.8285C9.81669 26.921 10.3072 26.9673 10.6773 27.0136C10.9343 27.0641 11.1938 27.1012 11.4547 27.1246C11.9783 27.1702 12.4979 27.2537 13.0094 27.3745C14.0417 27.6408 15.0506 27.9905 16.0263 28.4202C16.1929 28.4942 16.3964 28.4202 16.5353 28.633C16.6741 28.8459 16.9332 28.8551 17.146 28.9662C17.3453 29.0419 17.53 29.1515 17.692 29.2901C18.3132 29.8437 18.9719 30.3539 19.6632 30.817C20.3017 31.3815 20.7644 31.8072 21.7454 32.8252C22.3195 33.4097 22.8398 34.0446 23.3001 34.7223C23.3431 34.8026 23.3959 34.8772 23.4574 34.9444L23.55 35.0647C23.55 35.111 23.4944 35.0647 23.4759 35.0647C23.2322 35.0849 22.9868 35.0566 22.7541 34.9814C22.5783 34.9259 22.5505 35.111 22.3469 35.1295C21.7782 35.1874 21.2062 35.2059 20.6349 35.185H18.8396C18.5619 35.185 18.2843 35.2961 18.0067 35.3238C17.7143 35.3517 17.4199 35.3517 17.1275 35.3238C16.7574 35.3238 16.3872 35.2128 16.017 35.185C15.6326 35.2268 15.2447 35.2268 14.8602 35.185C14.1859 35.0621 13.4991 35.0217 12.8151 35.0647C12.1395 35.0647 11.4547 35.0647 10.7791 35.0647C10.3904 35.0647 10.048 34.8981 9.66862 34.8981C9.49279 34.8981 9.25218 34.3151 9.32622 34.1115C9.34312 34.0752 9.36851 34.0434 9.40025 34.019C9.73132 33.7732 10.1202 33.6171 10.5293 33.5655C11.1215 33.473 11.7508 33.4452 12.3709 33.4452Z" fill="#1F2227"/>
<path d="M34.8585 34.1957V27.7178C32.3895 27.7291 29.9578 28.3214 27.76 29.4468C25.5623 30.5721 23.6604 32.199 22.208 34.1957H34.8585Z" fill="#FDF3DD"/>
<path d="M31.7772 34.9451C31.2312 34.9451 30.676 34.9451 30.13 34.9451C29.9264 34.9451 29.7135 34.8433 29.5007 35.0562C29.2878 35.269 29.1953 34.9174 29.0102 34.9266C28.492 34.9266 27.983 34.9266 27.4648 34.9266C26.9465 34.9266 26.4746 35.0377 25.9748 35.0654C25.4826 35.0142 24.9864 35.0142 24.4942 35.0654C24.1285 35.1117 23.7585 35.1117 23.3929 35.0654C23.0489 35.0265 22.7026 35.0111 22.3564 35.0192C21.9955 35.0192 21.6253 35.0192 21.2737 35.0192L20.7832 34.9729C20.7184 34.9729 20.6166 34.9729 20.5889 34.9266L20.7925 34.686C21.1602 34.3051 21.4946 33.8933 21.7919 33.4552C21.8926 33.1972 22.0231 32.9519 22.1806 32.7241C22.3842 32.4465 22.7173 32.2799 22.6896 31.9375C22.6896 31.9375 22.8284 31.8265 22.9024 31.7894C23.3004 31.5951 23.4207 31.4933 23.4947 31.2619C23.5479 31.1008 23.6518 30.9613 23.7908 30.864C24.1192 30.5525 24.472 30.2678 24.8458 30.0126C25.1142 29.8275 25.4473 29.7165 25.7712 29.5499C26.0473 29.3248 26.3605 29.1495 26.6967 29.0317C27.0044 28.9597 27.3004 28.8444 27.5758 28.6893C27.7331 28.606 27.8627 28.6615 28.0305 28.4434C28.0305 28.4434 28.1239 28.3206 28.161 28.3669C28.7625 28.4594 29.0195 27.8101 29.5099 27.7268C30.0004 27.6435 30.5557 27.4214 31.0739 27.2641C31.2127 27.2641 31.3793 27.2641 31.4718 27.0698C31.5038 27.0316 31.6046 27.0846 31.6522 27.0698C31.6998 27.055 31.6922 26.9731 31.7402 26.9865C32.1844 27.1438 32.5731 26.931 32.9895 26.931C33.2486 26.931 33.3967 26.8847 33.7391 26.8662C34.114 26.8372 34.4911 26.8621 34.8589 26.9402C35.0189 26.9813 35.1844 26.9969 35.3494 26.9865L35.5752 27.2641C35.5969 27.3386 35.6509 27.4304 35.7079 27.483C35.819 27.5847 35.7936 27.7176 35.7936 27.9952C35.7936 28.2728 35.9231 28.4579 35.9231 28.717C35.9231 28.9762 35.8306 28.9669 35.7843 29.1057C35.7749 29.1421 35.7749 29.1804 35.7843 29.2168C36.0527 29.8646 35.701 30.5123 35.7843 31.1601C35.8398 31.8191 35.8398 32.4816 35.7843 33.1406C35.7966 33.3404 35.7519 33.5396 35.6552 33.715C35.5585 33.8903 35.4139 34.0345 35.2383 34.1308C35.1556 34.1911 35.054 34.2196 34.9521 34.2111C34.8501 34.2026 34.7546 34.1576 34.683 34.0845C34.5842 33.9809 34.514 33.8533 34.4795 33.7143L34.3499 33.0943C34.1955 32.6873 34.1354 32.2507 34.1741 31.8172C34.1741 31.6876 34.0908 31.5303 34.2851 31.41C34.2956 31.3969 34.3014 31.3805 34.3014 31.3637C34.3014 31.3469 34.2956 31.3306 34.2851 31.3175C34.0855 30.7413 34.0252 30.1261 34.1093 29.5221C34.0894 29.2749 34.046 29.0301 33.9797 28.7911C33.9335 28.7355 33.8964 28.7355 33.9797 28.6615C33.7299 28.8096 33.7761 28.8281 33.7761 28.7355C33.7761 28.643 33.7761 28.6245 33.6373 28.6152C33.4985 28.606 33.1654 28.6152 32.934 28.68C32.4713 28.68 32.0086 28.8929 31.5551 28.9484C30.6241 29.16 29.7182 29.4703 28.8529 29.8738C28.7048 29.9386 28.64 30.1237 28.4179 30.1144C28.1958 30.1052 28.0478 30.281 27.8627 30.3735C27.6776 30.4661 27.5481 30.6141 27.363 30.6512C26.6362 30.8883 25.9741 31.2906 25.4288 31.8264C24.9291 32.1722 24.4805 32.5865 24.0962 33.0573C24.0314 33.1961 24.2073 33.2053 24.0962 33.2979C23.9852 33.3904 24.2906 33.2238 23.9204 33.4552C23.8279 33.52 24.1795 33.3441 24.2073 33.3349C24.2686 33.3256 24.331 33.3256 24.3924 33.3349H25.3178C25.5954 33.3349 25.873 33.2238 26.1507 33.1961C26.4586 33.1703 26.7681 33.1703 27.0761 33.1961C27.4462 33.1961 27.8164 33.3071 28.1866 33.3349C28.5711 33.2931 28.9589 33.2931 29.3434 33.3349C30.0177 33.4576 30.7045 33.498 31.3885 33.4552C32.0734 33.4552 32.7489 33.4552 33.4245 33.4552C33.8132 33.4552 34.1648 33.6218 34.535 33.6218C34.7108 33.6218 34.9514 34.2048 34.8774 34.4084C34.8635 34.4465 34.8375 34.479 34.8034 34.5009C34.4723 34.7467 34.0834 34.9028 33.6743 34.9544C33.0265 34.9266 32.4065 34.9451 31.7772 34.9451Z" fill="#1F2227"/>
<path d="M34.7 34.2793H9.46371C8.56418 34.2793 7.83496 35.0085 7.83496 35.908C7.83496 36.8076 8.56418 37.5368 9.46371 37.5368H34.7C35.5995 37.5368 36.3287 36.8076 36.3287 35.908C36.3287 35.0085 35.5995 34.2793 34.7 34.2793Z" fill="#6A36FF"/>
<path d="M9.86282 36.7874C10.8438 36.7874 11.834 36.7874 12.8149 36.7874C13.1953 36.8476 13.5848 36.806 13.9439 36.6671C14.129 36.5653 14.4807 36.8152 14.8231 36.8059C15.7485 36.8059 16.6739 36.8059 17.5994 36.8059L20.2738 36.6764C21.1553 36.7275 22.039 36.7275 22.9205 36.6764C23.6609 36.5653 24.3272 36.7597 25.0397 36.6764C25.7906 36.6023 26.5469 36.6023 27.2978 36.6764C27.8236 36.764 28.3566 36.8011 28.8895 36.7874C29.2224 36.7173 29.5592 36.6679 29.8982 36.6393C30.2314 36.6393 30.6108 36.7504 30.9069 36.5098C30.9069 36.5098 31.0828 36.5098 31.1568 36.5653C31.515 36.6986 31.9091 36.6986 32.2673 36.5653C32.5373 36.4854 32.8193 36.4541 33.1002 36.4728H34.2292H34.7382C34.8057 36.4824 34.8742 36.4824 34.9418 36.4728C35.0562 36.4471 35.1618 36.3916 35.2479 36.3119C35.3341 36.2323 35.3976 36.1314 35.4322 36.0193C35.4785 35.7324 35.2749 35.5288 35.1546 35.3067C35.1183 35.247 35.0699 35.1956 35.0126 35.1557C34.9552 35.1159 34.8901 35.0885 34.8215 35.0754C34.7846 35.0709 34.7473 35.0709 34.7104 35.0754H34.1089C33.8035 35.0754 33.4518 34.9643 33.1835 35.2142C33.1835 35.2142 33.0446 35.2142 32.9891 35.2142C32.1285 34.8903 31.2678 35.316 30.3887 35.2142C29.4639 35.1669 28.5372 35.1669 27.6124 35.2142C27.3626 35.2142 27.1034 35.1402 26.8813 35.3252C26.7322 35.3813 26.5678 35.3813 26.4186 35.3252C25.7326 35.1729 25.0273 35.1261 24.3272 35.1864C23.529 35.2125 22.7302 35.1692 21.9396 35.0569C21.5365 34.9338 21.1013 34.9737 20.7273 35.1679C20.5422 35.2697 20.1535 35.1679 19.8574 35.1679C19.5612 35.1679 19.3947 35.2975 19.1541 35.2975C18.9457 35.281 18.7404 35.2375 18.5433 35.1679C18.4799 35.1492 18.4124 35.1492 18.3489 35.1679C17.1922 35.427 16.0354 35.0754 14.8694 35.1679C13.7033 35.2605 12.5003 35.1679 11.325 35.1679C10.6902 35.2212 10.0596 35.0254 9.56668 34.6219C9.36308 34.4183 9.36308 34.2055 9.64071 34.0759C9.84922 33.9679 10.0745 33.896 10.307 33.8631L11.4083 33.7335C12.1571 33.5821 12.9216 33.523 13.6848 33.5577C13.9254 33.5577 14.2123 33.4744 14.4159 33.678C14.473 33.697 14.5347 33.697 14.5917 33.678C15.6354 33.4868 16.7008 33.4432 17.7567 33.5484C18.6434 33.4328 19.5369 33.3771 20.4311 33.3819C20.9364 33.1787 21.4914 33.1336 22.0229 33.2523C23.798 33.4126 25.582 33.4528 27.3626 33.3726C29.1671 33.3726 30.9717 33.3726 32.7763 33.3726C33.0823 33.3173 33.3957 33.3173 33.7017 33.3726C33.8864 33.4169 34.0768 33.4325 34.2662 33.4189C34.5065 33.4001 34.7478 33.4001 34.988 33.4189C35.5511 33.4712 36.072 33.7399 36.441 34.1685C36.763 34.5796 36.9552 35.0773 36.9931 35.5982C37.031 36.119 36.9129 36.6394 36.6538 37.0928C36.3946 37.5399 35.9942 37.8882 35.5155 38.083C35.2775 38.1837 35.024 38.2432 34.7659 38.2588H34.2014C32.7855 38.2588 31.3696 38.2033 29.963 38.2588C29.1116 38.2588 28.251 38.4347 27.3903 38.3884C27.0202 38.3884 26.6315 38.4994 26.2613 38.2588C26.1595 38.1941 25.8171 38.3791 25.5765 38.3884C24.9935 38.3884 24.4012 38.3884 23.8089 38.3884C22.9853 38.3884 22.1617 38.3884 21.3473 38.3884C20.8476 38.3884 20.3478 38.4995 19.8481 38.5272C19.3484 38.555 18.8024 38.5272 18.2749 38.5272C17.6086 38.5272 16.9516 38.4069 16.2853 38.3884C15.6011 38.4302 14.915 38.4302 14.2308 38.3884C13.0017 38.2546 11.7643 38.2144 10.5291 38.2681H9.6037H9.37234C9.27055 38.2681 9.15949 38.2681 9.05769 38.2681C8.84074 38.2392 8.62892 38.18 8.42841 38.0923C8.02675 37.914 7.68157 37.6291 7.43034 37.2686C7.1791 36.9081 7.0314 36.4856 7.00326 36.0471C6.97507 35.5611 7.13027 35.0822 7.4382 34.7052C7.73218 34.3574 8.1072 34.0873 8.53021 33.9186C8.6423 33.8837 10.7435 33.7706 10.8576 33.7983C10.9717 33.826 11.0998 34.4562 11.1834 34.5386C11.35 34.7052 10.7138 34.7287 10.6583 34.8305C10.6368 34.8727 10.4096 34.9974 10.3655 35.0148C10.167 35.1332 8.97551 35.077 8.74305 35.2701C8.53021 35.4468 8.54683 35.5213 8.52096 35.751C8.47743 35.8967 8.47514 36.0517 8.51435 36.1988C8.55355 36.3458 8.63271 36.4791 8.74305 36.5838C8.85248 36.6886 8.98594 36.7648 9.13173 36.8059H9.35383L9.86282 36.7874Z" fill="#1F2227"/>
<path d="M9.77636 32.2249H11.2814C11.867 32.2249 12.4362 32.2064 12.9726 32.2064C13.3272 32.162 13.6741 32.0083 13.996 31.753C14.0234 31.7354 14.0465 31.7028 14.0617 31.6604C14.1274 31.4568 13.9139 30.8738 13.7552 30.8738C13.4104 30.883 13.093 30.7072 12.7427 30.7072H10.8928C10.2699 30.7596 9.64537 30.7193 9.02656 30.5869L8.78027 32.2064C8.95541 32.1971 9.13602 32.447 9.22906 32.3452C9.40047 32.2146 9.5909 32.1728 9.77636 32.2249Z" fill="#1F2227"/>
<path d="M34.0588 32.2249H32.501C31.8949 32.2249 31.3057 32.2064 30.7506 32.2064C30.3835 32.162 30.0245 32.0083 29.6913 31.753C29.6629 31.7354 29.639 31.7028 29.6233 31.6604C29.5553 31.4568 29.7762 30.8738 29.9405 30.8738C30.2974 30.883 30.626 30.7072 30.9885 30.7072H32.9032C33.548 30.7596 34.1944 30.7193 34.8349 30.5869L35.0898 32.2064C34.9086 32.1971 34.7216 32.447 34.6253 32.3452C34.4479 32.2146 34.2508 32.1728 34.0588 32.2249Z" fill="#1F2227"/>
</svg>
