<svg width="200" height="170" viewBox="0 0 200 170" fill="none" xmlns="http://www.w3.org/2000/svg">
	<mask id="mask0_1377_13489" style="mask-type:alpha" maskUnits="userSpaceOnUse" x="0" y="0" width="200" height="170">
	<path d="M0 0H200V130C200 152.091 182.091 170 160 170H0V0Z" fill="#C4C4C4"/>
	</mask>
	<g mask="url(#mask0_1377_13489)">
	<path d="M97.141 43.6968C89.2171 59.2203 81.8347 78.6275 87.8159 96.182C91.419 106.757 103.018 111.703 113.426 113.187C129.411 115.465 142.705 103.121 151.998 91.3994C157.776 84.1114 164.405 75.2914 165.2 65.6571" stroke="#343A40" stroke-width="5.62629" stroke-linecap="round"/>
	<path d="M116.397 18.3171C112.053 21.5662 108.937 24.9415 106.854 29.9694C105.885 32.3084 106.017 35.1703 105.81 37.6695C105.24 44.5834 110.393 49.1907 116.019 52.6087" stroke="#343A40" stroke-width="5.62629" stroke-linecap="round"/>
	<path d="M139.872 25.9742C136.277 30.0518 132.475 34.5799 131.44 40.1243C130.724 43.9644 132.693 47.8304 133.779 51.395C134.966 55.2882 137.111 57.1383 140.436 59.2992C141.337 59.8842 147.016 63.1882 147.138 61.7137" stroke="#343A40" stroke-width="5.62629" stroke-linecap="round"/>
	<path d="M162.74 36.0349C159.85 45.819 158.736 65.1876 172.336 68.2893" stroke="#343A40" stroke-width="5.62629" stroke-linecap="round"/>
	<path d="M109.829 53.3243C104.388 52.7611 98.2035 50.3753 94.244 55.1255C92.1881 57.5919 89.4315 62.8289 89.1633 66.0791C88.8956 69.3223 93.1969 71.3779 95.6634 72.5856C100.063 74.74 105.11 76.5886 110.009 76.9929C116.783 77.5518 119.808 71.037 120.281 65.3099C120.446 63.3074 121.406 60.7391 119.297 59.6218C116.437 58.1067 113.243 56.6776 110.506 55.0147" stroke="#343A40" stroke-width="5.62629" stroke-linecap="round"/>
	<path d="M141.729 62.9013C134.53 62.4068 125.373 60.826 121.476 68.4487C118.969 73.3523 120.516 77.5186 124.964 80.6541C130.303 84.4181 145.744 91.6119 147.342 80.7074C147.83 77.372 148.292 71.0909 145.791 68.1397" stroke="#343A40" stroke-width="5.62629" stroke-linecap="round"/>
	<path d="M131.555 72.2773C132.911 73.8285 133.405 74.6135 133.584 72.4448" stroke="#343A40" stroke-width="5.62629" stroke-linecap="round"/>
	<path d="M110.854 65.6667C109.941 65.5914 108.262 65.0537 107.491 65.707C107.044 66.0855 107.032 66.3277 107.507 66.6163" stroke="#343A40" stroke-width="5.62629" stroke-linecap="round"/>
	<path d="M103.343 18.0583C97.9168 20.234 93.577 22.5205 93.0636 28.7418C92.7604 32.4165 93.7507 35.7298 95.0747 39.0321" stroke="#343A40" stroke-width="5.62629" stroke-linecap="round"/>
	<path d="M163.518 76.143C164.346 75.7856 168.182 73.439 169.176 74.4307C170.011 75.2646 170.472 76.3612 171.378 77.1775C172.59 78.2699 172.997 79.6233 173.224 81.2116C173.746 84.8525 173.993 90.3355 170.742 92.8563C168.333 94.7245 164.433 94.5658 161.397 94.9681C158.367 95.3695 155.547 94.3607 152.677 93.6356" stroke="#343A40" stroke-width="5.62629" stroke-linecap="round"/>
	<path d="M111.61 81.2549C109.18 81.1652 107.005 81.7328 105.378 83.6009C102.966 86.371 109.948 83.8003 110.598 83.623C112.385 83.135 117.292 80.4939 116.694 83.7402C116.547 84.5401 116.183 85.2592 116.116 86.0759C116.087 86.423 118.21 85.085 118.534 84.8227C120.724 83.0508 120.395 82.3856 121.097 85.125C121.218 85.5957 121.77 87.557 122.572 87.0627C123.168 86.6949 123.229 86.218 123.624 86.9679C124.051 87.7789 124.069 90.7007 125.431 89.546C127.262 87.9946 126.429 89.0154 128.12 89.1549" stroke="#343A40" stroke-width="5.62629" stroke-linecap="round"/>
	<path d="M91.5656 91.4515C91.1452 92.2681 89.7868 93.7507 89.7082 94.7033C89.6945 94.8693 91.2174 94.4889 91.2242 94.4879C92.3223 94.3281 93.5616 94.1133 94.6753 94.2052C96.6485 94.368 90.4149 102.948 94.6217 102.282C96.7049 101.952 98.7715 101.49 100.877 101.3C102.398 101.163 101.605 103.488 101.526 104.441C101.42 105.731 100.684 107.54 102.535 107.066C103.941 106.707 106.99 104.525 108.346 104.867C108.617 104.936 108.882 107.435 109.014 107.783C109.686 109.557 110.072 108.605 111.473 107.418C113.137 106.007 113.247 105.511 114.796 107.034C115.523 107.749 116.094 108.827 117.2 108.436C119.183 107.733 120.878 106.591 122.682 105.551C124.017 104.781 123.776 106.24 124.625 106.756C125.055 107.017 125.88 106.383 126.301 106.258C126.723 106.133 127.404 106.667 127.898 106.708" stroke="#343A40" stroke-width="5.62629" stroke-linecap="round"/>
	<path d="M187.565 37.266C190.901 42.6879 192.85 47.4868 192.324 53.8667C191.85 59.6046 191.219 65.511 189.767 71.0895C188.861 74.5745 187.457 75.7271 184.501 77.692C183.071 78.6427 179.162 79.4585 180.667 81.2347" stroke="#343A40" stroke-width="5.62629" stroke-linecap="round"/>
	<path d="M123.779 116.992C124.76 120.137 126.093 123.617 125.816 126.966C125.651 128.972 126.078 130.005 127.394 131.5C129.937 134.388 136.132 134.81 138.494 131.781C140.068 129.763 139.837 127.026 140.51 124.683C141.144 122.477 141.101 119.993 141.29 117.71C141.552 114.532 141.001 111.306 141.256 108.219" stroke="#343A40" stroke-width="5.62629" stroke-linecap="round"/>
	<path d="M139.786 130.979C148.407 139.705 159.883 147.975 165.244 159.458C166.874 162.949 168.222 166.482 170.085 169.845" stroke="#343A40" stroke-width="5.62629" stroke-linecap="round"/>
	<path d="M121.457 130.283C110.995 138.258 100.265 149.415 99.13 163.172" stroke="#343A40" stroke-width="5.62629" stroke-linecap="round"/>
	<path d="M176.498 59.3191C176.276 62.0038 175.936 64.6172 175.57 67.2281C175.33 68.9378 173.657 70.3883 173.522 72.0157" stroke="#343A40" stroke-width="5.62629" stroke-linecap="round"/>
	<path d="M108.111 145.573C107.798 149.988 108.171 154.596 108.753 158.97C108.897 160.058 108.943 161.234 109.181 162.305C109.281 162.754 109.179 165.171 109.79 164.927" stroke="#343A40" stroke-width="5.62629" stroke-linecap="round"/>
	<path d="M118.983 135.553C118.941 138.041 119.657 140.518 120.12 142.949C120.691 145.949 121.188 148.949 121.546 151.983C121.855 154.605 122.468 157.244 122.654 159.874C122.737 161.055 122.771 162.233 122.97 163.394C123.071 163.988 123.259 165.769 123.308 165.169" stroke="#343A40" stroke-width="5.62629" stroke-linecap="round"/>
	<path d="M133.712 136.985C133.502 142.385 135.356 147.856 136.038 153.19C136.44 156.326 136.929 159.528 137.05 162.687C137.087 163.667 137.364 164.909 137.774 165.815C137.874 166.035 137.751 166.359 137.872 166.539C138.133 166.927 139.403 164.531 139.535 164.323" stroke="#343A40" stroke-width="5.62629" stroke-linecap="round"/>
	<path d="M146.095 140.408C146.862 146.595 148.24 152.382 149.84 158.38C150.447 160.656 151.449 162.766 152.143 165.023C152.384 165.807 152.619 166.624 152.869 167.388C153.218 168.453 152.702 168.398 153.888 167.69" stroke="#343A40" stroke-width="5.62629" stroke-linecap="round"/>
	<path d="M113.401 139.678C122.488 140.427 131.743 141.759 140.887 141.618C143.298 141.581 145.734 141.909 148.137 142.107" stroke="#343A40" stroke-width="5.62629" stroke-linecap="round"/>
	<path d="M103.979 150.691C118.984 151.929 134.015 152.733 149.016 153.971C151.022 154.136 152.995 153.948 154.989 154.354C156.079 154.576 157.195 154.681 158.306 154.725C158.509 154.733 160.317 154.657 159.318 154.821" stroke="#343A40" stroke-width="5.62629" stroke-linecap="round"/>
	<path d="M99.0359 162.946C98.4865 165.952 98.3184 168.994 98.0673 172.037" stroke="#343A40" stroke-width="5.62629" stroke-linecap="round"/>
	<path d="M170.625 171.256C170.676 171.928 172.112 178.838 171.734 178.99" stroke="#343A40" stroke-width="5.62629" stroke-linecap="round"/>
	<path d="M103.015 167.642C112.117 168.338 121.117 166.937 130.201 167.471C136.387 167.836 142.6 167.633 148.779 168.143C152.787 168.474 156.818 168.37 160.815 168.7C162.506 168.839 164.196 168.979 165.887 169.118C166.399 169.16 168.872 168.92 167.731 169.27" stroke="#343A40" stroke-width="5.62629" stroke-linecap="round"/>
	<path d="M110.189 168.016C110.211 169.882 110.161 171.638 110.565 173.457C110.741 174.249 110.382 174.533 111.405 174.448" stroke="#343A40" stroke-width="5.62629" stroke-linecap="round"/>
	<path d="M125.01 168.365C124.883 170.353 125.427 172.194 125.575 174.162C125.624 174.817 125.454 176.151 126.083 176.533" stroke="#343A40" stroke-width="5.62629" stroke-linecap="round"/>
	<path d="M137.389 169.168C138.544 171.502 139.63 173.915 141.013 176.115C141.309 176.585 141.549 177.09 141.839 177.566C142.346 178.395 145.536 177.958 146.269 177.98" stroke="#343A40" stroke-width="5.62629" stroke-linecap="round"/>
	<path d="M154.305 170.565C154.496 172.487 155.637 174.28 156.478 175.985" stroke="#343A40" stroke-width="5.62629" stroke-linecap="round"/>
	<path d="M148.854 75.7578L161.345 76.7886" stroke="#343A40" stroke-width="5.62629" stroke-linecap="round"/>
	<path d="M86.5215 55.8497C87.5396 55.7915 88.5193 55.7411 89.5311 55.8246" stroke="#343A40" stroke-width="5.62629" stroke-linecap="round"/>
	<path d="M139.386 93.1049C138.398 93.556 137.42 94.4905 137.067 95.511C136.724 96.5002 136.268 97.6304 136.268 98.687C136.268 99.3097 136.174 99.9462 136.528 100.487C137.079 101.33 138.363 102.2 139.382 102.2C139.869 102.2 140.487 102.32 140.945 102.157C141.143 102.086 141.436 102.107 141.6 101.974C141.8 101.81 141.975 101.603 142.158 101.42C142.516 101.062 142.505 100.304 142.505 99.8227C142.505 99.1129 142.377 98.4439 142.264 97.7534C142.102 96.7627 141.827 95.6486 141.287 94.7939C141.012 94.3585 140.764 93.9211 140.469 93.4947C140.358 93.3342 140.027 92.9316 140.339 92.9316" stroke="#5DBDF3" stroke-width="2.49194" stroke-linecap="round"/>
	<path d="M140.009 93.8174C139.723 93.9971 139.413 94.133 139.114 94.2898C138.87 94.4179 138.586 94.5302 138.374 94.7097C138.271 94.7962 138.138 94.8877 138.06 94.997C138.024 95.0469 138.181 94.9774 138.241 94.9639C138.664 94.8681 139.09 94.7916 139.519 94.7277C139.852 94.678 140.232 94.5818 140.573 94.6241C140.617 94.6295 141.232 94.7143 141.222 94.7373C141.171 94.8524 140.901 94.933 140.796 94.9721C140.172 95.2059 139.519 95.3308 138.907 95.6103C138.447 95.8205 138.115 96.1321 137.733 96.4418C137.625 96.5292 137.484 96.5962 137.401 96.7098C137.33 96.8075 137.996 96.6896 138.002 96.6891C138.736 96.6353 139.473 96.6085 140.208 96.5883C140.28 96.5863 141.204 96.494 141.23 96.6311C141.254 96.756 141.026 96.9435 140.954 97.0082C140.628 97.2999 140.191 97.4937 139.778 97.6242C139.22 97.8006 138.628 97.8649 138.074 98.0566C138.027 98.0729 137.97 98.1011 137.97 98.156C137.97 98.233 137.848 98.5769 137.968 98.5608C138.989 98.4227 140.036 98.328 141.067 98.3177C141.106 98.3173 141.253 98.2973 141.302 98.3232C141.414 98.3819 141.503 98.5218 141.512 98.6436C141.538 99.0073 141.109 99.056 140.836 99.0705C140.19 99.1047 139.54 99.0576 138.893 99.0691C138.562 99.0749 138.122 99.0353 137.807 99.1741C137.697 99.2229 137.583 99.3123 137.487 99.3854C137.247 99.5682 137.277 99.7903 137.578 99.9227C138.131 100.166 138.749 100.168 139.318 100.343C139.588 100.425 139.747 100.708 139.993 100.834C140.259 100.972 140.489 100.971 140.772 100.884C140.921 100.838 141.112 100.771 141.203 100.635C141.248 100.567 141.287 100.481 141.296 100.398C141.331 100.094 141.352 99.7918 141.352 99.4862" stroke="#5DBDF3" stroke-width="2.49194" stroke-linecap="round"/>
	<path d="M145.783 110.373C144.795 110.825 143.817 111.759 143.463 112.78C143.121 113.769 142.665 114.899 142.665 115.956C142.665 116.578 142.571 117.215 142.924 117.755C143.476 118.598 144.759 119.468 145.778 119.468C146.265 119.468 146.883 119.589 147.342 119.425C147.54 119.355 147.833 119.376 147.996 119.242C148.197 119.078 148.371 118.872 148.555 118.689C148.913 118.331 148.901 117.573 148.901 117.091C148.901 116.381 148.774 115.712 148.66 115.022C148.498 114.031 148.223 112.917 147.684 112.063C147.409 111.627 147.161 111.19 146.866 110.763C146.754 110.603 146.423 110.2 146.736 110.2" stroke="#5DBDF3" stroke-width="2.49194" stroke-linecap="round"/>
	<path d="M146.406 111.086C146.12 111.266 145.809 111.402 145.51 111.558C145.266 111.686 144.982 111.799 144.77 111.978C144.668 112.065 144.535 112.156 144.457 112.266C144.421 112.315 144.578 112.246 144.638 112.232C145.06 112.137 145.487 112.06 145.915 111.996C146.248 111.947 146.628 111.85 146.969 111.893C147.013 111.898 147.629 111.983 147.618 112.006C147.567 112.121 147.298 112.202 147.193 112.241C146.568 112.474 145.915 112.599 145.303 112.879C144.843 113.089 144.512 113.401 144.129 113.71C144.021 113.798 143.88 113.865 143.798 113.978C143.727 114.076 144.392 113.958 144.399 113.958C145.132 113.904 145.869 113.877 146.604 113.857C146.677 113.855 147.6 113.763 147.627 113.9C147.651 114.025 147.423 114.212 147.35 114.277C147.024 114.568 146.588 114.762 146.175 114.893C145.617 115.069 145.024 115.133 144.47 115.325C144.423 115.341 144.367 115.37 144.367 115.425C144.367 115.502 144.245 115.845 144.364 115.829C145.385 115.691 146.432 115.597 147.464 115.586C147.503 115.586 147.649 115.566 147.698 115.592C147.81 115.65 147.9 115.79 147.908 115.912C147.934 116.276 147.506 116.325 147.233 116.339C146.587 116.373 145.936 116.326 145.289 116.338C144.958 116.343 144.518 116.304 144.204 116.443C144.093 116.491 143.979 116.581 143.883 116.654C143.643 116.837 143.674 117.059 143.974 117.191C144.528 117.435 145.146 117.437 145.715 117.611C145.984 117.694 146.144 117.976 146.389 118.103C146.656 118.241 146.885 118.24 147.168 118.153C147.317 118.107 147.509 118.04 147.599 117.904C147.645 117.835 147.683 117.749 147.693 117.666C147.728 117.363 147.748 117.06 147.748 116.755" stroke="#5DBDF3" stroke-width="2.49194" stroke-linecap="round"/>
	<path d="M97.0231 69.8471C96.035 70.2981 95.0568 71.2327 94.7036 72.2531C94.3612 73.2424 93.9048 74.3725 93.9048 75.4292C93.9048 76.0519 93.8112 76.6883 94.1646 77.2289C94.7158 78.0718 95.9994 78.9421 97.0182 78.9421C97.5056 78.9421 98.1232 79.0627 98.5822 78.8987C98.7798 78.8282 99.0732 78.8496 99.2367 78.7159C99.437 78.5519 99.6117 78.3456 99.7949 78.1625C100.153 77.8045 100.141 77.0462 100.141 76.5648C100.141 75.8551 100.014 75.1861 99.9007 74.4956C99.7383 73.5049 99.4636 72.3908 98.9239 71.5361C98.6489 71.1007 98.401 70.6633 98.1058 70.2369C97.9947 70.0764 97.6633 69.6738 97.9759 69.6738" stroke="#5DBDF3" stroke-width="2.49194" stroke-linecap="round"/>
	<path d="M97.6458 70.5605C97.3601 70.7403 97.0493 70.8762 96.7507 71.033C96.5066 71.1611 96.2224 71.2734 96.0103 71.4529C95.9082 71.5393 95.7749 71.6308 95.6968 71.7402C95.6611 71.7901 95.8179 71.7206 95.8777 71.707C96.3004 71.6112 96.7269 71.5348 97.1554 71.4708C97.4883 71.4211 97.8684 71.3249 98.2094 71.3672C98.2534 71.3727 98.8688 71.4575 98.8586 71.4805C98.8074 71.5956 98.5379 71.6761 98.4331 71.7153C97.8083 71.949 97.1553 72.074 96.5435 72.3535C96.0834 72.5637 95.7521 72.8753 95.3694 73.185C95.2615 73.2724 95.1205 73.3394 95.0379 73.453C94.9669 73.5506 95.6325 73.4327 95.6388 73.4323C96.3723 73.3785 97.1095 73.3516 97.8447 73.3314C97.9171 73.3294 98.8405 73.2372 98.8669 73.3743C98.8909 73.4991 98.663 73.6867 98.5906 73.7513C98.2644 74.043 97.828 74.2369 97.4151 74.3674C96.857 74.5438 96.2645 74.608 95.7106 74.7997C95.6635 74.816 95.607 74.8443 95.607 74.8992C95.607 74.9761 95.4848 75.3201 95.6042 75.3039C96.6257 75.1659 97.6726 75.0711 98.7039 75.0608C98.743 75.0604 98.8895 75.0405 98.9387 75.0663C99.0502 75.125 99.14 75.265 99.1487 75.3868C99.1746 75.7505 98.7461 75.7992 98.4732 75.8136C97.8271 75.8478 97.1766 75.8008 96.5297 75.8122C96.1986 75.8181 95.7586 75.7784 95.444 75.9172C95.3334 75.966 95.2195 76.0554 95.1235 76.1286C94.8836 76.3113 94.9141 76.5335 95.2147 76.6659C95.7679 76.9095 96.386 76.9112 96.9552 77.0858C97.2242 77.1683 97.3842 77.4511 97.6292 77.5775C97.896 77.7152 98.1254 77.7146 98.4083 77.6273C98.5576 77.5812 98.7489 77.5141 98.8392 77.3786C98.8851 77.3098 98.9237 77.2238 98.9332 77.141C98.968 76.8371 98.9884 76.535 98.9884 76.2294" stroke="#5DBDF3" stroke-width="2.49194" stroke-linecap="round"/>
	<path d="M101.176 88.1215C100.188 88.5726 99.2101 89.5071 98.8569 90.5276C98.5145 91.5168 98.0581 92.647 98.0581 93.7036C98.0581 94.3263 97.9645 94.9628 98.318 95.5033C98.8691 96.3462 100.153 97.2165 101.172 97.2165C101.659 97.2165 102.277 97.3371 102.736 97.1732C102.933 97.1026 103.227 97.124 103.39 96.9903C103.59 96.8264 103.765 96.62 103.948 96.4369C104.306 96.0789 104.295 95.3206 104.295 94.8393C104.295 94.1295 104.167 93.4605 104.054 92.77C103.892 91.7793 103.617 90.6652 103.077 89.8105C102.802 89.3751 102.554 88.9377 102.259 88.5113C102.148 88.3508 101.817 87.9482 102.129 87.9482" stroke="#5DBDF3" stroke-width="2.49194" stroke-linecap="round"/>
	<path d="M101.799 88.834C101.513 89.0137 101.203 89.1496 100.904 89.3064C100.66 89.4345 100.376 89.5468 100.164 89.7263C100.061 89.8128 99.9282 89.9043 99.8501 90.0136C99.8145 90.0635 99.9713 89.994 100.031 89.9805C100.454 89.8847 100.88 89.8082 101.309 89.7443C101.642 89.6946 102.022 89.5984 102.363 89.6407C102.407 89.6461 103.022 89.7309 103.012 89.7539C102.961 89.869 102.691 89.9496 102.586 89.9887C101.962 90.2225 101.309 90.3474 100.697 90.6269C100.237 90.8371 99.9054 91.1487 99.5227 91.4585C99.4148 91.5458 99.2738 91.6128 99.1912 91.7264C99.1202 91.8241 99.7858 91.7062 99.7921 91.7057C100.526 91.6519 101.263 91.6251 101.998 91.6049C102.07 91.6029 102.994 91.5106 103.02 91.6477C103.044 91.7726 102.816 91.9601 102.744 92.0248C102.418 92.3165 101.981 92.5103 101.568 92.6408C101.01 92.8172 100.418 92.8815 99.8639 93.0732C99.8168 93.0895 99.7603 93.1177 99.7603 93.1726C99.7603 93.2496 99.6381 93.5935 99.7576 93.5774C100.779 93.4393 101.826 93.3446 102.857 93.3343C102.896 93.3339 103.043 93.3139 103.092 93.3398C103.204 93.3985 103.293 93.5384 103.302 93.6602C103.328 94.0239 102.899 94.0726 102.627 94.0871C101.98 94.1213 101.33 94.0742 100.683 94.0857C100.352 94.0915 99.9119 94.0519 99.5973 94.1907C99.4867 94.2395 99.3728 94.3289 99.2769 94.402C99.037 94.5848 99.0674 94.8069 99.368 94.9393C99.9212 95.183 100.539 95.1847 101.108 95.3592C101.378 95.4418 101.537 95.7245 101.783 95.851C102.049 95.9887 102.279 95.9881 102.562 95.9007C102.711 95.8546 102.902 95.7876 102.993 95.6521C103.038 95.5833 103.077 95.4973 103.086 95.4145C103.121 95.1106 103.142 94.8084 103.142 94.5028" stroke="#5DBDF3" stroke-width="2.49194" stroke-linecap="round"/>
	<path d="M36.2147 22.2744C35.7544 24.2819 35.2305 26.2433 35.2305 28.303" stroke="#343A40" stroke-width="4.15323" stroke-linecap="round"/>
	<path d="M30.8008 29.4101C34.1626 29.3401 37.5262 28.7949 40.8895 28.7949" stroke="#343A40" stroke-width="4.15323" stroke-linecap="round"/>
	<path d="M36.4612 32.7324C35.4807 33.4354 32.8877 35.7947 34.062 37.23C35.6035 39.114 38.1432 39.9572 40.2615 38.597C42.4026 37.2222 40.6144 35.6503 39.3115 34.5916C38.5262 33.9536 37.4982 33.3476 36.4612 33.3476" stroke="#343A40" stroke-width="4.15323" stroke-linecap="round"/>
	<path d="M48.3944 32.1182C48.3281 35.0353 47.2871 37.9189 47.2871 40.8535" stroke="#343A40" stroke-width="4.15323" stroke-linecap="round"/>
	<path d="M46.7958 44.1738C45.7887 44.0499 45.1956 43.9566 44.3624 44.5429C43.8126 44.9298 43.3156 45.9796 43.2346 46.6276C43.0259 48.2975 45.0577 49.2595 46.3515 49.6351C47.5231 49.9753 49.3208 48.9098 49.3794 47.6187C49.4112 46.9191 49.4631 46.1375 49.2564 45.4657C49.0563 44.8152 48.3096 44.4039 47.78 44.0508" stroke="#343A40" stroke-width="4.15323" stroke-linecap="round"/>
	<path d="M55.5303 48.7266C55.7714 48.4782 56.2579 48.1053 56.1386 47.6877C56.0943 47.5327 55.9488 47.4744 55.872 47.6193C55.6961 47.9515 55.6124 48.1526 55.7763 48.4805" stroke="#343A40" stroke-width="4.15323" stroke-linecap="round"/>
	<path d="M61.4366 47.6191C61.3774 47.6796 60.1511 49.0328 60.8488 48.6034C61.1187 48.4373 61.3282 48.4365 61.4366 48.1113" stroke="#343A40" stroke-width="4.15323" stroke-linecap="round"/>
	<path d="M80.1606 49.5323C77.9466 48.2256 75.7602 46.7528 73.7857 45.1092C72.2947 43.8681 71.43 42.3068 70.6218 40.568C68.8748 36.8093 68.4482 32.6086 66.4821 28.9122C64.354 24.9115 60.9655 21.5946 57.2817 19.0192C52.9882 16.0176 48.5163 13.8851 43.3828 12.849C40.9453 12.357 38.4064 12.2286 35.9297 12.0541C33.2433 11.8647 30.5848 12.173 28.0122 12.9749C22.7878 14.6033 18.0808 17.4768 15.5457 22.4664C11.2915 30.8399 16.6198 39.2546 21.8498 45.6916C25.4761 50.1548 30.5086 53.3784 35.8667 55.3877C41.0313 57.3244 46.8374 58.589 52.2998 59.1655C56.7955 59.6399 61.4703 58.7739 65.758 57.434C68.5378 56.5653 71.3995 55.8481 74.006 54.522C74.9706 54.0313 75.7976 53.3062 76.6977 52.7118C77.3867 52.2568 78.052 51.7038 78.6337 51.1221C78.9005 50.8553 79.4397 50.6907 79.5939 50.3823" stroke="#343A40" stroke-width="4.15323" stroke-linecap="round"/>
	</g>
	</svg>
	