<svg width="200" height="170" viewBox="0 0 200 170" fill="none" xmlns="http://www.w3.org/2000/svg">
	<mask id="mask0_1209_13339" style="mask-type:alpha" maskUnits="userSpaceOnUse" x="0" y="0" width="200" height="170">
		<path d="M0 0H200V130C200 152.091 182.091 170 160 170H0V0Z" fill="#C4C4C4" />
	</mask>
	<g mask="url(#mask0_1209_13339)">
		<path d="M38.6929 69.2402C43.4082 69.4337 48.1128 69.6481 52.8307 69.6481C55.3657 69.6481 58.1617 69.3085 60.6247 69.9653C62.917 70.5765 66.0472 70.4637 68.4639 70.4637" stroke="#F35D78" stroke-width="5.63462" stroke-linecap="round" />
		<path d="M96.1958 41.916C89.5656 58.0624 83.7957 78.0406 91.2113 95.0689C95.6784 105.327 107.662 109.308 118.173 109.932C134.315 110.889 146.567 97.4739 154.877 85.0093C160.043 77.2594 165.933 67.9103 165.933 58.2289" stroke="#343A40" stroke-width="5.63462" stroke-linecap="round" />
		<path d="M113.324 15C109.257 18.6006 106.425 22.2261 104.76 27.4159C103.986 29.8303 104.352 32.6758 104.352 35.1872C104.352 42.1349 109.875 46.309 115.771 49.2571" stroke="#343A40" stroke-width="5.63462" stroke-linecap="round" />
		<path d="M137.385 20.709C134.133 25.0749 130.711 29.9075 130.135 35.5265C129.736 39.4183 132.02 43.1148 133.398 46.5831C134.902 50.3711 137.196 52.0409 140.693 53.9239C141.64 54.4336 147.581 57.2634 147.581 55.7817" stroke="#343A40" stroke-width="5.63462" stroke-linecap="round" />
		<path d="M161.04 28.8662C158.961 38.8697 159.445 58.2929 173.274 60.2686" stroke="#343A40" stroke-width="5.63462" stroke-linecap="round" />
		<path d="M109.654 50.4797C104.178 50.3656 97.8082 48.4938 94.2475 53.561C92.3987 56.1919 90.0786 61.6461 90.0786 64.9121C90.0786 68.1711 94.5409 69.8686 97.1022 70.8708C101.671 72.6587 106.861 74.0881 111.784 74.0881C118.59 74.0881 121.073 67.3366 121.073 61.5815C121.073 59.5692 121.82 56.9268 119.623 55.9853C116.644 54.7085 113.338 53.5453 110.47 52.111" stroke="#343A40" stroke-width="5.63462" stroke-linecap="round" />
		<path d="M142.279 57.4131C135.054 57.5124 125.784 56.6888 122.523 64.618C120.425 69.7186 122.311 73.7496 127.009 76.5128C132.648 79.8298 148.652 85.7381 149.348 74.7229C149.561 71.3536 149.505 65.0465 146.765 62.307" stroke="#343A40" stroke-width="5.63462" stroke-linecap="round" />
		<path d="M132.899 67.6084C134.381 69.0449 134.939 69.7877 134.939 67.6084" stroke="#343A40" stroke-width="5.63462" stroke-linecap="round" />
		<path d="M111.693 62.7151C110.775 62.7151 109.055 62.3167 108.339 63.0323C107.925 63.4469 107.932 63.6896 108.43 63.9385" stroke="#343A40" stroke-width="5.63462" stroke-linecap="round" />
		<path d="M100.274 15.8154C95.0372 18.4338 90.894 21.0734 90.894 27.3251C90.894 31.0177 92.1553 34.2431 93.7488 37.43" stroke="#343A40" stroke-width="5.63462" stroke-linecap="round" />
		<path d="M165.118 68.8325C165.914 68.4076 169.55 65.7495 170.623 66.6574C171.526 67.421 172.076 68.4775 173.048 69.2177C174.348 70.2081 174.865 71.5255 175.223 73.092C176.043 76.683 176.741 82.1351 173.705 84.9188C171.454 86.9819 167.548 87.1447 164.551 87.7962C161.56 88.4465 158.662 87.6718 155.738 87.1845" stroke="#343A40" stroke-width="5.63462" stroke-linecap="round" />
		<path d="M113.732 78.2119C111.299 78.3225 109.175 79.0681 107.705 81.0667C105.526 84.0302 112.282 80.8893 112.916 80.6588C114.66 80.0246 119.34 76.9844 119.011 80.2737C118.93 81.0842 118.626 81.8319 118.626 82.6526C118.626 83.0014 120.635 81.4911 120.937 81.2026C122.976 79.2537 122.593 78.6169 123.52 81.2932C123.679 81.7531 124.392 83.6651 125.151 83.1058C125.716 82.6896 125.737 82.2085 126.193 82.9245C126.686 83.6988 126.945 86.6135 128.21 85.3488C129.909 83.6497 129.161 84.7371 130.86 84.7371" stroke="#343A40" stroke-width="5.63462" stroke-linecap="round" />
		<path d="M94.5645 90.0391C94.2122 90.8887 92.9785 92.4803 92.9785 93.4376C92.9785 93.6044 94.4672 93.0993 94.4739 93.0977C95.5567 92.8478 96.776 92.5313 97.895 92.5313C99.8779 92.5313 94.3629 101.608 98.5068 100.597C100.559 100.097 102.583 99.4646 104.669 99.1018C106.176 98.8398 105.576 101.226 105.576 102.183C105.576 103.479 104.99 105.346 106.799 104.721C108.173 104.246 111.036 101.817 112.418 102.047C112.694 102.093 113.164 104.566 113.324 104.902C114.141 106.617 114.448 105.636 115.749 104.336C117.294 102.79 117.363 102.286 119.034 103.678C119.819 104.332 120.477 105.362 121.549 104.879C123.47 104.015 125.068 102.736 126.782 101.549C128.052 100.67 127.932 102.146 128.822 102.591C129.272 102.816 130.043 102.116 130.453 101.957C130.864 101.797 131.587 102.274 132.084 102.274" stroke="#343A40" stroke-width="5.63462" stroke-linecap="round" />
		<path d="M185.916 28.0498C189.693 33.1865 192.034 37.8158 192.034 44.2268C192.034 49.9928 191.89 55.9399 190.901 61.6272C190.283 65.1802 188.976 66.4462 186.188 68.6508C184.839 69.7175 181.005 70.8536 182.654 72.5025" stroke="#343A40" stroke-width="5.63462" stroke-linecap="round" />
		<path d="M128.821 112.877C130.059 115.936 131.676 119.299 131.676 122.665C131.676 124.681 132.187 125.676 133.624 127.06C136.4 129.734 142.617 129.644 144.726 126.426C146.13 124.283 145.675 121.569 146.153 119.176C146.604 116.922 146.357 114.446 146.357 112.152C146.357 108.958 145.542 105.784 145.542 102.682" stroke="#343A40" stroke-width="5.63462" stroke-linecap="round" />
		<path d="M145.95 125.52C155.273 133.518 167.408 140.828 173.705 151.847C175.619 155.197 177.256 158.612 179.392 161.816" stroke="#343A40" stroke-width="5.63462" stroke-linecap="round" />
		<path d="M127.598 126.335C117.812 135.156 108.022 147.176 108.022 161" stroke="#343A40" stroke-width="5.63462" stroke-linecap="round" />
		<path d="M38.2842 61.0837C37.3625 66.0175 35.4117 72.7408 38.692 77.1927C40.6737 79.882 43.3152 81.9187 46.6219 82.7889C52.1422 84.2416 58.2872 85.4283 63.3426 82.2905C66.9981 80.0216 69.7817 75.8492 72.1335 72.3215C73.5815 70.1494 74.5804 67.0793 74.5804 64.4369C74.5804 61.4743 74.0621 61.3621 70.91 60.9024C67.5686 60.4152 64.0579 60.0809 60.6918 59.8829C56.2363 59.6208 51.8821 59.4567 47.4829 58.954C44.3886 58.6003 41.3675 58.4279 38.2842 59.0446" stroke="#343A40" stroke-width="5.63462" stroke-linecap="round" />
		<path d="M51.3346 85.1455C50.2212 90.8435 48.8877 97.2372 48.8877 103.09" stroke="#343A40" stroke-width="5.63462" stroke-linecap="round" />
		<path d="M43.9946 105.129C46.8644 105.129 49.7265 105.537 52.5589 105.537" stroke="#343A40" stroke-width="5.63462" stroke-linecap="round" />
		<path d="M27 33C27 34.3529 27 35.6389 27 37" stroke="#FF8E6A" stroke-width="5.63462" stroke-linecap="round" />
		<path d="M17 43H21" stroke="#FF8E6A" stroke-width="5.63462" stroke-linecap="round" />
		<path d="M31 43H40" stroke="#FF8E6A" stroke-width="5.63462" stroke-linecap="round" />
		<path d="M28 49V54" stroke="#FF8E6A" stroke-width="5.63462" stroke-linecap="round" />
		<path d="M176.687 50.9727C176.687 53.6704 176.562 56.3069 176.412 58.943C176.313 60.6692 174.763 62.2547 174.763 63.89" stroke="#343A40" stroke-width="5.63462" stroke-linecap="round" />
		<path d="M115.536 142.693C115.586 147.125 116.339 151.694 117.28 156.012C117.514 157.086 117.656 158.256 117.982 159.305C118.118 159.745 118.216 162.166 118.805 161.872" stroke="#343A40" stroke-width="5.63462" stroke-linecap="round" />
		<path d="M125.562 131.797C125.725 134.284 126.643 136.697 127.305 139.086C128.122 142.033 128.865 144.986 129.472 147.985C129.997 150.577 130.826 153.16 131.228 155.77C131.408 156.942 131.539 158.114 131.833 159.257C131.983 159.841 132.317 161.603 132.317 161" stroke="#343A40" stroke-width="5.63462" stroke-linecap="round" />
		<path d="M140.38 132.015C140.615 137.421 142.916 142.729 144.037 147.996C144.696 151.093 145.448 154.249 145.829 157.392C145.947 158.367 146.325 159.584 146.809 160.455C146.927 160.666 146.831 160.999 146.967 161.169C147.26 161.535 148.33 159.039 148.444 158.821" stroke="#343A40" stroke-width="5.63462" stroke-linecap="round" />
		<path d="M153.021 134.412C154.296 140.524 156.149 146.186 158.239 152.041C159.033 154.263 160.206 156.286 161.085 158.482C161.39 159.245 161.692 160.04 162.005 160.782C162.44 161.816 161.921 161.804 163.046 161" stroke="#343A40" stroke-width="5.63462" stroke-linecap="round" />
		<path d="M120.33 136.373C129.462 136.373 138.808 136.94 147.923 136.046C150.326 135.811 152.785 135.937 155.2 135.937" stroke="#343A40" stroke-width="5.63462" stroke-linecap="round" />
		<path d="M111.832 148.142C126.91 148.142 141.979 147.706 157.053 147.706C159.069 147.706 161.023 147.356 163.046 147.597C164.152 147.729 165.275 147.742 166.388 147.694C166.591 147.686 168.388 147.46 167.405 147.706" stroke="#343A40" stroke-width="5.63462" stroke-linecap="round" />
		<path d="M107.908 160.782C107.607 163.827 107.69 166.878 107.69 169.935" stroke="#343A40" stroke-width="5.63462" stroke-linecap="round" />
		<path d="M180.045 163.179C180.152 163.846 182.154 170.624 181.789 170.806" stroke="#343A40" stroke-width="5.63462" stroke-linecap="round" />
		<path d="M112.268 165.141C121.41 165.085 130.278 162.946 139.388 162.731C145.593 162.585 151.776 161.872 157.985 161.872C162.013 161.872 166.028 161.436 170.044 161.436C171.743 161.436 173.443 161.436 175.142 161.436C175.656 161.436 178.104 160.992 176.994 161.436" stroke="#343A40" stroke-width="5.63462" stroke-linecap="round" />
		<path d="M119.459 164.923C119.635 166.783 119.73 168.54 120.283 170.323C120.524 171.099 120.189 171.412 121.203 171.243" stroke="#343A40" stroke-width="5.63462" stroke-linecap="round" />
		<path d="M134.279 164.051C134.317 166.045 135.011 167.838 135.321 169.79C135.424 170.439 135.364 171.785 136.023 172.114" stroke="#343A40" stroke-width="5.63462" stroke-linecap="round" />
		<path d="M146.701 163.833C148.047 166.067 149.329 168.386 150.89 170.468C151.224 170.913 151.506 171.398 151.835 171.848C152.409 172.634 155.557 171.935 156.29 171.897" stroke="#343A40" stroke-width="5.63462" stroke-linecap="round" />
		<path d="M163.7 163.833C164.049 165.735 165.336 167.431 166.315 169.063" stroke="#343A40" stroke-width="5.63462" stroke-linecap="round" />
		<path d="M150.451 69.6562H163.004" stroke="#343A40" stroke-width="5.63462" stroke-linecap="round" />
		<path d="M86.5967 54.9213C87.608 54.7794 88.5817 54.6484 89.5984 54.6484" stroke="#343A40" stroke-width="5.63462" stroke-linecap="round" />
	</g>
</svg>
