<svg width="290" height="248" viewBox="0 0 290 248" fill="none" xmlns="http://www.w3.org/2000/svg">
	<rect width="290" height="248" fill="white"/>
	<path d="M146.063 165.473C135.685 175.977 121.869 185.934 115.415 199.757C113.453 203.96 111.83 208.213 109.588 212.263" stroke="#343A40" stroke-width="6.7734" stroke-linecap="round"/>
	<path d="M168.131 164.634C180.726 174.235 193.643 187.667 195.01 204.229" stroke="#343A40" stroke-width="6.7734" stroke-linecap="round"/>
	<path d="M184.198 183.041C184.576 188.356 184.126 193.904 183.426 199.169C183.252 200.479 183.197 201.895 182.91 203.184C182.79 203.724 182.913 206.635 182.178 206.34" stroke="#343A40" stroke-width="6.7734" stroke-linecap="round"/>
	<path d="M171.108 170.979C171.159 173.974 170.297 176.956 169.74 179.883C169.053 183.495 168.455 187.106 168.024 190.758C167.651 193.916 166.913 197.092 166.69 200.259C166.59 201.681 166.548 203.099 166.309 204.496C166.187 205.211 165.961 207.355 165.902 206.633" stroke="#343A40" stroke-width="6.7734" stroke-linecap="round"/>
	<path d="M153.376 172.703C153.629 179.204 151.397 185.79 150.575 192.211C150.092 195.986 149.503 199.842 149.357 203.645C149.312 204.825 148.979 206.32 148.485 207.411C148.366 207.676 148.514 208.065 148.367 208.283C148.053 208.75 146.524 205.865 146.366 205.615" stroke="#343A40" stroke-width="6.7734" stroke-linecap="round"/>
	<path d="M138.47 176.824C137.546 184.272 135.887 191.239 133.961 198.46C133.23 201.2 132.024 203.74 131.189 206.458C130.899 207.402 130.615 208.385 130.314 209.305C129.894 210.587 130.515 210.52 129.088 209.669" stroke="#343A40" stroke-width="6.7734" stroke-linecap="round"/>
	<path d="M177.829 175.944C166.889 176.847 155.747 178.449 144.739 178.28C141.837 178.235 138.903 178.63 136.011 178.869" stroke="#343A40" stroke-width="6.7734" stroke-linecap="round"/>
	<path d="M189.174 189.203C171.109 190.694 153.013 191.662 134.954 193.152C132.538 193.351 130.163 193.125 127.763 193.614C126.451 193.881 125.107 194.007 123.769 194.06C123.525 194.07 121.349 193.978 122.552 194.175" stroke="#343A40" stroke-width="6.7734" stroke-linecap="round"/>
	<path d="M195.124 203.958C195.785 207.576 195.988 211.239 196.29 214.902" stroke="#343A40" stroke-width="6.7734" stroke-linecap="round"/>
	<path d="M108.938 213.961C108.877 214.771 107.149 223.089 107.604 223.272" stroke="#343A40" stroke-width="6.7734" stroke-linecap="round"/>
	<path d="M190.332 209.611C179.374 210.448 168.538 208.761 157.602 209.405C150.155 209.844 142.676 209.6 135.238 210.214C130.412 210.612 125.559 210.487 120.747 210.884C118.712 211.052 116.676 211.22 114.641 211.388C114.025 211.439 111.047 211.149 112.421 211.571" stroke="#343A40" stroke-width="6.7734" stroke-linecap="round"/>
	<path d="M181.695 210.061C181.669 212.307 181.729 214.421 181.243 216.611C181.031 217.565 181.463 217.907 180.231 217.805" stroke="#343A40" stroke-width="6.7734" stroke-linecap="round"/>
	<path d="M163.854 210.48C164.006 212.874 163.352 215.09 163.173 217.459C163.114 218.247 163.319 219.853 162.562 220.313" stroke="#343A40" stroke-width="6.7734" stroke-linecap="round"/>
	<path d="M148.95 211.447C147.559 214.257 146.252 217.162 144.587 219.81C144.231 220.377 143.942 220.985 143.592 221.557C142.982 222.555 139.142 222.029 138.259 222.056" stroke="#343A40" stroke-width="6.7734" stroke-linecap="round"/>
	<path d="M128.586 213.129C128.355 215.442 126.982 217.601 125.97 219.654" stroke="#343A40" stroke-width="6.7734" stroke-linecap="round"/>
	<path d="M83.1645 123C77.9276 124.047 71.8207 125.016 67.0092 127.422C65.7142 128.07 64.1338 129.969 65.9086 131.058C72.4575 135.077 80.6277 133.967 87.7634 133.967" stroke="#343A40" stroke-width="6.7734" stroke-linecap="round"/>
	<path d="M61 139C64.8502 140.925 67.6182 142.178 71.8291 142.695C74.1842 142.984 76.6641 143.245 79.042 143.245" stroke="#343A40" stroke-width="6.7734" stroke-linecap="round"/>
	<path d="M226.841 85.8828C231.092 86.7814 235.756 87.5028 233.837 92.683C233.145 94.5518 229.969 94.9466 228.354 95.2379C223.872 96.0462 219.349 96.142 214.812 96.142" stroke="#343A40" stroke-width="6.7734" stroke-linecap="round"/>
	<path d="M242.585 94.6992C243.152 96.6591 243.327 97.7472 241.866 99.5477C241.053 100.549 240.093 100.773 238.989 101.517C236.793 102.998 232.661 103.026 230 103.699" stroke="#343A40" stroke-width="6.7734" stroke-linecap="round"/>
	<path d="M9 105.42C11.8383 105.201 14.943 105.062 17.7647 105.556C19.2526 105.816 19.5 108.199 17.9283 109.904C16.5 112.199 13 113.699 10.5 115.199" stroke="#343A40" stroke-width="5" stroke-linecap="round"/>
	<path d="M17 112.699C18.2158 113.397 19.6018 114.466 20.9257 114.907" stroke="#343A40" stroke-width="5" stroke-linecap="round"/>
	<path d="M24 109.839C25.8062 109.63 25.5866 109.839 27.4019 109.839" stroke="#343A40" stroke-width="5" stroke-linecap="round"/>
	<path d="M27.6475 104.193C28.1069 106.663 28.8742 109.276 28.8742 111.799" stroke="#343A40" stroke-width="5" stroke-linecap="round"/>
	<path d="M25.9087 116.828C27.5001 116.828 29.324 116.526 30.8993 116.847C31.4866 116.966 31.1929 119.595 31.1929 120.182C31.1929 122.676 26.1527 122.172 24.6396 122.699C23.7955 122.993 24.24 125.252 24.24 125.986C24.24 126.933 24.035 127.683 24.9198 127.945C27.57 128.731 30.4302 128.699 33.1397 128.699" stroke="#343A40" stroke-width="5" stroke-linecap="round"/>
	<path d="M37 103.699C38.6952 103.858 40.4091 103.979 42.098 104.19C42.668 104.261 42.1353 107.014 42.0586 107.306C41.8223 108.207 41.9043 109.482 41.3225 110.21C40.7224 110.96 38.2194 109.541 37.9012 110.973C37.4899 112.824 38.0306 115.263 38.6781 117.012C39.1265 118.222 43.7419 118.566 44.0215 117.448" stroke="#343A40" stroke-width="5" stroke-linecap="round"/>
	<path d="M45.4922 113.272C47.1986 113.062 48.9215 112.781 50.6447 112.781" stroke="#343A40" stroke-width="5" stroke-linecap="round"/>
	<path d="M52.3626 108.119C51.913 111.016 51.5354 113.921 51.1494 116.816C51.0815 117.325 51.1358 118.916 51.1358 118.915" stroke="#343A40" stroke-width="5" stroke-linecap="round"/>
	<path d="M58 104.699C58.094 110.34 58.2454 115.981 58.2454 121.629" stroke="#343A40" stroke-width="5" stroke-linecap="round"/>
	<path d="M232 51.4196C234.838 51.2013 237.943 51.0621 240.765 51.5559C242.253 51.8163 242.5 54.1992 240.928 55.9042C239.5 58.1992 236 59.6992 233.5 61.1992" stroke="#343A40" stroke-width="5" stroke-linecap="round"/>
	<path d="M240 58.6992C241.216 59.3968 242.602 60.4661 243.926 60.9074" stroke="#343A40" stroke-width="5" stroke-linecap="round"/>
	<path d="M247 55.8394C248.806 55.63 248.587 55.8386 250.402 55.8386" stroke="#343A40" stroke-width="5" stroke-linecap="round"/>
	<path d="M250.647 50.1934C251.107 52.6628 251.874 55.2757 251.874 57.7994" stroke="#343A40" stroke-width="5" stroke-linecap="round"/>
	<path d="M248.909 62.8277C250.5 62.8277 252.324 62.5264 253.899 62.8466C254.487 62.966 254.193 65.5952 254.193 66.1818C254.193 68.6761 249.153 68.172 247.64 68.6992C246.795 68.9934 247.24 71.252 247.24 71.9856C247.24 72.9327 247.035 73.6828 247.92 73.9453C250.57 74.7315 253.43 74.699 256.14 74.699" stroke="#343A40" stroke-width="5" stroke-linecap="round"/>
	<path d="M260 49.6992C261.695 49.8581 263.409 49.9788 265.098 50.1899C265.668 50.2612 265.135 53.014 265.059 53.3063C264.822 54.2071 264.904 55.4824 264.323 56.2097C263.722 56.9599 261.219 55.5412 260.901 56.973C260.49 58.8238 261.031 61.2632 261.678 63.0115C262.127 64.2223 266.742 64.566 267.021 63.4477" stroke="#343A40" stroke-width="5" stroke-linecap="round"/>
	<path d="M268.492 59.272C270.199 59.0616 271.921 58.7812 273.645 58.7812" stroke="#343A40" stroke-width="5" stroke-linecap="round"/>
	<path d="M275.363 54.1191C274.913 57.0165 274.535 59.9206 274.149 62.8157C274.082 63.3249 274.136 64.916 274.136 64.9149" stroke="#343A40" stroke-width="5" stroke-linecap="round"/>
	<path d="M281 50.6992C281.094 56.3404 281.245 61.9805 281.245 67.6289" stroke="#343A40" stroke-width="5" stroke-linecap="round"/>
	<path d="M143.611 152.49C145.517 155.969 147.917 159.758 148.387 163.777C148.668 166.184 149.418 167.301 151.327 168.753C155.015 171.557 162.426 170.582 164.494 166.445C165.871 163.69 164.948 160.514 165.185 157.589C165.409 154.835 164.768 151.914 164.448 149.175C164.002 145.361 162.585 141.685 162.151 137.981" stroke="#343A40" stroke-width="6.7734" stroke-linecap="round"/>
	<path d="M97.0619 84.9215C96.8229 105.903 99.246 130.782 115.089 146.513C124.634 155.989 139.789 155.117 151.807 151.148C170.265 145.052 177.997 124.626 181.747 107.012C184.078 96.0611 186.508 83.0022 182.21 72.1869" stroke="#343A40" stroke-width="6.7734" stroke-linecap="round"/>
	<path d="M104.248 47.2461C101.302 53.074 99.7479 58.3816 100.192 64.9183C100.399 67.9592 102.072 70.9753 103.186 73.7809C106.271 81.5424 114.293 83.7537 122.189 84.4296" stroke="#343A40" stroke-width="6.7734" stroke-linecap="round"/>
	<path d="M133.662 42.9426C131.967 49.2637 130.29 56.1813 132.14 62.7143C133.422 67.2391 137.614 70.3547 140.693 73.6176C144.056 77.1813 147.36 78.0285 152.102 78.5796C153.386 78.7288 161.279 79.2527 160.621 77.5975" stroke="#343A40" stroke-width="6.7734" stroke-linecap="round"/>
	<path d="M163.707 41.556C165.825 53.6539 174.988 75.1375 191.315 71.2053" stroke="#343A40" stroke-width="6.7734" stroke-linecap="round"/>
	<path d="M115.897 88.512C109.728 90.8156 101.782 91.5521 100.053 98.7936C99.1558 102.553 98.9852 109.676 100.435 113.325C101.882 116.966 107.62 116.881 110.927 116.864C116.824 116.833 123.256 116.126 128.756 113.94C136.36 110.919 136.136 102.274 133.582 95.845C132.688 93.597 132.349 90.3135 129.477 90.237C125.583 90.1332 121.373 90.3011 117.532 89.9722" stroke="#343A40" stroke-width="6.7734" stroke-linecap="round"/>
	<path d="M155.423 81.7754C147.395 85.094 136.675 88.2889 136.551 98.5947C136.471 105.224 140.368 108.89 146.843 109.891C154.615 111.094 175.116 110.589 171.004 97.9747C169.747 94.1162 166.884 87.0953 162.607 85.251" stroke="#343A40" stroke-width="6.7734" stroke-linecap="round"/>
	<path d="M149.648 98.2988C151.332 97.7176 151.964 97.4928 151.985 97.5579" stroke="#343A40" stroke-width="6.7734" stroke-linecap="round"/>
	<path d="M124.035 101.861C122.984 102.195 121.019 102.839 120.188 103.064C119.707 103.195 119.711 103.18 120.278 102.987" stroke="#343A40" stroke-width="6.7734" stroke-linecap="round"/>
	<path d="M90.0313 53.9512C85.3436 59.201 81.8869 63.9891 84.6622 70.9731C86.3014 75.0982 89.1423 78.1415 92.3371 80.9943" stroke="#343A40" stroke-width="6.7734" stroke-linecap="round"/>
	<path d="M186.006 84.3935C186.707 83.5651 189.589 78.9817 191.191 79.5196C192.538 79.972 193.622 80.9079 195.036 81.3035C196.928 81.8329 198.09 83.0751 199.185 84.6661C201.697 88.3133 204.897 94.0943 202.74 98.5521C201.142 101.856 196.851 103.772 193.792 105.83C190.739 107.884 187.157 108.306 183.674 109.059" stroke="#343A40" stroke-width="6.7734" stroke-linecap="round"/>
	<path d="M132.763 117.682C130.094 118.886 128.052 120.662 127.298 123.547C126.179 127.824 132.333 121.316 132.938 120.778C134.605 119.295 138.483 113.821 139.576 117.642C139.845 118.583 139.837 119.554 140.202 120.47C140.356 120.86 141.93 118.281 142.14 117.825C143.553 114.742 142.842 114.201 145.065 116.779C145.447 117.222 147.093 119.042 147.692 118.08C148.139 117.364 147.949 116.817 148.776 117.415C149.67 118.061 151.254 121.202 152.105 119.228C153.249 116.575 152.897 118.122 154.795 117.368" stroke="#343A40" stroke-width="6.7734" stroke-linecap="round"/>
	<path d="M116.602 139.403C116.585 140.509 115.914 142.835 116.339 143.904C116.413 144.09 117.852 142.865 117.858 142.861C118.957 142.101 120.179 141.206 121.429 140.709C123.644 139.829 121.512 152.417 125.693 149.448C127.763 147.978 129.744 146.373 131.914 145.042C133.48 144.08 133.869 147.012 134.294 148.082C134.869 149.53 135.044 151.874 136.787 150.373C138.111 149.233 140.232 145.248 141.877 144.892C142.205 144.821 143.829 147.375 144.157 147.679C145.831 149.233 145.738 148 146.614 145.97C147.654 143.558 147.507 142.964 149.992 143.778C151.159 144.16 152.352 145.017 153.335 144.003C155.097 142.184 156.314 140.046 157.703 137.959C158.731 136.414 159.252 138.116 160.444 138.218C161.047 138.27 161.597 137.145 161.984 136.785C162.373 136.424 163.392 136.636 163.948 136.415" stroke="#343A40" stroke-width="6.7734" stroke-linecap="round"/>
	<path d="M191.136 29.6005C197.636 33.6622 202.305 37.7947 205.151 44.9567C207.711 51.398 210.19 58.1056 211.61 64.8982C212.497 69.1417 211.6 71.136 209.463 74.8365C208.43 76.6271 204.651 79.5983 207.225 80.7084" stroke="#343A40" stroke-width="6.7734" stroke-linecap="round"/>
	<path d="M191.002 59.3061C192.199 62.3199 193.231 65.3203 194.233 68.332C194.889 70.3042 193.861 72.7637 194.587 74.5906" stroke="#343A40" stroke-width="6.7734" stroke-linecap="round"/>
	<path d="M169.987 91.8262L184.01 86.2537" stroke="#343A40" stroke-width="6.7734" stroke-linecap="round"/>
	<path d="M92.1124 103.709C93.1791 103.102 94.2088 102.523 95.3445 102.072" stroke="#343A40" stroke-width="6.7734" stroke-linecap="round"/>
	<path d="M139.031 130.564C140.801 130.248 142.573 129.944 144.336 129.589" stroke="#343A40" stroke-width="5" stroke-linecap="round"/>
	</svg>
	