<svg width="24" height="24" viewBox="0 0 24 24" fill="none" xmlns="http://www.w3.org/2000/svg">
<path d="M17 9C17 11.7614 14.7614 14 12 14C9.23858 14 7 11.7614 7 9C7 6.23858 9.23858 4 12 4C14.7614 4 17 6.23858 17 9Z" fill="#C2B6FF"/>
<path d="M4 21C4 17.6863 6.68629 15 10 15H14C17.3137 15 20 17.6863 20 21H4Z" fill="#C2B6FF"/>
<path d="M10 8.5C10 8.22386 10.2239 8 10.5 8C10.7761 8 11 8.22386 11 8.5V9.5C11 9.77614 10.7761 10 10.5 10C10.2239 10 10 9.77614 10 9.5V8.5Z" fill="white"/>
<path d="M13 8.5C13 8.22386 13.2239 8 13.5 8C13.7761 8 14 8.22386 14 8.5V9.5C14 9.77614 13.7761 10 13.5 10C13.2239 10 13 9.77614 13 9.5V8.5Z" fill="white"/>
</svg>
