<svg width="41" height="40" viewBox="0 0 41 40" fill="none" xmlns="http://www.w3.org/2000/svg">
<circle cx="20.9688" cy="20" r="20" fill="#FFEBEE"/>
<path d="M13.1888 12.0199C13.4578 12.6671 14.1049 14.0118 14.979 14.2807C15.0043 14.2873 15.0307 14.2878 15.0563 14.2824C15.0818 14.2769 15.1057 14.2656 15.1261 14.2493C15.1465 14.233 15.1628 14.2121 15.1737 14.1884C15.1847 14.1647 15.1899 14.1388 15.1891 14.1127C15.1794 12.7949 15.4971 11.4953 16.1136 10.3306C17.282 8.35988 19.1673 6.91734 21.3749 6.30478C21.4017 6.29851 21.4296 6.29831 21.4565 6.30421C21.4835 6.31011 21.5087 6.32197 21.5305 6.33889C21.5522 6.35581 21.5699 6.37737 21.5823 6.40201C21.5946 6.42665 21.6013 6.45371 21.6018 6.48127C21.6018 7.0864 21.8455 8.76732 22.7701 9.44809C25.4595 11.4316 26.0731 12.6755 26.1319 13.3058C26.1319 13.4739 26.4008 13.684 26.5521 13.5916C27.3588 13.0383 27.9821 12.257 28.3423 11.3475C28.3546 11.3177 28.3742 11.2914 28.3993 11.2711C28.4244 11.2507 28.4542 11.237 28.486 11.2312C28.5177 11.2253 28.5505 11.2275 28.5812 11.2376C28.6118 11.2476 28.6395 11.2652 28.6617 11.2887C29.5946 12.4233 33.3178 17.3316 32.6959 22.8871C32.0067 28.972 27.4682 33.4769 21.2656 33.4853C18.3478 33.5315 15.523 32.4592 13.3708 30.4883C11.2187 28.5175 9.90256 25.7977 9.69249 22.8871C9.28066 18.399 12.0794 13.3394 12.8526 12.0283C12.8665 11.9957 12.8895 11.9679 12.9189 11.948C12.9482 11.9281 12.9826 11.917 13.018 11.9161C13.0534 11.9153 13.0884 11.9246 13.1186 11.943C13.1489 11.9614 13.1733 11.9881 13.1888 12.0199Z" fill="#DD4863"/>
<path d="M10.7091 18.9118C10.384 20.1873 10.2733 21.5081 10.3814 22.8199C10.3782 23.3262 10.4995 23.8255 10.7343 24.2739C10.8772 24.4925 10.7343 25.0051 10.9277 25.4338C11.3272 26.5881 11.9119 27.6696 12.659 28.6359C13.4091 29.5486 14.3138 30.3224 15.3317 30.922C16.2947 31.5717 17.3776 32.0231 18.517 32.2499C19.4188 32.4489 20.335 32.5754 21.2569 32.6281C22.2436 32.5516 23.2256 32.4226 24.1985 32.2415C24.5515 32.1827 24.8877 32.0818 25.2323 31.9978C25.5535 31.8845 25.8678 31.7526 26.1736 31.6028C26.535 31.3506 26.8544 31.0901 27.2326 30.7623C27.4091 30.6362 27.6192 30.527 27.7957 30.3841C27.9696 30.2488 28.1033 30.0686 28.1823 29.863C28.1823 29.821 28.3756 29.7369 28.4597 29.6781C28.8945 29.4475 29.2426 29.0817 29.4514 28.6359C29.6157 28.3105 29.801 27.996 30.0061 27.6946C30.5161 26.8566 30.9279 25.9626 31.2332 25.0304C31.4918 24.3311 31.6914 23.6114 31.8299 22.8788C31.8735 22.4881 31.8959 22.0953 31.8971 21.7021C31.8971 21.3155 31.8971 20.9289 31.8971 20.5675C31.9293 19.8519 31.8413 19.136 31.6366 18.4496C31.6129 18.0289 31.447 17.6288 31.1659 17.3149C31.1227 17.2398 31.0941 17.1571 31.0819 17.0712C30.9558 15.8609 30.0817 14.9701 29.5354 13.9279C29.401 13.6589 29.2329 13.3984 29.0732 13.1294L28.8126 12.7512L28.7538 12.6588V12.6168C28.7195 12.5783 28.6831 12.5418 28.6446 12.5075C28.5773 12.5075 28.5857 12.5999 28.5605 12.6336C28.5605 12.6336 28.5605 12.6336 28.4849 12.7344C28.3712 12.9181 28.2755 13.1123 28.1991 13.3143C27.9875 13.6555 27.6998 13.9431 27.3587 14.1548C27.1691 14.2611 26.9607 14.3296 26.7451 14.3565C26.5433 14.3835 26.3381 14.3484 26.1568 14.2556C25.9849 14.1747 25.835 14.0537 25.7198 13.9027C25.5639 13.7119 25.4546 13.4874 25.4004 13.2471C25.3335 13.0124 25.2222 12.7927 25.0726 12.5999L24.7532 12.1629C24.1313 11.3224 23.2236 10.7509 22.4588 9.95249C22.197 9.70469 21.9707 9.42185 21.7864 9.11203C21.5847 8.80947 21.4082 8.49849 21.2065 8.21273C21.0936 8.02856 21.0219 7.82212 20.9964 7.6076V7.4227C20.9964 7.36387 20.9964 7.4227 20.9964 7.37227C20.9964 7.32185 20.9964 7.33025 20.9964 7.32185C20.9964 7.31344 20.8787 7.36388 20.8703 7.3891C20.8746 7.37256 20.8746 7.35521 20.8703 7.33867C20.8703 7.33867 20.8703 7.33867 20.7694 7.33867C20.6872 7.35471 20.6096 7.38919 20.5425 7.43952C19.9038 7.85975 19.2734 8.22114 18.6767 8.65818C18.0668 9.07325 17.5536 9.61509 17.1723 10.2467C16.7868 10.8822 16.5032 11.5741 16.3318 12.2974L16.2646 12.5999C16.2646 12.7932 16.2057 12.9866 16.1721 13.1799V13.8018V14.1044L16.0881 14.3313C16.0072 14.5128 15.8899 14.6759 15.7435 14.8104C15.6562 14.8892 15.5484 14.9416 15.4325 14.9616C15.3105 14.9868 15.1847 14.9868 15.0627 14.9616C14.9876 14.9569 14.9138 14.9398 14.8442 14.9112C14.2551 14.6407 13.7752 14.1785 13.4827 13.6001C13.2167 13.1928 13.1036 12.7045 13.1633 12.2217C13.2221 11.8856 13.407 11.8183 13.6676 12.1209L14.1886 12.7008C14.31 12.8697 14.4718 13.0056 14.6593 13.0958H14.7854C14.7854 13.0958 14.903 13.0958 14.9198 13.0118C14.924 12.9334 14.924 12.8548 14.9198 12.7765V12.3982C14.9337 11.9374 15.0455 11.4847 15.2476 11.0703C15.3905 10.7257 15.4745 10.2803 15.7855 10.087C15.8483 10.0235 15.8995 9.94955 15.9368 9.86844C16.4579 8.32199 17.8867 7.25461 19.2398 6.5066C19.534 6.33851 19.8281 6.17043 20.1223 6.01914L20.3492 5.90147L20.719 5.74178C20.9657 5.63249 21.2217 5.5453 21.4838 5.48124C21.7031 5.4313 21.9325 5.4519 22.1394 5.54008C22.3274 5.64654 22.475 5.81194 22.5596 6.01073C22.6443 6.28363 22.6951 6.5659 22.7109 6.85119L22.795 7.4059C22.9714 7.67485 23.1227 7.95221 23.2572 8.17913C23.3917 8.40606 23.3833 8.38923 23.4421 8.47327C23.5135 8.57152 23.5984 8.65925 23.6942 8.73384C24.2742 9.26333 24.8541 9.7844 25.3752 10.3475C25.6726 10.6336 25.9532 10.9367 26.2156 11.2552C26.3417 11.4149 26.4762 11.5914 26.5938 11.7679L26.7703 12.0536L26.8292 12.1629C26.8292 12.1629 26.8292 12.2554 26.8796 12.289C26.93 12.3226 26.9636 12.289 26.9973 12.289L27.0813 12.1965L27.2242 12.0116L27.3166 11.8772V11.8099L27.4007 11.667C27.5216 11.4603 27.6311 11.2471 27.7285 11.0283C28.2579 10.1038 29.0144 10.0702 29.6951 11.0283L30.1826 11.6838L30.4768 12.1125C30.6617 12.3646 30.8213 12.6336 30.9978 12.9025C31.6636 13.9672 32.2265 15.0929 32.6788 16.2644C32.8984 16.6703 33.057 17.1065 33.1494 17.5587C33.1915 18.0714 33.4268 18.6765 33.5192 19.2396C33.6397 19.7661 33.6989 20.3047 33.6957 20.8449C33.6452 22.9601 33.1976 25.0471 32.3762 26.997C31.4778 28.911 30.1245 30.576 28.4344 31.8465C27.4255 32.6681 26.2625 33.2796 25.0138 33.6451C24.4818 33.8626 23.9047 33.9463 23.3328 33.8888C23.1732 33.8468 22.6857 34.1073 22.3243 34.1157C21.4418 34.1915 20.5536 34.1661 19.6768 34.0401C18.4483 33.8823 17.2501 33.5424 16.1217 33.0315C15.4142 32.7577 14.7357 32.4142 14.0962 32.0062C13.4253 31.5634 12.815 31.0351 12.2808 30.4345C11.6167 29.6681 11.0519 28.8209 10.5999 27.9131C10.0667 27.0197 9.68077 26.0464 9.45685 25.0304C9.09617 23.2392 9.05349 21.3985 9.33078 19.5926C9.67479 17.8618 10.1987 16.1717 10.894 14.5498C11.3102 13.68 11.7819 12.8378 12.306 12.0284C12.372 11.9258 12.4577 11.8372 12.5581 11.7679L12.6422 11.7091H12.6842L12.7683 11.625C12.8251 11.5853 12.8908 11.5599 12.9596 11.5511C13.0284 11.5423 13.0983 11.5504 13.1633 11.5746C13.365 11.6586 13.5942 12.0621 13.5438 12.1209C13.5031 12.1696 13.5167 12.3368 13.4542 12.3478L13.2557 12.0536V12.0957V12.1797V12.5542L12.9448 13.1631C12.806 13.6268 12.6318 14.0792 12.4237 14.5162C11.6845 15.9103 11.1091 17.3854 10.7091 18.9118Z" fill="#1F2227"/>
<path d="M14.3481 18.9619C16.0962 15.0621 21.1558 15.1126 21.2062 15.1126C21.2567 15.1126 26.3162 15.0621 28.0644 18.9619C29.1189 21.1881 29.3222 23.7232 28.6359 26.089C28.6175 26.1273 28.5883 26.1595 28.5519 26.1814L25.9212 27.8624C25.8879 27.8818 25.8614 27.9112 25.8456 27.9464L25.0556 29.7366C25.0392 29.7742 25.0121 29.8061 24.9778 29.8285C24.9434 29.8509 24.9033 29.8628 24.8622 29.8627H23.8369C23.794 29.8616 23.7523 29.8484 23.7166 29.8246C23.6809 29.8008 23.6526 29.7674 23.6352 29.7282L23.0385 28.4675C23.0233 28.4283 22.9969 28.3946 22.9624 28.3706C22.928 28.3467 22.8871 28.3336 22.8451 28.333H22.5594C22.5124 28.332 22.4666 28.3474 22.4298 28.3765C22.3929 28.4057 22.3675 28.4468 22.3577 28.4927L21.8198 30.1736C21.8071 30.2173 21.7805 30.2556 21.7441 30.2829C21.7078 30.3102 21.6635 30.3249 21.6181 30.3249H20.8953C20.8563 30.3251 20.8183 30.3131 20.7866 30.2905C20.7549 30.2678 20.7312 30.2358 20.7188 30.1988L20.1052 28.4507C20.0929 28.4138 20.0691 28.3817 20.0374 28.359C20.0057 28.3364 19.9677 28.3244 19.9287 28.3246H19.5842C19.5486 28.3247 19.5138 28.3351 19.484 28.3545C19.4542 28.3739 19.4306 28.4014 19.4161 28.4339L18.7773 29.745C18.762 29.7768 18.7382 29.8038 18.7085 29.8231C18.6789 29.8424 18.6446 29.8531 18.6092 29.8542H17.5334C17.4976 29.8552 17.4624 29.8453 17.4324 29.8258C17.4023 29.8063 17.379 29.7781 17.3653 29.745L16.5249 27.938C16.5201 27.9201 16.5116 27.9034 16.5 27.8889C16.4885 27.8745 16.474 27.8626 16.4576 27.854L13.8186 26.173C13.7846 26.1506 13.7583 26.1183 13.743 26.0806C13.0646 23.7138 13.2799 21.1802 14.3481 18.9619Z" fill="white"/>
<path d="M14.062 23.7276C14.079 24.136 14.1211 24.543 14.1881 24.9463C14.1881 25.1396 14.2637 25.3413 14.3141 25.5346C14.3646 25.7279 14.3141 25.6271 14.3141 25.6691C14.3141 25.7111 14.3562 25.7195 14.3814 25.7363L14.499 25.8204L14.7091 25.9548C14.8522 26.0564 15.0214 26.1147 15.1966 26.1229C15.3899 26.1229 15.5328 26.4927 15.7933 26.6524L16.4069 27.0306L16.7683 27.2575C16.8398 27.3263 16.9071 27.3993 16.97 27.4761L17.0204 27.5265L17.0961 27.6526L17.5499 28.6695L17.7684 28.9973L17.8188 29.0729C17.8221 29.0858 17.8284 29.0976 17.8371 29.1076C17.8458 29.1175 17.8568 29.1253 17.8691 29.1302C17.8814 29.1351 17.8946 29.137 17.9078 29.1359C17.921 29.1347 17.9337 29.1304 17.9449 29.1234H18.0122C18.0122 29.1234 18.0794 29.1234 18.1046 29.1234C18.1046 29.1234 18.1718 29.1234 18.1802 29.0645L18.2391 28.9889L18.5332 28.5939L19.1132 27.829C19.1636 27.7786 19.214 27.6778 19.256 27.6694H19.4241C19.5529 27.661 19.682 27.661 19.8107 27.6694C19.9355 27.6438 20.0642 27.6438 20.1889 27.6694C20.2982 27.6694 20.3234 27.8207 20.3907 27.9047C20.6189 28.2914 20.8211 28.6929 20.9958 29.1066L21.2647 29.7117L21.3992 30.0059L20.8277 30.2076V29.5856H20.9706H21.0126C21.0126 29.5856 21.0126 29.5856 21.063 29.5268V29.4427L21.2059 29.115L21.5001 28.4594C21.5643 28.2773 21.6709 28.1131 21.811 27.9803C21.9087 27.9022 22.0198 27.8423 22.1388 27.8038C22.2338 27.7935 22.3296 27.7935 22.4246 27.8038H22.7187C22.8437 27.8067 22.9667 27.8353 23.0801 27.8879C23.2888 27.984 23.4538 28.155 23.5424 28.367V28.3165C23.7006 28.5092 23.8386 28.7176 23.9542 28.9385C23.9849 28.9967 24.0076 29.059 24.0214 29.1234C24.0214 29.1234 24.0803 29.1234 24.1475 29.0309C24.1447 29.0476 24.1447 29.0647 24.1475 29.0814C24.1428 29.1092 24.1428 29.1376 24.1475 29.1654C24.2652 29.1654 24.2063 29.1654 24.2484 29.1654C24.2904 29.1654 24.3156 29.1654 24.2904 29.0814L24.2484 29.0057L24.3156 28.8292L24.6098 28.14L24.7947 27.7114C24.8636 27.6137 24.9395 27.521 25.0216 27.4341C25.0216 27.3752 25.1224 27.3584 25.1224 27.2744L25.2653 27.1567L25.8032 26.8289C26.2319 26.5684 26.7025 26.3751 27.1396 26.1229C27.2572 26.0557 27.3665 25.9801 27.4757 25.9044L27.6438 25.7867L27.8539 25.6355C27.8539 25.6355 27.8539 25.6354 27.938 25.4926C28.1314 25.0963 28.2401 24.6641 28.2574 24.2235C28.2574 23.9714 28.3918 23.6688 28.1649 23.4671C28.1649 23.4671 28.1649 23.3494 28.1649 23.3074C28.4507 22.5762 27.9716 21.8954 27.8792 21.1894C27.7514 20.4464 27.4924 19.7321 27.1143 19.0799C27.0303 18.9202 26.9967 18.6933 26.7445 18.6596C26.6605 18.6596 26.5512 18.4915 26.526 18.3907C26.3747 17.8528 25.8705 17.5502 25.4418 17.2309C25.0132 16.9115 24.324 16.6677 23.7609 16.3063C23.6214 16.2037 23.4595 16.1357 23.2885 16.1079C23.1175 16.0801 22.9424 16.0934 22.7776 16.1467C22.6095 16.2139 22.3153 16.0542 22.0716 16.0458C21.8278 16.0374 21.6766 16.1215 21.4917 16.1131C21.3764 16.0951 21.2636 16.0641 21.1555 16.0206H21.0378C20.9853 16.0081 20.9306 16.0081 20.8781 16.0206C19.9788 16.3147 18.9787 16.1971 18.1046 16.6005C17.2825 16.9625 16.5268 17.4596 15.869 18.0713C15.7053 18.2602 15.5284 18.4372 15.3395 18.6008C15.1566 18.7823 14.9312 18.9152 14.6839 18.9874C14.4318 19.0546 14.2469 18.9874 14.2637 18.7017C14.2753 18.485 14.3236 18.2718 14.4066 18.0713C14.5684 17.7526 14.7538 17.4463 14.9613 17.1552C15.3685 16.5094 15.9517 15.9933 16.6422 15.6676C16.8607 15.5752 17.054 15.3482 17.3146 15.4407C17.3712 15.4472 17.4282 15.4322 17.4743 15.3987C18.3317 14.8548 19.3249 14.5636 20.3402 14.5582C20.6512 14.5582 20.9286 14.4573 21.2647 14.4237C21.8256 14.3422 22.3971 14.3736 22.9457 14.5162C23.4686 14.4176 24.0095 14.5132 24.4669 14.7851C25.2692 15.1529 26.0371 15.5917 26.7613 16.0962C27.4662 16.6282 28.0529 17.3008 28.4843 18.0713C29.3042 19.6295 29.7584 21.3541 29.8122 23.1141C29.8759 23.4076 29.8759 23.7114 29.8122 24.005C29.7432 24.3771 29.6983 24.7533 29.6777 25.1312C29.6777 25.3077 29.6273 25.4842 29.5853 25.6607C29.5433 25.8372 29.5853 25.8372 29.5265 25.9212L29.4844 26.0557L29.4088 26.2406C29.336 26.4725 29.1843 26.6717 28.9802 26.8037C28.8793 26.8709 28.7616 26.9298 28.6692 26.9802L28.4843 27.0726C28.2322 27.2071 27.9968 27.35 27.7615 27.4929L26.4336 28.3333C26.3831 28.3333 26.3663 28.409 26.3411 28.4426L25.6603 29.9386C25.6002 30.0741 25.5146 30.1968 25.4082 30.3C25.2995 30.4034 25.1616 30.4709 25.0132 30.4933C24.711 30.514 24.4077 30.514 24.1055 30.4933C23.8099 30.5351 23.5095 30.463 23.265 30.2916C23.0754 30.0599 22.9198 29.8024 22.8028 29.5268C22.6683 29.2747 22.5254 29.0309 22.3825 28.7788L22.8616 28.5351V29.0814H22.559V28.5182C22.8112 28.5855 21.9959 28.3501 23.1222 28.6779V28.7452L23.0633 28.9217C23.0633 29.0309 22.9877 29.1486 22.9457 29.2663C22.8674 29.6226 22.7431 29.9673 22.5759 30.2916C22.5396 30.354 22.491 30.4084 22.433 30.4513C22.3741 30.5017 22.3405 30.6446 22.2145 30.7875C22.1538 30.8609 22.0782 30.9206 21.9927 30.9626C21.9072 31.0047 21.8138 31.028 21.7186 31.0312C21.4998 31.0728 21.2771 31.0897 21.0546 31.0817H20.8529L20.6008 31.0312C20.4335 30.9745 20.2852 30.8727 20.1721 30.7371C20.0865 30.6432 20.0233 30.5311 19.9872 30.4093L19.8948 30.1403L19.7687 29.7621C19.7687 29.7621 19.7015 29.7621 19.6679 29.7621C19.6837 29.7413 19.7037 29.7242 19.7267 29.7117C19.7267 29.7117 19.7267 29.7117 19.7267 29.7621L19.5754 30.1319C19.5208 30.2713 19.4371 30.3973 19.3298 30.5017C19.2226 30.6061 19.0943 30.6863 18.9535 30.7371C18.7408 30.7989 18.5187 30.8217 18.2979 30.8043H17.6844C17.4676 30.8208 17.2503 30.7803 17.054 30.6866C16.8646 30.5984 16.7064 30.4548 16.6002 30.2748C16.5329 30.1528 16.4739 30.0265 16.4237 29.8966L16.306 29.5772L16.1631 29.1738L15.9194 28.4678L15.827 28.409L15.4235 28.1736C15.1612 28.0194 14.9111 27.8452 14.6755 27.6526C14.5158 27.5013 14.3477 27.3668 14.1797 27.2323L13.9107 27.0474L13.5661 26.8037C13.4514 26.7302 13.3529 26.6342 13.2763 26.5215C13.1997 26.4088 13.1468 26.2818 13.1207 26.1481C13.1207 25.9968 13.0618 25.9212 13.0366 25.8372L12.9694 25.5682C12.8923 25.2246 12.8361 24.8765 12.8013 24.526C12.7139 23.3739 12.7789 22.2153 12.9946 21.0802C13.1613 20.4772 13.3923 19.8939 13.6838 19.3404C13.793 19.0547 14.691 17.8164 14.7918 18.0013C14.8014 18.0456 15.4369 18.2855 15.4273 18.3298C15.0638 18.924 14.4518 20.4216 14.3477 21.0045C14.1146 21.8924 14.0182 22.8107 14.062 23.7276Z" fill="#1F2227"/>
<path d="M18.9531 21.3806C18.866 21.3026 18.8175 21.258 18.7304 21.2072C18.6432 21.1564 18.3042 21.1514 18.3042 21.1514C18.2801 21.1285 18.25 21.1124 18.217 21.1049H18.1202C17.8946 21.1596 17.6939 21.2838 17.5487 21.4585C17.4597 21.5853 17.3972 21.7275 17.3647 21.8772C17.3265 22.0473 17.278 22.2151 17.2194 22.3798C17.2003 22.4813 17.2003 22.5853 17.2194 22.6869C17.229 22.7766 17.229 22.867 17.2194 22.9567V23.5151C17.2289 23.6187 17.2585 23.7197 17.3065 23.8129C17.3453 23.8967 17.3937 23.8129 17.4518 23.8967C17.4945 23.9954 17.543 24.0917 17.5971 24.1851C17.6265 24.2493 17.6657 24.3089 17.7133 24.362C17.7715 24.3713 17.7715 24.2317 17.7715 24.3061C17.7618 24.5667 17.7811 24.3899 17.8393 24.5108C17.8974 24.6318 17.9652 24.576 18.033 24.576C18.1181 24.6037 18.1994 24.6412 18.2751 24.6877C18.3263 24.6972 18.3789 24.6972 18.4301 24.6877C18.6529 24.7063 18.8175 24.5481 18.8853 24.5667C18.9531 24.5853 18.9241 24.5201 18.9531 24.4922C18.9822 24.4643 19.0403 24.3526 19.0403 24.4085V24.2968C19.1481 24.0623 19.223 23.8151 19.2631 23.5616C19.3406 23.2824 19.3299 23.0113 19.3299 22.6185C19.3299 22.2257 19.176 21.7439 19.176 21.7439C19.1372 21.6322 19.0403 21.4585 18.9531 21.3806Z" fill="#1F2227"/>
<path d="M24.8067 21.3806C24.7195 21.3026 24.6711 21.258 24.5839 21.2072C24.4967 21.1564 24.1577 21.1514 24.1577 21.1514C24.1337 21.1285 24.1035 21.1124 24.0705 21.1049H23.9737C23.7481 21.1596 23.5474 21.2838 23.4022 21.4585C23.3132 21.5853 23.2507 21.7275 23.2182 21.8772C23.18 22.0473 23.1315 22.2151 23.0729 22.3798C23.0538 22.4813 23.0538 22.5853 23.0729 22.6869C23.0825 22.7766 23.0825 22.867 23.0729 22.9567V23.5151C23.0824 23.6187 23.112 23.7197 23.1601 23.8129C23.1988 23.8967 23.2472 23.8129 23.3053 23.8967C23.348 23.9954 23.3965 24.0917 23.4506 24.1851C23.48 24.2493 23.5192 24.3089 23.5669 24.362C23.625 24.3713 23.625 24.2317 23.625 24.3061C23.6153 24.5667 23.6347 24.3899 23.6928 24.5108C23.7509 24.6318 23.8187 24.576 23.8865 24.576C23.9716 24.6037 24.0529 24.6412 24.1286 24.6877C24.1798 24.6972 24.2324 24.6972 24.2836 24.6877C24.5064 24.7063 24.671 24.5481 24.7389 24.5667C24.8067 24.5853 24.7776 24.5201 24.8067 24.4922C24.8357 24.4643 24.8938 24.3526 24.8938 24.4085V24.2968C25.0016 24.0623 25.0766 23.8151 25.1166 23.5616C25.1941 23.2824 25.1834 23.0113 25.1834 22.6185C25.1834 22.2257 25.0295 21.7439 25.0295 21.7439C24.9907 21.6322 24.8938 21.4585 24.8067 21.3806Z" fill="#1F2227"/>
<path d="M20.59 23.7666C20.5031 23.7666 20.3702 24.1348 20.3702 24.1706C20.3446 24.2115 20.227 24.1757 20.2014 24.2729C20.1758 24.37 20.14 24.457 20.0889 24.5541C20.0378 24.6513 20.0787 24.7894 20.0378 24.861C19.9968 24.9325 20.0684 24.9786 20.094 25.0297C20.1196 25.0808 20.1196 25.1473 20.1196 25.1985C20.1268 25.217 20.1378 25.2339 20.1519 25.248C20.1659 25.2621 20.1828 25.2731 20.2014 25.2803C20.2474 25.2803 20.2986 25.2598 20.3702 25.2803C20.4417 25.3007 20.5031 25.3621 20.5952 25.3621C20.6661 25.3754 20.739 25.3754 20.8099 25.3621C20.8457 25.3621 20.9224 25.2649 20.9224 25.3007C20.9276 25.4286 20.9378 25.3365 21.0503 25.3672C21.1628 25.3979 21.3494 25.403 21.4363 25.3672C21.5824 25.3195 21.8652 25.3424 21.9865 25.248C22.1041 25.1304 22.0159 24.9438 21.958 24.6507C21.9938 24.6149 21.958 24.574 21.958 24.528C21.958 24.482 21.912 24.4462 21.958 24.3899C22.0041 24.3337 21.9018 24.3183 21.9018 24.2877C21.7923 24.0886 21.667 23.9489 21.5313 23.7666C21.383 23.5927 21.3111 23.6029 21.1884 23.4137C21.1526 23.3575 21.0605 23.3319 21.0605 23.47C20.9685 23.4086 20.9327 23.5518 20.856 23.5825C20.7793 23.6132 20.6361 23.562 20.6668 23.7666C20.59 23.7001 20.677 23.7666 20.59 23.7666Z" fill="#1F2227"/>
</svg>
