<svg width="44" height="45" viewBox="0 0 44 45" fill="none" xmlns="http://www.w3.org/2000/svg">
<path d="M13.2 1.27539H30.8C37.6759 1.27539 43.25 6.84945 43.25 13.7254V31.3254C43.25 38.2013 37.6759 43.7754 30.8 43.7754H13.2C6.32405 43.7754 0.75 38.2013 0.75 31.3254V13.7254C0.75 6.84945 6.32405 1.27539 13.2 1.27539Z" fill="#EDE6FF" stroke="#D9C9FF" stroke-width="1.5"/>
<path fill-rule="evenodd" clip-rule="evenodd" d="M18.3049 15.3848C18.3041 15.3775 18.3036 15.3702 18.3036 15.3628C18.3036 15.3375 18.3087 15.3124 18.3185 15.2891C18.3283 15.2658 18.3427 15.2446 18.3608 15.2269C18.4308 15.1825 18.5072 15.1489 18.5873 15.1272L18.9678 15.0638C19.2207 14.991 19.4845 14.9634 19.747 14.9823C19.7662 14.9823 19.786 14.9797 19.8059 14.9772C19.8703 14.969 19.9363 14.9605 19.9916 15.0366C20.0279 15.0865 20.0279 15.0865 20.0267 15.074C20.0256 15.0615 20.0233 15.0366 20.0551 15.0366C20.4066 14.9436 20.7732 14.922 21.1332 14.9732C21.4317 14.9153 21.7353 14.8879 22.0393 14.8917C22.1196 14.8418 22.21 14.8102 22.304 14.7993C22.398 14.7883 22.4932 14.7982 22.5829 14.8283C22.8813 14.8855 23.1851 14.9098 23.4889 14.9007H24.7211V14.9823L25.1922 17.0843C25.1922 17.1318 25.2131 17.1724 25.2342 17.2137C25.2614 17.2668 25.2891 17.321 25.2738 17.3923C25.279 17.5258 25.3066 17.6575 25.3553 17.7819C25.3974 17.9144 25.4248 18.0511 25.4369 18.1896C25.4633 18.5193 25.5147 18.8464 25.5909 19.1681H24.2953H22.8457C22.5453 19.2088 22.2427 19.23 21.9396 19.2316C21.9092 19.2316 21.8787 19.2347 21.8483 19.2378C21.7519 19.2477 21.6554 19.2577 21.559 19.1681C21.4776 19.0925 21.4373 19.1364 21.3972 19.1799C21.3749 19.2042 21.3527 19.2283 21.3235 19.2316H19.8829C19.7796 19.2316 19.6763 19.2511 19.5731 19.2707C19.5042 19.2838 19.4353 19.2968 19.3665 19.3041C19.1884 19.3131 19.0099 19.3131 18.8319 19.3041H18.4876H18.3245H18.089H17.0742C17.0917 19.205 17.119 19.1078 17.1557 19.0141C17.185 18.9018 17.2144 18.7973 17.2422 18.6979C17.2661 18.613 17.2889 18.5317 17.3097 18.4524L17.4004 18.0356L17.5091 17.4195C17.5997 17.0118 17.6812 16.6041 17.7356 16.1963C17.7356 16.064 17.7871 15.946 17.8386 15.8278C17.8788 15.7356 17.919 15.6433 17.9349 15.544C17.9662 15.3482 18.1871 15.342 18.3049 15.3848Z" fill="#6A36FF"/>
<path fill-rule="evenodd" clip-rule="evenodd" d="M19.0529 12.6022C19.0609 12.5819 19.0719 12.5627 19.0858 12.5454C19.1363 12.4968 19.1989 12.4624 19.267 12.4457L19.575 12.3823C19.7743 12.3068 19.9877 12.2759 20.2002 12.2917C20.2636 12.2917 20.3361 12.2917 20.3995 12.3551C20.6912 12.2574 21.0031 12.2356 21.3056 12.2917C21.5464 12.2373 21.7925 12.2099 22.0394 12.2102C22.1002 12.1628 22.1722 12.132 22.2485 12.1209C22.3247 12.1097 22.4026 12.1187 22.4743 12.1467C22.7078 12.2071 22.9492 12.2316 23.1901 12.2192L23.8877 12.2283V12.2917L24.6398 14.0404C24.6398 14.0747 24.6574 14.1042 24.6759 14.135C24.7012 14.1773 24.728 14.2221 24.7122 14.285C24.6851 14.3937 24.7123 14.4934 24.7757 14.6021V14.7652C24.7988 14.8512 24.814 14.9392 24.821 15.0279C24.8307 15.2872 24.864 15.5449 24.9206 15.7981H23.7881C23.4018 15.7755 23.0146 15.7755 22.6283 15.7981C22.3951 15.8392 22.1584 15.8575 21.9216 15.8524C21.8958 15.8524 21.87 15.8567 21.8441 15.861C21.7703 15.8731 21.6965 15.8853 21.6226 15.7981C21.5592 15.7231 21.5252 15.7656 21.4924 15.8064C21.4737 15.8297 21.4555 15.8524 21.4324 15.8524H20.2727C20.1999 15.8524 20.1272 15.868 20.0531 15.8839C19.9887 15.8976 19.9233 15.9116 19.8559 15.9158C19.7145 15.9339 19.5714 15.9339 19.4301 15.9158C19.3428 15.9158 19.2729 15.9054 19.1892 15.893C19.0817 15.8769 18.9514 15.8575 18.7324 15.8524C18.4697 15.8463 18.3059 15.8485 18.1493 15.8505C18.0736 15.8515 17.9996 15.8524 17.917 15.8524C17.9339 15.7699 17.955 15.6882 17.9804 15.6078C18.076 15.3112 18.1516 15.0085 18.2069 14.7018L18.2975 14.2125C18.3761 13.8869 18.4366 13.5572 18.4787 13.2249C18.4787 13.1226 18.5249 13.029 18.5717 12.9342C18.6078 12.8611 18.6442 12.7874 18.6599 12.7085C18.6944 12.5362 18.95 12.5605 19.0529 12.6022Z" fill="#FFB800"/>
<path fill-rule="evenodd" clip-rule="evenodd" d="M21.3472 8.48708C21.4025 8.50087 21.4518 8.53228 21.4878 8.57662L21.6508 8.76688C21.6775 8.80082 21.7081 8.83346 21.7389 8.86636C21.8232 8.95644 21.9094 9.04849 21.9226 9.17458C21.9339 9.28193 21.9664 9.29063 21.9672 9.30174C21.9677 9.30845 21.9567 9.31604 21.9226 9.34673C22.087 9.44789 22.1367 9.60199 22.1856 9.75362C22.2067 9.81928 22.2278 9.88448 22.2579 9.94472C22.2992 10.0273 22.3545 10.0913 22.4071 10.152C22.4813 10.2378 22.55 10.3173 22.5659 10.434C22.6272 10.4524 22.6803 10.4911 22.7166 10.5439C22.7528 10.5966 22.77 10.6601 22.7652 10.7239C22.8562 11.1072 22.9996 11.476 23.1911 11.8202L23.7619 13.1068H23.0461C23.0069 13.1068 22.9726 13.1148 22.9384 13.1229C22.8699 13.139 22.8015 13.1551 22.6928 13.1068C22.549 13.0804 22.4016 13.0804 22.2579 13.1068C22.183 13.1204 22.1063 13.1204 22.0314 13.1068C21.7359 13.0295 21.4287 13.008 21.1253 13.0434C20.8237 13.0212 20.5209 13.0212 20.2193 13.0434C19.9201 13.0943 19.6166 13.1155 19.3133 13.1068C19.283 13.1068 19.246 13.1099 19.2073 13.1131C19.0841 13.1234 18.9439 13.1352 18.9508 13.0524C18.9563 12.9864 18.9184 13.0006 18.8613 13.0219C18.8245 13.0356 18.7796 13.0524 18.7334 13.0524C18.7295 13.0284 18.7295 13.0039 18.7334 12.9799C18.8149 12.7806 18.9146 12.5631 19.0143 12.3457C19.1139 12.1283 19.3132 11.6934 19.3495 11.5846C19.3639 11.5413 19.3669 11.498 19.3698 11.4552C19.3741 11.3907 19.3784 11.3275 19.422 11.2675C19.4562 11.1603 19.5018 11.057 19.5579 10.9595C19.598 10.8893 19.6465 10.8218 19.694 10.7556C19.7324 10.7022 19.7701 10.6497 19.8025 10.5971C19.8319 10.5493 19.8509 10.4911 19.8703 10.4316C19.8987 10.3443 19.9281 10.254 19.9928 10.1894C20.1578 9.97975 20.2864 9.74391 20.3733 9.4917C20.4953 9.26066 20.6013 9.0215 20.6905 8.77593C20.7154 8.70096 20.7707 8.63978 20.826 8.5787C20.8708 8.52905 20.9157 8.47946 20.9441 8.42259C20.9896 8.33163 21.1329 8.37112 21.2404 8.40074C21.2828 8.41243 21.3197 8.42259 21.3428 8.42259C21.3428 8.44382 21.3445 8.46537 21.3472 8.48708Z" fill="#6A36FF"/>
<path fill-rule="evenodd" clip-rule="evenodd" d="M13.4283 22.8492C11.6969 21.7842 10.2114 20.3636 9.07027 18.6814C7.42129 16.1898 7.2582 13.3992 8.67161 12.466C10.085 11.5328 12.5857 12.7831 14.2256 15.2747C14.3343 15.4378 14.434 15.61 14.5427 15.7821C14.7727 15.4392 15.1267 15.1988 15.5303 15.1116C16.0921 15.0658 16.6496 15.2408 17.0844 15.5995C17.5192 15.9581 17.797 16.4722 17.8588 17.0324C17.9675 17.5579 18.1397 18.6361 18.2393 19.7505C20.4502 19.3506 22.715 19.3506 24.9259 19.7505C25.0255 18.6452 25.2067 17.5579 25.3155 17.0324C25.3751 16.473 25.651 15.9589 26.0843 15.6001C26.5177 15.2412 27.0741 15.0659 27.6349 15.1116C28.041 15.1984 28.3981 15.4386 28.6316 15.7821L28.9396 15.2747C30.5886 12.7831 33.0802 11.5237 34.5027 12.466C35.9251 13.4083 35.753 16.1898 34.104 18.6814C32.9953 20.3042 31.5718 21.6876 29.9181 22.7495C30.0903 22.9579 30.2533 23.1753 30.4164 23.3928C33.8775 28.2129 36.7587 34.6095 29.746 34.6095H13.4374C7.44847 34.0659 10.0397 27.7236 13.3105 22.9941L13.4283 22.8492Z" fill="white"/>
<path d="M10.6571 31.7634C10.6951 32.0952 10.812 32.4131 10.998 32.6905C11.184 32.968 11.4337 33.1968 11.7262 33.358C11.7953 33.4086 11.868 33.454 11.9437 33.4939L12.2064 33.5845C12.3795 33.6568 12.5583 33.7144 12.741 33.7567L13.3208 33.8473C13.3993 33.8524 13.478 33.8524 13.5564 33.8473H13.8826C14.5552 33.907 15.233 33.8673 15.894 33.7295C16.2292 33.6208 16.8635 33.8745 17.4705 33.8563H22.3993L27.1922 33.7204C27.9805 33.7204 28.7869 33.7204 29.5842 33.7204C30.2824 33.7667 30.9826 33.6679 31.6408 33.4305C32.0672 33.2842 32.4545 33.0425 32.7734 32.7238C33.0631 32.3907 33.2153 31.9599 33.1992 31.5188C33.0839 30.3183 32.7781 29.1439 32.2932 28.0396C31.9819 27.1692 31.5683 26.3389 31.061 25.5661C30.7348 25.095 30.3271 24.7145 29.9738 24.189L29.6838 23.8447L29.3486 23.3826C29.1221 23.0836 28.8956 22.7846 28.6509 22.4766C28.935 22.2829 29.1991 22.0613 29.4392 21.8152C29.688 21.6483 29.945 21.4941 30.2093 21.3531C30.7908 21.1034 31.2878 20.6913 31.6408 20.1662C31.9217 19.7403 32.2298 19.4323 32.5469 19.0699C33.3322 18.1529 33.924 17.0866 34.2865 15.935C34.5786 15.1963 34.6262 14.3833 34.4224 13.6155C34.1596 12.9904 33.5707 12.9451 32.7915 13.0629C31.9775 13.2563 31.2413 13.6923 30.6804 14.3132C30.488 14.486 30.3065 14.6706 30.1368 14.8659C30.0601 14.9666 29.9905 15.0726 29.9285 15.183C29.8371 15.3677 29.7583 15.5584 29.6929 15.7538C29.6033 15.9345 29.4939 16.1047 29.3667 16.2612L29.0134 16.7233L28.8503 16.9407L28.6962 17.0857C28.4607 16.7504 28.207 16.4152 27.9805 16.1796C27.9026 16.0564 27.7931 15.9563 27.6634 15.8897H27.5456C27.3789 15.869 27.2101 15.9041 27.0654 15.9894C26.7202 16.2345 26.4579 16.579 26.3134 16.977C26.2709 17.0607 26.2374 17.1488 26.2137 17.2397L26.1503 17.6021L26.0325 18.3541C25.9147 19.1695 25.806 19.985 25.6882 20.7913L24.1027 20.5377L23.559 20.4742H23.1423C22.7351 20.3699 22.3081 20.3699 21.901 20.4742C21.6403 20.5211 21.3734 20.5211 21.1127 20.4742C20.673 20.3985 20.2258 20.3772 19.7809 20.4108H19.4456L18.8476 20.4923L17.5339 20.7279C17.4524 20.1662 17.3799 19.6045 17.2984 19.0427L17.1443 17.9011C17.1162 17.5949 17.0617 17.2918 16.9812 16.9951C16.8491 16.544 16.564 16.1532 16.1749 15.8897C16.107 15.839 16.0288 15.8038 15.9458 15.7866C15.8629 15.7694 15.7771 15.7705 15.6947 15.79C15.6495 15.7956 15.6062 15.8111 15.5678 15.8353C15.4453 15.9013 15.3423 15.9981 15.2688 16.1162C15.0423 16.4061 14.7886 16.7776 14.544 17.1672C14.4534 17.0766 14.4081 17.0947 14.3265 16.9951C14.0596 16.6649 13.8202 16.3134 13.6108 15.9441L13.2212 15.328C13.1397 15.2192 13.0672 15.1196 12.9856 15.029C12.6967 14.7714 12.3943 14.5295 12.0796 14.3041C11.8531 14.1048 11.6628 13.833 11.4182 13.6337C11.3454 13.5629 11.2591 13.5075 11.1645 13.4706C10.8651 13.3035 10.5352 13.1982 10.1944 13.1608C9.85359 13.1235 9.50874 13.1549 9.18026 13.2531C8.90329 13.4831 8.70111 13.7903 8.59945 14.1356C8.49779 14.4809 8.50125 14.8487 8.60946 15.1921C9.01842 17.0785 9.98426 18.7987 11.3819 20.1299C12.1371 20.8194 12.8092 21.5948 13.3843 22.4403C13.5745 22.7846 13.4839 22.984 12.9856 22.8299C12.5866 22.7046 12.208 22.5215 11.8621 22.2863C11.3083 21.8928 10.7789 21.4662 10.2766 21.0088C9.14397 20.107 8.2509 18.94 7.67627 17.6112C7.52225 17.1672 7.21418 16.7051 7.32291 16.243C7.32608 16.1289 7.30763 16.0151 7.26855 15.9078C7.05967 15.3838 6.97079 14.8197 7.00842 14.2568C7.04604 13.694 7.20922 13.1467 7.48599 12.6552C7.84377 12.0923 8.40544 11.6897 9.05341 11.5317C9.6542 11.4003 10.2789 11.4284 10.8655 11.6132C11.7332 11.8785 12.5443 12.3025 13.2574 12.8636C13.6036 13.1367 13.9249 13.4399 14.2178 13.7696C14.3628 13.9327 14.4987 14.1048 14.6346 14.277C14.6721 14.3335 14.7025 14.3943 14.7252 14.4582C14.7508 14.4479 14.773 14.4304 14.789 14.408C14.8051 14.3855 14.8144 14.3589 14.8158 14.3313C14.8184 14.3133 14.8184 14.295 14.8158 14.277C14.9891 14.1872 15.1757 14.126 15.3685 14.0957C15.9232 13.996 16.4954 14.0887 16.9903 14.3585C17.4756 14.6433 17.8879 15.0372 18.1945 15.509C18.5012 15.9808 18.6938 16.5175 18.7571 17.0766L18.9201 18.3722V18.6622C18.915 18.6982 18.915 18.7348 18.9201 18.7709L19.2372 18.7165C19.6268 18.7165 20.0165 18.635 20.4151 18.6078C21.1994 18.5535 21.9865 18.5535 22.7708 18.6078C23.1513 18.6078 23.5319 18.6803 23.9124 18.7256H24.0755H24.1751L24.302 17.8196L24.4379 16.9135C24.5052 16.5441 24.6273 16.1868 24.8003 15.8535C24.9819 15.4841 25.2359 15.155 25.5472 14.8858C25.8585 14.6165 26.2207 14.4126 26.6124 14.286C27.059 14.1549 27.5339 14.1549 27.9805 14.286L28.2432 14.3857L28.2976 14.44C28.2976 14.44 28.2976 14.3132 28.3701 14.2407C28.3657 14.2198 28.3657 14.1982 28.3701 14.1773L28.506 13.9961C28.6096 13.8622 28.7281 13.7406 28.8594 13.6337C29.4087 13.089 29.9928 12.5805 30.608 12.1115C31.2329 11.6497 31.9661 11.3564 32.7372 11.2599C33.1711 11.2166 33.6093 11.2688 34.0209 11.4128C34.4325 11.5568 34.8077 11.7891 35.12 12.0934C35.6584 12.7059 35.9633 13.4888 35.9808 14.3041C36.0945 15.7266 35.7956 17.1516 35.12 18.4085C34.5296 19.402 33.8141 20.3155 32.9909 21.1266C32.5878 21.5343 32.1645 21.9213 31.7224 22.2863L31.1697 22.7393L30.9523 22.8843C31.0157 22.9749 31.0972 23.0474 31.1607 23.1289L31.813 24.0349C32.0485 24.3521 32.2751 24.6782 32.4925 25.0044C32.9479 25.6632 33.345 26.3605 33.6794 27.0883C34.0498 27.6954 34.2847 28.3753 34.368 29.0816C34.368 29.2809 34.7213 29.8789 34.812 30.35C34.9397 30.961 34.9581 31.5899 34.8663 32.2074C34.7526 32.9045 34.4377 33.5533 33.9603 34.0738C33.305 34.714 32.471 35.1405 31.5684 35.297C30.7877 35.4318 29.9956 35.4895 29.2036 35.4691C28.2976 35.4691 27.3915 35.5778 26.4855 35.605C25.5795 35.6322 24.61 35.605 23.6677 35.605L20.1161 35.4691C18.8839 35.4691 17.6064 35.5506 16.4285 35.4691C15.8759 35.4147 15.3322 35.3876 14.7886 35.3694H13.9642H13.5564C13.4663 35.3821 13.3748 35.3821 13.2846 35.3694H13.0581C12.7591 35.3241 12.4601 35.2788 12.1521 35.2154L11.246 34.9073C10.9517 34.7464 10.6673 34.5679 10.3944 34.3728C10.1402 34.1445 9.91501 33.8858 9.72386 33.6027C9.10389 32.4813 8.93541 31.1656 9.25276 29.9242C9.4931 28.8058 9.85779 27.7178 10.34 26.6806C10.9032 25.6018 11.9186 23.2705 12.6342 22.2863C12.9513 21.8061 13.4493 22.4139 13.4765 22.7219C13.4731 22.8061 13.5882 22.9484 13.4568 23.3464C12.9403 24.4155 12.6323 25.4574 12.0071 26.6081C11.5462 27.4432 11.1728 28.3238 10.8927 29.2356C10.6341 30.0516 10.5538 30.9136 10.6571 31.7634Z" fill="#1F2227"/>
<path d="M20.2276 25.5095C20.1407 25.4317 20.0923 25.3872 20.0053 25.3365C19.9184 25.2858 19.5801 25.2808 19.5801 25.2808C19.5561 25.2579 19.526 25.2419 19.4931 25.2344H19.3965C19.1714 25.289 18.9711 25.413 18.8263 25.5872C18.7375 25.7138 18.6751 25.8557 18.6426 26.0051C18.6046 26.1748 18.5562 26.3422 18.4977 26.5065C18.4786 26.6078 18.4786 26.7116 18.4977 26.8129C18.5073 26.9024 18.5073 26.9927 18.4977 27.0822V27.6393C18.5072 27.7427 18.5367 27.8435 18.5846 27.9365C18.6233 28.0201 18.6716 27.9365 18.7296 28.0201C18.7722 28.1186 18.8206 28.2147 18.8746 28.3079C18.9039 28.3719 18.943 28.4314 18.9906 28.4843C19.0485 28.4936 19.0485 28.3543 19.0485 28.4286C19.0389 28.6886 19.0582 28.5122 19.1162 28.6329C19.1742 28.7536 19.2418 28.6979 19.3095 28.6979C19.3944 28.7255 19.4755 28.763 19.5511 28.8093C19.6022 28.8189 19.6547 28.8189 19.7057 28.8093C19.928 28.8279 20.0923 28.6701 20.16 28.6886C20.2276 28.7072 20.1986 28.6422 20.2276 28.6143C20.2566 28.5865 20.3146 28.475 20.3146 28.5308V28.4193C20.4222 28.1854 20.4969 27.9387 20.5369 27.6858C20.6142 27.4072 20.6035 27.1366 20.6035 26.7447C20.6035 26.3528 20.45 25.872 20.45 25.872C20.4113 25.7606 20.3146 25.5872 20.2276 25.5095Z" fill="#1F2227"/>
<path d="M24.3429 25.5114C24.2559 25.4337 24.2076 25.3892 24.1206 25.3385C24.0336 25.2877 23.6953 25.2827 23.6953 25.2827C23.6713 25.2599 23.6412 25.2438 23.6084 25.2363H23.5117C23.2866 25.291 23.0864 25.4149 22.9415 25.5892C22.8527 25.7157 22.7904 25.8576 22.7579 26.007C22.7198 26.1767 22.6714 26.3442 22.6129 26.5085C22.5939 26.6098 22.5939 26.7135 22.6129 26.8149C22.6225 26.9044 22.6225 26.9946 22.6129 27.0842V27.6413C22.6224 27.7447 22.6519 27.8454 22.6999 27.9384C22.7385 28.022 22.7869 27.9384 22.8448 28.022C22.8874 28.1206 22.9358 28.2167 22.9898 28.3099C23.0192 28.3739 23.0582 28.4333 23.1058 28.4863C23.1638 28.4956 23.1638 28.3563 23.1638 28.4306C23.1541 28.6906 23.1734 28.5142 23.2314 28.6349C23.2894 28.7556 23.3571 28.6998 23.4247 28.6998C23.5096 28.7275 23.5908 28.7649 23.6663 28.8113C23.7174 28.8208 23.7699 28.8208 23.821 28.8113C24.0433 28.8299 24.2076 28.672 24.2752 28.6906C24.3429 28.7092 24.3139 28.6441 24.3429 28.6163C24.3719 28.5884 24.4298 28.477 24.4298 28.5327V28.4213C24.5374 28.1873 24.6122 27.9406 24.6521 27.6877C24.7295 27.4091 24.7188 27.1386 24.7188 26.7467C24.7188 26.3547 24.5652 25.874 24.5652 25.874C24.5265 25.7626 24.4298 25.5892 24.3429 25.5114Z" fill="#1F2227"/>
<path d="M19.3031 24.7116L18.9526 24.6383C18.8163 24.6097 18.6862 24.5699 18.5613 24.5438C18.4848 24.4975 18.4251 24.3801 18.385 24.1974C18.381 24.1845 18.3801 24.1621 18.3824 24.1337C18.3949 23.9973 18.5244 23.6264 18.5613 23.6341C18.6404 23.657 18.7383 23.5574 18.8199 23.5745L19.2507 23.6646C19.3886 23.7292 19.5395 23.7333 19.7018 23.6768L19.8358 23.7743C19.9722 23.8029 20.1022 23.8427 20.2271 23.8688C20.3036 23.9151 20.3633 24.0325 20.4034 24.2152C20.4074 24.228 20.4083 24.2505 20.406 24.2789C20.3935 24.4153 20.264 24.7862 20.2271 24.7785C20.148 24.7556 20.0501 24.8551 19.9685 24.8381L19.5366 24.7604C19.4971 24.7458 19.4219 24.888 19.4141 24.8169C19.3921 24.7231 19.3534 24.6865 19.3031 24.7116Z" fill="#1F2227"/>
<path d="M20.985 31.5894C20.991 31.5677 20.9992 31.5468 21.0055 31.5255C21.0089 31.5148 21.0115 31.5039 21.0134 31.4928C21.0147 31.4816 21.0147 31.4703 21.0134 31.459C21.0117 31.4422 21.1507 31.4395 21.0255 31.3936C20.9631 31.3709 21.048 31.3909 21.0443 31.3748C21.0347 31.3318 21.0674 31.2963 21.058 31.2548C21.051 31.2321 21.04 31.2108 21.0255 31.192C21.0106 31.1741 20.9986 31.154 20.99 31.1323C20.9848 31.1131 21.0015 31.0976 21.0092 31.0809C21.0169 31.0642 21.0169 31.0461 20.9787 31.0273C20.9455 31.011 20.9595 30.9997 20.9787 30.9874C20.9979 30.9751 21.0219 30.9628 21.0079 30.949C20.976 30.9215 20.9576 30.8956 21.0138 30.8676C21.0547 30.8474 21.1081 30.8225 21.0791 30.8058C21.0608 30.7954 20.9812 30.7943 20.9856 30.7822C20.99 30.7701 21.1397 30.7338 20.9856 30.7507C20.9727 30.752 20.9134 30.7567 20.9338 30.7507C21.0309 30.7229 21.0219 30.7075 20.953 30.7135C20.884 30.7194 20.9578 30.6861 20.953 30.6796C20.9405 30.6616 20.9432 30.662 20.953 30.6388C20.9946 30.5865 20.927 30.6 20.9353 30.5791C20.9389 30.5689 20.9226 30.5672 20.9138 30.563C20.905 30.5587 20.9034 30.5512 20.933 30.5278C20.9906 30.4798 20.9806 30.4658 20.9714 30.4526C20.9666 30.4457 21.0194 30.395 20.8854 30.4773C20.8729 30.485 20.8731 30.4814 20.8825 30.4731C20.9604 30.4052 20.9366 30.4025 20.9017 30.4138C20.8668 30.4251 20.8172 30.451 20.8286 30.4257C20.8399 30.4004 20.8343 30.3862 20.8216 30.3792C20.8151 30.3757 20.8082 30.3729 20.8011 30.3708C20.794 30.3686 20.7872 30.3657 20.7806 30.3624C20.7742 30.3589 20.9011 30.232 20.8216 30.3123C20.7936 30.3407 20.7161 30.3362 20.7326 30.3123C20.7418 30.3186 20.7756 30.2472 20.7326 30.3123C20.7234 30.3059 20.7047 30.3123 20.7026 30.2954C20.7005 30.2785 20.6834 30.2762 20.6729 30.2681C20.6623 30.26 20.6567 30.2428 20.6763 30.1838C20.693 30.1343 20.6909 30.0996 20.6042 30.2172C20.5658 30.2714 20.5861 30.2065 20.569 30.2145C20.555 30.2213 20.5166 30.2756 20.508 30.2737C20.4993 30.2717 20.5212 30.2161 20.5272 30.1892C20.5289 30.1809 20.5272 30.1792 20.5206 30.1857C20.4922 30.2172 20.4755 30.2278 20.4646 30.2259C20.4537 30.2239 20.4477 30.2099 20.4435 30.1923C20.4356 30.1568 20.4318 30.1067 20.4007 30.1184C20.34 30.141 20.3014 30.1074 20.2619 30.0688C20.2394 30.0479 20.0936 29.9096 20.1596 29.6343C20.1894 29.5105 20.2482 29.3777 20.287 29.3053C20.3152 29.2523 20.4477 29.2346 20.4646 29.2246C20.4913 29.2088 20.5425 29.2072 20.569 29.1911C20.6241 29.16 20.7045 29.0866 20.7224 29.168C20.7276 29.1935 20.7714 29.1311 20.7349 29.2516C20.7299 29.2683 20.7316 29.2791 20.7374 29.272C20.8025 29.1931 20.8391 29.19 20.866 29.2092C20.8929 29.2284 20.9101 29.2668 20.9428 29.2749C20.97 29.2816 21.0132 29.2566 21.0532 29.2413C21.0931 29.2259 21.1299 29.2221 21.1388 29.2653C21.1916 29.206 21.2155 29.2386 21.2349 29.2413C21.2543 29.244 21.2697 29.2217 21.2718 29.2507C21.2791 29.3519 21.3188 29.3977 21.3707 29.4298C21.3962 29.4469 21.4246 29.4609 21.4517 29.4768C21.4795 29.4923 21.5042 29.5129 21.5242 29.5377C21.5342 29.5505 21.5448 29.5624 21.5553 29.5749C21.5659 29.5874 21.5766 29.5999 21.5876 29.612C21.6097 29.636 21.6327 29.6588 21.6548 29.6838C21.6769 29.7087 21.7003 29.7318 21.7206 29.7584C21.7414 29.7846 21.7606 29.812 21.7782 29.8404C21.7891 29.8596 21.8742 29.8281 21.832 29.8884C21.8128 29.9164 21.8166 29.9301 21.8287 29.9402C21.8408 29.9504 21.8584 29.9579 21.8657 29.9709C21.8788 29.9942 21.9233 30.0038 21.8993 30.0445C21.8492 30.1285 21.8561 30.1777 21.8751 30.2238C21.8849 30.2464 21.8997 30.2675 21.9116 30.2896C21.924 30.3112 21.9324 30.3348 21.9364 30.3593C21.94 30.3839 21.9418 30.4084 21.9443 30.4324C21.9468 30.4564 21.9504 30.4804 21.9552 30.5038C21.9589 30.5272 21.9647 30.5501 21.9725 30.5724C21.9809 30.5953 21.9912 30.6176 22.0034 30.6388C22.0191 30.6653 22.0498 30.6904 22.0734 30.7177C22.0971 30.7449 22.1118 30.7728 22.0963 30.8027C22.0902 30.8154 22.1084 30.8273 22.1101 30.8402C22.1118 30.853 22.0961 30.8657 22.0233 30.8785C21.9821 30.8857 22.094 30.9058 22.1001 30.9219C22.1138 30.9603 22.1032 30.9987 22.1019 31.0371C22.1007 31.0905 22.0848 31.1402 22.0951 31.193C22.1019 31.2254 22.1573 31.2619 22.1683 31.2957C22.174 31.3119 22.1757 31.3292 22.1734 31.3463C22.171 31.3633 22.1647 31.3795 22.1548 31.3936C22.1295 31.432 22.0725 31.4627 22.0498 31.4982C22.0272 31.5337 22.0844 31.5913 22.0099 31.6145C21.9404 31.6355 21.9172 31.6654 21.9076 31.699C21.898 31.7326 21.9001 31.7685 21.8842 31.8C21.8529 31.8629 21.8218 31.9232 21.8316 31.9973C21.836 32.0392 21.7074 32.0332 21.6972 32.068C21.6922 32.0849 21.3868 32.1596 21.2718 32.1126C21.2538 32.1056 21.0612 32.0442 21.0443 32.0348C20.9464 31.9662 20.9155 31.7635 20.9382 31.7343C20.9687 31.6917 20.9706 31.6383 20.985 31.5894Z" fill="#1F2227"/>
<path d="M24.1587 15.3515C24.0318 15.0797 23.9141 14.7989 23.7691 14.527C23.7147 14.4274 23.8419 14.2814 23.5882 14.2633C23.5219 14.1473 23.5788 14.0559 23.5154 13.9653C23.3704 13.7207 23.2798 13.4398 23.1439 13.1952C23.008 12.9505 22.8087 12.7422 22.6728 12.5066C22.5369 12.271 22.5188 11.963 22.3013 11.7818C22.0839 11.6006 22.1926 11.3469 22.0567 11.1747C21.9018 10.9926 21.804 10.7688 21.7758 10.5314C21.7931 10.3609 21.755 10.1894 21.6671 10.0422C21.6037 9.96065 21.4496 9.92441 21.4134 9.81568C21.3771 9.70696 21.4134 9.57105 21.1597 9.58918C21.1597 9.58918 21.1597 9.53481 21.1597 9.49857C21.1945 9.4415 21.2103 9.37492 21.205 9.30831C21.205 9.30831 21.3915 9.30831 21.3099 9.30831V9.3536C21.4455 9.36728 21.3141 9.37635 21.4496 9.36267C21.5071 9.35558 21.3904 9.28538 21.4406 9.25659C21.4406 9.25659 21.5013 9.26301 21.4832 9.30831C21.4651 9.35361 21.5402 9.3083 21.5402 9.3536C21.5142 9.39334 21.4803 9.42728 21.4406 9.45328C21.2974 9.55114 21.1919 9.69497 21.1416 9.86097C21.1416 9.95158 20.9604 10.0059 21.1416 10.1781C21.1416 10.1781 21.1416 10.2234 21.1416 10.2325C20.7429 10.3502 21.0238 10.758 20.8516 10.9754C20.6931 11.2135 20.5767 11.4771 20.5073 11.7546C20.5073 11.8271 20.3805 11.8724 20.5073 11.9992C20.5206 12.0061 20.5318 12.0165 20.5396 12.0293C20.5474 12.042 20.5516 12.0567 20.5516 12.0717C20.5516 12.0867 20.5474 12.1014 20.5396 12.1141C20.5318 12.1269 20.5206 12.1373 20.5073 12.1442C20.1993 12.2438 20.2537 12.5066 20.1268 12.6878C20 12.869 20 13.168 19.7282 13.322C19.6194 13.3855 19.5198 13.5032 19.7282 13.7026C19.9365 13.9019 19.6648 13.8656 19.6466 13.9562C19.6285 14.0468 19.7101 14.1375 19.6466 14.21C19.5832 14.2824 19.5198 14.2915 19.4473 14.3277C19.4407 14.337 19.4371 14.3481 19.4371 14.3594C19.4371 14.3708 19.4407 14.3819 19.4473 14.3911C19.547 14.817 19.094 15.0163 19.0124 15.3697C18.9232 15.7263 18.7828 16.0681 18.5956 16.3844C18.505 16.5566 18.3601 16.7196 17.898 16.6743C17.7523 16.6848 17.6081 16.6389 17.4951 16.5462C17.3822 16.4535 17.3091 16.321 17.2909 16.176V15.8136C17.2909 15.569 17.2094 15.2791 17.4087 15.0979C17.4631 15.0435 17.4087 14.9167 17.599 14.9348C17.4359 14.518 17.753 14.2915 17.8617 14.0287C17.9705 13.766 17.8617 13.4217 18.0339 13.2042C17.9999 13.1694 17.9744 13.1272 17.9593 13.0808C17.9443 13.0345 17.9401 12.9854 17.9471 12.9372C17.9541 12.889 17.9721 12.8431 17.9998 12.803C18.0274 12.7629 18.0639 12.7297 18.1064 12.7059C18.5503 12.2982 18.6047 11.7274 18.8493 11.2291C19.094 10.7308 19.2842 10.2053 19.5107 9.6979C19.5107 9.60729 19.4564 9.48045 19.5923 9.41703C19.7282 9.3536 19.7101 9.20863 19.7554 9.09991C19.8007 8.99119 19.7553 8.86434 19.8912 8.79186C20.1561 8.48313 20.3592 8.1263 20.4893 7.74086C20.7187 7.74086 20.9186 7.52539 21.1597 7.52539C21.3662 7.52539 21.6149 7.74086 21.803 7.74086H22.1292L22.5278 8.64689C22.6094 8.8281 22.6275 8.86435 22.6818 8.96401C22.7362 9.06367 22.7725 9.12709 22.8268 9.20863C22.9718 9.43514 23.2074 9.61634 23.2708 9.87909C23.2708 9.98781 23.4701 10.0422 23.2708 10.2415C23.0715 10.4408 23.4248 10.3231 23.461 10.3865C23.5522 10.5432 23.631 10.7067 23.6966 10.8757C23.8053 11.1113 23.8959 11.3469 24.0228 11.5643C24.1496 11.7818 24.2584 11.7999 24.3399 11.9267C24.4292 12.0646 24.4992 12.2139 24.5483 12.3707C24.6026 12.5609 24.6208 12.7875 24.6842 12.9777C24.7476 13.168 24.9378 13.3401 24.9288 13.5667C24.9679 13.9485 25.0918 14.3168 25.2912 14.6448C25.4229 14.9973 25.5867 15.337 25.7805 15.6596C25.8892 15.8408 25.7805 16.0945 25.8892 16.2848C25.9979 16.475 25.4634 16.7287 25.2731 16.774C25.2404 16.7825 25.2061 16.7825 25.1734 16.774C24.9197 16.6653 24.5845 16.6109 24.503 16.3935C24.4214 16.176 24.2583 15.6687 24.1587 15.3515Z" fill="#1F2227"/>
<path d="M34.9455 25.495C35.1532 25.3027 35.4026 25.1658 35.6721 25.096C35.9417 25.0261 36.2235 25.0253 36.4934 25.0937C36.6982 25.1364 36.8129 25.2986 37.0668 25.2303C37.3207 25.162 37.2305 25.495 37.3616 25.5974C37.549 25.764 37.7017 25.9689 37.8101 26.1995C37.9186 26.43 37.9806 26.6813 37.9922 26.9378C38.0402 27.4038 37.9606 27.8744 37.7629 28.2953C37.5663 28.6795 37.2224 28.91 37.0176 29.243C36.8129 29.576 36.4853 29.5504 36.2477 29.7297C35.9882 29.93 35.6776 30.0458 35.355 30.0626H35.011C34.8969 30.0464 34.7812 30.0464 34.6671 30.0626C34.5606 30.0626 34.4623 30.2163 34.3312 30.2163C34.2002 30.2163 34.0855 30.1309 33.9955 30.3614C33.9955 30.3614 33.9381 30.3614 33.9053 30.3188C33.8823 30.2901 33.8534 30.267 33.8209 30.2511C33.7883 30.2353 33.7529 30.2271 33.717 30.2271C33.681 30.2271 33.6456 30.2353 33.613 30.2511C33.5805 30.267 33.5517 30.2901 33.5286 30.3188C33.4932 30.3579 33.4497 30.3881 33.4015 30.4073C33.3533 30.4266 33.3016 30.4342 33.2501 30.4298C32.9922 30.4666 32.7323 30.4866 32.4721 30.4895C32.2755 30.4895 32.0789 30.4127 31.8824 30.4041C31.6858 30.3956 31.4729 30.5066 31.2763 30.4041C31.1023 30.3318 30.913 30.3083 30.7275 30.3358C30.6211 30.3358 30.49 30.2505 30.4245 30.4895C30.4245 30.4895 30.3754 30.4895 30.359 30.4895C30.0396 30.2078 29.7775 30.6261 29.4663 30.5749C29.1516 30.5445 28.8344 30.5618 28.5244 30.6261C28.4425 30.6261 28.3442 30.5749 28.2787 30.7456C28.2687 30.7568 28.2567 30.7656 28.2433 30.7717C28.2299 30.7777 28.2155 30.7809 28.2009 30.7809C28.1863 30.7809 28.1719 30.7777 28.1585 30.7717C28.1451 30.7656 28.133 30.7568 28.1231 30.7456C27.8774 30.5322 27.6399 30.6859 27.4023 30.6688C27.1648 30.6517 26.8618 30.7627 26.5833 30.609C26.5498 30.584 26.5112 30.5673 26.4705 30.5603C26.4297 30.5532 26.388 30.556 26.3484 30.5683C26.3089 30.5807 26.2726 30.6023 26.2424 30.6316C26.2121 30.6609 26.1886 30.6969 26.1738 30.7371C26.1165 30.8396 25.9773 30.7371 25.879 30.7371C25.7807 30.7371 25.7316 30.8652 25.6497 30.8737C25.5678 30.8822 25.5023 30.7969 25.4285 30.7627H25.363C24.9781 31.0359 24.544 30.7627 24.1673 30.831C23.7679 30.9096 23.3613 30.9411 22.9551 30.9249C22.8152 30.9295 22.6776 30.8861 22.5637 30.8012C22.4498 30.7164 22.3657 30.5949 22.3245 30.4554C22.2821 30.3788 22.2598 30.2919 22.2598 30.2035C22.2598 30.1151 22.2821 30.0282 22.3245 29.9516C22.3786 29.8612 22.4549 29.7875 22.5456 29.7382L22.9142 29.5931C23.1681 29.5077 23.4056 29.2942 23.684 29.3796C23.7659 29.3796 23.856 29.2857 23.9379 29.4735H23.9953C24.3311 29.1662 24.716 29.3284 25.0764 29.2772C25.4367 29.2259 25.666 28.9869 25.9773 29.0637C26.0331 28.9728 26.1193 28.9068 26.2192 28.8784C26.319 28.85 26.4255 28.8613 26.5179 28.91C27.1251 29.0167 27.7452 29.0167 28.3524 28.91C28.9749 28.91 29.5892 28.8247 30.2034 28.7991C30.3099 28.7991 30.3918 28.6539 30.5228 28.7478C30.6538 28.8417 30.7931 28.7478 30.9242 28.7478C31.0552 28.7478 31.178 28.6795 31.2927 28.7478C31.776 28.8543 32.2754 28.8543 32.7587 28.7478C33.244 28.7491 33.7285 28.712 34.2084 28.6368L34.6425 28.5173H34.7489C34.8032 28.5083 34.8585 28.5083 34.9127 28.5173C35.0192 28.5173 35.0765 28.3551 35.2403 28.5173C35.2895 28.5685 35.3223 28.3722 35.3714 28.338C35.4205 28.3039 35.6499 28.1843 35.7809 28.099C35.959 27.9856 36.1147 27.8378 36.2395 27.6635C36.2904 27.5542 36.3183 27.4349 36.3214 27.3135C36.3214 27.2196 36.3788 27.1342 36.4034 27.0744C36.4279 27.0147 36.5098 26.9293 36.5016 26.8525C36.4934 26.7756 36.3624 26.7756 36.3378 26.6219C36.3121 26.559 36.2761 26.5012 36.2313 26.4512C36.1929 26.4206 36.148 26.4002 36.1003 26.3914C36.0303 26.3743 35.9574 26.3743 35.8874 26.3914C35.8046 26.4344 35.7341 26.4992 35.6826 26.5792C35.6335 26.6646 35.6826 26.7671 35.6826 26.7671C35.6826 26.7671 35.5188 26.8268 35.5516 26.7671C35.5843 26.7073 35.5516 26.7671 35.5516 26.7671C35.6254 27.001 35.6586 27.2467 35.6498 27.4928C35.6404 27.525 35.6236 27.5544 35.6007 27.5782C35.4348 27.6802 35.2444 27.7306 35.052 27.7233C34.9193 27.7041 34.7932 27.6512 34.6846 27.5693C34.5761 27.4875 34.4885 27.3791 34.4295 27.2537C34.3455 26.9398 34.3495 26.6074 34.441 26.2957C34.5324 25.9841 34.7074 25.7062 34.9455 25.495Z" fill="#1F2227"/>
<path d="M34.9782 27.1514V27.1087L35.5679 26.7928C35.5898 26.8138 35.6146 26.8311 35.6416 26.8441L35.8218 26.9551L36.133 27.1343H36.1904L35.9856 27.3222C35.9856 27.3222 36.1576 27.5015 35.6171 26.8868C35.527 26.7587 35.617 26.8441 35.5433 26.7928L35.3632 26.4343C35.33 26.3532 35.2888 26.2759 35.2403 26.2037H35.2976L35.3959 26.1611L35.6089 26.1098L35.7891 27.4758C35.6305 27.4972 35.4695 27.4643 35.3304 27.3819C35.2531 27.3271 35.1864 27.2576 35.1338 27.177C35.0971 27.1194 35.0694 27.056 35.0519 26.9892C35.0484 26.9381 35.0484 26.8867 35.0519 26.8355V26.7416C35.0466 26.6763 35.0466 26.6106 35.0519 26.5452C35.0881 26.4254 35.1435 26.3128 35.2157 26.2123C35.328 26.0644 35.4708 25.9447 35.6334 25.8622L35.7727 25.9135V25.8196H35.8382C35.9638 25.7784 36.0966 25.7671 36.227 25.7863C36.3573 25.8055 36.4819 25.8547 36.5917 25.9305H36.6982L36.7718 26.0245C36.8616 26.1511 36.9411 26.2853 37.0094 26.4257L37.1159 26.6648L36.6162 26.6221C36.5425 26.6221 36.5016 26.716 36.6162 26.5367L36.7473 26.3489L36.7882 26.2806V26.2208L36.8538 26.2635C36.9254 26.3197 36.9865 26.3891 37.0339 26.4684C37.1172 26.5903 37.1604 26.7371 37.1568 26.8868V26.8185C37.1718 27.008 37.1257 27.1973 37.0257 27.3563V27.4161V27.5442V27.4588C37.0066 27.6741 36.9392 27.8817 36.8292 28.0649C36.7145 28.2613 36.518 28.4748 36.4197 28.6711C36.3979 28.7151 36.3635 28.7509 36.3214 28.7736C36.2568 28.8155 36.184 28.8418 36.1084 28.8504C35.9446 28.8931 35.9283 28.8504 35.8873 28.8504C35.869 28.8843 35.847 28.9158 35.8218 28.9443C35.7677 29.0016 35.7038 29.048 35.6334 29.0809C35.5057 29.1525 35.3584 29.1766 35.2157 29.1493C35.1009 29.1325 34.993 29.0821 34.9045 29.0041L34.8554 28.9529L34.9209 28.876L34.9619 28.8334L35.0847 28.6711C35.1146 28.6272 35.1368 28.5781 35.1502 28.526C35.1502 28.526 35.1502 28.526 35.1502 28.6455C35.1502 28.7651 35.2485 28.8675 35.3222 29.0126C35.3959 29.1578 35.3222 29.0126 35.3222 29.0553C35.2719 29.0818 35.2199 29.1046 35.1666 29.1236H35.0192H34.9127V28.7992C34.9127 28.859 34.8472 28.6199 34.8226 28.5687L35.2239 29.0639C35.1175 29.1407 35.0683 29.1492 35.0519 29.1663H34.9782C34.5498 29.2933 34.1112 29.379 33.6678 29.4225C33.3402 29.4225 32.9307 29.4737 32.7096 29.5164C32.3328 29.6177 31.9429 29.6551 31.5547 29.6274L31.2517 29.559C31.2428 29.5545 31.233 29.5522 31.223 29.5522C31.2131 29.5522 31.2033 29.5545 31.1944 29.559H31.1125H31.0551C31.0551 29.9262 31.0551 29.0553 31.0551 29.1493V29.3029C31.0551 29.3712 31.0551 29.4908 31.1043 29.6274H31.006C30.8359 29.6652 30.6601 29.6652 30.49 29.6274C30.428 29.6069 30.3678 29.5812 30.3099 29.5505L30.2279 29.4993L30.531 29.0383C30.5332 29.0156 30.5332 28.9926 30.531 28.9699C30.5282 28.9869 30.5282 29.0042 30.531 29.0212V29.0895V29.1493L30.7112 29.5761L30.5719 29.6359C30.4819 29.6681 30.3883 29.6881 30.2935 29.6957H30.0068H29.8021C29.2959 29.7481 28.7872 29.7681 28.2787 29.7554C28.0575 29.7554 27.7873 29.8579 27.4597 29.8835C27.0861 29.9167 26.7102 29.8583 26.3622 29.7127C26.3622 29.7127 26.3622 29.7554 26.3622 29.5164C26.3694 29.4369 26.3694 29.3568 26.3622 29.2773C26.4156 29.3578 26.4855 29.4249 26.567 29.4737L25.9199 29.6444C25.9199 29.5932 25.9199 29.8408 25.9199 29.781L25.7643 29.8494C25.6175 29.9443 25.4609 30.0216 25.2975 30.0799C25.1253 30.1353 24.945 30.1584 24.7651 30.1481C24.6505 30.1481 24.5767 30.1481 24.5686 30.1481V30.0969L24.6259 30.1738L24.6914 30.2591C24.5671 30.3601 24.4208 30.4276 24.2655 30.4555C24.0741 30.4931 23.8762 30.4662 23.7004 30.3787C23.5354 30.2953 23.3963 30.1651 23.2991 30.003V29.9262V29.8835L23.7331 29.67H23.7905L23.2745 29.9945C23.3728 29.9006 23.2253 29.9091 23.209 29.9945C23.1926 30.0799 23.209 29.9945 23.209 30.0372H23.3564H23.6185C23.7789 30.0585 23.9413 30.0585 24.1017 30.0372H24.1591C24.4502 30.0015 24.7443 30.0015 25.0354 30.0372H25.0845V30.1225C25.083 30.151 25.083 30.1795 25.0845 30.2079C25.0845 30.2506 25.0845 30.2506 25.0845 30.2079C24.9699 30.0286 25.0845 30.1567 25.0272 30.114L25.1419 30.0542C25.2885 29.9872 25.4508 29.9664 25.6087 29.9945C25.6821 30.0081 25.7536 30.0311 25.8216 30.0628L25.8954 30.1055L26.01 30.1994V30.2506C25.9036 30.4299 25.838 30.5494 25.8134 30.6006C25.7763 30.6626 25.7539 30.7328 25.7479 30.8056V30.7287C25.3139 29.764 25.6251 30.4641 25.5268 30.2421C25.6656 30.1465 25.8273 30.0933 25.9936 30.0884H26.1738C26.1738 29.9689 26.2967 31.1129 26.2393 30.6263L25.7643 30.336L25.8216 30.2591C25.919 30.1329 26.0421 30.0309 26.182 29.9603C26.3524 29.8849 26.5398 29.8613 26.7226 29.892C26.8782 29.892 27.0829 30.0372 27.0174 30.0286C27.0174 30.0286 27.0829 30.0286 27.1648 29.875C27.2467 29.7213 27.2713 29.875 27.3286 29.875H27.476H27.5498H27.5907C27.5907 29.9689 27.5907 29.6444 27.5907 30.0969V29.9006H27.6399C27.8491 29.8701 28.0613 29.8701 28.2705 29.9006C28.4129 29.9406 28.5484 30.004 28.6718 30.0884L28.2705 30.5921L27.6481 30.336V30.2848C27.6693 30.2319 27.6939 30.1805 27.7217 30.1311C27.8212 29.9547 27.9782 29.8213 28.164 29.7554C28.2826 29.7123 28.407 29.6893 28.5326 29.6871C28.6816 29.6418 28.836 29.6188 28.9912 29.6188C29.1304 29.6188 29.327 29.6188 29.4744 29.6188C29.4853 29.6265 29.4981 29.6306 29.5113 29.6306C29.5244 29.6306 29.5373 29.6265 29.5482 29.6188C29.7992 29.4803 30.0863 29.4294 30.3672 29.4737C30.4785 29.4979 30.5859 29.5381 30.6866 29.5932L30.8094 29.67L30.8668 29.7127C30.6538 29.9689 31.35 29.1236 30.3917 30.3018L29.6628 30.0628V29.9945C29.718 29.8361 29.811 29.6951 29.9331 29.5847C30.1103 29.4321 30.3339 29.3504 30.5637 29.3541H30.834C31.0059 29.3538 31.177 29.3797 31.3418 29.431L31.481 29.4737H31.5465L31.35 29.892C31.35 29.892 31.35 29.892 31.35 29.781C31.3593 29.7131 31.3593 29.6441 31.35 29.5761V29.3029C31.4205 29.2915 31.4924 29.2915 31.5629 29.3029C31.7791 29.3166 31.9919 29.3656 32.1936 29.4481C32.341 29.4481 32.3737 29.5078 32.4311 29.4993C32.6686 29.4993 32.857 29.4481 33.1191 29.4481V29.5676C33.1314 29.6882 33.1506 29.8079 33.1764 29.9262C33.1764 29.986 33.1764 30.003 33.1764 29.9262L33.1109 29.8494L32.8324 29.5761L32.9061 29.5078C33.0282 29.4137 33.1676 29.3469 33.3156 29.3115C33.4572 29.2818 33.6031 29.2832 33.7441 29.3155C33.8851 29.3479 34.0181 29.4105 34.1346 29.4993C34.179 29.532 34.2202 29.5691 34.2575 29.6103C34.6424 29.2175 33.7415 30.1482 33.8316 30.0542C33.7821 30.1189 33.7484 30.1951 33.7333 30.2762L33.0044 29.9859V29.9091C33.0803 29.749 33.1963 29.6133 33.3402 29.5164C33.5097 29.4076 33.7064 29.3541 33.9053 29.3627H34.0364V29.6359C34.0364 30.1226 34.0364 29.9176 34.0364 29.8664C34.0364 29.8152 33.9954 29.764 33.9381 29.6444L33.8807 29.542L33.8234 29.431L34.0036 29.3456C34.1279 29.3198 34.256 29.3198 34.3803 29.3456C34.4712 29.3539 34.5615 29.3682 34.6506 29.3883H34.9045H35.0273C35.0601 29.3481 35.0852 29.3018 35.1011 29.2517C35.1011 29.1492 35.2977 29.1749 35.4287 29.0468C35.7072 28.8419 35.9365 28.6711 35.9201 28.6711C35.9449 28.7027 35.9798 28.7238 36.0184 28.7309C36.0686 28.6852 36.1102 28.6302 36.1412 28.5687C36.2512 28.3747 36.3743 28.1893 36.5098 28.0137C36.5801 27.9336 36.6406 27.8447 36.69 27.7491C36.8222 27.5213 36.8742 27.2526 36.8368 26.9892C36.7994 26.7258 36.6751 26.4843 36.4852 26.3062C36.3429 26.1861 36.2282 26.0345 36.1494 25.8622L36.1003 25.7512L36.3132 25.6317L36.5507 25.4866C36.611 25.449 36.6639 25.3997 36.7064 25.3414L36.8865 26.0415C36.6269 26.1069 36.3539 26.083 36.1084 25.9732L35.9447 25.8878H35.8136C35.4863 25.8749 35.163 25.8087 34.8554 25.6915C34.6588 25.6232 33.8651 26.0586 33.9798 25.811C34.0677 25.6137 34.6678 25.3561 34.8554 25.2607C35.1611 25.1131 35.5587 25.0152 35.8955 25.0107H36.1576C36.305 25.0107 36.4934 25.1047 36.5261 25.0876C36.5589 25.0705 36.5261 25.0876 36.5261 25.173C36.5216 25.2012 36.4934 25.5486 36.5261 25.2583C36.5261 25.2583 36.5261 25.2157 36.5261 25.1217V25.0364C36.5722 25.0275 36.6194 25.0275 36.6654 25.0364C36.7742 25.0283 36.8833 25.0458 36.9848 25.0876C37.1169 25.1438 37.378 25.1588 37.4659 25.276C37.5642 25.4212 37.5733 25.3414 37.5815 25.3414L37.6388 25.4012C37.7334 25.4982 37.7641 25.6584 37.8327 25.7769C37.9637 25.9988 38.1969 25.9391 38.0986 26.1867C38.0785 26.2416 38.0785 26.3024 38.0986 26.3574C38.3461 26.804 38.4222 27.3317 38.3116 27.8344C38.2556 28.0968 38.1647 28.3497 38.0414 28.5858C37.9149 28.8158 38.0107 29.0623 37.8327 29.2517C37.7094 29.3733 37.6542 29.5352 37.5827 29.6957C37.4895 29.8801 37.358 30.0405 37.1978 30.1652L36.7064 30.4726H36.5261L36.4033 30.4214C36.4033 30.4214 36.4033 30.4214 36.3542 30.3701L36.4197 30.5153H36.3623C36.2313 30.6005 36.0911 30.6692 35.9447 30.7202C35.8256 30.8439 35.6835 30.9411 35.5272 31.0057C35.3709 31.0703 35.2036 31.1009 35.0355 31.0958C34.9566 31.1042 34.877 31.1042 34.798 31.0958C34.798 31.0958 34.6424 31.0958 34.6752 31.0958L34.5114 31.1641C34.3483 31.2222 34.1743 31.2398 34.0036 31.2154H33.9217C33.953 31.0207 33.9694 30.8237 33.9708 30.6263C33.9708 30.4982 33.9708 30.5067 33.9708 30.5494C34.0543 30.626 34.1518 30.6841 34.2575 30.7202L34.495 30.8226C34.4433 30.9454 34.368 31.0558 34.2739 31.1471C34.1255 31.2793 33.9367 31.352 33.7415 31.352H33.6105H33.5286C33.448 31.3251 33.3709 31.2878 33.2992 31.241L33.201 31.1641L33.4385 30.9166C33.4959 30.8656 33.5361 30.7968 33.5531 30.7202L33.8807 31.0446L33.807 31.1129C33.6271 31.2471 33.4138 31.3242 33.1928 31.3349H32.9225L32.3737 31.3776C32.1726 31.3783 31.9721 31.3554 31.7759 31.3093C31.6776 31.3093 31.8168 31.3093 31.5138 31.3093C31.3074 31.3396 31.097 31.3192 30.8995 31.2495H30.8094C30.8094 31.1641 30.8094 31.2495 30.8094 31.1897V31.2581C30.8094 31.2581 30.8094 31.2581 30.7357 31.2581H30.5883H30.3835C30.3835 31.6679 30.3835 30.686 30.3835 30.7885V30.6348C30.4372 30.6966 30.5047 30.7435 30.5801 30.7714L30.6866 30.8141H30.7439C30.5719 30.7629 30.9732 30.8909 30.9323 30.8824V30.9336V31.0105L30.8504 31.1385C30.7797 31.2385 30.687 31.3194 30.5801 31.3744C30.4733 31.4294 30.3553 31.4568 30.2361 31.4544C30.0969 31.4592 29.9587 31.4269 29.8348 31.3605L29.7201 31.2837L29.8676 31.1044V31.0617L29.9085 30.9934C29.9085 30.9166 29.9085 30.9165 29.9085 31.1129C30.0068 31.5142 29.9904 31.3605 29.9085 31.4288C29.6565 31.5645 29.3703 31.6153 29.0895 31.574C28.8452 31.5677 28.601 31.5877 28.3606 31.6337H28.1804C28.1804 32.1118 28.1804 30.9934 28.1804 31.1044V31.019C28.1812 31.0048 28.1812 30.9905 28.1804 30.9763C28.1804 30.8995 28.1804 31.0361 28.4179 31.1129L28.7292 31.241C28.7161 31.2768 28.6996 31.3111 28.68 31.3434C28.6409 31.404 28.5971 31.4611 28.549 31.5142C28.4593 31.6033 28.3535 31.673 28.2377 31.7191C28.0395 31.7956 27.8216 31.7956 27.6235 31.7191C27.5664 31.6926 27.5116 31.6612 27.4597 31.6252L27.5825 31.4715V31.4203V31.3605C27.5825 31.3605 27.5825 31.3605 27.5825 31.4715V31.7106H27.4105H27.1157C27.1157 31.7106 27.042 31.7106 26.9109 31.7789C26.693 31.828 26.4657 31.801 26.2639 31.702L26.0755 31.5996L26.182 31.3861L26.2311 31.2666C26.2885 31.1214 26.2311 31.0532 26.2311 31.0958C26.2585 31.1377 26.2916 31.1751 26.3294 31.2068L26.4277 31.2837L26.485 31.3264L26.6324 31.4203C26.6127 31.4531 26.5908 31.4845 26.567 31.5142C26.456 31.6571 26.3038 31.759 26.1329 31.8045C26.0678 31.8158 26.0014 31.8158 25.9363 31.8045H25.8872C25.7801 31.8524 25.6671 31.8841 25.5514 31.8984C25.4207 31.9027 25.2903 31.8825 25.1664 31.8386C25.0829 31.8018 25.0034 31.756 24.9289 31.702L25.0354 31.5227L25.1582 31.2922V31.2325L25.2484 31.0446L25.6579 31.6679C25.5954 31.7035 25.5295 31.7322 25.4613 31.7532C25.1541 31.8494 24.8266 31.8494 24.5194 31.7532C24.418 31.72 24.3138 31.6971 24.2082 31.685C23.8355 31.7576 23.4571 31.7948 23.0779 31.7959C22.7997 31.8268 22.5184 31.7858 22.2589 31.6764C22.0084 31.5436 21.8048 31.3314 21.6774 31.0702C21.5627 30.878 21.502 30.6562 21.502 30.4299C21.502 30.2036 21.5627 29.9818 21.6774 29.7896C21.8818 29.6143 22.0981 29.4545 22.3245 29.3115C22.5974 29.1462 22.8929 29.0253 23.2008 28.9529C23.3204 28.9357 23.4416 28.9357 23.5611 28.9529C23.6705 28.9174 23.7876 28.9174 23.897 28.9529C23.9952 28.9529 24.1099 29.081 24.1509 29.098C24.2355 29.1401 24.3025 29.213 24.3392 29.3029L23.7987 29.5676C24.159 29.9945 23.2991 28.9956 23.3892 29.098L23.5284 28.9785C23.6285 28.9022 23.7389 28.8417 23.856 28.7992C24.0513 28.7316 24.2564 28.6998 24.4621 28.7053H24.7651C24.8143 28.7053 24.7651 28.7053 24.8798 28.637C24.9967 28.5731 25.1171 28.516 25.2402 28.4662C25.4734 28.3777 25.7254 28.3571 25.969 28.4065L25.15 28.748C25.273 28.5379 25.4564 28.3735 25.6742 28.2784C25.8961 28.1901 26.1376 28.1694 26.3704 28.2186L26.5424 28.2699H26.6079H26.7308C26.8361 28.2799 26.9346 28.3283 27.0092 28.4065C27.0747 28.4748 27.2713 28.2869 27.4433 28.2613C27.6818 28.2199 27.9225 28.1942 28.164 28.1845H28.8028L29.8348 28.1247C29.9888 28.0639 30.1554 28.0462 30.318 28.0735C30.4063 28.0837 30.4922 28.1096 30.5719 28.1503L30.662 28.2016H30.703L30.3917 28.6882C30.4035 28.5976 30.4035 28.5057 30.3917 28.415L30.3508 28.1333H30.4491H30.531H30.6129V28.4492V28.3894V28.1333H30.662H30.8012C30.9892 28.0823 31.1866 28.0823 31.3746 28.1333C31.4508 28.1412 31.5276 28.1412 31.6039 28.1333L32.0871 28.0649H32.4475H33.0044C33.4311 28.1253 33.8636 28.1253 34.2903 28.0649L34.5851 27.9881L34.7243 28.6626V28.748L34.6015 28.6028L34.2247 28.1589H34.2739C34.3355 28.11 34.4048 28.0724 34.4786 28.0479H34.5769H34.7816H34.8799C34.8799 27.8942 34.8799 29.3798 34.8799 28.748C34.872 28.709 34.8582 28.6715 34.839 28.637C34.8881 28.7138 34.4868 27.9113 34.5933 28.1162C34.6794 28.063 34.7736 28.0255 34.8718 28.0052C35.0582 27.9642 35.2521 27.982 35.4287 28.0564C35.5267 28.1022 35.6177 28.1626 35.6989 28.2357L35.1666 28.7907L34.5933 28.3553V28.2955C34.6186 28.2569 34.6459 28.2199 34.6752 28.1845C34.7375 28.1178 34.8061 28.0577 34.8799 28.0052L35.1093 27.8857L35.2403 27.843C35.3058 27.843 35.2894 27.843 35.355 27.843L35.4614 27.7918C35.4953 27.7833 35.5264 27.7656 35.5515 27.7405C35.5515 27.7405 35.5515 27.7405 35.6007 27.6125V27.5527L35.7153 27.2197C35.7153 27.1685 35.7644 27.0575 35.8463 27.0746C35.9623 27.1557 36.0858 27.2243 36.2149 27.2795H36.2723H36.3296C36.3296 27.2795 36.3296 27.2283 36.2313 27.4161C36.1449 27.5302 36.0656 27.65 35.9938 27.7747L35.9201 27.7234C35.8339 27.656 35.7613 27.5716 35.7065 27.4749C35.6517 27.3782 35.6157 27.2712 35.6007 27.16H35.961C35.8627 27.16 35.7727 27.2283 35.6744 27.2624H35.6252L35.7972 27.399C35.8063 27.403 35.8161 27.4051 35.8259 27.4051C35.8358 27.4051 35.8455 27.403 35.8545 27.399H35.8955L35.9447 27.0233V26.7416C35.9447 26.7928 35.9447 26.8441 36.0348 27.0831H35.9365L36.0184 26.9807C36.0038 26.942 35.9814 26.9071 35.9528 26.8782L35.8955 26.827L35.8136 26.7672H35.7153C35.6662 26.7672 35.5597 26.7672 35.5597 26.7672L35.6089 27.1856L35.7481 27.4588H35.6908C35.5539 27.5149 35.4017 27.5149 35.2649 27.4588C35.1547 27.4247 35.0551 27.361 34.976 27.274C34.897 27.1871 34.8413 27.0801 34.8144 26.9636C34.7828 26.8493 34.7828 26.7279 34.8144 26.6136C34.8395 26.5485 34.8696 26.4857 34.9045 26.4257C34.9307 26.3881 34.9609 26.3537 34.9946 26.3233L34.8554 26.5196C34.8554 26.5196 34.8554 26.5196 34.9209 26.4001C34.9871 26.3136 35.0711 26.2436 35.1666 26.1952C35.2388 26.1606 35.3166 26.1403 35.3959 26.1354C35.499 26.1308 35.6017 26.1515 35.6956 26.196C35.7896 26.2405 35.8721 26.3075 35.9365 26.3916L36.002 26.4855V26.5538C36.0184 26.607 36.0321 26.6612 36.043 26.716V26.9721V27.2283C36.0546 27.3532 36.0546 27.479 36.043 27.6039V27.6893C35.9843 27.8759 35.8657 28.0357 35.7071 28.1418L35.5761 28.2101L35.314 28.3125C35.1048 28.3804 34.8836 28.3979 34.667 28.3638C34.4386 28.3218 34.2235 28.222 34.0407 28.0731C33.8579 27.9243 33.713 27.7309 33.6187 27.51C33.5333 27.1764 33.526 26.8263 33.5973 26.4891C33.6685 26.1519 33.6934 26.1533 33.9053 25.8878C34.0773 25.6146 34.8472 25.4439 34.8472 25.6488C34.8553 25.6911 34.8553 25.7346 34.8472 25.7769C34.7643 25.9755 34.7332 26.1934 34.7571 26.4086C34.7571 26.5965 34.8144 26.7331 34.8226 26.9038C34.8286 26.9938 34.8451 27.0827 34.8718 27.1685V27.1173C34.8718 27.1173 34.8718 27.1173 34.8718 27.2112C34.8718 27.3051 34.8718 27.2539 34.8718 27.2795C34.8718 27.1941 34.8718 27.4588 34.8718 27.1002H34.9373H35.0192C35.5434 28.2528 35.1666 27.4246 35.2813 27.6808C35.2813 27.6039 35.1502 27.5783 35.2157 27.6039H35.4614C35.3745 27.5914 35.2863 27.5914 35.1993 27.6039H35.0355V27.4673L34.9782 27.1514Z" fill="#1F2227"/>
<path fill-rule="evenodd" clip-rule="evenodd" d="M34.128 26.4341C34.4723 26.5834 34.6304 26.9835 34.4811 27.3278L34.2896 27.7694L34.6675 27.9601C35.0025 28.1292 35.1371 28.5379 34.968 28.8729C34.7989 29.2079 34.3902 29.3425 34.0552 29.1734L33.1049 28.6938C32.7836 28.5317 32.9112 28.2903 33.0544 27.9601L33.1722 27.2147C33.3215 26.8704 33.7837 26.2847 34.128 26.4341Z" fill="#1F2227"/>
<path d="M34.6304 26.4182C34.8225 26.2633 35.0516 26.1528 35.2988 26.0958C35.5459 26.0389 35.8042 26.0371 36.0523 26.0906C36.2479 26.1254 36.3532 26.2579 36.5864 26.2021C36.8196 26.1464 36.7369 26.4252 36.8497 26.5088C37.022 26.6437 37.1629 26.8097 37.2638 26.9966C37.3646 27.1835 37.4234 27.3875 37.4365 27.5962C37.4746 27.9771 37.3991 28.3605 37.2184 28.7044C37.0378 29.0181 36.7218 29.2063 36.5337 29.4782C36.3456 29.75 36.0447 29.7291 35.8265 29.8755C35.5901 30.0425 35.3037 30.1375 35.0065 30.1473H34.6906C34.588 30.1375 34.4847 30.1375 34.3821 30.1473C34.2768 30.1473 34.1865 30.2728 34.0737 30.2728C33.9608 30.2728 33.8404 30.2031 33.7652 30.3913C33.7652 30.3913 33.705 30.3913 33.6825 30.3564C33.6613 30.3317 33.6345 30.3118 33.6038 30.2981C33.5732 30.2844 33.5397 30.2773 33.5057 30.2773C33.4717 30.2773 33.4381 30.2844 33.4075 30.2981C33.3769 30.3118 33.35 30.3317 33.3289 30.3564C33.2589 30.4153 33.1676 30.4477 33.0731 30.447C32.8323 30.447 32.5991 30.4888 32.3208 30.4888C32.0424 30.4888 31.9596 30.4261 31.7866 30.4191C31.6136 30.4122 31.4029 30.5097 31.2299 30.4191C31.0673 30.3604 30.8912 30.3412 30.7183 30.3634C30.6205 30.3634 30.5077 30.2937 30.44 30.4888C30.44 30.4888 30.3948 30.4888 30.3798 30.4888C30.0864 30.2588 29.8457 30.6004 29.5673 30.5585C29.2757 30.5341 28.9819 30.5482 28.6946 30.6004C28.6194 30.6004 28.5366 30.5586 28.4764 30.698C28.4673 30.707 28.4562 30.7143 28.4439 30.7192C28.4316 30.7242 28.4183 30.7267 28.4049 30.7267C28.3915 30.7267 28.3783 30.7242 28.366 30.7192C28.3537 30.7143 28.3426 30.707 28.3335 30.698C28.1003 30.5237 27.8896 30.6492 27.6639 30.6352C27.4382 30.6213 27.1674 30.7119 26.9116 30.5864C26.881 30.5673 26.8461 30.5548 26.8096 30.5498C26.773 30.5448 26.7357 30.5474 26.7004 30.5574C26.6651 30.5674 26.6326 30.5846 26.6054 30.6077C26.5781 30.6308 26.5568 30.6593 26.543 30.691C26.4903 30.7746 26.3624 30.691 26.2722 30.7258C26.1819 30.7607 26.1292 30.8304 26.054 30.8374C25.9787 30.8443 25.9261 30.7746 25.8583 30.7467C25.8492 30.7418 25.8388 30.7393 25.8283 30.7393C25.8177 30.7393 25.8073 30.7418 25.7982 30.7467C25.4446 30.9628 25.0459 30.7467 24.6998 30.7955C24.3329 30.8592 23.9594 30.8849 23.5864 30.8722C23.458 30.8757 23.3318 30.841 23.2262 30.7733C23.1207 30.7056 23.0412 30.6084 22.9996 30.4958C22.962 30.4316 22.9424 30.3597 22.9424 30.2867C22.9424 30.2137 22.962 30.1418 22.9996 30.0776C23.0426 30.0031 23.1115 29.9441 23.1952 29.9103L23.5337 29.7918C23.7669 29.7151 23.9926 29.5409 24.2409 29.6106C24.3161 29.6106 24.3989 29.5409 24.4741 29.6873C24.4824 29.6941 24.4931 29.6979 24.5042 29.6979C24.5153 29.6979 24.526 29.6941 24.5343 29.6873C24.8428 29.4363 25.1888 29.5688 25.5198 29.5339C25.8509 29.4991 26.0615 29.2969 26.3549 29.3597C26.4036 29.2848 26.4809 29.2296 26.5715 29.2051C26.6621 29.1805 26.7593 29.1884 26.8439 29.2272C27.4017 29.3144 27.9713 29.3144 28.5291 29.2272C29.1009 29.2272 29.6651 29.1575 30.2368 29.1296C30.3346 29.1296 30.4099 29.0181 30.5227 29.0878C30.6356 29.1575 30.771 29.0878 30.8913 29.0878C31.0056 29.0671 31.1232 29.0671 31.2374 29.0878C31.6784 29.1784 32.1356 29.1784 32.5766 29.0878C33.0224 29.0928 33.4679 29.0625 33.9081 28.9972C34.043 28.9721 34.1762 28.9395 34.3069 28.8996H34.4122C34.4622 28.8952 34.5126 28.8952 34.5627 28.8996C34.6605 28.8996 34.7056 28.7672 34.8561 28.8996C35.0065 29.0321 34.9313 28.7881 34.9839 28.7532C35.0366 28.7184 35.2397 28.6347 35.3601 28.565C35.5224 28.4709 35.6651 28.3505 35.7814 28.2096C35.826 28.1196 35.8515 28.0226 35.8567 27.9238C35.8758 27.8546 35.901 27.787 35.9319 27.7216C35.9319 27.6519 36.0297 27.6031 36.0222 27.5404C36.0146 27.4777 35.8868 27.4777 35.8642 27.3522C35.8461 27.2983 35.8122 27.2501 35.7664 27.2128C35.7293 27.1908 35.6886 27.1744 35.646 27.164C35.5816 27.1503 35.5147 27.1503 35.4504 27.164C35.3768 27.1965 35.3144 27.2472 35.2698 27.3104C35.2247 27.3801 35.2247 27.4637 35.2698 27.4637C35.315 27.4637 35.1194 27.5195 35.1495 27.4637C35.1796 27.408 35.1495 27.4637 35.1946 27.4637C35.2553 27.6586 35.2857 27.8604 35.2849 28.0632C35.2818 28.0767 35.2755 28.0893 35.2664 28.1002C35.2573 28.1111 35.2456 28.1199 35.2322 28.1259C35.0813 28.2124 34.9053 28.2537 34.7282 28.2444C34.6054 28.2342 34.4879 28.1931 34.3885 28.1255C34.2891 28.0579 34.2114 27.9665 34.1639 27.8611C34.0844 27.6044 34.086 27.332 34.1687 27.0762C34.2514 26.8205 34.4117 26.5921 34.6304 26.4182Z" fill="#DD4863"/>
<mask id="mask0_4308_31014" style="mask-type:alpha" maskUnits="userSpaceOnUse" x="22" y="26" width="16" height="5">
<path d="M34.6304 26.4192C34.8225 26.2643 35.0516 26.1538 35.2988 26.0968C35.5459 26.0399 35.8042 26.0381 36.0523 26.0916C36.2479 26.1264 36.3532 26.2589 36.5864 26.2031C36.8196 26.1473 36.7369 26.4262 36.8497 26.5098C37.022 26.6447 37.1629 26.8106 37.2638 26.9976C37.3646 27.1845 37.4234 27.3885 37.4365 27.5972C37.4746 27.9781 37.3991 28.3615 37.2184 28.7055C37.0378 29.0191 36.7218 29.2073 36.5337 29.4792C36.3456 29.751 36.0447 29.7301 35.8265 29.8765C35.5901 30.0435 35.3037 30.1385 35.0065 30.1483H34.6906C34.588 30.1385 34.4847 30.1385 34.3821 30.1483C34.2768 30.1483 34.1865 30.2738 34.0737 30.2738C33.9608 30.2738 33.8404 30.2041 33.7652 30.3923C33.7652 30.3923 33.705 30.3923 33.6825 30.3574C33.6613 30.3328 33.6345 30.3128 33.6038 30.2991C33.5732 30.2854 33.5397 30.2783 33.5057 30.2783C33.4717 30.2783 33.4381 30.2854 33.4075 30.2991C33.3769 30.3128 33.35 30.3328 33.3289 30.3574C33.2589 30.4163 33.1676 30.4487 33.0731 30.4481C32.8323 30.4481 32.5991 30.4899 32.3208 30.4899C32.0424 30.4899 31.9596 30.4271 31.7866 30.4202C31.6136 30.4132 31.4029 30.5108 31.2299 30.4202C31.0673 30.3615 30.8912 30.3423 30.7183 30.3644C30.6205 30.3644 30.5077 30.2947 30.44 30.4899C30.44 30.4899 30.3948 30.4899 30.3798 30.4899C30.0864 30.2599 29.8457 30.6014 29.5673 30.5596C29.2757 30.5352 28.9819 30.5493 28.6946 30.6014C28.6194 30.6014 28.5366 30.5596 28.4764 30.699C28.4673 30.7081 28.4562 30.7153 28.4439 30.7203C28.4316 30.7252 28.4183 30.7277 28.4049 30.7277C28.3915 30.7277 28.3783 30.7252 28.366 30.7203C28.3537 30.7153 28.3426 30.7081 28.3335 30.699C28.1003 30.5247 27.8896 30.6502 27.6639 30.6362C27.4382 30.6223 27.1674 30.7129 26.9116 30.5875C26.881 30.5684 26.8461 30.5558 26.8096 30.5508C26.773 30.5458 26.7357 30.5484 26.7004 30.5584C26.6651 30.5684 26.6326 30.5856 26.6054 30.6087C26.5781 30.6318 26.5568 30.6603 26.543 30.692C26.4903 30.7757 26.3624 30.692 26.2722 30.7269C26.1819 30.7617 26.1292 30.8314 26.054 30.8384C25.9787 30.8454 25.9261 30.7757 25.8583 30.7478C25.8492 30.7429 25.8388 30.7403 25.8283 30.7403C25.8177 30.7403 25.8073 30.7429 25.7982 30.7478C25.4446 30.9639 25.0459 30.7478 24.6998 30.7966C24.3329 30.8602 23.9594 30.8859 23.5864 30.8733C23.458 30.8767 23.3318 30.8421 23.2262 30.7743C23.1207 30.7066 23.0412 30.6094 22.9996 30.4969C22.962 30.4326 22.9424 30.3608 22.9424 30.2877C22.9424 30.2147 22.962 30.1428 22.9996 30.0786C23.0426 30.0041 23.1115 29.9452 23.1952 29.9113L23.5337 29.7928C23.7669 29.7162 23.9926 29.5419 24.2409 29.6116C24.3161 29.6116 24.3989 29.5419 24.4741 29.6883C24.4824 29.6951 24.4931 29.6989 24.5042 29.6989C24.5153 29.6989 24.526 29.6951 24.5343 29.6883C24.8428 29.4374 25.1888 29.5698 25.5198 29.5349C25.8509 29.5001 26.0615 29.2979 26.3549 29.3607C26.4036 29.2858 26.4809 29.2306 26.5715 29.2061C26.6621 29.1815 26.7593 29.1895 26.8439 29.2282C27.4017 29.3155 27.9713 29.3155 28.5291 29.2282C29.1009 29.2282 29.6651 29.1585 30.2368 29.1307C30.3346 29.1307 30.4099 29.0191 30.5227 29.0888C30.6356 29.1585 30.771 29.0888 30.8913 29.0888C31.0056 29.0681 31.1232 29.0681 31.2374 29.0888C31.6784 29.1795 32.1356 29.1795 32.5766 29.0888C33.0224 29.0939 33.4679 29.0636 33.9081 28.9982C34.043 28.9731 34.1762 28.9405 34.3069 28.9006H34.4122C34.4622 28.8962 34.5126 28.8962 34.5627 28.9006C34.6605 28.9006 34.7056 28.7682 34.8561 28.9006C35.0065 29.0331 34.9313 28.7891 34.9839 28.7543C35.0366 28.7194 35.2397 28.6357 35.3601 28.566C35.5224 28.4719 35.6651 28.3515 35.7814 28.2106C35.826 28.1206 35.8515 28.0236 35.8567 27.9248C35.8758 27.8556 35.901 27.788 35.9319 27.7226C35.9319 27.6529 36.0297 27.6041 36.0222 27.5414C36.0146 27.4787 35.8868 27.4787 35.8642 27.3532C35.8461 27.2993 35.8122 27.251 35.7664 27.2138C35.7293 27.1918 35.6886 27.1753 35.646 27.165C35.5816 27.1513 35.5147 27.1513 35.4504 27.165C35.3768 27.1975 35.3144 27.2482 35.2698 27.3114C35.2247 27.3811 35.2247 27.4647 35.2698 27.4647C35.315 27.4647 35.1194 27.5205 35.1495 27.4647C35.1796 27.409 35.1495 27.4647 35.1946 27.4647C35.2553 27.6596 35.2857 27.8614 35.2849 28.0642C35.2818 28.0777 35.2755 28.0903 35.2664 28.1012C35.2573 28.1121 35.2456 28.1209 35.2322 28.1269C35.0813 28.2134 34.9053 28.2547 34.7282 28.2454C34.6054 28.2352 34.4879 28.1941 34.3885 28.1265C34.2891 28.0589 34.2114 27.9675 34.1639 27.8621C34.0844 27.6054 34.086 27.333 34.1687 27.0772C34.2514 26.8214 34.4117 26.593 34.6304 26.4192Z" fill="#DD4863"/>
</mask>
<g mask="url(#mask0_4308_31014)">
<rect x="27.5625" y="25.3613" width="4.62157" height="7.35092" fill="#04C088"/>
<rect x="22.9424" y="25.3613" width="4.62157" height="7.35092" fill="#FFB800"/>
</g>
</svg>
