<svg width="41" height="40" viewBox="0 0 41 40" fill="none" xmlns="http://www.w3.org/2000/svg">
<circle cx="20.9688" cy="20" r="20" fill="#EDE6FF"/>
<path fill-rule="evenodd" clip-rule="evenodd" d="M17.6091 13.5086C17.6083 13.5019 17.6079 13.4953 17.6079 13.4886C17.6079 13.4655 17.6125 13.4428 17.6214 13.4215C17.6303 13.4003 17.6434 13.3811 17.6598 13.365C17.7235 13.3246 17.7929 13.2941 17.8657 13.2744L18.2117 13.2167C18.4416 13.1506 18.6814 13.1255 18.92 13.1426C18.9375 13.1426 18.9555 13.1403 18.9736 13.138C19.0322 13.1305 19.0921 13.1228 19.1424 13.192C19.1754 13.2373 19.1754 13.2373 19.1743 13.226C19.1733 13.2147 19.1713 13.192 19.2001 13.192C19.5197 13.1074 19.853 13.0878 20.1802 13.1344C20.4516 13.0817 20.7276 13.0568 21.0039 13.0602C21.077 13.0149 21.1591 12.9862 21.2446 12.9762C21.33 12.9663 21.4165 12.9753 21.4981 13.0026C21.7694 13.0547 22.0456 13.0767 22.3218 13.0685H23.4419V13.1426L23.8703 15.0535C23.8703 15.0967 23.8892 15.1337 23.9084 15.1712C23.9331 15.2194 23.9583 15.2687 23.9444 15.3336C23.9492 15.4549 23.9742 15.5746 24.0185 15.6877C24.0568 15.8082 24.0816 15.9325 24.0927 16.0584C24.1166 16.358 24.1634 16.6554 24.2327 16.9479H23.0548H21.737C21.464 16.9849 21.1888 17.0041 20.9133 17.0056C20.8857 17.0056 20.858 17.0085 20.8303 17.0113C20.7427 17.0203 20.655 17.0293 20.5673 16.9479C20.4933 16.8792 20.4566 16.9191 20.4202 16.9586C20.3999 16.9807 20.3797 17.0027 20.3532 17.0056H19.0436C18.9497 17.0056 18.8558 17.0234 18.7619 17.0412C18.6993 17.0531 18.6367 17.0649 18.5741 17.0715C18.4122 17.0798 18.25 17.0798 18.0881 17.0715H17.7752H17.6268H17.4127H16.4902C16.5062 16.9814 16.531 16.8931 16.5643 16.8079C16.591 16.7058 16.6176 16.6108 16.643 16.5204C16.6646 16.4432 16.6854 16.3694 16.7043 16.2973L16.7867 15.9184L16.8856 15.3583C16.9679 14.9876 17.0421 14.617 17.0915 14.2463C17.0915 14.126 17.1383 14.0187 17.1851 13.9113C17.2217 13.8274 17.2582 13.7435 17.2727 13.6533C17.3012 13.4753 17.5019 13.4696 17.6091 13.5086Z" fill="#6A36FF"/>
<path fill-rule="evenodd" clip-rule="evenodd" d="M18.2885 10.9784C18.2958 10.9599 18.3058 10.9424 18.3184 10.9267C18.3644 10.8825 18.4212 10.8513 18.4831 10.8361L18.7631 10.7784C18.9443 10.7098 19.1383 10.6817 19.3315 10.6961C19.3891 10.6961 19.455 10.6961 19.5127 10.7537C19.7779 10.6649 20.0614 10.6451 20.3364 10.6961C20.5553 10.6466 20.7791 10.6217 21.0035 10.6219C21.0588 10.5789 21.1242 10.5509 21.1936 10.5408C21.2629 10.5306 21.3336 10.5388 21.3989 10.5643C21.6112 10.6192 21.8306 10.6414 22.0496 10.6302L22.6838 10.6384V10.6961L23.3675 12.2858C23.3675 12.317 23.3835 12.3438 23.4003 12.3718C23.4233 12.4103 23.4477 12.4509 23.4334 12.5082C23.4087 12.607 23.4334 12.6976 23.491 12.7964V12.9447C23.5121 13.0229 23.5258 13.1028 23.5322 13.1836C23.541 13.4192 23.5713 13.6535 23.6228 13.8837H22.5932C22.2421 13.8632 21.89 13.8632 21.5389 13.8837C21.3269 13.9211 21.1117 13.9377 20.8965 13.9331C20.873 13.9331 20.8495 13.937 20.826 13.9409C20.7589 13.9519 20.6917 13.963 20.6246 13.8837C20.567 13.8155 20.536 13.8541 20.5063 13.8912C20.4893 13.9124 20.4727 13.9331 20.4517 13.9331H19.3974C19.3313 13.9331 19.2652 13.9472 19.1978 13.9617C19.1392 13.9742 19.0797 13.9869 19.0185 13.9907C18.89 14.0072 18.7599 14.0072 18.6314 13.9907C18.552 13.9907 18.4885 13.9813 18.4124 13.9699C18.3147 13.9554 18.1963 13.9377 17.9971 13.9331C17.7583 13.9276 17.6094 13.9295 17.467 13.9313C17.3982 13.9322 17.331 13.9331 17.2559 13.9331C17.2712 13.858 17.2905 13.7838 17.3135 13.7107C17.4004 13.441 17.4692 13.1659 17.5194 12.887L17.6018 12.4422C17.6732 12.1463 17.7283 11.8465 17.7665 11.5445C17.7665 11.4514 17.8085 11.3663 17.8511 11.2802C17.8838 11.2137 17.9169 11.1467 17.9313 11.075C17.9626 10.9183 18.195 10.9404 18.2885 10.9784Z" fill="#FFB800"/>
<path fill-rule="evenodd" clip-rule="evenodd" d="M20.3749 7.23768C20.4252 7.25022 20.4701 7.27878 20.5027 7.31909L20.651 7.49206C20.6752 7.52291 20.703 7.55258 20.731 7.58249C20.8077 7.66438 20.886 7.74806 20.8981 7.86269C20.9083 7.96028 20.9378 7.96819 20.9386 7.97829C20.9391 7.98439 20.9291 7.99129 20.8981 8.01919C21.0475 8.11115 21.0927 8.25125 21.1371 8.38909C21.1563 8.44878 21.1754 8.50805 21.2028 8.56281C21.2404 8.63792 21.2907 8.69605 21.3384 8.75127C21.4059 8.82928 21.4684 8.9015 21.4829 9.0076C21.5386 9.02433 21.5869 9.05956 21.6198 9.10749C21.6528 9.15542 21.6684 9.21318 21.6641 9.27118C21.7468 9.61957 21.8771 9.95492 22.0512 10.2678L22.5701 11.4374H21.9194C21.8837 11.4374 21.8526 11.4448 21.8215 11.4521C21.7592 11.4667 21.697 11.4814 21.5982 11.4374C21.4675 11.4135 21.3335 11.4135 21.2028 11.4374C21.1347 11.4498 21.065 11.4498 20.9969 11.4374C20.7283 11.3672 20.449 11.3476 20.1732 11.3798C19.8991 11.3596 19.6238 11.3596 19.3496 11.3798C19.0776 11.426 18.8017 11.4454 18.5259 11.4374C18.4984 11.4374 18.4647 11.4402 18.4296 11.4432C18.3175 11.4526 18.1901 11.4632 18.1964 11.388C18.2014 11.328 18.1669 11.3408 18.1151 11.3602C18.0816 11.3727 18.0408 11.388 17.9987 11.388C17.9952 11.3662 17.9952 11.3439 17.9987 11.3221C18.0729 11.1409 18.1635 10.9432 18.2541 10.7455C18.3447 10.5478 18.5259 10.1525 18.5588 10.0536C18.572 10.0142 18.5746 9.97485 18.5773 9.93597C18.5812 9.87731 18.5851 9.81985 18.6247 9.76536C18.6559 9.66789 18.6973 9.57402 18.7483 9.48532C18.7848 9.42149 18.8288 9.36019 18.872 9.30001C18.9069 9.25147 18.9412 9.20366 18.9707 9.15585C18.9974 9.11244 19.0146 9.05954 19.0323 9.00541C19.0581 8.92603 19.0849 8.84398 19.1437 8.78522C19.2937 8.59467 19.4106 8.38026 19.4896 8.15098C19.6005 7.94094 19.6968 7.72353 19.7779 7.50028C19.8006 7.43212 19.8509 7.37651 19.9011 7.32098C19.9419 7.27584 19.9826 7.23076 20.0085 7.17906C20.0498 7.09637 20.1801 7.13227 20.2779 7.1592C20.3164 7.16983 20.3499 7.17906 20.3709 7.17906C20.3709 7.19836 20.3724 7.21795 20.3749 7.23768Z" fill="#6A36FF"/>
<path fill-rule="evenodd" clip-rule="evenodd" d="M13.1763 20.2939C11.6023 19.3258 10.2518 18.0343 9.21445 16.5051C7.71537 14.24 7.56711 11.7031 8.85203 10.8547C10.137 10.0063 12.4103 11.143 13.9011 13.4081C14 13.5563 14.0905 13.7128 14.1894 13.8693C14.3985 13.5576 14.7203 13.3391 15.0872 13.2598C15.5979 13.2181 16.1047 13.3772 16.5 13.7033C16.8953 14.0293 17.1478 14.4967 17.204 15.006C17.3029 15.4837 17.4594 16.4639 17.55 17.477C19.5599 17.1134 21.6187 17.1134 23.6286 17.477C23.7192 16.4721 23.884 15.4837 23.9828 15.006C24.037 14.4974 24.2878 14.0301 24.6818 13.7038C25.0757 13.3776 25.5816 13.2182 26.0914 13.2598C26.4606 13.3387 26.7852 13.5571 26.9974 13.8693L27.2775 13.4081C28.7765 11.143 31.0416 9.99809 32.3348 10.8547C33.628 11.7113 33.4715 14.24 31.9724 16.5051C30.9645 17.9803 29.6704 19.238 28.167 20.2033C28.3235 20.3928 28.4718 20.5905 28.62 20.7881C31.7665 25.17 34.3857 30.9851 28.0105 30.9851H13.1845C7.74009 30.4909 10.0958 24.7253 13.0692 20.4257L13.1763 20.2939Z" fill="white"/>
<path d="M10.6567 28.3982C10.6913 28.6999 10.7975 28.9889 10.9666 29.2411C11.1357 29.4933 11.3627 29.7013 11.6286 29.8479C11.6914 29.8938 11.7575 29.9351 11.8263 29.9714L12.0652 30.0538C12.2225 30.1195 12.385 30.1718 12.5511 30.2103L13.0783 30.2927C13.1496 30.2973 13.2211 30.2973 13.2924 30.2927H13.5889C14.2004 30.347 14.8165 30.3109 15.4175 30.1856C15.7223 30.0868 16.2988 30.3174 16.8507 30.3009H21.3314L25.6886 30.1774C26.4052 30.1774 27.1383 30.1774 27.8631 30.1774C28.4978 30.2194 29.1344 30.1296 29.7328 29.9138C30.1204 29.7807 30.4725 29.561 30.7624 29.2713C31.0257 28.9685 31.1642 28.5769 31.1495 28.1759C31.0447 27.0845 30.7667 26.0168 30.3259 25.013C30.0428 24.2217 29.6668 23.4669 29.2057 22.7644C28.9092 22.336 28.5385 21.9901 28.2173 21.5124L27.9537 21.1994L27.6489 20.7793C27.443 20.5075 27.2371 20.2357 27.0147 19.9556C27.273 19.7796 27.513 19.5782 27.7313 19.3544C27.9575 19.2027 28.1912 19.0625 28.4314 18.9343C28.96 18.7073 29.4118 18.3327 29.7328 17.8553C29.9881 17.4682 30.2682 17.1881 30.5565 16.8587C31.2704 16.0251 31.8084 15.0556 32.1379 14.0088C32.4035 13.3372 32.4468 12.5982 32.2615 11.9002C32.0226 11.3318 31.4872 11.2907 30.7789 11.3978C30.0388 11.5736 29.3696 11.9699 28.8597 12.5344C28.6848 12.6915 28.5197 12.8593 28.3655 13.0368C28.2957 13.1284 28.2324 13.2247 28.1761 13.3251C28.093 13.493 28.0214 13.6664 27.9619 13.844C27.8805 14.0083 27.7811 14.163 27.6654 14.3053L27.3442 14.7254L27.1959 14.923L27.0559 15.0548C26.8417 14.7501 26.6111 14.4453 26.4052 14.2312C26.3344 14.1191 26.2349 14.0281 26.1169 13.9676H26.0098C25.8583 13.9488 25.7048 13.9806 25.5733 14.0582C25.2595 14.2811 25.0211 14.5942 24.8897 14.956C24.851 15.0322 24.8206 15.1122 24.799 15.1948L24.7414 15.5243L24.6343 16.208C24.5272 16.9493 24.4284 17.6906 24.3213 18.4236L22.8799 18.193L22.3857 18.1353H22.0068C21.6367 18.0405 21.2485 18.0405 20.8784 18.1353C20.6414 18.1779 20.3987 18.1779 20.1618 18.1353C19.7621 18.0665 19.3554 18.0471 18.951 18.0777H18.6463L18.1026 18.1518L16.9083 18.366C16.8342 17.8553 16.7683 17.3446 16.6942 16.834L16.5541 15.7961C16.5286 15.5178 16.479 15.2422 16.4059 14.9725C16.2858 14.5624 16.0266 14.2071 15.6728 13.9676C15.6111 13.9215 15.54 13.8895 15.4646 13.8739C15.3892 13.8582 15.3112 13.8593 15.2363 13.877C15.1953 13.882 15.1559 13.8961 15.1209 13.9182C15.0096 13.9781 14.9159 14.0661 14.8492 14.1735C14.6432 14.4371 14.4126 14.7748 14.1902 15.129C14.1078 15.0466 14.0666 15.0631 13.9925 14.9725C13.7499 14.6723 13.5322 14.3527 13.3418 14.017L12.9877 13.4569C12.9135 13.3581 12.8476 13.2675 12.7735 13.1851C12.5109 12.9509 12.2359 12.731 11.9498 12.5262C11.7439 12.345 11.571 12.0979 11.3486 11.9167C11.2824 11.8524 11.2039 11.8019 11.1179 11.7684C10.8457 11.6165 10.5459 11.5208 10.236 11.4868C9.92621 11.4529 9.6127 11.4814 9.31409 11.5707C9.0623 11.7797 8.8785 12.059 8.78608 12.373C8.69366 12.6869 8.69681 13.0213 8.79518 13.3334C9.16696 15.0483 10.045 16.6121 11.3156 17.8223C12.0021 18.4491 12.6131 19.154 13.1359 19.9227C13.3089 20.2357 13.2265 20.4169 12.7735 20.2769C12.4107 20.163 12.0666 19.9965 11.7522 19.7827C11.2487 19.425 10.7674 19.0371 10.3107 18.6213C9.28109 17.8015 8.46921 16.7406 7.94682 15.5326C7.8068 15.129 7.52674 14.7089 7.62558 14.2888C7.62847 14.185 7.6117 14.0816 7.57616 13.9841C7.38628 13.5077 7.30547 12.9948 7.33968 12.4832C7.37389 11.9715 7.52223 11.4739 7.77384 11.0271C8.09909 10.5154 8.60971 10.1494 9.19876 10.0058C9.74494 9.88631 10.3129 9.91187 10.8461 10.0799C11.635 10.3211 12.3723 10.7065 13.0206 11.2165C13.3353 11.4649 13.6274 11.7405 13.8937 12.0402C14.0255 12.1885 14.149 12.345 14.2726 12.5015C14.3066 12.5528 14.3343 12.6081 14.3549 12.6662C14.3782 12.6568 14.3984 12.641 14.4129 12.6206C14.4275 12.6001 14.436 12.5759 14.4373 12.5509C14.4397 12.5345 14.4397 12.5179 14.4373 12.5015C14.5948 12.4199 14.7645 12.3642 14.9398 12.3367C15.4441 12.246 15.9642 12.3303 16.4141 12.5756C16.8553 12.8345 17.2301 13.1926 17.5089 13.6215C17.7877 14.0504 17.9627 14.5383 18.0203 15.0466L18.1685 16.2244V16.488C18.1639 16.5208 18.1639 16.5541 18.1685 16.5868L18.4568 16.5374C18.811 16.5374 19.1652 16.4633 19.5276 16.4386C20.2406 16.3892 20.9561 16.3892 21.6691 16.4386C22.015 16.4386 22.361 16.5045 22.7069 16.5457H22.8552H22.9458L23.0611 15.722L23.1847 14.8983C23.2459 14.5625 23.3569 14.2377 23.5141 13.9346C23.6792 13.5989 23.9101 13.2997 24.1931 13.0549C24.4761 12.8101 24.8054 12.6247 25.1614 12.5097C25.5675 12.3905 25.9992 12.3905 26.4052 12.5097L26.644 12.6003L26.6935 12.6497C26.6935 12.6497 26.6935 12.5344 26.7594 12.4685C26.7554 12.4495 26.7554 12.4299 26.7594 12.4108L26.8829 12.2461C26.9771 12.1244 27.0849 12.0139 27.2042 11.9167C27.7035 11.4215 28.2345 10.9592 28.7938 10.5329C29.362 10.1131 30.0285 9.84644 30.7294 9.75864C31.1239 9.71932 31.5223 9.76679 31.8965 9.89769C32.2707 10.0286 32.6117 10.2398 32.8957 10.5164C33.3851 11.0732 33.6623 11.785 33.6782 12.5262C33.7815 13.8193 33.5099 15.1148 32.8957 16.2574C32.359 17.1606 31.7085 17.991 30.9601 18.7284C30.5937 19.099 30.2088 19.4509 29.8069 19.7827L29.3045 20.1945L29.1068 20.3263C29.1645 20.4087 29.2386 20.4746 29.2963 20.5487L29.8893 21.3724C30.1034 21.6606 30.3094 21.9572 30.507 22.2537C30.921 22.8526 31.2821 23.4865 31.586 24.1481C31.9228 24.7 32.1363 25.3181 32.212 25.9602C32.212 26.1414 32.5333 26.685 32.6156 27.1133C32.7317 27.6688 32.7485 28.2405 32.665 28.8018C32.5617 29.4356 32.2754 30.0254 31.8414 30.4986C31.2457 31.0806 30.4875 31.4683 29.6669 31.6106C28.9572 31.7332 28.2371 31.7856 27.5171 31.767C26.6935 31.767 25.8698 31.8659 25.0461 31.8906C24.2224 31.9153 23.3411 31.8906 22.4845 31.8906L19.2558 31.767C18.1356 31.767 16.9742 31.8412 15.9034 31.767C15.401 31.7176 14.9068 31.6929 14.4126 31.6764H13.6631H13.2924C13.2105 31.6879 13.1273 31.6879 13.0453 31.6764H12.8394C12.5676 31.6353 12.2958 31.5941 12.0157 31.5364L11.1921 31.2564C10.9245 31.11 10.6659 30.9478 10.4178 30.7704C10.1868 30.5628 9.98204 30.3277 9.80827 30.0703C9.24465 29.0509 9.09149 27.8547 9.38 26.7262C9.59849 25.7095 9.93002 24.7205 10.3684 23.7775C10.8804 22.7968 11.8034 20.6774 12.454 19.7827C12.7423 19.3461 13.195 19.8987 13.2197 20.1787C13.2166 20.2552 13.3213 20.3845 13.2018 20.7464C12.7323 21.7183 12.4523 22.6655 11.8839 23.7116C11.4649 24.4708 11.1255 25.2713 10.8708 26.1002C10.6358 26.8421 10.5628 27.6257 10.6567 28.3982Z" fill="#1F2227"/>
<path d="M19.3572 22.7131C19.2781 22.6424 19.2341 22.602 19.1551 22.5559C19.076 22.5098 18.7685 22.5052 18.7685 22.5052C18.7467 22.4844 18.7193 22.4698 18.6894 22.463H18.6016C18.3969 22.5127 18.2149 22.6254 18.0832 22.7838C18.0025 22.8988 17.9458 23.0278 17.9162 23.1636C17.8816 23.3179 17.8376 23.4702 17.7844 23.6195C17.7672 23.7116 17.7672 23.8059 17.7844 23.898C17.7932 23.9794 17.7932 24.0615 17.7844 24.1429V24.6494C17.7931 24.7433 17.8199 24.8349 17.8635 24.9195C17.8987 24.9955 17.9426 24.9195 17.9953 24.9955C18.034 25.085 18.078 25.1724 18.1271 25.2571C18.1538 25.3153 18.1893 25.3694 18.2325 25.4175C18.2853 25.426 18.2853 25.2994 18.2853 25.3669C18.2765 25.6032 18.294 25.4429 18.3468 25.5526C18.3995 25.6623 18.461 25.6117 18.5225 25.6117C18.5997 25.6368 18.6734 25.6708 18.7421 25.713C18.7886 25.7216 18.8363 25.7216 18.8827 25.713C19.0848 25.7299 19.2341 25.5864 19.2956 25.6032C19.3572 25.6201 19.3308 25.561 19.3572 25.5357C19.3835 25.5104 19.4362 25.4091 19.4362 25.4597V25.3584C19.534 25.1457 19.602 24.9215 19.6383 24.6915C19.7086 24.4383 19.6989 24.1923 19.6989 23.836C19.6989 23.4797 19.5593 23.0427 19.5593 23.0427C19.5241 22.9414 19.4362 22.7838 19.3572 22.7131Z" fill="#1F2227"/>
<path d="M23.0984 22.7147C23.0193 22.644 22.9754 22.6035 22.8963 22.5574C22.8172 22.5113 22.5097 22.5068 22.5097 22.5068C22.4879 22.486 22.4605 22.4714 22.4306 22.4646H22.3428C22.1382 22.5143 21.9561 22.6269 21.8244 22.7854C21.7437 22.9004 21.687 23.0294 21.6575 23.1652C21.6229 23.3195 21.5788 23.4717 21.5257 23.6211C21.5084 23.7132 21.5084 23.8075 21.5257 23.8996C21.5344 23.981 21.5344 24.0631 21.5257 24.1444V24.6509C21.5343 24.7449 21.5611 24.8365 21.6047 24.9211C21.6399 24.997 21.6838 24.9211 21.7365 24.997C21.7752 25.0866 21.8192 25.174 21.8683 25.2587C21.895 25.3169 21.9305 25.371 21.9737 25.4191C22.0265 25.4276 22.0265 25.3009 22.0265 25.3685C22.0177 25.6048 22.0352 25.4444 22.088 25.5542C22.1407 25.6639 22.2022 25.6133 22.2637 25.6133C22.3409 25.6384 22.4146 25.6724 22.4833 25.7146C22.5298 25.7232 22.5775 25.7232 22.6239 25.7146C22.826 25.7315 22.9754 25.5879 23.0369 25.6048C23.0984 25.6217 23.072 25.5626 23.0984 25.5373C23.1247 25.512 23.1774 25.4107 23.1774 25.4613V25.36C23.2752 25.1473 23.3432 24.923 23.3795 24.6931C23.4498 24.4399 23.4401 24.1939 23.4401 23.8376C23.4401 23.4813 23.3005 23.0443 23.3005 23.0443C23.2653 22.943 23.1774 22.7854 23.0984 22.7147Z" fill="#1F2227"/>
<path d="M18.5174 21.9874L18.1988 21.9208C18.0748 21.8948 17.9566 21.8586 17.843 21.8349C17.7735 21.7928 17.7192 21.6861 17.6828 21.52C17.6791 21.5083 17.6783 21.4879 17.6804 21.462C17.6918 21.3381 17.8095 21.0009 17.8431 21.0079C17.9149 21.0287 18.004 20.9382 18.0781 20.9537L18.4697 21.0356C18.5951 21.0944 18.7323 21.0981 18.8798 21.0467L19.0016 21.1354C19.1256 21.1613 19.2438 21.1975 19.3574 21.2213C19.4269 21.2634 19.4812 21.3701 19.5176 21.5362C19.5212 21.5478 19.5221 21.5682 19.52 21.5941C19.5086 21.7181 19.3909 22.0552 19.3573 22.0482C19.2855 22.0274 19.1964 22.1179 19.1223 22.1024L18.7297 22.0318C18.6938 22.0185 18.6253 22.1478 18.6183 22.0832C18.5982 21.9979 18.5631 21.9646 18.5174 21.9874Z" fill="#1F2227"/>
<path d="M20.0461 28.2404C20.0515 28.2207 20.059 28.2017 20.0648 28.1823C20.0679 28.1726 20.0702 28.1627 20.0719 28.1526C20.0731 28.1424 20.0731 28.1321 20.0719 28.1219C20.0704 28.1066 20.1967 28.1041 20.0829 28.0624C20.0262 28.0418 20.1034 28.06 20.1 28.0453C20.0913 28.0062 20.121 27.9739 20.1124 27.9362C20.1061 27.9156 20.0961 27.8963 20.0829 27.8792C20.0694 27.8629 20.0585 27.8446 20.0507 27.8249C20.0459 27.8074 20.0611 27.7933 20.0681 27.7781C20.0751 27.7629 20.0751 27.7465 20.0404 27.7294C20.0102 27.7146 20.0229 27.7043 20.0404 27.6931C20.0578 27.682 20.0796 27.6708 20.0669 27.6582C20.0379 27.6333 20.0212 27.6097 20.0723 27.5842C20.1095 27.5659 20.158 27.5432 20.1316 27.528C20.1151 27.5186 20.0426 27.5176 20.0466 27.5066C20.0507 27.4956 20.1868 27.4626 20.0466 27.478C20.035 27.4792 19.981 27.4834 19.9995 27.478C20.0878 27.4526 20.0796 27.4387 20.017 27.4441C19.9543 27.4495 20.0213 27.4193 20.017 27.4133C20.0056 27.3969 20.0081 27.3973 20.017 27.3762C20.0548 27.3287 19.9934 27.341 20.0009 27.3219C20.0042 27.3127 19.9894 27.3111 19.9814 27.3073C19.9733 27.3034 19.972 27.2966 19.9988 27.2753C20.0512 27.2317 20.0421 27.219 20.0337 27.2069C20.0294 27.2007 20.0774 27.1546 19.9555 27.2294C19.9442 27.2364 19.9444 27.2331 19.9529 27.2256C20.0238 27.1638 20.0021 27.1614 19.9704 27.1717C19.9386 27.182 19.8936 27.2055 19.9039 27.1825C19.9142 27.1595 19.9091 27.1466 19.8976 27.1403C19.8917 27.137 19.8854 27.1345 19.8789 27.1326C19.8725 27.1305 19.8663 27.128 19.8603 27.1249C19.8545 27.1218 19.9699 27.0064 19.8976 27.0794C19.8721 27.1052 19.8016 27.1012 19.8166 27.0794C19.825 27.0851 19.8557 27.0202 19.8166 27.0794C19.8083 27.0736 19.7913 27.0794 19.7894 27.064C19.7875 27.0487 19.772 27.0466 19.7624 27.0392C19.7528 27.0319 19.7477 27.0162 19.7655 26.9626C19.7807 26.9176 19.7788 26.886 19.6999 26.993C19.665 27.0422 19.6835 26.9832 19.6679 26.9905C19.6552 26.9966 19.6203 27.046 19.6125 27.0443C19.6046 27.0425 19.6245 26.9919 19.6299 26.9675C19.6315 26.96 19.6299 26.9584 19.624 26.9644C19.5981 26.993 19.583 27.0026 19.573 27.0008C19.5631 26.9991 19.5577 26.9863 19.5538 26.9703C19.5467 26.938 19.5432 26.8925 19.5149 26.9031C19.4598 26.9237 19.4247 26.8932 19.3887 26.8581C19.3683 26.8391 19.2357 26.7133 19.2957 26.4631C19.3228 26.3505 19.3763 26.2298 19.4116 26.164C19.4372 26.1158 19.5577 26.0996 19.573 26.0906C19.5973 26.0763 19.6439 26.0748 19.668 26.0601C19.7181 26.0318 19.7912 25.9651 19.8074 26.0391C19.8121 26.0623 19.8519 26.0056 19.8187 26.1152C19.8142 26.1304 19.8158 26.1401 19.821 26.1337C19.8802 26.062 19.9135 26.0592 19.9379 26.0766C19.9624 26.0941 19.9781 26.129 20.0077 26.1363C20.0325 26.1424 20.0718 26.1197 20.1081 26.1058C20.1444 26.0918 20.1779 26.0883 20.1859 26.1276C20.2339 26.0736 20.2557 26.1033 20.2733 26.1058C20.2909 26.1082 20.3049 26.088 20.3068 26.1143C20.3135 26.2063 20.3496 26.248 20.3967 26.2771C20.4199 26.2927 20.4458 26.3054 20.4704 26.3199C20.4957 26.3339 20.5181 26.3527 20.5363 26.3752C20.5454 26.3869 20.555 26.3977 20.5646 26.4091C20.5742 26.4204 20.584 26.4317 20.5939 26.4427C20.614 26.4646 20.6349 26.4853 20.655 26.508C20.6751 26.5307 20.6964 26.5516 20.7149 26.5759C20.7338 26.5997 20.7512 26.6246 20.7672 26.6504C20.7772 26.6679 20.8545 26.6392 20.8161 26.694C20.7986 26.7195 20.8021 26.7319 20.8131 26.7412C20.8241 26.7504 20.8402 26.7572 20.8468 26.7691C20.8587 26.7902 20.8991 26.7989 20.8773 26.8359C20.8318 26.9124 20.8381 26.957 20.8553 26.9989C20.8642 27.0195 20.8777 27.0387 20.8885 27.0588C20.8997 27.0784 20.9074 27.0998 20.911 27.1221C20.9143 27.1445 20.9159 27.1668 20.9182 27.1886C20.9204 27.2104 20.9237 27.2322 20.9281 27.2535C20.9314 27.2747 20.9367 27.2956 20.9438 27.3158C20.9515 27.3367 20.9609 27.3569 20.9719 27.3762C20.9862 27.4003 21.0141 27.4232 21.0356 27.4479C21.0571 27.4727 21.0705 27.498 21.0564 27.5252C21.0508 27.5368 21.0674 27.5476 21.0689 27.5593C21.0705 27.571 21.0562 27.5825 20.9901 27.5942C20.9525 27.6006 21.0543 27.619 21.0599 27.6336C21.0723 27.6685 21.0627 27.7034 21.0614 27.7383C21.0604 27.7868 21.0459 27.832 21.0553 27.88C21.0614 27.9095 21.1119 27.9427 21.1218 27.9734C21.127 27.9881 21.1286 28.0039 21.1264 28.0194C21.1243 28.0348 21.1185 28.0496 21.1096 28.0624C21.0866 28.0973 21.0347 28.1252 21.0141 28.1575C20.9936 28.1898 21.0456 28.2421 20.9778 28.2633C20.9147 28.2823 20.8936 28.3095 20.8848 28.34C20.8761 28.3706 20.878 28.4032 20.8635 28.4318C20.8351 28.4891 20.8068 28.5439 20.8157 28.6112C20.8197 28.6493 20.7028 28.6439 20.6936 28.6755C20.689 28.6908 20.4114 28.7588 20.3068 28.716C20.2905 28.7096 20.1154 28.6539 20.1 28.6453C20.011 28.583 19.9829 28.3987 20.0035 28.3722C20.0313 28.3334 20.033 28.2849 20.0461 28.2404Z" fill="#1F2227"/>
<path d="M22.9303 13.4783C22.815 13.2312 22.7079 12.9759 22.5761 12.7288C22.5267 12.6382 22.6423 12.5055 22.4117 12.489C22.3514 12.3836 22.4031 12.3005 22.3455 12.2181C22.2137 11.9957 22.1313 11.7404 22.0078 11.518C21.8842 11.2956 21.703 11.1062 21.5795 10.892C21.4559 10.6779 21.4395 10.3978 21.2418 10.2331C21.0441 10.0683 21.1429 9.83773 21.0194 9.68123C20.8785 9.51569 20.7897 9.31223 20.764 9.09641C20.7798 8.94138 20.7451 8.78543 20.6652 8.65165C20.6076 8.57752 20.4675 8.54457 20.4346 8.44573C20.4016 8.34689 20.4346 8.22334 20.204 8.23982C20.204 8.23982 20.204 8.19039 20.204 8.15744C20.2356 8.10557 20.25 8.04504 20.2451 7.98448C20.2451 7.98448 20.4146 7.98448 20.3405 7.98448V8.02565C20.4638 8.0381 20.3443 8.04634 20.4675 8.0339C20.5198 8.02745 20.4137 7.96364 20.4593 7.93747C20.4593 7.93747 20.5145 7.9433 20.4981 7.98448C20.4816 8.02566 20.5499 7.98447 20.5499 8.02565C20.5263 8.06178 20.4954 8.09264 20.4593 8.11627C20.3291 8.20524 20.2332 8.33599 20.1875 8.48691C20.1875 8.56927 20.0227 8.6187 20.1875 8.77519C20.1875 8.77519 20.1875 8.81638 20.1875 8.82461C19.8251 8.93169 20.0804 9.30235 19.9239 9.50003C19.7798 9.7165 19.6739 9.95609 19.6109 10.2084C19.6109 10.2743 19.4956 10.3155 19.6109 10.4308C19.623 10.437 19.6332 10.4464 19.6403 10.4581C19.6473 10.4697 19.6511 10.483 19.6511 10.4967C19.6511 10.5103 19.6473 10.5236 19.6403 10.5352C19.6332 10.5469 19.623 10.5563 19.6109 10.5625C19.3308 10.6531 19.3803 10.892 19.265 11.0567C19.1497 11.2215 19.1497 11.4933 18.9026 11.6333C18.8037 11.691 18.7131 11.798 18.9026 11.9792C19.092 12.1605 18.8449 12.1275 18.8284 12.2099C18.812 12.2922 18.8861 12.3746 18.8284 12.4405C18.7708 12.5064 18.7131 12.5146 18.6472 12.5476C18.6412 12.556 18.638 12.5661 18.638 12.5764C18.638 12.5868 18.6412 12.5968 18.6472 12.6052C18.7378 12.9924 18.326 13.1736 18.2519 13.4948C18.1708 13.819 18.0432 14.1297 17.873 14.4173C17.7906 14.5738 17.6588 14.7221 17.2388 14.6809C17.1063 14.6903 16.9752 14.6486 16.8725 14.5644C16.7699 14.4801 16.7034 14.3597 16.6869 14.2279V13.8984C16.6869 13.676 16.6128 13.4124 16.794 13.2477C16.8434 13.1983 16.794 13.083 16.967 13.0994C16.8187 12.7206 17.107 12.5146 17.2058 12.2758C17.3046 12.0369 17.2058 11.7239 17.3623 11.5262C17.3314 11.4945 17.3082 11.4562 17.2945 11.4141C17.2808 11.372 17.277 11.3273 17.2834 11.2835C17.2898 11.2397 17.3062 11.1979 17.3313 11.1614C17.3564 11.125 17.3895 11.0948 17.4282 11.0732C17.8318 10.7026 17.8812 10.1837 18.1036 9.73065C18.326 9.27763 18.499 8.79991 18.7049 8.33865C18.7049 8.25628 18.6555 8.14097 18.779 8.08332C18.9026 8.02566 18.8861 7.89387 18.9273 7.79503C18.9685 7.69619 18.9273 7.58088 19.0508 7.51498C19.2916 7.23432 19.4762 6.90993 19.5945 6.55953C19.803 6.55953 19.9847 6.36365 20.204 6.36365C20.3917 6.36365 20.6178 6.55953 20.7888 6.55953H21.0853L21.4477 7.38319C21.5218 7.54793 21.5383 7.58088 21.5877 7.67148C21.6371 7.76209 21.6701 7.81973 21.7195 7.89386C21.8513 8.09978 22.0655 8.26451 22.1231 8.50337C22.1231 8.60221 22.3043 8.65165 22.1231 8.83286C21.9419 9.01406 22.2631 8.90699 22.2961 8.96465C22.379 9.10707 22.4506 9.25577 22.5102 9.40941C22.6091 9.62356 22.6914 9.83772 22.8067 10.0354C22.922 10.2331 23.0209 10.2496 23.095 10.3649C23.1762 10.4902 23.2399 10.626 23.2845 10.7685C23.3339 10.9414 23.3504 11.1474 23.408 11.3203C23.4657 11.4933 23.6386 11.6498 23.6304 11.8557C23.666 12.2029 23.7786 12.5377 23.9599 12.8359C24.0796 13.1563 24.2285 13.4651 24.4046 13.7584C24.5035 13.9231 24.4046 14.1537 24.5035 14.3267C24.6023 14.4997 24.1164 14.7303 23.9434 14.7715C23.9137 14.7792 23.8825 14.7792 23.8528 14.7715C23.6222 14.6727 23.3174 14.6232 23.2433 14.4255C23.1692 14.2279 23.0209 13.7666 22.9303 13.4783Z" fill="#1F2227"/>
<path d="M32.7366 22.6998C32.9254 22.5251 33.1521 22.4006 33.3972 22.3371C33.6422 22.2736 33.8984 22.2729 34.1438 22.3351C34.3299 22.3739 34.4342 22.5213 34.665 22.4592C34.8958 22.3971 34.8139 22.6998 34.933 22.793C35.1034 22.9445 35.2422 23.1307 35.3408 23.3403C35.4394 23.5499 35.4958 23.7784 35.5064 24.0116C35.5499 24.4352 35.4776 24.863 35.2979 25.2456C35.1192 25.5949 34.8065 25.8045 34.6203 26.1072C34.4342 26.4099 34.1364 26.3866 33.9204 26.5496C33.6845 26.7317 33.4021 26.837 33.1089 26.8523H32.7962C32.6924 26.8375 32.5872 26.8375 32.4835 26.8523C32.3867 26.8523 32.2973 26.992 32.1782 26.992C32.059 26.992 31.9548 26.9144 31.8729 27.1239C31.8729 27.1239 31.8208 27.1239 31.791 27.0851C31.77 27.059 31.7438 27.038 31.7142 27.0236C31.6846 27.0092 31.6524 27.0018 31.6197 27.0018C31.5871 27.0018 31.5548 27.0092 31.5253 27.0236C31.4957 27.038 31.4695 27.059 31.4485 27.0851C31.4163 27.1207 31.3768 27.1482 31.3329 27.1656C31.2891 27.1831 31.2421 27.1901 31.1953 27.186C30.9609 27.2196 30.7246 27.2377 30.488 27.2404C30.3093 27.2404 30.1306 27.1705 29.9519 27.1627C29.7732 27.155 29.5797 27.2559 29.401 27.1627C29.2427 27.097 29.0707 27.0756 28.9021 27.1006C28.8053 27.1006 28.6862 27.023 28.6266 27.2404C28.6266 27.2404 28.582 27.2404 28.5671 27.2404C28.2767 26.9842 28.0384 27.3645 27.7555 27.318C27.4694 27.2903 27.181 27.306 26.8993 27.3645C26.8248 27.3645 26.7354 27.318 26.6759 27.4732C26.6668 27.4833 26.6559 27.4913 26.6437 27.4969C26.6315 27.5024 26.6184 27.5052 26.6051 27.5052C26.5919 27.5052 26.5787 27.5024 26.5666 27.4969C26.5544 27.4913 26.5434 27.4833 26.5344 27.4732C26.311 27.2792 26.0951 27.4189 25.8792 27.4033C25.6633 27.3878 25.3878 27.4887 25.1346 27.349C25.1041 27.3262 25.069 27.3111 25.032 27.3047C24.995 27.2983 24.957 27.3008 24.9211 27.312C24.8851 27.3232 24.8522 27.3429 24.8246 27.3695C24.7971 27.3961 24.7758 27.4289 24.7623 27.4654C24.7102 27.5586 24.5837 27.4654 24.4943 27.4654C24.405 27.4654 24.3603 27.5818 24.2859 27.5896C24.2114 27.5974 24.1518 27.5198 24.0848 27.4887H24.0252C23.6753 27.7371 23.2807 27.4887 22.9382 27.5508C22.5751 27.6222 22.2055 27.6509 21.8362 27.6362C21.709 27.6404 21.584 27.6008 21.4804 27.5237C21.3768 27.4466 21.3004 27.3361 21.263 27.2093C21.2244 27.1397 21.2041 27.0607 21.2041 26.9803C21.2041 26.8999 21.2244 26.821 21.263 26.7514C21.3122 26.6692 21.3815 26.6022 21.464 26.5573L21.799 26.4254C22.0298 26.3478 22.2457 26.1537 22.4989 26.2313C22.5734 26.2313 22.6553 26.146 22.7297 26.3167H22.7818C23.0871 26.0373 23.4371 26.1848 23.7647 26.1382C24.0923 26.0916 24.3007 25.8743 24.5837 25.9442C24.6344 25.8615 24.7128 25.8015 24.8036 25.7757C24.8944 25.7499 24.9911 25.7601 25.0751 25.8045C25.6271 25.9014 26.1908 25.9014 26.7429 25.8045C27.3088 25.8045 27.8672 25.7268 28.4256 25.7036C28.5224 25.7036 28.5968 25.5716 28.7159 25.657C28.8351 25.7424 28.9617 25.657 29.0808 25.657C29.1999 25.657 29.3116 25.5949 29.4158 25.657C29.8552 25.7538 30.3092 25.7538 30.7486 25.657C31.1897 25.6582 31.6302 25.6244 32.0665 25.5561L32.4611 25.4474H32.5579C32.6072 25.4393 32.6575 25.4393 32.7068 25.4474C32.8036 25.4474 32.8557 25.2999 33.0046 25.4474C33.0493 25.494 33.0791 25.3155 33.1238 25.2844C33.1684 25.2534 33.3769 25.1447 33.496 25.0671C33.6579 24.9641 33.7995 24.8297 33.913 24.6713C33.9592 24.5719 33.9846 24.4634 33.9874 24.3531C33.9874 24.2677 34.0396 24.1901 34.0619 24.1357C34.0843 24.0814 34.1587 24.0038 34.1513 23.9339C34.1438 23.8641 34.0247 23.8641 34.0023 23.7244C33.979 23.6671 33.9462 23.6146 33.9055 23.5691C33.8706 23.5414 33.8297 23.5227 33.7864 23.5148C33.7228 23.4993 33.6565 23.4993 33.5928 23.5148C33.5176 23.5539 33.4535 23.6128 33.4067 23.6856C33.362 23.7632 33.4067 23.8563 33.4067 23.8563C33.4067 23.8563 33.2578 23.9106 33.2875 23.8563C33.3173 23.802 33.2875 23.8563 33.2875 23.8563C33.3546 24.069 33.3849 24.2924 33.3769 24.516C33.3683 24.5454 33.353 24.572 33.3322 24.5937C33.1814 24.6865 33.0083 24.7322 32.8334 24.7256C32.7128 24.7081 32.5981 24.6601 32.4994 24.5856C32.4008 24.5112 32.3211 24.4127 32.2675 24.2987C32.1912 24.0133 32.1948 23.7111 32.2779 23.4278C32.361 23.1445 32.5202 22.8919 32.7366 22.6998V22.6998Z" fill="#1F2227"/>
<path d="M32.7668 24.2059V24.167L33.3029 23.8799C33.3227 23.8989 33.3453 23.9146 33.3698 23.9264L33.5337 24.0273L33.8166 24.1903H33.8687L33.6826 24.3611C33.6826 24.3611 33.8389 24.5241 33.3475 23.9652C33.2656 23.8488 33.3475 23.9264 33.2805 23.8799L33.1167 23.5539C33.0866 23.4802 33.0491 23.4099 33.005 23.3443H33.0571L33.1465 23.3055L33.3401 23.2589L33.5039 24.5008C33.3597 24.5202 33.2134 24.4903 33.087 24.4154C33.0167 24.3655 32.9561 24.3024 32.9082 24.2291C32.8748 24.1767 32.8497 24.1191 32.8338 24.0584C32.8306 24.0119 32.8306 23.9652 32.8338 23.9187V23.8333C32.829 23.7739 32.829 23.7142 32.8338 23.6548C32.8666 23.5458 32.917 23.4435 32.9827 23.3521C33.0847 23.2176 33.2145 23.1088 33.3624 23.0338L33.489 23.0804V22.9951H33.5486C33.6628 22.9577 33.7835 22.9473 33.902 22.9648C34.0205 22.9822 34.1338 23.027 34.2336 23.0959H34.3304L34.3973 23.1813C34.4789 23.2964 34.5512 23.4185 34.6133 23.5461L34.7101 23.7634L34.2559 23.7246C34.1889 23.7246 34.1516 23.81 34.2559 23.647L34.375 23.4763L34.4122 23.4142V23.3598L34.4718 23.3986C34.5369 23.4497 34.5925 23.5128 34.6356 23.5849C34.7113 23.6957 34.7505 23.8292 34.7473 23.9652V23.9031C34.7609 24.0754 34.719 24.2475 34.6282 24.3921V24.4465V24.5629V24.4853C34.6107 24.681 34.5495 24.8697 34.4495 25.0363C34.3452 25.2148 34.1665 25.4089 34.0772 25.5874C34.0574 25.6273 34.0261 25.6599 33.9878 25.6805C33.9291 25.7186 33.863 25.7425 33.7942 25.7504C33.6453 25.7892 33.6305 25.7504 33.5932 25.7504C33.5766 25.7811 33.5566 25.8098 33.5337 25.8358C33.4845 25.8879 33.4264 25.93 33.3624 25.9599C33.2463 26.025 33.1124 26.0469 32.9827 26.022C32.8783 26.0068 32.7802 25.961 32.6998 25.8901L32.6551 25.8435L32.7147 25.7737L32.7519 25.7349L32.8636 25.5874C32.8908 25.5475 32.911 25.5028 32.9231 25.4554C32.9231 25.4554 32.9231 25.4555 32.9231 25.5641C32.9231 25.6728 33.0125 25.7659 33.0795 25.8979C33.1465 26.0298 33.0795 25.8979 33.0795 25.9367C33.0338 25.9607 32.9865 25.9815 32.938 25.9988H32.804H32.7072V25.7038C32.7072 25.7582 32.6476 25.5408 32.6253 25.4943L32.9902 25.9444C32.8934 26.0143 32.8487 26.022 32.8338 26.0376H32.7668C32.3773 26.153 31.9786 26.231 31.5755 26.2704C31.2777 26.2704 30.9054 26.317 30.7044 26.3558C30.3619 26.4479 30.0074 26.482 29.6545 26.4567L29.379 26.3946C29.3709 26.3905 29.362 26.3883 29.353 26.3883C29.344 26.3883 29.335 26.3905 29.3269 26.3946H29.2525H29.2003C29.2003 26.7283 29.2003 25.9367 29.2003 26.022V26.1618C29.2003 26.2238 29.2003 26.3325 29.245 26.4567H29.1557C29.001 26.4911 28.8412 26.4911 28.6866 26.4567C28.6302 26.4381 28.5755 26.4148 28.5228 26.3868L28.4483 26.3403L28.7238 25.9211C28.7259 25.9005 28.7259 25.8797 28.7238 25.859C28.7213 25.8745 28.7213 25.8902 28.7238 25.9056V25.9677V26.022L28.8876 26.4101L28.7611 26.4645C28.6792 26.4937 28.5942 26.5119 28.5079 26.5188H28.2473H28.0612C27.6011 26.5665 27.1385 26.5846 26.6763 26.5731C26.4752 26.5731 26.2295 26.6662 25.9317 26.6895C25.5921 26.7198 25.2504 26.6666 24.934 26.5343C24.934 26.5343 24.934 26.5731 24.934 26.3558C24.9405 26.2835 24.9405 26.2107 24.934 26.1385C24.9826 26.2117 25.0461 26.2727 25.1202 26.317L24.5319 26.4722C24.5319 26.4256 24.5319 26.6507 24.5319 26.5964L24.3905 26.6585C24.257 26.7448 24.1147 26.8151 23.9661 26.8681C23.8096 26.9184 23.6457 26.9394 23.4821 26.9301C23.3779 26.9301 23.3109 26.9301 23.3034 26.9301V26.8836L23.3556 26.9534L23.4151 27.031C23.3021 27.1228 23.1691 27.1842 23.028 27.2096C22.8539 27.2437 22.674 27.2193 22.5142 27.1397C22.3642 27.0639 22.2378 26.9455 22.1494 26.7982V26.7284V26.6895L22.544 26.4955H22.5961L22.127 26.7904C22.2164 26.7051 22.0823 26.7128 22.0675 26.7904C22.0526 26.868 22.0675 26.7904 22.0675 26.8292H22.2015H22.4397C22.5856 26.8486 22.7332 26.8486 22.879 26.8292H22.9312C23.1958 26.7969 23.4632 26.7969 23.7279 26.8292H23.7725V26.9069C23.7711 26.9327 23.7711 26.9586 23.7725 26.9845C23.7725 27.0233 23.7725 27.0233 23.7725 26.9845C23.6683 26.8215 23.7725 26.9379 23.7204 26.8991L23.8246 26.8448C23.958 26.7838 24.1055 26.7649 24.249 26.7904C24.3157 26.8029 24.3807 26.8237 24.4426 26.8525L24.5096 26.8913L24.6139 26.9767V27.0233C24.5171 27.1863 24.4575 27.2949 24.4351 27.3415C24.4014 27.3978 24.381 27.4617 24.3756 27.5278V27.4579C23.981 26.5809 24.2639 27.2173 24.1746 27.0155C24.3008 26.9286 24.4478 26.8803 24.599 26.8758H24.7628C24.7628 26.7672 24.8744 27.8072 24.8223 27.3648L24.3905 27.1009L24.4426 27.031C24.5311 26.9163 24.643 26.8235 24.7702 26.7594C24.9251 26.6909 25.0955 26.6693 25.2616 26.6973C25.4031 26.6973 25.5892 26.8292 25.5297 26.8215C25.5297 26.8215 25.5892 26.8215 25.6637 26.6818C25.7381 26.5421 25.7605 26.6818 25.8126 26.6818H25.9466H26.0137H26.0509C26.0509 26.7672 26.0509 26.4722 26.0509 26.8836V26.7051H26.0955C26.2857 26.6773 26.4786 26.6773 26.6688 26.7051C26.7983 26.7415 26.9215 26.7991 27.0337 26.8758L26.6688 27.3338L26.103 27.1009V27.0543C26.1223 27.0062 26.1447 26.9596 26.17 26.9146C26.2604 26.7542 26.4031 26.633 26.5721 26.5731C26.6799 26.534 26.7929 26.513 26.9071 26.511C27.0425 26.4698 27.1829 26.4489 27.324 26.4489C27.4506 26.4489 27.6293 26.4489 27.7633 26.4489C27.7732 26.4559 27.7849 26.4597 27.7968 26.4597C27.8088 26.4597 27.8205 26.4559 27.8304 26.4489C28.0586 26.323 28.3196 26.2768 28.5749 26.317C28.6761 26.339 28.7738 26.3756 28.8653 26.4256L28.977 26.4955L29.0291 26.5343C28.8355 26.7672 29.4684 25.9988 28.5972 27.0699L27.9346 26.8525V26.7904C27.9848 26.6465 28.0693 26.5182 28.1803 26.4179C28.3414 26.2792 28.5447 26.2049 28.7536 26.2083H28.9993C29.1556 26.208 29.3111 26.2315 29.4609 26.2782L29.5875 26.317H29.6471L29.4684 26.6973C29.4684 26.6973 29.4684 26.6973 29.4684 26.5964C29.4768 26.5346 29.4768 26.4719 29.4684 26.4101V26.1618C29.5325 26.1514 29.5978 26.1514 29.662 26.1618C29.8585 26.1742 30.052 26.2188 30.2353 26.2937C30.3693 26.2937 30.3991 26.348 30.4512 26.3403C30.6671 26.3403 30.8384 26.2937 31.0766 26.2937V26.4024C31.0879 26.512 31.1053 26.6209 31.1288 26.7284C31.1288 26.7827 31.1288 26.7982 31.1288 26.7284L31.0692 26.6585L30.816 26.4101L30.883 26.348C30.9941 26.2625 31.1208 26.2017 31.2553 26.1695C31.384 26.1426 31.5166 26.1438 31.6448 26.1732C31.773 26.2026 31.8939 26.2595 31.9999 26.3403C32.0402 26.37 32.0777 26.4037 32.1116 26.4412C32.4615 26.0841 31.6425 26.9301 31.7244 26.8448C31.6794 26.9035 31.6488 26.9728 31.6351 27.0466L30.9724 26.7827V26.7128C31.0414 26.5673 31.1469 26.4439 31.2776 26.3558C31.4317 26.2569 31.6106 26.2083 31.7914 26.2161H31.9105V26.4645C31.9105 26.9069 31.9105 26.7206 31.9105 26.674C31.9105 26.6274 31.8733 26.5809 31.8212 26.4722L31.7691 26.3791L31.7169 26.2782L31.8807 26.2005C31.9938 26.1771 32.1102 26.1771 32.2232 26.2005C32.3058 26.2081 32.3879 26.2211 32.469 26.2394H32.6998H32.8114C32.8412 26.2029 32.864 26.1607 32.8785 26.1152C32.8785 26.022 33.0572 26.0453 33.1763 25.9289C33.4294 25.7426 33.6379 25.5874 33.623 25.5874C33.6456 25.6161 33.6773 25.6353 33.7124 25.6417C33.758 25.6002 33.7959 25.5502 33.8241 25.4943C33.924 25.3179 34.036 25.1493 34.1591 24.9898C34.223 24.9169 34.278 24.8361 34.3229 24.7491C34.4431 24.5421 34.4903 24.2978 34.4564 24.0584C34.4224 23.8189 34.3094 23.5993 34.1368 23.4374C34.0074 23.3283 33.9032 23.1904 33.8315 23.0338L33.7868 22.9329L33.9804 22.8243L34.1963 22.6923C34.2512 22.6582 34.2992 22.6134 34.3378 22.5604L34.5016 23.1968C34.2656 23.2563 34.0174 23.2345 33.7942 23.1348L33.6454 23.0571H33.5262C33.2287 23.0454 32.9348 22.9852 32.6551 22.8786C32.4764 22.8165 31.7549 23.2124 31.8591 22.9873C31.939 22.8079 32.4846 22.5737 32.6551 22.487C32.933 22.3528 33.2945 22.2638 33.6007 22.2598H33.8389C33.9729 22.2598 34.1442 22.3451 34.174 22.3296C34.2038 22.3141 34.174 22.3296 34.174 22.4072C34.1698 22.4329 34.1442 22.7487 34.174 22.4849C34.174 22.4849 34.174 22.446 34.174 22.3607V22.283C34.2158 22.275 34.2588 22.275 34.3006 22.283C34.3995 22.2757 34.4987 22.2916 34.5909 22.3296C34.7111 22.3807 34.9484 22.3944 35.0283 22.5009C35.1177 22.6329 35.1259 22.5604 35.1334 22.5604L35.1855 22.6147C35.2715 22.7029 35.2994 22.8486 35.3617 22.9562C35.4809 23.158 35.6929 23.1037 35.6035 23.3288C35.5852 23.3788 35.5852 23.434 35.6035 23.484C35.8285 23.89 35.8977 24.3698 35.7971 24.8268C35.7462 25.0653 35.6635 25.2952 35.5514 25.5098C35.4365 25.7189 35.5236 25.943 35.3617 26.1152C35.2497 26.2257 35.1995 26.3729 35.1345 26.5188C35.0498 26.6865 34.9302 26.8323 34.7846 26.9457L34.3378 27.2251H34.174L34.0623 27.1785C34.0623 27.1785 34.0623 27.1785 34.0177 27.1319L34.0772 27.2639H34.0251C33.9059 27.3413 33.7785 27.4038 33.6454 27.4502C33.5371 27.5627 33.408 27.651 33.2659 27.7097C33.1238 27.7684 32.9717 27.7963 32.8189 27.7917C32.7471 27.7993 32.6748 27.7993 32.603 27.7917C32.603 27.7917 32.4615 27.7917 32.4913 27.7917L32.3424 27.8538C32.1941 27.9066 32.036 27.9225 31.8807 27.9003H31.8063C31.8347 27.7233 31.8497 27.5442 31.851 27.3648C31.851 27.2484 31.851 27.2561 31.851 27.2949C31.9268 27.3646 32.0155 27.4174 32.1116 27.4502L32.3275 27.5433C32.2805 27.6549 32.2121 27.7553 32.1264 27.8382C31.9916 27.9585 31.82 28.0245 31.6425 28.0245H31.5234H31.4489C31.3757 28.0001 31.3056 27.9662 31.2404 27.9236L31.1511 27.8538L31.367 27.6287C31.4192 27.5824 31.4557 27.5198 31.4712 27.4502L31.7691 27.7451L31.702 27.8072C31.5385 27.9292 31.3445 27.9993 31.1436 28.009H30.898L30.3991 28.0478C30.2162 28.0484 30.0339 28.0276 29.8556 27.9857C29.7662 27.9857 29.8928 27.9857 29.6173 27.9857C29.4296 28.0133 29.2384 27.9947 29.0589 27.9314H28.977C28.977 27.8538 28.977 27.9314 28.977 27.877V27.9392C28.977 27.9392 28.977 27.9392 28.9099 27.9392H28.7759H28.5898C28.5898 28.3117 28.5898 27.4191 28.5898 27.5123V27.3725C28.6386 27.4287 28.7 27.4714 28.7685 27.4967L28.8653 27.5355H28.9174C28.761 27.489 29.1259 27.6054 29.0886 27.5976V27.6442V27.7141L29.0142 27.8305C28.9499 27.9214 28.8657 27.9949 28.7685 28.0449C28.6714 28.0949 28.5641 28.1198 28.4558 28.1177C28.3292 28.122 28.2036 28.0926 28.091 28.0323L27.9867 27.9624L28.1207 27.7994V27.7606L28.1579 27.6985C28.1579 27.6287 28.1579 27.6287 28.1579 27.8072C28.2473 28.172 28.2324 28.0323 28.1579 28.0944C27.9289 28.2178 27.6687 28.2639 27.4134 28.2263C27.1913 28.2206 26.9693 28.2389 26.7508 28.2807H26.5869C26.5869 28.7153 26.5869 27.6985 26.5869 27.7994V27.7218C26.5877 27.7089 26.5877 27.6959 26.5869 27.683C26.5869 27.6132 26.587 27.7373 26.8029 27.8072L27.0858 27.9236C27.074 27.9561 27.0589 27.9874 27.0411 28.0168C27.0055 28.0718 26.9657 28.1237 26.922 28.172C26.8405 28.253 26.7443 28.3164 26.6391 28.3583C26.4589 28.4278 26.2608 28.4278 26.0806 28.3583C26.0288 28.3342 25.979 28.3057 25.9317 28.2729L26.0434 28.1332V28.0866V28.0323C26.0434 28.0323 26.0434 28.0323 26.0434 28.1332V28.3505H25.887H25.619C25.619 28.3505 25.552 28.3505 25.4329 28.4126C25.2348 28.4572 25.0281 28.4327 24.8447 28.3427L24.6734 28.2496L24.7702 28.0556L24.8149 27.9469C24.867 27.8149 24.8149 27.7529 24.8149 27.7917C24.8397 27.8297 24.8698 27.8637 24.9042 27.8926L24.9936 27.9624L25.0457 28.0012L25.1797 28.0866C25.1617 28.1165 25.1419 28.145 25.1202 28.172C25.0193 28.302 24.8809 28.3945 24.7255 28.4359C24.6664 28.4462 24.606 28.4462 24.5468 28.4359H24.5022C24.4049 28.4795 24.3021 28.5082 24.1969 28.5213C24.0781 28.5252 23.9595 28.5068 23.847 28.4669C23.7711 28.4334 23.6987 28.3918 23.6311 28.3427L23.7279 28.1798L23.8395 27.9702V27.9159L23.9214 27.7451L24.2937 28.3117C24.237 28.3441 24.177 28.3701 24.115 28.3893C23.8357 28.4767 23.538 28.4767 23.2588 28.3893C23.1666 28.3591 23.0719 28.3383 22.9758 28.3272C22.637 28.3933 22.2931 28.4271 21.9483 28.4281C21.6954 28.4562 21.4396 28.4189 21.2038 28.3195C20.976 28.1988 20.7909 28.0058 20.6751 27.7684C20.5709 27.5937 20.5156 27.392 20.5156 27.1863C20.5156 26.9805 20.5709 26.7789 20.6751 26.6042C20.861 26.4448 21.0576 26.2995 21.2634 26.1695C21.5115 26.0193 21.7801 25.9093 22.06 25.8435C22.1687 25.8279 22.2789 25.8279 22.3876 25.8435C22.487 25.8113 22.5935 25.8113 22.6929 25.8435C22.7823 25.8435 22.8865 25.96 22.9237 25.9755C23.0007 26.0138 23.0615 26.08 23.0949 26.1618L22.6036 26.4024C22.9312 26.7904 22.1494 25.8823 22.2313 25.9755L22.3578 25.8668C22.4488 25.7974 22.5492 25.7425 22.6557 25.7038C22.8332 25.6423 23.0196 25.6134 23.2067 25.6184H23.4821C23.5268 25.6184 23.4821 25.6184 23.5864 25.5564C23.6927 25.4982 23.8021 25.4464 23.914 25.4011C24.1261 25.3206 24.3551 25.3019 24.5766 25.3468L23.8321 25.6573C23.9439 25.4662 24.1106 25.3168 24.3086 25.2304C24.5103 25.1501 24.7299 25.1313 24.9415 25.176L25.0978 25.2226H25.1574H25.2691C25.3648 25.2317 25.4544 25.2757 25.5222 25.3468C25.5818 25.4089 25.7605 25.2381 25.9169 25.2148C26.1336 25.1772 26.3525 25.1539 26.5721 25.145H27.1528L28.091 25.0907C28.231 25.0354 28.3824 25.0193 28.5302 25.0441C28.6104 25.0533 28.6886 25.077 28.7611 25.1139L28.843 25.1605H28.8802L28.5972 25.6029C28.608 25.5205 28.608 25.437 28.5972 25.3545L28.56 25.0984H28.6494H28.7238H28.7983V25.3856V25.3313V25.0984H28.843H28.9695C29.1404 25.0521 29.3198 25.0521 29.4907 25.0984C29.56 25.1056 29.6299 25.1056 29.6992 25.0984L30.1385 25.0363H30.4661H30.9724C31.3603 25.0912 31.7535 25.0912 32.1414 25.0363L32.4094 24.9665L32.5359 25.5796V25.6573L32.4243 25.5253L32.0818 25.1217H32.1264C32.1825 25.0773 32.2455 25.0431 32.3126 25.0208H32.4019H32.5881H32.6774C32.6774 24.8811 32.6774 26.2316 32.6774 25.6573C32.6702 25.6218 32.6577 25.5877 32.6402 25.5564C32.6849 25.6262 32.32 24.8966 32.4168 25.0829C32.4951 25.0346 32.5808 25.0005 32.67 24.982C32.8395 24.9447 33.0157 24.9609 33.1763 25.0286C33.2654 25.0702 33.3481 25.1251 33.422 25.1916L32.938 25.6961L32.4168 25.3002V25.2459C32.4398 25.2108 32.4647 25.1772 32.4913 25.145C32.548 25.0843 32.6103 25.0297 32.6774 24.982L32.8859 24.8733L33.005 24.8345C33.0646 24.8345 33.0497 24.8345 33.1093 24.8345L33.2061 24.788C33.2368 24.7803 33.2651 24.7642 33.288 24.7414C33.288 24.7414 33.288 24.7414 33.3326 24.625V24.5706L33.4369 24.2679C33.4369 24.2214 33.4815 24.1205 33.556 24.136C33.6614 24.2097 33.7736 24.2721 33.891 24.3223H33.9432H33.9953C33.9953 24.3223 33.9953 24.2757 33.906 24.4465C33.8274 24.5502 33.7553 24.6591 33.69 24.7724L33.623 24.7259C33.5447 24.6646 33.4787 24.5878 33.4289 24.4999C33.379 24.412 33.3463 24.3147 33.3326 24.2136H33.6602C33.5709 24.2136 33.489 24.2757 33.3997 24.3067H33.355L33.5113 24.4309C33.5196 24.4345 33.5284 24.4364 33.5374 24.4364C33.5464 24.4364 33.5552 24.4345 33.5634 24.4309H33.6007L33.6454 24.0894V23.8333C33.6454 23.8799 33.6454 23.9264 33.7273 24.1437H33.6379L33.7124 24.0506C33.6991 24.0155 33.6788 23.9837 33.6528 23.9575L33.6007 23.9109L33.5262 23.8566H33.4369C33.3922 23.8566 33.2954 23.8566 33.2954 23.8566L33.3401 24.2369L33.4666 24.4853H33.4146C33.2901 24.5363 33.1518 24.5363 33.0274 24.4853C32.9272 24.4542 32.8367 24.3963 32.7648 24.3173C32.6929 24.2383 32.6423 24.141 32.6179 24.0351C32.5891 23.9311 32.5891 23.8208 32.6179 23.7169C32.6407 23.6577 32.6681 23.6006 32.6998 23.5461C32.7236 23.5119 32.751 23.4806 32.7817 23.453L32.6551 23.6315C32.6551 23.6315 32.6551 23.6315 32.7147 23.5228C32.7749 23.4442 32.8512 23.3805 32.938 23.3365C33.0037 23.3051 33.0744 23.2867 33.1465 23.2822C33.2402 23.278 33.3336 23.2968 33.419 23.3373C33.5044 23.3777 33.5794 23.4387 33.6379 23.5151L33.6975 23.6005V23.6625C33.7124 23.7109 33.7249 23.7602 33.7347 23.81V24.0428V24.2757C33.7453 24.3893 33.7453 24.5036 33.7347 24.6172V24.6948C33.6814 24.8644 33.5735 25.0097 33.4294 25.1062L33.3103 25.1683L33.072 25.2614C32.8819 25.3231 32.6808 25.339 32.4839 25.308C32.2762 25.2698 32.0807 25.1791 31.9145 25.0438C31.7483 24.9084 31.6166 24.7326 31.5308 24.5318C31.4533 24.2285 31.4466 23.9102 31.5114 23.6037C31.5761 23.2971 31.5988 23.2984 31.7914 23.0571C31.9477 22.8088 32.6476 22.6535 32.6476 22.8398C32.6551 22.8782 32.6551 22.9178 32.6476 22.9562C32.5723 23.1368 32.544 23.3349 32.5658 23.5306C32.5658 23.7013 32.6178 23.8255 32.6253 23.9808C32.6307 24.0626 32.6458 24.1434 32.67 24.2214V24.1748C32.67 24.1748 32.67 24.1748 32.67 24.2602C32.67 24.3455 32.67 24.299 32.67 24.3223C32.67 24.2447 32.67 24.4853 32.67 24.1593H32.7295H32.804C33.2805 25.2071 32.938 24.4542 33.0423 24.6871C33.0423 24.6172 32.9231 24.5939 32.9827 24.6172H33.2061C33.127 24.6058 33.0468 24.6058 32.9678 24.6172H32.8189V24.493L32.7668 24.2059Z" fill="#1F2227"/>
<path fill-rule="evenodd" clip-rule="evenodd" d="M31.9943 23.554C32.3073 23.6897 32.451 24.0535 32.3153 24.3665L32.1412 24.7679L32.4847 24.9413C32.7893 25.095 32.9116 25.4665 32.7579 25.7711C32.6042 26.0757 32.2327 26.198 31.9281 26.0443L31.0642 25.6083C30.7721 25.4609 30.8881 25.2415 31.0183 24.9413L31.1254 24.2636C31.2611 23.9506 31.6813 23.4182 31.9943 23.554Z" fill="#1F2227"/>
<path d="M32.4506 23.5397C32.6253 23.3988 32.8336 23.2984 33.0583 23.2466C33.283 23.1948 33.5178 23.1932 33.7433 23.2418C33.9211 23.2735 34.0168 23.3939 34.2288 23.3432C34.4409 23.2925 34.3656 23.546 34.4682 23.622C34.6249 23.7447 34.7529 23.8955 34.8446 24.0655C34.9363 24.2354 34.9898 24.4209 35.0017 24.6106C35.0363 24.9569 34.9677 25.3054 34.8033 25.6181C34.6392 25.9032 34.3519 26.0743 34.181 26.3215C34.01 26.5686 33.7364 26.5496 33.5381 26.6826C33.3231 26.8345 33.0627 26.9208 32.7926 26.9298H32.5054C32.4122 26.9209 32.3182 26.9209 32.2249 26.9298C32.1292 26.9298 32.0471 27.0438 31.9446 27.0438C31.842 27.0438 31.7325 26.9805 31.6641 27.1516C31.6641 27.1516 31.6094 27.1515 31.5889 27.1199C31.5697 27.0974 31.5453 27.0793 31.5174 27.0669C31.4896 27.0544 31.4591 27.0479 31.4282 27.0479C31.3973 27.0479 31.3668 27.0544 31.3389 27.0669C31.3111 27.0793 31.2867 27.0974 31.2675 27.1199C31.2039 27.1734 31.1209 27.2028 31.0349 27.2022C30.8161 27.2022 30.604 27.2403 30.351 27.2403C30.0979 27.2403 30.0227 27.1832 29.8654 27.1769C29.7081 27.1705 29.5166 27.2593 29.3593 27.1769C29.2115 27.1235 29.0514 27.1061 28.8942 27.1262C28.8053 27.1262 28.7027 27.0628 28.6412 27.2403C28.6412 27.2403 28.6001 27.2403 28.5865 27.2403C28.3197 27.0311 28.1009 27.3416 27.8479 27.3036C27.5828 27.2814 27.3157 27.2942 27.0545 27.3416C26.9861 27.3416 26.9109 27.3036 26.8562 27.4304C26.8478 27.4386 26.8378 27.4452 26.8266 27.4497C26.8154 27.4542 26.8033 27.4565 26.7912 27.4565C26.779 27.4565 26.7669 27.4542 26.7558 27.4497C26.7446 27.4452 26.7345 27.4386 26.7262 27.4304C26.5142 27.272 26.3227 27.386 26.1175 27.3733C25.9123 27.3606 25.6661 27.443 25.4336 27.329C25.4057 27.3116 25.374 27.3002 25.3408 27.2957C25.3076 27.2911 25.2737 27.2935 25.2416 27.3026C25.2095 27.3117 25.18 27.3273 25.1552 27.3483C25.1304 27.3693 25.1111 27.3952 25.0985 27.424C25.0506 27.5001 24.9343 27.424 24.8523 27.4557C24.7702 27.4874 24.7223 27.5508 24.6539 27.5571C24.5855 27.5634 24.5376 27.5001 24.4761 27.4747C24.4678 27.4703 24.4583 27.4679 24.4487 27.4679C24.4391 27.4679 24.4297 27.4703 24.4214 27.4747C24.0999 27.6711 23.7374 27.4747 23.4228 27.5191C23.0893 27.5769 22.7498 27.6003 22.4106 27.5888C22.294 27.5919 22.1792 27.5604 22.0833 27.4989C21.9873 27.4373 21.9151 27.3489 21.8772 27.2466C21.843 27.1882 21.8252 27.1229 21.8252 27.0565C21.8252 26.9901 21.843 26.9248 21.8772 26.8664C21.9163 26.7986 21.979 26.7451 22.055 26.7143L22.3628 26.6066C22.5748 26.5369 22.78 26.3785 23.0057 26.4418C23.074 26.4418 23.1493 26.3785 23.2177 26.5115C23.2252 26.5178 23.2349 26.5212 23.245 26.5212C23.2551 26.5212 23.2649 26.5178 23.2724 26.5115C23.5528 26.2834 23.8674 26.4038 24.1683 26.3721C24.4693 26.3405 24.6608 26.1567 24.9275 26.2137C24.9718 26.1456 25.042 26.0955 25.1244 26.0732C25.2067 26.0509 25.2951 26.0581 25.372 26.0933C25.8791 26.1726 26.397 26.1726 26.904 26.0933C27.4238 26.0933 27.9367 26.03 28.4565 26.0046C28.5454 26.0046 28.6138 25.9032 28.7164 25.9666C28.819 26.03 28.9421 25.9666 29.0515 25.9666C29.1554 25.9478 29.2623 25.9478 29.3661 25.9666C29.7671 26.049 30.1826 26.049 30.5835 25.9666C30.9889 25.9712 31.3938 25.9436 31.7941 25.8842C31.9167 25.8614 32.0378 25.8318 32.1566 25.7955H32.2523C32.2978 25.7915 32.3436 25.7915 32.3891 25.7955C32.478 25.7955 32.519 25.6751 32.6558 25.7955C32.7926 25.9159 32.7242 25.6941 32.7721 25.6624C32.8199 25.6308 33.0046 25.5547 33.114 25.4913C33.2616 25.4058 33.3913 25.2963 33.497 25.1682C33.5376 25.0864 33.5608 24.9982 33.5654 24.9084C33.5829 24.8455 33.6057 24.7841 33.6338 24.7246C33.6338 24.6612 33.7227 24.6169 33.7159 24.5599C33.7091 24.5028 33.5928 24.5028 33.5723 24.3888C33.5558 24.3398 33.525 24.2959 33.4834 24.2621C33.4496 24.2421 33.4127 24.2271 33.3739 24.2177C33.3154 24.2052 33.2546 24.2052 33.1961 24.2177C33.1292 24.2472 33.0725 24.2933 33.032 24.3508C32.9909 24.4141 32.9909 24.4902 33.032 24.4902C33.073 24.4902 32.8952 24.5409 32.9226 24.4902C32.9499 24.4395 32.9226 24.4902 32.9636 24.4902C33.0188 24.6673 33.0464 24.8508 33.0457 25.0351C33.0429 25.0474 33.0371 25.0589 33.0288 25.0688C33.0205 25.0786 33.0099 25.0866 32.9978 25.0921C32.8606 25.1707 32.7006 25.2083 32.5396 25.1999C32.4279 25.1906 32.3211 25.1532 32.2307 25.0918C32.1403 25.0303 32.0698 24.9472 32.0266 24.8514C31.9543 24.6181 31.9558 24.3704 32.031 24.1379C32.1061 23.9054 32.2518 23.6977 32.4506 23.5397Z" fill="#DD4863"/>
<mask id="mask0_4374_34947" style="mask-type:alpha" maskUnits="userSpaceOnUse" x="21" y="23" width="15" height="5">
<path d="M32.4506 23.5403C32.6253 23.3994 32.8336 23.299 33.0583 23.2472C33.283 23.1955 33.5178 23.1938 33.7433 23.2425C33.9211 23.2741 34.0168 23.3945 34.2288 23.3438C34.4409 23.2932 34.3656 23.5466 34.4682 23.6227C34.6249 23.7453 34.7529 23.8962 34.8446 24.0661C34.9363 24.236 34.9898 24.4215 35.0017 24.6112C35.0363 24.9575 34.9677 25.306 34.8033 25.6187C34.6392 25.9039 34.3519 26.075 34.181 26.3221C34.01 26.5692 33.7364 26.5502 33.5381 26.6833C33.3231 26.8351 33.0627 26.9215 32.7926 26.9304H32.5054C32.4122 26.9215 32.3182 26.9215 32.2249 26.9304C32.1292 26.9304 32.0471 27.0445 31.9446 27.0445C31.842 27.0445 31.7325 26.9811 31.6641 27.1522C31.6641 27.1522 31.6094 27.1522 31.5889 27.1205C31.5697 27.0981 31.5453 27.08 31.5174 27.0675C31.4896 27.0551 31.4591 27.0486 31.4282 27.0486C31.3973 27.0486 31.3668 27.0551 31.3389 27.0675C31.3111 27.08 31.2867 27.0981 31.2675 27.1205C31.2039 27.1741 31.1209 27.2035 31.0349 27.2029C30.8161 27.2029 30.604 27.2409 30.351 27.2409C30.0979 27.2409 30.0227 27.1839 29.8654 27.1775C29.7081 27.1712 29.5166 27.2599 29.3593 27.1775C29.2115 27.1242 29.0514 27.1067 28.8942 27.1269C28.8053 27.1269 28.7027 27.0635 28.6412 27.2409C28.6412 27.2409 28.6001 27.2409 28.5865 27.2409C28.3197 27.0318 28.1009 27.3423 27.8479 27.3043C27.5828 27.2821 27.3157 27.2949 27.0545 27.3423C26.9861 27.3423 26.9109 27.3043 26.8562 27.431C26.8478 27.4393 26.8378 27.4459 26.8266 27.4504C26.8154 27.4548 26.8033 27.4572 26.7912 27.4572C26.779 27.4572 26.7669 27.4548 26.7558 27.4504C26.7446 27.4459 26.7345 27.4393 26.7262 27.431C26.5142 27.2726 26.3227 27.3867 26.1175 27.374C25.9123 27.3613 25.6661 27.4437 25.4336 27.3296C25.4057 27.3123 25.374 27.3009 25.3408 27.2963C25.3076 27.2918 25.2737 27.2941 25.2416 27.3032C25.2095 27.3123 25.18 27.3279 25.1552 27.349C25.1304 27.37 25.1111 27.3959 25.0985 27.4247C25.0506 27.5007 24.9343 27.4247 24.8523 27.4564C24.7702 27.488 24.7223 27.5514 24.6539 27.5578C24.5855 27.5641 24.5376 27.5007 24.4761 27.4754C24.4678 27.4709 24.4583 27.4686 24.4487 27.4686C24.4391 27.4686 24.4297 27.4709 24.4214 27.4754C24.0999 27.6718 23.7374 27.4754 23.4228 27.5197C23.0893 27.5776 22.7498 27.601 22.4106 27.5895C22.294 27.5926 22.1792 27.5611 22.0833 27.4995C21.9873 27.438 21.9151 27.3496 21.8772 27.2473C21.843 27.1889 21.8252 27.1235 21.8252 27.0571C21.8252 26.9908 21.843 26.9254 21.8772 26.8671C21.9163 26.7993 21.979 26.7457 22.055 26.715L22.3628 26.6072C22.5748 26.5375 22.78 26.3791 23.0057 26.4425C23.074 26.4425 23.1493 26.3791 23.2177 26.5122C23.2252 26.5184 23.2349 26.5219 23.245 26.5219C23.2551 26.5219 23.2649 26.5184 23.2724 26.5122C23.5528 26.2841 23.8674 26.4045 24.1683 26.3728C24.4693 26.3411 24.6608 26.1573 24.9275 26.2144C24.9718 26.1463 25.042 26.0961 25.1244 26.0738C25.2067 26.0515 25.2951 26.0587 25.372 26.094C25.8791 26.1733 26.397 26.1733 26.904 26.094C27.4238 26.094 27.9367 26.0306 28.4565 26.0053C28.5454 26.0053 28.6138 25.9039 28.7164 25.9672C28.819 26.0306 28.9421 25.9672 29.0515 25.9672C29.1554 25.9484 29.2623 25.9484 29.3661 25.9672C29.7671 26.0496 30.1826 26.0496 30.5835 25.9672C30.9889 25.9718 31.3938 25.9443 31.7941 25.8849C31.9167 25.862 32.0378 25.8324 32.1566 25.7962H32.2523C32.2978 25.7922 32.3436 25.7922 32.3891 25.7962C32.478 25.7962 32.519 25.6758 32.6558 25.7962C32.7926 25.9165 32.7242 25.6948 32.7721 25.6631C32.8199 25.6314 33.0046 25.5553 33.114 25.492C33.2616 25.4064 33.3913 25.297 33.497 25.1688C33.5376 25.0871 33.5608 24.9989 33.5654 24.909C33.5829 24.8462 33.6057 24.7847 33.6338 24.7252C33.6338 24.6619 33.7227 24.6175 33.7159 24.5605C33.7091 24.5035 33.5928 24.5035 33.5723 24.3894C33.5558 24.3404 33.525 24.2965 33.4834 24.2627C33.4496 24.2427 33.4127 24.2277 33.3739 24.2183C33.3154 24.2058 33.2546 24.2058 33.1961 24.2183C33.1292 24.2479 33.0725 24.2939 33.032 24.3514C32.9909 24.4147 32.9909 24.4908 33.032 24.4908C33.073 24.4908 32.8952 24.5415 32.9226 24.4908C32.9499 24.4401 32.9226 24.4908 32.9636 24.4908C33.0188 24.6679 33.0464 24.8514 33.0457 25.0357C33.0429 25.048 33.0371 25.0595 33.0288 25.0694C33.0205 25.0793 33.0099 25.0873 32.9978 25.0928C32.8606 25.1714 32.7006 25.209 32.5396 25.2005C32.4279 25.1912 32.3211 25.1538 32.2307 25.0924C32.1403 25.031 32.0698 24.9478 32.0266 24.852C31.9543 24.6187 31.9558 24.371 32.031 24.1385C32.1061 23.906 32.2518 23.6983 32.4506 23.5403Z" fill="#DD4863"/>
</mask>
<g mask="url(#mask0_4374_34947)">
<rect x="26.0254" y="22.5787" width="4.20142" height="6.68265" fill="#04C088"/>
<rect x="21.8252" y="22.5787" width="4.20142" height="6.68265" fill="#FFB800"/>
</g>
</svg>
