<svg width="20" height="20" viewBox="0 0 20 20" fill="none" xmlns="http://www.w3.org/2000/svg">
<path d="M16.8556 9.30389C15.7175 6.68945 13.0265 5 9.99999 5C6.97357 5 4.28256 6.68945 3.14444 9.30389C2.95185 9.74609 2.95185 10.2534 3.14444 10.6961C4.28256 13.3105 6.97357 15 9.99999 15C13.0265 15 15.7175 13.3105 16.8556 10.6961C17.0481 10.2539 17.0481 9.74609 16.8556 9.30389V9.30389ZM9.99999 12.2223C8.71318 12.2223 7.6666 11.2256 7.6666 10C7.6666 8.77452 8.71318 7.77781 9.99999 7.77781C11.2869 7.77781 12.3335 8.77452 12.3335 10C12.3335 11.2256 11.2869 12.2223 9.99999 12.2223Z" fill="#868E96"/>
</svg>
