<svg width="44" height="45" viewBox="0 0 44 45" fill="none" xmlns="http://www.w3.org/2000/svg">
<path d="M13.2 1.27539H30.8C37.676 1.27539 43.25 6.84944 43.25 13.7254V31.3254C43.25 38.2013 37.676 43.7754 30.8 43.7754H13.2C6.32407 43.7754 0.75 38.2013 0.75 31.3254V13.7254C0.75 6.84945 6.32407 1.27539 13.2 1.27539Z" fill="#EDE6FF" stroke="#D9C9FF" stroke-width="1.5"/>
<path d="M13.6307 28.8697L17.7812 29.1825L14.0364 22.6396L10.8157 23.0792C10.6607 23.1008 10.5135 23.1612 10.388 23.2548C10.2625 23.3484 10.1626 23.4722 10.0977 23.6147C10.0328 23.7571 10.0049 23.9137 10.0167 24.0699C10.0284 24.226 10.0793 24.3766 10.1648 24.5078L12.5655 28.2357C12.6832 28.4155 12.8402 28.566 13.0248 28.6759C13.2094 28.7858 13.4166 28.852 13.6307 28.8697Z" fill="#6A36FF"/>
<path d="M11.5848 27.9659C11.3904 27.6531 11.2044 27.3403 10.9847 27.0445C10.9001 26.9346 10.9584 26.7283 10.7217 26.7198C10.6456 26.5703 10.6719 26.5119 10.5958 26.4105C10.3929 26.14 10.2323 25.8357 10.0294 25.5652C9.92906 25.4328 9.82183 25.3059 9.7082 25.1847L9.53915 24.9903C9.45013 24.8688 9.37367 24.7385 9.31091 24.6015C9.23109 24.3173 9.21316 24.0193 9.25837 23.7277C9.30357 23.436 9.41087 23.1575 9.57297 22.9108C9.82656 22.4374 10.4183 22.3698 10.8071 22.2937C11.0762 22.1905 11.3666 22.1556 11.6525 22.1923C11.8494 22.2428 12.0558 22.2428 12.2526 22.1923C12.371 22.1923 12.4724 22.0232 12.6077 22.0148C12.743 22.0063 12.8866 22.0824 12.9627 21.8457C12.9627 21.8457 13.0303 21.8457 13.0642 21.8457C13.0953 21.8728 13.1315 21.8935 13.1707 21.9066C13.2099 21.9196 13.2512 21.9248 13.2924 21.9218C13.4116 21.904 13.5263 21.8638 13.6305 21.8034C13.8195 21.7042 14.0265 21.6438 14.2392 21.6259L14.5773 21.5752C14.7971 21.9471 15.0338 22.3613 15.2198 22.7248C15.3128 22.9108 15.3381 23.1391 15.4226 23.325C15.5072 23.511 15.7185 23.6801 15.727 23.9083C15.7386 24.1153 15.8089 24.3147 15.9298 24.4831C15.989 24.5761 15.9298 24.7452 16.2088 24.7114C16.215 24.72 16.2183 24.7303 16.2183 24.741C16.2183 24.7516 16.215 24.7619 16.2088 24.7705C16.1073 25.2017 16.6061 25.2777 16.7076 25.6159C16.8342 25.9333 16.9988 26.2342 17.1978 26.5119C17.2486 26.588 17.2401 26.7063 17.4261 26.6979C17.612 26.6894 17.5444 26.774 17.5275 26.8332C17.5106 26.9054 17.5106 26.9807 17.5275 27.0529C17.5501 27.1376 17.5873 27.2177 17.6374 27.2896C17.7557 27.4925 17.8995 27.6954 18.0009 27.9067C18.2038 28.3547 18.6349 28.9042 18.6349 29.2423C18.6349 29.3861 18.6772 29.5551 19.1928 30.0285L19.2773 30.113C19.2097 30.1553 18.8716 30.0539 18.7363 30.0623C18.6011 30.0708 18.5673 30.1722 18.3982 30.1638C18.2053 30.1223 18.0159 30.0658 17.8318 29.9947C17.7882 29.9785 17.7402 29.9785 17.6966 29.9947C17.3093 30.0778 16.9088 30.0778 16.5216 29.9947L15.9129 29.8848C15.8036 29.8689 15.6926 29.8689 15.5833 29.8848C15.1416 29.9001 14.6996 29.869 14.2645 29.7918C14.1174 29.7782 13.9786 29.7173 13.8689 29.6182C13.7592 29.5192 13.6845 29.3874 13.6559 29.2423C13.6217 29.1598 13.6092 29.0698 13.6196 28.981C13.6299 28.8923 13.6628 28.8076 13.7151 28.7351C13.7877 28.6586 13.8775 28.6007 13.9771 28.5661L14.3998 28.4815C14.6788 28.4308 14.9746 28.2618 15.2451 28.3886C15.3297 28.3886 15.448 28.3209 15.5072 28.5153C15.5072 28.5153 15.5494 28.5576 15.5664 28.5153C16.0905 28.2702 16.0735 28.4562 16.2426 28.4477C16.4117 28.4393 16.1243 28.1941 16.3103 28.304L16.1919 28.2195C15.9298 28.0504 16.0144 28.118 16.0989 28.1434C16.1835 28.1688 16.2426 28.1434 16.2088 28.0758C16.0663 27.8772 15.9391 27.6681 15.8284 27.4502C15.5241 26.85 15.1606 26.2837 14.8394 25.7004C14.7802 25.599 14.6196 25.5736 14.6449 25.413C14.6703 25.2524 14.5181 25.1509 14.4421 25.0241C14.366 24.8973 14.2645 24.8128 14.2561 24.6691C14.2174 24.4027 14.1254 24.1468 13.9856 23.9168L13.7743 23.5786C13.7458 23.546 13.7229 23.5089 13.7066 23.4687L13.7066 23.3842C13.6362 23.38 13.5657 23.38 13.4953 23.3842C13.2789 23.4142 13.0644 23.4566 12.8528 23.511C12.5546 23.6303 12.242 23.7099 11.923 23.7477C11.7793 23.7477 11.6525 23.8914 11.4919 23.697C11.4919 23.6463 11.3397 23.8238 11.2552 23.8407L11.0946 23.8407L10.9931 23.8407C10.9931 23.8407 10.9931 23.8407 10.9424 23.8407C10.8917 23.8407 10.841 23.9168 10.8579 23.9759C10.8748 24.0351 10.9593 24.1366 10.9847 24.0943L11.0777 24.0943L11.2213 24.3479C11.3312 24.5677 11.3989 24.8128 11.5172 25.0326C11.6356 25.2524 11.8638 25.4299 11.9145 25.6919C12.0533 26.1306 12.271 26.5403 12.557 26.9008L12.9036 27.4756L13.0895 27.763C13.128 27.8119 13.1736 27.8546 13.2248 27.8898C13.3262 27.9574 13.7678 28.8353 13.9368 28.8861C14.018 29.1192 13.9 28.7361 13.8689 28.981C13.8655 28.9985 14.1197 29.1721 14.1095 29.1867C14.0993 29.2013 14.5002 29.6003 14.0212 29.3551C13.8606 29.4564 14.4545 29.7918 14.2645 29.7918C14.0745 29.7918 12.6247 29.1408 12.464 29.0395C12.3458 28.9382 12.2356 28.828 12.1343 28.7098L11.9991 28.5238L11.9145 28.3886L11.5848 27.9659Z" fill="#1F2227"/>
<path d="M28.3985 14.103L28.7197 18.262L22.9292 15.2357L22.87 11.5839C22.8672 11.4152 22.9104 11.2489 22.995 11.1028C23.0795 10.9567 23.2021 10.8364 23.3498 10.7548C23.4975 10.6731 23.6646 10.6332 23.8332 10.6393C24.0019 10.6453 24.1657 10.6972 24.3071 10.7893L27.7983 13.0378C27.9745 13.1563 28.1205 13.3143 28.2247 13.4992C28.3289 13.6842 28.3885 13.8909 28.3985 14.103Z" fill="#6A36FF"/>
<path d="M26.8088 13.1967C26.513 13.0107 26.2255 12.7994 25.9128 12.6303C25.7944 12.5627 25.7353 12.4106 25.5155 12.5035C25.2957 12.5965 25.4225 12.2838 25.3126 12.2246C25.0252 12.0724 24.7631 11.8611 24.4673 11.7005C24.3236 11.6244 24.1798 11.5568 24.0277 11.4892L23.9178 11.4384L23.8671 11.4384C23.8671 11.4384 23.7149 11.3708 23.7487 11.5061C23.7825 11.6413 23.6388 11.5061 23.6727 11.5906L23.6727 11.692L23.6727 11.8949C23.6777 12.032 23.6605 12.169 23.6219 12.3007C23.5425 12.4812 23.5105 12.6791 23.5289 12.8755C23.5289 12.9938 23.6726 13.1037 23.6642 13.239C23.6557 13.3742 23.5628 13.501 23.791 13.6025C23.791 13.6025 23.791 13.6616 23.7403 13.687C23.7115 13.7124 23.6884 13.7436 23.6727 13.7786C23.6569 13.8136 23.6487 13.8515 23.6487 13.8899C23.6487 13.9283 23.6569 13.9662 23.6727 14.0012C23.6884 14.0362 23.7115 14.0674 23.7403 14.0928C23.7757 14.1328 23.8023 14.1798 23.8183 14.2308C23.8343 14.2818 23.8394 14.3356 23.8333 14.3886L23.8333 14.6C23.8333 14.6 23.7234 14.6507 23.8333 14.7437C23.9432 14.8367 24.2644 14.8789 24.3827 15.0649C24.5025 15.2234 24.6632 15.3462 24.8477 15.4199C24.9491 15.4707 25.0083 15.6228 25.1942 15.4622C25.1942 15.4622 25.245 15.4622 25.2534 15.4622C25.3971 15.8764 25.8452 15.6651 26.0988 15.8764C26.359 16.0698 26.6432 16.2289 26.9441 16.3498C27.0202 16.3498 27.0709 16.4851 27.223 16.3498C27.2366 16.3412 27.2518 16.3356 27.2678 16.3335C27.2837 16.3314 27.2999 16.3329 27.3152 16.3377C27.3305 16.3425 27.3445 16.3507 27.3564 16.3615C27.3682 16.3724 27.3775 16.3857 27.3836 16.4005C27.408 16.469 27.4453 16.5321 27.4935 16.5865C27.4935 16.5865 27.4935 16.5865 27.4935 16.6288C27.4935 16.671 27.4935 16.6288 27.5443 16.6288C27.595 16.6288 27.5443 16.5696 27.7641 16.8739C27.8317 16.9754 27.9162 17.0599 27.8486 16.9246L27.7302 16.7302C27.6203 16.5696 27.7302 16.7302 27.7302 16.6457C27.6883 16.5896 27.6431 16.536 27.595 16.4851C27.6369 16.5204 27.6822 16.5515 27.7302 16.578C27.595 16.4597 27.6204 16.4935 27.6626 16.4681L27.6626 16.3245C27.6794 16.218 27.6794 16.1096 27.6626 16.0032C27.5821 15.5856 27.5481 15.1603 27.5612 14.7352C27.5517 14.5901 27.5906 14.4459 27.6716 14.3251C27.7526 14.2043 27.8713 14.1137 28.0092 14.0674C28.0866 14.0237 28.1739 14.0007 28.2628 14.0007C28.3517 14.0007 28.439 14.0237 28.5164 14.0674C28.6053 14.1203 28.6783 14.1963 28.7277 14.2872L28.8714 14.676C28.9644 14.9381 29.1757 15.1917 29.0997 15.4791C29.0997 15.5721 29.1842 15.6651 29.0067 15.7496C29.0014 15.7535 28.9972 15.7587 28.9943 15.7645C28.9913 15.7704 28.9898 15.7769 28.9898 15.7834C28.9898 15.79 28.9913 15.7965 28.9943 15.8023C28.9972 15.8082 29.0014 15.8133 29.0067 15.8173C29.1395 15.9726 29.2116 16.1708 29.2096 16.3752C29.2096 16.7049 29.2096 17.0092 29.2096 17.3304C29.3583 17.9292 29.4517 18.5404 29.4885 19.1563C29.5794 19.3595 29.6474 19.5721 29.6914 19.7903C29.4498 19.6964 29.2245 19.5652 29.0236 19.4014C28.5052 19.0176 27.9536 18.681 27.3752 18.3955L26.6398 18.032C26.4961 17.9644 26.3524 17.8968 26.2086 17.8207C25.6507 17.491 25.059 17.2205 24.518 16.9077C24.4165 16.857 24.2728 16.9077 24.2052 16.7725C24.1376 16.6372 23.9685 16.6288 23.8417 16.5611C23.7149 16.4935 23.5797 16.4851 23.5036 16.3752C23.3758 16.2194 23.2212 16.0877 23.0471 15.9863C22.7682 15.8341 22.4638 15.6904 22.1595 15.5467C22.1595 15.3439 22.1595 15.1494 22.1595 14.9466L22.1595 14.1266C22.1597 13.8749 22.1428 13.6236 22.1088 13.3742C22.0252 13.0713 21.9825 12.7586 21.982 12.4444C21.982 12.3091 21.8721 12.1739 22.0834 12.0386C22.1511 12.0386 21.982 11.878 21.9735 11.7935C21.9527 11.6364 21.9527 11.4772 21.9735 11.3201C21.9979 11.1275 22.0581 10.9411 22.151 10.7706C22.2764 10.5382 22.451 10.3361 22.6628 10.1783C22.8745 10.0206 23.1182 9.91116 23.3768 9.85765C23.7005 9.7688 24.0421 9.7688 24.3658 9.85765C24.4533 9.88708 24.5381 9.92385 24.6194 9.96755C24.704 9.96755 24.7885 10.0605 24.8139 10.0774L25.0421 10.2465C25.2281 10.3987 25.3887 10.5931 25.5747 10.7368C25.7606 10.8805 26.0396 10.9481 26.1833 11.1595C26.4784 11.5027 26.8336 11.7891 27.2315 12.0048L27.7725 12.3767L28.0599 12.5543C28.1955 12.6379 28.3228 12.7341 28.4403 12.8417C28.6484 13.1216 28.88 14.3953 28.8979 14.7437C28.9401 14.9212 28.3135 14.2027 28.1275 14.1604C28.097 14.1676 27.8792 14.8808 27.8486 14.8736C27.6542 14.6876 27.5527 13.9744 27.4935 13.8645C27.4315 13.7615 27.3403 13.6791 27.2315 13.6278L26.8088 13.1967Z" fill="#1F2227"/>
<path d="M29.2593 18.7921C35.6246 24.3459 35.3964 31.9877 35.1005 34.5829C35.076 34.8481 34.9595 35.0965 34.7711 35.2848C34.5828 35.4732 34.3345 35.5897 34.0692 35.6142C31.4825 35.9101 23.8407 36.1299 18.2785 29.7645C14.7365 25.7069 14.1617 22.0889 14.0518 20.7702C14.043 20.6021 14.071 20.4341 14.1338 20.2779C14.1965 20.1216 14.2926 19.981 14.4153 19.8657L16.9006 17.4227L19.352 14.9712C19.4695 14.8486 19.6116 14.752 19.7689 14.688C19.9262 14.6239 20.0952 14.5937 20.265 14.5993C21.5837 14.6754 25.2017 15.2417 29.2593 18.7921Z" fill="#EBEFF9"/>
<path d="M23.9694 16.2246C23.04 15.8202 22.0628 15.5362 21.0615 15.3793C20.8755 15.3793 20.698 15.3032 20.5036 15.2863C20.4108 15.2778 20.3174 15.2778 20.2246 15.2863C20.2038 15.2958 20.1854 15.3098 20.1708 15.3274C20.1561 15.3449 20.1457 15.3656 20.1401 15.3877C20.1401 15.4469 20.0809 15.3877 19.9964 15.3877C19.9516 15.38 19.9059 15.38 19.8611 15.3877C19.7874 15.4364 19.7194 15.4931 19.6582 15.5568L17.5534 17.6786L15.5922 19.8173C15.4316 19.9948 15.2541 20.1638 15.0765 20.3245C14.9909 20.3907 14.9239 20.4781 14.8821 20.5781L14.8821 20.671L14.8821 20.9838C14.908 21.1995 14.9562 21.412 15.0258 21.6178C15.2541 22.3279 15.2625 23.0295 15.5499 23.6973C15.8373 24.3652 16.2093 25.109 16.4883 25.8191C16.6811 26.3417 16.9426 26.8364 17.2659 27.29C17.4857 27.5605 17.7562 27.7634 17.9845 28.0592C18.2127 28.3551 18.3649 28.7186 18.7368 28.8031C18.7914 28.8748 18.8343 28.9547 18.8636 29.0398C19.0099 29.3996 19.2755 29.6982 19.616 29.8851C19.8564 30.0427 20.0827 30.2209 20.2922 30.4177C20.5881 30.6629 20.8671 30.9334 21.1798 31.1616L22.1012 31.8548C22.5915 32.1591 23.0142 32.5817 23.5299 32.8438C24.0455 33.1059 24.6964 33.3172 25.1698 33.6384C25.6528 33.9201 26.1738 34.1308 26.7168 34.264C27.0211 34.3401 27.3508 34.5598 27.6635 34.3823C27.7241 34.3635 27.7889 34.3635 27.8495 34.3823C28.6948 34.8895 29.6332 34.6021 30.5208 34.7543C31.4728 34.8642 32.4343 34.8642 33.3864 34.7543C33.5132 34.7543 33.64 34.7543 33.7668 34.7543C33.8287 34.7591 33.8909 34.7591 33.9528 34.7543C33.9528 34.7543 33.9528 34.7035 33.995 34.6613C34.0373 34.619 33.995 34.5767 34.0711 34.5936C34.0944 34.6108 34.1225 34.6201 34.1514 34.6201C34.1803 34.6201 34.2085 34.6108 34.2317 34.5936C34.254 34.5703 34.2687 34.5409 34.274 34.5091L34.274 34.2809C34.274 33.9174 34.274 33.5539 34.3332 33.1904C34.4177 32.3451 34.2825 31.542 34.3839 30.6967C34.4615 30.268 34.3707 29.8258 34.1303 29.4625C34.012 29.285 34.0458 28.8707 33.9528 28.6171C33.8598 28.3635 33.7499 28.1607 33.6738 27.924C33.6564 27.713 33.6564 27.501 33.6738 27.29C33.6671 27.223 33.65 27.1574 33.6231 27.0956C33.0398 26.0304 32.8877 24.8132 32.2452 23.7734C31.6102 22.7379 30.8981 21.7517 30.115 20.8232C29.6381 20.3652 29.306 19.7774 29.1598 19.1325C29.1598 18.8451 29.2527 18.693 29.5571 18.8113C29.7915 18.9074 30.013 19.0323 30.2164 19.1833C30.5452 19.4284 30.8559 19.6968 31.1463 19.9863C31.8194 20.5204 32.3919 21.1702 32.8369 21.9052C32.9553 22.1504 33.2174 22.3702 33.1835 22.6491C33.1864 22.7181 33.2133 22.7839 33.2596 22.8351C33.9995 23.7722 34.5325 24.8555 34.8235 26.0135C35.2352 26.9314 35.5196 27.9013 35.6688 28.8961C35.9545 29.4385 36.075 30.0527 36.0154 30.6629C36.0154 31.6688 36.0154 32.6663 35.9224 33.6722L35.8801 34.4246C35.8711 34.7782 35.7815 35.1252 35.6181 35.439C35.4211 35.8091 35.1098 36.1056 34.7305 36.2843C34.5457 36.3698 34.3491 36.4269 34.1472 36.4534L33.7584 36.4534C31.7282 36.6202 29.6846 36.4978 27.6889 36.0899C27.3353 36.0816 26.986 36.0101 26.6576 35.8785C26.2482 35.7149 25.8272 35.5821 25.3981 35.4812C25.0023 35.3782 24.6194 35.2308 24.2568 35.0417C22.8362 34.2964 21.4716 33.4488 20.1739 32.5057C18.9623 31.4859 17.85 30.3537 16.8517 29.1244C16.1929 28.4111 15.625 27.6189 15.1611 26.7659C14.8953 26.4261 14.7285 26.0195 14.6792 25.5909C14.6792 25.4556 14.3665 25.1767 14.265 24.9231C13.9928 24.3035 13.775 23.6615 13.6141 23.0042C13.4952 22.5448 13.4021 22.0791 13.3352 21.6094C13.294 21.3716 13.2658 21.1317 13.2506 20.8908C13.2263 20.717 13.2263 20.5406 13.2506 20.3667C13.2761 20.1782 13.3333 19.9953 13.4197 19.8257C13.516 19.6298 13.6382 19.4479 13.7832 19.2847L14.0537 18.9635C14.2228 18.7522 14.3918 18.5408 14.5778 18.3464C14.9582 17.9322 15.364 17.5011 15.7866 17.1376C16.2093 16.7741 16.8687 16.1992 17.3928 15.7005C17.6633 15.4469 17.9169 15.1679 18.1789 14.8552C18.3142 14.7199 18.441 14.5847 18.5762 14.4579C18.7527 14.2816 18.9551 14.1333 19.1764 14.0183C19.4256 13.8996 19.6955 13.8307 19.971 13.8154C20.184 13.818 20.3963 13.8406 20.605 13.883C20.9601 13.9338 21.3066 14.0014 21.6448 14.069C22.3271 14.1982 22.9973 14.3849 23.6482 14.6269C24.9249 15.1209 26.1531 15.7321 27.3169 16.4529C27.9106 16.8983 28.4753 17.3811 29.0076 17.8984C29.2781 18.1266 30.9545 19.8492 30.7263 19.8999C30.674 19.9161 29.7871 20.1866 29.7348 20.1703C29.0583 19.678 27.5732 18.2701 26.9535 17.8899C26.024 17.2253 25.0231 16.6667 23.9694 16.2246Z" fill="#1F2227"/>
<path d="M35.3291 32.64L34.7374 28.7346C34.73 28.7012 34.714 28.6704 34.691 28.6452C34.6679 28.62 34.6386 28.6013 34.6061 28.5911C34.5735 28.5808 34.5388 28.5792 34.5054 28.5866C34.4721 28.594 34.4413 28.6101 34.4161 28.6331L27.8141 35.1084C27.7874 35.1306 27.7678 35.1602 27.7578 35.1934C27.7477 35.2266 27.7476 35.2621 27.7575 35.2954C27.7674 35.3287 27.7868 35.3583 27.8134 35.3807C27.84 35.403 27.8726 35.4171 27.9071 35.4211L30.1641 35.8945L32.2859 35.8945C32.3054 35.8992 32.3256 35.8992 32.3451 35.8945L34.5767 35.2521C34.6088 35.2443 34.6378 35.2274 34.6603 35.2034C34.6829 35.1793 34.6979 35.1493 34.7035 35.1168L35.3291 32.7245L35.3291 32.64Z" fill="#6A36FF"/>
<path d="M34.6365 27.7959C35.1859 29.6303 35.541 34.4318 34.7464 35.3194C34.0701 36.0717 28.3134 35.573 27.1384 35.1334" stroke="#1F2227" stroke-width="1.5" stroke-linecap="round" stroke-linejoin="round"/>
<path d="M23.3599 20.9949C23.3537 20.884 23.3511 20.8215 23.3267 20.7288C23.3023 20.6362 23.078 20.4051 23.078 20.4051C23.0772 20.3736 23.0678 20.3425 23.0507 20.3153L22.9856 20.2503C22.7974 20.1356 22.5792 20.0842 22.3644 20.104C22.2194 20.1294 22.082 20.183 21.9595 20.2616C21.8197 20.3503 21.6744 20.4304 21.5245 20.5016C21.4435 20.557 21.3736 20.6268 21.3182 20.7078C21.2645 20.7745 21.2037 20.8353 21.137 20.889L20.762 21.264C20.6988 21.34 20.6509 21.4277 20.6205 21.5226C20.5903 21.6048 20.6791 21.5811 20.6619 21.6764C20.6242 21.7713 20.5921 21.8686 20.5657 21.9677C20.5424 22.0305 20.5287 22.0969 20.525 22.1645C20.5578 22.2098 20.6515 22.116 20.6015 22.166C20.42 22.3345 20.5518 22.2288 20.5096 22.3491C20.4674 22.4693 20.5504 22.4774 20.5959 22.5229C20.6345 22.5987 20.6639 22.6785 20.6836 22.7605C20.7115 22.8013 20.7469 22.8367 20.7876 22.8646C20.9247 23.0267 21.1416 23.0311 21.1746 23.0891C21.2076 23.1471 21.2319 23.0839 21.2702 23.0846C21.3084 23.0854 21.4224 23.0494 21.3849 23.0869L21.4599 23.0119C21.6898 22.9269 21.9062 22.8111 22.1033 22.6678C22.3428 22.5323 22.5177 22.343 22.7815 22.0793C23.0453 21.8155 23.2655 21.3885 23.2655 21.3885C23.3145 21.2875 23.3661 21.1058 23.3599 20.9949Z" fill="#1F2227"/>
<path d="M28.6324 26.1042C28.6262 25.9934 28.6236 25.9309 28.5992 25.8382C28.5748 25.7455 28.3505 25.5145 28.3505 25.5145C28.3497 25.483 28.3402 25.4519 28.3232 25.4247L28.2581 25.3597C28.0698 25.245 27.8516 25.1936 27.6368 25.2134C27.4919 25.2388 27.3544 25.2923 27.232 25.371C27.0922 25.4596 26.9469 25.5398 26.7969 25.6109C26.7159 25.6663 26.6461 25.7362 26.5907 25.8172C26.5369 25.8839 26.4762 25.9446 26.4095 25.9984L26.0345 26.3734C25.9713 26.4494 25.9233 26.5371 25.893 26.6319C25.8628 26.7142 25.9516 26.6905 25.9343 26.7858C25.8966 26.8807 25.8645 26.978 25.8382 27.0771C25.8148 27.1399 25.8011 27.2062 25.7975 27.2739C25.8303 27.3192 25.924 27.2254 25.874 27.2754C25.6925 27.4439 25.8243 27.3382 25.782 27.4584C25.7398 27.5787 25.8229 27.5867 25.8684 27.6323C25.907 27.708 25.9364 27.7878 25.956 27.8699C25.984 27.9107 26.0193 27.946 26.0601 27.974C26.1972 28.1361 26.414 28.1404 26.4471 28.1985C26.4801 28.2565 26.5044 28.1932 26.5426 28.194C26.5809 28.1948 26.6949 28.1588 26.6574 28.1963L26.7324 28.1213C26.9623 28.0362 27.1786 27.9205 27.3758 27.7772C27.6153 27.6417 27.7902 27.4524 28.054 27.1886C28.3178 26.9248 28.538 26.4979 28.538 26.4979C28.587 26.3969 28.6386 26.2151 28.6324 26.1042Z" fill="#1F2227"/>
<path d="M22.8905 27.0947C22.9788 27.02 23.0607 26.9381 23.1354 26.8498C23.1695 26.8158 23.1695 26.843 23.219 26.8386C23.2058 26.7296 23.2443 26.7681 23.2443 26.7409C23.2443 26.7137 23.3396 26.6456 23.3804 26.6048C23.4212 26.564 23.4331 26.4693 23.4263 26.408C23.4195 26.3468 23.5143 26.276 23.4122 26.2148C23.3934 26.1006 23.4967 26.1359 23.4559 26.0815C23.415 26.027 23.4344 26.0736 23.4329 25.9496C23.4524 25.862 23.4552 25.8495 23.4144 25.8223C23.3736 25.7951 23.4458 25.7909 23.3523 25.7602C23.3273 25.699 23.3328 25.7407 23.2888 25.7375L23.256 25.664C23.3513 25.5687 23.3167 25.6449 23.2268 25.6347C23.108 25.5887 23.1808 25.6295 23.1399 25.5887L23.0815 25.5302C23.0815 25.5302 22.9926 25.5365 22.9789 25.4957C22.9653 25.4549 22.8989 25.4967 22.9193 25.3947C22.9397 25.2926 22.8701 25.2916 22.836 25.2848C22.802 25.278 22.9246 25.2458 22.7604 25.2772C22.6419 25.1723 22.6581 25.2837 22.5445 25.2644C22.4607 25.2632 22.4629 25.2859 22.4085 25.2995C22.354 25.3131 22.4244 25.2835 22.3128 25.3314C22.2358 25.2863 22.2713 25.3324 22.2033 25.346C22.1352 25.3596 22.2662 25.3511 22.0792 25.3476C22.0513 25.3755 22.0257 25.3527 21.9923 25.4345C21.9923 25.4345 22.0179 25.4562 21.9771 25.497L21.9452 25.5289C21.8389 25.6831 21.6997 25.6182 21.6521 25.7611C21.5877 25.8869 21.4853 25.9893 21.3595 26.0537C21.3051 26.1081 21.1962 26.1081 20.8968 25.8768C20.7648 25.7938 20.6532 25.6821 20.5702 25.5501C20.5324 25.4982 20.5089 25.4372 20.5021 25.3732L20.5157 25.2099C20.5294 25.1011 20.4681 24.9173 20.6042 24.9173C20.7403 24.9173 20.5906 24.8221 20.7335 24.9242C20.6314 24.6588 20.8492 24.686 20.9172 24.5907C20.9853 24.4955 20.9847 24.4268 21.1883 24.2657C21.3538 24.1002 21.4084 24.051 21.5842 23.9921C21.9593 23.9374 21.9447 23.8218 22.2577 23.8082C22.5659 23.7851 22.8758 23.8104 23.1763 23.8831C23.1763 23.8831 23.2783 23.781 23.3396 23.9103C23.4008 24.0396 23.428 23.9988 23.5165 24.0056C23.6049 24.0124 23.6458 24.0123 23.673 24.094C23.7751 24.3866 24.0064 24.4274 24.1765 24.5975C24.3466 24.7676 24.4283 24.9718 24.578 25.1487C24.7277 25.3256 24.8025 25.3732 24.8229 25.5161C24.8433 25.659 24.9386 25.6318 24.7549 25.7202C24.7209 25.7543 24.8366 25.8019 24.8638 25.8291C24.8863 25.9272 24.8954 26.0279 24.891 26.1285L24.8502 26.5504C24.8502 26.632 24.8763 26.6827 24.8627 26.7779C24.8601 26.8732 24.8041 26.9413 24.749 27.019C24.6698 27.112 24.6652 27.2129 24.5722 27.2921C24.4906 27.3738 24.4949 27.4085 24.3202 27.5446C24.1299 27.6058 24.0132 27.782 23.8907 27.8772C23.7693 27.9579 23.6652 28.062 23.5845 28.1834C23.5301 28.2379 23.3736 28.1902 23.3192 28.2447C23.128 28.1402 22.9574 28.0019 22.8156 27.8364L22.7612 27.782C22.7068 27.6187 22.5911 27.3941 22.6659 27.3465C22.746 27.2673 22.821 27.1833 22.8905 27.0947Z" fill="#1F2227"/>
<path d="M28.1443 33.9394C28.0986 34.0193 28.0428 34.093 27.9915 34.1549C27.883 34.2857 27.7434 34.4246 27.6065 34.5516L28.1372 34.6843C28.357 34.4904 28.6333 34.2387 28.9245 33.9734C28.9826 33.9205 29.0413 33.867 29.1003 33.8133C29.5271 33.4249 29.9701 33.0243 30.2694 32.7803C30.7949 32.2212 31.3963 31.7385 32.056 31.3463L32.1205 31.3079L32.1934 31.2902C32.1992 31.2888 32.2044 31.2855 32.208 31.2807C32.2116 31.276 32.2135 31.2702 32.2133 31.2642L32.2051 30.9243L32.5183 30.7917C32.553 30.777 32.5874 30.7536 32.6703 30.6289C32.6825 30.6104 32.6966 30.5883 32.7126 30.5632C32.79 30.4414 32.9108 30.2513 33.0776 30.0855C33.1817 29.9821 33.2921 29.8977 33.3833 29.8302C33.4086 29.8115 33.432 29.7944 33.4539 29.7784C33.5184 29.7311 33.5703 29.6932 33.6222 29.6502C33.7455 29.5483 33.8016 29.4711 33.8276 29.3652L33.9286 28.955L34.3498 28.986L34.3504 28.986C34.3853 28.9605 34.428 28.9346 34.4785 28.9134C34.4932 28.906 34.5259 28.8827 34.5866 28.7842C34.6129 28.7415 34.6362 28.6989 34.666 28.6446C34.6751 28.6282 34.6847 28.6107 34.6951 28.5918C34.7342 28.521 34.7841 28.433 34.845 28.3469L35.0742 27.996C35.0775 27.988 35.0801 27.9798 35.0822 27.9715L35.0542 27.9617L35.0149 27.9392C34.9702 27.9137 34.9186 27.9031 34.8675 27.909C34.8164 27.9149 34.7685 27.9369 34.7308 27.9719L34.7092 27.9919L34.6854 28.0092C34.3233 28.2733 33.9905 28.5753 33.6926 28.9101C33.5044 29.1288 33.2443 29.2802 33.0782 29.3769C33.0472 29.3949 33.0195 29.4111 32.9962 29.4254C32.8114 29.5385 32.7451 29.6071 32.7113 29.6927C32.6816 29.7711 32.6357 29.8419 32.5772 29.9009L28.1443 33.9394ZM28.1443 33.9394C28.2304 33.9065 28.3095 33.8616 28.381 33.8062C28.5243 33.6954 28.6156 33.5591 28.6734 33.4649C28.7115 33.4029 28.732 33.3662 28.7484 33.337C28.7665 33.3047 28.7796 33.2813 28.8056 33.2428C28.8229 33.2171 28.8333 33.2058 28.8369 33.2022L28.8474 33.1961L28.8619 33.1862C29.1931 32.9605 29.4984 32.6989 29.772 32.4062C29.7736 32.4051 29.7753 32.4039 29.7772 32.4026C29.7781 32.4019 29.7791 32.4012 29.7803 32.4004C29.8021 32.3853 29.8635 32.3427 29.9203 32.2803C29.9745 32.2208 30.0236 32.1452 30.0551 32.0527C30.2242 31.9901 30.3528 31.8931 30.4509 31.8038C30.4985 31.7604 30.5518 31.7061 30.5891 31.6682C30.6015 31.6556 30.6121 31.6447 30.6202 31.6368C30.6643 31.5928 30.6881 31.5732 30.7045 31.5624C30.7985 31.5005 30.8798 31.4287 30.9422 31.3713C30.9715 31.3444 30.9953 31.322 31.0171 31.3015C31.0502 31.2704 31.0785 31.2438 31.1141 31.2124C31.2103 31.1279 31.275 31.0888 31.3328 31.0716C31.4323 31.0545 31.528 31.0197 31.6154 30.9687C31.7144 30.911 31.8006 30.8338 31.8688 30.7417L28.1443 33.9394ZM32.0234 30.3763C32.0659 30.3447 32.1238 30.2961 32.1766 30.2283C32.2207 30.1716 32.2529 30.1137 32.2764 30.0628C32.2789 30.0623 32.2815 30.0618 32.2841 30.0613L32.3243 30.0535L32.3627 30.0392C32.4437 30.009 32.5168 29.9617 32.5772 29.9009L32.0234 30.3763Z" stroke="#1F2227"/>
<path fill-rule="evenodd" clip-rule="evenodd" d="M14.3577 12.2018C14.3577 11.6421 14.1918 11.095 13.8808 10.6297C13.5699 10.1643 13.1279 9.80163 12.6109 9.58746C12.0938 9.37328 11.5248 9.31726 10.9759 9.42645C10.427 9.53563 9.92281 9.80514 9.52706 10.2009C9.13132 10.5966 8.86181 11.1008 8.75263 11.6497C8.64344 12.1987 8.69944 12.7676 8.91361 13.2847C9.12779 13.8017 9.49048 14.2437 9.95583 14.5546C10.4212 14.8656 10.9683 15.0315 11.528 15.0315C11.7719 15.0328 12.0147 15 12.2496 14.9342C12.3118 15.2348 12.454 15.513 12.6613 15.7394C12.8686 15.9658 13.1333 16.1319 13.4273 16.2202C13.7213 16.3085 14.0336 16.3157 14.3314 16.241C14.6291 16.1663 14.9011 16.0125 15.1186 15.7959C15.3361 15.5792 15.491 15.3079 15.5669 15.0105C15.6428 14.713 15.6368 14.4006 15.5497 14.1063C15.4626 13.8119 15.2976 13.5466 15.072 13.3384C14.8465 13.1302 14.5689 12.9868 14.2685 12.9234C14.3275 12.6874 14.3575 12.4451 14.3577 12.2018Z" fill="#EBEFF9"/>
<path d="M15.946 13.1536C16.2233 13.5691 16.3727 14.0567 16.3757 14.5563C16.3757 14.7509 16.2703 14.9049 16.3757 15.1482C16.4811 15.3914 16.173 15.3833 16.1081 15.5292C15.9089 15.9523 15.5867 16.3055 15.1838 16.5428C14.8044 16.8142 14.3528 16.9666 13.8865 16.9806C13.4195 16.9306 12.9673 16.7872 12.5568 16.559C12.3779 16.4829 12.2275 16.3524 12.127 16.186C12.0703 16.1049 12.0297 16.0238 11.9811 15.9428C11.9532 15.8843 11.9178 15.8298 11.8757 15.7806H11.8189C11.8189 15.7806 11.7622 15.7806 11.746 15.7319C11.7244 15.6971 11.6935 15.669 11.6568 15.6509H11.5838C11.5246 15.6427 11.4646 15.6427 11.4054 15.6509C11.2541 15.7018 11.0946 15.7238 10.9352 15.7157C10.7811 15.7157 10.6433 15.5455 10.4406 15.7157C10.4406 15.7157 10.3676 15.6671 10.3513 15.6265C10.3056 15.5442 10.2366 15.4772 10.153 15.4339C10.0693 15.3907 9.97474 15.3731 9.88111 15.3833C9.74206 15.3823 9.60754 15.3336 9.50001 15.2455C9.18521 15.0568 8.90988 14.809 8.68919 14.5157C8.55206 14.2825 8.44062 14.0351 8.35678 13.7779C8.19912 13.5363 8.11204 13.2555 8.10541 12.9671C8.12974 12.7217 8.12974 12.4746 8.10541 12.2292C8.10541 12.0914 8.21892 11.9455 8 11.8157C8 11.8157 8 11.7509 8 11.7265C8.32432 11.386 8.06488 10.9157 8.31623 10.5671C8.53702 10.2025 8.78936 9.85792 9.0703 9.53736C9.15138 9.45628 9.2811 9.42383 9.26489 9.23734C9.24867 9.05085 9.35409 9.08329 9.42706 9.08329C9.80814 9.08329 10.027 8.80762 10.3595 8.73464C10.6996 8.57882 11.0822 8.54169 11.446 8.62923C11.5333 8.67857 11.6344 8.69815 11.7338 8.68498C11.8333 8.67182 11.9258 8.62663 11.9973 8.55626C12.0946 8.48329 12.2649 8.55626 12.4027 8.60491C12.5406 8.65356 12.646 8.54815 12.7514 8.60491C12.8568 8.66167 12.9054 8.74275 12.9865 8.80761C12.9957 8.82044 13.0079 8.83084 13.022 8.8379C13.0361 8.84496 13.0518 8.8485 13.0676 8.84817C13.6757 8.84817 13.9595 9.47249 14.3325 9.82924C14.7292 10.2181 14.9907 10.724 15.0784 11.2725C15.1279 11.4298 15.1171 11.5999 15.0482 11.7498C14.9792 11.8996 14.8571 12.0185 14.7054 12.0833C14.6314 12.126 14.5476 12.1485 14.4622 12.1485C14.3768 12.1485 14.2929 12.126 14.2189 12.0833C14.1421 12.0252 14.0762 11.9538 14.0243 11.8725C13.9789 11.7639 13.9218 11.6606 13.8541 11.5644C13.7243 11.3536 13.4811 11.24 13.4568 11.013C13.4568 10.9319 13.3108 10.9319 13.4568 10.786C13.6027 10.64 13.4568 10.7293 13.4568 10.7293C13.0595 10.6644 12.9703 10.3563 12.6865 10.2184C12.4027 10.0806 12.1595 10.2184 11.9487 10.1211C11.9281 10.1549 11.9008 10.1841 11.8686 10.2071C11.8363 10.23 11.7997 10.2461 11.761 10.2544C11.7223 10.2628 11.6824 10.2632 11.6436 10.2556C11.6047 10.248 11.5678 10.2326 11.5352 10.2103C11.0487 9.99951 10.5946 10.3482 10.2541 10.6319C9.88352 10.9465 9.64594 11.3898 9.58918 11.8725C9.58918 11.9536 9.69459 12.0346 9.58918 12.1238C9.48378 12.213 9.58918 12.3346 9.58918 12.4319C9.58918 12.5292 9.66215 12.6103 9.63783 12.7157C9.51621 13.1536 9.87296 13.486 10.1405 13.7536C10.41 14.0564 10.7832 14.2473 11.1865 14.2887C11.3071 14.289 11.4272 14.2727 11.5433 14.2401L11.827 14.1914L12.2163 14.1428C12.419 14.1428 12.7514 13.9644 12.8162 14.1833C12.8162 14.1833 12.9784 14.3373 13.0189 14.4833C13.0662 14.665 13.1314 14.8415 13.2135 15.0103C13.242 15.0635 13.2774 15.1126 13.3189 15.1563C13.4258 15.2828 13.571 15.371 13.7325 15.4076C13.8379 15.4076 13.9352 15.3509 14.0243 15.3265L14.2838 15.2698C14.4148 15.2653 14.5428 15.2291 14.6568 15.1644C14.7784 15.0752 14.7622 14.913 14.8919 14.8238C15.0217 14.7347 15.0541 14.2887 14.9487 14.0536C14.8932 13.9258 14.8133 13.8102 14.7135 13.713C14.655 13.6571 14.5862 13.613 14.5108 13.5833C14.3196 13.5091 14.2529 13.1872 14.0505 13.1536C13.9173 12.8611 14.2119 12.5557 14.1047 12.5081C14.2361 12.2161 14.1289 12.2416 14.2189 11.9343C14.2189 11.7235 14.588 11.84 14.7664 11.8725C14.797 11.8818 15.0255 11.289 15.0482 11.3117C15.1941 11.5387 15.0703 12.3914 15.0784 12.4401H15.1514C15.2 12.4401 15.1513 12.4401 15.3135 12.5373C15.5602 12.7025 15.7745 12.9113 15.946 13.1536Z" fill="#1F2227"/>
</svg>
