<svg width="44" height="45" viewBox="0 0 44 45" fill="none" xmlns="http://www.w3.org/2000/svg">
<path d="M13.2 1.27539H30.8C37.6759 1.27539 43.25 6.84944 43.25 13.7254V31.3254C43.25 38.2013 37.6759 43.7754 30.8 43.7754H13.2C6.32406 43.7754 0.75 38.2013 0.75 31.3254V13.7254C0.75 6.84945 6.32406 1.27539 13.2 1.27539Z" fill="#FFF1CE" stroke="#FAE2A7" stroke-width="1.5"/>
<path d="M15.8867 23.4229H28.3499V35.0552C28.3488 35.3361 28.2718 35.6116 28.1269 35.8523C27.9821 36.0931 27.7748 36.2902 27.5271 36.4227C27.2794 36.5553 27.0004 36.6184 26.7198 36.6054C26.4391 36.5923 26.1672 36.5037 25.9328 36.3487L22.987 34.3848C22.7311 34.2143 22.4305 34.1233 22.123 34.1233C21.8156 34.1233 21.515 34.2143 21.2591 34.3848L18.3133 36.3487C18.0788 36.5062 17.8059 36.597 17.5238 36.6113C17.2417 36.6257 16.961 36.5631 16.7118 36.4302C16.4625 36.2973 16.2541 36.0992 16.1087 35.857C15.9634 35.6148 15.8867 35.3376 15.8867 35.0552V23.4229Z" fill="#6A36FF"/>
<path d="M16.6501 28.1437C16.6501 28.9746 16.6501 29.8055 16.6501 30.6458C16.6501 30.9479 16.5557 31.269 16.7729 31.59C16.8767 31.7505 16.6218 32.0526 16.6312 32.3359C16.6312 33.1101 16.6312 33.8938 16.6312 34.668V35.1684C16.6514 35.2573 16.69 35.3409 16.7445 35.4139C16.8413 35.5501 16.9809 35.6498 17.1411 35.6972C17.481 35.801 17.6415 35.8482 18.3213 35.2156C18.8063 34.8721 19.3107 34.5569 19.832 34.2715C20.0869 34.0732 20.3419 33.8749 20.6062 33.6955C21.0089 33.4056 21.4987 33.2623 21.9942 33.2895C22.3251 33.3238 22.646 33.4233 22.9384 33.5822C23.0782 33.6598 23.2137 33.7449 23.3444 33.8371L23.6371 34.0165C23.9067 34.113 24.1687 34.2298 24.4207 34.3659C24.6568 34.5264 24.8645 34.8002 25.2044 34.7247C25.2044 34.7247 25.3177 34.8285 25.3555 34.8946C25.4343 35.0351 25.5427 35.1568 25.6731 35.2513C25.8035 35.3458 25.9528 35.411 26.1108 35.4423C26.2336 35.4423 26.3846 35.5461 26.4224 35.5461H26.5357C26.6339 35.5671 26.7358 35.5625 26.8317 35.5328C26.9277 35.503 27.0143 35.4491 27.0833 35.3762C27.1462 35.3254 27.2004 35.2649 27.2438 35.1968C27.2703 35.1462 27.2894 35.0922 27.3005 35.0362V34.6775C27.2529 34.1813 27.2529 33.6818 27.3005 33.1856C27.4017 32.7431 27.4429 32.289 27.4232 31.8355C27.4232 31.5711 27.5365 31.2784 27.2816 31.0612C27.2816 31.0612 27.2816 30.948 27.2816 30.9007C27.6121 30.1643 27.1777 29.4467 27.2816 28.7008C27.3336 27.9243 27.3336 27.1452 27.2816 26.3687C27.2816 26.1609 27.3571 25.9438 27.1683 25.7549C27.1395 25.6928 27.1247 25.6251 27.1247 25.5567C27.1247 25.4882 27.1395 25.4205 27.1683 25.3584C27.2791 25.0926 27.3306 24.8058 27.3194 24.5181C27.3194 24.4709 27.3194 24.4425 27.3194 24.3764H27.1683H26.8284C26.6685 24.3596 26.5104 24.3279 26.3563 24.282C26.1884 24.2249 26.0101 24.2055 25.8338 24.2251C25.6576 24.2447 25.4878 24.3028 25.3366 24.3953C25.1761 24.4992 24.8456 24.3953 24.6001 24.3953C24.3546 24.3953 24.2036 24.5181 24.0053 24.5275C23.8269 24.5025 23.6524 24.4549 23.486 24.3859H23.3255C22.3813 24.6597 21.3616 24.2914 20.3702 24.3859C19.3733 24.4425 18.374 24.4425 17.3771 24.3859C17.1029 24.4073 16.8273 24.3685 16.5696 24.2723C16.312 24.1761 16.0784 24.0247 15.8853 23.8288C15.7154 23.6211 15.7154 23.3945 15.9514 23.2623C16.1259 23.1569 16.3177 23.0834 16.5179 23.0451L17.4621 22.9129C18.0798 22.7636 18.7157 22.7032 19.3505 22.7335C19.5488 22.7335 19.7942 22.6486 19.9642 22.8563C19.986 22.8679 20.0103 22.8739 20.035 22.8739C20.0597 22.8739 20.084 22.8679 20.1058 22.8563C20.9896 22.6661 21.8986 22.6215 22.7967 22.7241C23.5428 22.6046 24.2979 22.5509 25.0533 22.5636C25.2819 22.45 25.531 22.3839 25.7858 22.3693C26.0406 22.3547 26.2957 22.3919 26.5357 22.4786L26.9795 22.5447H27.2061H27.5837H29.2077V24.7824C29.2077 25.2356 29.2077 25.7266 29.2077 26.1421C29.2077 27.6716 29.2077 29.2012 29.2077 30.7308C29.2077 30.9857 29.3494 31.2123 29.2077 31.5145C29.1602 31.8274 29.1602 32.1457 29.2077 32.4586C29.2429 32.7724 29.2429 33.0891 29.2077 33.4028C29.1398 33.6978 29.0956 33.9977 29.0756 34.2998V34.7435C29.0756 34.9041 29.0756 35.0268 29.0756 35.2723C29.0366 35.7165 28.867 36.1392 28.588 36.487C28.3091 36.8348 27.9333 37.0923 27.5082 37.2267C27.0807 37.3591 26.6233 37.3591 26.1958 37.2267C25.9864 37.1662 25.7863 37.0772 25.601 36.9624L25.2138 36.698C24.7134 36.3675 24.213 36.0465 23.7032 35.7538C23.3821 35.565 23.0611 35.4045 22.759 35.2251L22.5229 35.1023L22.4096 35.0551C22.3356 35.0307 22.2598 35.0118 22.183 34.9985C22.032 34.9985 21.9659 35.1212 21.7298 34.9985C21.6637 34.9985 21.4938 35.2912 21.3427 35.4045C20.9367 35.6972 20.5118 35.9615 20.0964 36.2448L19.2277 36.8113L18.7651 37.1134C18.5375 37.264 18.2849 37.3727 18.0192 37.4345C17.6903 37.5345 17.3443 37.5652 17.003 37.5245C16.6617 37.4839 16.3326 37.3728 16.0364 37.1984C15.7168 37.0037 15.4476 36.7364 15.2508 36.4181C15.0539 36.0998 14.9349 35.7396 14.9034 35.3667C14.8942 35.2567 14.8942 35.1462 14.9034 35.0362V34.8191V34.4036C14.9034 34.1204 14.96 33.8466 14.9695 33.5633C14.9268 32.9819 14.9268 32.3981 14.9695 31.8166C15.1046 30.787 15.1457 29.7473 15.0922 28.7102C15.0922 27.6905 15.0922 26.6519 15.0922 25.6322C15.0922 25.0468 15.2716 24.5181 15.2622 23.9515C15.2622 23.6872 15.857 23.3284 16.0647 23.4323C16.108 23.4584 16.1412 23.4983 16.1591 23.5456C16.4198 24.0809 16.5767 24.6608 16.6218 25.2545C16.6312 26.2554 16.6501 27.1995 16.6501 28.1437Z" fill="#1F2227"/>
<path d="M22.1174 27.4164C27.7126 27.4164 32.2485 22.8806 32.2485 17.2854C32.2485 11.6901 27.7126 7.1543 22.1174 7.1543C16.5222 7.1543 11.9863 11.6901 11.9863 17.2854C11.9863 22.8806 16.5222 27.4164 22.1174 27.4164Z" fill="#FFCA43"/>
<path d="M17.0942 9.41118C16.292 9.92976 15.5726 10.5664 14.9603 11.2995C14.762 11.5828 14.441 11.8094 14.4221 12.2437C14.4221 12.4609 14.0161 12.6119 13.8745 12.9046C13.4689 13.6989 13.1704 14.5434 12.987 15.4162C12.8689 16.2682 12.8689 17.1324 12.987 17.9843C12.9998 18.8335 13.1929 19.6703 13.5535 20.4392C13.7927 21.0632 14.0767 21.669 14.4032 22.2521C14.6015 22.5542 14.8659 22.8091 15.0736 23.1018C15.2813 23.3945 15.5268 23.6589 15.7534 23.9233C15.98 24.1876 16.0839 24.3293 16.2633 24.5181C16.4522 24.6909 16.6542 24.8487 16.8676 24.9902C17.1508 25.1507 17.4813 25.179 17.8117 25.3679C18.1422 25.5567 18.3782 25.7833 18.7559 25.6605C18.7559 25.6605 18.907 25.7361 18.9636 25.7927C19.0825 25.9215 19.2297 26.0209 19.3935 26.0832C19.5574 26.1454 19.7334 26.1688 19.9078 26.1515C20.1706 26.148 20.433 26.1702 20.6915 26.2176C21.041 26.2767 21.3945 26.3083 21.749 26.312C22.1042 26.3356 22.4606 26.3356 22.8159 26.312C23.0803 26.312 23.3446 26.312 23.609 26.312C23.8788 26.3125 24.1478 26.284 24.4116 26.2271C24.9686 26.1232 25.4879 25.8116 26.0072 25.7078C26.5143 25.5898 26.9927 25.3715 27.4141 25.0657C27.6501 24.8958 27.9995 24.773 28.0278 24.4331C28.0636 24.3807 28.1124 24.3384 28.1694 24.3104C29.0381 24.0177 29.2647 23.0829 29.8028 22.4692C30.334 21.7688 30.728 20.9744 30.9642 20.1277C31.0255 20.0214 31.064 19.9035 31.077 19.7816C31.09 19.6596 31.0773 19.5363 31.0397 19.4195C30.9925 19.3345 31.0397 19.1079 31.1058 18.9946C31.382 18.3827 31.4833 17.7062 31.3985 17.0402C31.3985 16.2754 31.2097 15.5484 31.1813 14.7553C31.1881 14.5547 31.1491 14.3553 31.0673 14.1721C30.9855 13.9888 30.863 13.8267 30.7093 13.6978C30.5299 13.5845 30.4732 13.2068 30.3316 12.9613C30.19 12.7158 29.9822 12.6497 29.8689 12.4609C29.7556 12.2721 29.7462 12.0832 29.6612 11.9038C29.6345 11.8461 29.5959 11.7946 29.5479 11.7528C28.6887 11.0541 28.1316 10.0532 27.1308 9.50561C26.1522 8.95139 25.1045 8.52912 24.015 8.24983C23.7086 8.19814 23.4081 8.11593 23.118 8.00436C22.8231 7.91243 22.5566 7.74667 22.3438 7.52282C22.1455 7.30566 22.1361 7.07906 22.4382 6.96575C22.6705 6.86088 22.9202 6.80005 23.1747 6.78636C23.5807 6.78636 23.9867 6.78634 24.3927 6.83355C25.249 6.8592 26.0883 7.07871 26.8476 7.47559C27.0742 7.62666 27.4329 7.64555 27.5179 7.95713C27.5501 8.01642 27.6044 8.06056 27.669 8.07988C28.7847 8.51567 29.7493 9.26701 30.4449 10.2421C31.1965 10.9298 31.7976 11.7656 32.2105 12.6969C32.4481 12.9053 32.6272 13.1722 32.7298 13.4712C32.8504 13.7569 32.9268 14.0594 32.9564 14.3681C33.3413 16.3711 33.2801 18.4343 32.777 20.4109C32.1732 22.3891 31.0364 24.1629 29.4913 25.5378C29.2745 25.8244 28.9973 26.0598 28.6793 26.2271C28.2856 26.4365 27.907 26.6731 27.5462 26.9352C27.1941 27.1493 26.8207 27.3265 26.4321 27.4639C24.8997 27.9178 23.3094 28.1468 21.7112 28.1437C20.1074 28.0366 18.5395 27.6198 17.0942 26.9163C16.1949 26.5355 15.3701 25.9985 14.6582 25.3301C14.2946 25.0846 14.0172 24.7313 13.8651 24.3198C13.8651 24.2065 13.4685 23.9988 13.2891 23.7911C13.0755 23.5285 12.8859 23.2472 12.7226 22.9507C12.5412 22.6683 12.3833 22.3715 12.2505 22.0632C11.8493 21.2167 11.5483 20.3263 11.3535 19.4101C11.1999 18.8561 11.0894 18.291 11.0231 17.72C10.9923 17.406 10.9923 17.0898 11.0231 16.7758C11.0291 16.459 11.0607 16.1433 11.1175 15.8316C11.255 15.0812 11.4702 14.3471 11.7595 13.6411C11.9795 12.8873 12.3242 12.1756 12.7792 11.5356C13.5948 10.4264 14.5464 9.42397 15.6118 8.55197C16.7183 7.74843 17.9496 7.13276 19.2563 6.72971C19.9815 6.57058 20.7238 6.50394 21.4657 6.53141C23.9099 6.79673 22.6597 7.11248 22.5275 7.3202C22.495 7.3674 23.529 7.93669 23.4755 7.95713C22.8104 8.04367 20.7669 7.90115 20.125 8.09875C19.0378 8.33143 18.0077 8.77753 17.0942 9.41118Z" fill="#1F2227"/>
<path d="M18.7776 15.9263C18.687 15.8453 18.6366 15.7989 18.546 15.7461C18.4553 15.6932 18.1028 15.688 18.1028 15.688C18.0778 15.6642 18.0465 15.6475 18.0122 15.6396H17.9115C17.6769 15.6966 17.4682 15.8257 17.3173 16.0074C17.2247 16.1392 17.1598 16.2871 17.1259 16.4428C17.0862 16.6197 17.0358 16.7942 16.9748 16.9653C16.955 17.0709 16.955 17.1791 16.9748 17.2847C16.9849 17.3779 16.9849 17.472 16.9748 17.5653V18.1459C16.9848 18.2536 17.0155 18.3586 17.0655 18.4555C17.1057 18.5426 17.1561 18.4555 17.2165 18.5426C17.2609 18.6453 17.3113 18.7455 17.3676 18.8426C17.3982 18.9093 17.4389 18.9713 17.4885 19.0265C17.5489 19.0361 17.5489 18.891 17.5489 18.9684C17.5388 19.2393 17.559 19.0555 17.6194 19.1813C17.6798 19.3071 17.7503 19.249 17.8208 19.249C17.9093 19.2778 17.9939 19.3168 18.0726 19.3651C18.1258 19.3751 18.1805 19.3751 18.2338 19.3651C18.4654 19.3845 18.6366 19.22 18.7071 19.2393C18.7776 19.2587 18.7474 19.1909 18.7776 19.1619C18.8078 19.1329 18.8683 19.0168 18.8683 19.0748V18.9587C18.9804 18.7149 19.0583 18.4578 19.0999 18.1943C19.1805 17.904 19.1694 17.622 19.1694 17.2136C19.1694 16.8051 19.0093 16.3042 19.0093 16.3042C18.969 16.188 18.8683 16.0074 18.7776 15.9263Z" fill="#1F2227"/>
<path d="M26.8167 15.7994C26.7261 15.7183 26.6757 15.672 26.585 15.6191C26.4944 15.5663 26.1419 15.5611 26.1419 15.5611C26.1169 15.5372 26.0855 15.5205 26.0513 15.5127H25.9505C25.716 15.5696 25.5073 15.6988 25.3563 15.8804C25.2638 16.0123 25.1988 16.1602 25.165 16.3158C25.1253 16.4927 25.0749 16.6672 25.0139 16.8384C24.9941 16.944 24.9941 17.0521 25.0139 17.1577C25.0239 17.251 25.0239 17.345 25.0139 17.4383V18.0189C25.0238 18.1267 25.0546 18.2317 25.1045 18.3286C25.1448 18.4157 25.1952 18.3286 25.2556 18.4157C25.2999 18.5184 25.3504 18.6185 25.4067 18.7156C25.4373 18.7823 25.478 18.8443 25.5275 18.8995C25.588 18.9092 25.588 18.764 25.588 18.8414C25.5779 19.1124 25.598 18.9285 25.6585 19.0543C25.7189 19.1801 25.7894 19.122 25.8599 19.122C25.9484 19.1509 26.0329 19.1899 26.1117 19.2382C26.1649 19.2481 26.2196 19.2481 26.2728 19.2382C26.5045 19.2575 26.6757 19.093 26.7462 19.1124C26.8167 19.1317 26.7865 19.064 26.8167 19.035C26.8469 19.0059 26.9073 18.8898 26.9073 18.9479V18.8318C27.0195 18.5879 27.0974 18.3308 27.139 18.0673C27.2196 17.777 27.2084 17.495 27.2084 17.0866C27.2084 16.6782 27.0484 16.1772 27.0484 16.1772C27.0081 16.0611 26.9073 15.8804 26.8167 15.7994Z" fill="#1F2227"/>
<path d="M21.0894 18.7005C21.0788 18.8267 21.0788 18.9535 21.0894 19.0797C21.0894 19.1324 21.0683 19.1113 21.0333 19.1531C21.128 19.2272 21.0683 19.2272 21.0894 19.2483C21.1104 19.2694 21.0894 19.3958 21.0894 19.459C21.0894 19.5222 21.1535 19.6048 21.2062 19.6469C21.2589 19.6891 21.2402 19.8172 21.3667 19.7856C21.4697 19.8594 21.3623 19.912 21.4361 19.9226C21.5098 19.9331 21.4588 19.912 21.556 20.0068C21.6087 20.0898 21.6161 20.1016 21.6688 20.0911C21.7215 20.0806 21.6688 20.1397 21.765 20.0911C21.8317 20.1192 21.7952 20.0911 21.8317 20.0595L21.914 20.0911C21.914 20.2386 21.8818 20.1528 21.9593 20.0911C22.0869 20.0348 21.999 20.0595 22.0622 20.0595H22.1527C22.1527 20.0595 22.2166 19.9858 22.2588 20.0068C22.3009 20.0279 22.32 19.9441 22.3832 20.0389C22.4464 20.1337 22.5011 20.0806 22.5327 20.0595C22.5643 20.0384 22.4943 20.1582 22.5972 20.0068C22.77 19.9963 22.6712 19.9226 22.7741 19.8496C22.84 19.7856 22.8207 19.7698 22.8523 19.7171C22.8839 19.6644 22.8523 19.7418 22.9017 19.6183C22.9962 19.5936 22.933 19.5854 22.9752 19.5222C23.0173 19.459 22.9225 19.567 23.07 19.4249C23.07 19.3818 23.1075 19.3796 23.07 19.2904C23.07 19.2904 23.0334 19.2934 23.0334 19.2302V19.1808C22.9962 18.9792 23.1543 18.9217 23.0805 18.7742C23.033 18.6269 23.033 18.4684 23.0805 18.3212C23.0805 18.2369 23.1648 18.1526 23.5757 18.0999C23.7421 18.062 23.915 18.062 24.0814 18.0999C24.1509 18.1109 24.2163 18.1399 24.271 18.1842L24.3869 18.3212C24.4607 18.416 24.6503 18.5108 24.5449 18.6162C24.4396 18.7215 24.6292 18.6794 24.4396 18.711C24.724 18.8374 24.5344 18.9849 24.5555 19.1113C24.5765 19.2377 24.6302 19.2904 24.5972 19.5728C24.5972 19.829 24.5931 19.9094 24.5026 20.0911C24.2546 20.4238 24.3553 20.502 24.1235 20.7548C23.9028 21.0113 23.6433 21.2317 23.3544 21.408C23.3544 21.408 23.3544 21.5661 23.2069 21.5134C23.0595 21.4607 23.07 21.5134 22.9962 21.5766C22.9225 21.6398 22.8909 21.6714 22.8066 21.6293C22.5011 21.4818 22.2904 21.6293 22.027 21.6293C21.7636 21.6293 21.5424 21.5344 21.2895 21.5134C21.0367 21.4923 20.9419 21.5134 20.8154 21.4186C20.689 21.3237 20.6363 21.4186 20.7101 21.2079C20.7101 21.1552 20.5837 21.2079 20.5415 21.2079C20.4481 21.1494 20.3631 21.0785 20.2887 20.9972L19.9937 20.639C19.9305 20.5757 19.871 20.5568 19.8078 20.4725C19.7361 20.3968 19.7268 20.3007 19.7092 20.1978C19.6986 20.0646 19.624 19.9828 19.6347 19.8496C19.6347 19.7232 19.6044 19.6996 19.6343 19.459C19.7342 19.2643 19.6882 19.0376 19.7092 18.869C19.7407 18.7126 19.7407 18.5514 19.7092 18.3949C19.7092 18.3106 19.8673 18.2264 19.8673 18.1421C20.0961 18.075 20.3353 18.05 20.5731 18.0683H20.6574C20.826 18.1526 21.0894 18.2369 21.0683 18.3317C21.0676 18.455 21.0747 18.5781 21.0894 18.7005Z" fill="#1F2227"/>
</svg>
