<svg width="41" height="40" viewBox="0 0 41 40" fill="none" xmlns="http://www.w3.org/2000/svg">
<circle cx="20.9688" cy="20" r="20" fill="#EDE6FF"/>
<path d="M13.3596 25.7677L17.1328 26.052L13.7284 20.104L10.8005 20.5036C10.6595 20.5232 10.5258 20.5781 10.4117 20.6632C10.2976 20.7483 10.2068 20.8608 10.1478 20.9904C10.0888 21.1199 10.0634 21.2623 10.0741 21.4042C10.0848 21.5461 10.1311 21.6831 10.2088 21.8023L12.3913 25.1914C12.4982 25.3548 12.641 25.4916 12.8088 25.5915C12.9766 25.6914 13.165 25.7516 13.3596 25.7677Z" fill="#6A36FF"/>
<path d="M11.5 24.9458C11.3232 24.6615 11.1542 24.3772 10.9544 24.1082C10.8775 24.0083 10.9305 23.8207 10.7153 23.813C10.6461 23.6771 10.67 23.624 10.6009 23.5318C10.4164 23.2859 10.2704 23.0093 10.086 22.7633C9.99473 22.6431 9.89725 22.5276 9.79394 22.4175L9.64026 22.2408C9.55934 22.1303 9.48983 22.0118 9.43277 21.8873C9.36021 21.6289 9.3439 21.3581 9.385 21.0929C9.4261 20.8278 9.52364 20.5745 9.671 20.3503C9.90155 19.9199 10.4395 19.8585 10.793 19.7893C11.0376 19.6955 11.3016 19.6638 11.5615 19.6971C11.7404 19.743 11.9281 19.743 12.1071 19.6971C12.2147 19.6971 12.3069 19.5434 12.4299 19.5357C12.5528 19.528 12.6834 19.5972 12.7526 19.382C12.7526 19.382 12.8141 19.382 12.8448 19.382C12.8731 19.4067 12.906 19.4255 12.9416 19.4374C12.9773 19.4492 13.0149 19.4539 13.0523 19.4512C13.1607 19.435 13.2649 19.3985 13.3597 19.3436C13.5315 19.2534 13.7197 19.1985 13.913 19.1822L14.2204 19.1361C14.4202 19.4742 14.6354 19.8508 14.8045 20.1812C14.889 20.3503 14.912 20.5578 14.9889 20.7269C15.0657 20.8959 15.2579 21.0496 15.2656 21.2571C15.2761 21.4453 15.3401 21.6266 15.45 21.7797C15.5038 21.8642 15.45 22.0179 15.7036 21.9872C15.7092 21.995 15.7122 22.0044 15.7122 22.0141C15.7122 22.0237 15.7092 22.0331 15.7036 22.041C15.6114 22.4329 16.0648 22.5021 16.157 22.8095C16.2721 23.098 16.4217 23.3715 16.6027 23.624C16.6488 23.6932 16.6411 23.8008 16.8102 23.7931C16.9793 23.7854 16.9178 23.8623 16.9024 23.9161C16.887 23.9818 16.887 24.0502 16.9024 24.1159C16.9229 24.1929 16.9567 24.2657 17.0023 24.3311C17.1099 24.5155 17.2406 24.6999 17.3328 24.892C17.5172 25.2993 17.9091 25.7989 17.9091 26.1062C17.9091 26.2369 17.9475 26.3906 18.4163 26.8209L18.4932 26.8978C18.4317 26.9362 18.1243 26.844 18.0013 26.8517C17.8784 26.8594 17.8477 26.9516 17.694 26.9439C17.5186 26.9062 17.3464 26.8548 17.1791 26.7902C17.1394 26.7755 17.0958 26.7755 17.0561 26.7902C16.7041 26.8658 16.34 26.8658 15.9879 26.7902L15.4346 26.6903C15.3352 26.6759 15.2343 26.6759 15.1349 26.6903C14.7334 26.7042 14.3316 26.6759 13.9361 26.6058C13.8023 26.5934 13.6761 26.538 13.5764 26.448C13.4767 26.3579 13.4087 26.2381 13.3828 26.1062C13.3517 26.0312 13.3403 25.9494 13.3497 25.8687C13.3591 25.788 13.389 25.711 13.4366 25.6452C13.5025 25.5756 13.5842 25.5229 13.6748 25.4914L14.059 25.4146C14.3126 25.3685 14.5816 25.2148 14.8275 25.3301C14.9044 25.3301 15.0119 25.2686 15.0657 25.4453C15.0657 25.4453 15.1042 25.4838 15.1195 25.4453C15.596 25.2225 15.5806 25.3916 15.7343 25.3839C15.888 25.3762 15.6267 25.1533 15.7958 25.2532L15.6882 25.1764C15.45 25.0227 15.5268 25.0842 15.6037 25.1072C15.6805 25.1303 15.7343 25.1072 15.7036 25.0457C15.574 24.8652 15.4584 24.6751 15.3578 24.477C15.0811 23.9314 14.7507 23.4166 14.4586 22.8863C14.4048 22.7941 14.2588 22.771 14.2819 22.625C14.305 22.479 14.1666 22.3868 14.0974 22.2715C14.0283 22.1562 13.9361 22.0794 13.9284 21.9488C13.8932 21.7066 13.8096 21.4739 13.6825 21.2648L13.4904 20.9574C13.4644 20.9278 13.4437 20.894 13.4289 20.8575L13.4289 20.7806C13.3649 20.7769 13.3007 20.7769 13.2367 20.7806C13.04 20.8079 12.845 20.8464 12.6527 20.8959C12.3816 21.0044 12.0974 21.0767 11.8074 21.1111C11.6767 21.1111 11.5615 21.2418 11.4154 21.065C11.4154 21.0189 11.2771 21.1803 11.2003 21.1956L11.0543 21.1956L10.962 21.1956C10.962 21.1956 10.962 21.1956 10.9159 21.1956C10.8698 21.1956 10.8237 21.2648 10.8391 21.3186C10.8545 21.3724 10.9313 21.4646 10.9544 21.4262L11.0389 21.4262L11.1695 21.6567C11.2694 21.8565 11.3309 22.0794 11.4385 22.2792C11.5461 22.479 11.7536 22.6404 11.7997 22.8786C11.9258 23.2774 12.1238 23.6498 12.3837 23.9775L12.6988 24.5001L12.8679 24.7614C12.9028 24.8058 12.9443 24.8447 12.9908 24.8767C13.083 24.9381 13.4845 25.7362 13.6381 25.7823C13.712 25.9943 13.6047 25.646 13.5764 25.8687C13.5733 25.8846 13.8044 26.0424 13.7952 26.0557C13.7859 26.0689 14.1503 26.4317 13.7149 26.2087C13.5688 26.3009 14.1088 26.6058 13.9361 26.6058C13.7633 26.6058 12.4453 26.014 12.2992 25.9218C12.1918 25.8297 12.0916 25.7295 11.9995 25.6221L11.8765 25.453L11.7997 25.3301L11.5 24.9458Z" fill="#1F2227"/>
<path d="M26.7851 12.3431L27.0771 16.124L21.813 13.3728L21.7592 10.053C21.7567 9.89962 21.796 9.74844 21.8728 9.61566C21.9497 9.48289 22.0612 9.37352 22.1954 9.29929C22.3297 9.22506 22.4816 9.18875 22.6349 9.19427C22.7882 9.19979 22.9371 9.24693 23.0657 9.33062L26.2395 11.3748C26.3997 11.4825 26.5324 11.6261 26.6271 11.7942C26.7219 11.9624 26.776 12.1503 26.7851 12.3431Z" fill="#6A36FF"/>
<path d="M25.3404 11.5196C25.0714 11.3505 24.8102 11.1584 24.5258 11.0047C24.4182 10.9432 24.3644 10.8049 24.1646 10.8894C23.9648 10.9739 24.0801 10.6896 23.9802 10.6358C23.7189 10.4975 23.4807 10.3054 23.2117 10.1594C23.0811 10.0902 22.9504 10.0287 22.8121 9.96723L22.7122 9.92112L22.6661 9.92112C22.6661 9.92112 22.5278 9.85964 22.5585 9.98259C22.5892 10.1055 22.4586 9.9826 22.4893 10.0594L22.4893 10.1517L22.4893 10.3361C22.4939 10.4607 22.4783 10.5853 22.4432 10.705C22.371 10.8691 22.3419 11.049 22.3587 11.2275C22.3587 11.3351 22.4893 11.435 22.4817 11.558C22.474 11.6809 22.3894 11.7962 22.5969 11.8884C22.5969 11.8884 22.5969 11.9422 22.5508 11.9653C22.5246 11.9883 22.5037 12.0167 22.4893 12.0485C22.475 12.0803 22.4676 12.1148 22.4676 12.1497C22.4676 12.1846 22.475 12.2191 22.4893 12.2509C22.5037 12.2827 22.5246 12.3111 22.5508 12.3341C22.583 12.3705 22.6072 12.4133 22.6217 12.4596C22.6363 12.506 22.641 12.5549 22.6354 12.6031L22.6354 12.7952C22.6354 12.7952 22.5355 12.8413 22.6354 12.9259C22.7353 13.0104 23.0273 13.0488 23.1349 13.2179C23.2437 13.362 23.3899 13.4736 23.5575 13.5407C23.6497 13.5868 23.7035 13.7251 23.8726 13.5791C23.8726 13.5791 23.9187 13.5791 23.9264 13.5791C24.057 13.9556 24.4643 13.7635 24.6949 13.9557C24.9315 14.1315 25.1898 14.2761 25.4634 14.386C25.5325 14.386 25.5786 14.509 25.717 14.386C25.7293 14.3782 25.7432 14.3731 25.7576 14.3712C25.7721 14.3693 25.7868 14.3706 25.8007 14.375C25.8146 14.3794 25.8274 14.3868 25.8382 14.3967C25.8489 14.4065 25.8574 14.4186 25.863 14.4321C25.8851 14.4944 25.919 14.5518 25.9629 14.6012C25.9629 14.6012 25.9629 14.6012 25.9629 14.6396C25.9629 14.678 25.9629 14.6396 26.009 14.6396C26.0551 14.6396 26.009 14.5858 26.2088 14.8625C26.2703 14.9547 26.3471 15.0315 26.2857 14.9086L26.1781 14.7318C26.0781 14.5858 26.1781 14.7318 26.1781 14.655C26.1399 14.604 26.0988 14.5552 26.0551 14.509C26.0932 14.5411 26.1344 14.5694 26.1781 14.5935C26.0551 14.4859 26.0782 14.5166 26.1166 14.4936L26.1166 14.363C26.1318 14.2662 26.1318 14.1677 26.1166 14.0709C26.0434 13.6913 26.0124 13.3047 26.0244 12.9182C26.0158 12.7863 26.0511 12.6552 26.1247 12.5454C26.1984 12.4356 26.3063 12.3532 26.4317 12.3111C26.502 12.2714 26.5814 12.2505 26.6622 12.2505C26.743 12.2505 26.8224 12.2714 26.8927 12.3111C26.9736 12.3592 27.04 12.4282 27.0849 12.5109L27.2155 12.8644C27.3 13.1026 27.4922 13.3332 27.423 13.5945C27.423 13.679 27.4998 13.7635 27.3385 13.8404C27.3337 13.8439 27.3298 13.8486 27.3272 13.8539C27.3245 13.8593 27.3231 13.8651 27.3231 13.8711C27.3231 13.8771 27.3245 13.883 27.3272 13.8883C27.3298 13.8936 27.3337 13.8983 27.3385 13.9019C27.4592 14.0431 27.5248 14.2233 27.5229 14.4091C27.5229 14.7088 27.5229 14.9854 27.5229 15.2774C27.6581 15.8218 27.743 16.3774 27.7765 16.9373C27.8591 17.1221 27.921 17.3154 27.9609 17.5137C27.7413 17.4284 27.5365 17.3091 27.3538 17.1602C26.8826 16.8113 26.3811 16.5052 25.8553 16.2457L25.1867 15.9153C25.0561 15.8538 24.9254 15.7923 24.7948 15.7232C24.2876 15.4234 23.7497 15.1775 23.2578 14.8932C23.1656 14.8471 23.035 14.8932 22.9735 14.7702C22.912 14.6473 22.7583 14.6396 22.643 14.5781C22.5278 14.5166 22.4048 14.509 22.3356 14.4091C22.2195 14.2674 22.079 14.1477 21.9207 14.0555C21.6671 13.9172 21.3904 13.7866 21.1138 13.6559C21.1138 13.4715 21.1138 13.2948 21.1138 13.1103L21.1138 12.3649C21.114 12.1361 21.0986 11.9076 21.0677 11.6809C20.9916 11.4056 20.9529 11.1213 20.9524 10.8356C20.9524 10.7126 20.8525 10.5897 21.0446 10.4667C21.1061 10.4667 20.9524 10.3207 20.9447 10.2439C20.9258 10.101 20.9258 9.95635 20.9447 9.81353C20.9668 9.63841 21.0216 9.46899 21.1061 9.31402C21.22 9.10274 21.3788 8.91896 21.5713 8.77558C21.7638 8.6322 21.9853 8.53268 22.2204 8.48404C22.5146 8.40327 22.8252 8.40327 23.1195 8.48404C23.199 8.5108 23.2761 8.54422 23.35 8.58395C23.4269 8.58395 23.5037 8.66849 23.5268 8.68386L23.7343 8.83756C23.9034 8.97589 24.0494 9.15263 24.2184 9.28327C24.3875 9.41391 24.6411 9.47539 24.7717 9.66751C25.04 9.97952 25.3629 10.2399 25.7247 10.436L26.2165 10.7741L26.4778 10.9355C26.601 11.0115 26.7168 11.099 26.8236 11.1968C27.0128 11.4513 27.2233 12.6091 27.2395 12.9259C27.278 13.0873 26.7083 12.4341 26.5392 12.3956C26.5114 12.4022 26.3134 13.0505 26.2857 13.044C26.1089 12.8749 26.0167 12.2266 25.9629 12.1267C25.9065 12.033 25.8236 11.9581 25.7247 11.9115L25.3404 11.5196Z" fill="#1F2227"/>
<path d="M27.5686 16.606C33.3552 21.6549 33.1477 28.602 32.8788 30.9612C32.8565 31.2023 32.7505 31.4281 32.5793 31.5993C32.4081 31.7706 32.1824 31.8765 31.9412 31.8988C29.5897 32.1677 22.6426 32.3675 17.586 26.5809C14.3661 22.8922 13.8435 19.603 13.7436 18.4042C13.7356 18.2514 13.761 18.0986 13.8181 17.9566C13.8751 17.8146 13.9625 17.6868 14.074 17.582L16.3334 15.361L18.562 13.1324C18.6688 13.0209 18.7979 12.9332 18.9409 12.8749C19.0839 12.8166 19.2376 12.7892 19.3919 12.7943C20.5908 12.8635 23.8799 13.3783 27.5686 16.606Z" fill="#EBEFF9"/>
<path d="M22.7583 14.2718C21.9134 13.9042 21.025 13.646 20.1147 13.5033C19.9456 13.5033 19.7842 13.4342 19.6075 13.4188C19.5231 13.4111 19.4382 13.4111 19.3539 13.4188C19.335 13.4274 19.3182 13.4402 19.3049 13.4562C19.2916 13.4721 19.2821 13.4909 19.277 13.511C19.277 13.5648 19.2232 13.511 19.1464 13.511C19.1057 13.504 19.0641 13.504 19.0234 13.511C18.9564 13.5553 18.8946 13.6068 18.839 13.6647L16.9255 15.5936L15.1426 17.5379C14.9966 17.6993 14.8352 17.853 14.6738 17.999C14.5959 18.0592 14.535 18.1387 14.4971 18.2295L14.4971 18.314L14.4971 18.5984C14.5206 18.7945 14.5644 18.9876 14.6277 19.1747C14.8352 19.8203 14.8429 20.4581 15.1042 21.0652C15.3654 21.6723 15.7036 22.3486 15.9572 22.9941C16.1325 23.4692 16.3703 23.9189 16.6642 24.3313C16.864 24.5772 17.1099 24.7616 17.3174 25.0306C17.5249 25.2995 17.6632 25.63 18.0014 25.7068C18.051 25.772 18.0899 25.8446 18.1166 25.922C18.2496 26.2491 18.4911 26.5205 18.8006 26.6905C19.0191 26.8337 19.2249 26.9957 19.4154 27.1746C19.6843 27.3975 19.9379 27.6434 20.2223 27.8509L21.0599 28.4811C21.5056 28.7577 21.8899 29.142 22.3586 29.3802C22.8274 29.6184 23.4191 29.8105 23.8495 30.1026C24.2885 30.3586 24.7622 30.5502 25.2558 30.6713C25.5325 30.7404 25.8322 30.9402 26.1165 30.7788C26.1716 30.7617 26.2305 30.7617 26.2856 30.7788C27.0541 31.2399 27.9071 30.9786 28.714 31.117C29.5795 31.2169 30.4536 31.2169 31.3191 31.117C31.4344 31.117 31.5497 31.117 31.665 31.117C31.7212 31.1213 31.7778 31.1213 31.834 31.117C31.834 31.117 31.834 31.0709 31.8725 31.0324C31.9109 30.994 31.8724 30.9556 31.9416 30.9709C31.9628 30.9866 31.9883 30.995 32.0146 30.995C32.0409 30.995 32.0665 30.9866 32.0876 30.9709C32.1079 30.9498 32.1213 30.923 32.1261 30.8941L32.1261 30.6866C32.1261 30.3562 32.126 30.0257 32.1798 29.6953C32.2567 28.9268 32.1337 28.1967 32.2259 27.4283C32.2965 27.0385 32.214 26.6366 31.9954 26.3063C31.8878 26.1449 31.9186 25.7683 31.834 25.5378C31.7495 25.3072 31.6496 25.1228 31.5804 24.9076C31.5646 24.7158 31.5646 24.5231 31.5804 24.3313C31.5743 24.2703 31.5587 24.2107 31.5343 24.1545C31.0041 23.1862 30.8657 22.0796 30.2817 21.1344C29.7044 20.193 29.0571 19.2965 28.3451 18.4524C27.9116 18.036 27.6097 17.5016 27.4767 16.9154C27.4767 16.6541 27.5613 16.5158 27.8379 16.6234C28.051 16.7107 28.2524 16.8243 28.4373 16.9615C28.7362 17.1843 29.0187 17.4283 29.2827 17.6916C29.8946 18.1771 30.4151 18.7678 30.8196 19.436C30.9272 19.6589 31.1655 19.8587 31.1347 20.1123C31.1373 20.175 31.1618 20.2348 31.2039 20.2814C31.8765 21.1333 32.3611 22.1181 32.6256 23.1709C32.9998 24.0053 33.2584 24.887 33.3941 25.7914C33.6538 26.2845 33.7633 26.8428 33.7091 27.3975C33.7091 28.312 33.7091 29.2188 33.6246 30.1333L33.5862 30.8172C33.578 31.1388 33.4965 31.4542 33.3479 31.7394C33.1689 32.0759 32.8858 32.3455 32.541 32.5079C32.3731 32.5857 32.1943 32.6375 32.0108 32.6616L31.6573 32.6616C29.8117 32.8132 27.9539 32.702 26.1396 32.3312C25.8181 32.3237 25.5005 32.2586 25.202 32.139C24.8299 31.9903 24.4471 31.8695 24.057 31.7778C23.6972 31.6842 23.3492 31.5502 23.0195 31.3782C21.7281 30.7007 20.4875 29.9302 19.3078 29.0728C18.2064 28.1457 17.1951 27.1165 16.2876 25.9989C15.6887 25.3504 15.1724 24.6302 14.7507 23.8548C14.509 23.5459 14.3574 23.1762 14.3126 22.7866C14.3126 22.6637 14.0283 22.4101 13.9361 22.1795C13.6886 21.6163 13.4906 21.0326 13.3444 20.4351C13.2362 20.0175 13.1516 19.5941 13.0907 19.1671C13.0533 18.9509 13.0277 18.7328 13.0139 18.5139C12.9918 18.3558 12.9918 18.1955 13.0139 18.0374C13.0371 17.866 13.0891 17.6997 13.1676 17.5456C13.2551 17.3675 13.3663 17.2021 13.498 17.0537L13.744 16.7617C13.8977 16.5696 14.0513 16.3775 14.2204 16.2007C14.5662 15.8242 14.9351 15.4322 15.3193 15.1018C15.7036 14.7713 16.303 14.2488 16.7795 13.7954C17.0254 13.5648 17.2559 13.3112 17.4942 13.0269C17.6171 12.9039 17.7324 12.781 17.8553 12.6657C18.0157 12.5054 18.1997 12.3707 18.401 12.2661C18.6275 12.1582 18.8728 12.0956 19.1233 12.0817C19.317 12.084 19.5099 12.1045 19.6997 12.1431C20.0225 12.1892 20.3375 12.2507 20.6449 12.3122C21.2652 12.4297 21.8745 12.5993 22.4662 12.8194C23.6269 13.2684 24.7434 13.8241 25.8014 14.4793C26.3411 14.8843 26.8545 15.3232 27.3384 15.7934C27.5843 16.0009 29.1084 17.5669 28.9009 17.613C28.8533 17.6278 28.047 17.8736 27.9995 17.8588C27.3845 17.4113 26.0344 16.1314 25.471 15.7857C24.626 15.1815 23.7161 14.6738 22.7583 14.2718Z" fill="#1F2227"/>
<path d="M33.0859 29.1953L32.548 25.6449C32.5413 25.6146 32.5268 25.5866 32.5058 25.5637C32.4848 25.5408 32.4582 25.5238 32.4286 25.5144C32.399 25.5051 32.3675 25.5037 32.3372 25.5104C32.3068 25.5171 32.2788 25.5317 32.256 25.5527L26.2541 31.4393C26.2298 31.4595 26.212 31.4863 26.2029 31.5166C26.1938 31.5468 26.1937 31.579 26.2027 31.6093C26.2117 31.6396 26.2293 31.6665 26.2535 31.6868C26.2777 31.7071 26.3073 31.7199 26.3387 31.7236L28.3905 32.1539L30.3194 32.1539C30.3371 32.1582 30.3555 32.1582 30.3732 32.1539L32.402 31.5699C32.4311 31.5629 32.4575 31.5475 32.478 31.5256C32.4984 31.5038 32.5121 31.4764 32.5172 31.4469L33.0859 29.2721L33.0859 29.1953Z" fill="#6A36FF"/>
<path d="M32.4562 24.7911C32.9557 26.4587 33.2785 30.8237 32.5561 31.6306C31.9413 32.3146 26.7079 31.8612 25.6398 31.4616" stroke="#1F2227" stroke-width="1.5" stroke-linecap="round" stroke-linejoin="round"/>
<path d="M22.2046 18.6089C22.1989 18.5081 22.1966 18.4513 22.1744 18.367C22.1522 18.2828 21.9483 18.0727 21.9483 18.0727C21.9476 18.0441 21.939 18.0158 21.9235 17.9911L21.8643 17.932C21.6932 17.8277 21.4948 17.781 21.2995 17.799C21.1678 17.8221 21.0428 17.8708 20.9315 17.9423C20.8044 18.0229 20.6723 18.0957 20.536 18.1604C20.4624 18.2108 20.3989 18.2742 20.3485 18.3479C20.2996 18.4086 20.2444 18.4638 20.1838 18.5127L19.8429 18.8536C19.7854 18.9226 19.7418 19.0023 19.7143 19.0886C19.6868 19.1634 19.7675 19.1418 19.7518 19.2284C19.7176 19.3147 19.6884 19.4032 19.6644 19.4933C19.6432 19.5504 19.6307 19.6107 19.6274 19.6722C19.6572 19.7133 19.7424 19.6281 19.697 19.6736C19.532 19.8267 19.6518 19.7306 19.6134 19.84C19.575 19.9493 19.6505 19.9566 19.6919 19.998C19.7269 20.0669 19.7537 20.1394 19.7715 20.214C19.797 20.2511 19.8291 20.2832 19.8662 20.3086C19.9908 20.456 20.1879 20.4599 20.218 20.5127C20.248 20.5655 20.27 20.5079 20.3048 20.5086C20.3396 20.5093 20.4433 20.4766 20.4092 20.5107L20.4773 20.4425C20.6863 20.3652 20.883 20.26 21.0622 20.1297C21.28 20.0066 21.439 19.8345 21.6788 19.5947C21.9186 19.3549 22.1188 18.9667 22.1188 18.9667C22.1633 18.8749 22.2102 18.7097 22.2046 18.6089Z" fill="#1F2227"/>
<path d="M26.9976 23.2532C26.9919 23.1524 26.9896 23.0956 26.9674 23.0113C26.9452 22.927 26.7413 22.717 26.7413 22.717C26.7406 22.6883 26.732 22.6601 26.7165 22.6354L26.6573 22.5763C26.4862 22.472 26.2878 22.4253 26.0925 22.4433C25.9608 22.4664 25.8358 22.515 25.7245 22.5866C25.5974 22.6671 25.4653 22.74 25.329 22.8047C25.2553 22.855 25.1919 22.9185 25.1415 22.9922C25.0926 23.0528 25.0374 23.1081 24.9767 23.1569L24.6358 23.4978C24.5784 23.5669 24.5348 23.6466 24.5072 23.7329C24.4797 23.8077 24.5605 23.7861 24.5448 23.8727C24.5105 23.959 24.4813 24.0475 24.4574 24.1375C24.4362 24.1947 24.4237 24.255 24.4204 24.3165C24.4502 24.3576 24.5354 24.2724 24.49 24.3179C24.325 24.471 24.4447 24.3749 24.4064 24.4842C24.368 24.5936 24.4435 24.6009 24.4849 24.6423C24.5199 24.7111 24.5466 24.7837 24.5645 24.8583C24.5899 24.8954 24.6221 24.9275 24.6591 24.9529C24.7838 25.1003 24.9809 25.1042 25.0109 25.157C25.041 25.2098 25.063 25.1522 25.0978 25.1529C25.1326 25.1536 25.2362 25.1209 25.2021 25.155L25.2703 25.0868C25.4793 25.0095 25.676 24.9043 25.8552 24.774C26.0729 24.6509 26.232 24.4788 26.4718 24.239C26.7116 23.9992 26.9118 23.611 26.9118 23.611C26.9563 23.5192 27.0032 23.354 26.9976 23.2532Z" fill="#1F2227"/>
<path d="M21.7781 24.1543C21.8584 24.0864 21.9329 24.0119 22.0008 23.9316C22.0317 23.9007 22.0317 23.9255 22.0768 23.9215C22.0647 23.8223 22.0998 23.8574 22.0998 23.8327C22.0998 23.8079 22.1864 23.7461 22.2235 23.7089C22.2606 23.6718 22.2714 23.5857 22.2652 23.53C22.259 23.4743 22.3452 23.41 22.2524 23.3544C22.2353 23.2506 22.3292 23.2827 22.2921 23.2332C22.255 23.1837 22.2726 23.226 22.2712 23.1133C22.2889 23.0337 22.2915 23.0223 22.2544 22.9976C22.2173 22.9728 22.283 22.969 22.1979 22.9411C22.1752 22.8855 22.1802 22.9234 22.1402 22.9205L22.1104 22.8536C22.197 22.767 22.1656 22.8363 22.0838 22.827C21.9759 22.7852 22.042 22.8223 22.0049 22.7852L21.9517 22.732C21.9517 22.732 21.8709 22.7378 21.8585 22.7007C21.8462 22.6635 21.7858 22.7016 21.8043 22.6088C21.8229 22.516 21.7595 22.5151 21.7286 22.5089C21.6977 22.5027 21.8092 22.4735 21.6598 22.502C21.5522 22.4067 21.5669 22.508 21.4636 22.4904C21.3874 22.4893 21.3894 22.5099 21.3399 22.5223C21.2904 22.5346 21.3544 22.5078 21.2529 22.5513C21.1829 22.5103 21.2152 22.5522 21.1533 22.5646C21.0915 22.5769 21.2105 22.5692 21.0405 22.566C21.0152 22.5913 20.992 22.5706 20.9616 22.645C20.9616 22.645 20.9848 22.6647 20.9477 22.7018L20.9187 22.7308C20.8221 22.871 20.6956 22.812 20.6523 22.9419C20.5937 23.0563 20.5007 23.1493 20.3863 23.2079C20.3368 23.2574 20.2378 23.2574 19.9657 23.0471C19.8457 22.9716 19.7442 22.8701 19.6687 22.7501C19.6344 22.7029 19.613 22.6474 19.6069 22.5893L19.6193 22.4409C19.6316 22.3419 19.576 22.1749 19.6997 22.1749C19.8234 22.1749 19.6873 22.0883 19.8172 22.1811C19.7244 21.9398 19.9224 21.9646 19.9842 21.878C20.0461 21.7914 20.0455 21.7289 20.2307 21.5825C20.3811 21.432 20.4307 21.3872 20.5906 21.3337C20.9315 21.284 20.9183 21.1789 21.2028 21.1666C21.483 21.1456 21.7648 21.1685 22.0379 21.2346C22.0379 21.2346 22.1307 21.1418 22.1864 21.2594C22.242 21.3769 22.2668 21.3398 22.3472 21.346C22.4276 21.3522 22.4647 21.3521 22.4895 21.4264C22.5823 21.6924 22.7926 21.7295 22.9472 21.8841C23.1019 22.0388 23.1761 22.2244 23.3122 22.3852C23.4483 22.546 23.5163 22.5893 23.5349 22.7192C23.5534 22.8491 23.64 22.8244 23.473 22.9048C23.4421 22.9357 23.5473 22.979 23.572 23.0038C23.5925 23.093 23.6008 23.1845 23.5967 23.2759L23.5596 23.6595C23.5596 23.7337 23.5834 23.7797 23.571 23.8663C23.5687 23.9529 23.5177 24.0148 23.4676 24.0855C23.3957 24.17 23.3915 24.2618 23.307 24.3337C23.2327 24.408 23.2367 24.4396 23.0779 24.5633C22.9049 24.6189 22.7988 24.7791 22.6874 24.8657C22.5771 24.9391 22.4824 25.0337 22.4091 25.1441C22.3596 25.1935 22.2173 25.1502 22.1678 25.1997C21.994 25.1047 21.8389 24.979 21.7101 24.8286L21.6606 24.7791C21.6111 24.6306 21.5059 24.4265 21.574 24.3832C21.6467 24.3112 21.7149 24.2348 21.7781 24.1543Z" fill="#1F2227"/>
<mask id="path-13-inside-1_4374_34996" fill="white">
<path d="M26.1908 30.0225C26.2691 30.2405 25.1824 31.0872 25.0985 31.1596L26.6665 31.5516C27.1779 31.1176 28.2781 30.0737 28.7962 29.6559C29.2497 29.1691 29.7703 28.7495 30.3421 28.4095C30.4482 28.3837 30.5423 28.3224 30.6087 28.2358C30.6752 28.1491 30.71 28.0424 30.7073 27.9332C31.0237 27.7992 31.0792 27.4731 31.359 27.195C31.6389 26.9168 32.0497 26.782 32.1618 26.3264L32.2244 26.331C32.3918 26.4062 32.4027 26.2576 32.4916 26.2248C32.7678 26.1036 32.8545 25.7798 33.0209 25.5484L33.2512 25.1958C33.2991 25.1027 33.3229 24.999 33.3205 24.8943C33.3104 24.8116 33.2775 24.7334 33.2253 24.6684C33.1731 24.6035 33.1038 24.5544 33.0252 24.5267C32.9006 24.4556 32.7565 24.426 32.6139 24.4424C32.4713 24.4588 32.3376 24.5202 32.2324 24.6178C31.8759 24.8778 31.5483 25.1752 31.2553 25.5051C30.9714 25.8379 30.4557 25.9022 30.281 26.3532C30.2768 26.3649 30.27 26.3756 30.2612 26.3845C30.2524 26.3933 30.2418 26.4001 30.2301 26.4045C30.1424 26.4216 30.0418 26.3985 29.9819 26.4649C29.922 26.5312 29.9302 26.634 29.8608 26.7233C29.7913 26.8125 29.6399 26.8406 29.6313 26.9579C29.6386 26.9998 29.6373 27.0428 29.6275 27.0841C29.6178 27.1255 29.5997 27.1645 29.5744 27.1986C29.5491 27.2328 29.5171 27.2615 29.4803 27.2829C29.4436 27.3043 29.4029 27.3181 29.3607 27.3233C29.0327 27.4013 28.846 27.6942 28.6313 27.8356C28.4165 27.9771 28.302 28.2517 27.9707 28.2666C27.9399 28.2701 27.9115 28.2848 27.8909 28.308C27.8704 28.3311 27.8591 28.3611 27.8593 28.3921C27.9014 28.5681 27.7902 28.5835 27.7224 28.6493C27.4912 28.9001 27.2321 29.1237 26.9502 29.3158C26.6628 29.4833 26.6662 29.971 26.2411 29.979C26.1942 29.9756 26.1908 30.0225 26.1908 30.0225Z"/>
</mask>
<path d="M25.0985 31.1596L24.4451 30.4026L22.9856 31.6622L24.8559 32.1298L25.0985 31.1596ZM26.1908 30.0225L25.1934 29.9492L25.1779 30.1608L25.2496 30.3605L26.1908 30.0225ZM26.2411 29.979L26.1678 30.9763L26.2139 30.9797L26.2601 30.9788L26.2411 29.979ZM26.9502 29.3158L27.4538 30.1797L27.4842 30.162L27.5132 30.1422L26.9502 29.3158ZM27.7224 28.6493L27.0257 27.9319L27.0059 27.9512L26.9872 27.9715L27.7224 28.6493ZM27.8593 28.3921L26.8593 28.3984L26.86 28.5131L26.8867 28.6246L27.8593 28.3921ZM27.8909 28.308L28.6386 28.972L28.6386 28.972L27.8909 28.308ZM27.9707 28.2666L27.9256 27.2676L27.8922 27.2692L27.8589 27.2729L27.9707 28.2666ZM29.3607 27.3233L29.2384 26.3308L29.1832 26.3376L29.1292 26.3504L29.3607 27.3233ZM29.4803 27.2829L28.9766 26.4191L28.9765 26.4191L29.4803 27.2829ZM29.5744 27.1986L28.7707 26.6035L28.7707 26.6035L29.5744 27.1986ZM29.6313 26.9579L28.6339 26.8846L28.6249 27.0082L28.6462 27.1303L29.6313 26.9579ZM29.9819 26.4649L29.2397 25.7947L29.2397 25.7947L29.9819 26.4649ZM30.2301 26.4045L30.4218 27.386L30.5022 27.3703L30.579 27.3417L30.2301 26.4045ZM30.2612 26.3845L29.5517 25.6798L29.5517 25.6798L30.2612 26.3845ZM30.281 26.3532L29.3485 25.9921L29.3449 26.0014L29.3415 26.0107L30.281 26.3532ZM31.2553 25.5051L30.5077 24.8409L30.501 24.8485L30.4944 24.8562L31.2553 25.5051ZM32.2324 24.6178L32.8216 25.4258L32.8692 25.3911L32.9123 25.3511L32.2324 24.6178ZM32.6139 24.4424L32.4997 23.4489L32.6139 24.4424ZM33.0252 24.5267L32.5293 25.3951L32.6079 25.44L32.6933 25.47L33.0252 24.5267ZM33.2253 24.6684L34.0049 24.0422L34.0049 24.0422L33.2253 24.6684ZM33.3205 24.8943L34.3202 24.8712L34.3191 24.8222L34.3132 24.7736L33.3205 24.8943ZM33.2512 25.1958L34.0884 25.7427L34.1167 25.6994L34.1404 25.6533L33.2512 25.1958ZM33.0209 25.5484L33.8329 26.132L33.8459 26.1139L33.8581 26.0953L33.0209 25.5484ZM32.4916 26.2248L32.8376 27.1631L32.8658 27.1527L32.8934 27.1405L32.4916 26.2248ZM32.2244 26.331L32.6341 25.4188L32.4734 25.3466L32.2977 25.3337L32.2244 26.331ZM32.1618 26.3264L32.2351 25.3291L31.3926 25.2671L31.1908 26.0874L32.1618 26.3264ZM30.7073 27.9332L30.3175 27.0123L29.6912 27.2775L29.7076 27.9574L30.7073 27.9332ZM30.6087 28.2358L29.8152 27.6273L29.8152 27.6273L30.6087 28.2358ZM30.3421 28.4095L30.106 27.4378L29.9601 27.4732L29.8311 27.5499L30.3421 28.4095ZM28.7962 29.6559L29.424 30.4342L29.4793 30.3896L29.5278 30.3376L28.7962 29.6559ZM26.6665 31.5516L26.4239 32.5218L26.9221 32.6463L27.3136 32.3141L26.6665 31.5516ZM25.7518 31.9167C25.7206 31.9436 26.1099 31.6298 26.3787 31.3851C26.5249 31.2519 26.6973 31.086 26.8347 30.9202C26.9006 30.8408 26.9905 30.7236 27.0617 30.5831C27.1043 30.499 27.2912 30.1278 27.1319 29.6844L25.2496 30.3605C25.1743 30.1507 25.1923 29.9703 25.2121 29.8723C25.2321 29.7736 25.264 29.7061 25.2778 29.6788C25.3043 29.6266 25.3215 29.6119 25.2951 29.6437C25.2483 29.7002 25.1584 29.7914 25.0322 29.9062C24.9126 30.0152 24.7848 30.1234 24.6784 30.2114C24.6257 30.2549 24.5794 30.2925 24.5425 30.3225C24.516 30.344 24.4707 30.3805 24.4451 30.4026L25.7518 31.9167ZM26.1908 30.0225C27.1881 30.0957 27.188 30.0962 27.188 30.0967C27.188 30.0969 27.188 30.0974 27.1879 30.0977C27.1879 30.0984 27.1878 30.099 27.1878 30.0997C27.1877 30.101 27.1876 30.1023 27.1875 30.1036C27.1872 30.1063 27.187 30.109 27.1868 30.1117C27.1863 30.1171 27.1857 30.1227 27.1851 30.1284C27.1839 30.1398 27.1824 30.1519 27.1806 30.1646C27.1769 30.1897 27.1716 30.219 27.1637 30.2514C27.1491 30.3116 27.1198 30.4065 27.0576 30.511C26.9931 30.6193 26.8826 30.7548 26.7057 30.8548C26.5222 30.9586 26.3306 30.9883 26.1678 30.9763L26.3144 28.9817C26.1282 28.968 25.9186 29.0023 25.7213 29.1139C25.5305 29.2218 25.4103 29.3683 25.3391 29.4879C25.2701 29.6038 25.2371 29.7101 25.2203 29.779C25.2114 29.8157 25.2055 29.8487 25.2014 29.8763C25.1994 29.8903 25.1978 29.9034 25.1965 29.9155C25.1958 29.9216 25.1953 29.9274 25.1948 29.933C25.1945 29.9358 25.1943 29.9386 25.1941 29.9413C25.194 29.9426 25.1938 29.944 25.1937 29.9453C25.1937 29.9459 25.1936 29.9466 25.1936 29.9473C25.1936 29.9476 25.1935 29.9481 25.1935 29.9482C25.1935 29.9487 25.1934 29.9492 26.1908 30.0225ZM26.2601 30.9788C26.5794 30.9728 26.8672 30.8687 27.1027 30.6865C27.3125 30.5242 27.4372 30.3321 27.4998 30.2299C27.531 30.179 27.5634 30.1218 27.5776 30.0972C27.597 30.0636 27.6043 30.052 27.6074 30.0475C27.6143 30.0372 27.5668 30.1138 27.4538 30.1797L26.4467 28.4518C26.1899 28.6015 26.035 28.8019 25.9485 28.9303C25.9048 28.9953 25.8688 29.0569 25.8456 29.0971C25.8172 29.1462 25.8077 29.1634 25.7948 29.1845C25.7692 29.2262 25.797 29.168 25.879 29.1046C25.9251 29.0689 25.9831 29.0352 26.0509 29.0114C26.1182 28.9878 26.1779 28.98 26.2222 28.9792L26.2601 30.9788ZM27.5132 30.1422C27.858 29.9073 28.1749 29.6339 28.4577 29.3271L26.9872 27.9715C26.8076 28.1663 26.6062 28.3401 26.3872 28.4893L27.5132 30.1422ZM28.4191 29.3667C28.365 29.4192 28.3077 29.4561 28.3501 29.4265C28.3639 29.4169 28.471 29.3457 28.5718 29.2349C28.6913 29.1035 28.7986 28.9243 28.8449 28.6975C28.888 28.4868 28.8652 28.2991 28.8319 28.1595L26.8867 28.6246C26.8744 28.5731 26.8535 28.4533 26.8854 28.2971C26.9206 28.1248 27.0038 27.9865 27.0923 27.8891C27.1621 27.8124 27.2313 27.7684 27.2065 27.7857C27.2052 27.7866 27.1771 27.8059 27.1506 27.8258C27.1207 27.8481 27.0753 27.8838 27.0257 27.9319L28.4191 29.3667ZM28.8592 28.3857C28.8606 28.6019 28.7819 28.8107 28.6386 28.972L27.1432 27.6439C26.9588 27.8516 26.8575 28.1203 26.8593 28.3984L28.8592 28.3857ZM28.6386 28.972C28.4952 29.1335 28.2971 29.2362 28.0824 29.2604L27.8589 27.2729C27.5827 27.304 27.3278 27.4361 27.1432 27.6439L28.6386 28.972ZM28.0158 29.2656C28.502 29.2437 28.8264 29.0123 29.0178 28.8381C29.0867 28.7754 29.1801 28.6786 29.1892 28.6696C29.2222 28.6368 29.2128 28.65 29.1812 28.6708L28.0813 27.0005C27.9423 27.092 27.8381 27.1926 27.7788 27.2515C27.7536 27.2766 27.7155 27.3156 27.7045 27.3268C27.6856 27.3458 27.6765 27.3545 27.6715 27.3591C27.6617 27.368 27.687 27.3428 27.7396 27.3168C27.7993 27.2872 27.8655 27.2704 27.9256 27.2676L28.0158 29.2656ZM29.1812 28.6708C29.3048 28.5894 29.4051 28.4995 29.4665 28.4431C29.4971 28.4149 29.5319 28.382 29.5532 28.3622C29.5782 28.3387 29.5969 28.3215 29.6137 28.3068C29.6853 28.2438 29.6655 28.2786 29.5923 28.2961L29.1292 26.3504C28.7279 26.4459 28.4507 26.6663 28.2933 26.8046C28.2283 26.8617 28.1342 26.9511 28.1129 26.9707C28.0687 27.0114 28.0651 27.0111 28.0813 27.0005L29.1812 28.6708ZM29.483 28.3157C29.6598 28.294 29.8303 28.2364 29.9841 28.1467L28.9765 26.4191C29.0569 26.3722 29.146 26.3421 29.2384 26.3308L29.483 28.3157ZM29.9841 28.1467C30.138 28.057 30.272 27.9369 30.378 27.7938L28.7707 26.6035C28.8261 26.5287 28.8962 26.466 28.9766 26.4191L29.9841 28.1467ZM30.378 27.7938C30.4839 27.6507 30.5597 27.4875 30.6007 27.3142L28.6544 26.8541C28.6758 26.7635 28.7154 26.6782 28.7707 26.6035L30.378 27.7938ZM30.6007 27.3142C30.6417 27.1408 30.647 26.9609 30.6163 26.7855L28.6462 27.1303C28.6302 27.0387 28.6329 26.9447 28.6544 26.8541L30.6007 27.3142ZM30.6286 27.0312C30.6217 27.1247 30.5996 27.2172 30.563 27.3045C30.5269 27.3904 30.4821 27.459 30.4405 27.5107C30.3999 27.5612 30.3619 27.5964 30.3373 27.6173C30.313 27.638 30.2948 27.6506 30.2911 27.6532C30.289 27.6546 30.2878 27.6554 30.3048 27.6443C30.3168 27.6365 30.3441 27.6188 30.3737 27.5979C30.4297 27.5583 30.5442 27.4733 30.6499 27.3375L29.0716 26.1091C29.1426 26.0178 29.2121 25.9698 29.2199 25.9643C29.2255 25.9603 29.2279 25.9589 29.215 25.9673C29.2072 25.9724 29.1813 25.9891 29.1553 26.007C29.0796 26.0592 28.6746 26.3314 28.6339 26.8846L30.6286 27.0312ZM30.6499 27.3375C30.7317 27.2324 30.7847 27.1304 30.82 27.0479C30.8525 26.9719 30.8734 26.9028 30.8793 26.884C30.884 26.8692 30.8836 26.8704 30.8828 26.8729C30.8814 26.8769 30.8759 26.893 30.8664 26.9152C30.8468 26.9609 30.8046 27.046 30.7242 27.135L29.2397 25.7947C29.1293 25.917 29.0657 26.0398 29.0286 26.1262C28.9957 26.2029 28.9736 26.2772 28.9705 26.2869C28.9538 26.3403 28.9819 26.2243 29.0716 26.1091L30.6499 27.3375ZM30.7242 27.135C30.62 27.2504 30.4998 27.3218 30.3943 27.3626C30.2988 27.3995 30.2231 27.4083 30.2019 27.4106C30.1895 27.4119 30.1823 27.4122 30.1865 27.412C30.1885 27.4119 30.1912 27.4117 30.197 27.4114C30.2019 27.4112 30.2103 27.4107 30.219 27.4102C30.2497 27.4085 30.3293 27.404 30.4218 27.386L30.0384 25.423C30.0871 25.4135 30.1212 25.4126 30.1064 25.4134C30.1038 25.4136 30.1008 25.4137 30.0944 25.4141C30.089 25.4143 30.0803 25.4148 30.0711 25.4153C30.0529 25.4164 30.0235 25.4182 29.9893 25.4219C29.8657 25.4351 29.5193 25.4851 29.2397 25.7947L30.7242 27.135ZM30.579 27.3417C30.727 27.2866 30.8605 27.2001 30.9707 27.0891L29.5517 25.6798C29.6443 25.5865 29.7566 25.5137 29.8812 25.4673L30.579 27.3417ZM30.9707 27.0892C31.0808 26.9783 31.1664 26.8442 31.2206 26.6957L29.3415 26.0107C29.3871 25.8857 29.4591 25.7729 29.5517 25.6798L30.9707 27.0892ZM31.2135 26.7143C31.1758 26.8119 31.1005 26.8289 31.2494 26.7376C31.2878 26.7141 31.3218 26.6945 31.3782 26.661C31.4285 26.6312 31.4918 26.5932 31.5576 26.5499C31.6885 26.4638 31.8597 26.3374 32.0162 26.1539L30.4944 24.8562C30.5089 24.8392 30.5092 24.8457 30.4581 24.8793C30.3781 24.9319 30.3565 24.9392 30.2049 25.0321C29.9814 25.169 29.5609 25.4436 29.3485 25.9921L31.2135 26.7143ZM32.0028 26.1692C32.2484 25.8929 32.5229 25.6436 32.8216 25.4258L31.6432 23.8098C31.2289 24.1119 30.8482 24.4576 30.5077 24.8409L32.0028 26.1692ZM32.9123 25.3511C32.8615 25.3982 32.7969 25.4279 32.728 25.4358L32.4997 23.4489C32.1457 23.4896 31.8138 23.6422 31.5525 23.8845L32.9123 25.3511ZM32.728 25.4358C32.6591 25.4438 32.5895 25.4295 32.5293 25.3951L33.5211 23.6584C33.2117 23.4816 32.8539 23.4082 32.4997 23.4489L32.728 25.4358ZM32.6933 25.47C32.5961 25.4358 32.5103 25.3751 32.4457 25.2947L34.0049 24.0422C33.8359 23.8318 33.6115 23.6729 33.3571 23.5834L32.6933 25.47ZM32.4457 25.2947C32.3811 25.2143 32.3403 25.1174 32.3278 25.0151L34.3132 24.7736C34.2806 24.5058 34.1738 24.2525 34.0049 24.0422L32.4457 25.2947ZM32.3208 24.9175C32.3193 24.8553 32.3335 24.7937 32.362 24.7383L34.1404 25.6533C34.2647 25.4117 34.3265 25.1428 34.3202 24.8712L32.3208 24.9175ZM32.414 24.6489L32.1837 25.0015L33.8581 26.0953L34.0884 25.7427L32.414 24.6489ZM32.2089 24.9647C32.1305 25.0738 32.07 25.1815 32.0317 25.2507C31.9848 25.3355 31.9682 25.3674 31.9459 25.4036C31.9061 25.4682 31.9491 25.3708 32.0898 25.3091L32.8934 27.1405C33.3103 26.9576 33.5347 26.6378 33.6489 26.4523C33.7036 26.3635 33.7571 26.2634 33.7819 26.2187C33.8153 26.1582 33.8281 26.1387 33.8329 26.132L32.2089 24.9647ZM32.1456 25.2866C31.8994 25.3774 31.7516 25.5332 31.7035 25.585C31.6839 25.606 31.6522 25.6425 31.6621 25.6312C31.6623 25.6311 31.6635 25.6297 31.6655 25.6275C31.6675 25.6253 31.6706 25.6219 31.6746 25.6177C31.6823 25.6095 31.6951 25.5964 31.7121 25.5809C31.785 25.5141 31.9414 25.3967 32.177 25.3616C32.3994 25.3285 32.5656 25.388 32.6341 25.4188L31.8147 27.2432C31.9669 27.3116 32.1972 27.3807 32.4716 27.3398C32.759 27.297 32.9551 27.1545 33.0628 27.0559C33.1118 27.011 33.1482 26.9699 33.1621 26.9541C33.1879 26.9248 33.1717 26.943 33.1683 26.9467C33.1525 26.9637 33.0393 27.0887 32.8376 27.1631L32.1456 25.2866ZM32.2977 25.3337L32.2351 25.3291L32.0885 27.3237L32.1511 27.3283L32.2977 25.3337ZM31.1908 26.0874C31.2059 26.026 31.2506 26.0032 31.1861 26.0565C31.138 26.0963 31.0964 26.1249 30.9922 26.2019C30.9052 26.2662 30.7782 26.3623 30.6541 26.4857L32.064 27.9043C32.0797 27.8886 32.1091 27.8635 32.1813 27.81C32.2364 27.7693 32.357 27.6836 32.4606 27.5979C32.6995 27.4003 33.0056 27.0823 33.1329 26.5653L31.1908 26.0874ZM30.6541 26.4857C30.526 26.613 30.4311 26.7386 30.3604 26.8412C30.3257 26.8915 30.2951 26.9388 30.2715 26.9756C30.2452 27.0166 30.2302 27.0404 30.214 27.0648C30.1543 27.1545 30.1971 27.0633 30.3175 27.0123L31.0972 28.8541C31.534 28.6692 31.7627 28.3479 31.8798 28.1716C32.0186 27.9626 32.0185 27.9495 32.064 27.9043L30.6541 26.4857ZM29.7076 27.9574C29.7047 27.8383 29.7427 27.7218 29.8152 27.6273L31.4023 28.8442C31.6077 28.5764 31.7152 28.2464 31.707 27.909L29.7076 27.9574ZM29.8152 27.6273C29.8877 27.5327 29.9903 27.4659 30.106 27.4378L30.5783 29.3812C30.9062 29.3015 31.197 29.1121 31.4023 28.8442L29.8152 27.6273ZM29.8311 27.5499C29.1777 27.9384 28.5829 28.418 28.0646 28.9741L29.5278 30.3376C29.9166 29.9203 30.3629 29.5605 30.8532 29.269L29.8311 27.5499ZM28.1684 28.8775C27.8809 29.1093 27.4516 29.4978 27.0557 29.8581C26.642 30.2347 26.2579 30.5868 26.0194 30.7892L27.3136 32.3141C27.5865 32.0824 28.0082 31.6956 28.4019 31.3372C28.8135 30.9626 29.1933 30.6203 29.424 30.4342L28.1684 28.8775ZM26.909 30.5815L25.341 30.1895L24.8559 32.1298L26.4239 32.5218L26.909 30.5815Z" fill="#1F2227" mask="url(#path-13-inside-1_4374_34996)"/>
<path fill-rule="evenodd" clip-rule="evenodd" d="M14.0209 10.6147C14.0209 10.1059 13.8701 9.60856 13.5874 9.18551C13.3047 8.76247 12.903 8.43275 12.4329 8.23804C11.9628 8.04334 11.4456 7.99241 10.9466 8.09167C10.4476 8.19093 9.98922 8.43594 9.62945 8.79571C9.26968 9.15547 9.02468 9.61384 8.92542 10.1129C8.82616 10.6119 8.87706 11.1291 9.07177 11.5992C9.26647 12.0692 9.59619 12.471 10.0192 12.7537C10.4423 13.0363 10.9397 13.1872 11.4485 13.1872C11.6702 13.1883 11.891 13.1585 12.1045 13.0988C12.161 13.372 12.2903 13.6249 12.4788 13.8307C12.6673 14.0365 12.9078 14.1875 13.1751 14.2678C13.4423 14.3481 13.7263 14.3546 13.997 14.2867C14.2677 14.2188 14.5149 14.079 14.7126 13.882C14.9104 13.6851 15.0512 13.4384 15.1202 13.168C15.1892 12.8976 15.1838 12.6136 15.1046 12.346C15.0254 12.0785 14.8754 11.8373 14.6703 11.648C14.4653 11.4587 14.2129 11.3283 13.9399 11.2707C13.9935 11.0562 14.0207 10.8359 14.0209 10.6147Z" fill="#EBEFF9"/>
<path d="M15.4648 11.4801C15.7169 11.8579 15.8527 12.3012 15.8555 12.7553C15.8555 12.9322 15.7596 13.0723 15.8555 13.2934C15.9513 13.5145 15.6712 13.5072 15.6122 13.6398C15.4311 14.0244 15.1383 14.3455 14.7719 14.5612C14.427 14.808 14.0165 14.9465 13.5926 14.9593C13.168 14.9138 12.7569 14.7835 12.3837 14.576C12.2211 14.5068 12.0844 14.3882 11.9931 14.2369C11.9415 14.1632 11.9046 14.0895 11.8604 14.0158C11.835 13.9626 11.8028 13.9131 11.7646 13.8683H11.713C11.713 13.8683 11.6614 13.8683 11.6466 13.8241C11.627 13.7924 11.599 13.7669 11.5656 13.7504H11.4992C11.4454 13.743 11.3909 13.743 11.3371 13.7504C11.1995 13.7967 11.0545 13.8167 10.9095 13.8094C10.7695 13.8094 10.6442 13.6546 10.4599 13.8094C10.4599 13.8094 10.3935 13.7651 10.3788 13.7283C10.3372 13.6534 10.2745 13.5925 10.1984 13.5532C10.1224 13.5139 10.0364 13.4979 9.95131 13.5072C9.8249 13.5062 9.70261 13.462 9.60485 13.3819C9.31868 13.2103 9.06838 12.9851 8.86775 12.7185C8.74309 12.5065 8.64178 12.2815 8.56556 12.0477C8.42223 11.8281 8.34306 11.5728 8.33704 11.3106C8.35916 11.0876 8.35916 10.8629 8.33704 10.6398C8.33704 10.5145 8.44023 10.3819 8.24121 10.2639C8.24121 10.2639 8.24121 10.205 8.24121 10.1828C8.53605 9.87326 8.30019 9.44574 8.52869 9.12879C8.72941 8.79733 8.95881 8.4841 9.21421 8.19268C9.28792 8.11897 9.40585 8.08947 9.39111 7.91993C9.37637 7.7504 9.4722 7.77988 9.53854 7.77988C9.88498 7.77988 10.084 7.52927 10.3862 7.46293C10.6954 7.32127 11.0432 7.28753 11.3739 7.36711C11.4533 7.41196 11.5452 7.42976 11.6356 7.41779C11.726 7.40582 11.8101 7.36474 11.8751 7.30077C11.9636 7.23443 12.1184 7.30077 12.2437 7.345C12.369 7.38922 12.4648 7.2934 12.5606 7.345C12.6565 7.39659 12.7007 7.4703 12.7744 7.52927C12.7828 7.54093 12.7938 7.55038 12.8067 7.5568C12.8195 7.56322 12.8338 7.56644 12.8481 7.56614C13.4009 7.56614 13.6589 8.1337 13.998 8.45802C14.3587 8.8115 14.5964 9.2714 14.6761 9.77006C14.7211 9.9131 14.7113 10.0677 14.6486 10.204C14.586 10.3402 14.4749 10.4482 14.337 10.5072C14.2698 10.546 14.1935 10.5664 14.1159 10.5664C14.0383 10.5664 13.962 10.546 13.8948 10.5072C13.8249 10.4543 13.765 10.3894 13.7179 10.3155C13.6766 10.2168 13.6247 10.1229 13.5631 10.0354C13.4451 9.84379 13.224 9.74057 13.2019 9.53419C13.2019 9.46048 13.0692 9.46048 13.2019 9.3278C13.3346 9.19512 13.2019 9.27622 13.2019 9.27622C12.8407 9.21725 12.7596 8.93715 12.5017 8.81184C12.2437 8.68653 12.0226 8.81185 11.8309 8.72339C11.8122 8.7541 11.7874 8.78066 11.7581 8.80149C11.7288 8.82232 11.6955 8.83697 11.6603 8.84455C11.6252 8.85213 11.5889 8.8525 11.5536 8.84561C11.5183 8.83871 11.4847 8.82471 11.455 8.80446C11.0127 8.61282 10.5999 8.92976 10.2904 9.18775C9.9535 9.4737 9.73752 9.87668 9.68592 10.3155C9.68592 10.3892 9.78175 10.4629 9.68592 10.544C9.5901 10.6251 9.68592 10.7357 9.68592 10.8241C9.68592 10.9126 9.75226 10.9863 9.73015 11.0821C9.61958 11.4801 9.9439 11.7823 10.1871 12.0256C10.4321 12.3009 10.7714 12.4745 11.138 12.5121C11.2477 12.5124 11.3568 12.4975 11.4624 12.4679L11.7203 12.4236L12.0742 12.3794C12.2584 12.3794 12.5606 12.2172 12.6196 12.4163C12.6196 12.4163 12.767 12.5563 12.8039 12.689C12.8469 12.8541 12.9061 13.0147 12.9808 13.1681C13.0066 13.2164 13.0389 13.2611 13.0766 13.3008C13.1738 13.4158 13.3057 13.496 13.4525 13.5293C13.5484 13.5293 13.6368 13.4777 13.7179 13.4556L13.9538 13.404C14.0729 13.3999 14.1892 13.367 14.2928 13.3081C14.4034 13.2271 14.3887 13.0797 14.5066 12.9986C14.6245 12.9175 14.654 12.5121 14.5582 12.2983C14.5078 12.1822 14.4351 12.0771 14.3444 11.9887C14.2912 11.9379 14.2286 11.8978 14.1601 11.8708C13.9863 11.8034 13.9256 11.5107 13.7417 11.4801C13.6205 11.2143 13.8884 10.9367 13.791 10.8933C13.9104 10.6279 13.813 10.6511 13.8948 10.3718C13.8948 10.1801 14.2303 10.286 14.3925 10.3155C14.4203 10.324 14.6281 9.78512 14.6486 9.8057C14.7813 10.0121 14.6687 10.7873 14.6761 10.8315H14.7425C14.7867 10.8315 14.7424 10.8315 14.8899 10.9199C15.1141 11.07 15.309 11.2599 15.4648 11.4801Z" fill="#1F2227"/>
</svg>
