<svg width="41" height="40" viewBox="0 0 41 40" fill="none" xmlns="http://www.w3.org/2000/svg">
<circle cx="20.9688" cy="20" r="20" fill="#E6EDFE"/>
<path d="M15.3701 21.719H26.5953V32.1958C26.5943 32.4489 26.5249 32.6969 26.3945 32.9138C26.264 33.1306 26.0773 33.3081 25.8542 33.4275C25.6311 33.5469 25.3798 33.6038 25.1271 33.592C24.8743 33.5803 24.6294 33.5004 24.4183 33.3609L21.7651 31.592C21.5346 31.4385 21.2639 31.3565 20.9869 31.3565C20.71 31.3565 20.4393 31.4385 20.2088 31.592L17.5556 33.3609C17.3444 33.5027 17.0987 33.5845 16.8446 33.5974C16.5905 33.6103 16.3377 33.5539 16.1132 33.4343C15.8887 33.3146 15.701 33.1361 15.5701 32.918C15.4392 32.6998 15.3701 32.4502 15.3701 32.1958V21.719Z" fill="#6A36FF"/>
<path d="M16.0579 25.9709C16.0579 26.7193 16.0579 27.4676 16.0579 28.2245C16.0579 28.4966 15.9729 28.7857 16.1685 29.0749C16.262 29.2194 16.0324 29.4916 16.0409 29.7467C16.0409 30.444 16.0409 31.1498 16.0409 31.8471V32.2978C16.0591 32.3779 16.0939 32.4532 16.143 32.519C16.2301 32.6416 16.3559 32.7314 16.5002 32.7741C16.8063 32.8676 16.9509 32.9101 17.5631 32.3404C18 32.0309 18.4542 31.747 18.9238 31.49C19.1534 31.3114 19.383 31.1328 19.6211 30.9712C19.9838 30.7101 20.4249 30.5811 20.8712 30.6056C21.1693 30.6365 21.4583 30.7261 21.7216 30.8692C21.8475 30.9391 21.9695 31.0157 22.0872 31.0988L22.3508 31.2604C22.5937 31.3473 22.8297 31.4524 23.0567 31.575C23.2693 31.7196 23.4564 31.9662 23.7625 31.8982C23.7625 31.8982 23.8645 31.9917 23.8986 32.0512C23.9696 32.1777 24.0672 32.2873 24.1846 32.3725C24.302 32.4576 24.4366 32.5163 24.5789 32.5445C24.6894 32.5445 24.8255 32.638 24.8595 32.638H24.9615C25.05 32.6569 25.1418 32.6528 25.2282 32.626C25.3146 32.5992 25.3926 32.5506 25.4548 32.4849C25.5114 32.4393 25.5602 32.3847 25.5993 32.3234C25.6232 32.2779 25.6404 32.2292 25.6504 32.1788V31.8556C25.6075 31.4088 25.6075 30.9589 25.6504 30.512C25.7415 30.1134 25.7787 29.7044 25.7609 29.296C25.7609 29.0579 25.863 28.7942 25.6334 28.5986C25.6334 28.5986 25.6334 28.4966 25.6334 28.4541C25.931 27.7908 25.5398 27.1445 25.6334 26.4727C25.6802 25.7733 25.6802 25.0716 25.6334 24.3722C25.6334 24.1851 25.7014 23.9895 25.5313 23.8194C25.5054 23.7635 25.492 23.7025 25.492 23.6409C25.492 23.5792 25.5054 23.5182 25.5313 23.4623C25.6311 23.2229 25.6775 22.9646 25.6674 22.7054C25.6674 22.6629 25.6674 22.6374 25.6674 22.5779H25.5313H25.2252C25.0811 22.5627 24.9388 22.5342 24.8 22.4928C24.6488 22.4414 24.4881 22.4239 24.3294 22.4416C24.1707 22.4592 24.0178 22.5115 23.8816 22.5949C23.737 22.6884 23.4393 22.5949 23.2182 22.5949C22.9971 22.5949 22.8611 22.7054 22.6825 22.7139C22.5218 22.6914 22.3646 22.6485 22.2148 22.5864H22.0702C21.2198 22.833 20.3014 22.5013 19.4085 22.5864C18.5106 22.6374 17.6106 22.6374 16.7128 22.5864C16.4658 22.6056 16.2175 22.5707 15.9855 22.4841C15.7534 22.3974 15.543 22.2611 15.3691 22.0846C15.2161 21.8976 15.2161 21.6935 15.4287 21.5744C15.5858 21.4795 15.7586 21.4132 15.9389 21.3788L16.7893 21.2598C17.3456 21.1252 17.9183 21.0708 18.4901 21.0982C18.6687 21.0982 18.8898 21.0216 19.0428 21.2087C19.0625 21.2192 19.0844 21.2246 19.1066 21.2246C19.1288 21.2246 19.1507 21.2192 19.1704 21.2087C19.9664 21.0375 20.785 20.9973 21.594 21.0897C22.2659 20.9821 22.946 20.9337 23.6264 20.9451C23.8323 20.8428 24.0567 20.7833 24.2861 20.7701C24.5156 20.757 24.7454 20.7905 24.9615 20.8686L25.3612 20.9281H25.5653H25.9055H27.3682V22.9435C27.3682 23.3517 27.3682 23.7939 27.3682 24.1681C27.3682 25.5457 27.3682 26.9234 27.3682 28.301C27.3682 28.5306 27.4957 28.7347 27.3682 29.0068C27.3254 29.2887 27.3254 29.5754 27.3682 29.8572C27.3998 30.1398 27.3998 30.425 27.3682 30.7076C27.307 30.9733 27.2671 31.2434 27.2491 31.5155V31.9152C27.2491 32.0597 27.2491 32.1703 27.2491 32.3914C27.214 32.7914 27.0612 33.1721 26.81 33.4854C26.5588 33.7987 26.2203 34.0306 25.8375 34.1517C25.4524 34.2709 25.0404 34.2709 24.6554 34.1517C24.4668 34.0971 24.2865 34.017 24.1197 33.9136L23.771 33.6755C23.3203 33.3778 22.8696 33.0887 22.4104 32.8251C22.1212 32.655 21.8321 32.5104 21.56 32.3489L21.3474 32.2383L21.2453 32.1958C21.1787 32.1738 21.1104 32.1567 21.0412 32.1448C20.9052 32.1448 20.8457 32.2553 20.6331 32.1448C20.5735 32.1448 20.4205 32.4084 20.2844 32.5104C19.9187 32.7741 19.5361 33.0122 19.1619 33.2673L18.3795 33.7775L17.9628 34.0496C17.7579 34.1852 17.5304 34.2831 17.291 34.3388C16.9948 34.4289 16.6832 34.4565 16.3758 34.4199C16.0684 34.3833 15.7719 34.2833 15.5052 34.1262C15.2173 33.9508 14.9749 33.71 14.7976 33.4234C14.6203 33.1367 14.5131 32.8123 14.4847 32.4764C14.4764 32.3774 14.4764 32.2778 14.4847 32.1788V31.9832V31.609C14.4847 31.3539 14.5358 31.1073 14.5443 30.8522C14.5058 30.3285 14.5058 29.8027 14.5443 29.279C14.6659 28.3517 14.7029 27.4152 14.6548 26.4812C14.6548 25.5627 14.6548 24.6273 14.6548 23.7089C14.6548 23.1816 14.8164 22.7054 14.8079 22.1952C14.8079 21.9571 15.3436 21.6339 15.5307 21.7275C15.5696 21.7511 15.5996 21.787 15.6157 21.8295C15.8505 22.3117 15.9919 22.834 16.0324 23.3687C16.0409 24.2701 16.0579 25.1205 16.0579 25.9709Z" fill="#1F2227"/>
<path d="M20.9821 25.3158C26.0216 25.3158 30.1068 21.2305 30.1068 16.1911C30.1068 11.1517 26.0216 7.06641 20.9821 7.06641C15.9427 7.06641 11.8574 11.1517 11.8574 16.1911C11.8574 21.2305 15.9427 25.3158 20.9821 25.3158Z" fill="#EBEFF9"/>
<path d="M16.4575 9.09913C15.735 9.56619 15.0871 10.1396 14.5357 10.7999C14.3571 11.055 14.0679 11.2591 14.0509 11.6503C14.0509 11.8459 13.6853 11.9819 13.5577 12.2456C13.1924 12.9609 12.9236 13.7216 12.7583 14.5076C12.652 15.275 12.652 16.0533 12.7583 16.8207C12.7699 17.5855 12.9438 18.3391 13.2686 19.0317C13.484 19.5937 13.7398 20.1394 14.0339 20.6645C14.2125 20.9366 14.4506 21.1662 14.6377 21.4298C14.8248 21.6934 15.0459 21.9315 15.25 22.1696C15.4541 22.4077 15.5476 22.5353 15.7092 22.7054C15.8793 22.861 16.0613 23.0032 16.2534 23.1306C16.5086 23.2752 16.8062 23.3007 17.1038 23.4707C17.4015 23.6408 17.6141 23.8449 17.9542 23.7344C17.9542 23.7344 18.0903 23.8024 18.1413 23.8534C18.2484 23.9694 18.3809 24.0589 18.5285 24.115C18.6761 24.1711 18.8346 24.1922 18.9917 24.1766C19.2284 24.1734 19.4647 24.1933 19.6975 24.2361C20.0123 24.2893 20.3307 24.3178 20.65 24.3211C20.9699 24.3424 21.2909 24.3424 21.6109 24.3211C21.849 24.3211 22.0871 24.3211 22.3252 24.3211C22.5682 24.3215 22.8105 24.2959 23.0481 24.2446C23.5498 24.1511 24.0175 23.8704 24.4852 23.7769C24.942 23.6707 25.3728 23.474 25.7523 23.1986C25.9649 23.0455 26.2796 22.935 26.3051 22.6289C26.3373 22.5816 26.3813 22.5435 26.4326 22.5183C27.215 22.2547 27.4191 21.4128 27.9038 20.86C28.3822 20.2292 28.7371 19.5137 28.9498 18.7511C29.005 18.6554 29.0396 18.5492 29.0514 18.4394C29.0631 18.3295 29.0516 18.2184 29.0178 18.1133C28.9753 18.0367 29.0178 17.8326 29.0773 17.7306C29.3261 17.1794 29.4173 16.5701 29.341 15.9703C29.341 15.2815 29.1709 14.6267 29.1454 13.9123C29.1514 13.7317 29.1163 13.5521 29.0426 13.3871C28.969 13.2221 28.8587 13.076 28.7202 12.9599C28.5586 12.8579 28.5076 12.5177 28.38 12.2966C28.2525 12.0755 28.0654 12.016 27.9633 11.8459C27.8613 11.6758 27.8528 11.5057 27.7762 11.3441C27.7522 11.2921 27.7174 11.2458 27.6742 11.2081C26.9003 10.5788 26.3986 9.6774 25.4972 9.18417C24.6158 8.68501 23.6721 8.30469 22.6909 8.05314C22.4149 8.00659 22.1443 7.93254 21.883 7.83205C21.6174 7.74926 21.3774 7.59996 21.1857 7.39835C21.0071 7.20276 20.9986 6.99867 21.2708 6.89662C21.4799 6.80216 21.7049 6.74737 21.9341 6.73504C22.2997 6.73504 22.6654 6.73503 23.0311 6.77755C23.8023 6.80065 24.5583 6.99836 25.2421 7.35581C25.4462 7.49187 25.7693 7.50889 25.8459 7.78952C25.8748 7.84292 25.9237 7.88267 25.9819 7.90007C26.9868 8.29258 27.8555 8.96928 28.4821 9.84748C29.159 10.4669 29.7004 11.2197 30.0723 12.0585C30.2863 12.2462 30.4476 12.4866 30.54 12.7558C30.6486 13.0132 30.7174 13.2856 30.7441 13.5637C31.0908 15.3677 31.0356 17.2259 30.5825 19.0062C30.0387 20.7879 29.0149 22.3855 27.6232 23.6238C27.428 23.8819 27.1783 24.0939 26.8918 24.2446C26.5373 24.4332 26.1963 24.6463 25.8714 24.8824C25.5542 25.0753 25.2179 25.2348 24.8679 25.3586C23.4877 25.7674 22.0554 25.9736 20.6159 25.9709C19.1714 25.8744 17.7593 25.499 16.4575 24.8654C15.6476 24.5224 14.9048 24.0387 14.2635 23.4367C13.9361 23.2156 13.6862 22.8974 13.5492 22.5268C13.5492 22.4248 13.192 22.2377 13.0305 22.0506C12.8381 21.8141 12.6674 21.5608 12.5202 21.2937C12.3569 21.0394 12.2147 20.772 12.095 20.4944C11.7337 19.732 11.4626 18.93 11.2872 18.1048C11.1488 17.6058 11.0493 17.0969 10.9895 16.5826C10.9618 16.2998 10.9618 16.015 10.9895 15.7322C10.995 15.4469 11.0234 15.1625 11.0746 14.8818C11.1984 14.2059 11.3922 13.5447 11.6528 12.9089C11.851 12.2299 12.1614 11.5889 12.5712 11.0125C13.3058 10.0135 14.1629 9.11065 15.1224 8.32527C16.119 7.60155 17.228 7.04704 18.4049 6.68402C19.058 6.5407 19.7267 6.48068 20.3948 6.50542C22.5963 6.74439 21.4702 7.02877 21.3512 7.21586C21.3219 7.25837 22.2532 7.7711 22.205 7.78952C21.606 7.86746 19.7655 7.7391 19.1873 7.91707C18.2081 8.12663 17.2803 8.52842 16.4575 9.09913Z" fill="#1F2227"/>
<path d="M17.974 14.9673C17.8924 14.8943 17.847 14.8526 17.7654 14.805C17.6837 14.7574 17.3663 14.7527 17.3663 14.7527C17.3437 14.7312 17.3155 14.7161 17.2846 14.7091H17.1939C16.9827 14.7604 16.7947 14.8767 16.6587 15.0403C16.5754 15.1591 16.5169 15.2923 16.4864 15.4325C16.4506 15.5918 16.4052 15.7489 16.3503 15.9031C16.3325 15.9982 16.3325 16.0956 16.3503 16.1907C16.3593 16.2747 16.3593 16.3594 16.3503 16.4435V16.9664C16.3593 17.0634 16.3869 17.158 16.4319 17.2453C16.4682 17.3237 16.5136 17.2453 16.568 17.3237C16.6079 17.4162 16.6534 17.5064 16.7041 17.5939C16.7316 17.654 16.7683 17.7098 16.8129 17.7595C16.8674 17.7682 16.8674 17.6375 16.8674 17.7072C16.8583 17.9512 16.8764 17.7856 16.9308 17.8989C16.9853 18.0122 17.0488 17.9599 17.1123 17.9599C17.192 17.9859 17.2681 18.021 17.339 18.0645C17.387 18.0735 17.4363 18.0735 17.4842 18.0645C17.6928 18.082 17.847 17.9338 17.9105 17.9512C17.974 17.9687 17.9468 17.9076 17.974 17.8815C18.0012 17.8553 18.0557 17.7508 18.0557 17.803V17.6985C18.1566 17.4789 18.2268 17.2473 18.2643 17.0099C18.3369 16.7485 18.3268 16.4945 18.3268 16.1267C18.3268 15.7588 18.1827 15.3076 18.1827 15.3076C18.1464 15.203 18.0557 15.0403 17.974 14.9673Z" fill="#1F2227"/>
<path d="M25.2143 14.8527C25.1326 14.7797 25.0873 14.7379 25.0056 14.6903C24.924 14.6427 24.6065 14.638 24.6065 14.638C24.584 14.6166 24.5557 14.6015 24.5249 14.5945H24.4341C24.2229 14.6458 24.0349 14.7621 23.8989 14.9257C23.8156 15.0445 23.7571 15.1776 23.7266 15.3178C23.6909 15.4771 23.6454 15.6343 23.5905 15.7885C23.5727 15.8836 23.5727 15.981 23.5905 16.0761C23.5996 16.1601 23.5996 16.2448 23.5905 16.3288V16.8518C23.5995 16.9488 23.6272 17.0434 23.6722 17.1307C23.7085 17.2091 23.7538 17.1307 23.8082 17.2091C23.8482 17.3016 23.8936 17.3918 23.9443 17.4793C23.9718 17.5393 24.0085 17.5951 24.0532 17.6449C24.1076 17.6536 24.1076 17.5228 24.1076 17.5926C24.0985 17.8366 24.1167 17.671 24.1711 17.7843C24.2255 17.8976 24.289 17.8453 24.3525 17.8453C24.4322 17.8712 24.5084 17.9064 24.5793 17.9499C24.6272 17.9588 24.6765 17.9588 24.7244 17.9499C24.9331 17.9673 25.0873 17.8192 25.1508 17.8366C25.2143 17.854 25.187 17.793 25.2143 17.7669C25.2415 17.7407 25.2959 17.6361 25.2959 17.6884V17.5838C25.3969 17.3642 25.467 17.1327 25.5045 16.8953C25.5771 16.6339 25.5671 16.3799 25.5671 16.0121C25.5671 15.6442 25.4229 15.193 25.4229 15.193C25.3867 15.0884 25.2959 14.9257 25.2143 14.8527Z" fill="#1F2227"/>
<path d="M20.0558 17.4653C20.0463 17.579 20.0463 17.6933 20.0558 17.8069C20.0558 17.8544 20.0368 17.8354 20.0053 17.873C20.0906 17.9398 20.0368 17.9398 20.0558 17.9587C20.0748 17.9777 20.0558 18.0916 20.0558 18.1485C20.0558 18.2055 20.1136 18.2798 20.161 18.3178C20.2085 18.3557 20.1917 18.4711 20.3056 18.4427C20.3983 18.5091 20.3017 18.5566 20.3681 18.566C20.4345 18.5755 20.3886 18.5565 20.4761 18.6419C20.5235 18.7166 20.5303 18.7273 20.5777 18.7178C20.6251 18.7083 20.5777 18.7616 20.6643 18.7178C20.7244 18.7431 20.6916 18.7178 20.7244 18.6894L20.7986 18.7178C20.7986 18.8507 20.7695 18.7734 20.8393 18.7178C20.9542 18.6671 20.8751 18.6894 20.932 18.6894H21.0135C21.0135 18.6894 21.0711 18.623 21.1091 18.6419C21.147 18.6609 21.1642 18.5854 21.2211 18.6708C21.278 18.7562 21.3273 18.7083 21.3558 18.6894C21.3842 18.6704 21.3212 18.7783 21.4138 18.6419C21.5695 18.6324 21.4806 18.566 21.5732 18.5003C21.6325 18.4427 21.6152 18.4284 21.6436 18.381C21.6721 18.3335 21.6436 18.4032 21.6881 18.292C21.7733 18.2698 21.7163 18.2624 21.7543 18.2055C21.7923 18.1485 21.7069 18.2458 21.8397 18.1178C21.8397 18.079 21.8735 18.077 21.8397 17.9967C21.8397 17.9967 21.8067 17.9994 21.8067 17.9425V17.898C21.7733 17.7164 21.9156 17.6646 21.8492 17.5317C21.8064 17.3991 21.8064 17.2564 21.8492 17.1237C21.8492 17.0478 21.9251 16.9719 22.2952 16.9245C22.4451 16.8903 22.6007 16.8903 22.7506 16.9245C22.8132 16.9343 22.8722 16.9605 22.9214 17.0004L23.0258 17.1237C23.0922 17.2091 23.263 17.2945 23.1681 17.3894C23.0732 17.4843 23.244 17.4463 23.0732 17.4748C23.3294 17.5887 23.1586 17.7215 23.1776 17.8354C23.1966 17.9493 23.2449 17.9967 23.2152 18.2511C23.2152 18.4818 23.2115 18.5542 23.13 18.7178C22.9066 19.0175 22.9973 19.0879 22.7886 19.3156C22.5898 19.5467 22.3561 19.7452 22.0959 19.9039C22.0959 19.9039 22.0959 20.0463 21.9631 19.9988C21.8302 19.9514 21.8397 19.9988 21.7733 20.0558C21.7069 20.1127 21.6784 20.1412 21.6025 20.1032C21.3273 19.9704 21.1375 20.1032 20.9003 20.1032C20.6631 20.1032 20.4638 20.0178 20.2361 19.9988C20.0084 19.9799 19.923 19.9988 19.8091 19.9134C19.6952 19.828 19.6478 19.9134 19.7142 19.7237C19.7142 19.6762 19.6003 19.7237 19.5624 19.7237C19.4783 19.671 19.4017 19.6071 19.3347 19.5339L19.069 19.2113C19.0121 19.1543 18.9585 19.1372 18.9016 19.0613C18.8369 18.9931 18.8286 18.9066 18.8128 18.8139C18.8032 18.6939 18.736 18.6203 18.7456 18.5003C18.7456 18.3865 18.7184 18.3652 18.7453 18.1485C18.8353 17.9732 18.7938 17.769 18.8128 17.6172C18.8412 17.4762 18.8412 17.3311 18.8128 17.1902C18.8128 17.1142 18.9551 17.0383 18.9551 16.9624C19.1613 16.902 19.3767 16.8795 19.5909 16.896H19.6668C19.8186 16.9719 20.0558 17.0478 20.0368 17.1332C20.0362 17.2442 20.0426 17.3551 20.0558 17.4653Z" fill="#1F2227"/>
</svg>
