<svg width="41" height="40" viewBox="0 0 41 40" fill="none" xmlns="http://www.w3.org/2000/svg">
<circle cx="20.9688" cy="20" r="20" fill="#EDE6FF"/>
<path d="M10.8798 23.7525C11.6326 23.3074 12.5138 23.1296 13.3803 23.248C14.2469 23.3664 15.0481 23.7739 15.654 24.4046C16.2847 25.0105 16.6923 25.8117 16.8106 26.6783C16.929 27.5448 16.7512 28.426 16.3061 29.1789C15.8 30.0832 15.0458 30.8239 14.1325 31.3137C14.1066 31.3287 14.0771 31.3366 14.0472 31.3366C14.0173 31.3366 13.9878 31.3287 13.9619 31.3138C13.9359 31.2989 13.9144 31.2773 13.8993 31.2514C13.8843 31.2255 13.8764 31.1961 13.8763 31.1662L13.8064 29.8853C13.8041 29.8544 13.7944 29.8244 13.7781 29.798C13.7618 29.7716 13.7394 29.7495 13.7128 29.7335C13.6862 29.7175 13.6561 29.7082 13.6251 29.7062C13.5941 29.7043 13.5631 29.7098 13.5347 29.7223C12.1554 30.3697 10.6878 30.8092 9.17965 31.0265C9.15764 31.0289 9.13535 31.0264 9.11445 31.0191C9.09355 31.0118 9.07458 30.9998 9.05892 30.9842C9.04326 30.9685 9.03132 30.9495 9.024 30.9286C9.01668 30.9077 9.01416 30.8855 9.01663 30.8635C9.26108 29.3486 9.70755 27.8734 10.3441 26.4773C10.3555 26.4519 10.3606 26.4242 10.3588 26.3964C10.357 26.3686 10.3485 26.3417 10.334 26.318C10.3194 26.2943 10.2993 26.2745 10.2754 26.2603C10.2514 26.2461 10.2244 26.238 10.1966 26.2367L8.85361 26.159C8.82702 26.1592 8.80081 26.1526 8.77752 26.1397C8.75423 26.1269 8.73464 26.1082 8.72061 26.0857C8.70659 26.0631 8.6986 26.0372 8.69742 26.0107C8.69624 25.9841 8.70189 25.9577 8.71386 25.9339C9.21082 25.0135 9.96289 24.256 10.8798 23.7525Z" fill="#DD4863"/>
<path d="M9.8543 25.4362C9.8543 25.4828 9.73786 25.5759 9.8543 25.607H9.28762H10.0639H10.126H10.2192C10.2853 25.6194 10.3503 25.6376 10.4132 25.6613C10.5459 25.7059 10.6847 25.7295 10.8247 25.7312C10.9722 25.7312 11.011 26.1116 10.98 26.2669C11.0032 26.4663 10.9793 26.6684 10.9101 26.8569L10.6073 27.5943C10.5452 27.7496 10.4986 27.8816 10.4443 28.0291C10.3201 28.4405 10.2502 28.8675 10.1493 29.2789C10.095 29.4808 10.0251 29.6826 9.963 29.8844V29.9543C9.963 29.9543 9.96299 29.9543 10.0018 29.9543C10.0406 29.9543 10.0018 29.9543 10.0018 30.0242C10.0018 30.094 10.0018 30.1018 10.0018 30.0785L10.095 30.0242H10.1416H10.3977C10.6618 30.04 10.9262 30.0003 11.174 29.9077C11.3215 29.8379 11.4302 29.6904 11.5932 29.6438C11.7563 29.5972 11.9503 29.6438 12.0047 29.3798C12.0047 29.3798 12.0901 29.3798 12.1366 29.3798C12.2263 29.4116 12.3237 29.4137 12.4146 29.3857C12.5055 29.3577 12.585 29.3012 12.6413 29.2246C12.7276 29.1162 12.8436 29.0353 12.9751 28.9917L13.2002 28.883H13.2623L13.4486 28.8287C13.6429 28.782 13.8466 28.7924 14.0352 28.8585C14.2238 28.9246 14.3894 29.0436 14.5121 29.2013C14.5982 29.3033 14.6617 29.4224 14.6985 29.5506C14.7289 29.6272 14.7447 29.7089 14.745 29.7913C14.692 29.845 14.6544 29.9121 14.6364 29.9854C14.6364 30.0242 14.6829 29.9854 14.6985 29.9854C14.714 29.9854 14.6985 29.9854 14.745 29.9854C14.7916 29.9854 14.8615 29.9854 14.9158 29.9854C14.9448 29.976 14.9715 29.9607 14.9942 29.9403C15.0169 29.92 15.0351 29.8951 15.0475 29.8672C15.06 29.8394 15.0664 29.8093 15.0665 29.7788C15.0665 29.7484 15.0601 29.7182 15.0478 29.6904C15.0478 29.6904 15.0478 29.636 15.1021 29.6282C15.5679 29.5196 15.5058 28.9995 15.7232 28.72C15.9396 28.4058 16.0756 28.0432 16.1191 27.6642C16.1191 27.571 16.2045 27.4701 16.0648 27.3692C16.0424 27.3449 16.03 27.313 16.03 27.2799C16.03 27.2469 16.0424 27.215 16.0648 27.1907C16.2666 26.9345 16.1346 26.6472 16.0648 26.4144C15.9949 26.1815 15.8086 25.8476 15.7698 25.4905C15.7698 25.443 15.7603 25.3959 15.7419 25.3521C15.7234 25.3082 15.6964 25.2685 15.6624 25.2353C15.6284 25.202 15.5882 25.1759 15.544 25.1584C15.4997 25.1409 15.4525 25.1324 15.4049 25.1335C15.3782 25.1326 15.3523 25.1241 15.3303 25.1089C15.3083 25.0938 15.2911 25.0727 15.2807 25.048L15.2341 24.9782C15.2124 24.9485 15.1862 24.9223 15.1565 24.9005C15.0866 24.854 14.9546 24.854 14.8848 24.7996C14.8149 24.7453 14.8149 24.6444 14.7683 24.5667C14.7536 24.5428 14.7319 24.5238 14.7062 24.5124C14.2094 24.4503 13.9299 23.9923 13.4331 23.9767C12.9667 23.9501 12.4989 23.9894 12.0435 24.0932C11.8945 24.1469 11.7348 24.1637 11.5779 24.1421C11.4211 24.1204 11.2718 24.061 11.143 23.969C10.98 23.8603 10.8868 23.705 10.9644 23.542C11.0197 23.4236 11.1022 23.3198 11.2051 23.2393C11.3711 23.1239 11.5449 23.0201 11.7252 22.9287C12.089 22.679 12.5273 22.5611 12.9673 22.5949C13.107 22.5949 13.2778 22.5173 13.3787 22.7114C13.3933 22.7183 13.4092 22.7219 13.4253 22.7219C13.4414 22.7219 13.4573 22.7183 13.4719 22.7114C13.7767 22.674 14.0859 22.6973 14.3817 22.7799C14.6774 22.8625 14.9539 23.0028 15.1953 23.1927C15.5813 23.3585 15.942 23.578 16.2666 23.8448L16.3287 23.9146C16.3691 23.9551 16.4055 23.9992 16.4374 24.0466C16.5953 24.0939 16.738 24.182 16.8511 24.3019C16.9642 24.4218 17.0437 24.5694 17.0817 24.7298C17.5881 25.6594 17.7858 26.726 17.6462 27.7754C17.5067 28.8247 17.0371 29.8026 16.3054 30.5676C16.189 30.6918 16.1657 30.8859 15.9561 30.9635C15.7465 31.0411 15.436 31.406 15.1798 31.5923C14.9236 31.7786 14.6441 31.996 14.4035 31.9805H14.1162C14.0183 31.9661 13.9237 31.9346 13.8368 31.8873C13.5883 31.7941 13.6505 31.5069 13.5806 31.2663L13.4253 30.5365L13.3477 30.1717V29.9854L13.7591 29.9077L13.9299 30.2804H13.8678L13.7358 30.3347L13.2312 30.5365L12.2376 30.948C11.844 31.1587 11.4271 31.3229 10.9955 31.4371C10.8014 31.4371 10.6694 31.6156 10.2813 31.4914C10.2037 31.4914 9.90864 31.6467 9.68352 31.6855C9.46501 31.7217 9.24092 31.703 9.03142 31.6311C8.93856 31.6073 8.85144 31.5651 8.77525 31.5069C8.69878 31.4394 8.64013 31.3541 8.60446 31.2585C8.49245 30.9719 8.46813 30.6584 8.5346 30.358C8.5346 30.1794 8.58117 30.0009 8.61998 29.8223L8.71313 29.3954C8.76747 29.1392 8.75972 28.8675 8.81406 28.6191C8.87553 28.353 8.96129 28.0931 9.07025 27.8428C9.1401 27.6862 9.21782 27.5334 9.30313 27.3847C9.373 27.2528 9.48946 27.0276 9.48169 27.0587C9.48514 27.0514 9.48693 27.0434 9.48693 27.0354C9.48693 27.0273 9.48514 27.0194 9.48169 27.0121C9.48169 26.9733 9.48168 26.9733 9.54379 26.8801C9.60589 26.787 9.54379 26.8103 9.54379 26.787H9.50498H9.20998C9.20998 26.787 9.5438 26.8568 8.89946 26.6472C8.69762 26.5774 8.40262 26.5075 8.40262 26.4454C8.33649 26.3638 8.29839 26.2631 8.29395 26.1582C8.29718 25.982 8.33406 25.8081 8.40262 25.6458C8.4986 25.4377 8.61567 25.24 8.75196 25.0558C8.8884 24.8516 9.03884 24.657 9.20221 24.4736C9.38852 24.2562 9.45064 24.1863 9.58262 24.0466C9.87357 23.8233 11.2218 23.1598 11.5597 23.0171C11.7072 22.924 11.1042 23.7283 11.1275 23.9069C11.1395 23.9368 11.8722 23.9391 11.8601 23.969C11.6023 24.2558 10.8558 24.6366 10.5996 24.8385C9.92419 25.2499 9.96299 25.2809 9.8543 25.4362Z" fill="#1F2227"/>
<path d="M12.2552 27.6028C12.1446 27.1543 12.1441 26.6856 12.2537 26.2368C12.3634 25.788 12.58 25.3724 12.885 25.0254C13.1901 24.6785 13.5745 24.4104 14.0055 24.2442C14.4366 24.0779 14.9014 24.0184 15.3605 24.0706C15.3887 24.0769 15.4136 24.0935 15.4303 24.1172L15.8651 24.5519C15.8857 24.5714 15.9016 24.5953 15.9116 24.6218C15.9653 25.0804 15.9071 25.5452 15.7418 25.9764C15.5766 26.4076 15.3092 26.7923 14.9628 27.0976C14.6163 27.4028 14.201 27.6196 13.7524 27.7292C13.3039 27.8388 12.8354 27.8381 12.3872 27.727C12.355 27.7227 12.3249 27.7084 12.3012 27.6862C12.2775 27.6639 12.2615 27.6347 12.2552 27.6028Z" fill="#FFB800"/>
<path d="M13.2394 27.175C13.397 27.1639 13.5517 27.1272 13.6974 27.0663C13.744 27.0663 13.8294 27.1206 13.8216 26.9265C13.8139 26.7325 13.9381 27.0119 13.9846 26.9809C14.1108 26.9179 14.2305 26.8425 14.3417 26.7558C14.4315 26.6462 14.512 26.5293 14.5824 26.4064C14.66 26.3055 14.823 26.2512 14.8075 26.0804C14.792 25.9096 14.9938 25.9484 15.0016 25.8242C15.0025 25.7668 15.0154 25.7102 15.0394 25.658C15.0635 25.6059 15.0982 25.5593 15.1413 25.5214C15.2267 25.4671 15.3044 25.405 15.2966 25.3196C15.2888 25.2342 15.1801 25.2109 15.1957 25.1643C15.2112 25.1177 15.3044 25.0789 15.0947 25.0401H15.1413C15.2811 25.0401 15.2733 24.978 15.1413 24.9935H15.0637L15.0016 24.9159C15.0016 24.8616 15.0404 24.8227 15.0016 24.7839C14.9628 24.7451 14.955 24.846 14.9472 24.7451C14.9395 24.6442 14.823 24.6442 14.7532 24.6597C14.6833 24.6752 14.6445 24.5743 14.6523 24.7917C14.4582 24.551 14.4349 24.9392 14.3029 24.9159C14.1598 24.9292 14.0268 24.9957 13.9303 25.1022C13.9303 25.1022 13.8371 25.1022 13.8915 25.2342C13.9458 25.3662 13.8915 25.3118 13.8527 25.2963C13.6508 25.1954 13.6353 25.3584 13.5499 25.405C13.4645 25.4515 13.4335 25.6146 13.2316 25.6146C13.0298 25.6146 13.0686 25.6612 13.2316 25.8164C13.3946 25.9717 13.185 25.8863 13.1773 25.9329C13.1695 25.9794 13.2472 26.0415 13.2394 26.0726C13.2316 26.1037 13.1462 26.0726 13.0997 26.0726C13.2472 26.29 12.9133 26.3598 12.9599 26.5539C12.9832 26.7265 12.9832 26.9015 12.9599 27.074C12.9599 27.175 12.9133 27.2759 12.5562 27.4389C12.4178 27.5189 12.5279 27.6345 12.3699 27.6097C12.2953 27.5951 12.2966 27.7525 12.2452 27.6965L11.9689 27.9032C11.8835 27.748 11.5005 26.8489 11.5936 26.6626C11.5936 26.6083 11.5315 26.5306 11.7023 26.4996C11.7023 26.4996 11.7489 26.4996 11.7023 26.4608C11.4616 26.1813 11.7023 25.9484 11.7566 25.6844C11.811 25.4205 11.7101 25.1799 11.9119 25.0324C11.8878 24.9994 11.872 24.9611 11.8657 24.9207C11.8595 24.8804 11.8629 24.8391 11.8759 24.8004C11.8888 24.7616 11.9108 24.7265 11.94 24.698C11.9692 24.6695 12.0048 24.6484 12.0439 24.6364C12.4786 24.4113 12.6882 24.0309 13.0686 23.798C13.4472 23.5606 13.8613 23.385 14.2952 23.2779C14.3728 23.2779 14.4194 23.1304 14.5358 23.208C14.6523 23.2857 14.7299 23.208 14.8463 23.208C14.9555 23.1776 15.071 23.1776 15.1802 23.208C15.5853 23.397 15.9513 23.6603 16.2592 23.9843C16.4724 24.3511 16.5749 24.7717 16.5542 25.1954C16.6003 25.4148 16.5869 25.6427 16.5154 25.8552C16.4688 25.9329 16.5154 26.0726 16.3291 26.0804C16.267 26.0804 16.3757 26.2201 16.3291 26.2744C16.2774 26.4089 16.2096 26.5366 16.1272 26.6548C16.0263 26.8256 15.9021 26.9809 15.7857 27.1439C15.6692 27.3069 15.6925 27.3923 15.6149 27.4932C15.5371 27.6047 15.4331 27.6953 15.3121 27.7572C15.1569 27.8319 14.9959 27.8942 14.8308 27.9435C14.6833 28.0211 14.5513 28.1764 14.365 28.1609C14.0612 28.169 13.7592 28.2107 13.4645 28.2851C13.1695 28.2851 12.8823 28.2851 12.595 28.2851C12.5144 28.2729 12.439 28.2379 12.3777 28.1842L12.2768 28.1143L12.2069 28.0755C12.1426 28.0582 12.0821 28.0292 12.0284 27.9901C12.0028 27.9654 11.9828 27.9359 11.9689 27.9032C11.955 27.8705 11.9474 27.8354 11.9474 27.7999C11.9474 27.7644 11.9546 27.7292 11.9685 27.6965C11.9824 27.6638 12.0028 27.6343 12.0284 27.6097C12.125 27.5264 12.2436 27.4725 12.3699 27.4544L12.4398 27.1594C12.5097 27.0973 12.5718 27.0507 12.6339 27.0663C12.8273 27.1394 13.0326 27.1762 13.2394 27.175Z" fill="#1F2227"/>
<path d="M25.7624 27.843L26.0496 24.0314L20.041 27.4704L20.4447 30.4281C20.4645 30.5705 20.52 30.7057 20.6059 30.8209C20.6919 30.9362 20.8056 31.0279 20.9364 31.0875C21.0673 31.1471 21.2111 31.1727 21.3544 31.162C21.4978 31.1512 21.6362 31.1044 21.7566 31.0259L25.1802 28.8212C25.3452 28.7132 25.4835 28.5689 25.5844 28.3994C25.6853 28.2299 25.7461 28.0396 25.7624 27.843Z" fill="#6A36FF"/>
<path d="M24.9314 29.7221C24.6441 29.9007 24.3569 30.0714 24.0852 30.2733C23.9843 30.3509 23.7948 30.2974 23.787 30.5148C23.6497 30.5846 23.5961 30.5605 23.503 30.6304C23.2546 30.8167 22.9751 30.9642 22.7267 31.1505C22.6052 31.2427 22.4885 31.3411 22.3773 31.4455L22.1988 31.6007C22.0871 31.6825 21.9675 31.7527 21.8417 31.8103C21.5807 31.8837 21.3071 31.9001 21.0392 31.8586C20.7714 31.8171 20.5156 31.7186 20.2891 31.5697C19.8543 31.3368 19.7922 30.7934 19.7224 30.4363C19.6276 30.1892 19.5956 29.9225 19.6292 29.66C19.6755 29.4792 19.6755 29.2896 19.6292 29.1088C19.6292 29.0001 19.4739 28.907 19.4662 28.7828C19.4584 28.6585 19.5283 28.5266 19.3109 28.4567C19.3109 28.4567 19.3109 28.3946 19.3109 28.3636C19.3358 28.335 19.3548 28.3017 19.3668 28.2657C19.3788 28.2298 19.3836 28.1918 19.3808 28.154C19.3645 28.0445 19.3276 27.9392 19.2721 27.8434C19.181 27.6699 19.1255 27.4798 19.1091 27.2845L19.0625 26.974C19.4041 26.7721 19.7845 26.5548 20.1183 26.384C20.2891 26.2986 20.4987 26.2753 20.6695 26.1977C20.8402 26.12 20.9955 25.9259 21.2051 25.9182C21.3952 25.9075 21.5783 25.8429 21.733 25.7319C21.8184 25.6775 21.9736 25.7319 21.9426 25.4757C21.9505 25.47 21.96 25.4669 21.9698 25.4669C21.9795 25.4669 21.989 25.47 21.9969 25.4757C22.3929 25.5689 22.4627 25.1108 22.7732 25.0177C23.0647 24.9014 23.341 24.7502 23.5961 24.5674C23.666 24.5208 23.7747 24.5286 23.7669 24.3578C23.7591 24.187 23.8368 24.2491 23.8911 24.2647C23.9575 24.2802 24.0266 24.2802 24.093 24.2647C24.1708 24.244 24.2443 24.2098 24.3103 24.1638C24.4966 24.0551 24.6829 23.9231 24.877 23.8299C25.2885 23.6436 25.7931 23.2477 26.1036 23.2477C26.2356 23.2477 26.3908 23.2089 26.8256 22.7354L26.9032 22.6577C26.942 22.7198 26.8489 23.0303 26.8566 23.1545C26.8644 23.2787 26.9575 23.3098 26.9498 23.4651C26.9117 23.6422 26.8598 23.8161 26.7945 23.9852C26.7796 24.0253 26.7796 24.0693 26.7945 24.1094C26.8709 24.465 26.8709 24.8328 26.7945 25.1885L26.6936 25.7474C26.679 25.8478 26.679 25.9498 26.6936 26.0502C26.7077 26.4557 26.6791 26.8616 26.6082 27.2612C26.5957 27.3963 26.5397 27.5238 26.4488 27.6246C26.3579 27.7253 26.2368 27.7939 26.1036 27.8201C26.0278 27.8516 25.9452 27.863 25.8636 27.8535C25.7821 27.844 25.7044 27.8138 25.6378 27.7658C25.5676 27.6991 25.5143 27.6166 25.4825 27.5251L25.4049 27.137C25.3583 26.8808 25.2031 26.6091 25.3195 26.3607C25.3195 26.2831 25.2574 26.1744 25.436 26.12C25.436 26.12 25.4748 26.0812 25.436 26.0657C25.2108 25.5844 25.3816 25.5999 25.3739 25.4447C25.3661 25.2894 25.141 25.5533 25.2419 25.3825L25.1643 25.4912C25.009 25.7319 25.0711 25.6542 25.0944 25.5766C25.1177 25.499 25.0944 25.4447 25.0323 25.4757C24.85 25.6066 24.6579 25.7234 24.4578 25.825C23.9066 26.1045 23.3865 26.4383 22.8509 26.7333C22.7577 26.7877 22.7344 26.9351 22.5869 26.9119C22.4394 26.8886 22.3463 27.0283 22.2298 27.0982C22.1134 27.1681 22.0358 27.2612 21.9038 27.269C21.6591 27.3045 21.4241 27.389 21.2129 27.5174L20.9023 27.7115C20.8724 27.7376 20.8383 27.7586 20.8014 27.7736H20.7238C20.7199 27.8382 20.7199 27.903 20.7238 27.9676C20.7514 28.1664 20.7903 28.3634 20.8402 28.5576C20.9498 28.8315 21.0229 29.1186 21.0576 29.4116C21.0576 29.5435 21.1896 29.66 21.011 29.8075C20.9645 29.8075 21.1275 29.9472 21.143 30.0249V30.1724V30.2655C21.143 30.2655 21.143 30.2655 21.143 30.3121C21.143 30.3587 21.2129 30.4052 21.2672 30.3897C21.3215 30.3742 21.4147 30.2966 21.3759 30.2733V30.1879L21.6088 30.0559C21.8106 29.955 22.0357 29.8929 22.2376 29.7842C22.4394 29.6755 22.6025 29.4659 22.8431 29.4193C23.246 29.2919 23.6222 29.0919 23.9532 28.8293L24.4811 28.511L24.7451 28.3403C24.7899 28.305 24.8292 28.2631 24.8615 28.2161C24.9236 28.1229 25.7298 27.7174 25.7764 27.5622C25.9906 27.4876 25.6387 27.5959 25.8636 27.6246C25.8797 27.6277 26.0391 27.3942 26.0525 27.4035C26.0659 27.4129 26.4323 27.0448 26.2071 27.4846C26.3002 27.6322 26.6082 27.0867 26.6082 27.2612C26.6082 27.4357 26.0104 28.7672 25.9173 28.9147C25.8243 29.0233 25.7231 29.1245 25.6145 29.2175L25.4437 29.3417L25.3195 29.4193L24.9314 29.7221Z" fill="#1F2227"/>
<path d="M12.201 14.2811L16.0204 13.9861L13.2412 19.3038L9.88755 19.3581C9.73261 19.3607 9.57989 19.321 9.44576 19.2434C9.31164 19.1658 9.20116 19.0531 9.12617 18.9175C9.05119 18.7819 9.01451 18.6284 9.02008 18.4736C9.02566 18.3187 9.07328 18.1683 9.15782 18.0384L11.2228 14.8323C11.3316 14.6705 11.4767 14.5364 11.6465 14.4407C11.8164 14.345 12.0062 14.2903 12.201 14.2811Z" fill="#6A36FF"/>
<path d="M11.3688 15.7407C11.198 16.0124 11.004 16.2764 10.8487 16.5636C10.7866 16.6723 10.6469 16.7266 10.7323 16.9285C10.8176 17.1303 10.5304 17.0138 10.4761 17.1148C10.3363 17.3787 10.1423 17.6194 9.99477 17.8911C9.92491 18.023 9.8628 18.155 9.8007 18.2948L9.75412 18.3957V18.4423C9.75412 18.4423 9.69201 18.582 9.81622 18.5509C9.94042 18.5199 9.81622 18.6519 9.89385 18.6208H9.987H10.1733C10.2992 18.6162 10.425 18.6319 10.5459 18.6674C10.7118 18.7403 10.8935 18.7697 11.0738 18.7528C11.1825 18.7528 11.2834 18.6208 11.4076 18.6286C11.5318 18.6363 11.6483 18.7217 11.7415 18.5121C11.7415 18.5121 11.7958 18.5121 11.8191 18.5587C11.8424 18.5851 11.8711 18.6063 11.9032 18.6208C11.9353 18.6353 11.9702 18.6428 12.0054 18.6428C12.0406 18.6428 12.0755 18.6353 12.1076 18.6208C12.1397 18.6063 12.1684 18.5851 12.1917 18.5587C12.2285 18.5262 12.2716 18.5018 12.3185 18.4871C12.3653 18.4724 12.4147 18.4677 12.4634 18.4733H12.6575C12.6575 18.4733 12.7041 18.5742 12.7895 18.4733C12.8749 18.3724 12.9137 18.0774 13.0845 17.9687C13.23 17.8587 13.3427 17.7111 13.4105 17.5417C13.4571 17.4486 13.5968 17.3942 13.4493 17.2235C13.4493 17.2235 13.4493 17.1769 13.4493 17.1691C13.8297 17.0371 13.6357 16.6257 13.8297 16.3928C14.0073 16.1538 14.1535 15.8929 14.2645 15.6165C14.2645 15.5466 14.3887 15.5001 14.2645 15.3603C14.2565 15.3479 14.2514 15.3339 14.2495 15.3192C14.2476 15.3046 14.2489 15.2898 14.2533 15.2757C14.2578 15.2616 14.2652 15.2487 14.2752 15.2379C14.2852 15.227 14.2974 15.2185 14.311 15.2128C14.3739 15.1905 14.4319 15.1562 14.4818 15.1119C14.4818 15.1119 14.4818 15.1119 14.5206 15.1119C14.5594 15.1119 14.5206 15.1119 14.5206 15.0653C14.5206 15.0188 14.4663 15.0653 14.7458 14.8635C14.8389 14.8014 14.9165 14.7237 14.7923 14.7858L14.6138 14.8945C14.4663 14.9955 14.6138 14.8945 14.5361 14.8945C14.4846 14.9331 14.4354 14.9746 14.3887 15.0188C14.4211 14.9802 14.4497 14.9386 14.4741 14.8945C14.3654 15.0188 14.3964 14.9955 14.3731 14.9566H14.2412C14.1434 14.9412 14.0439 14.9412 13.9462 14.9566C13.5626 15.0306 13.1721 15.0618 12.7817 15.0498C12.6484 15.0585 12.516 15.0228 12.4051 14.9484C12.2941 14.874 12.211 14.765 12.1684 14.6383C12.1283 14.5673 12.1072 14.4871 12.1072 14.4055C12.1072 14.3239 12.1283 14.2436 12.1684 14.1726C12.217 14.0909 12.2867 14.0238 12.3703 13.9785L12.7274 13.8465C12.968 13.7611 13.2009 13.5671 13.4649 13.6369C13.5503 13.6369 13.6356 13.5593 13.7133 13.7223C13.7169 13.7271 13.7216 13.731 13.727 13.7337C13.7323 13.7364 13.7383 13.7378 13.7443 13.7378C13.7503 13.7378 13.7563 13.7364 13.7617 13.7337C13.7671 13.731 13.7718 13.7271 13.7754 13.7223C13.918 13.6003 14.1 13.5341 14.2877 13.536C14.5905 13.536 14.87 13.536 15.165 13.536C15.7149 13.3994 16.2762 13.3136 16.8418 13.2798C17.0284 13.1964 17.2236 13.1339 17.424 13.0935C17.3378 13.3154 17.2173 13.5223 17.0669 13.7068C16.7144 14.1828 16.4053 14.6894 16.1431 15.2206L15.8093 15.896C15.7472 16.0279 15.6851 16.1599 15.6152 16.2919C15.3125 16.8042 15.0641 17.3477 14.7768 17.8445C14.7302 17.9377 14.7768 18.0696 14.6526 18.1317C14.5284 18.1938 14.5206 18.3491 14.4585 18.4656C14.3964 18.582 14.3887 18.7062 14.2877 18.7761C14.1447 18.8934 14.0237 19.0354 13.9306 19.1953C13.7909 19.4514 13.6589 19.7309 13.527 20.0104C13.3406 20.0104 13.1621 20.0104 12.9758 20.0104H12.2228C11.9917 20.0102 11.7608 20.0257 11.5318 20.057C11.2537 20.1338 10.9665 20.1729 10.6779 20.1734C10.5537 20.1734 10.4295 20.2743 10.3053 20.0803C10.3053 20.0182 10.1578 20.1734 10.0802 20.1812C9.93588 20.2003 9.78971 20.2003 9.64543 20.1812C9.46853 20.1588 9.29738 20.1035 9.14083 20.0182C8.9274 19.9031 8.74175 19.7427 8.59691 19.5482C8.45207 19.3538 8.35154 19.13 8.30241 18.8925C8.22081 18.5953 8.22081 18.2815 8.30241 17.9842C8.32944 17.9039 8.3632 17.826 8.40333 17.7513C8.40333 17.6737 8.48873 17.5961 8.50426 17.5728L8.65953 17.3632C8.79926 17.1924 8.9778 17.0449 9.10977 16.8741C9.24175 16.7033 9.30385 16.4471 9.49793 16.3152C9.81311 16.0442 10.0762 15.718 10.2742 15.3526L10.6158 14.8557L10.7788 14.5918C10.8556 14.4673 10.944 14.3503 11.0428 14.2424C11.2999 14.0513 12.4695 13.8386 12.7895 13.8223C12.9525 13.7834 12.2926 14.3589 12.2538 14.5297C12.2604 14.5578 12.9154 14.7578 12.9087 14.7858C12.738 14.9644 12.083 15.0576 11.9821 15.1119C11.8875 15.1689 11.8118 15.2526 11.7648 15.3526L11.3688 15.7407Z" fill="#1F2227"/>
<path d="M16.5073 13.4894C21.6077 7.64381 28.6255 7.85341 31.0087 8.12511C31.2523 8.14763 31.4804 8.25465 31.6533 8.42762C31.8263 8.6006 31.9333 8.82862 31.9558 9.07221C32.2275 11.4477 32.4294 18.4655 26.5838 23.5736C22.8575 26.8263 19.5349 27.3542 18.3239 27.4551C18.1695 27.4632 18.0152 27.4375 17.8717 27.3799C17.7283 27.3222 17.5991 27.234 17.4933 27.1213L15.2497 24.839L12.9984 22.5877C12.8858 22.4798 12.7971 22.3493 12.7383 22.2049C12.6794 22.0604 12.6517 21.9052 12.6569 21.7493C12.7267 20.5382 13.2468 17.2157 16.5073 13.4894Z" fill="#EBEFF9"/>
<path d="M14.149 18.3487C13.7776 19.2022 13.5168 20.0996 13.3727 21.0192C13.3727 21.19 13.3028 21.353 13.2873 21.5316C13.2795 21.6168 13.2795 21.7026 13.2873 21.7878C13.296 21.8069 13.3089 21.8238 13.325 21.8372C13.3411 21.8507 13.3601 21.8603 13.3804 21.8654C13.4348 21.8654 13.3804 21.9197 13.3804 21.9974C13.3733 22.0385 13.3733 22.0805 13.3804 22.1216C13.4251 22.1892 13.4772 22.2517 13.5357 22.3079L15.4842 24.2409L17.4483 26.0419C17.6113 26.1894 17.7666 26.3525 17.9141 26.5155C17.9749 26.5942 18.0552 26.6557 18.147 26.694H18.2324H18.5196C18.7177 26.6703 18.9128 26.626 19.1018 26.5621C19.7539 26.3525 20.3983 26.3447 21.0115 26.0807C21.6248 25.8168 22.308 25.4752 22.9601 25.219C23.44 25.0419 23.8942 24.8018 24.3108 24.5048C24.5593 24.303 24.7456 24.0546 25.0173 23.845C25.289 23.6354 25.6228 23.4956 25.7004 23.1541C25.7662 23.1039 25.8396 23.0646 25.9178 23.0376C26.2482 22.9033 26.5224 22.6594 26.6941 22.3467C26.8388 22.1259 27.0024 21.9181 27.1832 21.7257C27.4083 21.454 27.6567 21.1978 27.8663 20.9105L28.5029 20.0644C28.7824 19.6141 29.1705 19.226 29.4112 18.7524C29.6518 18.2789 29.8459 17.6811 30.1409 17.2464C30.3996 16.8029 30.5931 16.3244 30.7154 15.8257C30.7852 15.5463 30.9871 15.2435 30.824 14.9563C30.8067 14.9007 30.8067 14.8411 30.824 14.7855C31.2898 14.0092 31.0259 13.1475 31.1656 12.3324C31.2665 11.458 31.2665 10.575 31.1656 9.70069C31.1656 9.58424 31.1656 9.46779 31.1656 9.35134C31.17 9.2945 31.17 9.2374 31.1656 9.18055C31.1656 9.18055 31.119 9.18056 31.0802 9.14175C31.0414 9.10293 31.0026 9.14175 31.0181 9.07188C31.0339 9.05052 31.0424 9.02468 31.0424 8.99813C31.0424 8.97159 31.0339 8.94574 31.0181 8.92438C30.9967 8.90395 30.9697 8.89041 30.9405 8.88555H30.7309C30.3971 8.88555 30.0633 8.88557 29.7294 8.83123C28.9531 8.7536 28.2157 8.87781 27.4394 8.78465C27.0457 8.71335 26.6396 8.79677 26.3059 9.01753C26.1429 9.12622 25.7625 9.09516 25.5296 9.18055C25.2967 9.26595 25.1104 9.36688 24.8931 9.43675C24.6993 9.4527 24.5046 9.4527 24.3108 9.43675C24.2493 9.44294 24.189 9.45865 24.1323 9.48332C23.1541 10.019 22.0363 10.1587 21.0814 10.7487C20.1305 11.3318 19.2248 11.9858 18.3721 12.705C17.9514 13.1429 17.4116 13.4479 16.8195 13.5822C16.5555 13.5822 16.4158 13.4968 16.5245 13.2174C16.6127 13.0021 16.7274 12.7987 16.866 12.6118C17.0912 12.3099 17.3376 12.0245 17.6035 11.7579C18.094 11.1397 18.6907 10.614 19.3658 10.2053C19.5909 10.0966 19.7927 9.85594 20.0489 9.88699C20.1122 9.88434 20.1727 9.85963 20.2197 9.81713C21.0803 9.13763 22.0751 8.64816 23.1386 8.38096C23.9816 8.00288 24.8722 7.7417 25.7858 7.60465C26.2839 7.34226 26.848 7.2316 27.4083 7.28636C28.3321 7.28636 29.2481 7.28638 30.1719 7.37177L30.8628 7.41058C31.1876 7.41886 31.5063 7.50117 31.7944 7.65123C32.1343 7.83213 32.4066 8.11806 32.5707 8.46636C32.6493 8.63603 32.7016 8.81664 32.726 9.00202V9.35911C32.8792 11.2235 32.7668 13.1002 32.3922 14.933C32.3846 15.2577 32.3189 15.5785 32.1981 15.8801C32.0478 16.256 31.9258 16.6426 31.8332 17.0368C31.7386 17.4002 31.6032 17.7518 31.4296 18.0848C30.7451 19.3894 29.9668 20.6426 29.1006 21.8344C28.1641 22.947 27.1244 23.9685 25.9954 24.8852C25.3404 25.4903 24.6129 26.0118 23.8295 26.4378C23.5175 26.6819 23.144 26.8351 22.7505 26.8803C22.6263 26.8803 22.3701 27.1676 22.1372 27.2607C21.5682 27.5107 20.9786 27.7107 20.375 27.8585C19.9531 27.9677 19.5255 28.0532 19.0941 28.1147C18.8757 28.1525 18.6554 28.1784 18.4342 28.1923C18.2745 28.2146 18.1126 28.2146 17.9529 28.1923C17.7797 28.1689 17.6117 28.1164 17.456 28.037C17.2762 27.9486 17.1091 27.8363 16.9592 27.7032L16.6642 27.4548C16.4701 27.2995 16.2761 27.1443 16.0975 26.9735C15.7171 26.6242 15.3212 26.2515 14.9874 25.8634C14.6536 25.4752 14.1257 24.8697 13.6677 24.3884C13.4348 24.14 13.1786 23.9071 12.8914 23.6664C12.7672 23.5422 12.6429 23.4258 12.5265 23.3016C12.3646 23.1395 12.2285 22.9536 12.1228 22.7504C12.0139 22.5216 11.9506 22.2737 11.9365 22.0207C11.9388 21.8251 11.9596 21.6301 11.9986 21.4384C12.0452 21.1124 12.1073 20.7941 12.1694 20.4836C12.2881 19.8569 12.4595 19.2415 12.6818 18.6437C13.1354 17.4713 13.6967 16.3434 14.3586 15.2746C14.7677 14.7294 15.2111 14.2108 15.6861 13.7219C15.8957 13.4735 17.4776 11.934 17.5242 12.1436C17.5391 12.1916 17.7874 13.0061 17.7725 13.0542C17.3204 13.6754 16.0275 15.0392 15.6783 15.6084C15.068 16.462 14.555 17.3811 14.149 18.3487Z" fill="#1F2227"/>
<path d="M29.2247 7.91541L25.6381 8.45883C25.6075 8.46559 25.5792 8.48028 25.5561 8.50145C25.5329 8.52262 25.5158 8.54951 25.5063 8.57942C25.4969 8.60932 25.4955 8.64119 25.5023 8.67181C25.509 8.70243 25.5238 8.73071 25.545 8.75383L31.4915 14.8168C31.5119 14.8413 31.539 14.8593 31.5696 14.8685C31.6001 14.8778 31.6327 14.8778 31.6632 14.8688C31.6938 14.8597 31.721 14.8418 31.7416 14.8174C31.7621 14.793 31.775 14.7631 31.7787 14.7314L32.2134 12.6586V10.7101C32.2177 10.6923 32.2177 10.6736 32.2134 10.6558L31.6234 8.60633C31.6163 8.57693 31.6008 8.55026 31.5787 8.52957C31.5567 8.50888 31.529 8.49509 31.4992 8.48989L29.3023 7.91541H29.2247Z" fill="#6A36FF"/>
<path d="M24.7754 8.55193C26.46 8.04733 30.8694 7.72128 31.6845 8.45101C32.3754 9.07205 31.9174 14.3587 31.5137 15.4378" stroke="#1F2227" stroke-width="1.35486" stroke-linecap="round" stroke-linejoin="round"/>
<path d="M18.4405 18.9081C18.3387 18.9138 18.2813 18.9162 18.1962 18.9386C18.1111 18.961 17.8989 19.167 17.8989 19.167C17.87 19.1677 17.8414 19.1764 17.8165 19.1921L17.7568 19.2518C17.6514 19.4247 17.6042 19.6251 17.6224 19.8223C17.6458 19.9554 17.6949 20.0817 17.7672 20.1941C17.8486 20.3225 17.9221 20.456 17.9875 20.5937C18.0384 20.668 18.1025 20.7322 18.1769 20.783C18.2382 20.8324 18.294 20.8882 18.3433 20.9495L18.6877 21.2939C18.7575 21.3519 18.838 21.3959 18.9251 21.4238C19.0007 21.4515 18.9789 21.37 19.0664 21.3858C19.1536 21.4204 19.2429 21.4499 19.3339 21.4741C19.3916 21.4956 19.4525 21.5081 19.5147 21.5115C19.5563 21.4814 19.4702 21.3953 19.5161 21.4412C19.6708 21.6079 19.5737 21.4869 19.6842 21.5257C19.7946 21.5644 19.802 21.4882 19.8438 21.4464C19.9134 21.411 19.9867 21.384 20.062 21.3659C20.0995 21.3402 20.1319 21.3078 20.1576 21.2703C20.3065 21.1444 20.3105 20.9453 20.3638 20.9149C20.4171 20.8846 20.3589 20.8623 20.3596 20.8272C20.3604 20.7921 20.3273 20.6874 20.3618 20.7218L20.2929 20.6529C20.2148 20.4418 20.1085 20.2431 19.9769 20.0621C19.8525 19.8421 19.6786 19.6815 19.4364 19.4392C19.1941 19.197 18.8021 18.9948 18.8021 18.9948C18.7093 18.9498 18.5424 18.9024 18.4405 18.9081Z" fill="#1F2227"/>
<path d="M23.1329 14.0664C23.0311 14.0721 22.9737 14.0745 22.8886 14.0969C22.8035 14.1193 22.5913 14.3253 22.5913 14.3253C22.5624 14.326 22.5338 14.3347 22.5089 14.3504L22.4491 14.4101C22.3438 14.583 22.2966 14.7834 22.3148 14.9807C22.3381 15.1138 22.3873 15.24 22.4596 15.3524C22.5409 15.4809 22.6145 15.6143 22.6799 15.752C22.7308 15.8264 22.7949 15.8905 22.8693 15.9414C22.9306 15.9908 22.9863 16.0465 23.0357 16.1078L23.3801 16.4522C23.4499 16.5102 23.5304 16.5542 23.6175 16.5821C23.6931 16.6099 23.6713 16.5283 23.7588 16.5441C23.846 16.5788 23.9353 16.6082 24.0263 16.6325C24.084 16.6539 24.1449 16.6665 24.2071 16.6698C24.2486 16.6397 24.1625 16.5536 24.2085 16.5995C24.3632 16.7662 24.2661 16.6452 24.3765 16.684C24.487 16.7228 24.4944 16.6465 24.5362 16.6047C24.6058 16.5693 24.679 16.5423 24.7544 16.5242C24.7919 16.4986 24.8243 16.4661 24.85 16.4287C24.9989 16.3027 25.0028 16.1036 25.0561 16.0733C25.1094 16.0429 25.0513 16.0207 25.052 15.9855C25.0527 15.9504 25.0197 15.8457 25.0541 15.8801L24.9853 15.8112C24.9071 15.6001 24.8009 15.4014 24.6692 15.2204C24.5449 15.0004 24.371 14.8398 24.1288 14.5976C23.8865 14.3553 23.4944 14.1531 23.4944 14.1531C23.4017 14.1081 23.2347 14.0607 23.1329 14.0664Z" fill="#1F2227"/>
<path d="M21.4573 19.1837C21.5259 19.2648 21.6011 19.34 21.6822 19.4086C21.7135 19.4399 21.6885 19.4399 21.6925 19.4854C21.7926 19.4732 21.7572 19.5086 21.7822 19.5086C21.8072 19.5086 21.8697 19.5961 21.9072 19.6336C21.9447 19.6711 22.0317 19.682 22.0879 19.6758C22.1442 19.6695 22.2091 19.7565 22.2654 19.6628C22.3702 19.6455 22.3378 19.7404 22.3878 19.7029C22.4378 19.6654 22.395 19.6832 22.5089 19.6818C22.5893 19.6997 22.6008 19.7023 22.6258 19.6648C22.6508 19.6273 22.6546 19.6937 22.6828 19.6078C22.739 19.5848 22.7008 19.5898 22.7037 19.5494L22.7712 19.5194C22.8587 19.6069 22.7887 19.5751 22.7981 19.4925C22.8403 19.3834 22.8029 19.4502 22.8404 19.4128L22.8941 19.3591C22.8941 19.3591 22.8882 19.2774 22.9257 19.2649C22.9632 19.2524 22.9248 19.1914 23.0185 19.2101C23.1123 19.2289 23.1132 19.1649 23.1194 19.1337C23.1257 19.1024 23.1552 19.215 23.1264 19.0642C23.2227 18.9554 23.1204 18.9703 23.1381 18.866C23.1392 18.789 23.1184 18.791 23.1059 18.741C23.0934 18.691 23.1206 18.7557 23.0766 18.6531C23.1181 18.5824 23.0757 18.615 23.0632 18.5525C23.0507 18.4901 23.0585 18.6103 23.0617 18.4386C23.0362 18.413 23.0571 18.3895 22.982 18.3588C22.982 18.3588 22.962 18.3823 22.9246 18.3448L22.8953 18.3155C22.7536 18.218 22.8132 18.0901 22.682 18.0464C22.5665 17.9872 22.4725 17.8932 22.4133 17.7777C22.3633 17.7277 22.3633 17.6277 22.5758 17.3528C22.652 17.2316 22.7545 17.129 22.8757 17.0528C22.9235 17.0181 22.9795 16.9965 23.0382 16.9903L23.1882 17.0028C23.2882 17.0153 23.4569 16.9591 23.4569 17.0841C23.4569 17.209 23.5443 17.0716 23.4506 17.2028C23.6943 17.1091 23.6693 17.309 23.7568 17.3715C23.8443 17.434 23.9073 17.4335 24.0553 17.6205C24.2073 17.7724 24.2525 17.8226 24.3066 17.984C24.3568 18.3285 24.4629 18.3151 24.4754 18.6025C24.4966 18.8856 24.4734 19.1702 24.4067 19.4461C24.4067 19.4461 24.5004 19.5398 24.3817 19.5961C24.263 19.6523 24.3005 19.6773 24.2942 19.7586C24.288 19.8398 24.288 19.8773 24.213 19.9023C23.9443 19.996 23.9068 20.2085 23.7506 20.3647C23.5944 20.5209 23.4069 20.5959 23.2444 20.7334C23.0819 20.8708 23.0382 20.9396 22.907 20.9583C22.7758 20.9771 22.8008 21.0646 22.7195 20.8958C22.6883 20.8646 22.6445 20.9708 22.6195 20.9958C22.5294 21.0165 22.437 21.0249 22.3446 21.0208L21.9572 20.9833C21.8822 20.9833 21.8357 21.0073 21.7482 20.9948C21.6607 20.9925 21.5982 20.941 21.5268 20.8904C21.4414 20.8177 21.3487 20.8134 21.276 20.7281C21.201 20.6531 21.1691 20.6571 21.0441 20.4966C20.9879 20.3219 20.8261 20.2147 20.7387 20.1022C20.6645 19.9908 20.5689 19.8952 20.4575 19.821C20.4075 19.7711 20.4512 19.6273 20.4012 19.5774C20.4972 19.4018 20.6242 19.2451 20.7761 19.1149L20.8261 19.0649C20.9761 19.015 21.1823 18.9087 21.2261 18.9775C21.2988 19.0509 21.376 19.1198 21.4573 19.1837Z" fill="#1F2227"/>
<mask id="path-17-inside-1_4374_34977" fill="white">
<path d="M30.0598 14.8812C30.28 14.8021 31.1354 15.8998 31.2086 15.9846L31.6046 14.4006C31.1661 13.884 30.1116 12.7726 29.6895 12.2492C29.1978 11.7911 28.7738 11.2652 28.4304 10.6875C28.4044 10.5804 28.3424 10.4853 28.2549 10.4182C28.1674 10.3511 28.0595 10.316 27.9493 10.3187C27.8139 9.99899 27.4845 9.94302 27.2035 9.66031C26.9225 9.37759 26.7863 8.96257 26.3261 8.84933L26.3307 8.78614C26.4067 8.61701 26.2566 8.60598 26.2235 8.51619C26.1011 8.23719 25.774 8.14962 25.5401 7.98155L25.184 7.7489C25.0899 7.70049 24.9852 7.67642 24.8794 7.67887C24.7959 7.68903 24.7169 7.72234 24.6512 7.77505C24.5856 7.82776 24.5361 7.89776 24.5081 7.97716C24.4362 8.10306 24.4064 8.24863 24.4229 8.39268C24.4395 8.53672 24.5015 8.67173 24.6001 8.77805C24.8627 9.13817 25.1632 9.46909 25.4964 9.76512C25.8327 10.0519 25.8976 10.5728 26.3532 10.7493C26.365 10.7536 26.3758 10.7604 26.3847 10.7693C26.3937 10.7782 26.4006 10.7889 26.405 10.8007C26.4223 10.8893 26.399 10.9909 26.466 11.0514C26.533 11.1119 26.6369 11.1037 26.727 11.1738C26.8171 11.244 26.8456 11.397 26.9641 11.4057C27.0064 11.3983 27.0498 11.3995 27.0916 11.4094C27.1334 11.4193 27.1727 11.4376 27.2072 11.4631C27.2418 11.4887 27.2707 11.521 27.2923 11.5581C27.314 11.5952 27.3279 11.6363 27.3331 11.679C27.412 12.0104 27.7078 12.1989 27.8507 12.4158C27.9936 12.6328 28.271 12.7485 28.2861 13.0831C28.2896 13.1142 28.3045 13.1429 28.3279 13.1637C28.3513 13.1845 28.3815 13.1959 28.4128 13.1957C28.5906 13.1532 28.6062 13.2655 28.6726 13.3339C28.926 13.5675 29.1519 13.8292 29.3459 14.114C29.5151 14.4044 30.0078 14.4009 30.0159 14.8303C30.0124 14.8777 30.0598 14.8812 30.0598 14.8812Z"/>
</mask>
<path d="M31.2086 15.9846L30.5248 16.5747L31.6625 17.893L32.0848 16.2037L31.2086 15.9846ZM30.0598 14.8812L29.9936 15.782L30.1848 15.796L30.3652 15.7312L30.0598 14.8812ZM30.0159 14.8303L30.9167 14.8965L30.9198 14.8549L30.919 14.8132L30.0159 14.8303ZM29.3459 14.114L30.1263 13.6592L30.1103 13.6317L30.0924 13.6054L29.3459 14.114ZM28.6726 13.3339L28.0247 13.9632L28.0421 13.9811L28.0604 13.998L28.6726 13.3339ZM28.4128 13.1957L28.4185 14.0989L28.5221 14.0983L28.6228 14.0742L28.4128 13.1957ZM28.3279 13.1637L27.7281 13.8391L27.7281 13.8391L28.3279 13.1637ZM28.2861 13.0831L27.3838 13.1239L27.3851 13.1541L27.3885 13.1841L28.2861 13.0831ZM27.8507 12.4158L28.6051 11.9191L28.6051 11.9191L27.8507 12.4158ZM27.3331 11.679L26.4366 11.7894L26.4428 11.8393L26.4544 11.8881L27.3331 11.679ZM27.2072 11.4631L26.6697 12.189L26.6697 12.189L27.2072 11.4631ZM26.9641 11.4057L26.8979 12.3065L27.0095 12.3147L27.1198 12.2954L26.9641 11.4057ZM26.727 11.1738L26.1722 11.8866L26.1722 11.8866L26.727 11.1738ZM26.405 10.8007L27.2915 10.6276L27.2773 10.555L27.2515 10.4856L26.405 10.8007ZM26.3532 10.7493L26.027 11.5916L26.0354 11.5948L26.0438 11.5979L26.3532 10.7493ZM25.4964 9.76512L24.8965 10.4403L24.9033 10.4464L24.9103 10.4524L25.4964 9.76512ZM24.6001 8.77805L25.3299 8.24585L25.2986 8.20289L25.2624 8.1639L24.6001 8.77805ZM24.4229 8.39268L25.3202 8.28958L24.4229 8.39268ZM24.5081 7.97716L25.2925 8.42509L25.333 8.35409L25.3602 8.27695L24.5081 7.97716ZM24.6512 7.77505L24.0856 7.07087L24.0856 7.07087L24.6512 7.77505ZM24.8794 7.67887L24.8585 6.77587L24.8143 6.7769L24.7704 6.78223L24.8794 7.67887ZM25.184 7.7489L25.678 6.99271L25.6388 6.96714L25.5973 6.94574L25.184 7.7489ZM25.5401 7.98155L26.0673 7.24812L26.051 7.23636L26.0341 7.22535L25.5401 7.98155ZM26.2235 8.51619L27.071 8.20371L27.0616 8.17817L27.0506 8.15323L26.2235 8.51619ZM26.3307 8.78614L25.5068 8.41607L25.4416 8.56123L25.4299 8.71993L26.3307 8.78614ZM26.3261 8.84933L25.4253 8.78312L25.3693 9.54409L26.1103 9.72641L26.3261 8.84933ZM27.2035 9.66031L27.8442 9.02358L27.8442 9.02358L27.2035 9.66031ZM27.9493 10.3187L27.1175 10.6708L27.357 11.2365L27.9711 11.2216L27.9493 10.3187ZM28.2549 10.4182L28.8045 9.70144L28.8045 9.70144L28.2549 10.4182ZM28.4304 10.6875L27.5527 10.9008L27.5847 11.0326L27.654 11.1491L28.4304 10.6875ZM29.6895 12.2492L30.3925 11.6822L30.3522 11.6322L30.3052 11.5884L29.6895 12.2492ZM31.6046 14.4006L32.4808 14.6197L32.5933 14.1697L32.2932 13.8161L31.6046 14.4006ZM31.8923 15.3944C31.9128 15.4182 31.6048 15.0352 31.3572 14.7633C31.2237 14.6167 31.0601 14.447 30.8984 14.313C30.8208 14.2486 30.7095 14.1635 30.5778 14.0968C30.4971 14.0559 30.1579 13.8862 29.7545 14.0311L30.3652 15.7312C30.1771 15.7988 30.0158 15.7824 29.9293 15.7649C29.8421 15.7473 29.7833 15.7193 29.761 15.7081C29.7186 15.6865 29.7108 15.6749 29.7454 15.7036C29.8084 15.7558 29.9044 15.851 30.0214 15.9795C30.2749 16.2579 30.4311 16.4662 30.5248 16.5747L31.8923 15.3944ZM30.0598 14.8812C30.126 13.9804 30.1264 13.9804 30.1269 13.9804C30.127 13.9804 30.1275 13.9805 30.1278 13.9805C30.1283 13.9805 30.1289 13.9806 30.1295 13.9806C30.1307 13.9807 30.1319 13.9808 30.1331 13.9809C30.1355 13.9811 30.1379 13.9813 30.1404 13.9815C30.1453 13.982 30.1503 13.9825 30.1554 13.983C30.1657 13.9841 30.1766 13.9855 30.188 13.9871C30.2105 13.9904 30.2368 13.9952 30.2658 14.0022C30.3197 14.0153 30.4048 14.0415 30.4986 14.0974C30.5959 14.1553 30.7176 14.2546 30.8075 14.4137C30.9008 14.5787 30.9274 14.7508 30.9167 14.8965L29.1151 14.7641C29.1026 14.9336 29.1339 15.1239 29.2351 15.3028C29.3329 15.4759 29.4658 15.5849 29.5745 15.6496C29.6797 15.7123 29.7764 15.7423 29.8391 15.7576C29.8725 15.7657 29.9025 15.7711 29.9276 15.7748C29.9403 15.7766 29.9522 15.7781 29.9631 15.7792C29.9686 15.7798 29.9739 15.7803 29.979 15.7808C29.9815 15.781 29.984 15.7812 29.9865 15.7814C29.9877 15.7815 29.9889 15.7816 29.9901 15.7817C29.9907 15.7818 29.9913 15.7818 29.9919 15.7819C29.9922 15.7819 29.9926 15.7819 29.9928 15.7819C29.9932 15.782 29.9936 15.782 30.0598 14.8812ZM30.919 14.8132C30.9133 14.5134 30.8159 14.2449 30.646 14.0254C30.4941 13.829 30.3134 13.7113 30.2134 13.65C30.1637 13.6195 30.108 13.588 30.0818 13.5728C30.0475 13.553 30.0332 13.5441 30.0254 13.5389C30.0086 13.5276 30.0712 13.5647 30.1263 13.6592L28.5655 14.5688C28.7052 14.8085 28.8928 14.9541 29.0163 15.0372C29.0787 15.0792 29.1382 15.114 29.1784 15.1372C29.2268 15.1651 29.2463 15.176 29.2692 15.1901C29.3146 15.2179 29.2691 15.1979 29.2172 15.1307C29.1473 15.0404 29.1144 14.9325 29.1128 14.8474L30.919 14.8132ZM30.0924 13.6054C29.8597 13.2639 29.5888 12.95 29.2849 12.6698L28.0604 13.998C28.2632 14.185 28.4441 14.3945 28.5994 14.6226L30.0924 13.6054ZM29.3206 12.7046C29.3663 12.7517 29.3982 12.8014 29.37 12.761C29.3599 12.7465 29.2942 12.6477 29.1923 12.5551C29.0718 12.4454 28.9077 12.3472 28.6999 12.3048C28.5067 12.2653 28.3335 12.2859 28.2028 12.3172L28.6228 14.0742C28.581 14.0842 28.4764 14.1029 28.3383 14.0747C28.1855 14.0435 28.0628 13.9697 27.9767 13.8914C27.9093 13.83 27.8709 13.7695 27.888 13.7939C27.8895 13.7961 27.9077 13.8226 27.9264 13.8476C27.9473 13.8755 27.9803 13.9175 28.0247 13.9632L29.3206 12.7046ZM28.4071 12.2925C28.5991 12.2913 28.7844 12.3612 28.9276 12.4884L27.7281 13.8391C27.9181 14.0078 28.164 14.1005 28.4185 14.0989L28.4071 12.2925ZM28.9277 12.4884C29.0711 12.6157 29.1622 12.7916 29.1837 12.9822L27.3885 13.1841C27.4169 13.4368 27.5379 13.6701 27.7281 13.8391L28.9277 12.4884ZM29.1884 13.0424C29.1678 12.5856 28.9511 12.2806 28.7842 12.0973C28.7229 12.03 28.6303 11.9407 28.6173 11.9276C28.5828 11.8929 28.5901 11.8963 28.6051 11.9191L27.0963 12.9126C27.1828 13.0439 27.2783 13.1431 27.3365 13.2015C27.3616 13.2268 27.3993 13.2636 27.4119 13.2761C27.4316 13.2955 27.4419 13.3062 27.4484 13.3134C27.4611 13.3274 27.4427 13.3102 27.4224 13.2691C27.3989 13.2216 27.3858 13.1693 27.3838 13.1239L29.1884 13.0424ZM28.6051 11.9191C28.5278 11.8017 28.4418 11.7056 28.3856 11.6445C28.3104 11.5626 28.291 11.5448 28.2463 11.494C28.1787 11.417 28.2002 11.4212 28.2118 11.4698L26.4544 11.8881C26.5449 12.2681 26.7538 12.5322 26.8895 12.6867C26.9465 12.7515 27.0328 12.8422 27.0557 12.8671C27.0976 12.9127 27.1022 12.9215 27.0963 12.9126L28.6051 11.9191ZM28.2296 11.5685C28.2093 11.4043 28.1559 11.2459 28.0726 11.1031L26.5121 12.0132C26.4721 11.9445 26.4464 11.8684 26.4366 11.7894L28.2296 11.5685ZM28.0726 11.1031C27.9893 10.9602 27.8777 10.8357 27.7448 10.7373L26.6697 12.189C26.6058 12.1417 26.5522 12.0818 26.5121 12.0132L28.0726 11.1031ZM27.7448 10.7373C27.6119 10.6389 27.4604 10.5685 27.2993 10.5304L26.8838 12.2884C26.8064 12.2701 26.7335 12.2363 26.6697 12.189L27.7448 10.7373ZM27.2993 10.5304C27.1383 10.4923 26.9713 10.4874 26.8084 10.5159L27.1198 12.2954C27.0415 12.3091 26.9612 12.3067 26.8838 12.2884L27.2993 10.5304ZM27.0303 10.5049C27.1131 10.5109 27.1953 10.5306 27.2728 10.5631C27.3491 10.5951 27.4098 10.6348 27.4555 10.6715C27.5 10.7073 27.5308 10.7406 27.5487 10.7617C27.5664 10.7825 27.5769 10.7977 27.5784 10.7998C27.5788 10.8005 27.5786 10.8003 27.5677 10.7835C27.5599 10.7714 27.543 10.7454 27.5232 10.7173C27.4857 10.6642 27.4069 10.5584 27.2818 10.461L26.1722 11.8866C26.0922 11.8243 26.0508 11.7639 26.0476 11.7595C26.045 11.7558 26.0446 11.7549 26.053 11.7679C26.0584 11.7762 26.0744 11.801 26.0914 11.8257C26.1422 11.8992 26.3919 12.2693 26.8979 12.3065L27.0303 10.5049ZM27.2818 10.461C27.0923 10.3136 26.8956 10.2589 26.8575 10.2469C26.8429 10.2424 26.8428 10.2423 26.8439 10.2427C26.8464 10.2435 26.8597 10.2481 26.8787 10.2562C26.9178 10.273 26.9926 10.31 27.0713 10.381L25.8607 11.7218C25.9729 11.8231 26.0858 11.8817 26.166 11.9162C26.2375 11.9468 26.3069 11.9675 26.3182 11.971C26.3712 11.9876 26.2715 11.9639 26.1722 11.8866L27.2818 10.461ZM27.0713 10.381C27.1737 10.4735 27.237 10.5801 27.2731 10.6734C27.3056 10.7576 27.3132 10.8237 27.315 10.8406C27.3161 10.8507 27.3163 10.856 27.316 10.8509C27.3158 10.8485 27.3157 10.8455 27.3154 10.8396C27.3151 10.8346 27.3147 10.8264 27.3142 10.8179C27.3125 10.7878 27.3083 10.7135 27.2915 10.6276L25.5185 10.9739C25.5104 10.9323 25.5097 10.9039 25.5106 10.9196C25.5108 10.9226 25.5109 10.9259 25.5113 10.9323C25.5116 10.9378 25.512 10.9462 25.5125 10.9552C25.5135 10.9728 25.5153 11.0005 25.5187 11.0326C25.5312 11.1489 25.5775 11.4661 25.8607 11.7218L27.0713 10.381ZM27.2515 10.4856C27.2012 10.3506 27.1224 10.229 27.0213 10.1285L25.7482 11.4102C25.665 11.3275 25.6 11.2272 25.5585 11.1158L27.2515 10.4856ZM27.0213 10.1285C26.9201 10.028 26.7979 9.95001 26.6625 9.90066L26.0438 11.5979C25.9321 11.5572 25.8315 11.4928 25.7482 11.4102L27.0213 10.1285ZM26.6794 9.90699C26.7434 9.93177 26.7449 9.9813 26.6503 9.82685C26.6251 9.78562 26.5297 9.62042 26.4626 9.51852C26.3784 9.39053 26.2571 9.22676 26.0825 9.07785L24.9103 10.4524C24.9038 10.4469 24.9168 10.4558 24.9536 10.5116C25.0075 10.5936 25.0198 10.6234 25.1098 10.7703C25.2456 10.9921 25.5074 11.3903 26.027 11.5916L26.6794 9.90699ZM26.0963 9.08988C25.8114 8.83675 25.5545 8.55379 25.3299 8.24585L23.8703 9.31024C24.171 9.72255 24.515 10.1014 24.8965 10.4403L26.0963 9.08988ZM25.2624 8.1639C25.2946 8.19857 25.3148 8.2426 25.3202 8.28958L23.5256 8.49577C23.5641 8.83084 23.7085 9.14488 23.9378 9.39219L25.2624 8.1639ZM25.3202 8.28958C25.3256 8.33661 25.3159 8.38407 25.2925 8.42509L23.7238 7.52922C23.5565 7.82205 23.4871 8.16066 23.5256 8.49577L25.3202 8.28958ZM25.3602 8.27695C25.3322 8.35638 25.2826 8.42646 25.2169 8.47923L24.0856 7.07087C23.8886 7.22907 23.7399 7.43915 23.6561 7.67736L25.3602 8.27695ZM25.2169 8.47923C25.1512 8.532 25.0721 8.56534 24.9885 8.5755L24.7704 6.78223C24.5197 6.81272 24.2825 6.91269 24.0856 7.07087L25.2169 8.47923ZM24.9004 8.58187C24.8554 8.58291 24.8108 8.57267 24.7708 8.55206L25.5973 6.94574C25.3691 6.82832 25.1151 6.76993 24.8585 6.77587L24.9004 8.58187ZM24.69 8.5051L25.0462 8.73774L26.0341 7.22535L25.678 6.99271L24.69 8.5051ZM25.013 8.71498C25.1177 8.79024 25.2218 8.84879 25.2912 8.88716C25.3748 8.93339 25.4106 8.95212 25.45 8.97639C25.5217 9.02053 25.4457 8.99141 25.3964 8.87915L27.0506 8.15323C26.8789 7.76198 26.5781 7.54957 26.3972 7.43815C26.3103 7.38464 26.2128 7.33253 26.1655 7.30635C26.104 7.27231 26.0795 7.25689 26.0673 7.24812L25.013 8.71498ZM25.376 8.82867C25.4589 9.05345 25.6013 9.18883 25.6499 9.23403C25.664 9.2471 25.6763 9.25791 25.6832 9.26396C25.6951 9.27441 25.69 9.2699 25.6946 9.27389C25.6974 9.27643 25.6772 9.25905 25.6519 9.23142C25.5933 9.1674 25.4886 9.02827 25.4573 8.81828C25.4278 8.6201 25.481 8.47347 25.5068 8.41607L27.1547 9.15621C27.2184 9.01425 27.2814 8.80281 27.2441 8.55219C27.205 8.28977 27.0749 8.11055 26.9842 8.01141C26.9428 7.96622 26.9047 7.93252 26.8895 7.91905C26.8621 7.89488 26.8775 7.90869 26.8799 7.91091C26.8934 7.9235 27.0046 8.02383 27.071 8.20371L25.376 8.82867ZM25.4299 8.71993L25.4253 8.78312L27.2269 8.91554L27.2315 8.85235L25.4299 8.71993ZM26.1103 9.72641C26.1104 9.72644 26.1093 9.72617 26.1072 9.72543C26.1051 9.72469 26.1026 9.72367 26.0998 9.72236C26.0938 9.71955 26.0897 9.71683 26.0883 9.71582C26.0869 9.71478 26.1009 9.72452 26.1359 9.76683C26.1785 9.81839 26.2105 9.86463 26.2864 9.96728C26.3507 10.0543 26.444 10.1774 26.5629 10.297L27.8442 9.02358C27.8226 9.00183 27.7934 8.96701 27.7389 8.89321C27.6958 8.83499 27.6122 8.71739 27.5281 8.61569C27.3363 8.38367 27.0333 8.09315 26.5419 7.97225L26.1103 9.72641ZM26.5629 10.297C26.6853 10.4202 26.8065 10.5119 26.9068 10.5811C26.9561 10.6151 27.0027 10.6452 27.0397 10.6689C27.0804 10.695 27.1056 10.7109 27.1312 10.728C27.2265 10.7913 27.1564 10.7626 27.1175 10.6708L28.781 9.96651C28.6069 9.55507 28.3044 9.33855 28.1309 9.22329C27.9279 9.08846 27.8999 9.07962 27.8442 9.02358L26.5629 10.297ZM27.9711 11.2216C27.8752 11.2239 27.7814 11.1934 27.7053 11.135L28.8045 9.70144C28.5533 9.50885 28.2438 9.40803 27.9274 9.41567L27.9711 11.2216ZM27.7053 11.135C27.6292 11.0766 27.5753 10.994 27.5527 10.9008L29.3081 10.4743C29.2334 10.1668 29.0557 9.89403 28.8045 9.70144L27.7053 11.135ZM27.654 11.1491C28.0413 11.8005 28.5193 12.3934 29.0737 12.91L30.3052 11.5884C29.8763 11.1887 29.5064 10.7299 29.2068 10.226L27.654 11.1491ZM28.9864 12.8163C29.2181 13.1036 29.6081 13.5347 29.9729 13.9354C30.3523 14.3523 30.7098 14.7423 30.9159 14.9851L32.2932 13.8161C32.0608 13.5423 31.6718 13.1183 31.3089 12.7195C30.9312 12.3045 30.5829 11.9182 30.3925 11.6822L28.9864 12.8163ZM30.7283 14.1816L30.3323 15.7655L32.0848 16.2037L32.4808 14.6197L30.7283 14.1816Z" fill="#1F2227" mask="url(#path-17-inside-1_4374_34977)"/>
</svg>
