<svg width="44" height="45" viewBox="0 0 44 45" fill="none" xmlns="http://www.w3.org/2000/svg">
<path d="M13.2 1.27539H30.8C37.676 1.27539 43.25 6.84944 43.25 13.7254V31.3254C43.25 38.2013 37.676 43.7754 30.8 43.7754H13.2C6.32407 43.7754 0.75 38.2013 0.75 31.3254V13.7254C0.75 6.84945 6.32407 1.27539 13.2 1.27539Z" fill="#EDE6FF" stroke="#D9C9FF" stroke-width="1.5"/>
<path d="M10.9027 26.6528C11.7309 26.1632 12.7001 25.9677 13.6533 26.0979C14.6066 26.2281 15.4879 26.6764 16.1544 27.3701C16.8482 28.0367 17.2965 28.918 17.4267 29.8712C17.5568 30.8244 17.3613 31.7937 16.8717 32.6218C16.3149 33.6166 15.4853 34.4314 14.4807 34.9702C14.4522 34.9866 14.4198 34.9953 14.3869 34.9953C14.3539 34.9954 14.3216 34.9867 14.293 34.9703C14.2645 34.9538 14.2408 34.9302 14.2242 34.9017C14.2077 34.8732 14.199 34.8408 14.1989 34.8079L14.1221 33.3989C14.1195 33.3649 14.1088 33.3319 14.0908 33.3029C14.0729 33.2738 14.0483 33.2495 14.019 33.2319C13.9897 33.2144 13.9567 33.2041 13.9226 33.2019C13.8885 33.1998 13.8544 33.2058 13.8232 33.2196C12.3059 33.9318 10.6915 34.4152 9.03257 34.6542C9.00836 34.6569 8.98385 34.6542 8.96086 34.6461C8.93786 34.6381 8.917 34.6249 8.89977 34.6077C8.88255 34.5905 8.86941 34.5696 8.86136 34.5466C8.85331 34.5236 8.85054 34.4991 8.85325 34.4749C9.12215 32.8086 9.61327 31.1859 10.3135 29.6501C10.326 29.6222 10.3316 29.5917 10.3296 29.5611C10.3277 29.5306 10.3183 29.501 10.3023 29.4749C10.2863 29.4488 10.2642 29.427 10.2379 29.4114C10.2115 29.3958 10.1818 29.3869 10.1512 29.3854L8.67394 29.3C8.64468 29.3002 8.61585 29.2929 8.59023 29.2788C8.56461 29.2646 8.54306 29.2442 8.52763 29.2193C8.5122 29.1944 8.50342 29.1661 8.50212 29.1368C8.50082 29.1076 8.50704 29.0785 8.52021 29.0524C9.06687 28.0399 9.89414 27.2067 10.9027 26.6528Z" fill="#DD4863"/>
<path d="M9.77401 28.5056C9.77401 28.5568 9.64592 28.6593 9.77401 28.6934H9.15065H10.0046H10.0729H10.1754C10.2481 28.7071 10.3196 28.7271 10.3888 28.7532C10.5348 28.8022 10.6875 28.8282 10.8414 28.8301C11.0037 28.8301 11.0464 29.2485 11.0122 29.4193C11.0378 29.6386 11.0115 29.861 10.9354 30.0683L10.6023 30.8795C10.534 31.0503 10.4828 31.1954 10.423 31.3577C10.2864 31.8103 10.2095 32.28 10.0985 32.7325C10.0387 32.9546 9.96189 33.1766 9.89358 33.3986V33.4755C9.89358 33.4755 9.89357 33.4755 9.93626 33.4755C9.97896 33.4755 9.93626 33.4755 9.93626 33.5523C9.93626 33.6292 9.93626 33.6377 9.93626 33.6121L10.0387 33.5523H10.09H10.3718C10.6622 33.5697 10.9531 33.5261 11.2257 33.4242C11.388 33.3474 11.5075 33.1851 11.6868 33.1339C11.8662 33.0827 12.0797 33.1339 12.1394 32.8436C12.1394 32.8436 12.2334 32.8436 12.2846 32.8436C12.3832 32.8785 12.4904 32.8808 12.5904 32.85C12.6904 32.8192 12.7778 32.7571 12.8397 32.6728C12.9346 32.5536 13.0622 32.4646 13.2069 32.4166L13.4545 32.297H13.5228L13.7277 32.2372C13.9415 32.186 14.1655 32.1974 14.373 32.2701C14.5805 32.3427 14.7626 32.4737 14.8976 32.6471C14.9923 32.7594 15.0621 32.8903 15.1026 33.0314C15.1361 33.1157 15.1534 33.2055 15.1538 33.2961C15.0955 33.3552 15.0542 33.429 15.0343 33.5096C15.0343 33.5523 15.0855 33.5096 15.1026 33.5096C15.1197 33.5096 15.1026 33.5096 15.1538 33.5096C15.2051 33.5096 15.2819 33.5096 15.3417 33.5096C15.3736 33.4993 15.403 33.4824 15.4279 33.4601C15.4529 33.4377 15.4728 33.4103 15.4865 33.3797C15.5002 33.3491 15.5073 33.316 15.5074 33.2824C15.5074 33.2489 15.5004 33.2158 15.4868 33.1851C15.4868 33.1851 15.4869 33.1253 15.5466 33.1168C16.059 32.9973 15.9907 32.4251 16.2298 32.1177C16.4679 31.7721 16.6174 31.3733 16.6653 30.9563C16.6653 30.8539 16.7592 30.7429 16.6055 30.6319C16.5809 30.6051 16.5672 30.57 16.5672 30.5337C16.5672 30.4973 16.5809 30.4622 16.6055 30.4355C16.8275 30.1537 16.6824 29.8377 16.6055 29.5815C16.5286 29.3253 16.3237 28.9581 16.281 28.5653C16.281 28.513 16.2706 28.4612 16.2503 28.413C16.2301 28.3648 16.2003 28.3211 16.163 28.2845C16.1256 28.2479 16.0813 28.2192 16.0326 28.1999C15.984 28.1807 15.932 28.1714 15.8797 28.1725C15.8503 28.1716 15.8218 28.1622 15.7976 28.1456C15.7734 28.1289 15.7545 28.1057 15.743 28.0786L15.6918 28.0017C15.6679 27.969 15.6391 27.9402 15.6064 27.9163C15.5296 27.8651 15.3844 27.8651 15.3075 27.8053C15.2307 27.7455 15.2307 27.6345 15.1794 27.5491C15.1632 27.5228 15.1394 27.502 15.1111 27.4894C14.5646 27.421 14.2572 26.9172 13.7107 26.9001C13.1977 26.8709 12.6831 26.914 12.1821 27.0283C12.0183 27.0874 11.8426 27.1058 11.67 27.082C11.4975 27.0582 11.3333 26.9929 11.1915 26.8916C11.0122 26.7721 10.9098 26.6013 10.9952 26.4219C11.056 26.2917 11.1467 26.1776 11.2599 26.0889C11.4425 25.962 11.6336 25.8479 11.832 25.7474C12.2322 25.4726 12.7143 25.343 13.1983 25.3801C13.352 25.3801 13.5399 25.2948 13.6509 25.5083C13.6669 25.5158 13.6844 25.5198 13.7021 25.5198C13.7198 25.5198 13.7373 25.5158 13.7534 25.5083C14.0886 25.4672 14.4288 25.4928 14.7541 25.5836C15.0795 25.6745 15.3836 25.8288 15.6491 26.0377C16.0738 26.22 16.4705 26.4615 16.8275 26.755L16.8959 26.8318C16.9403 26.8763 16.9803 26.9249 17.0154 26.977C17.1891 27.0291 17.346 27.1259 17.4704 27.2578C17.5948 27.3897 17.6823 27.552 17.7242 27.7285C18.2811 28.7511 18.4986 29.9243 18.3451 31.0786C18.1916 32.2329 17.6751 33.3086 16.8702 34.1501C16.7421 34.2867 16.7165 34.5002 16.486 34.5856C16.2554 34.671 15.9138 35.0723 15.632 35.2773C15.3502 35.4822 15.0428 35.7213 14.7781 35.7042H14.4621C14.3544 35.6885 14.2503 35.6538 14.1547 35.6018C13.8815 35.4993 13.9498 35.1833 13.8729 34.9186L13.7021 34.1159L13.6167 33.7146V33.5096L14.0693 33.4242L14.2572 33.8341H14.1889L14.0437 33.8939L13.4886 34.1159L12.3956 34.5685C11.9626 34.8003 11.5041 34.9809 11.0293 35.1065C10.8158 35.1065 10.6707 35.3029 10.2437 35.1663C10.1583 35.1663 9.83379 35.3371 9.58614 35.3798C9.34579 35.4196 9.09928 35.3991 8.86884 35.32C8.76669 35.2938 8.67087 35.2473 8.58705 35.1833C8.50294 35.1091 8.43842 35.0152 8.39919 34.9101C8.27597 34.5948 8.24922 34.25 8.32234 33.9195C8.32234 33.7231 8.37356 33.5267 8.41626 33.3303L8.51872 32.8606C8.5785 32.5788 8.56996 32.28 8.62974 32.0067C8.69736 31.714 8.7917 31.4282 8.91155 31.1528C8.98839 30.9806 9.07388 30.8124 9.16772 30.6489C9.24458 30.5038 9.37268 30.2561 9.36414 30.2903C9.36794 30.2823 9.3699 30.2735 9.3699 30.2647C9.3699 30.2558 9.36794 30.247 9.36414 30.239C9.36414 30.1963 9.36413 30.1964 9.43244 30.0939C9.50076 29.9914 9.43244 30.017 9.43244 29.9914H9.38976H9.06526C9.06526 29.9914 9.43245 30.0683 8.72369 29.8377C8.50166 29.7608 8.17715 29.684 8.17715 29.6157C8.10441 29.5259 8.06251 29.4151 8.05762 29.2997C8.06117 29.1059 8.10174 28.9147 8.17715 28.7361C8.28274 28.5072 8.41151 28.2898 8.56144 28.0871C8.71152 27.8624 8.877 27.6484 9.05671 27.4467C9.26165 27.2076 9.32999 27.1307 9.47515 26.977C9.7952 26.7314 11.2783 26.0015 11.65 25.8446C11.8122 25.7421 11.1489 26.6269 11.1745 26.8233C11.1878 26.8562 11.9937 26.8588 11.9804 26.8916C11.6969 27.2071 10.8756 27.626 10.5938 27.848C9.85088 28.3006 9.89356 28.3348 9.77401 28.5056Z" fill="#1F2227"/>
<path d="M12.4149 30.888C12.2932 30.3946 12.2927 29.8791 12.4133 29.3854C12.5339 28.8918 12.7722 28.4346 13.1077 28.0529C13.4433 27.6713 13.8661 27.3764 14.3403 27.1935C14.8144 27.0106 15.3258 26.9452 15.8307 27.0026C15.8618 27.0096 15.8892 27.0278 15.9075 27.0539L16.3857 27.5321C16.4084 27.5535 16.426 27.5798 16.437 27.6089C16.496 28.1134 16.432 28.6247 16.2502 29.099C16.0684 29.5733 15.7743 29.9965 15.3932 30.3323C15.0121 30.6681 14.5553 30.9065 14.0619 31.0271C13.5684 31.1476 13.0531 31.1468 12.5601 31.0247C12.5246 31.02 12.4915 31.0042 12.4655 30.9797C12.4395 30.9552 12.4218 30.9232 12.4149 30.888Z" fill="#FFB800"/>
<path d="M13.4982 30.4181C13.6715 30.4059 13.8417 30.3655 14.002 30.2985C14.0532 30.2985 14.1472 30.3583 14.1386 30.1448C14.1301 29.9313 14.2667 30.2387 14.318 30.2046C14.4568 30.1353 14.5884 30.0523 14.7108 29.9569C14.8095 29.8364 14.8981 29.7079 14.9755 29.5726C15.0609 29.4616 15.2402 29.4019 15.2231 29.214C15.2061 29.0261 15.4281 29.0688 15.4366 28.9322C15.4376 28.869 15.4518 28.8068 15.4782 28.7494C15.5047 28.692 15.5429 28.6409 15.5903 28.5992C15.6843 28.5394 15.7697 28.4711 15.7611 28.3771C15.7526 28.2832 15.633 28.2576 15.6501 28.2063C15.6672 28.1551 15.7696 28.1124 15.5391 28.0697H15.5903C15.744 28.0697 15.7355 28.0014 15.5903 28.0185H15.5049L15.4366 27.9331C15.4366 27.8733 15.4793 27.8306 15.4366 27.7879C15.3939 27.7452 15.3854 27.8562 15.3768 27.7452C15.3683 27.6342 15.2402 27.6342 15.1634 27.6513C15.0865 27.6684 15.0438 27.5574 15.0524 27.7965C14.8389 27.5317 14.8132 27.9587 14.6681 27.9331C14.5106 27.9477 14.3644 28.0208 14.2582 28.138C14.2582 28.138 14.1557 28.138 14.2155 28.2832C14.2753 28.4284 14.2155 28.3686 14.1728 28.3515C13.9508 28.2405 13.9337 28.4198 13.8398 28.4711C13.7458 28.5223 13.7117 28.7016 13.4896 28.7016C13.2676 28.7016 13.3103 28.7529 13.4896 28.9237C13.669 29.0945 13.4384 29.0005 13.4299 29.0518C13.4213 29.103 13.5067 29.1713 13.4982 29.2055C13.4897 29.2396 13.3957 29.2055 13.3445 29.2055C13.5067 29.4446 13.1395 29.5214 13.1908 29.7349C13.2164 29.9247 13.2164 30.1172 13.1908 30.307C13.1908 30.4181 13.1395 30.5291 12.7467 30.7084C12.5945 30.7964 12.7155 30.9235 12.5418 30.8963C12.4597 30.8802 12.4612 31.0533 12.4046 30.9918L12.1006 31.2191C12.0067 31.0484 11.5854 30.0594 11.6879 29.8545C11.6879 29.7947 11.6195 29.7093 11.8074 29.6751C11.8074 29.6751 11.8586 29.6751 11.8074 29.6324C11.5427 29.325 11.8074 29.0688 11.8672 28.7785C11.9269 28.4882 11.8159 28.2234 12.038 28.0612C12.0115 28.0249 11.9941 27.9828 11.9872 27.9384C11.9803 27.894 11.9841 27.8486 11.9983 27.806C12.0125 27.7634 12.0367 27.7248 12.0688 27.6934C12.101 27.6621 12.1402 27.6388 12.1831 27.6257C12.6613 27.378 12.8919 26.9596 13.3103 26.7034C13.7268 26.4423 14.1823 26.2491 14.6595 26.1313C14.7449 26.1313 14.7962 25.969 14.9243 26.0544C15.0523 26.1398 15.1378 26.0544 15.2658 26.0544C15.386 26.0209 15.5129 26.0209 15.633 26.0544C16.0786 26.2623 16.4813 26.5519 16.82 26.9084C17.0545 27.3118 17.1672 27.7744 17.1445 28.2405C17.1952 28.4819 17.1805 28.7325 17.1018 28.9664C17.0506 29.0518 17.1018 29.2055 16.8969 29.214C16.8286 29.214 16.9481 29.3677 16.8969 29.4275C16.84 29.5754 16.7655 29.7159 16.6748 29.8459C16.5638 30.0338 16.4272 30.2046 16.2991 30.3839C16.171 30.5632 16.1966 30.6571 16.1112 30.7681C16.0256 30.8907 15.9113 30.9904 15.7782 31.0585C15.6074 31.1407 15.4304 31.2093 15.2488 31.2634C15.0865 31.3488 14.9413 31.5196 14.7364 31.5025C14.4022 31.5115 14.07 31.5573 13.7458 31.6392C13.4213 31.6392 13.1054 31.6392 12.7894 31.6392C12.7007 31.6258 12.6178 31.5872 12.5503 31.5282L12.4393 31.4513L12.3624 31.4086C12.2918 31.3896 12.2252 31.3578 12.1661 31.3147C12.1379 31.2876 12.1159 31.2551 12.1006 31.2191C12.0853 31.1832 12.077 31.1445 12.077 31.1055C12.077 31.0664 12.0849 31.0277 12.1002 30.9918C12.1155 30.9558 12.1379 30.9233 12.1661 30.8963C12.2724 30.8046 12.4028 30.7453 12.5418 30.7255L12.6186 30.401C12.6955 30.3326 12.7638 30.2814 12.8321 30.2985C13.0449 30.3789 13.2707 30.4194 13.4982 30.4181Z" fill="#1F2227"/>
<path d="M27.273 31.1528L27.589 26.96L20.9795 30.7429L21.4235 33.9964C21.4453 34.153 21.5063 34.3017 21.6009 34.4285C21.6955 34.5553 21.8205 34.6561 21.9644 34.7217C22.1084 34.7873 22.2665 34.8154 22.4243 34.8036C22.582 34.7918 22.7342 34.7403 22.8667 34.6539L26.6325 32.2288C26.8141 32.11 26.9662 31.9513 27.0772 31.7648C27.1882 31.5784 27.2551 31.369 27.273 31.1528Z" fill="#6A36FF"/>
<path d="M26.3601 33.22C26.0441 33.4165 25.7281 33.6043 25.4293 33.8263C25.3183 33.9117 25.1098 33.8529 25.1013 34.092C24.9503 34.1688 24.8913 34.1423 24.7888 34.2191C24.5156 34.4241 24.2081 34.5863 23.9349 34.7913C23.8012 34.8927 23.6729 35.001 23.5506 35.1158L23.3542 35.2866C23.2314 35.3765 23.0998 35.4537 22.9614 35.5171C22.6743 35.5977 22.3733 35.6159 22.0787 35.5702C21.7841 35.5245 21.5027 35.4161 21.2535 35.2524C20.7753 34.9962 20.707 34.3985 20.6301 34.0057C20.5259 33.7339 20.4907 33.4405 20.5277 33.1517C20.5786 32.9528 20.5786 32.7443 20.5277 32.5454C20.5277 32.4259 20.3569 32.3234 20.3483 32.1868C20.3398 32.0501 20.4167 31.905 20.1776 31.8281C20.1776 31.8281 20.1776 31.7598 20.1776 31.7257C20.205 31.6942 20.2258 31.6576 20.239 31.6181C20.2522 31.5785 20.2575 31.5367 20.2544 31.4951C20.2365 31.3747 20.1959 31.2588 20.1349 31.1535C20.0346 30.9626 19.9736 30.7535 19.9555 30.5387L19.9043 30.1971C20.28 29.9751 20.6984 29.736 21.0656 29.5481C21.2535 29.4542 21.4841 29.4286 21.672 29.3432C21.8598 29.2578 22.0306 29.0443 22.2612 29.0357C22.4703 29.024 22.6717 28.9529 22.8418 28.8308C22.9358 28.771 23.1066 28.8308 23.0724 28.549C23.0811 28.5428 23.0916 28.5394 23.1023 28.5394C23.113 28.5394 23.1235 28.5428 23.1322 28.549C23.5677 28.6515 23.6445 28.1476 23.9861 28.0452C24.3067 27.9173 24.6107 27.751 24.8913 27.5499C24.9681 27.4987 25.0877 27.5072 25.0791 27.3193C25.0706 27.1315 25.156 27.1998 25.2158 27.2169C25.2888 27.234 25.3648 27.234 25.4378 27.2169C25.5234 27.1941 25.6043 27.1565 25.6769 27.1059C25.8819 26.9863 26.0868 26.8411 26.3003 26.7386C26.7529 26.5337 27.3079 26.0982 27.6495 26.0982C27.7947 26.0982 27.9655 26.0555 28.4437 25.5346L28.5291 25.4492C28.5718 25.5175 28.4693 25.8591 28.4778 25.9957C28.4864 26.1324 28.5888 26.1665 28.5803 26.3373C28.5384 26.5322 28.4813 26.7235 28.4095 26.9094C28.3931 26.9535 28.3931 27.002 28.4095 27.0461C28.4935 27.4373 28.4935 27.8418 28.4095 28.233L28.2985 28.8479C28.2825 28.9583 28.2825 29.0705 28.2985 29.1809C28.314 29.627 28.2825 30.0735 28.2046 30.5131C28.1908 30.6617 28.1293 30.8019 28.0292 30.9127C27.9292 31.0236 27.796 31.099 27.6495 31.1279C27.5661 31.1624 27.4752 31.1751 27.3855 31.1646C27.2959 31.1541 27.2104 31.1209 27.1371 31.0681C27.0599 30.9948 27.0013 30.904 26.9663 30.8034L26.8809 30.3764C26.8297 30.0946 26.6589 29.7957 26.787 29.5225C26.787 29.4371 26.7187 29.3175 26.9151 29.2578C26.9151 29.2578 26.9578 29.2151 26.9151 29.198C26.6675 28.6685 26.8553 28.6856 26.8468 28.5148C26.8383 28.3441 26.5906 28.6344 26.7016 28.4465L26.6162 28.5661C26.4454 28.8308 26.5138 28.7454 26.5394 28.66C26.565 28.5746 26.5394 28.5149 26.4711 28.549C26.2705 28.693 26.0592 28.8214 25.8391 28.9333C25.2328 29.2407 24.6607 29.6079 24.0715 29.9324C23.969 29.9922 23.9434 30.1544 23.7812 30.1288C23.6189 30.1032 23.5164 30.2569 23.3883 30.3337C23.2603 30.4106 23.1749 30.5131 23.0297 30.5216C22.7606 30.5607 22.5021 30.6536 22.2697 30.7948L21.9281 31.0083C21.8952 31.0371 21.8577 31.0602 21.8171 31.0767H21.7317C21.7275 31.1478 21.7275 31.219 21.7317 31.2901C21.762 31.5087 21.8048 31.7254 21.8598 31.9391C21.9803 32.2404 22.0607 32.5562 22.0989 32.8784C22.0989 33.0236 22.2441 33.1517 22.0477 33.314C21.9964 33.314 22.1758 33.4677 22.1928 33.5531V33.7153V33.8178C22.1928 33.8178 22.1928 33.8178 22.1928 33.869C22.1928 33.9203 22.2697 33.9715 22.3295 33.9544C22.3892 33.9373 22.4917 33.852 22.449 33.8263V33.7324L22.7052 33.5872C22.9272 33.4762 23.1749 33.4079 23.3969 33.2883C23.6189 33.1688 23.7982 32.9382 24.063 32.887C24.5061 32.7468 24.92 32.5269 25.2841 32.238L25.8648 31.8879L26.1551 31.7C26.2045 31.6612 26.2476 31.6151 26.2832 31.5634C26.3515 31.4609 27.2384 31.0149 27.2896 30.8441C27.5252 30.7621 27.1381 30.8813 27.3855 30.9127C27.4032 30.9162 27.5786 30.6593 27.5933 30.6696C27.608 30.6799 28.0111 30.275 27.7634 30.7588C27.8658 30.9211 28.2046 30.3211 28.2046 30.5131C28.2046 30.705 27.547 32.1696 27.4445 32.3319C27.3422 32.4513 27.2309 32.5627 27.1115 32.665L26.9237 32.8016L26.787 32.887L26.3601 33.22Z" fill="#1F2227"/>
<path d="M12.355 16.2347L16.5564 15.9102L13.4993 21.7596L9.81029 21.8194C9.63985 21.8222 9.47186 21.7786 9.32432 21.6932C9.17678 21.6078 9.05526 21.4839 8.97277 21.3347C8.89029 21.1856 8.84994 21.0168 8.85608 20.8464C8.86221 20.6761 8.91459 20.5106 9.00759 20.3677L11.2791 16.8409C11.3987 16.663 11.5583 16.5155 11.7451 16.4102C11.932 16.3049 12.1408 16.2448 12.355 16.2347Z" fill="#6A36FF"/>
<path d="M11.4404 17.8406C11.2525 18.1395 11.039 18.4299 10.8682 18.7458C10.7999 18.8654 10.6462 18.9251 10.7401 19.1472C10.8341 19.3692 10.5181 19.2411 10.4584 19.3521C10.3046 19.6424 10.0912 19.9072 9.92892 20.206C9.85207 20.3512 9.78375 20.4964 9.71544 20.6501L9.6642 20.7611V20.8123C9.6642 20.8123 9.59587 20.966 9.7325 20.9319C9.86913 20.8977 9.73251 21.0429 9.8179 21.0087H9.92037H10.1253C10.2638 21.0037 10.4022 21.021 10.5352 21.06C10.7176 21.1402 10.9175 21.1726 11.1159 21.1539C11.2354 21.1539 11.3464 21.0087 11.4831 21.0173C11.6197 21.0258 11.7478 21.1198 11.8503 20.8892C11.8503 20.8892 11.91 20.8892 11.9356 20.9404C11.9613 20.9695 11.9929 20.9928 12.0282 21.0087C12.0635 21.0247 12.1018 21.0329 12.1406 21.0329C12.1794 21.0329 12.2177 21.0247 12.253 21.0087C12.2884 20.9928 12.3199 20.9695 12.3455 20.9404C12.386 20.9047 12.4335 20.8778 12.485 20.8616C12.5365 20.8454 12.5908 20.8403 12.6444 20.8465H12.8579C12.8579 20.8465 12.9091 20.9575 13.0031 20.8465C13.097 20.7355 13.1397 20.411 13.3276 20.2914C13.4877 20.1705 13.6117 20.0081 13.6862 19.8218C13.7375 19.7193 13.8912 19.6595 13.7289 19.4717C13.7289 19.4717 13.7289 19.4204 13.7289 19.4119C14.1474 19.2667 13.9339 18.8141 14.1474 18.5579C14.3428 18.295 14.5035 18.008 14.6256 17.704C14.6256 17.6272 14.7622 17.5759 14.6256 17.4222C14.6169 17.4085 14.6112 17.3931 14.6091 17.377C14.607 17.3609 14.6084 17.3446 14.6133 17.3291C14.6182 17.3137 14.6264 17.2995 14.6374 17.2875C14.6484 17.2756 14.6618 17.2662 14.6768 17.26C14.746 17.2354 14.8098 17.1977 14.8647 17.149C14.8647 17.149 14.8647 17.149 14.9074 17.149C14.9501 17.149 14.9074 17.149 14.9074 17.0977C14.9074 17.0465 14.8476 17.0977 15.155 16.8757C15.2575 16.8074 15.3429 16.722 15.2062 16.7903L15.0098 16.9098C14.8476 17.0209 15.0098 16.9098 14.9244 16.9098C14.8678 16.9522 14.8136 16.9979 14.7622 17.0465C14.7979 17.0041 14.8293 16.9583 14.8561 16.9098C14.7366 17.0465 14.7707 17.0208 14.7451 16.9782H14.6C14.4925 16.9612 14.383 16.9612 14.2755 16.9782C13.8536 17.0595 13.424 17.0939 12.9945 17.0806C12.8479 17.0902 12.7023 17.0509 12.5802 16.9691C12.4582 16.8872 12.3667 16.7673 12.3199 16.628C12.2758 16.5499 12.2526 16.4616 12.2526 16.3719C12.2526 16.2821 12.2758 16.1939 12.3199 16.1157C12.3734 16.0258 12.4501 15.9521 12.542 15.9022L12.9348 15.757C13.1995 15.6631 13.4557 15.4496 13.746 15.5265C13.84 15.5265 13.9339 15.4411 14.0193 15.6204C14.0232 15.6257 14.0284 15.63 14.0343 15.633C14.0402 15.6359 14.0468 15.6375 14.0534 15.6375C14.0601 15.6375 14.0666 15.6359 14.0725 15.633C14.0785 15.63 14.0836 15.6257 14.0876 15.6204C14.2445 15.4862 14.4447 15.4134 14.6512 15.4155C14.9842 15.4155 15.2916 15.4155 15.6161 15.4155C16.221 15.2652 16.8384 15.1709 17.4606 15.1336C17.6659 15.0419 17.8807 14.9731 18.1011 14.9287C18.0062 15.1727 17.8737 15.4004 17.7083 15.6033C17.3205 16.127 16.9805 16.6842 16.6921 17.2685L16.3249 18.0114C16.2566 18.1566 16.1883 18.3018 16.1114 18.4469C15.7784 19.0105 15.5051 19.6083 15.1892 20.1548C15.1379 20.2573 15.1892 20.4024 15.0525 20.4707C14.9159 20.5391 14.9074 20.7099 14.8391 20.838C14.7707 20.9661 14.7622 21.1027 14.6512 21.1795C14.4938 21.3086 14.3608 21.4648 14.2584 21.6406C14.1046 21.9224 13.9595 22.2299 13.8143 22.5373C13.6094 22.5373 13.413 22.5373 13.208 22.5373H12.3797C12.1255 22.537 11.8716 22.5542 11.6197 22.5885C11.3137 22.673 10.9978 22.7161 10.6804 22.7166C10.5437 22.7166 10.4071 22.8276 10.2705 22.6141C10.2705 22.5458 10.1082 22.7166 10.0228 22.7252C9.86413 22.7462 9.70334 22.7462 9.54464 22.7252C9.35005 22.7005 9.16179 22.6397 8.98958 22.5458C8.75481 22.4193 8.55059 22.2428 8.39127 22.0289C8.23195 21.815 8.12137 21.5688 8.06732 21.3076C7.97756 20.9806 7.97756 20.6355 8.06732 20.3085C8.09705 20.2201 8.13419 20.1344 8.17833 20.0523C8.17833 19.9669 8.27227 19.8815 8.28935 19.8559L8.46015 19.6254C8.61386 19.4375 8.81025 19.2752 8.95542 19.0874C9.10059 18.8995 9.1689 18.6177 9.38239 18.4725C9.72909 18.1745 10.0185 17.8156 10.2363 17.4137L10.6121 16.8671L10.7914 16.5768C10.8759 16.4399 10.9731 16.3112 11.0817 16.1925C11.3645 15.9823 12.6511 15.7484 13.0031 15.7303C13.1824 15.6876 12.4566 16.3206 12.4139 16.5085C12.4212 16.5394 13.1416 16.7594 13.1343 16.7903C12.9464 16.9867 12.226 17.0892 12.115 17.149C12.0109 17.2116 11.9277 17.3037 11.8759 17.4137L11.4404 17.8406Z" fill="#1F2227"/>
<path d="M17.0926 15.3639C22.703 8.93371 30.4226 9.16427 33.0442 9.46315C33.3121 9.48792 33.563 9.60564 33.7532 9.79591C33.9435 9.98618 34.0612 10.237 34.086 10.505C34.3848 13.118 34.6069 20.8376 28.1767 26.4565C24.0778 30.0345 20.423 30.6151 19.0908 30.7262C18.921 30.735 18.7513 30.7068 18.5935 30.6434C18.4357 30.58 18.2936 30.4829 18.1771 30.359L15.7093 27.8484L13.2328 25.372C13.1089 25.2533 13.0114 25.1098 12.9467 24.9509C12.8819 24.792 12.8514 24.6212 12.8571 24.4497C12.934 23.1176 13.5061 19.4627 17.0926 15.3639Z" fill="#EBEFF9"/>
<path d="M14.4991 20.709C14.0907 21.6479 13.8037 22.635 13.6452 23.6466C13.6452 23.8344 13.5683 24.0137 13.5513 24.2102C13.5427 24.3039 13.5427 24.3982 13.5513 24.492C13.5608 24.513 13.575 24.5316 13.5928 24.5464C13.6105 24.5611 13.6313 24.5717 13.6537 24.5773C13.7135 24.5773 13.6537 24.6371 13.6537 24.7225C13.6459 24.7677 13.6459 24.8139 13.6537 24.8592C13.7029 24.9336 13.7602 25.0023 13.8245 25.0641L15.9679 27.1904L18.1284 29.1715C18.3077 29.3338 18.4785 29.5131 18.6407 29.6924C18.7077 29.779 18.796 29.8466 18.8969 29.8888H18.9908H19.3068C19.5247 29.8627 19.7394 29.8141 19.9472 29.7437C20.6646 29.5131 21.3733 29.5046 22.0479 29.2142C22.7226 28.9239 23.474 28.5482 24.1913 28.2664C24.7192 28.0715 25.2189 27.8074 25.6772 27.4807C25.9504 27.2587 26.1554 26.9855 26.4542 26.7549C26.7531 26.5243 27.1203 26.3706 27.2057 25.9949C27.2781 25.9397 27.3588 25.8965 27.4448 25.8668C27.8083 25.7191 28.1099 25.4507 28.2987 25.1068C28.4579 24.8639 28.6379 24.6353 28.8367 24.4236C29.0844 24.1248 29.3576 23.843 29.5882 23.527L30.2884 22.5962C30.5958 22.1009 31.0228 21.674 31.2875 21.1531C31.5522 20.6322 31.7657 19.9746 32.0902 19.4964C32.3748 19.0086 32.5876 18.4822 32.7222 17.9337C32.799 17.6263 33.021 17.2933 32.8417 16.9773C32.8226 16.9161 32.8226 16.8506 32.8417 16.7894C33.3541 15.9355 33.0637 14.9876 33.2174 14.091C33.3285 13.1292 33.3285 12.1579 33.2174 11.1962C33.2174 11.0681 33.2174 10.94 33.2174 10.8119C33.2223 10.7494 33.2223 10.6865 33.2174 10.624C33.2174 10.624 33.1662 10.624 33.1235 10.5813C33.0808 10.5386 33.0381 10.5813 33.0552 10.5045C33.0725 10.481 33.0819 10.4526 33.0819 10.4234C33.0819 10.3942 33.0725 10.3657 33.0552 10.3422C33.0316 10.3198 33.0019 10.3049 32.9698 10.2995H32.7392C32.372 10.2995 32.0048 10.2995 31.6376 10.2398C30.7837 10.1544 29.9725 10.291 29.1185 10.1885C28.6855 10.1101 28.2388 10.2019 27.8718 10.4447C27.6925 10.5643 27.274 10.5301 27.0178 10.624C26.7617 10.718 26.5567 10.829 26.3176 10.9058C26.1045 10.9234 25.8903 10.9234 25.6772 10.9058C25.6095 10.9126 25.5432 10.9299 25.4808 10.9571C24.4048 11.5463 23.1751 11.7 22.1248 12.349C21.0788 12.9904 20.0825 13.7098 19.1445 14.5009C18.6818 14.9826 18.0881 15.3181 17.4367 15.4659C17.1463 15.4659 16.9926 15.3719 17.1122 15.0645C17.2092 14.8277 17.3354 14.604 17.4879 14.3984C17.7355 14.0663 18.0066 13.7524 18.2992 13.4591C18.8386 12.7791 19.4951 12.2008 20.2376 11.7512C20.4852 11.6317 20.7073 11.3669 20.9891 11.4011C21.0587 11.3982 21.1252 11.371 21.1769 11.3243C22.1236 10.5768 23.2179 10.0384 24.3877 9.74447C25.315 9.32858 26.2947 9.04128 27.2997 8.89053C27.8476 8.6019 28.468 8.48018 29.0844 8.54042C30.1006 8.54042 31.1082 8.54043 32.1244 8.63436L32.8844 8.67705C33.2416 8.68616 33.5921 8.7767 33.9091 8.94177C34.283 9.14075 34.5825 9.45528 34.7631 9.83842C34.8495 10.025 34.9071 10.2237 34.9338 10.4276V10.8204C35.1023 12.8713 34.9787 14.9356 34.5666 16.9517C34.5583 17.3089 34.486 17.6618 34.3532 17.9935C34.1878 18.407 34.0537 18.8323 33.9518 19.2659C33.8478 19.6657 33.6988 20.0524 33.5078 20.4187C32.7549 21.8538 31.8987 23.2323 30.946 24.5432C29.9158 25.7671 28.7721 26.8907 27.5302 27.8992C26.8097 28.5647 26.0094 29.1384 25.1477 29.607C24.8045 29.8755 24.3937 30.044 23.9608 30.0938C23.8241 30.0938 23.5423 30.4097 23.2861 30.5122C22.6603 30.7872 22.0117 31.0072 21.3477 31.1697C20.8837 31.2899 20.4133 31.384 19.9387 31.4515C19.6985 31.4931 19.4562 31.5216 19.2129 31.5369C19.0372 31.5615 18.8591 31.5615 18.6834 31.5369C18.493 31.5112 18.3082 31.4534 18.1369 31.3661C17.939 31.2689 17.7552 31.1454 17.5904 30.999L17.2659 30.7257C17.0524 30.5549 16.8389 30.3841 16.6425 30.1963C16.2241 29.812 15.7886 29.4021 15.4214 28.9751C15.0542 28.5482 14.4735 27.8821 13.9697 27.3526C13.7135 27.0794 13.4317 26.8232 13.1158 26.5585C12.9791 26.4219 12.8425 26.2938 12.7144 26.1571C12.5363 25.9789 12.3866 25.7744 12.2704 25.5508C12.1505 25.2991 12.0809 25.0265 12.0654 24.7481C12.068 24.533 12.0908 24.3185 12.1337 24.1077C12.185 23.749 12.2533 23.3989 12.3216 23.0573C12.4521 22.3681 12.6407 21.691 12.8852 21.0335C13.3842 19.7438 14.0017 18.5031 14.7297 17.3274C15.1797 16.7277 15.6674 16.1573 16.1899 15.6196C16.4205 15.3463 18.1606 13.6528 18.2118 13.8834C18.2283 13.9362 18.5014 14.8321 18.485 14.885C17.9877 15.5683 16.5655 17.0685 16.1814 17.6946C15.51 18.6336 14.9458 19.6446 14.4991 20.709Z" fill="#1F2227"/>
<path d="M31.0817 9.23242L27.1365 9.83019C27.1028 9.83762 27.0717 9.85378 27.0462 9.87707C27.0208 9.90036 27.0019 9.92994 26.9915 9.96283C26.9812 9.99573 26.9796 10.0308 26.9871 10.0645C26.9945 10.0981 27.0107 10.1293 27.0341 10.1547L33.5752 16.8239C33.5977 16.8509 33.6275 16.8707 33.6611 16.8808C33.6947 16.891 33.7305 16.8911 33.7641 16.8811C33.7978 16.8711 33.8277 16.8515 33.8503 16.8246C33.8729 16.7977 33.8871 16.7648 33.8912 16.73L34.3694 14.45V12.3066C34.3741 12.287 34.3741 12.2665 34.3694 12.2468L33.7204 9.99244C33.7125 9.9601 33.6954 9.93076 33.6712 9.908C33.6469 9.88525 33.6165 9.87007 33.5837 9.86435L31.1671 9.23242H31.0817Z" fill="#6A36FF"/>
<path d="M26.1875 9.93284C28.0405 9.37778 32.8909 9.01913 33.7876 9.82183C34.5476 10.505 34.0437 16.3203 33.5997 17.5073" stroke="#1F2227" stroke-width="1.35486" stroke-linecap="round" stroke-linejoin="round"/>
<path d="M19.2196 21.3244C19.1076 21.3306 19.0445 21.3332 18.9509 21.3579C18.8573 21.3826 18.6239 21.6091 18.6239 21.6091C18.592 21.6099 18.5607 21.6195 18.5332 21.6367L18.4675 21.7024C18.3516 21.8926 18.2997 22.113 18.3197 22.33C18.3454 22.4764 18.3995 22.6153 18.4789 22.739C18.5685 22.8803 18.6494 23.027 18.7213 23.1785C18.7773 23.2603 18.8478 23.3308 18.9296 23.3868C18.9971 23.4411 19.0584 23.5025 19.1127 23.5699L19.4915 23.9487C19.5683 24.0125 19.6569 24.061 19.7527 24.0916C19.8358 24.1221 19.8119 24.0325 19.9081 24.0499C20.004 24.0879 20.1023 24.1204 20.2024 24.147C20.2659 24.1706 20.3329 24.1844 20.4012 24.1881C20.4469 24.155 20.3522 24.0603 20.4027 24.1108C20.5729 24.2942 20.4661 24.1611 20.5876 24.2037C20.7091 24.2464 20.7172 24.1625 20.7632 24.1165C20.8398 24.0775 20.9204 24.0478 21.0033 24.028C21.0445 23.9997 21.0802 23.964 21.1084 23.9228C21.2722 23.7843 21.2766 23.5653 21.3352 23.5319C21.3938 23.4985 21.3299 23.474 21.3307 23.4354C21.3314 23.3967 21.2951 23.2815 21.333 23.3194L21.2572 23.2437C21.1713 23.0114 21.0544 22.7929 20.9096 22.5938C20.7728 22.3518 20.5815 22.1751 20.3151 21.9086C20.0486 21.6422 19.6173 21.4197 19.6173 21.4197C19.5153 21.3702 19.3317 21.3181 19.2196 21.3244Z" fill="#1F2227"/>
<path d="M24.3808 15.9982C24.2688 16.0045 24.2057 16.0071 24.112 16.0317C24.0184 16.0564 23.785 16.283 23.785 16.283C23.7532 16.2837 23.7218 16.2933 23.6943 16.3106L23.6286 16.3763C23.5127 16.5664 23.4608 16.7869 23.4808 17.0039C23.5065 17.1503 23.5606 17.2891 23.6401 17.4128C23.7296 17.5541 23.8105 17.7008 23.8824 17.8523C23.9384 17.9341 24.009 18.0047 24.0908 18.0606C24.1582 18.115 24.2196 18.1763 24.2739 18.2437L24.6527 18.6225C24.7294 18.6863 24.818 18.7348 24.9138 18.7654C24.997 18.796 24.973 18.7063 25.0692 18.7237C25.1652 18.7618 25.2634 18.7942 25.3635 18.8208C25.427 18.8444 25.494 18.8583 25.5623 18.8619C25.6081 18.8288 25.5134 18.7341 25.5639 18.7846C25.7341 18.968 25.6273 18.8349 25.7488 18.8775C25.8703 18.9202 25.8784 18.8363 25.9244 18.7903C26.0009 18.7513 26.0815 18.7216 26.1644 18.7018C26.2056 18.6735 26.2413 18.6378 26.2696 18.5966C26.4333 18.4581 26.4377 18.2391 26.4963 18.2057C26.555 18.1724 26.491 18.1479 26.4918 18.1092C26.4926 18.0706 26.4562 17.9554 26.4941 17.9933L26.4184 17.9175C26.3324 17.6853 26.2155 17.4667 26.0707 17.2676C25.9339 17.0256 25.7427 16.8489 25.4762 16.5825C25.2097 16.316 24.7785 16.0935 24.7785 16.0935C24.6764 16.0441 24.4928 15.9919 24.3808 15.9982Z" fill="#1F2227"/>
<path d="M22.5373 21.6272C22.6127 21.7164 22.6955 21.7992 22.7847 21.8747C22.8191 21.909 22.7916 21.909 22.796 21.9591C22.9062 21.9457 22.8672 21.9846 22.8947 21.9846C22.9222 21.9846 22.9909 22.0809 23.0322 22.1221C23.0734 22.1634 23.1691 22.1754 23.231 22.1685C23.2929 22.1616 23.3643 22.2574 23.4262 22.1543C23.5415 22.1352 23.5059 22.2396 23.5609 22.1983C23.6158 22.1571 23.5688 22.1767 23.694 22.1751C23.7825 22.1948 23.7951 22.1977 23.8226 22.1565C23.8501 22.1152 23.8544 22.1882 23.8854 22.0937C23.9472 22.0685 23.9051 22.074 23.9083 22.0296L23.9826 21.9965C24.0789 22.0927 24.0019 22.0578 24.0122 21.967C24.0587 21.847 24.0174 21.9205 24.0587 21.8792L24.1177 21.8201C24.1177 21.8201 24.1113 21.7303 24.1526 21.7166C24.1938 21.7028 24.1516 21.6357 24.2547 21.6563C24.3578 21.677 24.3588 21.6066 24.3657 21.5722C24.3725 21.5379 24.405 21.6617 24.3734 21.4958C24.4793 21.3761 24.3667 21.3925 24.3862 21.2778C24.3874 21.193 24.3645 21.1953 24.3508 21.1403C24.337 21.0853 24.3669 21.1564 24.3186 21.0436C24.3642 20.9658 24.3176 21.0017 24.3038 20.933C24.2901 20.8642 24.2986 20.9965 24.3022 20.8076C24.274 20.7795 24.2971 20.7536 24.2145 20.7199C24.2145 20.7199 24.1925 20.7457 24.1513 20.7045L24.1191 20.6723C23.9633 20.5649 24.0288 20.4243 23.8845 20.3762C23.7574 20.3111 23.654 20.2077 23.5889 20.0806C23.5339 20.0256 23.534 19.9157 23.7677 19.6132C23.8515 19.4799 23.9643 19.3671 24.0976 19.2833C24.1501 19.2451 24.2117 19.2214 24.2763 19.2145L24.4413 19.2283C24.5513 19.242 24.7368 19.1802 24.7368 19.3177C24.7368 19.4551 24.8331 19.3039 24.73 19.4483C24.998 19.3452 24.9705 19.5651 25.0668 19.6339C25.163 19.7026 25.2324 19.702 25.3951 19.9077C25.5623 20.0749 25.612 20.13 25.6715 20.3076C25.7268 20.6865 25.8435 20.6718 25.8572 20.988C25.8806 21.2993 25.8551 21.6124 25.7816 21.9159C25.7816 21.9159 25.8847 22.019 25.7541 22.0809C25.6235 22.1427 25.6648 22.1702 25.6579 22.2596C25.651 22.3489 25.6511 22.3902 25.5686 22.4177C25.273 22.5208 25.2318 22.7545 25.0599 22.9263C24.8881 23.0982 24.6819 23.1807 24.5031 23.3319C24.3244 23.4831 24.2763 23.5587 24.132 23.5793C23.9876 23.6 24.0151 23.6962 23.9258 23.5106C23.8914 23.4762 23.8433 23.5931 23.8158 23.6206C23.7167 23.6434 23.6149 23.6526 23.5133 23.6481L23.0872 23.6068C23.0047 23.6068 22.9535 23.6332 22.8573 23.6195C22.7611 23.6169 22.6923 23.5603 22.6138 23.5046C22.5199 23.4246 22.4179 23.42 22.3379 23.3261C22.2554 23.2436 22.2203 23.2479 22.0828 23.0715C22.021 22.8793 21.843 22.7614 21.7468 22.6377C21.6653 22.515 21.5601 22.4099 21.4375 22.3283C21.3825 22.2733 21.4306 22.1153 21.3756 22.0603C21.4812 21.8671 21.6209 21.6948 21.788 21.5516L21.843 21.4966C22.008 21.4416 22.2348 21.3248 22.2829 21.4004C22.3629 21.4812 22.4479 21.557 22.5373 21.6272Z" fill="#1F2227"/>
<path d="M32.5776 16.687C32.5117 16.6323 32.4339 16.5739 32.3507 16.5284C32.3189 16.4393 32.2737 16.358 32.2172 16.285C32.1113 16.1481 31.9803 16.0599 31.8868 16.0025C31.8278 15.9663 31.7908 15.9455 31.7605 15.9285C31.726 15.909 31.7002 15.8945 31.6605 15.8677C31.6184 15.8394 31.6071 15.825 31.6057 15.8231L31.5979 15.8097L31.589 15.7966C31.3622 15.4638 31.0992 15.1571 30.8047 14.8824C30.8028 14.8798 30.8005 14.8765 30.7977 14.8725C30.7971 14.8716 30.7964 14.8706 30.7956 14.8695C30.7806 14.8478 30.7405 14.79 30.6821 14.7369C30.6216 14.6819 30.5435 14.6326 30.4467 14.6041C30.3871 14.4296 30.2887 14.2979 30.1972 14.1974C30.1545 14.1505 30.1019 14.0988 30.0636 14.0612C30.0504 14.0482 30.0389 14.0369 30.03 14.0281C29.985 13.9828 29.9621 13.9557 29.9482 13.9345C29.8881 13.8433 29.818 13.7638 29.7604 13.7012C29.7341 13.6726 29.7118 13.6488 29.6911 13.6268C29.6592 13.5928 29.6313 13.5632 29.5992 13.5267C29.5105 13.4258 29.465 13.3529 29.4448 13.2824C29.4288 13.1872 29.3957 13.0955 29.347 13.0119C29.2923 12.9182 29.2192 12.8366 29.132 12.772C29.0448 12.7075 28.9454 12.6613 28.8399 12.6363L28.8398 12.6363C28.815 12.6304 28.7899 12.6258 28.7646 12.6223C28.7351 12.5809 28.6855 12.5172 28.6123 12.4603C28.549 12.411 28.4842 12.3775 28.43 12.3545C28.4283 12.3433 28.4263 12.3316 28.424 12.3197L28.4169 12.2834L28.404 12.2487C28.3762 12.1742 28.3327 12.1069 28.2767 12.0513C28.2224 11.9974 28.1572 11.9552 28.085 11.9278C27.9813 11.8871 27.9042 11.807 27.7885 11.6181C27.7732 11.5931 27.7562 11.5641 27.7375 11.532C27.6391 11.3632 27.4917 11.1104 27.2783 10.9269C26.9371 10.6233 26.6294 10.2842 26.3603 9.91524L26.3446 9.89376L26.3266 9.87427C26.2835 9.82781 26.2563 9.76882 26.2491 9.70588C26.2419 9.64297 26.2549 9.57936 26.2864 9.52433L26.3066 9.48883L26.3202 9.45026C26.323 9.44233 26.3279 9.43537 26.3344 9.43014C26.337 9.42807 26.3398 9.4263 26.3427 9.42485C26.3677 9.4273 26.3922 9.43356 26.4153 9.44344L26.7747 9.67824C26.8594 9.73822 26.9464 9.7876 27.0179 9.82712C27.0365 9.83742 27.0539 9.84697 27.0703 9.856C27.1255 9.88628 27.17 9.91073 27.2144 9.93805C27.3205 10.0034 27.3524 10.0432 27.3656 10.0706C27.3885 10.1256 27.4175 10.1706 27.4451 10.206L27.4435 10.2266L27.4156 10.6071L27.786 10.6983C27.9085 10.7284 27.9956 10.7945 28.1024 10.9237C28.1469 10.9774 28.1865 11.0315 28.2345 11.0971C28.2505 11.1191 28.2676 11.1423 28.286 11.1673C28.3539 11.2591 28.4372 11.368 28.5388 11.4702C28.7016 11.6339 28.887 11.7518 29.0105 11.8304C29.0365 11.847 29.0597 11.8617 29.0795 11.8748C29.2078 11.9601 29.2424 12.0021 29.2636 12.0521L29.3833 12.3349L29.6904 12.3275C29.7086 12.3271 29.7264 12.3329 29.7409 12.3439C29.7553 12.355 29.7655 12.3707 29.7698 12.3884L29.7858 12.4543L29.8205 12.5126C30.2147 13.1757 30.7001 13.7801 31.2624 14.3082C31.5074 14.609 31.9122 15.0568 32.3062 15.4897C32.3604 15.5492 32.4144 15.6085 32.4679 15.6672C32.7442 15.9705 33.0065 16.2584 33.2052 16.4844L33.0403 17.1441C33.036 17.1394 33.0317 17.1347 33.0275 17.13C32.8855 16.9742 32.7258 16.8098 32.5776 16.687ZM28.8296 12.7189C28.8296 12.7189 28.8292 12.7184 28.8283 12.7171C28.8292 12.7183 28.8296 12.7189 28.8296 12.7189ZM28.4429 12.5078C28.4428 12.5076 28.4428 12.5075 28.4428 12.5074C28.4429 12.5081 28.443 12.5085 28.4429 12.5084C28.4429 12.5084 28.4429 12.5082 28.4429 12.5078Z" stroke="#1F2227" stroke-width="0.903241"/>
</svg>
