<svg width="41" height="40" viewBox="0 0 41 40" fill="none" xmlns="http://www.w3.org/2000/svg">
<circle cx="20.9688" cy="20" r="20" fill="#FFF1CE"/>
<path d="M15.4111 21.8615H26.7413V32.4363C26.7403 32.6917 26.6703 32.9421 26.5386 33.161C26.4069 33.3798 26.2185 33.559 25.9933 33.6795C25.7681 33.8 25.5145 33.8574 25.2593 33.8456C25.0042 33.8337 24.757 33.7531 24.5439 33.6122L21.8659 31.8268C21.6333 31.6718 21.36 31.5891 21.0805 31.5891C20.801 31.5891 20.5277 31.6718 20.2951 31.8268L17.6171 33.6122C17.4039 33.7554 17.1558 33.8379 16.8994 33.851C16.6429 33.864 16.3878 33.8071 16.1612 33.6863C15.9346 33.5655 15.7451 33.3854 15.613 33.1652C15.4809 32.945 15.4111 32.6931 15.4111 32.4363V21.8615Z" fill="#6A36FF"/>
<path d="M16.105 26.153C16.105 26.9084 16.105 27.6637 16.105 28.4277C16.105 28.7023 16.0191 28.9942 16.2165 29.286C16.311 29.4319 16.0792 29.7066 16.0878 29.9641C16.0878 30.6679 16.0878 31.3804 16.0878 32.0842V32.5391C16.1061 32.6199 16.1412 32.696 16.1908 32.7623C16.2787 32.8861 16.4057 32.9768 16.5513 33.0198C16.8603 33.1142 17.0062 33.1571 17.6242 32.582C18.0651 32.2698 18.5237 31.9832 18.9976 31.7237C19.2293 31.5434 19.4611 31.3632 19.7014 31.2001C20.0675 30.9366 20.5128 30.8063 20.9632 30.831C21.2641 30.8622 21.5558 30.9527 21.8215 31.0971C21.9486 31.1677 22.0719 31.2451 22.1906 31.3289L22.4567 31.492C22.7019 31.5797 22.94 31.6858 23.1692 31.8095C23.3837 31.9555 23.5726 32.2044 23.8816 32.1357C23.8816 32.1357 23.9846 32.2301 24.0189 32.2902C24.0906 32.4179 24.1891 32.5285 24.3076 32.6145C24.4262 32.7004 24.562 32.7597 24.7056 32.7881C24.8172 32.7881 24.9545 32.8825 24.9888 32.8825H25.0919C25.1811 32.9016 25.2738 32.8974 25.361 32.8703C25.4482 32.8433 25.5269 32.7943 25.5897 32.728C25.6468 32.6819 25.6961 32.6268 25.7356 32.5649C25.7597 32.519 25.777 32.4698 25.7871 32.419V32.0928C25.7439 31.6418 25.7439 31.1876 25.7871 30.7366C25.8791 30.3343 25.9166 29.9215 25.8987 29.5092C25.8987 29.2688 26.0017 29.0027 25.7699 28.8053C25.7699 28.8053 25.7699 28.7023 25.7699 28.6594C26.0704 27.9899 25.6755 27.3376 25.7699 26.6595C25.8172 25.9535 25.8172 25.2453 25.7699 24.5393C25.7699 24.3505 25.8386 24.1531 25.6669 23.9814C25.6408 23.9249 25.6273 23.8634 25.6273 23.8012C25.6273 23.7389 25.6408 23.6774 25.6669 23.6209C25.7677 23.3793 25.8145 23.1186 25.8043 22.857C25.8043 22.8141 25.8043 22.7883 25.8043 22.7282H25.6669H25.3579C25.2125 22.7129 25.0689 22.6841 24.9288 22.6424C24.7761 22.5905 24.614 22.5728 24.4538 22.5906C24.2936 22.6084 24.1393 22.6613 24.0018 22.7454C23.8558 22.8398 23.5554 22.7454 23.3322 22.7454C23.1091 22.7454 22.9717 22.857 22.7915 22.8656C22.6293 22.8429 22.4707 22.7996 22.3194 22.7368H22.1735C21.3151 22.9857 20.3881 22.651 19.4868 22.7368C18.5806 22.7883 17.6721 22.7883 16.7659 22.7368C16.5166 22.7563 16.266 22.721 16.0318 22.6335C15.7975 22.5461 15.5852 22.4085 15.4097 22.2304C15.2552 22.0415 15.2552 21.8355 15.4698 21.7154C15.6284 21.6195 15.8028 21.5527 15.9848 21.518L16.8431 21.3978C17.4047 21.262 17.9827 21.2071 18.5598 21.2347C18.7401 21.2347 18.9633 21.1575 19.1178 21.3463C19.1376 21.3568 19.1597 21.3623 19.1821 21.3623C19.2046 21.3623 19.2267 21.3568 19.2465 21.3463C20.05 21.1734 20.8763 21.1328 21.6928 21.2261C22.371 21.1175 23.0575 21.0687 23.7442 21.0802C23.952 20.9769 24.1785 20.9168 24.4101 20.9036C24.6418 20.8903 24.8737 20.9241 25.0919 21.003L25.4953 21.063H25.7013H26.0446H27.521V23.0973C27.521 23.5093 27.521 23.9557 27.521 24.3333C27.521 25.7239 27.521 27.1144 27.521 28.5049C27.521 28.7367 27.6497 28.9427 27.521 29.2173C27.4778 29.5018 27.4778 29.7912 27.521 30.0757C27.5529 30.3609 27.5529 30.6488 27.521 30.934C27.4592 31.2022 27.419 31.4749 27.4008 31.7495V32.1529C27.4008 32.2988 27.4008 32.4104 27.4008 32.6335C27.3654 33.0373 27.2112 33.4216 26.9576 33.7378C26.704 34.0541 26.3624 34.2881 25.9759 34.4103C25.5873 34.5306 25.1714 34.5306 24.7828 34.4103C24.5925 34.3553 24.4105 34.2744 24.2421 34.17L23.8902 33.9297C23.4352 33.6292 22.9803 33.3374 22.5168 33.0713C22.225 32.8996 21.9331 32.7537 21.6585 32.5906L21.4439 32.4791L21.3409 32.4361C21.2736 32.4139 21.2047 32.3967 21.1349 32.3846C20.9975 32.3846 20.9375 32.4962 20.7229 32.3846C20.6628 32.3846 20.5083 32.6507 20.3709 32.7537C20.0019 33.0198 19.6156 33.2601 19.2379 33.5176L18.4482 34.0327L18.0276 34.3073C17.8208 34.4442 17.5911 34.543 17.3496 34.5992C17.0506 34.6901 16.736 34.718 16.4258 34.6811C16.1155 34.6441 15.8163 34.5432 15.547 34.3846C15.2565 34.2076 15.0118 33.9645 14.8328 33.6752C14.6538 33.3859 14.5456 33.0584 14.517 32.7194C14.5087 32.6194 14.5087 32.5189 14.517 32.419V32.2216V31.8439C14.517 31.5864 14.5685 31.3374 14.5771 31.0799C14.5383 30.5513 14.5383 30.0206 14.5771 29.492C14.6999 28.556 14.7373 27.6108 14.6887 26.6681C14.6887 25.741 14.6887 24.7968 14.6887 23.8698C14.6887 23.3377 14.8518 22.857 14.8432 22.342C14.8432 22.1016 15.3839 21.7755 15.5728 21.8699C15.6121 21.8937 15.6423 21.9299 15.6586 21.9729C15.8955 22.4596 16.0382 22.9867 16.0792 23.5265C16.0878 24.4363 16.105 25.2947 16.105 26.153Z" fill="#1F2227"/>
<path d="M21.0753 25.4918C26.1619 25.4918 30.2854 21.3683 30.2854 16.2817C30.2854 11.1951 26.1619 7.07166 21.0753 7.07166C15.9887 7.07166 11.8652 11.1951 11.8652 16.2817C11.8652 21.3683 15.9887 25.4918 21.0753 25.4918Z" fill="#FFCA43"/>
<path d="M16.5089 9.12345C15.7796 9.59488 15.1256 10.1736 14.569 10.8401C14.3888 11.0976 14.0969 11.3036 14.0798 11.6985C14.0798 11.8959 13.7107 12.0332 13.5819 12.2993C13.2132 13.0214 12.9419 13.7891 12.7751 14.5825C12.6678 15.3571 12.6678 16.1427 12.7751 16.9172C12.7867 17.6892 12.9623 18.4499 13.2901 19.1489C13.5076 19.7162 13.7657 20.267 14.0626 20.797C14.2429 21.0716 14.4832 21.3034 14.672 21.5695C14.8609 21.8356 15.084 22.0759 15.29 22.3162C15.496 22.5566 15.5905 22.6853 15.7535 22.857C15.9253 23.0141 16.1089 23.1576 16.3029 23.2862C16.5604 23.4321 16.8608 23.4578 17.1612 23.6295C17.4617 23.8012 17.6762 24.0072 18.0196 23.8956C18.0196 23.8956 18.1569 23.9643 18.2084 24.0158C18.3165 24.1328 18.4503 24.2232 18.5992 24.2798C18.7482 24.3364 18.9082 24.3577 19.0668 24.342C19.3056 24.3388 19.5442 24.3589 19.7792 24.402C20.0969 24.4558 20.4183 24.4845 20.7405 24.4879C21.0635 24.5093 21.3875 24.5093 21.7105 24.4879C21.9508 24.4879 22.1911 24.4879 22.4315 24.4879C22.6767 24.4882 22.9213 24.4623 23.1611 24.4106C23.6675 24.3162 24.1396 24.0329 24.6117 23.9385C25.0727 23.8313 25.5076 23.6328 25.8906 23.3548C26.1052 23.2003 26.4228 23.0888 26.4486 22.7798C26.4811 22.7321 26.5255 22.6936 26.5773 22.6682C27.367 22.4021 27.573 21.5523 28.0622 20.9944C28.5451 20.3576 28.9033 19.6354 29.118 18.8657C29.1738 18.7691 29.2087 18.6619 29.2205 18.5511C29.2324 18.4402 29.2208 18.3281 29.1867 18.2219C29.1438 18.1447 29.1867 17.9387 29.2468 17.8357C29.4978 17.2793 29.5899 16.6643 29.5129 16.0589C29.5129 15.3636 29.3412 14.7027 29.3154 13.9817C29.3215 13.7994 29.2861 13.6181 29.2117 13.4515C29.1374 13.285 29.0261 13.1375 28.8863 13.0203C28.7232 12.9173 28.6717 12.574 28.5429 12.3508C28.4142 12.1277 28.2253 12.0676 28.1223 11.8959C28.0193 11.7242 28.0107 11.5526 27.9335 11.3895C27.9092 11.337 27.8741 11.2902 27.8305 11.2522C27.0494 10.617 26.543 9.70713 25.6331 9.20929C24.7434 8.70545 23.791 8.32157 22.8006 8.06767C22.522 8.02069 22.2488 7.94594 21.9851 7.84452C21.7171 7.76094 21.4748 7.61025 21.2813 7.40675C21.101 7.20933 21.0925 7.00333 21.3671 6.90033C21.5783 6.80499 21.8053 6.74969 22.0366 6.73724C22.4057 6.73724 22.7748 6.73723 23.1439 6.78015C23.9224 6.80346 24.6854 7.00302 25.3756 7.36382C25.5816 7.50115 25.9078 7.51833 25.985 7.80158C26.0143 7.85548 26.0636 7.89561 26.1224 7.91317C27.1366 8.30935 28.0135 8.99238 28.6459 9.8788C29.3292 10.504 29.8757 11.2638 30.251 12.1105C30.4671 12.3 30.6298 12.5426 30.7231 12.8143C30.8327 13.0741 30.9022 13.3491 30.9291 13.6298C31.2791 15.4507 31.2234 17.3263 30.766 19.1232C30.2171 20.9216 29.1837 22.5341 27.779 23.784C27.582 24.0446 27.3299 24.2585 27.0408 24.4106C26.6829 24.601 26.3388 24.8161 26.0108 25.0544C25.6906 25.249 25.3512 25.4101 24.9979 25.535C23.6048 25.9476 22.1592 26.1558 20.7062 26.1531C19.2482 26.0557 17.8228 25.6768 16.5089 25.0372C15.6914 24.691 14.9416 24.2028 14.2944 23.5952C13.9638 23.372 13.7117 23.0508 13.5733 22.6768C13.5733 22.5738 13.2128 22.3849 13.0497 22.1961C12.8556 21.9573 12.6832 21.7017 12.5347 21.4321C12.3699 21.1754 12.2263 20.9055 12.1056 20.6253C11.7408 19.8558 11.4672 19.0463 11.2901 18.2133C11.1505 17.7097 11.0501 17.196 10.9897 16.6769C10.9618 16.3915 10.9618 16.104 10.9897 15.8185C10.9952 15.5306 11.0239 15.2435 11.0755 14.9602C11.2006 14.278 11.3962 13.6106 11.6592 12.9689C11.8592 12.2835 12.1726 11.6365 12.5862 11.0547C13.3276 10.0463 14.1927 9.13507 15.1613 8.34235C16.1672 7.61185 17.2866 7.05216 18.4745 6.68574C19.1337 6.54108 19.8086 6.4805 20.483 6.50547C22.7051 6.74668 21.5685 7.03372 21.4483 7.22255C21.4187 7.26546 22.3588 7.783 22.3101 7.80158C21.7055 7.88025 19.8478 7.75069 19.2642 7.93033C18.2759 8.14185 17.3394 8.5474 16.5089 9.12345Z" fill="#1F2227"/>
<path d="M18.0391 15.0465C17.9567 14.9728 17.911 14.9307 17.8286 14.8826C17.7462 14.8346 17.4257 14.8299 17.4257 14.8299C17.403 14.8082 17.3745 14.793 17.3433 14.7859H17.2517C17.0385 14.8377 16.8488 14.9551 16.7115 15.1202C16.6274 15.2401 16.5683 15.3745 16.5376 15.516C16.5015 15.6768 16.4557 15.8354 16.4002 15.9911C16.3822 16.0871 16.3822 16.1854 16.4002 16.2813C16.4094 16.3662 16.4094 16.4517 16.4002 16.5365V17.0643C16.4093 17.1622 16.4372 17.2577 16.4826 17.3458C16.5193 17.425 16.565 17.3458 16.62 17.425C16.6603 17.5183 16.7061 17.6094 16.7573 17.6977C16.7851 17.7583 16.8221 17.8146 16.8672 17.8648C16.9221 17.8736 16.9221 17.7416 16.9221 17.812C16.913 18.0583 16.9313 17.8912 16.9862 18.0056C17.0411 18.1199 17.1052 18.0671 17.1693 18.0671C17.2498 18.0933 17.3266 18.1288 17.3982 18.1727C17.4466 18.1817 17.4963 18.1817 17.5447 18.1727C17.7553 18.1903 17.911 18.0407 17.9751 18.0583C18.0391 18.0759 18.0117 18.0143 18.0391 17.9879C18.0666 17.9616 18.1216 17.856 18.1216 17.9088V17.8032C18.2235 17.5815 18.2943 17.3478 18.3321 17.1083C18.4054 16.8443 18.3953 16.588 18.3953 16.2167C18.3953 15.8454 18.2498 15.39 18.2498 15.39C18.2132 15.2844 18.1216 15.1202 18.0391 15.0465Z" fill="#1F2227"/>
<path d="M25.3468 14.9308C25.2644 14.8571 25.2186 14.815 25.1362 14.7669C25.0538 14.7189 24.7333 14.7141 24.7333 14.7141C24.7106 14.6925 24.6821 14.6773 24.6509 14.6702H24.5594C24.3461 14.7219 24.1564 14.8393 24.0191 15.0045C23.935 15.1243 23.876 15.2588 23.8452 15.4003C23.8091 15.5611 23.7633 15.7197 23.7078 15.8753C23.6898 15.9713 23.6898 16.0696 23.7078 16.1656C23.717 16.2504 23.717 16.3359 23.7078 16.4207V16.9486C23.7169 17.0465 23.7448 17.142 23.7902 17.2301C23.8269 17.3092 23.8727 17.2301 23.9276 17.3092C23.9679 17.4026 24.0138 17.4936 24.0649 17.5819C24.0927 17.6426 24.1298 17.6989 24.1748 17.7491C24.2297 17.7579 24.2297 17.6259 24.2297 17.6963C24.2206 17.9426 24.2389 17.7755 24.2938 17.8898C24.3488 18.0042 24.4129 17.9514 24.4769 17.9514C24.5574 17.9776 24.6343 18.013 24.7058 18.057C24.7542 18.066 24.804 18.066 24.8523 18.057C25.0629 18.0746 25.2186 17.925 25.2827 17.9426C25.3468 17.9602 25.3193 17.8986 25.3468 17.8722C25.3742 17.8458 25.4292 17.7403 25.4292 17.7931V17.6875C25.5311 17.4658 25.6019 17.2321 25.6398 16.9925C25.713 16.7286 25.7029 16.4723 25.7029 16.101C25.7029 15.7297 25.5574 15.2743 25.5574 15.2743C25.5208 15.1687 25.4292 15.0045 25.3468 14.9308Z" fill="#1F2227"/>
<path d="M20.1414 17.5679C20.1318 17.6826 20.1318 17.7979 20.1414 17.9127C20.1414 17.9605 20.1223 17.9414 20.0905 17.9793C20.1765 18.0468 20.1223 18.0467 20.1414 18.0659C20.1606 18.0851 20.1414 18.2 20.1414 18.2575C20.1414 18.3149 20.1997 18.39 20.2476 18.4283C20.2955 18.4666 20.2786 18.5831 20.3935 18.5544C20.4872 18.6214 20.3896 18.6693 20.4566 18.6789C20.5237 18.6885 20.4773 18.6693 20.5656 18.7555C20.6135 18.8309 20.6203 18.8417 20.6682 18.8321C20.7161 18.8225 20.6682 18.8763 20.7556 18.8321C20.8163 18.8576 20.7831 18.8321 20.8163 18.8034L20.8911 18.8321C20.8911 18.9662 20.8618 18.8882 20.9323 18.8321C21.0482 18.7809 20.9683 18.8034 21.0258 18.8034H21.1081C21.1081 18.8034 21.1662 18.7363 21.2045 18.7555C21.2428 18.7746 21.2602 18.6984 21.3176 18.7846C21.3751 18.8708 21.4248 18.8225 21.4535 18.8034C21.4823 18.7842 21.4186 18.8931 21.5122 18.7555C21.6693 18.7459 21.5795 18.6789 21.673 18.6125C21.7329 18.5544 21.7154 18.54 21.7441 18.4921C21.7728 18.4442 21.7441 18.5145 21.789 18.4023C21.875 18.3799 21.8175 18.3724 21.8558 18.3149C21.8941 18.2575 21.8079 18.3556 21.942 18.2265C21.942 18.1873 21.9761 18.1853 21.942 18.1042C21.942 18.1042 21.9087 18.107 21.9087 18.0495V18.0046C21.875 17.8213 22.0186 17.769 21.9516 17.6349C21.9084 17.501 21.9084 17.357 21.9516 17.2231C21.9516 17.1465 22.0282 17.0698 22.4017 17.022C22.553 16.9875 22.7101 16.9875 22.8614 17.022C22.9247 17.0319 22.9841 17.0583 23.0339 17.0986L23.1392 17.2231C23.2062 17.3093 23.3786 17.3955 23.2829 17.4912C23.1871 17.587 23.3595 17.5487 23.1871 17.5774C23.4457 17.6924 23.2733 17.8265 23.2924 17.9414C23.3116 18.0563 23.3603 18.1042 23.3304 18.3609C23.3304 18.5939 23.3267 18.6669 23.2444 18.8321C23.0189 19.1346 23.1105 19.2056 22.8998 19.4355C22.6991 19.6687 22.4632 19.869 22.2006 20.0293C22.2006 20.0293 22.2006 20.173 22.0665 20.1251C21.9324 20.0772 21.942 20.1251 21.875 20.1825C21.8079 20.24 21.7792 20.2688 21.7026 20.2304C21.4248 20.0964 21.2333 20.2304 20.9938 20.2304C20.7544 20.2304 20.5533 20.1442 20.3234 20.1251C20.0935 20.1059 20.0073 20.1251 19.8924 20.0389C19.7775 19.9527 19.7296 20.0389 19.7966 19.8473C19.7966 19.7995 19.6817 19.8473 19.6434 19.8473C19.5585 19.7942 19.4812 19.7297 19.4135 19.6558L19.1454 19.3301C19.0879 19.2727 19.0339 19.2554 18.9764 19.1788C18.9111 19.11 18.9027 19.0226 18.8868 18.9291C18.8771 18.808 18.8093 18.7337 18.819 18.6125C18.819 18.4976 18.7915 18.4762 18.8186 18.2575C18.9095 18.0805 18.8676 17.8744 18.8868 17.7211C18.9154 17.5789 18.9154 17.4324 18.8868 17.2901C18.8868 17.2135 19.0304 17.1369 19.0304 17.0603C19.2385 16.9993 19.4559 16.9765 19.6721 16.9932H19.7487C19.902 17.0698 20.1414 17.1465 20.1223 17.2327C20.1217 17.3447 20.1281 17.4567 20.1414 17.5679Z" fill="#1F2227"/>
</svg>
