<svg width="44" height="45" viewBox="0 0 44 45" fill="none" xmlns="http://www.w3.org/2000/svg">
<path d="M13.2 1.27539H30.8C37.6759 1.27539 43.25 6.84944 43.25 13.7254V31.3254C43.25 38.2013 37.6759 43.7754 30.8 43.7754H13.2C6.32406 43.7754 0.75 38.2013 0.75 31.3254V13.7254C0.75 6.84945 6.32406 1.27539 13.2 1.27539Z" fill="#E6EDFE" stroke="#C9D6F4" stroke-width="1.5"/>
<path d="M15.8418 23.5537H28.1895V35.0782C28.1884 35.3566 28.1121 35.6295 27.9686 35.868C27.8251 36.1065 27.6197 36.3018 27.3743 36.4331C27.1289 36.5644 26.8525 36.627 26.5744 36.6141C26.2964 36.6011 26.027 36.5133 25.7948 36.3598L22.8762 34.414C22.6227 34.2451 22.3249 34.155 22.0203 34.155C21.7157 34.155 21.4179 34.2451 21.1644 34.414L18.2459 36.3598C18.0135 36.5158 17.7432 36.6057 17.4637 36.62C17.1842 36.6342 16.9061 36.5722 16.6592 36.4405C16.4123 36.3089 16.2057 36.1126 16.0618 35.8726C15.9178 35.6326 15.8417 35.3581 15.8418 35.0782V23.5537Z" fill="#6A36FF"/>
<path d="M16.5977 28.2308C16.5977 29.054 16.5977 29.8771 16.5977 30.7097C16.5977 31.009 16.5042 31.3271 16.7193 31.6451C16.8222 31.8041 16.5697 32.1035 16.579 32.3841C16.579 33.1512 16.579 33.9276 16.579 34.6946V35.1904C16.599 35.2784 16.6373 35.3613 16.6913 35.4336C16.7871 35.5685 16.9255 35.6673 17.0842 35.7142C17.4209 35.8171 17.5799 35.8639 18.2534 35.2372C18.7339 34.8968 19.2337 34.5845 19.7501 34.3017C20.0027 34.1053 20.2553 33.9089 20.5172 33.7311C20.9161 33.4439 21.4014 33.3019 21.8923 33.3289C22.2202 33.3629 22.5381 33.4614 22.8277 33.6189C22.9662 33.6958 23.1005 33.7801 23.2299 33.8714L23.5199 34.0492C23.7871 34.1447 24.0466 34.2604 24.2963 34.3953C24.5302 34.5543 24.736 34.8256 25.0727 34.7507C25.0727 34.7507 25.185 34.8536 25.2224 34.9191C25.3005 35.0583 25.4079 35.1788 25.537 35.2725C25.6662 35.3662 25.8142 35.4307 25.9707 35.4617C26.0924 35.4617 26.242 35.5646 26.2794 35.5646H26.3917C26.489 35.5854 26.59 35.5808 26.685 35.5513C26.78 35.5219 26.8658 35.4684 26.9342 35.3962C26.9965 35.3459 27.0502 35.2859 27.0933 35.2185C27.1195 35.1684 27.1384 35.1148 27.1494 35.0594V34.704C27.1023 34.2124 27.1023 33.7175 27.1494 33.226C27.2496 32.7876 27.2905 32.3376 27.271 31.8883C27.271 31.6264 27.3832 31.3364 27.1307 31.1213C27.1307 31.1213 27.1307 31.009 27.1307 30.9623C27.4581 30.2326 27.0278 29.5217 27.1307 28.7827C27.1822 28.0134 27.1822 27.2415 27.1307 26.4722C27.1307 26.2664 27.2055 26.0512 27.0184 25.8642C26.9899 25.8026 26.9752 25.7356 26.9752 25.6677C26.9752 25.5999 26.9899 25.5328 27.0184 25.4713C27.1282 25.2079 27.1793 24.9238 27.1681 24.6387C27.1681 24.592 27.1681 24.5639 27.1681 24.4984H27.0184H26.6817C26.5232 24.4817 26.3666 24.4504 26.214 24.4049C26.0476 24.3483 25.8709 24.3291 25.6963 24.3485C25.5217 24.3679 25.3535 24.4255 25.2037 24.5171C25.0447 24.62 24.7173 24.5171 24.4741 24.5171C24.2308 24.5171 24.0812 24.6388 23.8847 24.6481C23.708 24.6233 23.5351 24.5762 23.3702 24.5078H23.2112C22.2758 24.779 21.2655 24.4142 20.2833 24.5078C19.2957 24.5639 18.3057 24.5639 17.318 24.5078C17.0463 24.529 16.7733 24.4906 16.518 24.3952C16.2627 24.2999 16.0313 24.15 15.84 23.9559C15.6717 23.7501 15.6717 23.5256 15.9055 23.3946C16.0784 23.2902 16.2684 23.2173 16.4668 23.1795L17.4022 23.0485C18.0142 22.9005 18.6442 22.8407 19.2731 22.8708C19.4695 22.8708 19.7127 22.7866 19.8811 22.9924C19.9027 23.0038 19.9268 23.0098 19.9512 23.0098C19.9757 23.0098 19.9998 23.0038 20.0214 22.9924C20.897 22.804 21.7975 22.7598 22.6874 22.8614C23.4265 22.743 24.1746 22.6898 24.9231 22.7024C25.1495 22.5899 25.3963 22.5244 25.6487 22.5099C25.9012 22.4954 26.1539 22.5323 26.3917 22.6182L26.8313 22.6837H27.0558H27.43H29.039V24.9007C29.039 25.3497 29.039 25.8361 29.039 26.2477C29.039 27.7631 29.039 29.2785 29.039 30.7939C29.039 31.0464 29.1793 31.2709 29.039 31.5703C28.9919 31.8803 28.9919 32.1957 29.039 32.5057C29.0738 32.8166 29.0738 33.1303 29.039 33.4411C28.9716 33.7334 28.9278 34.0305 28.908 34.3298V34.7694C28.908 34.9285 28.908 35.0501 28.908 35.2933C28.8694 35.7333 28.7013 36.1521 28.425 36.4967C28.1486 36.8414 27.7764 37.0964 27.3552 37.2296C26.9317 37.3607 26.4784 37.3607 26.0549 37.2296C25.8475 37.1696 25.6492 37.0815 25.4656 36.9677L25.0821 36.7058C24.5863 36.3784 24.0905 36.0603 23.5854 35.7704C23.2673 35.5833 22.9493 35.4243 22.65 35.2465L22.4161 35.1249L22.3039 35.0781C22.2305 35.0539 22.1555 35.0352 22.0794 35.022C21.9297 35.022 21.8642 35.1436 21.6303 35.022C21.5649 35.022 21.3965 35.312 21.2468 35.4243C20.8446 35.7142 20.4236 35.9761 20.0121 36.2568L19.1515 36.818L18.6931 37.1174C18.4676 37.2665 18.2174 37.3742 17.9541 37.4354C17.6283 37.5345 17.2855 37.5649 16.9474 37.5247C16.6092 37.4844 16.2831 37.3744 15.9897 37.2016C15.6731 37.0087 15.4064 36.7438 15.2113 36.4285C15.0163 36.1132 14.8984 35.7563 14.8672 35.3868C14.8581 35.2779 14.8581 35.1684 14.8672 35.0594V34.8443V34.4327C14.8672 34.1521 14.9233 33.8808 14.9327 33.6002C14.8904 33.0241 14.8904 32.4457 14.9327 31.8696C15.0665 30.8496 15.1072 29.8195 15.0543 28.7921C15.0543 27.7818 15.0543 26.7528 15.0543 25.7425C15.0543 25.1626 15.232 24.6387 15.2226 24.0775C15.2226 23.8156 15.812 23.4601 16.0178 23.563C16.0606 23.5889 16.0935 23.6284 16.1113 23.6753C16.3695 24.2057 16.525 24.7801 16.5697 25.3684C16.579 26.3599 16.5977 27.2954 16.5977 28.2308Z" fill="#1F2227"/>
<path d="M22.0147 27.5099C27.5581 27.5099 32.0519 23.0161 32.0519 17.4727C32.0519 11.9293 27.5581 7.43555 22.0147 7.43555C16.4713 7.43555 11.9775 11.9293 11.9775 17.4727C11.9775 23.0161 16.4713 27.5099 22.0147 27.5099Z" fill="#EBEFF9"/>
<path d="M17.0377 9.67154C16.2429 10.1853 15.5302 10.816 14.9236 11.5424C14.7271 11.823 14.4091 12.0475 14.3904 12.4778C14.3904 12.693 13.9882 12.8426 13.8478 13.1326C13.446 13.9195 13.1503 14.7562 12.9685 15.6209C12.8516 16.465 12.8516 17.3211 12.9685 18.1652C12.9813 19.0065 13.1726 19.8356 13.5298 20.5974C13.7668 21.2155 14.0482 21.8158 14.3717 22.3934C14.5681 22.6927 14.83 22.9453 15.0358 23.2353C15.2416 23.5253 15.4849 23.7872 15.7094 24.0491C15.9339 24.311 16.0368 24.4513 16.2145 24.6384C16.4016 24.8096 16.6018 24.966 16.8132 25.1061C17.0938 25.2652 17.4212 25.2932 17.7486 25.4803C18.076 25.6674 18.3099 25.8919 18.684 25.7703C18.684 25.7703 18.8337 25.8451 18.8898 25.9013C19.0076 26.0288 19.1534 26.1273 19.3157 26.189C19.478 26.2507 19.6525 26.2739 19.8253 26.2567C20.0856 26.2533 20.3456 26.2752 20.6017 26.3222C20.9479 26.3808 21.2982 26.412 21.6493 26.4157C22.0013 26.4391 22.3544 26.4391 22.7064 26.4157C22.9683 26.4157 23.2302 26.4157 23.4921 26.4157C23.7594 26.4162 24.026 26.3879 24.2873 26.3316C24.8392 26.2287 25.3536 25.92 25.8681 25.8171C26.3705 25.7002 26.8444 25.4839 27.2619 25.181C27.4958 25.0126 27.8419 24.891 27.87 24.5542C27.9055 24.5023 27.9538 24.4604 28.0103 24.4326C28.8709 24.1427 29.0954 23.2166 29.6286 22.6085C30.1548 21.9146 30.5452 21.1275 30.7791 20.2887C30.8399 20.1835 30.878 20.0666 30.8909 19.9458C30.9038 19.825 30.8912 19.7028 30.854 19.5871C30.8072 19.5029 30.854 19.2784 30.9194 19.1662C31.1931 18.5599 31.2934 17.8896 31.2094 17.2298C31.2094 16.4721 31.0223 15.7518 30.9943 14.9661C31.001 14.7674 30.9623 14.5698 30.8813 14.3883C30.8002 14.2068 30.6789 14.0461 30.5266 13.9184C30.3488 13.8062 30.2927 13.432 30.1524 13.1888C30.0121 12.9456 29.8063 12.8801 29.694 12.693C29.5818 12.5059 29.5724 12.3188 29.4882 12.1411C29.4617 12.0838 29.4235 12.0329 29.376 11.9914C28.5248 11.2992 27.9728 10.3076 26.9813 9.76509C26.0117 9.21601 24.9737 8.79766 23.8944 8.52095C23.5908 8.46975 23.2931 8.38829 23.0057 8.27776C22.7136 8.18668 22.4495 8.02246 22.2387 7.80068C22.0422 7.58553 22.0329 7.36103 22.3322 7.24878C22.5623 7.14488 22.8097 7.08461 23.0618 7.07105C23.4641 7.07105 23.8663 7.07104 24.2685 7.11781C25.1169 7.14321 25.9485 7.36069 26.7007 7.75389C26.9252 7.90356 27.2806 7.92228 27.3648 8.23097C27.3967 8.28971 27.4505 8.33344 27.5145 8.35258C28.6198 8.78433 29.5755 9.5287 30.2647 10.4947C31.0093 11.1761 31.6049 12.0041 32.0139 12.9269C32.2493 13.1333 32.4267 13.3977 32.5284 13.6939C32.6478 13.977 32.7235 14.2767 32.7529 14.5826C33.1343 16.567 33.0736 18.611 32.5752 20.5693C31.977 22.5292 30.8507 24.2865 29.3199 25.6487C29.1051 25.9326 28.8305 26.1658 28.5154 26.3316C28.1254 26.539 27.7503 26.7735 27.3929 27.0331C27.044 27.2453 26.6741 27.4208 26.2891 27.557C24.7708 28.0066 23.1953 28.2335 21.6119 28.2305C20.0229 28.1244 18.4696 27.7114 17.0377 27.0144C16.1467 26.6372 15.3296 26.1051 14.6243 25.4429C14.264 25.1997 13.9892 24.8496 13.8385 24.442C13.8385 24.3297 13.4456 24.124 13.2679 23.9182C13.0563 23.658 12.8685 23.3793 12.7066 23.0856C12.5269 22.8058 12.3705 22.5117 12.2389 22.2063C11.8414 21.3677 11.5432 20.4855 11.3502 19.5777C11.1981 19.0289 11.0886 18.4691 11.0228 17.9033C10.9924 17.5923 10.9924 17.279 11.0228 16.9679C11.0289 16.6541 11.0601 16.3413 11.1164 16.0325C11.2526 15.289 11.4658 14.5617 11.7525 13.8623C11.9704 13.1154 12.3119 12.4103 12.7627 11.7763C13.5707 10.6773 14.5135 9.68421 15.569 8.8203C16.6653 8.0242 17.8852 7.41424 19.1798 7.01492C19.8982 6.85727 20.6337 6.79125 21.3687 6.81846C23.7903 7.08133 22.5516 7.39415 22.4207 7.59994C22.3884 7.6467 23.4129 8.21071 23.3598 8.23097C22.701 8.3167 20.6764 8.17551 20.0404 8.37128C18.9633 8.6018 17.9427 9.04376 17.0377 9.67154Z" fill="#1F2227"/>
<path d="M18.7061 16.1268C18.6163 16.0465 18.5664 16.0006 18.4766 15.9482C18.3868 15.8959 18.0376 15.8907 18.0376 15.8907C18.0128 15.8671 17.9817 15.8505 17.9478 15.8428H17.848C17.6156 15.8992 17.4088 16.0271 17.2593 16.2071C17.1676 16.3377 17.1032 16.4842 17.0697 16.6385C17.0304 16.8137 16.9804 16.9866 16.92 17.1562C16.9004 17.2608 16.9004 17.3679 16.92 17.4725C16.9299 17.565 16.9299 17.6581 16.92 17.7506V18.3258C16.9298 18.4325 16.9603 18.5365 17.0098 18.6326C17.0497 18.7188 17.0996 18.6326 17.1595 18.7188C17.2034 18.8206 17.2534 18.9198 17.3091 19.016C17.3394 19.0821 17.3798 19.1435 17.4289 19.1982C17.4888 19.2078 17.4888 19.064 17.4888 19.1407C17.4788 19.4091 17.4987 19.227 17.5586 19.3516C17.6185 19.4762 17.6883 19.4187 17.7582 19.4187C17.8458 19.4472 17.9296 19.4859 18.0076 19.5337C18.0603 19.5436 18.1145 19.5436 18.1673 19.5337C18.3968 19.5529 18.5664 19.3899 18.6363 19.4091C18.7061 19.4283 18.6762 19.3611 18.7061 19.3324C18.736 19.3036 18.7959 19.1886 18.7959 19.2461V19.1311C18.907 18.8895 18.9842 18.6348 19.0254 18.3737C19.1052 18.0861 19.0942 17.8067 19.0942 17.4021C19.0942 16.9975 18.9356 16.5011 18.9356 16.5011C18.8957 16.3861 18.7959 16.2071 18.7061 16.1268Z" fill="#1F2227"/>
<path d="M26.67 16.0008C26.5802 15.9205 26.5303 15.8746 26.4405 15.8222C26.3507 15.7699 26.0014 15.7647 26.0014 15.7647C25.9767 15.7411 25.9456 15.7245 25.9116 15.7168H25.8118C25.5795 15.7732 25.3727 15.9012 25.2231 16.0811C25.1315 16.2118 25.0671 16.3583 25.0335 16.5125C24.9943 16.6877 24.9443 16.8606 24.8839 17.0302C24.8642 17.1348 24.8642 17.2419 24.8839 17.3466C24.8938 17.439 24.8938 17.5322 24.8839 17.6246V18.1998C24.8937 18.3065 24.9242 18.4106 24.9737 18.5066C25.0136 18.5929 25.0635 18.5066 25.1233 18.5929C25.1673 18.6946 25.2172 18.7938 25.273 18.8901C25.3033 18.9561 25.3437 19.0175 25.3928 19.0722C25.4526 19.0818 25.4526 18.938 25.4526 19.0147C25.4426 19.2831 25.4626 19.101 25.5225 19.2256C25.5823 19.3502 25.6522 19.2927 25.722 19.2927C25.8097 19.3212 25.8935 19.3599 25.9715 19.4078C26.0242 19.4176 26.0784 19.4176 26.1311 19.4078C26.3606 19.4269 26.5303 19.2639 26.6001 19.2831C26.67 19.3023 26.64 19.2352 26.67 19.2064C26.6999 19.1777 26.7598 19.0626 26.7598 19.1201V19.0051C26.8708 18.7635 26.948 18.5088 26.9893 18.2477C27.0691 17.9601 27.0581 17.6808 27.0581 17.2761C27.0581 16.8715 26.8995 16.3751 26.8995 16.3751C26.8596 16.2601 26.7598 16.0811 26.67 16.0008Z" fill="#1F2227"/>
<path d="M20.9957 18.8742C20.9852 18.9993 20.9852 19.1249 20.9957 19.25C20.9957 19.3022 20.9748 19.2813 20.9402 19.3226C21.0339 19.3961 20.9748 19.3961 20.9957 19.417C21.0165 19.4379 20.9957 19.5631 20.9957 19.6258C20.9957 19.6884 21.0592 19.7702 21.1114 19.8119C21.1636 19.8537 21.1452 19.9806 21.2704 19.9493C21.3725 20.0224 21.2661 20.0746 21.3392 20.085C21.4123 20.0954 21.3617 20.0746 21.458 20.1685C21.5102 20.2507 21.5176 20.2624 21.5697 20.252C21.6219 20.2415 21.5697 20.3002 21.6651 20.252C21.7311 20.2798 21.695 20.252 21.7311 20.2207L21.8127 20.252C21.8127 20.3981 21.7808 20.3131 21.8575 20.252C21.9839 20.1962 21.8968 20.2207 21.9595 20.2207H22.0492C22.0492 20.2207 22.1125 20.1476 22.1543 20.1685C22.196 20.1894 22.2149 20.1063 22.2775 20.2003C22.3401 20.2942 22.3943 20.2415 22.4256 20.2207C22.4569 20.1998 22.3876 20.3185 22.4895 20.1685C22.6607 20.1581 22.5629 20.085 22.6648 20.0127C22.7301 19.9493 22.711 19.9336 22.7423 19.8815C22.7736 19.8293 22.7423 19.9059 22.7912 19.7836C22.8849 19.7591 22.8223 19.751 22.864 19.6884C22.9058 19.6257 22.8118 19.7327 22.958 19.592C22.958 19.5492 22.9951 19.5471 22.958 19.4587C22.958 19.4587 22.9217 19.4617 22.9217 19.3991V19.3502C22.8849 19.1504 23.0415 19.0934 22.9684 18.9473C22.9213 18.8014 22.9213 18.6444 22.9684 18.4985C22.9684 18.415 23.0519 18.3315 23.459 18.2793C23.6238 18.2417 23.7951 18.2417 23.96 18.2793C24.0288 18.2901 24.0937 18.3189 24.1478 18.3628L24.2627 18.4985C24.3357 18.5924 24.5236 18.6863 24.4192 18.7907C24.3148 18.8951 24.5027 18.8533 24.3148 18.8847C24.5967 19.0099 24.4088 19.156 24.4297 19.2813C24.4505 19.4065 24.5036 19.4587 24.471 19.7385C24.471 19.9923 24.467 20.072 24.3773 20.252C24.1315 20.5816 24.2314 20.6591 24.0017 20.9096C23.783 21.1637 23.5259 21.382 23.2398 21.5567C23.2398 21.5567 23.2398 21.7133 23.0936 21.6611C22.9475 21.6089 22.9579 21.6611 22.8849 21.7237C22.8118 21.7863 22.7805 21.8177 22.697 21.7759C22.3943 21.6298 22.1856 21.7759 21.9246 21.7759C21.6637 21.7759 21.4445 21.682 21.194 21.6611C20.9435 21.6402 20.8495 21.6611 20.7243 21.5671C20.599 21.4732 20.5468 21.5672 20.6199 21.3584C20.6199 21.3062 20.4947 21.3584 20.4529 21.3584C20.3604 21.3004 20.2761 21.2302 20.2024 21.1496L19.9102 20.7948C19.8475 20.7321 19.7886 20.7133 19.726 20.6298C19.6549 20.5548 19.6457 20.4596 19.6283 20.3577C19.6178 20.2257 19.5439 20.1447 19.5544 20.0127C19.5544 19.8875 19.5245 19.8641 19.5541 19.6258C19.6531 19.4329 19.6075 19.2082 19.6283 19.0412C19.6595 18.8862 19.6595 18.7265 19.6283 18.5715C19.6283 18.488 19.7849 18.4045 19.7849 18.321C20.0117 18.2546 20.2486 18.2298 20.4842 18.248H20.5677C20.7347 18.3315 20.9957 18.415 20.9748 18.5089C20.9741 18.631 20.9811 18.753 20.9957 18.8742Z" fill="#1F2227"/>
</svg>
