<svg width="72" height="88" viewBox="0 0 72 88" fill="none" xmlns="http://www.w3.org/2000/svg">
<path d="M0 79.8333V8.16667C0 3.65634 3.65634 0 8.16667 0H36H48.0039L57.5016 11.0379L72 24V43.3521V79.8333C72 84.3437 68.3437 88 63.8333 88H8.16667C3.65634 88 0 84.3437 0 79.8333Z" fill="#E9ECEF"/>
<path d="M52.0278 24H72L48 0V19.9722C48 22.1967 49.8033 24 52.0278 24Z" fill="#CED4DA"/>
<path d="M38.5179 49.108L38.5179 49.108L38.5142 49.1108C37.5901 49.8198 36.3404 50.2841 34.7348 50.4765C33.9689 50.5683 33.3205 51.1927 33.3205 52.0081V55.8254C33.3205 56.8949 34.2024 57.747 35.2717 57.747C36.3411 57.747 37.2229 56.8949 37.2229 55.8254V53.5153C38.0017 53.3485 38.7777 53.0921 39.5505 52.7477C40.4584 52.3432 41.2715 51.8028 41.988 51.1275C42.7103 50.4466 43.2911 49.6318 43.7316 48.6879C44.2093 47.695 44.4409 46.5513 44.4409 45.2686C44.4409 42.9366 43.6982 41.0424 42.1812 39.6378C40.6676 38.2364 38.6279 37.5591 36.1151 37.5591C34.847 37.5591 33.7102 37.7309 32.712 38.0843C31.7257 38.4335 30.8552 38.9197 30.1057 39.5456C29.3879 40.1411 28.7811 40.8447 28.2857 41.6541L28.2857 41.6541L28.2833 41.658C28.0662 42.0212 27.8727 42.3936 27.703 42.7752C27.268 43.7536 27.8575 44.7805 28.7818 45.1234C29.8978 45.5374 31.0327 44.8653 31.515 43.9229C31.8102 43.3462 32.1885 42.8386 32.6508 42.3982C33.4676 41.6444 34.5676 41.2484 35.9974 41.2484C37.3233 41.2484 38.33 41.619 39.0674 42.3194L39.0674 42.3194L39.0727 42.3243C39.8047 42.9971 40.1855 43.9102 40.1855 45.1148V45.6532C40.1855 47.138 39.6297 48.2731 38.5179 49.108ZM33.2221 65.7219L33.2272 65.7275L33.2324 65.733C33.7127 66.2353 34.4234 66.4409 35.2642 66.4409C36.0986 66.4409 36.8051 66.2381 37.2646 65.7276C37.7175 65.251 37.9284 64.6365 37.9284 63.9275V63.463C37.9284 62.7539 37.7175 62.1394 37.2646 61.6628C36.8051 61.1524 36.0986 60.9495 35.2642 60.9495C34.4234 60.9495 33.7127 61.1552 33.2324 61.6575L33.2272 61.6629L33.2221 61.6686C32.7953 62.1469 32.5999 62.7594 32.5999 63.463V63.9275C32.5999 64.631 32.7953 65.2436 33.2221 65.7219Z" fill="#868E96" stroke="#868E96" stroke-width="0.881841"/>
</svg>
