<svg width="24" height="24" viewBox="0 0 24 24" fill="none" xmlns="http://www.w3.org/2000/svg">
<path d="M4 5C4 3.89543 4.89543 3 6 3H18C19.1046 3 20 3.89543 20 5V19C20 20.1046 19.1046 21 18 21H6C4.89543 21 4 20.1046 4 19V5Z" fill="#C2B6FF"/>
<path fill-rule="evenodd" clip-rule="evenodd" d="M6.25 7C6.25 6.58579 6.58579 6.25 7 6.25H16C16.4142 6.25 16.75 6.58579 16.75 7C16.75 7.41421 16.4142 7.75 16 7.75H7C6.58579 7.75 6.25 7.41421 6.25 7Z" fill="#6244FF"/>
<path fill-rule="evenodd" clip-rule="evenodd" d="M6.25 10C6.25 9.58579 6.61162 9.25 7.05769 9.25H12.4423C12.8884 9.25 13.25 9.58579 13.25 10C13.25 10.4142 12.8884 10.75 12.4423 10.75H7.05769C6.61162 10.75 6.25 10.4142 6.25 10Z" fill="#6244FF"/>
<path d="M20 14.5C20 16.9853 17.9853 19 15.5 19C13.0147 19 11 16.9853 11 14.5C11 12.0147 13.0147 10 15.5 10C17.9853 10 20 12.0147 20 14.5Z" fill="#E0DBFF"/>
<path fill-rule="evenodd" clip-rule="evenodd" d="M11.75 14.5C11.75 12.4289 13.4289 10.75 15.5 10.75C17.5711 10.75 19.25 12.4289 19.25 14.5C19.25 16.5711 17.5711 18.25 15.5 18.25C13.4289 18.25 11.75 16.5711 11.75 14.5ZM15.5 9.25C12.6005 9.25 10.25 11.6005 10.25 14.5C10.25 17.3995 12.6005 19.75 15.5 19.75C16.6793 19.75 17.7677 19.3612 18.6441 18.7048L20.9697 21.0303C21.2626 21.3232 21.7374 21.3232 22.0303 21.0303C22.3232 20.7374 22.3232 20.2626 22.0303 19.9697L19.7048 17.6441C20.3612 16.7677 20.75 15.6793 20.75 14.5C20.75 11.6005 18.3995 9.25 15.5 9.25Z" fill="#6244FF"/>
</svg>
