<svg width="24" height="24" viewBox="0 0 24 24" fill="none" xmlns="http://www.w3.org/2000/svg">
<path d="M3 5C3 3.89543 3.89543 3 5 3H19C20.1046 3 21 3.89543 21 5V19C21 20.1046 20.1046 21 19 21H5C3.89543 21 3 20.1046 3 19V5Z" fill="#C2B6FF"/>
<path d="M5.34204 10.4998V6.2998H7.41204C7.88004 6.2998 8.29204 6.3858 8.64804 6.55781C9.00404 6.72581 9.28204 6.9658 9.48204 7.2778C9.68204 7.5898 9.78204 7.9618 9.78204 8.39381C9.78204 8.8298 9.68204 9.2058 9.48204 9.5218C9.28204 9.8338 9.00404 10.0758 8.64804 10.2478C8.29204 10.4158 7.88004 10.4998 7.41204 10.4998H5.34204ZM6.75804 9.3958H7.35204C7.55204 9.3958 7.72604 9.35781 7.87404 9.28181C8.02604 9.20581 8.14404 9.09381 8.22804 8.94581C8.31204 8.79381 8.35404 8.60981 8.35404 8.39381C8.35404 8.18181 8.31204 8.0018 8.22804 7.8538C8.14404 7.7058 8.02604 7.5938 7.87404 7.5178C7.72604 7.4418 7.55204 7.4038 7.35204 7.4038H6.75804V9.3958Z" fill="#6244FF"/>
<path d="M10.0471 9.2758V8.25581H11.8471V9.2758H10.0471Z" fill="#6244FF"/>
<path d="M12.5385 10.4998V6.7918L13.1445 7.36781H11.8185V6.2998H13.9545V10.4998H12.5385Z" fill="#6244FF"/>
<path fill-rule="evenodd" clip-rule="evenodd" d="M5.25 14C5.25 13.5858 5.58579 13.25 6 13.25H16C16.4142 13.25 16.75 13.5858 16.75 14C16.75 14.4142 16.4142 14.75 16 14.75H6C5.58579 14.75 5.25 14.4142 5.25 14Z" fill="white"/>
<path fill-rule="evenodd" clip-rule="evenodd" d="M5.25 17C5.25 16.5858 5.58579 16.25 6 16.25H13C13.4142 16.25 13.75 16.5858 13.75 17C13.75 17.4142 13.4142 17.75 13 17.75H6C5.58579 17.75 5.25 17.4142 5.25 17Z" fill="white"/>
</svg>
