<svg width="24" height="24" viewBox="0 0 24 24" fill="none" xmlns="http://www.w3.org/2000/svg">
<path fill-rule="evenodd" clip-rule="evenodd" d="M1.5 12C1.5 11.7239 1.72386 11.5 2 11.5H3.66667C3.94281 11.5 4.16667 11.7239 4.16667 12C4.16667 12.2761 3.94281 12.5 3.66667 12.5H2.5V13.125C2.5 13.4011 2.27614 13.625 2 13.625C1.72386 13.625 1.5 13.4011 1.5 13.125V12ZM6.5 12C6.5 11.7239 6.72386 11.5 7 11.5H10.3333C10.6095 11.5 10.8333 11.7239 10.8333 12C10.8333 12.2761 10.6095 12.5 10.3333 12.5H7C6.72386 12.5 6.5 12.2761 6.5 12ZM13.1667 12C13.1667 11.7239 13.3905 11.5 13.6667 11.5H17C17.2761 11.5 17.5 11.7239 17.5 12C17.5 12.2761 17.2761 12.5 17 12.5H13.6667C13.3905 12.5 13.1667 12.2761 13.1667 12ZM19.8333 12C19.8333 11.7239 20.0572 11.5 20.3333 11.5H22C22.2761 11.5 22.5 11.7239 22.5 12V13.125C22.5 13.4011 22.2761 13.625 22 13.625C21.7239 13.625 21.5 13.4011 21.5 13.125V12.5H20.3333C20.0572 12.5 19.8333 12.2761 19.8333 12ZM2 14.875C2.27614 14.875 2.5 15.0989 2.5 15.375V17.625C2.5 17.9011 2.27614 18.125 2 18.125C1.72386 18.125 1.5 17.9011 1.5 17.625V15.375C1.5 15.0989 1.72386 14.875 2 14.875ZM22 14.875C22.2761 14.875 22.5 15.0989 22.5 15.375V17.625C22.5 17.9011 22.2761 18.125 22 18.125C21.7239 18.125 21.5 17.9011 21.5 17.625V15.375C21.5 15.0989 21.7239 14.875 22 14.875ZM2 19.375C2.27614 19.375 2.5 19.5989 2.5 19.875V20.5H3.66667C3.94281 20.5 4.16667 20.7239 4.16667 21C4.16667 21.2761 3.94281 21.5 3.66667 21.5H2C1.72386 21.5 1.5 21.2761 1.5 21V19.875C1.5 19.5989 1.72386 19.375 2 19.375ZM22 19.375C22.2761 19.375 22.5 19.5989 22.5 19.875V21C22.5 21.2761 22.2761 21.5 22 21.5H20.3333C20.0572 21.5 19.8333 21.2761 19.8333 21C19.8333 20.7239 20.0572 20.5 20.3333 20.5H21.5V19.875C21.5 19.5989 21.7239 19.375 22 19.375ZM6.5 21C6.5 20.7239 6.72386 20.5 7 20.5H10.3333C10.6095 20.5 10.8333 20.7239 10.8333 21C10.8333 21.2761 10.6095 21.5 10.3333 21.5H7C6.72386 21.5 6.5 21.2761 6.5 21ZM13.1667 21C13.1667 20.7239 13.3905 20.5 13.6667 20.5H17C17.2761 20.5 17.5 20.7239 17.5 21C17.5 21.2761 17.2761 21.5 17 21.5H13.6667C13.3905 21.5 13.1667 21.2761 13.1667 21Z" fill="#C2B6FF"/>
<path d="M7.85507 6.27317H6.65336C6.64484 6.17374 6.62211 6.08354 6.58518 6.00257C6.54967 5.92161 6.49996 5.85201 6.43604 5.79377C6.37354 5.73411 6.29754 5.68865 6.20805 5.6574C6.11856 5.62473 6.017 5.6084 5.90336 5.6084C5.7045 5.6084 5.53618 5.65669 5.39839 5.75329C5.26203 5.84988 5.15834 5.98837 5.08731 6.16877C5.01771 6.34917 4.98291 6.56579 4.98291 6.81863C4.98291 7.08567 5.01842 7.30939 5.08944 7.48979C5.16189 7.66877 5.26629 7.80371 5.40265 7.89462C5.53902 7.98411 5.70308 8.02885 5.89484 8.02885C6.00422 8.02885 6.10223 8.01536 6.18888 7.98837C6.27552 7.95996 6.35081 7.91948 6.41473 7.86692C6.47865 7.81436 6.5305 7.75115 6.57027 7.67729C6.61146 7.60201 6.63916 7.51749 6.65336 7.42374L7.85507 7.43226C7.84087 7.61692 7.78902 7.80513 7.69953 7.99689C7.61004 8.18723 7.48291 8.36337 7.31814 8.5253C7.15479 8.68581 6.95237 8.81507 6.71089 8.91309C6.46942 9.0111 6.18888 9.0601 5.86927 9.0601C5.46871 9.0601 5.10933 8.97417 4.79115 8.80229C4.47439 8.63042 4.22368 8.37757 4.03902 8.04377C3.85578 7.70996 3.76416 7.30158 3.76416 6.81863C3.76416 6.33283 3.85791 5.92374 4.04541 5.59135C4.23291 5.25755 4.48575 5.00542 4.80393 4.83496C5.12211 4.66309 5.47723 4.57715 5.86927 4.57715C6.14484 4.57715 6.39839 4.61479 6.62993 4.69007C6.86146 4.76536 7.06459 4.87544 7.2393 5.02033C7.41402 5.1638 7.55464 5.34064 7.66118 5.55087C7.76771 5.7611 7.83234 6.00186 7.85507 6.27317Z" fill="#6244FF"/>
<path d="M12.4398 6.81863C12.4398 7.30442 12.3453 7.71422 12.1564 8.04803C11.9675 8.38042 11.7125 8.63255 11.3915 8.80442C11.0705 8.97488 10.7125 9.0601 10.3176 9.0601C9.91992 9.0601 9.56054 8.97417 9.23952 8.80229C8.91992 8.62899 8.66566 8.37615 8.47674 8.04377C8.28924 7.70996 8.19549 7.30158 8.19549 6.81863C8.19549 6.33283 8.28924 5.92374 8.47674 5.59135C8.66566 5.25755 8.91992 5.00542 9.23952 4.83496C9.56054 4.66309 9.91992 4.57715 10.3176 4.57715C10.7125 4.57715 11.0705 4.66309 11.3915 4.83496C11.7125 5.00542 11.9675 5.25755 12.1564 5.59135C12.3453 5.92374 12.4398 6.33283 12.4398 6.81863ZM11.2211 6.81863C11.2211 6.55726 11.1863 6.33709 11.1167 6.15811C11.0485 5.97772 10.9469 5.84135 10.812 5.74902C10.6784 5.65527 10.5137 5.6084 10.3176 5.6084C10.1216 5.6084 9.95614 5.65527 9.8212 5.74902C9.68768 5.84135 9.58611 5.97772 9.51651 6.15811C9.44833 6.33709 9.41424 6.55726 9.41424 6.81863C9.41424 7.07999 9.44833 7.30087 9.51651 7.48127C9.58611 7.66025 9.68768 7.79661 9.8212 7.89036C9.95614 7.98269 10.1216 8.02885 10.3176 8.02885C10.5137 8.02885 10.6784 7.98269 10.812 7.89036C10.9469 7.79661 11.0485 7.66025 11.1167 7.48127C11.1863 7.30087 11.2211 7.07999 11.2211 6.81863Z" fill="#6244FF"/>
<path d="M14.4869 9.00044H12.8079V4.63681H14.4699C14.9187 4.63681 15.3065 4.72417 15.6332 4.89888C15.9613 5.07218 16.2142 5.32218 16.3917 5.64888C16.5707 5.97417 16.6602 6.36408 16.6602 6.81863C16.6602 7.27317 16.5714 7.6638 16.3939 7.9905C16.2163 8.31578 15.9649 8.56578 15.6396 8.7405C15.3143 8.9138 14.9301 9.00044 14.4869 9.00044ZM13.9926 7.99476H14.4443C14.6602 7.99476 14.8441 7.95996 14.9961 7.89036C15.1495 7.82076 15.266 7.70073 15.3456 7.53027C15.4265 7.35982 15.467 7.1226 15.467 6.81863C15.467 6.51465 15.4258 6.27743 15.3434 6.10698C15.2625 5.93652 15.1432 5.81649 14.9855 5.74689C14.8292 5.67729 14.6375 5.64249 14.4102 5.64249H13.9926V7.99476Z" fill="#6244FF"/>
<path d="M17.0283 9.00044V4.63681H20.1732V5.59135H18.213V6.34135H20.0113V7.2959H18.213V8.0459H20.1647V9.00044H17.0283Z" fill="#6244FF"/>
<path fill-rule="evenodd" clip-rule="evenodd" d="M8.42429 15.4247C8.6586 15.1903 8.6586 14.8104 8.42429 14.5761C8.18997 14.3418 7.81008 14.3418 7.57576 14.5761L6.75012 15.4018L5.92448 14.5761C5.69017 14.3418 5.31027 14.3418 5.07596 14.5761C4.84164 14.8104 4.84164 15.1903 5.07596 15.4247L5.90159 16.2503L5.07576 17.0761C4.84145 17.3104 4.84145 17.6903 5.07576 17.9247C5.31007 18.159 5.68997 18.159 5.92429 17.9247L6.75012 17.0988L7.57596 17.9247C7.81027 18.159 8.19017 18.159 8.42448 17.9247C8.6588 17.6903 8.6588 17.3104 8.42448 17.0761L7.59865 16.2503L8.42429 15.4247Z" fill="#6244FF"/>
<path fill-rule="evenodd" clip-rule="evenodd" d="M13.9243 15.4247C14.1586 15.1903 14.1586 14.8104 13.9243 14.5761C13.69 14.3418 13.3101 14.3418 13.0758 14.5761L12.2501 15.4018L11.4245 14.5761C11.1902 14.3418 10.8103 14.3418 10.576 14.5761C10.3416 14.8104 10.3416 15.1903 10.576 15.4247L11.4016 16.2503L10.5758 17.0761C10.3414 17.3104 10.3414 17.6903 10.5758 17.9247C10.8101 18.159 11.19 18.159 11.4243 17.9247L12.2501 17.0988L13.076 17.9247C13.3103 18.159 13.6902 18.159 13.9245 17.9247C14.1588 17.6903 14.1588 17.3104 13.9245 17.0761L13.0987 16.2503L13.9243 15.4247Z" fill="#6244FF"/>
<path fill-rule="evenodd" clip-rule="evenodd" d="M19.4243 15.4247C19.6586 15.1903 19.6586 14.8104 19.4243 14.5761C19.19 14.3418 18.8101 14.3418 18.5758 14.5761L17.7501 15.4018L16.9245 14.5761C16.6902 14.3418 16.3103 14.3418 16.076 14.5761C15.8416 14.8104 15.8416 15.1903 16.076 15.4247L16.9016 16.2503L16.0758 17.0761C15.8414 17.3104 15.8414 17.6903 16.0758 17.9247C16.3101 18.159 16.69 18.159 16.9243 17.9247L17.7501 17.0988L18.576 17.9247C18.8103 18.159 19.1902 18.159 19.4245 17.9247C19.6588 17.6903 19.6588 17.3104 19.4245 17.0761L18.5987 16.2503L19.4243 15.4247Z" fill="#6244FF"/>
</svg>
