<svg width="44" height="45" viewBox="0 0 44 45" fill="none" xmlns="http://www.w3.org/2000/svg">
<path d="M13.2 1.27539H30.8C37.6759 1.27539 43.25 6.84944 43.25 13.7254V31.3254C43.25 38.2013 37.6759 43.7754 30.8 43.7754H13.2C6.32405 43.7754 0.75 38.2013 0.75 31.3254V13.7254C0.75 6.84944 6.32405 1.27539 13.2 1.27539Z" fill="#D4F3FF" stroke="#ABDDF0" stroke-width="1.5"/>
<path d="M21.6706 12.3154H29.9259C30.1344 12.3156 30.3406 12.3589 30.5316 12.4426C30.7226 12.5263 30.8942 12.6485 31.0357 12.8016L37.2455 20.4973C37.3877 20.6427 37.4989 20.8153 37.5725 21.0048C37.6461 21.1943 37.6805 21.3968 37.6736 21.6C37.6667 21.8031 37.6188 22.0028 37.5326 22.187C37.4464 22.3711 37.3238 22.5358 37.1722 22.6712L23.4133 35.632C23.1337 35.8979 22.7627 36.0461 22.3768 36.0461C21.991 36.0461 21.62 35.8979 21.3404 35.632L7.49898 22.6162C7.21581 22.355 7.04439 21.9946 7.02047 21.6101C6.99654 21.2256 7.12196 20.8467 7.37057 20.5524L13.6996 12.9116C13.8409 12.7394 14.0187 12.6006 14.2202 12.5054C14.4216 12.4103 14.6417 12.361 14.8645 12.3613L21.6706 12.3154Z" fill="#88DFFF"/>
<path d="M14.4979 13.1226C14.4223 13.1598 14.3515 13.206 14.287 13.2601L14.1861 13.3702L14.021 13.5629L13.3789 14.3333L12.1131 15.8835C11.7257 16.2326 11.4136 16.6571 11.1958 17.131C11.1133 17.397 10.618 17.6079 10.3336 17.9657L7.99462 20.8367C7.92388 20.9117 7.8623 20.9948 7.81117 21.0843C7.78421 21.1553 7.76573 21.2292 7.75612 21.3045C7.73864 21.4493 7.76416 21.596 7.8295 21.7264C7.92123 21.8732 7.93958 21.8732 8.22393 22.1208L8.90269 22.7262C9.81994 23.5242 10.618 24.4598 11.5536 25.1569C12.4892 25.854 12.8744 26.5237 13.6082 27.1474C14.3962 27.7982 15.1379 28.5032 15.828 29.2571C16.2891 29.8142 16.792 30.3355 17.3323 30.8164C17.6808 31.1099 18.0752 31.3026 18.4238 31.6511C18.7723 31.9997 19.0567 32.3941 19.5153 32.495C19.5153 32.495 19.6713 32.6693 19.7171 32.7702C19.9751 33.2107 20.3454 33.5747 20.7903 33.825C21.1264 34.0181 21.435 34.2557 21.7076 34.5313L21.9919 34.7881L22.1112 34.8798C22.1816 34.9175 22.2606 34.9364 22.3405 34.9349C22.4191 34.9337 22.4968 34.9182 22.5698 34.889L22.6707 34.8156L22.9459 34.5772C23.5146 34.0635 24.1383 33.6048 24.707 33.1004C25.2641 32.5304 25.852 31.9915 26.4681 31.486C27.0608 31.0631 27.6191 30.5938 28.1375 30.0826C28.431 29.7982 28.8622 29.5506 28.9355 29.1653C28.9837 29.0917 29.0501 29.0317 29.1281 28.9911C30.2013 28.4224 30.7517 27.3125 31.6781 26.5603C32.6045 25.8082 33.5126 24.8726 34.4299 24.0104C34.6684 23.7811 34.9802 23.5884 35.0811 23.2491C35.1818 23.0632 35.3307 22.9079 35.5122 22.7996C35.9127 22.5765 36.28 22.2986 36.6038 21.9741C36.6683 21.899 36.7164 21.8113 36.7448 21.7164C36.7733 21.6216 36.7815 21.5219 36.7689 21.4237C36.7552 21.3039 36.7038 21.1914 36.6221 21.1027L36.1176 20.4881C35.776 20.0674 35.4692 19.6195 35.2004 19.1489C34.9495 18.6505 34.5653 18.2314 34.0905 17.9381C33.852 17.8097 33.5952 17.3328 33.3292 17.0209C33.0632 16.709 32.8339 16.5989 32.6229 16.3513C32.4657 16.1214 32.3277 15.8791 32.2101 15.6267C32.1625 15.5508 32.1072 15.4801 32.045 15.4157C31.4614 14.8666 30.9442 14.2509 30.504 13.5812L30.3573 13.3702C30.3573 13.3702 30.3573 13.3244 30.3022 13.2968C30.2445 13.2406 30.1758 13.1969 30.1004 13.1684H29.9812H29.119C27.5321 13.2418 25.9178 13.1684 24.3217 13.1684C23.4877 13.2293 22.6545 13.0409 21.9277 12.6272C21.6525 12.4254 21.6525 12.2053 22.0286 12.0769C22.3252 11.9716 22.633 11.9008 22.9459 11.8659L24.441 11.7375C25.4641 11.587 26.4986 11.5287 27.5321 11.5633C27.8623 11.5633 28.2476 11.4807 28.5136 11.6825C28.5914 11.7059 28.6743 11.7059 28.7521 11.6825C29.1033 11.6111 29.4587 11.5621 29.8161 11.5357C30.059 11.5114 30.3043 11.5301 30.5407 11.5908C30.8046 11.6564 31.0536 11.7716 31.2745 11.9301C31.4735 12.0784 31.647 12.2581 31.7882 12.4621L32.1184 12.8933C32.3294 13.1776 32.5495 13.462 32.7788 13.7371C33.6258 14.6106 34.425 15.5292 35.1729 16.4889C35.7719 16.899 36.2679 17.4421 36.6221 18.0757C36.9523 18.5802 37.3009 19.0756 37.6586 19.5525L37.9338 19.9194C38.1686 20.1783 38.3424 20.4866 38.4424 20.8215C38.5424 21.1565 38.5661 21.5095 38.5117 21.8548C38.4456 22.3274 38.2377 22.7688 37.9154 23.1206L37.7136 23.3224L37.5577 23.4784L37.2275 23.7994L35.9158 25.0377C34.0813 26.6887 32.3385 28.3948 30.5499 30.0551C30.2472 30.3394 30.0821 30.688 29.6326 30.9723C29.2061 31.2895 28.8127 31.6491 28.4586 32.0455C28.1191 32.3979 27.7608 32.7316 27.3854 33.0453C26.6073 33.6016 25.8715 34.2148 25.184 34.8798L24.1383 35.8796L23.8631 36.1457C23.73 36.265 23.582 36.3668 23.4228 36.4483C23.1078 36.6199 22.7542 36.7083 22.3955 36.7052C22.0411 36.7061 21.6917 36.6212 21.3774 36.4575C21.2198 36.3769 21.0721 36.2784 20.9371 36.164L20.6527 35.898L19.6071 34.8982C18.9099 34.2469 18.2128 33.5957 17.4974 32.9628C16.5801 32.2015 15.6629 31.5043 14.8648 30.6605C14.5163 30.3027 14.0393 30.0367 13.8375 29.5323C13.7825 29.3855 13.3147 29.1929 13.0762 28.9819C12.48 28.4499 11.9021 27.8904 11.3243 27.34C10.5079 26.5787 9.70988 25.799 8.88435 25.0561C8.37986 24.6066 7.82033 24.2122 7.31584 23.7627L6.91225 23.4142C6.71806 23.2398 6.5456 23.0427 6.39859 22.8271C6.13086 22.4162 5.99217 21.9346 6.00034 21.4442C6.00851 20.9538 6.16318 20.4771 6.44445 20.0754L6.61874 19.8552L6.73798 19.736L6.9673 19.4883C7.26999 19.1581 7.58186 18.8371 7.88455 18.4977C8.49911 17.7914 9.04029 16.975 9.71906 16.3513C10.873 15.1625 11.963 13.9133 12.9845 12.6089L13.1863 12.3704C13.2847 12.2521 13.3954 12.1445 13.5165 12.0494C13.7319 11.8769 13.9776 11.7462 14.2411 11.6641C14.5026 11.6041 14.771 11.5794 15.0391 11.5908H15.6629C16.4792 11.5908 17.3047 11.5908 18.1303 11.5908C18.9558 11.5908 19.9097 11.765 20.827 11.7559C21.2489 11.7559 25.8484 11.9103 25.6741 12.1121C25.6235 12.1552 24.5693 13.0987 24.5051 13.116C23.609 13.3746 19.6583 13.0367 18.7265 13.0767H16.4609H14.7823C14.6854 13.0735 14.5889 13.0891 14.4979 13.1226Z" fill="#1F2227"/>
<path d="M19.1294 34.2881C19.1919 34.42 19.214 34.5665 19.1941 34.717L21.0774 34.1562C21.0906 33.7636 20.9226 33.4047 20.6045 33.1456C20.4266 32.5507 20.182 31.9776 19.8734 31.4324C19.7503 30.6983 19.4767 30.0042 19.0627 29.3756C19.0452 29.3616 19.0329 29.3441 19.0265 29.3243C19.0201 29.3046 19.0199 29.2831 19.0259 29.2617C19.191 29.059 19.0364 28.9046 18.9858 28.748C18.8659 28.2274 18.6441 27.7373 18.3279 27.2941L17.9653 26.6252C17.8782 26.4814 17.756 26.3558 17.6045 26.2544C17.4119 26.1122 17.1842 26.1857 17.0167 26.3813C16.8663 26.5987 16.772 26.8316 16.7404 27.0643C16.7088 27.297 16.7406 27.5238 16.8337 27.7293C17.0285 28.5277 17.2809 29.3095 17.5896 30.0711C17.9255 30.8194 17.8107 31.6974 18.3341 32.3773L18.3754 32.5055C18.3486 32.6557 18.344 32.8049 18.3618 32.95C18.4218 33.1035 18.5842 33.1847 18.6462 33.3769C18.7083 33.5691 18.6771 33.8621 18.8324 33.9535C18.9654 34.0418 19.0668 34.1561 19.1294 34.2881Z" fill="#1F2227"/>
<path d="M25.1324 34.2881C25.0698 34.42 25.0477 34.5665 25.0676 34.717L23.1843 34.1562C23.1711 33.7636 23.3391 33.4047 23.6572 33.1456C23.8351 32.5507 24.0797 31.9776 24.3884 31.4324C24.5114 30.6983 24.785 30.0042 25.1991 29.3756C25.2165 29.3616 25.2288 29.3441 25.2352 29.3243C25.2416 29.3046 25.2418 29.2831 25.2358 29.2617C25.0707 29.059 25.2253 28.9046 25.2759 28.748C25.3958 28.2274 25.6176 27.7373 25.9338 27.2941L26.2964 26.6252C26.3835 26.4814 26.5057 26.3558 26.6572 26.2544C26.8498 26.1122 27.0775 26.1857 27.245 26.3813C27.3954 26.5987 27.4897 26.8316 27.5213 27.0643C27.5529 27.297 27.5211 27.5238 27.4281 27.7293C27.2332 28.5277 26.9809 29.3095 26.6721 30.0711C26.3363 30.8194 26.451 31.6974 25.9277 32.3773L25.8863 32.5055C25.9131 32.6557 25.9177 32.8049 25.9 32.95C25.8399 33.1035 25.6775 33.1847 25.6155 33.3769C25.5534 33.5691 25.5846 33.8621 25.4294 33.9535C25.2963 34.0418 25.1949 34.1561 25.1324 34.2881Z" fill="#1F2227"/>
<path d="M8.12611 22.4487H9.89552C10.584 22.4487 11.2531 22.4287 11.8837 22.4287C12.3006 22.3809 12.7084 22.2153 13.0869 21.9401C13.1191 21.9211 13.1463 21.886 13.1641 21.8404C13.2413 21.621 12.9904 20.9927 12.8038 20.9927C12.3984 21.0027 12.0253 20.8132 11.6135 20.8132H9.43869C8.70629 20.8697 7.97212 20.8263 7.24463 20.6836L6.95508 22.4287C7.16097 22.4188 7.37331 22.688 7.48269 22.5783C7.68421 22.4376 7.90808 22.3925 8.12611 22.4487Z" fill="#1F2227"/>
<path d="M35.9139 22.4497H34.1445C33.4561 22.4497 32.7869 22.4297 32.1563 22.4297C31.7394 22.3819 31.3316 22.2163 30.9531 21.9411C30.9209 21.9221 30.8938 21.887 30.8759 21.8414C30.7987 21.622 31.0496 20.9937 31.2362 20.9937C31.6416 21.0037 32.0148 20.8142 32.4266 20.8142H34.6013C35.3337 20.8707 36.0679 20.8273 36.7954 20.6846L37.085 22.4297C36.8791 22.4198 36.6667 22.689 36.5573 22.5793C36.3558 22.4386 36.132 22.3935 35.9139 22.4497Z" fill="#1F2227"/>
<path d="M20.4738 12.5994L19.45 13.8161C19.0517 14.2895 18.6797 14.7624 18.3149 15.196C18.1103 15.5135 18.001 15.9005 17.9926 16.3379C17.9885 16.3723 17.9996 16.4136 18.0242 16.4552C18.1474 16.6496 18.7733 16.8815 18.8813 16.7532C19.1082 16.4681 19.4691 16.3335 19.7074 16.0503L20.9657 14.5549C21.3463 14.015 21.8043 13.5381 22.3344 13.1298L21.1667 11.807C21.0552 11.955 20.7263 11.9277 20.7469 12.0735C20.738 12.3027 20.643 12.4857 20.4738 12.5994Z" fill="#1F2227"/>
<path d="M23.7155 12.598L24.7393 13.8147C25.1376 14.2881 25.5096 14.761 25.8744 15.1946C26.0791 15.5121 26.1883 15.8991 26.1967 16.3366C26.2009 16.3709 26.1897 16.4122 26.1651 16.4539C26.0419 16.6482 25.416 16.8802 25.3081 16.7519C25.0811 16.4667 24.7202 16.3321 24.482 16.049L23.2236 14.5536C22.843 14.0136 22.385 13.5368 21.8549 13.1284L22.9838 12.0726C23.0953 12.2206 23.463 11.9263 23.4424 12.0722C23.4513 12.3013 23.5464 12.4843 23.7155 12.598Z" fill="#1F2227"/>
<path d="M19.0588 19.716C18.9707 19.6373 18.9218 19.5922 18.8338 19.5409C18.7457 19.4895 18.4033 19.4845 18.4033 19.4845C18.379 19.4613 18.3485 19.4451 18.3152 19.4375H18.2173C17.9895 19.4928 17.7867 19.6183 17.6401 19.7947C17.5502 19.9229 17.4871 20.0665 17.4542 20.2177C17.4156 20.3896 17.3666 20.5591 17.3074 20.7254C17.2882 20.828 17.2882 20.933 17.3074 21.0356C17.3172 21.1262 17.3172 21.2176 17.3074 21.3082V21.8723C17.3171 21.9769 17.3469 22.0789 17.3955 22.1731C17.4346 22.2577 17.4835 22.1731 17.5422 22.2577C17.5853 22.3574 17.6343 22.4547 17.689 22.5491C17.7187 22.6139 17.7583 22.6741 17.8064 22.7277C17.8651 22.7371 17.8651 22.5961 17.8651 22.6713C17.8553 22.9345 17.8749 22.7559 17.9336 22.8781C17.9923 23.0003 18.0608 22.9439 18.1293 22.9439C18.2153 22.9719 18.2974 23.0098 18.3739 23.0567C18.4256 23.0664 18.4787 23.0664 18.5304 23.0567C18.7555 23.0755 18.9218 22.9157 18.9903 22.9345C19.0588 22.9533 19.0294 22.8875 19.0588 22.8593C19.0882 22.8311 19.1469 22.7183 19.1469 22.7747V22.6619C19.2558 22.425 19.3315 22.1753 19.3719 21.9192C19.4502 21.6372 19.4394 21.3633 19.4394 20.9665C19.4394 20.5698 19.2839 20.0831 19.2839 20.0831C19.2447 19.9702 19.1469 19.7947 19.0588 19.716Z" fill="#1F2227"/>
<path d="M26.8674 19.593C26.7793 19.5142 26.7304 19.4692 26.6424 19.4178C26.5543 19.3665 26.2118 19.3614 26.2118 19.3614C26.1876 19.3383 26.1571 19.322 26.1238 19.3145H26.0259C25.7981 19.3698 25.5953 19.4952 25.4487 19.6717C25.3588 19.7998 25.2957 19.9435 25.2628 20.0947C25.2242 20.2665 25.1752 20.436 25.116 20.6023C25.0968 20.7049 25.0968 20.81 25.116 20.9125C25.1258 21.0032 25.1258 21.0945 25.116 21.1852V21.7492C25.1257 21.8539 25.1555 21.9559 25.2041 22.05C25.2432 22.1346 25.2921 22.05 25.3508 22.1346C25.3939 22.2344 25.4429 22.3317 25.4976 22.4261C25.5273 22.4909 25.5669 22.551 25.615 22.6047C25.6737 22.6141 25.6737 22.4731 25.6737 22.5483C25.6639 22.8115 25.6835 22.6329 25.7422 22.7551C25.8009 22.8773 25.8694 22.8209 25.9379 22.8209C26.0239 22.8488 26.106 22.8868 26.1825 22.9337C26.2342 22.9433 26.2873 22.9433 26.339 22.9337C26.5641 22.9525 26.7304 22.7927 26.7989 22.8115C26.8674 22.8303 26.838 22.7645 26.8674 22.7363C26.8967 22.7081 26.9555 22.5953 26.9555 22.6517V22.5389C27.0644 22.302 27.14 22.0522 27.1805 21.7962C27.2588 21.5142 27.248 21.2403 27.248 20.8435C27.248 20.4467 27.0925 19.96 27.0925 19.96C27.0533 19.8472 26.9555 19.6717 26.8674 19.593Z" fill="#1F2227"/>
<path d="M21.3043 22.4108C21.2941 22.5334 21.2941 22.6566 21.3043 22.7792C21.3043 22.8304 21.2838 22.8099 21.2499 22.8505C21.3418 22.9225 21.2838 22.9225 21.3043 22.943C21.3248 22.9635 21.3043 23.0863 21.3043 23.1477C21.3043 23.2091 21.3666 23.2893 21.4178 23.3302C21.469 23.3712 21.4509 23.4957 21.5737 23.465C21.6738 23.5366 21.5695 23.5878 21.6412 23.598C21.7128 23.6083 21.6632 23.5878 21.7576 23.6799C21.8088 23.7605 21.8161 23.772 21.8672 23.7618C21.9184 23.7515 21.8672 23.809 21.9607 23.7618C22.0255 23.789 21.9901 23.7618 22.0255 23.7311L22.1055 23.7618C22.1055 23.905 22.0742 23.8217 22.1494 23.7618C22.2734 23.7071 22.188 23.7311 22.2494 23.7311H22.3373C22.3373 23.7311 22.3994 23.6594 22.4404 23.6799C22.4813 23.7004 22.4998 23.6189 22.5612 23.7111C22.6226 23.8032 22.6758 23.7515 22.7065 23.7311C22.7372 23.7106 22.6692 23.827 22.7691 23.6799C22.937 23.6697 22.8411 23.598 22.941 23.5271C23.005 23.465 22.9863 23.4496 23.017 23.3984C23.0477 23.3473 23.017 23.4224 23.065 23.3025C23.1568 23.2785 23.0954 23.2705 23.1363 23.2091C23.1773 23.1477 23.0852 23.2526 23.2285 23.1146C23.2285 23.0727 23.2649 23.0706 23.2285 22.9839C23.2285 22.9839 23.1929 22.9869 23.1929 22.9254V22.8775C23.1568 22.6816 23.3103 22.6257 23.2387 22.4824C23.1925 22.3393 23.1925 22.1854 23.2387 22.0423C23.2387 21.9604 23.3206 21.8786 23.7197 21.8274C23.8814 21.7905 24.0493 21.7905 24.211 21.8274C24.2786 21.838 24.3421 21.8662 24.3952 21.9093L24.5078 22.0423C24.5795 22.1344 24.7637 22.2265 24.6613 22.3289C24.559 22.4312 24.7432 22.3903 24.559 22.421C24.8353 22.5438 24.6511 22.6871 24.6716 22.8099C24.692 22.9327 24.7441 22.9839 24.7121 23.2583C24.7121 23.5072 24.7081 23.5853 24.6202 23.7618C24.3793 24.085 24.4771 24.1609 24.252 24.4066C24.0375 24.6557 23.7854 24.8699 23.5048 25.0411C23.5048 25.0411 23.5048 25.1946 23.3615 25.1435C23.2182 25.0923 23.2285 25.1435 23.1568 25.2049C23.0852 25.2663 23.0545 25.297 22.9726 25.2561C22.6758 25.1128 22.4711 25.2561 22.2152 25.2561C21.9593 25.2561 21.7444 25.1639 21.4988 25.1435C21.2531 25.123 21.161 25.1435 21.0382 25.0514C20.9154 24.9592 20.8642 25.0514 20.9359 24.8467C20.9359 24.7955 20.813 24.8467 20.7721 24.8467C20.6814 24.7898 20.5987 24.721 20.5265 24.642L20.2399 24.294C20.1785 24.2326 20.1207 24.2142 20.0593 24.1323C19.9896 24.0587 19.9806 23.9653 19.9636 23.8654C19.9532 23.736 19.8807 23.6566 19.8911 23.5271C19.8911 23.4043 19.8617 23.3814 19.8907 23.1477C19.9878 22.9586 19.9431 22.7383 19.9636 22.5745C19.9942 22.4225 19.9942 22.266 19.9636 22.114C19.9636 22.0321 20.1171 21.9502 20.1171 21.8683C20.3394 21.8031 20.5718 21.7789 20.8028 21.7967H20.8847C21.0484 21.8786 21.3043 21.9604 21.2838 22.0526C21.2832 22.1723 21.29 22.2919 21.3043 22.4108Z" fill="#1F2227"/>
</svg>
