<svg width="41" height="40" viewBox="0 0 41 40" fill="none" xmlns="http://www.w3.org/2000/svg">
<circle cx="20.9688" cy="20" r="20" fill="#D4F3FF"/>
<path d="M20.6686 10.7183H28.1734C28.3629 10.7185 28.5504 10.7578 28.724 10.8339C28.8976 10.9099 29.0537 11.021 29.1823 11.1602L34.8276 18.1564C34.9569 18.2885 35.058 18.4454 35.1248 18.6177C35.1917 18.79 35.223 18.974 35.2168 19.1588C35.2105 19.3435 35.1669 19.525 35.0886 19.6924C35.0102 19.8598 34.8988 20.0095 34.7609 20.1326L22.2529 31.9152C21.9987 32.1569 21.6614 32.2916 21.3106 32.2916C20.9599 32.2916 20.6226 32.1569 20.3684 31.9152L7.7853 20.0826C7.52787 19.8451 7.37203 19.5175 7.35028 19.1679C7.32853 18.8184 7.44255 18.4739 7.66856 18.2064L13.4222 11.2603C13.5507 11.1037 13.7123 10.9775 13.8955 10.891C14.0786 10.8045 14.2787 10.7597 14.4813 10.76L20.6686 10.7183Z" fill="#88DFFF"/>
<path d="M14.1483 11.452C14.0795 11.4858 14.0151 11.5278 13.9565 11.5771L13.8647 11.6771L13.7146 11.8522L13.1309 12.5527L11.9802 13.9619C11.628 14.2793 11.3443 14.6652 11.1463 15.096C11.0713 15.3378 10.621 15.5296 10.3625 15.8548L8.23614 18.4648C8.17183 18.533 8.11585 18.6086 8.06937 18.6899C8.04486 18.7544 8.02806 18.8216 8.01933 18.8901C8.00343 19.0217 8.02663 19.1551 8.08604 19.2737C8.16942 19.4071 8.18611 19.4071 8.44461 19.6322L9.06166 20.1826C9.89553 20.908 10.621 21.7586 11.4715 22.3923C12.3221 23.0261 12.6723 23.6348 13.3394 24.2018C14.0558 24.7935 14.73 25.4343 15.3574 26.1197C15.7766 26.6262 16.2338 27.1001 16.7249 27.5373C17.0418 27.8041 17.4003 27.9792 17.7172 28.2961C18.0341 28.613 18.2926 28.9715 18.7095 29.0633C18.7095 29.0633 18.8513 29.2217 18.893 29.3134C19.1274 29.7139 19.4641 30.0448 19.8686 30.2724C20.1741 30.4479 20.4546 30.6639 20.7025 30.9144L20.9609 31.1479L21.0694 31.2313C21.1334 31.2655 21.2052 31.2827 21.2778 31.2813C21.3493 31.2803 21.4199 31.2662 21.4863 31.2397L21.578 31.1729L21.8282 30.9561C22.3452 30.4892 22.9122 30.0722 23.4292 29.6136C23.9356 29.0955 24.4701 28.6056 25.0302 28.146C25.5691 27.7615 26.0765 27.3349 26.5479 26.8702C26.8147 26.6117 27.2066 26.3865 27.2733 26.0363C27.3172 25.9694 27.3775 25.9148 27.4484 25.8779C28.4241 25.3609 28.9244 24.3519 29.7666 23.6681C30.6088 22.9844 31.4343 22.1338 32.2682 21.35C32.485 21.1415 32.7685 20.9664 32.8602 20.6579C32.9517 20.4889 33.0871 20.3477 33.2522 20.2493C33.6162 20.0464 33.9502 19.7938 34.2445 19.4988C34.3031 19.4306 34.3468 19.3508 34.3727 19.2646C34.3985 19.1784 34.406 19.0877 34.3946 18.9985C34.3822 18.8895 34.3354 18.7873 34.2611 18.7066L33.8025 18.1479C33.4919 17.7655 33.2131 17.3583 32.9686 16.9305C32.7406 16.4774 32.3913 16.0963 31.9597 15.8298C31.7429 15.713 31.5094 15.2794 31.2676 14.9959C31.0257 14.7124 30.8173 14.6123 30.6255 14.3872C30.4826 14.1782 30.3571 13.9579 30.2502 13.7284C30.207 13.6595 30.1567 13.5952 30.1001 13.5366C29.5696 13.0374 29.0994 12.4777 28.6992 11.8689L28.5658 11.6771C28.5658 11.6771 28.5658 11.6354 28.5158 11.6104C28.4633 11.5593 28.4008 11.5196 28.3323 11.4937H28.2239H27.4401C25.9975 11.5604 24.5299 11.4937 23.079 11.4937C22.3208 11.549 21.5633 11.3777 20.9026 11.0017C20.6524 10.8182 20.6524 10.6181 20.9943 10.5014C21.264 10.4057 21.5438 10.3413 21.8282 10.3096L23.1874 10.1928C24.1175 10.056 25.058 10.003 25.9975 10.0344C26.2977 10.0344 26.6479 9.95935 26.8897 10.1428C26.9604 10.1641 27.0359 10.1641 27.1066 10.1428C27.4258 10.0779 27.7489 10.0334 28.0738 10.0094C28.2947 9.98731 28.5176 10.0043 28.7326 10.0594C28.9725 10.1191 29.1989 10.2238 29.3997 10.368C29.5806 10.5027 29.7383 10.6661 29.8667 10.8516L30.1669 11.2435C30.3586 11.502 30.5588 11.7605 30.7672 12.0107C31.5372 12.8047 32.2638 13.6398 32.9436 14.5123C33.4882 14.8851 33.9391 15.3788 34.2611 15.9549C34.5613 16.4135 34.8782 16.8638 35.2034 17.2974L35.4536 17.6309C35.667 17.8663 35.825 18.1466 35.9159 18.451C36.0069 18.7555 36.0284 19.0765 35.9789 19.3904C35.9189 19.82 35.7299 20.2212 35.4369 20.5411L35.2534 20.7246L35.1117 20.8663L34.8115 21.1582L33.6191 22.2839C31.9513 23.7849 30.367 25.3359 28.7409 26.8452C28.4658 27.1037 28.3157 27.4205 27.9071 27.679C27.5193 27.9674 27.1617 28.2943 26.8397 28.6547C26.5311 28.975 26.2054 29.2784 25.8641 29.5636C25.1567 30.0693 24.4878 30.6268 23.8628 31.2313L22.9122 32.1402L22.662 32.3821C22.541 32.4906 22.4065 32.5831 22.2618 32.6572C21.9754 32.8132 21.654 32.8935 21.3279 32.8907C21.0057 32.8916 20.6881 32.8143 20.4023 32.6656C20.259 32.5923 20.1247 32.5028 20.002 32.3987L19.7435 32.1569L18.7929 31.248C18.1592 30.6559 17.5254 30.0639 16.875 29.4885C16.0411 28.7964 15.2073 28.1627 14.4818 27.3955C14.1649 27.0703 13.7313 26.8285 13.5479 26.3699C13.4978 26.2365 13.0726 26.0613 12.8558 25.8696C12.3137 25.3859 11.7884 24.8772 11.2631 24.3769C10.5209 23.6848 9.79547 22.976 9.04499 22.3006C8.58636 21.892 8.0777 21.5334 7.61907 21.1248L7.25217 20.808C7.07563 20.6495 6.91885 20.4703 6.78521 20.2743C6.54182 19.9007 6.41573 19.4629 6.42316 19.0171C6.43059 18.5713 6.5712 18.138 6.8269 17.7727L6.98534 17.5726L7.09374 17.4642L7.30221 17.239C7.57739 16.9388 7.8609 16.647 8.13608 16.3385C8.69477 15.6964 9.18675 14.9542 9.80381 14.3872C10.8529 13.3065 11.8438 12.1708 12.7724 10.985L12.9558 10.7682C13.0453 10.6606 13.1459 10.5628 13.256 10.4764C13.4518 10.3195 13.6753 10.2007 13.9148 10.1261C14.1525 10.0715 14.3965 10.0491 14.6402 10.0594H15.2073C15.9494 10.0594 16.6999 10.0594 17.4504 10.0594C18.2009 10.0594 19.0681 10.2179 19.9019 10.2095C20.2855 10.2095 24.4668 10.35 24.3084 10.5334C24.2624 10.5726 23.304 11.4303 23.2457 11.446C22.431 11.6811 18.8395 11.3739 17.9924 11.4103H15.9327H14.4068C14.3187 11.4074 14.2309 11.4216 14.1483 11.452Z" fill="#1F2227"/>
<path d="M18.3587 30.6937C18.4156 30.8137 18.4357 30.9469 18.4176 31.0836L20.1297 30.5738C20.1417 30.2169 19.989 29.8906 19.6998 29.6551C19.538 29.1143 19.3157 28.5933 19.0351 28.0977C18.9232 27.4303 18.6745 26.7993 18.2981 26.2278C18.2823 26.2152 18.271 26.1992 18.2652 26.1813C18.2594 26.1633 18.2592 26.1438 18.2647 26.1243C18.4148 25.9401 18.2742 25.7997 18.2282 25.6573C18.1192 25.184 17.9176 24.7385 17.6301 24.3356L17.3005 23.7275C17.2213 23.5967 17.1102 23.4826 16.9725 23.3904C16.7974 23.2611 16.5904 23.328 16.4382 23.5057C16.3014 23.7034 16.2157 23.9152 16.1869 24.1267C16.1582 24.3382 16.1871 24.5444 16.2717 24.7313C16.4488 25.4571 16.6783 26.1678 16.9589 26.8602C17.2643 27.5404 17.1599 28.3386 17.6357 28.9567L17.6733 29.0732C17.6489 29.2097 17.6447 29.3454 17.6609 29.4773C17.7155 29.6169 17.8631 29.6907 17.9195 29.8654C17.9759 30.0401 17.9476 30.3065 18.0887 30.3895C18.2097 30.4699 18.3019 30.5737 18.3587 30.6937Z" fill="#1F2227"/>
<path d="M23.8161 30.6937C23.7592 30.8137 23.7391 30.9469 23.7572 31.0836L22.0451 30.5738C22.0331 30.2169 22.1858 29.8906 22.475 29.6551C22.6368 29.1143 22.8591 28.5933 23.1397 28.0977C23.2516 27.4303 23.5003 26.7993 23.8767 26.2278C23.8926 26.2152 23.9038 26.1992 23.9096 26.1813C23.9154 26.1633 23.9156 26.1438 23.9101 26.1243C23.76 25.9401 23.9006 25.7997 23.9466 25.6573C24.0556 25.184 24.2572 24.7385 24.5447 24.3356L24.8743 23.7275C24.9535 23.5967 25.0646 23.4826 25.2023 23.3904C25.3774 23.2611 25.5844 23.328 25.7366 23.5057C25.8734 23.7034 25.9591 23.9152 25.9879 24.1267C26.0166 24.3382 25.9877 24.5444 25.9031 24.7313C25.726 25.4571 25.4965 26.1678 25.2159 26.8602C24.9105 27.5404 25.0149 28.3386 24.5391 28.9567L24.5015 29.0732C24.5259 29.2097 24.5301 29.3454 24.5139 29.4773C24.4593 29.6169 24.3117 29.6907 24.2553 29.8654C24.1989 30.0401 24.2272 30.3065 24.0861 30.3895C23.9651 30.4699 23.8729 30.5737 23.8161 30.6937Z" fill="#1F2227"/>
<path d="M8.35559 19.9307H9.96415C10.59 19.9307 11.1983 19.9126 11.7716 19.9126C12.1506 19.8691 12.5213 19.7185 12.8654 19.4683C12.8947 19.4511 12.9194 19.4192 12.9356 19.3777C13.0058 19.1782 12.7777 18.6071 12.608 18.6071C12.2395 18.6162 11.9003 18.4439 11.5259 18.4439H9.54884C8.88303 18.4952 8.2156 18.4558 7.55424 18.326L7.29102 19.9126C7.47819 19.9035 7.67122 20.1483 7.77066 20.0485C7.95386 19.9206 8.15738 19.8796 8.35559 19.9307Z" fill="#1F2227"/>
<path d="M33.6171 19.931H32.0085C31.3826 19.931 30.7743 19.9129 30.2011 19.9129C29.822 19.8694 29.4513 19.7189 29.1073 19.4687C29.078 19.4515 29.0533 19.4195 29.0371 19.378C28.9669 19.1786 29.195 18.6075 29.3646 18.6075C29.7331 18.6165 30.0724 18.4443 30.4467 18.4443H32.4238C33.0896 18.4956 33.7571 18.4562 34.4184 18.3264L34.6816 19.9129C34.4945 19.9039 34.3014 20.1486 34.202 20.0489C34.0188 19.921 33.8153 19.88 33.6171 19.931Z" fill="#1F2227"/>
<path d="M19.5811 10.9761L18.6503 12.0821C18.2882 12.5125 17.9501 12.9424 17.6184 13.3366C17.4324 13.6252 17.333 13.9771 17.3254 14.3747C17.3216 14.406 17.3318 14.4435 17.3541 14.4814C17.4661 14.658 18.0351 14.8689 18.1333 14.7523C18.3396 14.4931 18.6676 14.3707 18.8843 14.1133L20.0282 12.7538C20.3742 12.263 20.7906 11.8294 21.2725 11.4582L20.2109 10.2557C20.1095 10.3903 19.8106 10.3654 19.8293 10.498C19.8212 10.7063 19.7348 10.8727 19.5811 10.9761Z" fill="#1F2227"/>
<path d="M22.5279 10.9752L23.4587 12.0813C23.8208 12.5116 24.1589 12.9416 24.4906 13.3357C24.6766 13.6244 24.7759 13.9762 24.7836 14.3739C24.7874 14.4051 24.7772 14.4426 24.7549 14.4805C24.6429 14.6572 24.0739 14.8681 23.9757 14.7514C23.7694 14.4922 23.4413 14.3698 23.2247 14.1124L22.0808 12.753C21.7348 12.2621 21.3184 11.8286 20.8365 11.4574L21.8627 10.4975C21.9641 10.6321 22.2984 10.3646 22.2797 10.4971C22.2878 10.7055 22.3742 10.8718 22.5279 10.9752Z" fill="#1F2227"/>
<path d="M18.2948 17.4461C18.2147 17.3745 18.1702 17.3335 18.0902 17.2869C18.0101 17.2402 17.6988 17.2356 17.6988 17.2356C17.6767 17.2145 17.649 17.1998 17.6187 17.1929H17.5298C17.3227 17.2432 17.1383 17.3572 17.005 17.5176C16.9233 17.6341 16.8659 17.7647 16.836 17.9022C16.801 18.0584 16.7564 18.2125 16.7026 18.3637C16.6851 18.4569 16.6851 18.5524 16.7026 18.6457C16.7114 18.7281 16.7114 18.8111 16.7026 18.8935V19.4063C16.7114 19.5014 16.7385 19.5942 16.7826 19.6798C16.8182 19.7567 16.8627 19.6798 16.9161 19.7567C16.9552 19.8474 16.9998 19.9358 17.0495 20.0216C17.0765 20.0805 17.1125 20.1352 17.1562 20.184C17.2096 20.1925 17.2096 20.0643 17.2096 20.1327C17.2007 20.372 17.2185 20.2096 17.2718 20.3207C17.3252 20.4318 17.3875 20.3805 17.4497 20.3805C17.5279 20.406 17.6026 20.4404 17.6721 20.4831C17.7191 20.4919 17.7674 20.4919 17.8144 20.4831C18.019 20.5002 18.1702 20.3549 18.2325 20.372C18.2948 20.3891 18.2681 20.3292 18.2948 20.3036C18.3214 20.278 18.3748 20.1754 18.3748 20.2267V20.1241C18.4738 19.9088 18.5426 19.6818 18.5794 19.449C18.6506 19.1926 18.6407 18.9436 18.6407 18.5829C18.6407 18.2222 18.4994 17.7797 18.4994 17.7797C18.4638 17.6772 18.3748 17.5176 18.2948 17.4461Z" fill="#1F2227"/>
<path d="M25.3934 17.3338C25.3133 17.2622 25.2689 17.2212 25.1888 17.1746C25.1087 17.1279 24.7974 17.1233 24.7974 17.1233C24.7754 17.1022 24.7476 17.0875 24.7174 17.0806H24.6284C24.4213 17.1309 24.237 17.2449 24.1036 17.4053C24.0219 17.5218 23.9645 17.6524 23.9346 17.7899C23.8996 17.9461 23.8551 18.1002 23.8012 18.2514C23.7837 18.3446 23.7837 18.4401 23.8012 18.5334C23.8101 18.6158 23.8101 18.6988 23.8012 18.7812V19.294C23.81 19.3891 23.8371 19.4819 23.8813 19.5675C23.9168 19.6444 23.9613 19.5675 24.0147 19.6444C24.0538 19.7351 24.0984 19.8235 24.1481 19.9093C24.1751 19.9682 24.2111 20.0229 24.2548 20.0717C24.3082 20.0802 24.3082 19.952 24.3082 20.0204C24.2993 20.2597 24.3171 20.0973 24.3705 20.2084C24.4238 20.3195 24.4861 20.2682 24.5484 20.2682C24.6265 20.2937 24.7012 20.3281 24.7707 20.3708C24.8177 20.3795 24.8661 20.3795 24.9131 20.3708C25.1176 20.3879 25.2689 20.2426 25.3311 20.2597C25.3934 20.2768 25.3667 20.2169 25.3934 20.1913C25.4201 20.1657 25.4734 20.0631 25.4734 20.1144V20.0118C25.5725 19.7965 25.6413 19.5695 25.678 19.3367C25.7492 19.0803 25.7394 18.8313 25.7394 18.4706C25.7394 18.1099 25.598 17.6674 25.598 17.6674C25.5624 17.5649 25.4734 17.4053 25.3934 17.3338Z" fill="#1F2227"/>
<path d="M20.3358 19.8956C20.3265 20.007 20.3265 20.1191 20.3358 20.2305C20.3358 20.277 20.3172 20.2584 20.2863 20.2953C20.3699 20.3608 20.3172 20.3608 20.3358 20.3794C20.3544 20.398 20.3358 20.5097 20.3358 20.5655C20.3358 20.6213 20.3924 20.6942 20.4389 20.7314C20.4855 20.7687 20.469 20.8818 20.5807 20.8539C20.6717 20.9191 20.5769 20.9656 20.642 20.9749C20.7071 20.9842 20.6621 20.9656 20.7479 21.0493C20.7944 21.1226 20.801 21.133 20.8475 21.1237C20.894 21.1144 20.8475 21.1667 20.9325 21.1237C20.9914 21.1485 20.9592 21.1237 20.9914 21.0958L21.0641 21.1237C21.0641 21.254 21.0356 21.1782 21.1041 21.1237C21.2167 21.074 21.1391 21.0958 21.1949 21.0958H21.2749C21.2749 21.0958 21.3314 21.0307 21.3686 21.0493C21.4058 21.0679 21.4226 20.9939 21.4784 21.0776C21.5343 21.1614 21.5826 21.1144 21.6105 21.0958C21.6384 21.0772 21.5766 21.183 21.6674 21.0493C21.8201 21.04 21.7328 20.9749 21.8237 20.9105C21.8819 20.8539 21.8648 20.84 21.8928 20.7934C21.9207 20.7469 21.8928 20.8152 21.9364 20.7062C22.0199 20.6844 21.964 20.6771 22.0013 20.6213C22.0385 20.5655 21.9548 20.6608 22.085 20.5354C22.085 20.4973 22.1181 20.4954 22.085 20.4166C22.085 20.4166 22.0527 20.4193 22.0527 20.3635V20.3198C22.0199 20.1417 22.1594 20.091 22.0943 19.9607C22.0523 19.8306 22.0523 19.6907 22.0943 19.5606C22.0943 19.4862 22.1687 19.4117 22.5316 19.3652C22.6786 19.3317 22.8312 19.3317 22.9782 19.3652C23.0396 19.3749 23.0974 19.4005 23.1457 19.4396L23.2481 19.5606C23.3132 19.6443 23.4807 19.7281 23.3876 19.8211C23.2946 19.9142 23.4621 19.877 23.2946 19.9049C23.5458 20.0165 23.3783 20.1468 23.3969 20.2584C23.4155 20.3701 23.4629 20.4166 23.4338 20.666C23.4338 20.8923 23.4302 20.9633 23.3502 21.1237C23.1312 21.4176 23.2202 21.4866 23.0155 21.7099C22.8205 21.9365 22.5913 22.1311 22.3362 22.2868C22.3362 22.2868 22.3362 22.4264 22.206 22.3798C22.0757 22.3333 22.085 22.3798 22.0199 22.4357C21.9547 22.4915 21.9268 22.5194 21.8524 22.4822C21.5826 22.3519 21.3965 22.4822 21.1639 22.4822C20.9313 22.4822 20.7359 22.3985 20.5126 22.3798C20.2893 22.3612 20.2055 22.3798 20.0939 22.2961C19.9822 22.2124 19.9357 22.2961 20.0008 22.11C20.0008 22.0635 19.8892 22.11 19.8519 22.11C19.7695 22.0584 19.6944 21.9957 19.6286 21.9239L19.3681 21.6076C19.3123 21.5518 19.2598 21.535 19.204 21.4606C19.1406 21.3937 19.1324 21.3088 19.1169 21.218C19.1075 21.1003 19.0416 21.0281 19.051 20.9105C19.051 20.7988 19.0243 20.778 19.0507 20.5655C19.139 20.3936 19.0983 20.1933 19.1169 20.0445C19.1447 19.9063 19.1447 19.7639 19.1169 19.6257C19.1169 19.5513 19.2565 19.4769 19.2565 19.4024C19.4586 19.3432 19.6698 19.3211 19.8799 19.3373H19.9543C20.1032 19.4117 20.3358 19.4862 20.3172 19.5699C20.3166 19.6788 20.3228 19.7875 20.3358 19.8956Z" fill="#1F2227"/>
</svg>
