<svg width="41" height="40" viewBox="0 0 41 40" fill="none" xmlns="http://www.w3.org/2000/svg">
<circle cx="20.9688" cy="20" r="20" fill="#E6EDFE"/>
<path d="M16.5723 19.5898L20.4235 13.7126C20.4821 13.6204 20.5627 13.5446 20.6578 13.492C20.753 13.4395 20.8597 13.412 20.9681 13.412C21.0765 13.412 21.1832 13.4395 21.2783 13.492C21.3735 13.5446 21.454 13.6204 21.5126 13.7126L25.3639 19.5898C25.5975 19.9461 25.939 20.2164 26.3374 20.3602C26.7357 20.5039 27.1695 20.5134 27.5736 20.3872L31.5196 19.1432C31.6247 19.1114 31.7362 19.1068 31.8435 19.1298C31.9509 19.1529 32.0508 19.2028 32.1341 19.2751C32.2174 19.3473 32.2814 19.4395 32.3202 19.5433C32.359 19.6471 32.3713 19.759 32.3562 19.8688L30.7146 30.6982C30.6919 30.8532 30.6149 30.9948 30.4976 31.0972C30.3803 31.1997 30.2304 31.2561 30.0754 31.2564H11.8371C11.682 31.2561 11.5322 31.1997 11.4149 31.0972C11.2976 30.9948 11.2206 30.8532 11.1979 30.6982L9.53267 19.8609C9.51748 19.751 9.52985 19.6391 9.56865 19.5353C9.60745 19.4316 9.67144 19.3393 9.75473 19.2671C9.83801 19.1948 9.93793 19.1449 10.0453 19.1218C10.1527 19.0988 10.2641 19.1034 10.3692 19.1352L14.3152 20.3792C14.7248 20.5192 15.1688 20.5176 15.5774 20.3747C15.986 20.2318 16.336 19.9557 16.5723 19.5898Z" fill="#EBEFF9"/>
<path d="M10.4871 19.8377C10.4495 19.8252 10.4092 19.824 10.371 19.8341C10.3327 19.8442 10.2982 19.8653 10.2715 19.8948C10.2448 19.9243 10.2272 19.9609 10.2206 20.0003C10.214 20.0397 10.2189 20.0802 10.2346 20.1168L10.5266 21.9669C10.5422 22.426 10.644 22.8779 10.8264 23.2986C10.9527 23.506 10.8264 23.9685 10.8738 24.3752L11.3868 27.6846L11.6867 29.2795C11.7463 29.67 11.8307 30.0562 11.9392 30.4358C11.9517 30.453 11.9686 30.4665 11.988 30.4749C12.0074 30.4833 12.0287 30.4864 12.0497 30.4836H12.8389C13.3655 30.4999 13.8926 30.4839 14.4173 30.4358C15.3012 30.3401 16.1062 30.5155 16.9585 30.4358C17.8623 30.3719 18.7695 30.3719 19.6733 30.4358C20.3094 30.5154 20.9503 30.5474 21.591 30.5315C21.9935 30.5315 22.3802 30.4039 22.7985 30.4119C23.207 30.48 23.6261 30.4388 24.0139 30.2922C24.1157 30.2926 24.2168 30.3087 24.3138 30.3401C24.7506 30.4585 25.2107 30.4585 25.6475 30.3401C25.9767 30.2688 26.3134 30.2393 26.6498 30.2524C27.5574 30.2524 28.4649 30.2524 29.3725 30.2524H29.8855H29.9328C29.9506 30.2591 29.9703 30.2591 29.9881 30.2524C29.9881 30.2524 29.9881 30.2524 30.0512 30.053C30.124 29.3426 30.2373 28.637 30.3906 27.9398C30.5711 27.3132 30.703 26.6732 30.7851 26.0259C30.8404 25.6591 30.9982 25.2285 30.8325 24.9175C30.8153 24.8414 30.8153 24.7623 30.8325 24.6862C31.2666 23.6894 31.0614 22.6129 31.2902 21.5602C31.3455 21.2971 31.4007 21.0259 31.4481 20.7628L31.5586 20.0132C31.5677 19.9917 31.5705 19.9679 31.5664 19.9448C31.5623 19.9217 31.5517 19.9004 31.5357 19.8834C31.5197 19.8664 31.4991 19.8546 31.4766 19.8493C31.454 19.844 31.4304 19.8455 31.4086 19.8537H31.3139C31.1727 19.9025 31.0435 19.9813 30.9351 20.0849C30.7804 20.1924 30.6011 20.2583 30.4142 20.2763C29.5815 20.4023 28.7642 20.6161 27.9756 20.9143L27.5652 21.0179C27.4012 21.051 27.2351 21.0723 27.0681 21.0817C26.7355 21.0912 26.404 21.0399 26.0895 20.9302C25.7791 20.8109 25.4929 20.6353 25.245 20.4119C25.1266 20.2938 25.0184 20.1657 24.9214 20.0291C24.8741 19.9573 24.8346 19.8856 24.7952 19.8138L24.7241 19.6463C24.5371 19.1836 24.2321 18.7791 23.8403 18.4741C23.643 18.3385 23.4614 17.892 23.2484 17.6129C23.0353 17.3337 22.8459 17.1902 22.688 16.951C22.5666 16.7343 22.4636 16.5075 22.3802 16.2732C22.3457 16.2021 22.3033 16.1352 22.254 16.0738C21.8151 15.5868 21.4313 15.0518 21.1097 14.4789L21.0465 14.3752V14.3194C21.0363 14.2921 21.0201 14.2676 20.9992 14.2476C20.9866 14.2396 20.9724 14.2347 20.9577 14.2332C20.9429 14.2318 20.928 14.2339 20.9142 14.2393C20.9004 14.2447 20.888 14.2534 20.8781 14.2645C20.8682 14.2757 20.861 14.289 20.8571 14.3035C20.8571 14.3035 20.8571 14.3034 20.8571 14.3672C20.131 15.5873 19.3182 16.7596 18.4895 17.9558C18.1231 18.6113 17.5743 19.1437 16.9111 19.4869C16.627 19.5905 16.4771 19.4869 16.5639 19.144C16.6308 18.8666 16.7316 18.5988 16.8638 18.3465L17.503 17.1663C17.8927 16.3276 18.3576 15.5268 18.892 14.7739C19.0735 14.5427 19.1761 14.1998 19.4523 14.0961C19.5133 14.0537 19.5622 13.996 19.5944 13.9287C19.6744 13.707 19.7748 13.4934 19.8943 13.2907C19.9931 13.0963 20.1409 12.9317 20.3227 12.8134C20.5046 12.6951 20.714 12.6273 20.9301 12.6168C21.1461 12.6063 21.361 12.6535 21.5532 12.7536C21.7455 12.8537 21.9082 13.0032 22.0251 13.187C22.0961 13.2827 22.1514 13.3864 22.2145 13.4821L22.3408 13.6815L22.5539 14.0323C22.6959 14.2636 22.8459 14.4948 22.9958 14.7181C23.6035 15.6192 24.3611 16.3848 24.8899 17.3577C25.3775 17.7837 25.7679 18.3115 26.0342 18.9047C26.0946 19.06 26.1904 19.1987 26.3138 19.3096C26.4372 19.4204 26.5848 19.5003 26.7445 19.5427C26.9079 19.5826 27.0783 19.5826 27.2417 19.5427H27.3679L27.5652 19.4869L27.944 19.3593L29.4751 18.8649L31.0535 18.3625C31.2624 18.2595 31.4918 18.206 31.7243 18.206C31.9567 18.206 32.1862 18.2595 32.3951 18.3625C32.59 18.4747 32.7555 18.6324 32.8777 18.8225C32.9999 19.0126 33.0752 19.2294 33.0975 19.455C33.1114 19.6987 33.0902 19.9431 33.0344 20.1806L32.9712 20.6033L32.8528 21.4007L32.3557 24.6543C32.3566 25.0337 32.3088 25.4117 32.2136 25.7787C32.0927 26.238 32.0161 26.708 31.9847 27.1822C31.9137 27.6128 31.89 28.0753 31.7795 28.482C31.6691 28.8887 31.5586 29.2795 31.4796 29.734L31.3613 30.372C31.3467 30.7275 31.2035 31.0652 30.9588 31.321C30.835 31.4431 30.6879 31.5387 30.5265 31.6017C30.365 31.6648 30.1926 31.694 30.0196 31.6878H28.0309C26.3341 31.6878 24.6294 31.6479 22.9406 31.6878C21.9067 31.6878 20.8808 31.8393 19.839 31.7914C19.3869 31.8488 18.9279 31.8135 18.4895 31.6878C18.3633 31.6319 17.9529 31.7835 17.6609 31.7914C16.9585 31.7914 16.2403 31.7914 15.53 31.7914C14.5436 31.7914 13.5571 31.7914 12.5706 31.7914H12.1207H11.7735C11.635 31.7891 11.4973 31.7703 11.3631 31.7356C11.0934 31.6583 10.8512 31.5046 10.6652 31.2926C10.4791 31.0807 10.3571 30.8193 10.3135 30.5394L10.1477 29.5028L10.0136 28.5538C9.91888 27.7564 9.87153 26.9589 9.76893 26.1615C9.66634 25.364 9.44536 24.4868 9.4138 23.6814C9.39155 23.0486 9.33358 22.4176 9.24017 21.7915L8.93239 19.7819C8.88759 19.5525 8.90525 19.3151 8.98348 19.0951C9.06172 18.875 9.19759 18.6805 9.37661 18.5324C9.55564 18.3842 9.77111 18.2879 10 18.2538C10.229 18.2197 10.4628 18.249 10.6765 18.3385L11.8287 18.7133C12.5311 18.9286 13.2256 19.144 13.928 19.3433C14.1253 19.3991 14.3226 19.4629 14.5041 19.5347C14.6341 19.5954 14.7725 19.6357 14.9145 19.6543C15.2053 19.7072 16.8295 18.1212 17.0754 17.9558C17.2399 17.8837 17.4454 18.3641 17.6247 18.3625C17.822 18.3625 16.6665 19.3672 16.6902 19.4709C16.6989 19.5374 17.7202 18.7651 17.686 18.8225C17.4598 19.2488 16.0711 20.4318 15.6405 20.6431C15.3968 20.7638 15.1318 20.8344 14.8608 20.8508C14.5899 20.8672 14.3184 20.8292 14.0621 20.7389L12.1444 20.1168L10.4871 19.8377Z" fill="#1F2227"/>
<path d="M20.6159 11.0503C21.4608 11.0503 22.1458 10.3582 22.1458 9.50441C22.1458 8.65063 21.4608 7.9585 20.6159 7.9585C19.7709 7.9585 19.0859 8.65063 19.0859 9.50441C19.0859 10.3582 19.7709 11.0503 20.6159 11.0503Z" fill="#6A36FF"/>
<path d="M20.6498 8.8063C20.5733 8.84231 20.5093 8.90081 20.4662 8.97414C20.4662 8.97414 20.3526 8.97414 20.4662 9.11549C20.5799 9.25683 20.3263 9.07132 20.3176 9.11549C20.3088 9.15965 20.2477 9.26564 20.2564 9.34515C20.2651 9.42465 20.3438 9.50415 20.37 9.56599C20.3963 9.62783 20.3088 9.71617 20.44 9.73384C20.5711 9.7515 20.44 9.85752 20.44 9.88402C20.44 9.91052 20.5536 9.88403 20.5361 10.0254C20.5186 10.1667 20.5361 10.1932 20.5361 10.1844C20.5361 10.1755 20.6585 10.0872 20.676 10.1137C20.6935 10.1402 20.676 10.2374 20.7897 10.0254C20.7897 10.0254 20.7897 10.0254 20.7897 10.0784C20.7897 10.1314 20.7897 10.2374 20.8421 10.1402C20.8946 10.043 20.8946 10.0607 20.9121 10.0607C20.9548 10.0477 21.0004 10.0477 21.0432 10.0607C21.0432 10.0607 21.1219 10.1667 21.1656 10.1755C21.2093 10.1844 21.2181 10.0695 21.2967 10.1755C21.3754 10.2815 21.4191 10.2285 21.4628 10.1755C21.5066 10.1225 21.5765 10.2285 21.4628 10.0342C21.7339 10.2109 21.4628 9.86635 21.5765 9.88402C21.6901 9.90169 21.6639 9.77801 21.6727 9.71618C21.6814 9.65434 21.7426 9.71618 21.5852 9.63668C21.524 9.63668 21.4279 9.55717 21.5852 9.63668C21.8213 9.63668 21.6814 9.54833 21.7251 9.51299C21.7688 9.47766 21.6552 9.41584 21.8125 9.30983C21.9699 9.20382 21.8999 9.19499 21.6901 9.25683C21.4803 9.31867 21.6901 9.21264 21.6377 9.2038C21.5852 9.19497 21.5153 9.2038 21.5065 9.2038C21.4978 9.2038 21.5678 9.13314 21.594 9.0978C21.3579 9.20381 21.5503 8.92113 21.4191 8.9123C21.288 8.90346 21.2618 8.91229 21.1831 8.82395C21.1044 8.73562 21.1131 8.71796 21.0694 8.28511C21.0283 8.11386 21.0283 7.93516 21.0694 7.76391C21.0694 7.67558 21.1569 7.58724 21.2093 7.56957C21.2889 7.53484 21.3707 7.50533 21.4541 7.48123C21.6115 7.48123 21.8563 7.30455 21.9786 7.48123C21.9786 7.53423 22.1273 7.48123 22.0748 7.64907C22.4332 7.51656 22.5294 7.85225 22.6868 8.01126C22.8441 8.17027 23.1501 8.20559 23.1501 8.46177C23.4211 8.46177 23.4386 8.65611 23.4037 8.79745C23.2813 9.29215 23.4036 9.68084 23.2813 10.1314C23.1438 10.5573 22.8963 10.9385 22.5644 11.2356C22.5119 11.2798 22.5644 11.4299 22.407 11.4034C22.2497 11.3769 22.2409 11.4918 22.1535 11.5359C22.0661 11.5801 22.0136 11.6685 21.9174 11.6508C21.524 11.5448 21.253 11.7391 20.9121 11.7038C20.5941 11.6474 20.2812 11.5646 19.9766 11.4564C19.7843 11.3946 19.5308 11.3769 19.4084 11.1914C19.286 11.0059 19.1985 11.1296 19.3122 10.9176C19.3122 10.8646 19.1636 10.9176 19.1199 10.8646C19.0231 10.7554 18.9462 10.6298 18.8926 10.4936C18.8052 10.308 18.7614 10.1137 18.6915 9.91937C18.6216 9.72502 18.5516 9.68968 18.5254 9.55718C18.4941 9.42356 18.4941 9.28441 18.5254 9.1508C18.5935 8.98952 18.6724 8.8331 18.7614 8.68261C18.8401 8.54127 18.8226 8.32042 18.9975 8.24092C19.3035 8.09075 19.4084 7.83457 19.6532 7.66673C19.8936 7.52611 20.1417 7.3993 20.3963 7.28688C20.5536 7.21621 21.7863 7.4332 21.9174 7.42437C22.0486 7.41553 21.2093 7.90394 21.1831 8.09829C21.189 8.12743 21.3783 8.21178 21.3724 8.24092C21.285 8.4176 21.5677 8.68261 21.5065 8.68261C21.4321 8.71343 20.6951 8.73916 20.6498 8.8063Z" fill="#1F2227"/>
<path d="M8.16604 17.1892C8.76958 17.1892 9.25884 16.6948 9.25884 16.0849C9.25884 15.4751 8.76958 14.9807 8.16604 14.9807C7.5625 14.9807 7.07324 15.4751 7.07324 16.0849C7.07324 16.6948 7.5625 17.1892 8.16604 17.1892Z" fill="#6A36FF"/>
<path d="M33.9463 17.1892C34.5499 17.1892 35.0391 16.6948 35.0391 16.0849C35.0391 15.4751 34.5499 14.9807 33.9463 14.9807C33.3428 14.9807 32.8535 15.4751 32.8535 16.0849C32.8535 16.6948 33.3428 17.1892 33.9463 17.1892Z" fill="#6A36FF"/>
<path d="M8.40378 15.7309C8.40378 15.7309 8.33385 15.7309 8.31636 15.8193C8.29888 15.9076 8.22894 15.8192 8.3863 15.9164C8.54366 16.0136 8.26391 15.8546 8.26391 15.8723C8.26391 15.8899 8.26391 15.9429 8.26391 15.9783C8.26391 16.0136 8.36007 16.0578 8.3863 16.0843C8.41253 16.1108 8.30762 16.1549 8.3863 16.1373C8.46498 16.1196 8.3251 16.1991 8.3863 16.1991C8.4475 16.1991 8.46498 16.1991 8.3863 16.2521C8.30762 16.3051 8.3251 16.3935 8.3863 16.3758C8.4475 16.3581 8.48247 16.2609 8.48247 16.2698C8.48247 16.2786 8.48246 16.3846 8.5524 16.1638C8.5524 16.1638 8.5524 16.1638 8.5524 16.2168C8.5524 16.2698 8.5524 16.367 8.5524 16.2609C8.5524 16.1549 8.5524 16.1726 8.5524 16.1726C8.5524 16.1726 8.55241 16.2786 8.60486 16.2963C8.65732 16.314 8.60486 16.208 8.65731 16.2963C8.70977 16.3846 8.736 16.3758 8.75348 16.3581C8.77096 16.3404 8.84091 16.4288 8.70103 16.2344C8.93707 16.4465 8.70103 16.1284 8.70103 16.1726C8.70103 16.2168 8.74474 16.1726 8.70103 16.1196C8.65732 16.0666 8.77097 16.1196 8.60486 16.0754C8.54366 16.0754 8.43876 16.0313 8.60486 16.0754C8.83216 16.0754 8.70102 16.0754 8.73599 16.0754C8.77096 16.0754 8.67479 16.0754 8.8409 15.9871C9.007 15.8988 8.93707 15.9076 8.73599 15.9871L8.62234 16.0401L8.72725 15.9606C8.52618 16.1108 8.72726 15.8634 8.6748 15.8899C8.62235 15.9164 8.6136 15.8899 8.58737 15.8899C8.55282 15.7185 8.53815 15.5436 8.54366 15.3687C8.52045 15.1928 8.52045 15.0146 8.54366 14.8387C8.56136 14.7658 8.59751 14.6988 8.64856 14.6443L8.84965 14.5472C8.97204 14.5472 9.18185 14.3617 9.27802 14.5472C9.37418 14.7327 9.40916 14.5472 9.33922 14.7062C9.33922 14.7062 9.33922 14.7592 9.33922 14.7504C9.65394 14.5914 9.71513 14.8917 9.83753 15.0154C9.95992 15.1391 10.2572 15.1479 10.2397 15.3687C10.502 15.3687 10.5107 15.5101 10.467 15.6338C10.3184 16.0401 10.467 16.367 10.3446 16.7291C10.2303 17.0687 10.0316 17.3729 9.7676 17.6125C9.7676 17.6125 9.76759 17.7892 9.63646 17.7539C9.50532 17.7185 9.49657 17.8245 9.42663 17.8599C9.3567 17.8952 9.32174 17.9747 9.23431 17.9482C8.89336 17.8157 8.69228 18.0012 8.41253 17.9482C8.15822 17.899 7.90713 17.8341 7.66068 17.7539C7.51206 17.7097 7.28475 17.7539 7.18858 17.5595C7.09242 17.3652 7.005 17.5595 7.1274 17.321C7.1274 17.268 6.99626 17.321 6.95255 17.321C6.8782 17.2297 6.81643 17.1287 6.76895 17.0206C6.7087 16.8674 6.65618 16.7111 6.6116 16.5525C6.6116 16.4553 6.47172 16.3669 6.44549 16.2521C6.41531 16.1423 6.41531 16.0262 6.44549 15.9164C6.50461 15.785 6.5779 15.6606 6.66405 15.5454C6.72525 15.4306 6.66405 15.2451 6.85638 15.1832C7.04872 15.1214 7.20607 14.8652 7.40714 14.7415C7.60822 14.6179 7.80056 14.5384 8.00163 14.4323C8.20271 14.3263 8.736 14.557 8.84965 14.5482C8.93674 14.7851 8.96449 15.4308 8.94653 15.6829C8.94914 15.7123 8.94914 15.6846 8.94653 15.714C8.89408 15.8906 8.48247 15.8192 8.41253 15.8016C8.34259 15.7839 8.43875 15.7309 8.40378 15.7309Z" fill="#1F2227"/>
<path d="M33.4301 15.7309C33.4301 15.7309 33.3602 15.7309 33.3427 15.8193C33.3252 15.9076 33.2553 15.8192 33.4127 15.9164C33.57 16.0136 33.2903 15.8546 33.2903 15.8723C33.2903 15.8899 33.2903 15.9429 33.2903 15.9783C33.2903 16.0136 33.3864 16.0578 33.4127 16.0843C33.4389 16.1108 33.334 16.1549 33.4127 16.1373C33.4913 16.1196 33.3515 16.1991 33.4127 16.1991C33.4739 16.1991 33.4913 16.1991 33.4127 16.2521C33.334 16.3051 33.3515 16.3935 33.4127 16.3758C33.4739 16.3581 33.5088 16.2609 33.5088 16.2698C33.5088 16.2786 33.5088 16.3846 33.5788 16.1638C33.5788 16.1638 33.5788 16.1638 33.5788 16.2168C33.5788 16.2698 33.5788 16.367 33.5788 16.2609C33.5788 16.1549 33.5788 16.1726 33.5788 16.1726C33.5788 16.1726 33.5788 16.2786 33.6312 16.2963C33.6837 16.314 33.6312 16.208 33.6837 16.2963C33.7361 16.3846 33.7624 16.3758 33.7798 16.3581C33.7973 16.3404 33.8673 16.4288 33.7274 16.2344C33.9634 16.4465 33.7274 16.1284 33.7274 16.1726C33.7274 16.2168 33.7711 16.1726 33.7274 16.1196C33.6837 16.0666 33.7973 16.1196 33.6312 16.0754C33.57 16.0754 33.4651 16.0313 33.6312 16.0754C33.8585 16.0754 33.7274 16.0754 33.7624 16.0754C33.7973 16.0754 33.7012 16.0754 33.8673 15.9871C34.0334 15.8988 33.9634 15.9076 33.7624 15.9871L33.6487 16.0401L33.7536 15.9606C33.5525 16.1108 33.7536 15.8634 33.7012 15.8899C33.6487 15.9164 33.64 15.8899 33.6137 15.8899C33.5792 15.7185 33.5645 15.5436 33.57 15.3687C33.5468 15.1928 33.5468 15.0146 33.57 14.8387C33.5877 14.7658 33.6239 14.6988 33.6749 14.6443L33.876 14.5472C33.9984 14.5472 34.2082 14.3617 34.3044 14.5472C34.4005 14.7327 34.4355 14.5472 34.3656 14.7062C34.3656 14.7062 34.3656 14.7592 34.3656 14.7504C34.6803 14.5914 34.7415 14.8917 34.8639 15.0154C34.9863 15.1391 35.2835 15.1479 35.2661 15.3687C35.5283 15.3687 35.5371 15.5101 35.4933 15.6338C35.3447 16.0401 35.4933 16.367 35.371 16.7291C35.2567 17.0687 35.058 17.3729 34.794 17.6125C34.794 17.6125 34.794 17.7892 34.6628 17.7539C34.5317 17.7185 34.5229 17.8245 34.453 17.8599C34.3831 17.8952 34.3481 17.9747 34.2607 17.9482C33.9197 17.8157 33.7187 18.0012 33.4389 17.9482C33.1846 17.899 32.9335 17.8341 32.687 17.7539C32.5384 17.7097 32.3111 17.7539 32.215 17.5595C32.1188 17.3652 32.0314 17.5595 32.1538 17.321C32.1538 17.268 32.0226 17.321 31.9789 17.321C31.9046 17.2297 31.8428 17.1287 31.7953 17.0206C31.7351 16.8674 31.6825 16.7111 31.638 16.5525C31.638 16.4553 31.4981 16.3669 31.4719 16.2521C31.4417 16.1423 31.4417 16.0262 31.4719 15.9164C31.531 15.785 31.6043 15.6606 31.6904 15.5454C31.7516 15.4306 31.6904 15.2451 31.8828 15.1832C32.0751 15.1214 32.2324 14.8652 32.4335 14.7415C32.6346 14.6179 32.8269 14.5384 33.028 14.4323C33.2291 14.3263 33.7624 14.557 33.876 14.5482C33.9631 14.7851 33.9909 15.4308 33.9729 15.6829C33.9755 15.7123 33.9755 15.6846 33.9729 15.714C33.9204 15.8906 33.5088 15.8192 33.4389 15.8016C33.369 15.7839 33.4651 15.7309 33.4301 15.7309Z" fill="#1F2227"/>
<path d="M17.8513 22.8155C17.7756 22.7471 17.7335 22.7079 17.6577 22.6633C17.5819 22.6186 17.2873 22.6142 17.2873 22.6142C17.2664 22.5941 17.2402 22.58 17.2115 22.5734H17.1274C16.9313 22.6215 16.7569 22.7305 16.6307 22.8839C16.5533 22.9953 16.499 23.1202 16.4707 23.2517C16.4376 23.4011 16.3954 23.5484 16.3445 23.693C16.3279 23.7822 16.3279 23.8735 16.3445 23.9627C16.3528 24.0415 16.3528 24.1209 16.3445 24.1997V24.6901C16.3528 24.7811 16.3785 24.8698 16.4202 24.9516C16.4539 25.0252 16.496 24.9516 16.5465 25.0252C16.5835 25.1119 16.6257 25.1965 16.6728 25.2785C16.6983 25.3349 16.7324 25.3872 16.7738 25.4338C16.8243 25.442 16.8243 25.3194 16.8243 25.3848C16.8159 25.6136 16.8327 25.4583 16.8832 25.5646C16.9337 25.6708 16.9927 25.6218 17.0516 25.6218C17.1256 25.6461 17.1962 25.6791 17.262 25.7199C17.3065 25.7283 17.3523 25.7283 17.3967 25.7199C17.5904 25.7362 17.7335 25.5973 17.7924 25.6136C17.8513 25.63 17.8261 25.5727 17.8513 25.5482C17.8766 25.5237 17.9271 25.4256 17.9271 25.4747V25.3766C18.0208 25.1707 18.0859 24.9535 18.1207 24.731C18.1881 24.4858 18.1788 24.2476 18.1788 23.9027C18.1788 23.5577 18.045 23.1346 18.045 23.1346C18.0113 23.0365 17.9271 22.8839 17.8513 22.8155Z" fill="#1F2227"/>
<path d="M24.5681 22.708C24.4924 22.6395 24.4503 22.6003 24.3745 22.5557C24.2987 22.5111 24.0041 22.5067 24.0041 22.5067C23.9832 22.4865 23.957 22.4724 23.9283 22.4658H23.8442C23.6481 22.5139 23.4737 22.623 23.3475 22.7764C23.2701 22.8878 23.2158 23.0127 23.1875 23.1441C23.1544 23.2935 23.1122 23.4409 23.0612 23.5855C23.0447 23.6747 23.0447 23.766 23.0612 23.8552C23.0696 23.934 23.0696 24.0134 23.0612 24.0922V24.5826C23.0696 24.6735 23.0952 24.7622 23.137 24.8441C23.1707 24.9176 23.2128 24.8441 23.2633 24.9176C23.3003 25.0044 23.3425 25.089 23.3896 25.171C23.4151 25.2273 23.4492 25.2797 23.4906 25.3263C23.5411 25.3345 23.5411 25.2119 23.5411 25.2772C23.5327 25.5061 23.5495 25.3508 23.6 25.457C23.6505 25.5633 23.7095 25.5142 23.7684 25.5142C23.8424 25.5386 23.913 25.5715 23.9788 25.6123C24.0233 25.6207 24.0691 25.6207 24.1135 25.6123C24.3072 25.6287 24.4503 25.4897 24.5092 25.5061C24.5681 25.5224 24.5429 25.4652 24.5681 25.4407C24.5934 25.4162 24.6439 25.3181 24.6439 25.3671V25.2691C24.7376 25.0631 24.8027 24.846 24.8375 24.6234C24.9049 24.3782 24.8956 24.1401 24.8956 23.7951C24.8956 23.4502 24.7618 23.0271 24.7618 23.0271C24.7281 22.929 24.6439 22.7764 24.5681 22.708Z" fill="#1F2227"/>
<path d="M19.7819 25.158C19.7731 25.2645 19.7731 25.3717 19.7819 25.4783C19.7819 25.5228 19.7643 25.505 19.7351 25.5402C19.8142 25.6029 19.7643 25.6028 19.7819 25.6206C19.7995 25.6384 19.7819 25.7452 19.7819 25.7986C19.7819 25.852 19.8355 25.9217 19.8796 25.9573C19.9236 25.9929 19.9081 26.1011 20.0137 26.0745C20.0998 26.1367 20.0101 26.1812 20.0718 26.1901C20.1334 26.199 20.0907 26.1812 20.172 26.2613C20.216 26.3313 20.2222 26.3414 20.2663 26.3325C20.3103 26.3236 20.2663 26.3735 20.3467 26.3325C20.4024 26.3562 20.3719 26.3325 20.4024 26.3058L20.4712 26.3325C20.4712 26.457 20.4443 26.3846 20.5091 26.3325C20.6157 26.2849 20.5422 26.3058 20.5951 26.3058H20.6707C20.6707 26.3058 20.7242 26.2435 20.7594 26.2613C20.7946 26.2791 20.8105 26.2083 20.8634 26.2884C20.9162 26.3685 20.9619 26.3236 20.9883 26.3058C21.0148 26.288 20.9562 26.3892 21.0422 26.2613C21.1867 26.2524 21.1042 26.1901 21.1901 26.1285C21.2452 26.0745 21.2291 26.0611 21.2555 26.0166C21.2819 25.9721 21.2555 26.0375 21.2968 25.9332C21.3758 25.9123 21.323 25.9054 21.3582 25.852C21.3934 25.7986 21.3142 25.8898 21.4375 25.7698C21.4375 25.7334 21.4688 25.7316 21.4375 25.6562C21.4375 25.6562 21.4069 25.6588 21.4069 25.6054V25.5637C21.3758 25.3934 21.5079 25.3448 21.4463 25.2202C21.4065 25.0958 21.4065 24.962 21.4463 24.8376C21.4463 24.7664 21.5167 24.6953 21.8601 24.6508C21.9992 24.6187 22.1437 24.6187 22.2828 24.6508C22.3409 24.66 22.3956 24.6845 22.4413 24.7219L22.5382 24.8376C22.5998 24.9177 22.7583 24.9978 22.6703 25.0868C22.5822 25.1757 22.7407 25.1401 22.5822 25.1668C22.82 25.2736 22.6615 25.3982 22.6791 25.505C22.6967 25.6117 22.7415 25.6562 22.714 25.8948C22.714 26.1111 22.7105 26.179 22.6349 26.3325C22.4276 26.6135 22.5118 26.6795 22.318 26.8931C22.1335 27.1097 21.9166 27.2958 21.6752 27.4447C21.6752 27.4447 21.6752 27.5782 21.5519 27.5337C21.4286 27.4892 21.4374 27.5337 21.3758 27.5871C21.3142 27.6405 21.2878 27.6672 21.2173 27.6316C20.9619 27.507 20.7858 27.6316 20.5657 27.6316C20.3455 27.6316 20.1606 27.5515 19.9492 27.5337C19.7379 27.5159 19.6587 27.5337 19.553 27.4536C19.4473 27.3736 19.4033 27.4536 19.4649 27.2757C19.4649 27.2312 19.3592 27.2757 19.324 27.2757C19.246 27.2263 19.1749 27.1664 19.1127 27.0977L18.8661 26.7952C18.8133 26.7418 18.7636 26.7258 18.7108 26.6546C18.6508 26.5906 18.643 26.5095 18.6284 26.4226C18.6194 26.3101 18.5571 26.241 18.566 26.1285C18.566 26.0217 18.5407 26.0018 18.5657 25.7986C18.6492 25.6342 18.6107 25.4427 18.6284 25.3003C18.6547 25.1682 18.6547 25.0321 18.6284 24.8999C18.6284 24.8287 18.7604 24.7575 18.7604 24.6864C18.9518 24.6297 19.1517 24.6086 19.3504 24.6241H19.4209C19.5618 24.6953 19.7819 24.7664 19.7643 24.8465C19.7638 24.9506 19.7697 25.0546 19.7819 25.158Z" fill="#1F2227"/>
</svg>
