<svg width="44" height="45" viewBox="0 0 44 45" fill="none" xmlns="http://www.w3.org/2000/svg">
<path d="M13.2 1.27539H30.8C37.6759 1.27539 43.25 6.84945 43.25 13.7254V31.3254C43.25 38.2013 37.6759 43.7754 30.8 43.7754H13.2C6.32404 43.7754 0.75 38.2013 0.75 31.3254V13.7254C0.75 6.84944 6.32404 1.27539 13.2 1.27539Z" fill="#FFF1CE" stroke="#FFE39C" stroke-width="1.5"/>
<path d="M9.21973 35.1443L9.77202 31.8574L12.4977 34.5921L9.21973 35.1443Z" fill="#383E4C"/>
<path d="M9.47754 30.8112L10.7246 26.6514L18.0823 33.4746L13.9135 34.7217L9.47754 30.8112Z" fill="#FFD79C"/>
<path d="M10.7783 26.6248L17.9489 33.6707L32.6464 19.089L25.5916 11.9629L10.7783 26.6248Z" fill="#FFCA43"/>
<path d="M28.5131 9.20165L25.8408 11.9719L32.3077 18.9109L36.2093 15.0361L35.6748 13.1833L31.4259 8.97007L29.8609 8.22559L28.5131 9.20165Z" fill="#FF798B"/>
<path d="M21.9481 29.2169C22.8923 28.2727 23.8454 27.3463 24.7718 26.3843C25.1693 26.0654 25.5044 25.6758 25.7605 25.2352C25.8674 24.9769 26.3841 24.8166 26.6958 24.487L29.3236 21.8147L31.791 19.1425C32.6194 18.2517 33.5725 17.4857 34.294 16.586C34.4511 16.3966 34.6176 16.2153 34.7928 16.0426L34.9977 15.8378C35.06 15.7843 35.1046 15.7219 35.1581 15.6685C35.3641 15.4178 35.4745 15.1022 35.4698 14.7777C35.4503 14.4563 35.339 14.1471 35.1491 13.887C35.1491 13.8157 35.0511 13.7712 34.9977 13.6999L34.7305 13.4238C34.5612 13.2367 34.392 13.0497 34.2317 12.8537C33.7903 12.2849 33.3048 11.7518 32.7797 11.2592C32.4501 10.9564 32.0671 10.7426 31.7286 10.3685C31.3901 9.99436 31.1229 9.60243 30.6686 9.47772C30.6072 9.42209 30.5612 9.35153 30.535 9.27287C30.4618 9.12531 30.3372 9.00951 30.1847 8.9472C30.0322 8.88489 29.8622 8.88034 29.7066 8.93437C29.4572 9.03236 29.2523 9.05908 29.0474 9.15706C28.907 9.22738 28.7755 9.3141 28.6555 9.41539C28.5664 9.48665 28.3348 9.73604 28.1656 9.89638L27.1056 11.09C26.5533 11.6155 25.9476 12.0877 25.3953 12.6132C24.8589 13.1992 24.2878 13.7525 23.6851 14.27C23.1107 14.7145 22.5716 15.2029 22.0728 15.7309C21.7878 16.0159 21.3691 16.2831 21.2979 16.6929C21.2979 16.6929 21.182 16.8354 21.1197 16.871C20.0686 17.4767 19.5431 18.5902 18.6523 19.3741C17.7615 20.1579 16.8708 21.111 15.98 21.9929C15.7484 22.2334 15.4456 22.4294 15.3565 22.7679C15.2566 22.9568 15.1093 23.1164 14.9289 23.231C14.1671 23.7889 13.4655 24.4248 12.8356 25.1284C12.4437 25.4936 12.0785 25.8855 11.6955 26.2685C11.4995 26.4556 11.3124 26.6426 11.1076 26.8208L10.9561 26.9544L10.8492 27.0346L10.6622 27.2127C10.5345 27.3487 10.4588 27.5253 10.4484 27.7115C10.3921 28.0058 10.3921 28.3081 10.4484 28.6023C10.435 28.9928 10.3813 29.3809 10.2881 29.7603C10.2881 30.081 10.2881 30.4106 10.2881 30.7223C10.2276 30.9943 10.1411 31.2598 10.0297 31.5151C10.0205 31.6039 10.0205 31.6935 10.0297 31.7823C10.011 32.5663 9.90647 33.346 9.71799 34.1072L9.61108 34.6238C9.59858 34.6766 9.59858 34.7315 9.61108 34.7842C9.62506 34.8343 9.65551 34.8783 9.69752 34.909C9.73954 34.9397 9.79068 34.9553 9.84269 34.9534H9.93177L10.199 34.9L10.7869 34.7931L11.9627 34.606L14.341 34.2675C18.8572 33.3981 17.4865 33.824 18.2657 34.1072C18.5685 34.2586 18.2381 34.7129 17.9085 34.9C17.6273 35.0506 16.1922 35.2267 15.882 35.3008L14.4301 35.6482C13.4475 35.9527 12.44 36.1703 11.4193 36.2985C11.0898 36.2985 10.7245 36.4855 10.4306 36.2985C10.3514 36.2811 10.2693 36.2811 10.1901 36.2985C9.92997 36.3843 9.65243 36.4031 9.38309 36.3533C9.11375 36.3035 8.8613 36.1866 8.64907 36.0134C8.42446 35.8285 8.24857 35.5913 8.13677 35.3227C8.02497 35.0541 7.98066 34.7621 8.00773 34.4724C8.0124 34.3643 8.0273 34.257 8.05225 34.1517L8.09681 33.8845L8.20369 33.3501C8.26605 33.0027 8.32841 32.6464 8.38186 32.2901C8.45799 31.0962 8.59475 29.907 8.7916 28.727C8.73357 28.3701 8.73357 28.0061 8.7916 27.6492L8.83612 27.3731C8.85716 27.2369 8.88995 27.1028 8.93412 26.9722C9.02334 26.7249 9.14624 26.4911 9.29934 26.2774C9.42817 26.1 9.57437 25.9359 9.7358 25.7875L10.0921 25.4847L10.7602 24.8789C11.1966 24.4692 11.6509 24.0416 12.0518 23.6141C12.898 22.7233 13.7264 21.886 14.5815 21.0487C16.363 19.3473 18.0377 17.5925 19.7746 15.8823C20.0345 15.5505 20.3336 15.2514 20.6654 14.9915C21.0772 14.6607 21.4561 14.2908 21.7967 13.887C22.1231 13.5278 22.468 13.1859 22.83 12.8626C24.2958 11.6239 25.685 10.2972 26.9898 8.88985C27.1768 8.71169 27.3105 8.56916 27.5332 8.37319C27.753 8.16819 28.0022 7.99707 28.2725 7.86545C28.8227 7.58823 29.4416 7.47684 30.054 7.54479C30.6719 7.59905 31.2574 7.84509 31.7286 8.2485L32.8064 9.26395C33.6527 10.0567 34.588 10.7783 35.354 11.6423C35.7014 12.0342 36.129 12.2569 36.3695 12.8448C36.4496 13.0051 36.9485 13.4149 37.0821 13.8513C37.2527 14.3605 37.2957 14.9038 37.2071 15.4334C37.1186 15.9631 36.9013 16.4629 36.5744 16.8888C36.4678 17.0302 36.3518 17.1642 36.2269 17.2897L35.9241 17.5836L35.3362 18.1715L34.1693 19.3563C33.6972 19.8462 33.2785 20.3806 32.8332 20.8794C32.3878 21.3783 31.8444 21.9038 31.3278 22.3848C30.6686 22.9995 29.9827 23.5695 29.3325 24.1663C28.6822 24.7632 28.0498 25.5648 27.3461 26.1171C26.1008 27.1957 24.9116 28.3374 23.783 29.5376C22.6072 30.6867 21.4315 31.8358 20.3091 33.0294C19.9931 33.3476 19.6569 33.6452 19.3025 33.9201C18.9284 34.2052 18.6879 34.4724 18.1802 34.8109C18.0536 34.8765 17.913 34.9107 17.7704 34.9107C17.6278 34.9107 17.4873 34.8765 17.3607 34.8109C17.1291 34.704 17.0222 34.5169 17.0846 34.419C17.1119 34.3653 17.1556 34.3216 17.2093 34.2943C17.3764 34.2085 17.5247 34.0904 17.6457 33.9469C17.7615 33.8043 17.8239 33.6618 17.9664 33.457C18.2209 33.0592 18.5197 32.6916 18.8572 32.3613C19.8281 31.3637 20.8703 30.2858 21.9481 29.2169Z" fill="#1F2227"/>
<path d="M18.0034 23.4894C17.8889 23.4958 17.8244 23.4985 17.7286 23.5237C17.6329 23.5489 17.3943 23.7806 17.3943 23.7806C17.3617 23.7814 17.3296 23.7911 17.3016 23.8088L17.2344 23.876C17.1159 24.0704 17.0628 24.2958 17.0833 24.5177C17.1095 24.6674 17.1648 24.8094 17.2461 24.9358C17.3376 25.0803 17.4204 25.2303 17.4939 25.3852C17.5511 25.4688 17.6232 25.541 17.7069 25.5982C17.7758 25.6537 17.8386 25.7165 17.8941 25.7854L18.2814 26.1727C18.3599 26.238 18.4505 26.2875 18.5485 26.3188C18.6334 26.3501 18.6089 26.2584 18.7073 26.2761C18.8054 26.3151 18.9059 26.3482 19.0082 26.3755C19.0731 26.3996 19.1416 26.4137 19.2115 26.4175C19.2583 26.3836 19.1614 26.2868 19.2131 26.3385C19.3871 26.5259 19.2779 26.3898 19.4021 26.4334C19.5264 26.4771 19.5346 26.3913 19.5817 26.3442C19.6599 26.3044 19.7424 26.2741 19.8271 26.2538C19.8692 26.2249 19.9057 26.1884 19.9346 26.1463C20.1021 26.0046 20.1065 25.7807 20.1665 25.7466C20.2264 25.7124 20.1611 25.6874 20.1619 25.6479C20.1627 25.6083 20.1255 25.4906 20.1642 25.5293L20.0868 25.4518C19.9989 25.2144 19.8794 24.9909 19.7313 24.7873C19.5914 24.5399 19.3959 24.3593 19.1235 24.0868C18.851 23.8144 18.41 23.5869 18.41 23.5869C18.3057 23.5363 18.1179 23.483 18.0034 23.4894Z" fill="#1F2227"/>
<path d="M23.2798 18.0431C23.1653 18.0495 23.1007 18.0522 23.005 18.0774C22.9093 18.1026 22.6707 18.3343 22.6707 18.3343C22.6381 18.3351 22.606 18.3449 22.5779 18.3625L22.5107 18.4297C22.3923 18.6242 22.3392 18.8495 22.3596 19.0714C22.3859 19.2211 22.4412 19.3631 22.5224 19.4895C22.614 19.634 22.6967 19.784 22.7703 19.9389C22.8275 20.0226 22.8996 20.0947 22.9833 20.1519C23.0522 20.2075 23.1149 20.2702 23.1705 20.3391L23.5578 20.7264C23.6363 20.7917 23.7268 20.8412 23.8248 20.8725C23.9098 20.9038 23.8853 20.8121 23.9837 20.8299C24.0818 20.8688 24.1822 20.9019 24.2846 20.9292C24.3495 20.9533 24.418 20.9674 24.4879 20.9712C24.5346 20.9374 24.4378 20.8405 24.4895 20.8922C24.6635 21.0796 24.5543 20.9436 24.6785 20.9872C24.8027 21.0308 24.811 20.945 24.858 20.898C24.9363 20.8581 25.0187 20.8278 25.1035 20.8075C25.1456 20.7786 25.1821 20.7421 25.211 20.7C25.3784 20.5583 25.3829 20.3344 25.4429 20.3003C25.5028 20.2661 25.4374 20.2411 25.4382 20.2016C25.439 20.1621 25.4019 20.0443 25.4406 20.083L25.3631 20.0056C25.2753 19.7681 25.1557 19.5446 25.0077 19.3411C24.8678 19.0937 24.6723 18.913 24.3998 18.6405C24.1274 18.3681 23.6864 18.1406 23.6864 18.1406C23.5821 18.09 23.3943 18.0367 23.2798 18.0431Z" fill="#1F2227"/>
<path d="M21.3953 23.7986C21.4724 23.8899 21.5571 23.9745 21.6483 24.0516C21.6834 24.0868 21.6553 24.0868 21.6598 24.138C21.7725 24.1243 21.7326 24.1641 21.7607 24.1641C21.7889 24.1641 21.8591 24.2625 21.9013 24.3047C21.9435 24.3468 22.0413 24.3591 22.1046 24.3521C22.1678 24.3451 22.2409 24.443 22.3042 24.3375C22.4221 24.318 22.3856 24.4248 22.4419 24.3826C22.4981 24.3404 22.45 24.3604 22.5781 24.3588C22.6685 24.379 22.6814 24.382 22.7095 24.3398C22.7376 24.2976 22.742 24.3722 22.7737 24.2756C22.8369 24.2498 22.7939 24.2555 22.7971 24.21L22.8731 24.1762C22.9715 24.2746 22.8928 24.2389 22.9033 24.146C22.9508 24.0233 22.9087 24.0985 22.9509 24.0563L23.0113 23.9959C23.0113 23.9959 23.0047 23.9041 23.0469 23.89C23.0891 23.876 23.0458 23.8073 23.1513 23.8284C23.2567 23.8495 23.2577 23.7776 23.2647 23.7424C23.2718 23.7073 23.305 23.8339 23.2726 23.6643C23.3809 23.5419 23.2658 23.5586 23.2858 23.4413C23.287 23.3547 23.2636 23.357 23.2496 23.3008C23.2355 23.2446 23.266 23.3172 23.2166 23.2019C23.2632 23.1224 23.2156 23.1591 23.2015 23.0888C23.1874 23.0185 23.1962 23.1538 23.1999 22.9606C23.1711 22.9319 23.1946 22.9054 23.1101 22.8709C23.1101 22.8709 23.0877 22.8974 23.0456 22.8552L23.0126 22.8223C22.8533 22.7125 22.9204 22.5687 22.7728 22.5195C22.6428 22.453 22.5371 22.3473 22.4706 22.2173C22.4144 22.1611 22.4144 22.0487 22.6533 21.7394C22.739 21.6031 22.8543 21.4878 22.9907 21.4021C23.0443 21.363 23.1074 21.3387 23.1734 21.3318L23.3421 21.3458C23.4545 21.3599 23.6443 21.2966 23.6443 21.4372C23.6443 21.5778 23.7427 21.4231 23.6372 21.5707C23.9113 21.4653 23.8832 21.6902 23.9816 21.7605C24.08 21.8308 24.1509 21.8302 24.3173 22.0405C24.4883 22.2114 24.5391 22.2678 24.5999 22.4494C24.6565 22.8368 24.7758 22.8217 24.7898 23.145C24.8137 23.4634 24.7876 23.7835 24.7125 24.0938C24.7125 24.0938 24.818 24.1992 24.6844 24.2625C24.5509 24.3257 24.5931 24.3539 24.586 24.4452C24.579 24.5366 24.579 24.5788 24.4947 24.6069C24.1925 24.7123 24.1503 24.9513 23.9746 25.127C23.7989 25.3027 23.588 25.387 23.4053 25.5416C23.2226 25.6962 23.1734 25.7735 23.0258 25.7946C22.8782 25.8157 22.9063 25.9141 22.815 25.7243C22.7798 25.6892 22.7306 25.8087 22.7025 25.8368C22.6012 25.8601 22.4972 25.8695 22.3933 25.8649L21.9575 25.8227C21.8732 25.8227 21.8209 25.8497 21.7225 25.8357C21.6241 25.833 21.5538 25.7751 21.4735 25.7182C21.3775 25.6364 21.2732 25.6317 21.1914 25.5357C21.1071 25.4513 21.0712 25.4558 20.9306 25.2754C20.8674 25.0788 20.6855 24.9583 20.5871 24.8318C20.5037 24.7064 20.3962 24.5989 20.2708 24.5155C20.2146 24.4593 20.2638 24.2976 20.2075 24.2414C20.3155 24.044 20.4583 23.8677 20.6292 23.7213L20.6854 23.6651C20.8541 23.6089 21.086 23.4894 21.1352 23.5667C21.217 23.6494 21.3039 23.7268 21.3953 23.7986Z" fill="#1F2227"/>
<path d="M10.4029 27.3737C10.2831 27.2397 10.136 27.1326 9.97221 27.0603L11.1239 25.7351C11.5397 25.9581 11.8661 26.3208 12.0427 26.7561C12.6137 27.2685 13.1418 27.8267 13.6215 28.4247C14.355 28.9719 15.0014 29.628 15.5372 30.3688C15.5465 30.3925 15.5612 30.4139 15.5801 30.4313C15.5989 30.4487 15.6213 30.4617 15.6456 30.4693C15.9076 30.4448 16.0234 30.6735 16.1726 30.8116C16.683 31.2286 17.1308 31.717 17.5012 32.2607L18.0946 32.9802C18.2195 33.1429 18.3147 33.3257 18.3758 33.5198C18.4673 33.7746 18.3221 33.9315 18.0669 33.9622C17.7937 33.9649 17.5211 33.9088 17.2675 33.7976C17.014 33.6864 16.7855 33.5227 16.5977 33.3178C15.8183 32.6689 15.0735 31.9791 14.3668 31.2517C13.6821 30.5083 12.7265 30.0847 12.1697 29.2169L12.0477 29.1039C11.882 29.0377 11.7241 28.9526 11.5772 28.8502C11.434 28.7055 11.3974 28.5138 11.2143 28.3442C11.0313 28.1747 10.7145 28.027 10.6651 27.8355C10.6122 27.6654 10.5227 27.5077 10.4029 27.3737Z" fill="#1F2227"/>
<path d="M25.3452 12.7448C25.2255 12.6108 25.0784 12.5037 24.9146 12.4313L26.0663 11.1062C26.4821 11.3292 26.8085 11.6919 26.9851 12.1272C27.5561 12.6396 28.0842 13.1978 28.5639 13.7958C29.2974 14.343 29.9438 14.9991 30.4795 15.7399C30.4889 15.7636 30.5036 15.785 30.5224 15.8024C30.5413 15.8198 30.5637 15.8328 30.588 15.8404C30.85 15.8159 30.9658 16.0446 31.115 16.1827C31.6254 16.5997 32.0732 17.0881 32.4436 17.6318L33.037 18.3512C33.1618 18.514 33.2571 18.6968 33.3182 18.8909C33.4097 19.1457 33.2645 19.3026 33.0092 19.3333C32.7361 19.336 32.4635 19.2799 32.2099 19.1687C31.9564 19.0574 31.7279 18.8938 31.5401 18.6889C30.7606 18.04 30.0159 17.3502 29.3091 16.6228C28.6245 15.8794 27.6689 15.4558 27.1121 14.588L26.9901 14.475C26.8244 14.4088 26.6665 14.3237 26.5195 14.2213C26.3764 14.0766 26.3398 13.8849 26.1567 13.7153C25.9736 13.5458 25.6569 13.3981 25.6075 13.2066C25.5546 13.0365 25.465 12.8788 25.3452 12.7448Z" fill="#1F2227"/>
<path d="M13.6319 34.2328C13.6904 34.3126 13.7736 34.3689 13.8756 34.3977L12.7944 35.5218C12.5433 35.4201 12.3834 35.2046 12.3444 34.915C12.0405 34.6262 11.7761 34.2982 11.5541 33.9345C11.1417 33.6438 10.8127 33.2619 10.5793 32.8029C10.5773 32.7871 10.5711 32.7738 10.5612 32.7639C10.5513 32.754 10.5379 32.7478 10.5221 32.7458C10.3312 32.8011 10.2943 32.6523 10.2158 32.5738C9.93599 32.3454 9.71483 32.0563 9.55964 31.7161L9.28097 31.2808C9.22457 31.1809 9.19321 31.0623 9.18836 30.9307C9.17389 30.7595 9.30822 30.6252 9.49562 30.5663C9.69016 30.5251 9.87269 30.5266 10.0307 30.5707C10.1888 30.6147 10.3186 30.7003 10.4114 30.8216C10.8362 31.1792 11.2283 31.5713 11.5859 31.9962C11.9247 32.4357 12.5194 32.605 12.7427 33.1529L12.8069 33.2172C12.9115 33.2412 13.0068 33.2802 13.0908 33.3331C13.1638 33.4173 13.1517 33.5507 13.2481 33.6471C13.3445 33.7435 13.5402 33.8049 13.5373 33.9363C13.5411 34.0518 13.5734 34.153 13.6319 34.2328Z" fill="#1F2227"/>
</svg>
